ISO-10303-21;
HEADER;
/* Generated by software containing ST-Developer
 * from STEP Tools, Inc. (www.steptools.com) 
 */
/* OPTION: using custom renumber hook */

FILE_DESCRIPTION(
/* description */ ('STEP AP242 Edition 2',
'CAx-IF Rec.Pracs.---Representation and Presentation of Product Manufa
cturing Information (PMI)---4.0---2014-10-13',
'CAx-IF Rec.Pracs.---3D Tessellated Geometry---0.4---2014-09-14','2;1',
'CAx-IF Rec.Pracs.---User Defined Attributes---1.5---2016-08-15'),
/* implementation_level */ '2;1');

FILE_NAME(
/* name */ 'Assembly 1 - Reload Ramp',
/* time_stamp */ '2026-07-14T16:54:42Z',
/* author */ (''),
/* organization */ (''),
/* preprocessor_version */ 'ST-DEVELOPER v20',
/* originating_system */ 'ONSHAPE BY PTC INC, 1.217',
/* authorisation */ '  ');

FILE_SCHEMA (('AP242_MANAGED_MODEL_BASED_3D_ENGINEERING_MIM_LF { 1 0 10303 442 3 1 4 }'));
ENDSEC;

DATA;
#10=SHAPE_REPRESENTATION_RELATIONSHIP('','',#116,#11);
#11=ADVANCED_BREP_SHAPE_REPRESENTATION('',(#114),#184);
#12=CYLINDRICAL_SURFACE('',#121,0.002);
#13=LINE('',#160,#22);
#14=LINE('',#163,#23);
#15=LINE('',#165,#24);
#16=LINE('',#167,#25);
#17=LINE('',#169,#26);
#18=LINE('',#171,#27);
#19=LINE('',#177,#28);
#20=LINE('',#179,#29);
#21=LINE('',#181,#30);
#22=VECTOR('',#133,1.);
#23=VECTOR('',#134,1.);
#24=VECTOR('',#135,1.);
#25=VECTOR('',#136,1.);
#26=VECTOR('',#139,1.);
#27=VECTOR('',#140,1.);
#28=VECTOR('',#149,1.);
#29=VECTOR('',#150,1.);
#30=VECTOR('',#153,1.);
#31=ORIENTED_EDGE('',*,*,#53,.F.);
#32=ORIENTED_EDGE('',*,*,#54,.F.);
#33=ORIENTED_EDGE('',*,*,#55,.T.);
#34=ORIENTED_EDGE('',*,*,#56,.T.);
#35=ORIENTED_EDGE('',*,*,#57,.T.);
#36=ORIENTED_EDGE('',*,*,#58,.F.);
#37=ORIENTED_EDGE('',*,*,#59,.F.);
#38=ORIENTED_EDGE('',*,*,#56,.F.);
#39=ORIENTED_EDGE('',*,*,#60,.F.);
#40=ORIENTED_EDGE('',*,*,#53,.T.);
#41=ORIENTED_EDGE('',*,*,#60,.T.);
#42=ORIENTED_EDGE('',*,*,#57,.F.);
#43=ORIENTED_EDGE('',*,*,#59,.T.);
#44=ORIENTED_EDGE('',*,*,#61,.T.);
#45=ORIENTED_EDGE('',*,*,#62,.F.);
#46=ORIENTED_EDGE('',*,*,#63,.F.);
#47=ORIENTED_EDGE('',*,*,#54,.T.);
#48=ORIENTED_EDGE('',*,*,#62,.T.);
#49=ORIENTED_EDGE('',*,*,#63,.T.);
#50=ORIENTED_EDGE('',*,*,#61,.F.);
#51=ORIENTED_EDGE('',*,*,#58,.T.);
#52=ORIENTED_EDGE('',*,*,#55,.F.);
#53=EDGE_CURVE('',#64,#64,#72,.T.);
#54=EDGE_CURVE('',#65,#66,#13,.T.);
#55=EDGE_CURVE('',#65,#67,#14,.T.);
#56=EDGE_CURVE('',#67,#68,#15,.T.);
#57=EDGE_CURVE('',#68,#66,#16,.T.);
#58=EDGE_CURVE('',#69,#67,#17,.T.);
#59=EDGE_CURVE('',#68,#69,#18,.T.);
#60=EDGE_CURVE('',#70,#70,#73,.T.);
#61=EDGE_CURVE('',#69,#71,#19,.T.);
#62=EDGE_CURVE('',#66,#71,#20,.T.);
#63=EDGE_CURVE('',#65,#71,#21,.T.);
#64=VERTEX_POINT('',#159);
#65=VERTEX_POINT('',#161);
#66=VERTEX_POINT('',#162);
#67=VERTEX_POINT('',#164);
#68=VERTEX_POINT('',#166);
#69=VERTEX_POINT('',#170);
#70=VERTEX_POINT('',#174);
#71=VERTEX_POINT('',#178);
#72=CIRCLE('',#119,0.002);
#73=CIRCLE('',#122,0.002);
#74=EDGE_LOOP('',(#31));
#75=EDGE_LOOP('',(#32,#33,#34,#35));
#76=EDGE_LOOP('',(#36,#37,#38));
#77=EDGE_LOOP('',(#39));
#78=EDGE_LOOP('',(#40));
#79=EDGE_LOOP('',(#41));
#80=EDGE_LOOP('',(#42,#43,#44,#45));
#81=EDGE_LOOP('',(#46,#47,#48));
#82=EDGE_LOOP('',(#49,#50,#51,#52));
#83=FACE_BOUND('',#74,.T.);
#84=FACE_BOUND('',#75,.T.);
#85=FACE_BOUND('',#76,.T.);
#86=FACE_BOUND('',#77,.T.);
#87=FACE_BOUND('',#78,.T.);
#88=FACE_BOUND('',#79,.T.);
#89=FACE_BOUND('',#80,.T.);
#90=FACE_BOUND('',#81,.T.);
#91=FACE_BOUND('',#82,.T.);
#92=PLANE('',#118);
#93=PLANE('',#120);
#94=PLANE('',#123);
#95=PLANE('',#124);
#96=PLANE('',#125);
#97=PLANE('',#126);
#98=ADVANCED_FACE('',(#83,#84),#92,.T.);
#99=ADVANCED_FACE('',(#85),#93,.F.);
#100=ADVANCED_FACE('',(#86,#87),#12,.F.);
#101=ADVANCED_FACE('',(#88),#94,.T.);
#102=ADVANCED_FACE('',(#89),#95,.F.);
#103=ADVANCED_FACE('',(#90),#96,.T.);
#104=ADVANCED_FACE('',(#91),#97,.F.);
#105=CLOSED_SHELL('',(#98,#99,#100,#101,#102,#103,#104));
#106=STYLED_ITEM('',(#107),#114);
#107=PRESENTATION_STYLE_ASSIGNMENT((#108));
#108=SURFACE_STYLE_USAGE(.BOTH.,#109);
#109=SURFACE_SIDE_STYLE('',(#110));
#110=SURFACE_STYLE_FILL_AREA(#111);
#111=FILL_AREA_STYLE('',(#112));
#112=FILL_AREA_STYLE_COLOUR('',#113);
#113=COLOUR_RGB('',0.8,0.776470588235294,0.713725490196078);
#114=MANIFOLD_SOLID_BREP('Reload Ramp',#105);
#115=SHAPE_DEFINITION_REPRESENTATION(#189,#116);
#116=SHAPE_REPRESENTATION('Reload Ramp',(#117),#184);
#117=AXIS2_PLACEMENT_3D('',#156,#127,#128);
#118=AXIS2_PLACEMENT_3D('',#157,#129,#130);
#119=AXIS2_PLACEMENT_3D('',#158,#131,#132);
#120=AXIS2_PLACEMENT_3D('',#168,#137,#138);
#121=AXIS2_PLACEMENT_3D('',#172,#141,#142);
#122=AXIS2_PLACEMENT_3D('',#173,#143,#144);
#123=AXIS2_PLACEMENT_3D('',#175,#145,#146);
#124=AXIS2_PLACEMENT_3D('',#176,#147,#148);
#125=AXIS2_PLACEMENT_3D('',#180,#151,#152);
#126=AXIS2_PLACEMENT_3D('',#182,#154,#155);
#127=DIRECTION('',(0.,0.,1.));
#128=DIRECTION('',(1.,0.,0.));
#129=DIRECTION('',(0.,-1.,0.));
#130=DIRECTION('',(0.,0.,-1.));
#131=DIRECTION('',(0.,-1.,0.));
#132=DIRECTION('',(0.,0.,-1.));
#133=DIRECTION('',(0.,0.,-1.));
#134=DIRECTION('',(-1.,0.,0.));
#135=DIRECTION('',(0.,0.,-1.));
#136=DIRECTION('',(1.,0.,0.));
#137=DIRECTION('',(1.,0.,0.));
#138=DIRECTION('',(0.,0.,-1.));
#139=DIRECTION('',(0.,-0.891558047596167,0.45290644482775));
#140=DIRECTION('',(0.,1.,0.));
#141=DIRECTION('',(0.,1.,1.83480367651393E-16));
#142=DIRECTION('',(0.,-1.83480367651393E-16,1.));
#143=DIRECTION('',(0.,-1.,-1.83480367651393E-16));
#144=DIRECTION('',(0.,1.83480367651393E-16,-1.));
#145=DIRECTION('',(0.,-1.,-1.83480367651393E-16));
#146=DIRECTION('',(1.,0.,0.));
#147=DIRECTION('',(0.,0.,1.));
#148=DIRECTION('',(1.,0.,0.));
#149=DIRECTION('',(1.,0.,0.));
#150=DIRECTION('',(0.,1.,0.));
#151=DIRECTION('',(1.,0.,0.));
#152=DIRECTION('',(0.,1.,0.));
#153=DIRECTION('',(0.,0.891558047596167,-0.45290644482775));
#154=DIRECTION('',(0.,-0.45290644482775,-0.891558047596167));
#155=DIRECTION('',(0.,0.891558047596167,-0.45290644482775));
#156=CARTESIAN_POINT('',(0.,0.,0.));
#157=CARTESIAN_POINT('',(0.0529087409377098,0.00360002313554284,0.0857636422514916));
#158=CARTESIAN_POINT('',(0.0629087409377098,0.00360002313554284,0.0262636422514916));
#159=CARTESIAN_POINT('',(0.0629087409377098,0.00360002313554284,0.0242636422514916));
#160=CARTESIAN_POINT('',(0.0779087409377098,0.00360002313554284,0.0707636422514916));
#161=CARTESIAN_POINT('',(0.0779087409377098,0.00360002313554284,0.0309555064886808));
#162=CARTESIAN_POINT('',(0.0779087409377098,0.00360002313554284,0.0187636422514916));
#163=CARTESIAN_POINT('',(0.0809087409377098,0.00360002313554284,0.0309555064886808));
#164=CARTESIAN_POINT('',(0.0559087409377098,0.00360002313554284,0.0309555064886808));
#165=CARTESIAN_POINT('',(0.0559087409377098,0.00360002313554284,0.0487636422514916));
#166=CARTESIAN_POINT('',(0.0559087409377098,0.00360002313554284,0.0187636422514916));
#167=CARTESIAN_POINT('',(0.0704087409377098,0.00360002313554284,0.0187636422514916));
#168=CARTESIAN_POINT('',(0.0559087409377098,0.0391000231355429,0.0487636422514916));
#169=CARTESIAN_POINT('',(0.0559087409377098,0.0156000231355428,0.0248595743700862));
#170=CARTESIAN_POINT('',(0.0559087409377098,0.0276000231355428,0.0187636422514916));
#171=CARTESIAN_POINT('',(0.0559087409377098,-0.00689997686445715,0.0187636422514916));
#172=CARTESIAN_POINT('',(0.0629087409377098,-0.0338999768644572,0.0262636422514916));
#173=CARTESIAN_POINT('',(0.0629087409377098,0.00760002313554284,0.0262636422514916));
#174=CARTESIAN_POINT('',(0.0629087409377098,0.00760002313554284,0.0242636422514916));
#175=CARTESIAN_POINT('',(0.0669543709377098,0.00760002313554283,0.0707636422514916));
#176=CARTESIAN_POINT('',(0.0704087409377098,-0.00689997686445715,0.0187636422514916));
#177=CARTESIAN_POINT('',(0.0569087409377098,0.0276000231355428,0.0187636422514916));
#178=CARTESIAN_POINT('',(0.0779087409377098,0.0276000231355428,0.0187636422514916));
#179=CARTESIAN_POINT('',(0.0779087409377098,-0.00689997686445715,0.0187636422514916));
#180=CARTESIAN_POINT('',(0.0779087409377098,0.0216000231355429,0.0707636422514916));
#181=CARTESIAN_POINT('',(0.0779087409377098,0.00183356456603575,0.0318528574495162));
#182=CARTESIAN_POINT('',(0.0809087409377098,0.0156000231355428,0.0248595743700862));
#183=MECHANICAL_DESIGN_GEOMETRIC_PRESENTATION_REPRESENTATION('',(#106),
#184);
#184=(
GEOMETRIC_REPRESENTATION_CONTEXT(3)
GLOBAL_UNCERTAINTY_ASSIGNED_CONTEXT((#185))
GLOBAL_UNIT_ASSIGNED_CONTEXT((#188,#187,#186))
REPRESENTATION_CONTEXT('Reload Ramp','TOP_LEVEL_ASSEMBLY_PART')
);
#185=UNCERTAINTY_MEASURE_WITH_UNIT(LENGTH_MEASURE(1.E-8),#188,
'DISTANCE_ACCURACY_VALUE','Maximum Tolerance applied to model');
#186=(
NAMED_UNIT(*)
SI_UNIT($,.STERADIAN.)
SOLID_ANGLE_UNIT()
);
#187=(
NAMED_UNIT(*)
PLANE_ANGLE_UNIT()
SI_UNIT($,.RADIAN.)
);
#188=(
LENGTH_UNIT()
NAMED_UNIT(*)
SI_UNIT($,.METRE.)
);
#189=PRODUCT_DEFINITION_SHAPE('','',#190);
#190=PRODUCT_DEFINITION('','',#192,#191);
#191=PRODUCT_DEFINITION_CONTEXT('',#198,'design');
#192=PRODUCT_DEFINITION_FORMATION_WITH_SPECIFIED_SOURCE('','',#194,
 .NOT_KNOWN.);
#193=PRODUCT_RELATED_PRODUCT_CATEGORY('','',(#194));
#194=PRODUCT('Reload Ramp','Reload Ramp','Reload Ramp',(#196));
#195=PRODUCT_CATEGORY('','');
#196=PRODUCT_CONTEXT('',#198,'mechanical');
#197=APPLICATION_PROTOCOL_DEFINITION('international standard',
'ap242_managed_model_based_3d_engineering',2020,#198);
#198=APPLICATION_CONTEXT('managed model based 3d engineering');
ENDSEC;
END-ISO-10303-21;
