ISO-10303-21;
HEADER;
/* Generated by software containing ST-Developer
 * from STEP Tools, Inc. (www.steptools.com) 
 */
/* OPTION: using custom renumber hook */

FILE_DESCRIPTION(
/* description */ ('STEP AP242 Edition 2',
'CAx-IF Rec.Pracs.---Representation and Presentation of Product Manufa
cturing Information (PMI)---4.0---2014-10-13',
'CAx-IF Rec.Pracs.---3D Tessellated Geometry---0.4---2014-09-14','2;1',
'CAx-IF Rec.Pracs.---User Defined Attributes---1.5---2016-08-15'),
/* implementation_level */ '2;1');

FILE_NAME(
/* name */ 'Assembly 1 - Output Lever (3)',
/* time_stamp */ '2026-07-14T16:54:42Z',
/* author */ (''),
/* organization */ (''),
/* preprocessor_version */ 'ST-DEVELOPER v20',
/* originating_system */ 'ONSHAPE BY PTC INC, 1.217',
/* authorisation */ '  ');

FILE_SCHEMA (('AP242_MANAGED_MODEL_BASED_3D_ENGINEERING_MIM_LF { 1 0 10303 442 3 1 4 }'));
ENDSEC;

DATA;
#10=SHAPE_REPRESENTATION_RELATIONSHIP('','',#645,#11);
#11=ADVANCED_BREP_SHAPE_REPRESENTATION('',(#643),#1090);
#12=CIRCLE('',#651,0.004);
#13=CIRCLE('',#652,0.004);
#14=CIRCLE('',#654,0.001);
#15=CIRCLE('',#655,0.001);
#16=CIRCLE('',#658,0.004);
#17=CIRCLE('',#659,0.004);
#18=CIRCLE('',#661,0.004);
#19=CIRCLE('',#662,0.004);
#20=CIRCLE('',#664,0.002);
#21=CIRCLE('',#665,0.002);
#22=CIRCLE('',#667,0.001);
#23=CIRCLE('',#668,0.005);
#24=CIRCLE('',#669,0.002);
#25=CIRCLE('',#670,0.004);
#26=CIRCLE('',#675,0.005);
#27=CIRCLE('',#677,0.002);
#28=CIRCLE('',#680,0.004);
#29=CIRCLE('',#681,0.004);
#30=CIRCLE('',#683,0.001);
#31=CIRCLE('',#686,0.003);
#32=CIRCLE('',#687,0.003);
#33=CIRCLE('',#689,0.003);
#34=CIRCLE('',#690,0.003);
#35=CIRCLE('',#693,0.003);
#36=CIRCLE('',#694,0.003);
#37=CIRCLE('',#697,0.003);
#38=CIRCLE('',#698,0.003);
#39=CIRCLE('',#701,0.002);
#40=CIRCLE('',#702,0.002);
#41=CIRCLE('',#704,0.002);
#42=CIRCLE('',#705,0.002);
#43=CIRCLE('',#709,0.005);
#44=CIRCLE('',#711,0.005);
#45=CYLINDRICAL_SURFACE('',#650,0.004);
#46=CYLINDRICAL_SURFACE('',#653,0.001);
#47=CYLINDRICAL_SURFACE('',#657,0.004);
#48=CYLINDRICAL_SURFACE('',#660,0.004);
#49=CYLINDRICAL_SURFACE('',#663,0.002);
#50=CYLINDRICAL_SURFACE('',#674,0.005);
#51=CYLINDRICAL_SURFACE('',#676,0.002);
#52=CYLINDRICAL_SURFACE('',#679,0.004);
#53=CYLINDRICAL_SURFACE('',#682,0.001);
#54=CYLINDRICAL_SURFACE('',#685,0.003);
#55=CYLINDRICAL_SURFACE('',#688,0.003);
#56=CYLINDRICAL_SURFACE('',#692,0.003);
#57=CYLINDRICAL_SURFACE('',#696,0.003);
#58=CYLINDRICAL_SURFACE('',#700,0.002);
#59=CYLINDRICAL_SURFACE('',#703,0.002);
#60=CYLINDRICAL_SURFACE('',#712,0.005);
#61=ORIENTED_EDGE('',*,*,#241,.T.);
#62=ORIENTED_EDGE('',*,*,#242,.T.);
#63=ORIENTED_EDGE('',*,*,#243,.T.);
#64=ORIENTED_EDGE('',*,*,#244,.T.);
#65=ORIENTED_EDGE('',*,*,#245,.T.);
#66=ORIENTED_EDGE('',*,*,#246,.T.);
#67=ORIENTED_EDGE('',*,*,#247,.T.);
#68=ORIENTED_EDGE('',*,*,#248,.T.);
#69=ORIENTED_EDGE('',*,*,#249,.T.);
#70=ORIENTED_EDGE('',*,*,#250,.T.);
#71=ORIENTED_EDGE('',*,*,#251,.T.);
#72=ORIENTED_EDGE('',*,*,#252,.T.);
#73=ORIENTED_EDGE('',*,*,#253,.F.);
#74=ORIENTED_EDGE('',*,*,#254,.F.);
#75=ORIENTED_EDGE('',*,*,#243,.F.);
#76=ORIENTED_EDGE('',*,*,#255,.T.);
#77=ORIENTED_EDGE('',*,*,#245,.F.);
#78=ORIENTED_EDGE('',*,*,#256,.F.);
#79=ORIENTED_EDGE('',*,*,#247,.F.);
#80=ORIENTED_EDGE('',*,*,#257,.F.);
#81=ORIENTED_EDGE('',*,*,#258,.F.);
#82=ORIENTED_EDGE('',*,*,#259,.F.);
#83=ORIENTED_EDGE('',*,*,#260,.F.);
#84=ORIENTED_EDGE('',*,*,#261,.T.);
#85=ORIENTED_EDGE('',*,*,#262,.T.);
#86=ORIENTED_EDGE('',*,*,#263,.T.);
#87=ORIENTED_EDGE('',*,*,#261,.F.);
#88=ORIENTED_EDGE('',*,*,#264,.F.);
#89=ORIENTED_EDGE('',*,*,#265,.F.);
#90=ORIENTED_EDGE('',*,*,#266,.F.);
#91=ORIENTED_EDGE('',*,*,#267,.F.);
#92=ORIENTED_EDGE('',*,*,#268,.F.);
#93=ORIENTED_EDGE('',*,*,#263,.F.);
#94=ORIENTED_EDGE('',*,*,#269,.F.);
#95=ORIENTED_EDGE('',*,*,#270,.F.);
#96=ORIENTED_EDGE('',*,*,#271,.T.);
#97=ORIENTED_EDGE('',*,*,#272,.F.);
#98=ORIENTED_EDGE('',*,*,#273,.F.);
#99=ORIENTED_EDGE('',*,*,#274,.T.);
#100=ORIENTED_EDGE('',*,*,#275,.T.);
#101=ORIENTED_EDGE('',*,*,#276,.F.);
#102=ORIENTED_EDGE('',*,*,#269,.T.);
#103=ORIENTED_EDGE('',*,*,#262,.F.);
#104=ORIENTED_EDGE('',*,*,#266,.T.);
#105=ORIENTED_EDGE('',*,*,#277,.T.);
#106=ORIENTED_EDGE('',*,*,#270,.T.);
#107=ORIENTED_EDGE('',*,*,#278,.F.);
#108=ORIENTED_EDGE('',*,*,#279,.F.);
#109=ORIENTED_EDGE('',*,*,#280,.T.);
#110=ORIENTED_EDGE('',*,*,#250,.F.);
#111=ORIENTED_EDGE('',*,*,#281,.T.);
#112=ORIENTED_EDGE('',*,*,#244,.F.);
#113=ORIENTED_EDGE('',*,*,#256,.T.);
#114=ORIENTED_EDGE('',*,*,#248,.F.);
#115=ORIENTED_EDGE('',*,*,#259,.T.);
#116=ORIENTED_EDGE('',*,*,#258,.T.);
#117=ORIENTED_EDGE('',*,*,#282,.T.);
#118=ORIENTED_EDGE('',*,*,#283,.T.);
#119=ORIENTED_EDGE('',*,*,#274,.F.);
#120=ORIENTED_EDGE('',*,*,#284,.F.);
#121=ORIENTED_EDGE('',*,*,#285,.T.);
#122=ORIENTED_EDGE('',*,*,#286,.F.);
#123=ORIENTED_EDGE('',*,*,#267,.T.);
#124=ORIENTED_EDGE('',*,*,#276,.T.);
#125=ORIENTED_EDGE('',*,*,#287,.T.);
#126=ORIENTED_EDGE('',*,*,#288,.T.);
#127=ORIENTED_EDGE('',*,*,#289,.F.);
#128=ORIENTED_EDGE('',*,*,#290,.T.);
#129=ORIENTED_EDGE('',*,*,#279,.T.);
#130=ORIENTED_EDGE('',*,*,#278,.T.);
#131=ORIENTED_EDGE('',*,*,#273,.T.);
#132=ORIENTED_EDGE('',*,*,#291,.F.);
#133=ORIENTED_EDGE('',*,*,#288,.F.);
#134=ORIENTED_EDGE('',*,*,#280,.F.);
#135=ORIENTED_EDGE('',*,*,#290,.F.);
#136=ORIENTED_EDGE('',*,*,#292,.F.);
#137=ORIENTED_EDGE('',*,*,#251,.F.);
#138=ORIENTED_EDGE('',*,*,#293,.T.);
#139=ORIENTED_EDGE('',*,*,#294,.T.);
#140=ORIENTED_EDGE('',*,*,#295,.T.);
#141=ORIENTED_EDGE('',*,*,#296,.T.);
#142=ORIENTED_EDGE('',*,*,#297,.T.);
#143=ORIENTED_EDGE('',*,*,#271,.F.);
#144=ORIENTED_EDGE('',*,*,#277,.F.);
#145=ORIENTED_EDGE('',*,*,#265,.T.);
#146=ORIENTED_EDGE('',*,*,#298,.T.);
#147=ORIENTED_EDGE('',*,*,#299,.T.);
#148=ORIENTED_EDGE('',*,*,#241,.F.);
#149=ORIENTED_EDGE('',*,*,#281,.F.);
#150=ORIENTED_EDGE('',*,*,#249,.F.);
#151=ORIENTED_EDGE('',*,*,#300,.F.);
#152=ORIENTED_EDGE('',*,*,#275,.F.);
#153=ORIENTED_EDGE('',*,*,#283,.F.);
#154=ORIENTED_EDGE('',*,*,#301,.F.);
#155=ORIENTED_EDGE('',*,*,#287,.F.);
#156=ORIENTED_EDGE('',*,*,#302,.F.);
#157=ORIENTED_EDGE('',*,*,#298,.F.);
#158=ORIENTED_EDGE('',*,*,#303,.T.);
#159=ORIENTED_EDGE('',*,*,#304,.T.);
#160=ORIENTED_EDGE('',*,*,#305,.F.);
#161=ORIENTED_EDGE('',*,*,#304,.F.);
#162=ORIENTED_EDGE('',*,*,#306,.F.);
#163=ORIENTED_EDGE('',*,*,#307,.T.);
#164=ORIENTED_EDGE('',*,*,#296,.F.);
#165=ORIENTED_EDGE('',*,*,#308,.T.);
#166=ORIENTED_EDGE('',*,*,#309,.F.);
#167=ORIENTED_EDGE('',*,*,#310,.F.);
#168=ORIENTED_EDGE('',*,*,#253,.T.);
#169=ORIENTED_EDGE('',*,*,#311,.F.);
#170=ORIENTED_EDGE('',*,*,#312,.F.);
#171=ORIENTED_EDGE('',*,*,#313,.T.);
#172=ORIENTED_EDGE('',*,*,#309,.T.);
#173=ORIENTED_EDGE('',*,*,#314,.T.);
#174=ORIENTED_EDGE('',*,*,#315,.F.);
#175=ORIENTED_EDGE('',*,*,#316,.F.);
#176=ORIENTED_EDGE('',*,*,#312,.T.);
#177=ORIENTED_EDGE('',*,*,#317,.F.);
#178=ORIENTED_EDGE('',*,*,#318,.F.);
#179=ORIENTED_EDGE('',*,*,#319,.T.);
#180=ORIENTED_EDGE('',*,*,#315,.T.);
#181=ORIENTED_EDGE('',*,*,#320,.F.);
#182=ORIENTED_EDGE('',*,*,#321,.F.);
#183=ORIENTED_EDGE('',*,*,#322,.T.);
#184=ORIENTED_EDGE('',*,*,#318,.T.);
#185=ORIENTED_EDGE('',*,*,#323,.F.);
#186=ORIENTED_EDGE('',*,*,#307,.F.);
#187=ORIENTED_EDGE('',*,*,#324,.T.);
#188=ORIENTED_EDGE('',*,*,#321,.T.);
#189=ORIENTED_EDGE('',*,*,#325,.T.);
#190=ORIENTED_EDGE('',*,*,#326,.F.);
#191=ORIENTED_EDGE('',*,*,#327,.F.);
#192=ORIENTED_EDGE('',*,*,#328,.T.);
#193=ORIENTED_EDGE('',*,*,#254,.T.);
#194=ORIENTED_EDGE('',*,*,#310,.T.);
#195=ORIENTED_EDGE('',*,*,#313,.F.);
#196=ORIENTED_EDGE('',*,*,#316,.T.);
#197=ORIENTED_EDGE('',*,*,#319,.F.);
#198=ORIENTED_EDGE('',*,*,#322,.F.);
#199=ORIENTED_EDGE('',*,*,#324,.F.);
#200=ORIENTED_EDGE('',*,*,#306,.T.);
#201=ORIENTED_EDGE('',*,*,#303,.F.);
#202=ORIENTED_EDGE('',*,*,#300,.T.);
#203=ORIENTED_EDGE('',*,*,#325,.F.);
#204=ORIENTED_EDGE('',*,*,#327,.T.);
#205=ORIENTED_EDGE('',*,*,#297,.F.);
#206=ORIENTED_EDGE('',*,*,#323,.T.);
#207=ORIENTED_EDGE('',*,*,#320,.T.);
#208=ORIENTED_EDGE('',*,*,#317,.T.);
#209=ORIENTED_EDGE('',*,*,#314,.F.);
#210=ORIENTED_EDGE('',*,*,#311,.T.);
#211=ORIENTED_EDGE('',*,*,#308,.F.);
#212=ORIENTED_EDGE('',*,*,#252,.F.);
#213=ORIENTED_EDGE('',*,*,#292,.T.);
#214=ORIENTED_EDGE('',*,*,#289,.T.);
#215=ORIENTED_EDGE('',*,*,#291,.T.);
#216=ORIENTED_EDGE('',*,*,#272,.T.);
#217=ORIENTED_EDGE('',*,*,#326,.T.);
#218=ORIENTED_EDGE('',*,*,#328,.F.);
#219=ORIENTED_EDGE('',*,*,#257,.T.);
#220=ORIENTED_EDGE('',*,*,#246,.F.);
#221=ORIENTED_EDGE('',*,*,#255,.F.);
#222=ORIENTED_EDGE('',*,*,#242,.F.);
#223=ORIENTED_EDGE('',*,*,#299,.F.);
#224=ORIENTED_EDGE('',*,*,#302,.T.);
#225=ORIENTED_EDGE('',*,*,#305,.T.);
#226=ORIENTED_EDGE('',*,*,#295,.F.);
#227=ORIENTED_EDGE('',*,*,#329,.T.);
#228=ORIENTED_EDGE('',*,*,#284,.T.);
#229=ORIENTED_EDGE('',*,*,#301,.T.);
#230=ORIENTED_EDGE('',*,*,#282,.F.);
#231=ORIENTED_EDGE('',*,*,#286,.T.);
#232=ORIENTED_EDGE('',*,*,#330,.T.);
#233=ORIENTED_EDGE('',*,*,#293,.F.);
#234=ORIENTED_EDGE('',*,*,#264,.T.);
#235=ORIENTED_EDGE('',*,*,#260,.T.);
#236=ORIENTED_EDGE('',*,*,#268,.T.);
#237=ORIENTED_EDGE('',*,*,#330,.F.);
#238=ORIENTED_EDGE('',*,*,#285,.F.);
#239=ORIENTED_EDGE('',*,*,#329,.F.);
#240=ORIENTED_EDGE('',*,*,#294,.F.);
#241=EDGE_CURVE('',#331,#332,#392,.F.);
#242=EDGE_CURVE('',#332,#333,#393,.T.);
#243=EDGE_CURVE('',#333,#334,#394,.F.);
#244=EDGE_CURVE('',#334,#331,#395,.T.);
#245=EDGE_CURVE('',#335,#336,#396,.T.);
#246=EDGE_CURVE('',#336,#337,#397,.T.);
#247=EDGE_CURVE('',#337,#338,#398,.F.);
#248=EDGE_CURVE('',#338,#335,#399,.T.);
#249=EDGE_CURVE('',#339,#340,#400,.T.);
#250=EDGE_CURVE('',#340,#341,#401,.T.);
#251=EDGE_CURVE('',#341,#342,#402,.T.);
#252=EDGE_CURVE('',#342,#343,#403,.T.);
#253=EDGE_CURVE('',#344,#343,#404,.T.);
#254=EDGE_CURVE('',#339,#344,#405,.T.);
#255=EDGE_CURVE('',#333,#336,#12,.T.);
#256=EDGE_CURVE('',#334,#335,#13,.T.);
#257=EDGE_CURVE('',#345,#337,#14,.T.);
#258=EDGE_CURVE('',#346,#345,#406,.T.);
#259=EDGE_CURVE('',#338,#346,#15,.F.);
#260=EDGE_CURVE('',#347,#348,#407,.T.);
#261=EDGE_CURVE('',#347,#349,#408,.F.);
#262=EDGE_CURVE('',#349,#350,#409,.T.);
#263=EDGE_CURVE('',#350,#348,#410,.F.);
#264=EDGE_CURVE('',#351,#347,#16,.T.);
#265=EDGE_CURVE('',#352,#351,#411,.T.);
#266=EDGE_CURVE('',#349,#352,#17,.F.);
#267=EDGE_CURVE('',#353,#354,#412,.T.);
#268=EDGE_CURVE('',#348,#353,#18,.T.);
#269=EDGE_CURVE('',#354,#350,#19,.F.);
#270=EDGE_CURVE('',#355,#356,#20,.F.);
#271=EDGE_CURVE('',#355,#357,#413,.T.);
#272=EDGE_CURVE('',#358,#357,#21,.T.);
#273=EDGE_CURVE('',#356,#358,#414,.T.);
#274=EDGE_CURVE('',#346,#359,#415,.T.);
#275=EDGE_CURVE('',#359,#360,#22,.F.);
#276=EDGE_CURVE('',#354,#360,#416,.T.);
#277=EDGE_CURVE('',#352,#355,#417,.T.);
#278=EDGE_CURVE('',#361,#356,#23,.T.);
#279=EDGE_CURVE('',#362,#361,#418,.T.);
#280=EDGE_CURVE('',#362,#341,#24,.F.);
#281=EDGE_CURVE('',#340,#331,#25,.T.);
#282=EDGE_CURVE('',#345,#363,#419,.T.);
#283=EDGE_CURVE('',#363,#359,#420,.F.);
#284=EDGE_CURVE('',#364,#365,#421,.T.);
#285=EDGE_CURVE('',#364,#366,#422,.F.);
#286=EDGE_CURVE('',#353,#366,#423,.T.);
#287=EDGE_CURVE('',#360,#365,#424,.T.);
#288=EDGE_CURVE('',#361,#367,#425,.T.);
#289=EDGE_CURVE('',#368,#367,#426,.T.);
#290=EDGE_CURVE('',#368,#362,#427,.F.);
#291=EDGE_CURVE('',#367,#358,#26,.T.);
#292=EDGE_CURVE('',#342,#368,#27,.T.);
#293=EDGE_CURVE('',#351,#369,#428,.T.);
#294=EDGE_CURVE('',#369,#370,#429,.T.);
#295=EDGE_CURVE('',#370,#371,#430,.T.);
#296=EDGE_CURVE('',#371,#372,#431,.F.);
#297=EDGE_CURVE('',#372,#357,#432,.T.);
#298=EDGE_CURVE('',#373,#374,#433,.T.);
#299=EDGE_CURVE('',#374,#332,#28,.T.);
#300=EDGE_CURVE('',#373,#339,#29,.F.);
#301=EDGE_CURVE('',#365,#363,#30,.T.);
#302=EDGE_CURVE('',#374,#375,#434,.T.);
#303=EDGE_CURVE('',#373,#376,#435,.T.);
#304=EDGE_CURVE('',#376,#375,#436,.T.);
#305=EDGE_CURVE('',#375,#371,#31,.F.);
#306=EDGE_CURVE('',#377,#376,#32,.T.);
#307=EDGE_CURVE('',#377,#372,#437,.T.);
#308=EDGE_CURVE('',#343,#378,#33,.T.);
#309=EDGE_CURVE('',#379,#378,#438,.T.);
#310=EDGE_CURVE('',#344,#379,#34,.T.);
#311=EDGE_CURVE('',#380,#378,#439,.T.);
#312=EDGE_CURVE('',#381,#380,#440,.T.);
#313=EDGE_CURVE('',#381,#379,#441,.T.);
#314=EDGE_CURVE('',#380,#382,#35,.T.);
#315=EDGE_CURVE('',#383,#382,#442,.T.);
#316=EDGE_CURVE('',#381,#383,#36,.T.);
#317=EDGE_CURVE('',#384,#382,#443,.T.);
#318=EDGE_CURVE('',#385,#384,#444,.T.);
#319=EDGE_CURVE('',#385,#383,#445,.T.);
#320=EDGE_CURVE('',#386,#384,#37,.T.);
#321=EDGE_CURVE('',#387,#386,#446,.T.);
#322=EDGE_CURVE('',#387,#385,#38,.T.);
#323=EDGE_CURVE('',#372,#386,#447,.T.);
#324=EDGE_CURVE('',#377,#387,#448,.T.);
#325=EDGE_CURVE('',#388,#388,#39,.T.);
#326=EDGE_CURVE('',#389,#389,#40,.T.);
#327=EDGE_CURVE('',#390,#390,#41,.T.);
#328=EDGE_CURVE('',#391,#391,#42,.T.);
#329=EDGE_CURVE('',#370,#364,#43,.T.);
#330=EDGE_CURVE('',#366,#369,#44,.F.);
#331=VERTEX_POINT('',#907);
#332=VERTEX_POINT('',#908);
#333=VERTEX_POINT('',#910);
#334=VERTEX_POINT('',#912);
#335=VERTEX_POINT('',#916);
#336=VERTEX_POINT('',#917);
#337=VERTEX_POINT('',#919);
#338=VERTEX_POINT('',#921);
#339=VERTEX_POINT('',#925);
#340=VERTEX_POINT('',#926);
#341=VERTEX_POINT('',#928);
#342=VERTEX_POINT('',#930);
#343=VERTEX_POINT('',#932);
#344=VERTEX_POINT('',#934);
#345=VERTEX_POINT('',#941);
#346=VERTEX_POINT('',#943);
#347=VERTEX_POINT('',#947);
#348=VERTEX_POINT('',#948);
#349=VERTEX_POINT('',#950);
#350=VERTEX_POINT('',#952);
#351=VERTEX_POINT('',#956);
#352=VERTEX_POINT('',#958);
#353=VERTEX_POINT('',#962);
#354=VERTEX_POINT('',#963);
#355=VERTEX_POINT('',#968);
#356=VERTEX_POINT('',#969);
#357=VERTEX_POINT('',#971);
#358=VERTEX_POINT('',#973);
#359=VERTEX_POINT('',#977);
#360=VERTEX_POINT('',#979);
#361=VERTEX_POINT('',#983);
#362=VERTEX_POINT('',#985);
#363=VERTEX_POINT('',#990);
#364=VERTEX_POINT('',#994);
#365=VERTEX_POINT('',#995);
#366=VERTEX_POINT('',#997);
#367=VERTEX_POINT('',#1002);
#368=VERTEX_POINT('',#1004);
#369=VERTEX_POINT('',#1012);
#370=VERTEX_POINT('',#1014);
#371=VERTEX_POINT('',#1016);
#372=VERTEX_POINT('',#1018);
#373=VERTEX_POINT('',#1022);
#374=VERTEX_POINT('',#1023);
#375=VERTEX_POINT('',#1030);
#376=VERTEX_POINT('',#1032);
#377=VERTEX_POINT('',#1037);
#378=VERTEX_POINT('',#1041);
#379=VERTEX_POINT('',#1043);
#380=VERTEX_POINT('',#1047);
#381=VERTEX_POINT('',#1049);
#382=VERTEX_POINT('',#1053);
#383=VERTEX_POINT('',#1055);
#384=VERTEX_POINT('',#1059);
#385=VERTEX_POINT('',#1061);
#386=VERTEX_POINT('',#1065);
#387=VERTEX_POINT('',#1067);
#388=VERTEX_POINT('',#1074);
#389=VERTEX_POINT('',#1076);
#390=VERTEX_POINT('',#1079);
#391=VERTEX_POINT('',#1081);
#392=LINE('',#906,#449);
#393=LINE('',#909,#450);
#394=LINE('',#911,#451);
#395=LINE('',#913,#452);
#396=LINE('',#915,#453);
#397=LINE('',#918,#454);
#398=LINE('',#920,#455);
#399=LINE('',#922,#456);
#400=LINE('',#924,#457);
#401=LINE('',#927,#458);
#402=LINE('',#929,#459);
#403=LINE('',#931,#460);
#404=LINE('',#933,#461);
#405=LINE('',#935,#462);
#406=LINE('',#942,#463);
#407=LINE('',#946,#464);
#408=LINE('',#949,#465);
#409=LINE('',#951,#466);
#410=LINE('',#953,#467);
#411=LINE('',#957,#468);
#412=LINE('',#961,#469);
#413=LINE('',#970,#470);
#414=LINE('',#974,#471);
#415=LINE('',#976,#472);
#416=LINE('',#980,#473);
#417=LINE('',#981,#474);
#418=LINE('',#984,#475);
#419=LINE('',#989,#476);
#420=LINE('',#991,#477);
#421=LINE('',#993,#478);
#422=LINE('',#996,#479);
#423=LINE('',#998,#480);
#424=LINE('',#999,#481);
#425=LINE('',#1001,#482);
#426=LINE('',#1003,#483);
#427=LINE('',#1005,#484);
#428=LINE('',#1011,#485);
#429=LINE('',#1013,#486);
#430=LINE('',#1015,#487);
#431=LINE('',#1017,#488);
#432=LINE('',#1019,#489);
#433=LINE('',#1021,#490);
#434=LINE('',#1029,#491);
#435=LINE('',#1031,#492);
#436=LINE('',#1033,#493);
#437=LINE('',#1038,#494);
#438=LINE('',#1042,#495);
#439=LINE('',#1046,#496);
#440=LINE('',#1048,#497);
#441=LINE('',#1050,#498);
#442=LINE('',#1054,#499);
#443=LINE('',#1058,#500);
#444=LINE('',#1060,#501);
#445=LINE('',#1062,#502);
#446=LINE('',#1066,#503);
#447=LINE('',#1070,#504);
#448=LINE('',#1071,#505);
#449=VECTOR('',#717,1.);
#450=VECTOR('',#718,1.);
#451=VECTOR('',#719,1.);
#452=VECTOR('',#720,1.);
#453=VECTOR('',#723,1.);
#454=VECTOR('',#724,1.);
#455=VECTOR('',#725,1.);
#456=VECTOR('',#726,1.);
#457=VECTOR('',#729,1.);
#458=VECTOR('',#730,1.);
#459=VECTOR('',#731,1.);
#460=VECTOR('',#732,1.);
#461=VECTOR('',#733,1.);
#462=VECTOR('',#734,1.);
#463=VECTOR('',#745,1.);
#464=VECTOR('',#750,1.);
#465=VECTOR('',#751,1.);
#466=VECTOR('',#752,1.);
#467=VECTOR('',#753,1.);
#468=VECTOR('',#758,1.);
#469=VECTOR('',#763,1.);
#470=VECTOR('',#772,1.);
#471=VECTOR('',#775,1.);
#472=VECTOR('',#778,1.);
#473=VECTOR('',#781,1.);
#474=VECTOR('',#782,1.);
#475=VECTOR('',#785,1.);
#476=VECTOR('',#792,1.);
#477=VECTOR('',#793,1.);
#478=VECTOR('',#796,1.);
#479=VECTOR('',#797,1.);
#480=VECTOR('',#798,1.);
#481=VECTOR('',#799,1.);
#482=VECTOR('',#802,1.);
#483=VECTOR('',#803,1.);
#484=VECTOR('',#804,1.);
#485=VECTOR('',#815,1.);
#486=VECTOR('',#816,1.);
#487=VECTOR('',#817,1.);
#488=VECTOR('',#818,1.);
#489=VECTOR('',#819,1.);
#490=VECTOR('',#822,1.);
#491=VECTOR('',#833,1.);
#492=VECTOR('',#834,1.);
#493=VECTOR('',#835,1.);
#494=VECTOR('',#842,1.);
#495=VECTOR('',#847,1.);
#496=VECTOR('',#852,1.);
#497=VECTOR('',#853,1.);
#498=VECTOR('',#854,1.);
#499=VECTOR('',#859,1.);
#500=VECTOR('',#864,1.);
#501=VECTOR('',#865,1.);
#502=VECTOR('',#866,1.);
#503=VECTOR('',#871,1.);
#504=VECTOR('',#876,1.);
#505=VECTOR('',#877,1.);
#506=EDGE_LOOP('',(#61,#62,#63,#64));
#507=EDGE_LOOP('',(#65,#66,#67,#68));
#508=EDGE_LOOP('',(#69,#70,#71,#72,#73,#74));
#509=EDGE_LOOP('',(#75,#76,#77,#78));
#510=EDGE_LOOP('',(#79,#80,#81,#82));
#511=EDGE_LOOP('',(#83,#84,#85,#86));
#512=EDGE_LOOP('',(#87,#88,#89,#90));
#513=EDGE_LOOP('',(#91,#92,#93,#94));
#514=EDGE_LOOP('',(#95,#96,#97,#98));
#515=EDGE_LOOP('',(#99,#100,#101,#102,#103,#104,#105,#106,#107,#108,#109,
#110,#111,#112,#113,#114,#115));
#516=EDGE_LOOP('',(#116,#117,#118,#119));
#517=EDGE_LOOP('',(#120,#121,#122,#123,#124,#125));
#518=EDGE_LOOP('',(#126,#127,#128,#129));
#519=EDGE_LOOP('',(#130,#131,#132,#133));
#520=EDGE_LOOP('',(#134,#135,#136,#137));
#521=EDGE_LOOP('',(#138,#139,#140,#141,#142,#143,#144,#145));
#522=EDGE_LOOP('',(#146,#147,#148,#149,#150,#151));
#523=EDGE_LOOP('',(#152,#153,#154,#155));
#524=EDGE_LOOP('',(#156,#157,#158,#159));
#525=EDGE_LOOP('',(#160,#161,#162,#163,#164));
#526=EDGE_LOOP('',(#165,#166,#167,#168));
#527=EDGE_LOOP('',(#169,#170,#171,#172));
#528=EDGE_LOOP('',(#173,#174,#175,#176));
#529=EDGE_LOOP('',(#177,#178,#179,#180));
#530=EDGE_LOOP('',(#181,#182,#183,#184));
#531=EDGE_LOOP('',(#185,#186,#187,#188));
#532=EDGE_LOOP('',(#189));
#533=EDGE_LOOP('',(#190));
#534=EDGE_LOOP('',(#191));
#535=EDGE_LOOP('',(#192));
#536=EDGE_LOOP('',(#193,#194,#195,#196,#197,#198,#199,#200,#201,#202));
#537=EDGE_LOOP('',(#203));
#538=EDGE_LOOP('',(#204));
#539=EDGE_LOOP('',(#205,#206,#207,#208,#209,#210,#211,#212,#213,#214,#215,
#216));
#540=EDGE_LOOP('',(#217));
#541=EDGE_LOOP('',(#218));
#542=EDGE_LOOP('',(#219,#220,#221,#222,#223,#224,#225,#226,#227,#228,#229,
#230));
#543=EDGE_LOOP('',(#231,#232,#233,#234,#235,#236));
#544=EDGE_LOOP('',(#237,#238,#239,#240));
#545=FACE_BOUND('',#506,.T.);
#546=FACE_BOUND('',#507,.T.);
#547=FACE_BOUND('',#508,.T.);
#548=FACE_BOUND('',#509,.T.);
#549=FACE_BOUND('',#510,.T.);
#550=FACE_BOUND('',#511,.T.);
#551=FACE_BOUND('',#512,.T.);
#552=FACE_BOUND('',#513,.T.);
#553=FACE_BOUND('',#514,.T.);
#554=FACE_BOUND('',#515,.T.);
#555=FACE_BOUND('',#516,.T.);
#556=FACE_BOUND('',#517,.T.);
#557=FACE_BOUND('',#518,.T.);
#558=FACE_BOUND('',#519,.T.);
#559=FACE_BOUND('',#520,.T.);
#560=FACE_BOUND('',#521,.T.);
#561=FACE_BOUND('',#522,.T.);
#562=FACE_BOUND('',#523,.T.);
#563=FACE_BOUND('',#524,.T.);
#564=FACE_BOUND('',#525,.T.);
#565=FACE_BOUND('',#526,.T.);
#566=FACE_BOUND('',#527,.T.);
#567=FACE_BOUND('',#528,.T.);
#568=FACE_BOUND('',#529,.T.);
#569=FACE_BOUND('',#530,.T.);
#570=FACE_BOUND('',#531,.T.);
#571=FACE_BOUND('',#532,.T.);
#572=FACE_BOUND('',#533,.T.);
#573=FACE_BOUND('',#534,.T.);
#574=FACE_BOUND('',#535,.T.);
#575=FACE_BOUND('',#536,.T.);
#576=FACE_BOUND('',#537,.T.);
#577=FACE_BOUND('',#538,.T.);
#578=FACE_BOUND('',#539,.T.);
#579=FACE_BOUND('',#540,.T.);
#580=FACE_BOUND('',#541,.T.);
#581=FACE_BOUND('',#542,.T.);
#582=FACE_BOUND('',#543,.T.);
#583=FACE_BOUND('',#544,.T.);
#584=PLANE('',#647);
#585=PLANE('',#648);
#586=PLANE('',#649);
#587=PLANE('',#656);
#588=PLANE('',#666);
#589=PLANE('',#671);
#590=PLANE('',#672);
#591=PLANE('',#673);
#592=PLANE('',#678);
#593=PLANE('',#684);
#594=PLANE('',#691);
#595=PLANE('',#695);
#596=PLANE('',#699);
#597=PLANE('',#706);
#598=PLANE('',#707);
#599=PLANE('',#708);
#600=PLANE('',#710);
#601=ADVANCED_FACE('',(#545),#584,.F.);
#602=ADVANCED_FACE('',(#546),#585,.T.);
#603=ADVANCED_FACE('',(#547),#586,.T.);
#604=ADVANCED_FACE('',(#548),#45,.F.);
#605=ADVANCED_FACE('',(#549),#46,.T.);
#606=ADVANCED_FACE('',(#550),#587,.F.);
#607=ADVANCED_FACE('',(#551),#47,.T.);
#608=ADVANCED_FACE('',(#552),#48,.T.);
#609=ADVANCED_FACE('',(#553),#49,.T.);
#610=ADVANCED_FACE('',(#554),#588,.F.);
#611=ADVANCED_FACE('',(#555),#589,.F.);
#612=ADVANCED_FACE('',(#556),#590,.T.);
#613=ADVANCED_FACE('',(#557),#591,.T.);
#614=ADVANCED_FACE('',(#558),#50,.F.);
#615=ADVANCED_FACE('',(#559),#51,.T.);
#616=ADVANCED_FACE('',(#560),#592,.F.);
#617=ADVANCED_FACE('',(#561),#52,.F.);
#618=ADVANCED_FACE('',(#562),#53,.T.);
#619=ADVANCED_FACE('',(#563),#593,.T.);
#620=ADVANCED_FACE('',(#564),#54,.T.);
#621=ADVANCED_FACE('',(#565),#55,.T.);
#622=ADVANCED_FACE('',(#566),#594,.T.);
#623=ADVANCED_FACE('',(#567),#56,.T.);
#624=ADVANCED_FACE('',(#568),#595,.T.);
#625=ADVANCED_FACE('',(#569),#57,.T.);
#626=ADVANCED_FACE('',(#570),#596,.T.);
#627=ADVANCED_FACE('',(#571,#572),#58,.F.);
#628=ADVANCED_FACE('',(#573,#574),#59,.F.);
#629=ADVANCED_FACE('',(#575,#576,#577),#597,.T.);
#630=ADVANCED_FACE('',(#578,#579,#580),#598,.F.);
#631=ADVANCED_FACE('',(#581),#599,.T.);
#632=ADVANCED_FACE('',(#582),#600,.F.);
#633=ADVANCED_FACE('',(#583),#60,.T.);
#634=CLOSED_SHELL('',(#601,#602,#603,#604,#605,#606,#607,#608,#609,#610,
#611,#612,#613,#614,#615,#616,#617,#618,#619,#620,#621,#622,#623,#624,#625,
#626,#627,#628,#629,#630,#631,#632,#633));
#635=STYLED_ITEM('',(#636),#643);
#636=PRESENTATION_STYLE_ASSIGNMENT((#637));
#637=SURFACE_STYLE_USAGE(.BOTH.,#638);
#638=SURFACE_SIDE_STYLE('',(#639));
#639=SURFACE_STYLE_FILL_AREA(#640);
#640=FILL_AREA_STYLE('',(#641));
#641=FILL_AREA_STYLE_COLOUR('',#642);
#642=DRAUGHTING_PRE_DEFINED_COLOUR('red');
#643=MANIFOLD_SOLID_BREP('Output Lever (3)',#634);
#644=SHAPE_DEFINITION_REPRESENTATION(#1095,#645);
#645=SHAPE_REPRESENTATION('Output Lever (3)',(#646),#1090);
#646=AXIS2_PLACEMENT_3D('',#904,#713,#714);
#647=AXIS2_PLACEMENT_3D('',#905,#715,#716);
#648=AXIS2_PLACEMENT_3D('',#914,#721,#722);
#649=AXIS2_PLACEMENT_3D('',#923,#727,#728);
#650=AXIS2_PLACEMENT_3D('',#936,#735,#736);
#651=AXIS2_PLACEMENT_3D('',#937,#737,#738);
#652=AXIS2_PLACEMENT_3D('',#938,#739,#740);
#653=AXIS2_PLACEMENT_3D('',#939,#741,#742);
#654=AXIS2_PLACEMENT_3D('',#940,#743,#744);
#655=AXIS2_PLACEMENT_3D('',#944,#746,#747);
#656=AXIS2_PLACEMENT_3D('',#945,#748,#749);
#657=AXIS2_PLACEMENT_3D('',#954,#754,#755);
#658=AXIS2_PLACEMENT_3D('',#955,#756,#757);
#659=AXIS2_PLACEMENT_3D('',#959,#759,#760);
#660=AXIS2_PLACEMENT_3D('',#960,#761,#762);
#661=AXIS2_PLACEMENT_3D('',#964,#764,#765);
#662=AXIS2_PLACEMENT_3D('',#965,#766,#767);
#663=AXIS2_PLACEMENT_3D('',#966,#768,#769);
#664=AXIS2_PLACEMENT_3D('',#967,#770,#771);
#665=AXIS2_PLACEMENT_3D('',#972,#773,#774);
#666=AXIS2_PLACEMENT_3D('',#975,#776,#777);
#667=AXIS2_PLACEMENT_3D('',#978,#779,#780);
#668=AXIS2_PLACEMENT_3D('',#982,#783,#784);
#669=AXIS2_PLACEMENT_3D('',#986,#786,#787);
#670=AXIS2_PLACEMENT_3D('',#987,#788,#789);
#671=AXIS2_PLACEMENT_3D('',#988,#790,#791);
#672=AXIS2_PLACEMENT_3D('',#992,#794,#795);
#673=AXIS2_PLACEMENT_3D('',#1000,#800,#801);
#674=AXIS2_PLACEMENT_3D('',#1006,#805,#806);
#675=AXIS2_PLACEMENT_3D('',#1007,#807,#808);
#676=AXIS2_PLACEMENT_3D('',#1008,#809,#810);
#677=AXIS2_PLACEMENT_3D('',#1009,#811,#812);
#678=AXIS2_PLACEMENT_3D('',#1010,#813,#814);
#679=AXIS2_PLACEMENT_3D('',#1020,#820,#821);
#680=AXIS2_PLACEMENT_3D('',#1024,#823,#824);
#681=AXIS2_PLACEMENT_3D('',#1025,#825,#826);
#682=AXIS2_PLACEMENT_3D('',#1026,#827,#828);
#683=AXIS2_PLACEMENT_3D('',#1027,#829,#830);
#684=AXIS2_PLACEMENT_3D('',#1028,#831,#832);
#685=AXIS2_PLACEMENT_3D('',#1034,#836,#837);
#686=AXIS2_PLACEMENT_3D('',#1035,#838,#839);
#687=AXIS2_PLACEMENT_3D('',#1036,#840,#841);
#688=AXIS2_PLACEMENT_3D('',#1039,#843,#844);
#689=AXIS2_PLACEMENT_3D('',#1040,#845,#846);
#690=AXIS2_PLACEMENT_3D('',#1044,#848,#849);
#691=AXIS2_PLACEMENT_3D('',#1045,#850,#851);
#692=AXIS2_PLACEMENT_3D('',#1051,#855,#856);
#693=AXIS2_PLACEMENT_3D('',#1052,#857,#858);
#694=AXIS2_PLACEMENT_3D('',#1056,#860,#861);
#695=AXIS2_PLACEMENT_3D('',#1057,#862,#863);
#696=AXIS2_PLACEMENT_3D('',#1063,#867,#868);
#697=AXIS2_PLACEMENT_3D('',#1064,#869,#870);
#698=AXIS2_PLACEMENT_3D('',#1068,#872,#873);
#699=AXIS2_PLACEMENT_3D('',#1069,#874,#875);
#700=AXIS2_PLACEMENT_3D('',#1072,#878,#879);
#701=AXIS2_PLACEMENT_3D('',#1073,#880,#881);
#702=AXIS2_PLACEMENT_3D('',#1075,#882,#883);
#703=AXIS2_PLACEMENT_3D('',#1077,#884,#885);
#704=AXIS2_PLACEMENT_3D('',#1078,#886,#887);
#705=AXIS2_PLACEMENT_3D('',#1080,#888,#889);
#706=AXIS2_PLACEMENT_3D('',#1082,#890,#891);
#707=AXIS2_PLACEMENT_3D('',#1083,#892,#893);
#708=AXIS2_PLACEMENT_3D('',#1084,#894,#895);
#709=AXIS2_PLACEMENT_3D('',#1085,#896,#897);
#710=AXIS2_PLACEMENT_3D('',#1086,#898,#899);
#711=AXIS2_PLACEMENT_3D('',#1087,#900,#901);
#712=AXIS2_PLACEMENT_3D('',#1088,#902,#903);
#713=DIRECTION('',(0.,0.,1.));
#714=DIRECTION('',(1.,0.,0.));
#715=DIRECTION('',(0.,-1.,0.));
#716=DIRECTION('',(0.,0.,-1.));
#717=DIRECTION('',(0.,0.,-1.));
#718=DIRECTION('',(1.,0.,0.));
#719=DIRECTION('',(0.,0.,1.));
#720=DIRECTION('',(-1.,0.,0.));
#721=DIRECTION('',(-0.707106781186548,0.707106781186547,0.));
#722=DIRECTION('',(0.,0.,1.));
#723=DIRECTION('',(0.,0.,1.));
#724=DIRECTION('',(0.707106781186547,0.707106781186548,0.));
#725=DIRECTION('',(0.,0.,1.));
#726=DIRECTION('',(-0.707106781186547,-0.707106781186548,0.));
#727=DIRECTION('',(0.998811318730601,-0.0487437131909042,0.));
#728=DIRECTION('',(0.0487437131909042,0.998811318730601,0.));
#729=DIRECTION('',(0.,0.,-1.));
#730=DIRECTION('',(0.0487437131909042,0.998811318730601,0.));
#731=DIRECTION('',(0.,0.,1.));
#732=DIRECTION('',(0.0487437131909052,0.998811318730601,0.));
#733=DIRECTION('',(0.,0.,-1.));
#734=DIRECTION('',(0.0487437131909052,0.998811318730601,0.));
#735=DIRECTION('',(0.,0.,1.));
#736=DIRECTION('',(1.,0.,0.));
#737=DIRECTION('',(0.,0.,1.));
#738=DIRECTION('',(1.,0.,0.));
#739=DIRECTION('',(0.,0.,1.));
#740=DIRECTION('',(1.,0.,0.));
#741=DIRECTION('',(0.,0.,-1.));
#742=DIRECTION('',(-1.,0.,0.));
#743=DIRECTION('',(0.,0.,1.));
#744=DIRECTION('',(1.,0.,0.));
#745=DIRECTION('',(0.,0.,1.));
#746=DIRECTION('',(0.,0.,1.));
#747=DIRECTION('',(1.,0.,0.));
#748=DIRECTION('',(0.,1.,0.));
#749=DIRECTION('',(0.,0.,1.));
#750=DIRECTION('',(1.,0.,0.));
#751=DIRECTION('',(0.,0.,1.));
#752=DIRECTION('',(1.,0.,0.));
#753=DIRECTION('',(0.,0.,-1.));
#754=DIRECTION('',(0.,0.,1.));
#755=DIRECTION('',(1.,0.,0.));
#756=DIRECTION('',(0.,0.,1.));
#757=DIRECTION('',(1.,0.,0.));
#758=DIRECTION('',(0.,0.,1.));
#759=DIRECTION('',(0.,0.,1.));
#760=DIRECTION('',(1.,0.,0.));
#761=DIRECTION('',(0.,0.,1.));
#762=DIRECTION('',(1.,0.,0.));
#763=DIRECTION('',(0.,0.,-1.));
#764=DIRECTION('',(0.,0.,1.));
#765=DIRECTION('',(1.,0.,0.));
#766=DIRECTION('',(0.,0.,1.));
#767=DIRECTION('',(1.,0.,0.));
#768=DIRECTION('',(0.,0.,1.));
#769=DIRECTION('',(1.,0.,0.));
#770=DIRECTION('',(0.,0.,1.));
#771=DIRECTION('',(1.,0.,0.));
#772=DIRECTION('',(0.,0.,1.));
#773=DIRECTION('',(0.,0.,1.));
#774=DIRECTION('',(1.,0.,0.));
#775=DIRECTION('',(0.,0.,1.));
#776=DIRECTION('',(0.,0.,1.));
#777=DIRECTION('',(1.,0.,0.));
#778=DIRECTION('',(0.707106781186548,-0.707106781186547,0.));
#779=DIRECTION('',(0.,0.,1.));
#780=DIRECTION('',(1.,0.,0.));
#781=DIRECTION('',(0.707106781186547,0.707106781186548,0.));
#782=DIRECTION('',(-0.523846092200103,0.851812932331203,0.));
#783=DIRECTION('',(0.,0.,-1.));
#784=DIRECTION('',(1.,0.,0.));
#785=DIRECTION('',(-0.70710678118655,-0.707106781186545,0.));
#786=DIRECTION('',(0.,0.,1.));
#787=DIRECTION('',(1.,0.,0.));
#788=DIRECTION('',(0.,0.,1.));
#789=DIRECTION('',(1.,0.,0.));
#790=DIRECTION('',(-0.707106781186547,-0.707106781186548,0.));
#791=DIRECTION('',(0.,0.,1.));
#792=DIRECTION('',(0.707106781186548,-0.707106781186547,0.));
#793=DIRECTION('',(0.,0.,1.));
#794=DIRECTION('',(0.707106781186548,-0.707106781186547,0.));
#795=DIRECTION('',(0.,0.,-1.));
#796=DIRECTION('',(0.707106781186547,0.707106781186548,0.));
#797=DIRECTION('',(0.,0.,1.));
#798=DIRECTION('',(-0.707106781186548,-0.707106781186548,0.));
#799=DIRECTION('',(0.,0.,1.));
#800=DIRECTION('',(-0.707106781186545,0.70710678118655,0.));
#801=DIRECTION('',(-0.70710678118655,-0.707106781186545,0.));
#802=DIRECTION('',(0.,0.,1.));
#803=DIRECTION('',(-0.70710678118655,-0.707106781186545,0.));
#804=DIRECTION('',(0.,0.,1.));
#805=DIRECTION('',(0.,0.,1.));
#806=DIRECTION('',(1.,0.,0.));
#807=DIRECTION('',(0.,0.,-1.));
#808=DIRECTION('',(1.,0.,0.));
#809=DIRECTION('',(0.,0.,1.));
#810=DIRECTION('',(1.,0.,0.));
#811=DIRECTION('',(0.,0.,1.));
#812=DIRECTION('',(1.,0.,0.));
#813=DIRECTION('',(0.851812932331203,0.523846092200103,0.));
#814=DIRECTION('',(-0.523846092200103,0.851812932331203,0.));
#815=DIRECTION('',(0.523846092200103,-0.851812932331203,0.));
#816=DIRECTION('',(0.,0.,1.));
#817=DIRECTION('',(-0.523846092200103,0.851812932331203,0.));
#818=DIRECTION('',(0.,0.,-1.));
#819=DIRECTION('',(-0.523846092200103,0.851812932331203,0.));
#820=DIRECTION('',(0.,0.,-1.));
#821=DIRECTION('',(-1.,0.,0.));
#822=DIRECTION('',(0.,0.,-1.));
#823=DIRECTION('',(0.,0.,1.));
#824=DIRECTION('',(1.,0.,0.));
#825=DIRECTION('',(0.,0.,1.));
#826=DIRECTION('',(1.,0.,0.));
#827=DIRECTION('',(0.,0.,-1.));
#828=DIRECTION('',(-1.,0.,0.));
#829=DIRECTION('',(0.,0.,1.));
#830=DIRECTION('',(1.,0.,0.));
#831=DIRECTION('',(1.,0.,0.));
#832=DIRECTION('',(0.,0.,-1.));
#833=DIRECTION('',(0.,-1.,0.));
#834=DIRECTION('',(0.,-1.,0.));
#835=DIRECTION('',(0.,0.,-1.));
#836=DIRECTION('',(0.,0.,1.));
#837=DIRECTION('',(1.,0.,0.));
#838=DIRECTION('',(0.,0.,1.));
#839=DIRECTION('',(1.,0.,0.));
#840=DIRECTION('',(0.,0.,1.));
#841=DIRECTION('',(1.,0.,0.));
#842=DIRECTION('',(0.,0.,-1.));
#843=DIRECTION('',(0.,0.,-1.));
#844=DIRECTION('',(-1.,0.,0.));
#845=DIRECTION('',(0.,0.,1.));
#846=DIRECTION('',(1.,0.,0.));
#847=DIRECTION('',(0.,0.,-1.));
#848=DIRECTION('',(0.,0.,1.));
#849=DIRECTION('',(1.,0.,0.));
#850=DIRECTION('',(0.707106781186547,0.707106781186548,0.));
#851=DIRECTION('',(-0.707106781186548,0.707106781186547,0.));
#852=DIRECTION('',(0.707106781186548,-0.707106781186547,0.));
#853=DIRECTION('',(0.,0.,-1.));
#854=DIRECTION('',(0.707106781186548,-0.707106781186547,0.));
#855=DIRECTION('',(0.,0.,-1.));
#856=DIRECTION('',(-1.,0.,0.));
#857=DIRECTION('',(0.,0.,1.));
#858=DIRECTION('',(1.,0.,0.));
#859=DIRECTION('',(0.,0.,-1.));
#860=DIRECTION('',(0.,0.,1.));
#861=DIRECTION('',(1.,0.,0.));
#862=DIRECTION('',(-0.707106781186548,0.707106781186547,0.));
#863=DIRECTION('',(-0.707106781186547,-0.707106781186548,0.));
#864=DIRECTION('',(0.707106781186547,0.707106781186548,0.));
#865=DIRECTION('',(0.,0.,-1.));
#866=DIRECTION('',(0.707106781186547,0.707106781186548,0.));
#867=DIRECTION('',(0.,0.,-1.));
#868=DIRECTION('',(-1.,0.,0.));
#869=DIRECTION('',(0.,0.,-1.));
#870=DIRECTION('',(1.,0.,0.));
#871=DIRECTION('',(0.,0.,-1.));
#872=DIRECTION('',(0.,0.,-1.));
#873=DIRECTION('',(1.,0.,0.));
#874=DIRECTION('',(-0.820240095375212,-0.572019392974454,0.));
#875=DIRECTION('',(0.572019392974454,-0.820240095375212,0.));
#876=DIRECTION('',(-0.572019392974454,0.820240095375212,0.));
#877=DIRECTION('',(-0.572019392974454,0.820240095375212,0.));
#878=DIRECTION('',(0.,0.,-1.));
#879=DIRECTION('',(-1.,0.,0.));
#880=DIRECTION('',(0.,0.,1.));
#881=DIRECTION('',(1.,0.,0.));
#882=DIRECTION('',(0.,0.,1.));
#883=DIRECTION('',(1.,0.,0.));
#884=DIRECTION('',(0.,0.,-1.));
#885=DIRECTION('',(-1.,0.,0.));
#886=DIRECTION('',(0.,0.,-1.));
#887=DIRECTION('',(1.,0.,0.));
#888=DIRECTION('',(0.,0.,-1.));
#889=DIRECTION('',(1.,0.,0.));
#890=DIRECTION('',(0.,0.,1.));
#891=DIRECTION('',(1.,0.,0.));
#892=DIRECTION('',(0.,0.,1.));
#893=DIRECTION('',(1.,0.,0.));
#894=DIRECTION('',(0.,0.,1.));
#895=DIRECTION('',(1.,0.,0.));
#896=DIRECTION('',(0.,0.,1.));
#897=DIRECTION('',(1.,0.,0.));
#898=DIRECTION('',(0.,0.,1.));
#899=DIRECTION('',(1.,0.,0.));
#900=DIRECTION('',(0.,0.,1.));
#901=DIRECTION('',(1.,0.,0.));
#902=DIRECTION('',(0.,0.,-1.));
#903=DIRECTION('',(-1.,0.,0.));
#904=CARTESIAN_POINT('',(0.,0.,0.));
#905=CARTESIAN_POINT('',(0.0529087409377098,0.0356000231355429,0.00376364225149155));
#906=CARTESIAN_POINT('',(0.0471087082129056,0.0356000231355429,0.00376364225149155));
#907=CARTESIAN_POINT('',(0.0471087082129056,0.0356000231355429,-0.00623635774850845));
#908=CARTESIAN_POINT('',(0.0471087082129056,0.0356000231355429,0.0167636422514915));
#909=CARTESIAN_POINT('',(0.0604087409377098,0.0356000231355429,0.0167636422514915));
#910=CARTESIAN_POINT('',(0.059595032438725,0.0356000231355429,0.0167636422514915));
#911=CARTESIAN_POINT('',(0.059595032438725,0.0356000231355429,0.00376364225149155));
#912=CARTESIAN_POINT('',(0.059595032438725,0.0356000231355429,-0.00623635774850845));
#913=CARTESIAN_POINT('',(0.0529087409377098,0.0356000231355429,-0.00623635774850845));
#914=CARTESIAN_POINT('',(0.0635459050063967,0.0378940414537222,-0.00623635774850845));
#915=CARTESIAN_POINT('',(0.0624234595634712,0.0367715960107966,-0.00623635774850845));
#916=CARTESIAN_POINT('',(0.0624234595634712,0.0367715960107966,-0.00623635774850845));
#917=CARTESIAN_POINT('',(0.0624234595634712,0.0367715960107966,0.0167636422514915));
#918=CARTESIAN_POINT('',(0.0510803138129636,0.0254284502602891,0.0167636422514915));
#919=CARTESIAN_POINT('',(0.0674976837223023,0.0418458201696277,0.0167636422514915));
#920=CARTESIAN_POINT('',(0.0674976837223023,0.0418458201696277,-0.00623635774850845));
#921=CARTESIAN_POINT('',(0.0674976837223023,0.0418458201696277,-0.00623635774850845));
#922=CARTESIAN_POINT('',(0.0635459050063967,0.0378940414537222,-0.00623635774850845));
#923=CARTESIAN_POINT('',(0.0434415253795808,0.0465173516718425,-0.00623635774850845));
#924=CARTESIAN_POINT('',(0.0431134629379832,0.0397949979883064,-0.00623635774850845));
#925=CARTESIAN_POINT('',(0.0431134629379832,0.0397949979883064,0.0577636422514916));
#926=CARTESIAN_POINT('',(0.0431134629379832,0.0397949979883064,-0.00623635774850845));
#927=CARTESIAN_POINT('',(0.0434415253795808,0.0465173516718425,-0.00623635774850845));
#928=CARTESIAN_POINT('',(0.043721705182365,0.0522585383804663,-0.00623635774850845));
#929=CARTESIAN_POINT('',(0.043721705182365,0.0522585383804663,-0.00623635774850845));
#930=CARTESIAN_POINT('',(0.043721705182365,0.0522585383804663,0.0537636422514916));
#931=CARTESIAN_POINT('',(0.043948781875319,0.0569115850257654,0.0537636422514916));
#932=CARTESIAN_POINT('',(0.0441758585682729,0.0615646316710644,0.0537636422514916));
#933=CARTESIAN_POINT('',(0.0441758585682729,0.0615646316710644,0.0577636422514916));
#934=CARTESIAN_POINT('',(0.0441758585682729,0.0615646316710644,0.0577636422514916));
#935=CARTESIAN_POINT('',(0.043948781875319,0.0569115850257654,0.0577636422514916));
#936=CARTESIAN_POINT('',(0.059595032438725,0.0396000231355429,-0.00623635774850845));
#937=CARTESIAN_POINT('',(0.059595032438725,0.0396000231355429,0.0167636422514915));
#938=CARTESIAN_POINT('',(0.059595032438725,0.0396000231355429,-0.00623635774850845));
#939=CARTESIAN_POINT('',(0.0682047905034889,0.0411387133884412,-0.00623635774850845));
#940=CARTESIAN_POINT('',(0.0682047905034889,0.0411387133884412,0.0167636422514915));
#941=CARTESIAN_POINT('',(0.0689118972846754,0.0418458201696277,0.0167636422514915));
#942=CARTESIAN_POINT('',(0.0689118972846754,0.0418458201696277,0.00376364225149155));
#943=CARTESIAN_POINT('',(0.0689118972846754,0.0418458201696277,-0.00623635774850845));
#944=CARTESIAN_POINT('',(0.0682047905034889,0.0411387133884412,-0.00623635774850845));
#945=CARTESIAN_POINT('',(0.0529087409377098,0.0316000231355429,0.00376364225149155));
#946=CARTESIAN_POINT('',(0.0529087409377098,0.0316000231355429,0.0117636422514915));
#947=CARTESIAN_POINT('',(0.0431446962266101,0.0316000231355429,0.0117636422514915));
#948=CARTESIAN_POINT('',(0.0612518866882174,0.0316000231355429,0.0117636422514915));
#949=CARTESIAN_POINT('',(0.0431446962266101,0.0316000231355429,0.00376364225149155));
#950=CARTESIAN_POINT('',(0.0431446962266101,0.0316000231355429,-0.00623635774850845));
#951=CARTESIAN_POINT('',(0.0529087409377098,0.0316000231355429,-0.00623635774850845));
#952=CARTESIAN_POINT('',(0.0612518866882174,0.0316000231355429,-0.00623635774850845));
#953=CARTESIAN_POINT('',(0.0612518866882174,0.0316000231355429,0.00376364225149155));
#954=CARTESIAN_POINT('',(0.0431446962266101,0.0356000231355429,-0.00623635774850845));
#955=CARTESIAN_POINT('',(0.0431446962266101,0.0356000231355429,0.0117636422514915));
#956=CARTESIAN_POINT('',(0.0397374444972853,0.0335046387667425,0.0117636422514915));
#957=CARTESIAN_POINT('',(0.0397374444972853,0.0335046387667425,-0.00623635774850845));
#958=CARTESIAN_POINT('',(0.0397374444972853,0.0335046387667425,-0.00623635774850845));
#959=CARTESIAN_POINT('',(0.0431446962266101,0.0356000231355429,-0.00623635774850845));
#960=CARTESIAN_POINT('',(0.0612518866882174,0.0356000231355429,-0.00623635774850845));
#961=CARTESIAN_POINT('',(0.0640803138129636,0.0327715960107966,-0.00623635774850845));
#962=CARTESIAN_POINT('',(0.0640803138129636,0.0327715960107966,0.0117636422514915));
#963=CARTESIAN_POINT('',(0.0640803138129636,0.0327715960107966,-0.00623635774850845));
#964=CARTESIAN_POINT('',(0.0612518866882174,0.0356000231355429,0.0117636422514915));
#965=CARTESIAN_POINT('',(0.0612518866882174,0.0356000231355429,-0.00623635774850845));
#966=CARTESIAN_POINT('',(0.034531731558643,0.0457874326998153,-0.00623635774850845));
#967=CARTESIAN_POINT('',(0.034531731558643,0.0457874326998153,-0.00623635774850845));
#968=CARTESIAN_POINT('',(0.0328281056939806,0.0447397405154151,-0.00623635774850845));
#969=CARTESIAN_POINT('',(0.0337006869493099,0.0476065986783061,-0.00623635774850845));
#970=CARTESIAN_POINT('',(0.0328281056939806,0.0447397405154151,-0.00623635774850845));
#971=CARTESIAN_POINT('',(0.0328281056939806,0.0447397405154151,0.0537636422514916));
#972=CARTESIAN_POINT('',(0.034531731558643,0.0457874326998153,0.0537636422514916));
#973=CARTESIAN_POINT('',(0.0337006869493099,0.0476065986783061,0.0537636422514916));
#974=CARTESIAN_POINT('',(0.0337006869493099,0.0476065986783061,-0.00623635774850845));
#975=CARTESIAN_POINT('',(0.0604087409377098,0.0161000231355428,-0.00623635774850845));
#976=CARTESIAN_POINT('',(0.069619004065862,0.0411387133884412,-0.00623635774850845));
#977=CARTESIAN_POINT('',(0.0703261108470485,0.0404316066072547,-0.00623635774850845));
#978=CARTESIAN_POINT('',(0.069619004065862,0.0397244998260681,-0.00623635774850845));
#979=CARTESIAN_POINT('',(0.0703261108470485,0.0390173930448816,-0.00623635774850845));
#980=CARTESIAN_POINT('',(0.0669709792829724,0.0356622614808055,-0.00623635774850845));
#981=CARTESIAN_POINT('',(0.0368684233158452,0.038169881825479,-0.00623635774850845));
#982=CARTESIAN_POINT('',(0.0316230754259771,0.052154513624533,-0.00623635774850845));
#983=CARTESIAN_POINT('',(0.0351586093319098,0.0486189797186003,-0.00623635774850845));
#984=CARTESIAN_POINT('',(0.0434845990074675,0.056944969394158,-0.00623635774850845));
#985=CARTESIAN_POINT('',(0.0403098689825307,0.0537702393692212,-0.00623635774850845));
#986=CARTESIAN_POINT('',(0.0417240825449037,0.0523560258068481,-0.00623635774850845));
#987=CARTESIAN_POINT('',(0.0471087082129056,0.0396000231355429,-0.00623635774850845));
#988=CARTESIAN_POINT('',(0.069619004065862,0.0411387133884412,-0.00623635774850845));
#989=CARTESIAN_POINT('',(0.069619004065862,0.0411387133884412,0.0167636422514915));
#990=CARTESIAN_POINT('',(0.0703261108470485,0.0404316066072547,0.0167636422514915));
#991=CARTESIAN_POINT('',(0.0703261108470485,0.0404316066072547,-0.00623635774850845));
#992=CARTESIAN_POINT('',(0.0669709792829724,0.0356622614808055,-0.00623635774850845));
#993=CARTESIAN_POINT('',(0.0669709792829724,0.0356622614808055,0.0167636422514915));
#994=CARTESIAN_POINT('',(0.0537637810285728,0.0224550632264058,0.0167636422514915));
#995=CARTESIAN_POINT('',(0.0703261108470485,0.0390173930448816,0.0167636422514915));
#996=CARTESIAN_POINT('',(0.0537637810285728,0.0224550632264058,0.0117636422514915));
#997=CARTESIAN_POINT('',(0.0537637810285728,0.0224550632264058,0.0117636422514915));
#998=CARTESIAN_POINT('',(0.0566832884792479,0.0253745706770809,0.0117636422514915));
#999=CARTESIAN_POINT('',(0.0703261108470485,0.0390173930448816,0.00376364225149155));
#1000=CARTESIAN_POINT('',(0.0434845990074675,0.056944969394158,-0.00623635774850845));
#1001=CARTESIAN_POINT('',(0.0351586093319098,0.0486189797186003,-0.00623635774850845));
#1002=CARTESIAN_POINT('',(0.0351586093319098,0.0486189797186003,0.0537636422514916));
#1003=CARTESIAN_POINT('',(0.0434845990074675,0.056944969394158,0.0537636422514916));
#1004=CARTESIAN_POINT('',(0.0403098689825307,0.0537702393692212,0.0537636422514916));
#1005=CARTESIAN_POINT('',(0.0403098689825307,0.0537702393692212,-0.00623635774850845));
#1006=CARTESIAN_POINT('',(0.0316230754259771,0.052154513624533,-0.00623635774850845));
#1007=CARTESIAN_POINT('',(0.0316230754259771,0.052154513624533,0.0537636422514916));
#1008=CARTESIAN_POINT('',(0.0417240825449037,0.0523560258068481,-0.00623635774850845));
#1009=CARTESIAN_POINT('',(0.0417240825449037,0.0523560258068481,0.0537636422514916));
#1010=CARTESIAN_POINT('',(0.0368684233158452,0.038169881825479,-0.00623635774850845));
#1011=CARTESIAN_POINT('',(0.0439669987323348,0.0266270671878842,0.0117636422514915));
#1012=CARTESIAN_POINT('',(0.045969182460984,0.023371366671338,0.0117636422514915));
#1013=CARTESIAN_POINT('',(0.045969182460984,0.023371366671338,0.0167636422514915));
#1014=CARTESIAN_POINT('',(0.045969182460984,0.023371366671338,0.0167636422514915));
#1015=CARTESIAN_POINT('',(0.0531762207160713,0.0116521833445987,0.0167636422514915));
#1016=CARTESIAN_POINT('',(0.0375580241409895,0.0370485392980638,0.0167636422514915));
#1017=CARTESIAN_POINT('',(0.0375580241409895,0.0370485392980638,0.0537636422514916));
#1018=CARTESIAN_POINT('',(0.0375580241409895,0.0370485392980638,0.0537636422514916));
#1019=CARTESIAN_POINT('',(0.0368684233158452,0.038169881825479,0.0537636422514916));
#1020=CARTESIAN_POINT('',(0.0471087082129056,0.0396000231355429,-0.00623635774850845));
#1021=CARTESIAN_POINT('',(0.0431134629379832,0.0394050482827792,0.0537636422514916));
#1022=CARTESIAN_POINT('',(0.0431134629379832,0.0394050482827792,0.0577636422514916));
#1023=CARTESIAN_POINT('',(0.0431134629379832,0.0394050482827792,0.0167636422514915));
#1024=CARTESIAN_POINT('',(0.0471087082129056,0.0396000231355429,0.0167636422514915));
#1025=CARTESIAN_POINT('',(0.0471087082129056,0.0396000231355429,0.0577636422514916));
#1026=CARTESIAN_POINT('',(0.069619004065862,0.0397244998260681,-0.00623635774850845));
#1027=CARTESIAN_POINT('',(0.069619004065862,0.0397244998260681,0.0167636422514915));
#1028=CARTESIAN_POINT('',(0.0431134629379832,0.0351492537772472,0.0537636422514916));
#1029=CARTESIAN_POINT('',(0.0431134629379832,0.0351492537772472,0.0167636422514915));
#1030=CARTESIAN_POINT('',(0.0431134629379832,0.0386200775746642,0.0167636422514915));
#1031=CARTESIAN_POINT('',(0.0431134629379832,0.0351492537772472,0.0577636422514916));
#1032=CARTESIAN_POINT('',(0.0431134629379832,0.0386200775746642,0.0577636422514916));
#1033=CARTESIAN_POINT('',(0.0431134629379832,0.0386200775746642,0.0537636422514916));
#1034=CARTESIAN_POINT('',(0.0401134629379832,0.0386200775746642,0.0537636422514916));
#1035=CARTESIAN_POINT('',(0.0401134629379832,0.0386200775746642,0.0167636422514915));
#1036=CARTESIAN_POINT('',(0.0401134629379832,0.0386200775746642,0.0577636422514916));
#1037=CARTESIAN_POINT('',(0.0375580241409895,0.0370485392980638,0.0577636422514916));
#1038=CARTESIAN_POINT('',(0.0375580241409895,0.0370485392980638,0.0577636422514916));
#1039=CARTESIAN_POINT('',(0.0411794246120811,0.0617108628106372,0.0577636422514916));
#1040=CARTESIAN_POINT('',(0.0411794246120811,0.0617108628106372,0.0537636422514916));
#1041=CARTESIAN_POINT('',(0.0433007449556408,0.0638321831541968,0.0537636422514916));
#1042=CARTESIAN_POINT('',(0.0433007449556408,0.0638321831541968,0.0577636422514916));
#1043=CARTESIAN_POINT('',(0.0433007449556408,0.0638321831541968,0.0577636422514916));
#1044=CARTESIAN_POINT('',(0.0411794246120811,0.0617108628106372,0.0577636422514916));
#1045=CARTESIAN_POINT('',(0.0417440106522746,0.065388917457563,0.0577636422514916));
#1046=CARTESIAN_POINT('',(0.0417440106522746,0.065388917457563,0.0537636422514916));
#1047=CARTESIAN_POINT('',(0.0401872763489085,0.0669456517609291,0.0537636422514916));
#1048=CARTESIAN_POINT('',(0.0401872763489085,0.0669456517609291,0.0577636422514916));
#1049=CARTESIAN_POINT('',(0.0401872763489085,0.0669456517609291,0.0577636422514916));
#1050=CARTESIAN_POINT('',(0.0417440106522746,0.065388917457563,0.0577636422514916));
#1051=CARTESIAN_POINT('',(0.0380659560053489,0.0648243314173694,0.0577636422514916));
#1052=CARTESIAN_POINT('',(0.0380659560053489,0.0648243314173694,0.0537636422514916));
#1053=CARTESIAN_POINT('',(0.0359446356617892,0.0669456517609291,0.0537636422514916));
#1054=CARTESIAN_POINT('',(0.0359446356617892,0.0669456517609291,0.0577636422514916));
#1055=CARTESIAN_POINT('',(0.0359446356617892,0.0669456517609291,0.0577636422514916));
#1056=CARTESIAN_POINT('',(0.0380659560053489,0.0648243314173694,0.0577636422514916));
#1057=CARTESIAN_POINT('',(0.0341768687088228,0.0651778848079627,0.0577636422514916));
#1058=CARTESIAN_POINT('',(0.0341768687088228,0.0651778848079627,0.0537636422514916));
#1059=CARTESIAN_POINT('',(0.0263882864756851,0.057389302574825,0.0537636422514916));
#1060=CARTESIAN_POINT('',(0.0263882864756851,0.057389302574825,0.0577636422514916));
#1061=CARTESIAN_POINT('',(0.0263882864756851,0.057389302574825,0.0577636422514916));
#1062=CARTESIAN_POINT('',(0.0341768687088228,0.0651778848079627,0.0577636422514916));
#1063=CARTESIAN_POINT('',(0.0285096068192448,0.0552679822312653,0.0577636422514916));
#1064=CARTESIAN_POINT('',(0.0285096068192448,0.0552679822312653,0.0537636422514916));
#1065=CARTESIAN_POINT('',(0.0260488865331191,0.053551924052342,0.0537636422514916));
#1066=CARTESIAN_POINT('',(0.0260488865331191,0.053551924052342,0.0577636422514916));
#1067=CARTESIAN_POINT('',(0.0260488865331191,0.053551924052342,0.0577636422514916));
#1068=CARTESIAN_POINT('',(0.0285096068192448,0.0552679822312653,0.0577636422514916));
#1069=CARTESIAN_POINT('',(0.0318034553370544,0.0453002316752029,0.0577636422514916));
#1070=CARTESIAN_POINT('',(0.0318034553370544,0.0453002316752029,0.0537636422514916));
#1071=CARTESIAN_POINT('',(0.0318034553370544,0.0453002316752029,0.0577636422514916));
#1072=CARTESIAN_POINT('',(0.0320160885909168,0.0556609953962051,0.0577636422514916));
#1073=CARTESIAN_POINT('',(0.0320160885909168,0.0556609953962051,0.0577636422514916));
#1074=CARTESIAN_POINT('',(0.0340160885909168,0.0556609953962051,0.0577636422514916));
#1075=CARTESIAN_POINT('',(0.0320160885909168,0.0556609953962051,0.0537636422514916));
#1076=CARTESIAN_POINT('',(0.0340160885909168,0.0556609953962051,0.0537636422514916));
#1077=CARTESIAN_POINT('',(0.0376729428404091,0.0613178496456975,0.0577636422514916));
#1078=CARTESIAN_POINT('',(0.0376729428404091,0.0613178496456975,0.0577636422514916));
#1079=CARTESIAN_POINT('',(0.0396729428404091,0.0613178496456975,0.0577636422514916));
#1080=CARTESIAN_POINT('',(0.0376729428404091,0.0613178496456975,0.0537636422514916));
#1081=CARTESIAN_POINT('',(0.0396729428404091,0.0613178496456975,0.0537636422514916));
#1082=CARTESIAN_POINT('',(0.034844515715663,0.0517222044960168,0.0577636422514916));
#1083=CARTESIAN_POINT('',(0.034844515715663,0.0517222044960168,0.0537636422514916));
#1084=CARTESIAN_POINT('',(0.0604087409377098,0.0161000231355428,0.0167636422514915));
#1085=CARTESIAN_POINT('',(0.0502282471226401,0.0259905971323385,0.0167636422514915));
#1086=CARTESIAN_POINT('',(0.0540885141034258,0.0249735925322017,0.0117636422514915));
#1087=CARTESIAN_POINT('',(0.0502282471226401,0.0259905971323385,0.0117636422514915));
#1088=CARTESIAN_POINT('',(0.0502282471226401,0.0259905971323385,-0.00623635774850845));
#1089=MECHANICAL_DESIGN_GEOMETRIC_PRESENTATION_REPRESENTATION('',(#635),
#1090);
#1090=(
GEOMETRIC_REPRESENTATION_CONTEXT(3)
GLOBAL_UNCERTAINTY_ASSIGNED_CONTEXT((#1091))
GLOBAL_UNIT_ASSIGNED_CONTEXT((#1094,#1093,#1092))
REPRESENTATION_CONTEXT('Output Lever (3)','TOP_LEVEL_ASSEMBLY_PART')
);
#1091=UNCERTAINTY_MEASURE_WITH_UNIT(LENGTH_MEASURE(1.E-8),#1094,
'DISTANCE_ACCURACY_VALUE','Maximum Tolerance applied to model');
#1092=(
NAMED_UNIT(*)
SI_UNIT($,.STERADIAN.)
SOLID_ANGLE_UNIT()
);
#1093=(
NAMED_UNIT(*)
PLANE_ANGLE_UNIT()
SI_UNIT($,.RADIAN.)
);
#1094=(
LENGTH_UNIT()
NAMED_UNIT(*)
SI_UNIT($,.METRE.)
);
#1095=PRODUCT_DEFINITION_SHAPE('','',#1096);
#1096=PRODUCT_DEFINITION('','',#1098,#1097);
#1097=PRODUCT_DEFINITION_CONTEXT('',#1104,'design');
#1098=PRODUCT_DEFINITION_FORMATION_WITH_SPECIFIED_SOURCE('','',#1100,
 .NOT_KNOWN.);
#1099=PRODUCT_RELATED_PRODUCT_CATEGORY('','',(#1100));
#1100=PRODUCT('Output Lever (3)','Output Lever (3)','Output Lever (3)',
(#1102));
#1101=PRODUCT_CATEGORY('','');
#1102=PRODUCT_CONTEXT('',#1104,'mechanical');
#1103=APPLICATION_PROTOCOL_DEFINITION('international standard',
'ap242_managed_model_based_3d_engineering',2020,#1104);
#1104=APPLICATION_CONTEXT('managed model based 3d engineering');
ENDSEC;
END-ISO-10303-21;
