ISO-10303-21;
HEADER;
/* Generated by software containing ST-Developer
 * from STEP Tools, Inc. (www.steptools.com) 
 */
/* OPTION: using custom renumber hook */

FILE_DESCRIPTION(
/* description */ ('STEP AP242 Edition 2',
'CAx-IF Rec.Pracs.---Representation and Presentation of Product Manufa
cturing Information (PMI)---4.0---2014-10-13',
'CAx-IF Rec.Pracs.---3D Tessellated Geometry---0.4---2014-09-14','2;1',
'CAx-IF Rec.Pracs.---User Defined Attributes---1.5---2016-08-15'),
/* implementation_level */ '2;1');

FILE_NAME(
/* name */ 'Assembly 1 - Coin Sorting and Output Housing',
/* time_stamp */ '2026-07-14T16:54:41Z',
/* author */ (''),
/* organization */ (''),
/* preprocessor_version */ 'ST-DEVELOPER v20',
/* originating_system */ 'ONSHAPE BY PTC INC, 1.217',
/* authorisation */ '  ');

FILE_SCHEMA (('AP242_MANAGED_MODEL_BASED_3D_ENGINEERING_MIM_LF { 1 0 10303 442 3 1 4 }'));
ENDSEC;

DATA;
#10=SHAPE_REPRESENTATION_RELATIONSHIP('','',#1291,#11);
#11=ADVANCED_BREP_SHAPE_REPRESENTATION('',(#1289),#2113);
#12=B_SPLINE_SURFACE_WITH_KNOTS('',3,1,((#2030,#2031),(#2032,#2033),(#2034,
#2035),(#2036,#2037)),.SURF_OF_LINEAR_EXTRUSION.,.F.,.F.,.F.,(4,4),(2,2),
(0.,1.),(0.,1.),.PIECEWISE_BEZIER_KNOTS.);
#13=B_SPLINE_SURFACE_WITH_KNOTS('',3,1,((#2063,#2064),(#2065,#2066),(#2067,
#2068),(#2069,#2070)),.SURF_OF_LINEAR_EXTRUSION.,.F.,.F.,.F.,(4,4),(2,2),
(0.,1.),(0.,1.),.PIECEWISE_BEZIER_KNOTS.);
#14=CYLINDRICAL_SURFACE('',#1313,0.018);
#15=CYLINDRICAL_SURFACE('',#1322,0.018);
#16=CYLINDRICAL_SURFACE('',#1336,0.005);
#17=CYLINDRICAL_SURFACE('',#1339,0.002);
#18=CYLINDRICAL_SURFACE('',#1366,0.005);
#19=CYLINDRICAL_SURFACE('',#1367,0.002);
#20=CYLINDRICAL_SURFACE('',#1369,0.002);
#21=CYLINDRICAL_SURFACE('',#1372,0.002);
#22=CYLINDRICAL_SURFACE('',#1374,0.002);
#23=CYLINDRICAL_SURFACE('',#1379,0.002);
#24=CYLINDRICAL_SURFACE('',#1380,0.002);
#25=CYLINDRICAL_SURFACE('',#1381,0.002);
#26=B_SPLINE_CURVE_WITH_KNOTS('',3,(#1820,#1821,#1822,#1823),
 .UNSPECIFIED.,.F.,.F.,(4,4),(0.0209355652376538,0.0209587468442828),
 .UNSPECIFIED.);
#27=B_SPLINE_CURVE_WITH_KNOTS('',3,(#1826,#1827,#1828,#1829),
 .UNSPECIFIED.,.F.,.F.,(4,4),(0.,0.00565685424949239),.UNSPECIFIED.);
#28=B_SPLINE_CURVE_WITH_KNOTS('',3,(#1857,#1858,#1859,#1860,#1861),
 .UNSPECIFIED.,.F.,.F.,(4,1,4),(0.,0.00300780482628497,0.00601560965256995),
 .UNSPECIFIED.);
#29=B_SPLINE_CURVE_WITH_KNOTS('',3,(#1977,#1978,#1979,#1980),
 .UNSPECIFIED.,.F.,.F.,(4,4),(0.,0.00565685424949239),.UNSPECIFIED.);
#30=B_SPLINE_CURVE_WITH_KNOTS('',3,(#2011,#2012,#2013,#2014),
 .UNSPECIFIED.,.F.,.F.,(4,4),(0.,0.260093478260869),.UNSPECIFIED.);
#31=B_SPLINE_CURVE_WITH_KNOTS('',3,(#2038,#2039,#2040,#2041),
 .UNSPECIFIED.,.F.,.F.,(4,4),(0.,1.),.PIECEWISE_BEZIER_KNOTS.);
#32=B_SPLINE_CURVE_WITH_KNOTS('',3,(#2071,#2072,#2073,#2074),
 .UNSPECIFIED.,.F.,.F.,(4,4),(0.,1.),.PIECEWISE_BEZIER_KNOTS.);
#33=CONICAL_SURFACE('',#1308,0.016,0.78539816339745);
#34=CONICAL_SURFACE('',#1348,0.016,0.78539816339745);
#35=CIRCLE('',#1297,0.002);
#36=CIRCLE('',#1298,0.018);
#37=CIRCLE('',#1299,0.002);
#38=CIRCLE('',#1300,0.005);
#39=CIRCLE('',#1301,0.005);
#40=CIRCLE('',#1302,0.002);
#41=CIRCLE('',#1304,0.014);
#42=CIRCLE('',#1306,0.014);
#43=CIRCLE('',#1309,0.016);
#44=CIRCLE('',#1311,0.018);
#45=CIRCLE('',#1312,0.002);
#46=CIRCLE('',#1314,0.018);
#47=CIRCLE('',#1316,0.002);
#48=CIRCLE('',#1318,0.018);
#49=CIRCLE('',#1319,0.002);
#50=CIRCLE('',#1320,0.005);
#51=CIRCLE('',#1321,0.002);
#52=CIRCLE('',#1326,0.002);
#53=CIRCLE('',#1330,0.002);
#54=CIRCLE('',#1331,0.005);
#55=CIRCLE('',#1332,0.005);
#56=CIRCLE('',#1341,0.002);
#57=CIRCLE('',#1347,0.002);
#58=CIRCLE('',#1349,0.016);
#59=CIRCLE('',#1355,0.002);
#60=CIRCLE('',#1368,0.002);
#61=CIRCLE('',#1370,0.002);
#62=CIRCLE('',#1373,0.002);
#63=ELLIPSE('',#1295,0.0142509519184585,0.0142466082751088);
#64=ELLIPSE('',#1376,0.114566580055123,0.002);
#65=ORIENTED_EDGE('',*,*,#425,.F.);
#66=ORIENTED_EDGE('',*,*,#426,.F.);
#67=ORIENTED_EDGE('',*,*,#427,.F.);
#68=ORIENTED_EDGE('',*,*,#428,.T.);
#69=ORIENTED_EDGE('',*,*,#429,.F.);
#70=ORIENTED_EDGE('',*,*,#430,.T.);
#71=ORIENTED_EDGE('',*,*,#431,.F.);
#72=ORIENTED_EDGE('',*,*,#432,.F.);
#73=ORIENTED_EDGE('',*,*,#433,.T.);
#74=ORIENTED_EDGE('',*,*,#434,.F.);
#75=ORIENTED_EDGE('',*,*,#435,.T.);
#76=ORIENTED_EDGE('',*,*,#436,.F.);
#77=ORIENTED_EDGE('',*,*,#433,.F.);
#78=ORIENTED_EDGE('',*,*,#437,.T.);
#79=ORIENTED_EDGE('',*,*,#438,.F.);
#80=ORIENTED_EDGE('',*,*,#439,.F.);
#81=ORIENTED_EDGE('',*,*,#440,.T.);
#82=ORIENTED_EDGE('',*,*,#441,.F.);
#83=ORIENTED_EDGE('',*,*,#442,.F.);
#84=ORIENTED_EDGE('',*,*,#430,.F.);
#85=ORIENTED_EDGE('',*,*,#443,.T.);
#86=ORIENTED_EDGE('',*,*,#444,.T.);
#87=ORIENTED_EDGE('',*,*,#445,.T.);
#88=ORIENTED_EDGE('',*,*,#446,.F.);
#89=ORIENTED_EDGE('',*,*,#447,.T.);
#90=ORIENTED_EDGE('',*,*,#448,.F.);
#91=ORIENTED_EDGE('',*,*,#449,.F.);
#92=ORIENTED_EDGE('',*,*,#450,.T.);
#93=ORIENTED_EDGE('',*,*,#451,.F.);
#94=ORIENTED_EDGE('',*,*,#452,.T.);
#95=ORIENTED_EDGE('',*,*,#453,.F.);
#96=ORIENTED_EDGE('',*,*,#454,.F.);
#97=ORIENTED_EDGE('',*,*,#455,.T.);
#98=ORIENTED_EDGE('',*,*,#456,.F.);
#99=ORIENTED_EDGE('',*,*,#457,.F.);
#100=ORIENTED_EDGE('',*,*,#458,.T.);
#101=ORIENTED_EDGE('',*,*,#459,.T.);
#102=ORIENTED_EDGE('',*,*,#460,.F.);
#103=ORIENTED_EDGE('',*,*,#461,.F.);
#104=ORIENTED_EDGE('',*,*,#462,.T.);
#105=ORIENTED_EDGE('',*,*,#463,.F.);
#106=ORIENTED_EDGE('',*,*,#464,.T.);
#107=ORIENTED_EDGE('',*,*,#465,.T.);
#108=ORIENTED_EDGE('',*,*,#466,.T.);
#109=ORIENTED_EDGE('',*,*,#467,.F.);
#110=ORIENTED_EDGE('',*,*,#468,.F.);
#111=ORIENTED_EDGE('',*,*,#438,.T.);
#112=ORIENTED_EDGE('',*,*,#469,.F.);
#113=ORIENTED_EDGE('',*,*,#470,.T.);
#114=ORIENTED_EDGE('',*,*,#471,.T.);
#115=ORIENTED_EDGE('',*,*,#472,.T.);
#116=ORIENTED_EDGE('',*,*,#473,.T.);
#117=ORIENTED_EDGE('',*,*,#474,.T.);
#118=ORIENTED_EDGE('',*,*,#428,.F.);
#119=ORIENTED_EDGE('',*,*,#475,.F.);
#120=ORIENTED_EDGE('',*,*,#431,.T.);
#121=ORIENTED_EDGE('',*,*,#476,.T.);
#122=ORIENTED_EDGE('',*,*,#477,.F.);
#123=ORIENTED_EDGE('',*,*,#476,.F.);
#124=ORIENTED_EDGE('',*,*,#436,.T.);
#125=ORIENTED_EDGE('',*,*,#478,.T.);
#126=ORIENTED_EDGE('',*,*,#472,.F.);
#127=ORIENTED_EDGE('',*,*,#479,.F.);
#128=ORIENTED_EDGE('',*,*,#480,.T.);
#129=ORIENTED_EDGE('',*,*,#481,.T.);
#130=ORIENTED_EDGE('',*,*,#477,.T.);
#131=ORIENTED_EDGE('',*,*,#482,.T.);
#132=ORIENTED_EDGE('',*,*,#483,.T.);
#133=ORIENTED_EDGE('',*,*,#484,.T.);
#134=ORIENTED_EDGE('',*,*,#459,.F.);
#135=ORIENTED_EDGE('',*,*,#485,.F.);
#136=ORIENTED_EDGE('',*,*,#486,.F.);
#137=ORIENTED_EDGE('',*,*,#487,.T.);
#138=ORIENTED_EDGE('',*,*,#488,.F.);
#139=ORIENTED_EDGE('',*,*,#489,.T.);
#140=ORIENTED_EDGE('',*,*,#490,.F.);
#141=ORIENTED_EDGE('',*,*,#491,.F.);
#142=ORIENTED_EDGE('',*,*,#492,.T.);
#143=ORIENTED_EDGE('',*,*,#482,.F.);
#144=ORIENTED_EDGE('',*,*,#493,.T.);
#145=ORIENTED_EDGE('',*,*,#494,.T.);
#146=ORIENTED_EDGE('',*,*,#495,.F.);
#147=ORIENTED_EDGE('',*,*,#496,.T.);
#148=ORIENTED_EDGE('',*,*,#491,.T.);
#149=ORIENTED_EDGE('',*,*,#497,.T.);
#150=ORIENTED_EDGE('',*,*,#498,.F.);
#151=ORIENTED_EDGE('',*,*,#461,.T.);
#152=ORIENTED_EDGE('',*,*,#473,.F.);
#153=ORIENTED_EDGE('',*,*,#478,.F.);
#154=ORIENTED_EDGE('',*,*,#435,.F.);
#155=ORIENTED_EDGE('',*,*,#499,.F.);
#156=ORIENTED_EDGE('',*,*,#500,.T.);
#157=ORIENTED_EDGE('',*,*,#501,.T.);
#158=ORIENTED_EDGE('',*,*,#467,.T.);
#159=ORIENTED_EDGE('',*,*,#502,.F.);
#160=ORIENTED_EDGE('',*,*,#503,.F.);
#161=ORIENTED_EDGE('',*,*,#504,.T.);
#162=ORIENTED_EDGE('',*,*,#505,.T.);
#163=ORIENTED_EDGE('',*,*,#506,.T.);
#164=ORIENTED_EDGE('',*,*,#507,.F.);
#165=ORIENTED_EDGE('',*,*,#508,.T.);
#166=ORIENTED_EDGE('',*,*,#463,.T.);
#167=ORIENTED_EDGE('',*,*,#509,.T.);
#168=ORIENTED_EDGE('',*,*,#510,.T.);
#169=ORIENTED_EDGE('',*,*,#441,.T.);
#170=ORIENTED_EDGE('',*,*,#511,.T.);
#171=ORIENTED_EDGE('',*,*,#499,.T.);
#172=ORIENTED_EDGE('',*,*,#434,.T.);
#173=ORIENTED_EDGE('',*,*,#501,.F.);
#174=ORIENTED_EDGE('',*,*,#512,.T.);
#175=ORIENTED_EDGE('',*,*,#439,.T.);
#176=ORIENTED_EDGE('',*,*,#468,.T.);
#177=ORIENTED_EDGE('',*,*,#443,.F.);
#178=ORIENTED_EDGE('',*,*,#429,.T.);
#179=ORIENTED_EDGE('',*,*,#474,.F.);
#180=ORIENTED_EDGE('',*,*,#481,.F.);
#181=ORIENTED_EDGE('',*,*,#513,.F.);
#182=ORIENTED_EDGE('',*,*,#488,.T.);
#183=ORIENTED_EDGE('',*,*,#514,.F.);
#184=ORIENTED_EDGE('',*,*,#453,.T.);
#185=ORIENTED_EDGE('',*,*,#515,.F.);
#186=ORIENTED_EDGE('',*,*,#516,.T.);
#187=ORIENTED_EDGE('',*,*,#517,.T.);
#188=ORIENTED_EDGE('',*,*,#518,.F.);
#189=ORIENTED_EDGE('',*,*,#519,.F.);
#190=ORIENTED_EDGE('',*,*,#444,.F.);
#191=ORIENTED_EDGE('',*,*,#513,.T.);
#192=ORIENTED_EDGE('',*,*,#520,.F.);
#193=ORIENTED_EDGE('',*,*,#521,.F.);
#194=ORIENTED_EDGE('',*,*,#486,.T.);
#195=ORIENTED_EDGE('',*,*,#522,.F.);
#196=ORIENTED_EDGE('',*,*,#523,.F.);
#197=ORIENTED_EDGE('',*,*,#524,.F.);
#198=ORIENTED_EDGE('',*,*,#525,.T.);
#199=ORIENTED_EDGE('',*,*,#451,.T.);
#200=ORIENTED_EDGE('',*,*,#526,.T.);
#201=ORIENTED_EDGE('',*,*,#527,.F.);
#202=ORIENTED_EDGE('',*,*,#528,.F.);
#203=ORIENTED_EDGE('',*,*,#529,.T.);
#204=ORIENTED_EDGE('',*,*,#506,.F.);
#205=ORIENTED_EDGE('',*,*,#530,.F.);
#206=ORIENTED_EDGE('',*,*,#531,.F.);
#207=ORIENTED_EDGE('',*,*,#532,.T.);
#208=ORIENTED_EDGE('',*,*,#533,.F.);
#209=ORIENTED_EDGE('',*,*,#534,.T.);
#210=ORIENTED_EDGE('',*,*,#535,.T.);
#211=ORIENTED_EDGE('',*,*,#536,.T.);
#212=ORIENTED_EDGE('',*,*,#531,.T.);
#213=ORIENTED_EDGE('',*,*,#537,.F.);
#214=ORIENTED_EDGE('',*,*,#538,.F.);
#215=ORIENTED_EDGE('',*,*,#505,.F.);
#216=ORIENTED_EDGE('',*,*,#539,.F.);
#217=ORIENTED_EDGE('',*,*,#537,.T.);
#218=ORIENTED_EDGE('',*,*,#530,.T.);
#219=ORIENTED_EDGE('',*,*,#540,.T.);
#220=ORIENTED_EDGE('',*,*,#541,.T.);
#221=ORIENTED_EDGE('',*,*,#507,.T.);
#222=ORIENTED_EDGE('',*,*,#529,.F.);
#223=ORIENTED_EDGE('',*,*,#503,.T.);
#224=ORIENTED_EDGE('',*,*,#526,.F.);
#225=ORIENTED_EDGE('',*,*,#450,.F.);
#226=ORIENTED_EDGE('',*,*,#542,.T.);
#227=ORIENTED_EDGE('',*,*,#504,.F.);
#228=ORIENTED_EDGE('',*,*,#542,.F.);
#229=ORIENTED_EDGE('',*,*,#449,.T.);
#230=ORIENTED_EDGE('',*,*,#543,.T.);
#231=ORIENTED_EDGE('',*,*,#538,.T.);
#232=ORIENTED_EDGE('',*,*,#539,.T.);
#233=ORIENTED_EDGE('',*,*,#448,.T.);
#234=ORIENTED_EDGE('',*,*,#544,.T.);
#235=ORIENTED_EDGE('',*,*,#534,.F.);
#236=ORIENTED_EDGE('',*,*,#543,.F.);
#237=ORIENTED_EDGE('',*,*,#432,.T.);
#238=ORIENTED_EDGE('',*,*,#475,.T.);
#239=ORIENTED_EDGE('',*,*,#427,.T.);
#240=ORIENTED_EDGE('',*,*,#545,.F.);
#241=ORIENTED_EDGE('',*,*,#455,.F.);
#242=ORIENTED_EDGE('',*,*,#437,.F.);
#243=ORIENTED_EDGE('',*,*,#510,.F.);
#244=ORIENTED_EDGE('',*,*,#454,.T.);
#245=ORIENTED_EDGE('',*,*,#546,.F.);
#246=ORIENTED_EDGE('',*,*,#536,.F.);
#247=ORIENTED_EDGE('',*,*,#547,.T.);
#248=ORIENTED_EDGE('',*,*,#446,.T.);
#249=ORIENTED_EDGE('',*,*,#514,.T.);
#250=ORIENTED_EDGE('',*,*,#487,.F.);
#251=ORIENTED_EDGE('',*,*,#532,.F.);
#252=ORIENTED_EDGE('',*,*,#456,.T.);
#253=ORIENTED_EDGE('',*,*,#545,.T.);
#254=ORIENTED_EDGE('',*,*,#426,.T.);
#255=ORIENTED_EDGE('',*,*,#548,.F.);
#256=ORIENTED_EDGE('',*,*,#549,.T.);
#257=ORIENTED_EDGE('',*,*,#550,.F.);
#258=ORIENTED_EDGE('',*,*,#502,.T.);
#259=ORIENTED_EDGE('',*,*,#466,.F.);
#260=ORIENTED_EDGE('',*,*,#551,.F.);
#261=ORIENTED_EDGE('',*,*,#527,.T.);
#262=ORIENTED_EDGE('',*,*,#528,.T.);
#263=ORIENTED_EDGE('',*,*,#551,.T.);
#264=ORIENTED_EDGE('',*,*,#465,.F.);
#265=ORIENTED_EDGE('',*,*,#552,.T.);
#266=ORIENTED_EDGE('',*,*,#540,.F.);
#267=ORIENTED_EDGE('',*,*,#552,.F.);
#268=ORIENTED_EDGE('',*,*,#464,.F.);
#269=ORIENTED_EDGE('',*,*,#508,.F.);
#270=ORIENTED_EDGE('',*,*,#541,.F.);
#271=ORIENTED_EDGE('',*,*,#498,.T.);
#272=ORIENTED_EDGE('',*,*,#553,.T.);
#273=ORIENTED_EDGE('',*,*,#469,.T.);
#274=ORIENTED_EDGE('',*,*,#509,.F.);
#275=ORIENTED_EDGE('',*,*,#462,.F.);
#276=ORIENTED_EDGE('',*,*,#554,.F.);
#277=ORIENTED_EDGE('',*,*,#555,.F.);
#278=ORIENTED_EDGE('',*,*,#556,.T.);
#279=ORIENTED_EDGE('',*,*,#457,.T.);
#280=ORIENTED_EDGE('',*,*,#550,.T.);
#281=ORIENTED_EDGE('',*,*,#549,.F.);
#282=ORIENTED_EDGE('',*,*,#445,.F.);
#283=ORIENTED_EDGE('',*,*,#521,.T.);
#284=ORIENTED_EDGE('',*,*,#554,.T.);
#285=ORIENTED_EDGE('',*,*,#548,.T.);
#286=ORIENTED_EDGE('',*,*,#425,.T.);
#287=ORIENTED_EDGE('',*,*,#522,.T.);
#288=ORIENTED_EDGE('',*,*,#485,.T.);
#289=ORIENTED_EDGE('',*,*,#557,.F.);
#290=ORIENTED_EDGE('',*,*,#558,.F.);
#291=ORIENTED_EDGE('',*,*,#559,.T.);
#292=ORIENTED_EDGE('',*,*,#560,.T.);
#293=ORIENTED_EDGE('',*,*,#558,.T.);
#294=ORIENTED_EDGE('',*,*,#561,.T.);
#295=ORIENTED_EDGE('',*,*,#562,.F.);
#296=ORIENTED_EDGE('',*,*,#563,.F.);
#297=ORIENTED_EDGE('',*,*,#564,.F.);
#298=ORIENTED_EDGE('',*,*,#565,.T.);
#299=ORIENTED_EDGE('',*,*,#566,.T.);
#300=ORIENTED_EDGE('',*,*,#567,.T.);
#301=ORIENTED_EDGE('',*,*,#568,.F.);
#302=ORIENTED_EDGE('',*,*,#569,.F.);
#303=ORIENTED_EDGE('',*,*,#570,.F.);
#304=ORIENTED_EDGE('',*,*,#571,.F.);
#305=ORIENTED_EDGE('',*,*,#572,.T.);
#306=ORIENTED_EDGE('',*,*,#573,.F.);
#307=ORIENTED_EDGE('',*,*,#574,.F.);
#308=ORIENTED_EDGE('',*,*,#571,.T.);
#309=ORIENTED_EDGE('',*,*,#575,.T.);
#310=ORIENTED_EDGE('',*,*,#576,.T.);
#311=ORIENTED_EDGE('',*,*,#577,.F.);
#312=ORIENTED_EDGE('',*,*,#516,.F.);
#313=ORIENTED_EDGE('',*,*,#578,.F.);
#314=ORIENTED_EDGE('',*,*,#524,.T.);
#315=ORIENTED_EDGE('',*,*,#579,.T.);
#316=ORIENTED_EDGE('',*,*,#561,.F.);
#317=ORIENTED_EDGE('',*,*,#566,.F.);
#318=ORIENTED_EDGE('',*,*,#565,.F.);
#319=ORIENTED_EDGE('',*,*,#580,.T.);
#320=ORIENTED_EDGE('',*,*,#581,.T.);
#321=ORIENTED_EDGE('',*,*,#582,.T.);
#322=ORIENTED_EDGE('',*,*,#480,.F.);
#323=ORIENTED_EDGE('',*,*,#583,.T.);
#324=ORIENTED_EDGE('',*,*,#520,.T.);
#325=ORIENTED_EDGE('',*,*,#582,.F.);
#326=ORIENTED_EDGE('',*,*,#581,.F.);
#327=ORIENTED_EDGE('',*,*,#584,.F.);
#328=ORIENTED_EDGE('',*,*,#585,.T.);
#329=ORIENTED_EDGE('',*,*,#586,.F.);
#330=ORIENTED_EDGE('',*,*,#587,.F.);
#331=ORIENTED_EDGE('',*,*,#588,.F.);
#332=ORIENTED_EDGE('',*,*,#589,.F.);
#333=ORIENTED_EDGE('',*,*,#590,.T.);
#334=ORIENTED_EDGE('',*,*,#591,.T.);
#335=ORIENTED_EDGE('',*,*,#588,.T.);
#336=ORIENTED_EDGE('',*,*,#555,.T.);
#337=ORIENTED_EDGE('',*,*,#583,.F.);
#338=ORIENTED_EDGE('',*,*,#585,.F.);
#339=ORIENTED_EDGE('',*,*,#592,.F.);
#340=ORIENTED_EDGE('',*,*,#589,.T.);
#341=ORIENTED_EDGE('',*,*,#593,.F.);
#342=ORIENTED_EDGE('',*,*,#562,.T.);
#343=ORIENTED_EDGE('',*,*,#573,.T.);
#344=ORIENTED_EDGE('',*,*,#586,.T.);
#345=ORIENTED_EDGE('',*,*,#557,.T.);
#346=ORIENTED_EDGE('',*,*,#458,.F.);
#347=ORIENTED_EDGE('',*,*,#556,.F.);
#348=ORIENTED_EDGE('',*,*,#587,.T.);
#349=ORIENTED_EDGE('',*,*,#572,.F.);
#350=ORIENTED_EDGE('',*,*,#574,.T.);
#351=ORIENTED_EDGE('',*,*,#479,.T.);
#352=ORIENTED_EDGE('',*,*,#471,.F.);
#353=ORIENTED_EDGE('',*,*,#594,.F.);
#354=ORIENTED_EDGE('',*,*,#595,.F.);
#355=ORIENTED_EDGE('',*,*,#575,.F.);
#356=ORIENTED_EDGE('',*,*,#570,.T.);
#357=ORIENTED_EDGE('',*,*,#569,.T.);
#358=ORIENTED_EDGE('',*,*,#567,.F.);
#359=ORIENTED_EDGE('',*,*,#559,.F.);
#360=ORIENTED_EDGE('',*,*,#560,.F.);
#361=ORIENTED_EDGE('',*,*,#579,.F.);
#362=ORIENTED_EDGE('',*,*,#523,.T.);
#363=ORIENTED_EDGE('',*,*,#489,.F.);
#364=ORIENTED_EDGE('',*,*,#518,.T.);
#365=ORIENTED_EDGE('',*,*,#596,.F.);
#366=ORIENTED_EDGE('',*,*,#597,.T.);
#367=ORIENTED_EDGE('',*,*,#595,.T.);
#368=ORIENTED_EDGE('',*,*,#598,.F.);
#369=ORIENTED_EDGE('',*,*,#576,.F.);
#370=ORIENTED_EDGE('',*,*,#597,.F.);
#371=ORIENTED_EDGE('',*,*,#596,.T.);
#372=ORIENTED_EDGE('',*,*,#517,.F.);
#373=ORIENTED_EDGE('',*,*,#577,.T.);
#374=ORIENTED_EDGE('',*,*,#598,.T.);
#375=ORIENTED_EDGE('',*,*,#447,.F.);
#376=ORIENTED_EDGE('',*,*,#547,.F.);
#377=ORIENTED_EDGE('',*,*,#535,.F.);
#378=ORIENTED_EDGE('',*,*,#544,.F.);
#379=ORIENTED_EDGE('',*,*,#599,.T.);
#380=ORIENTED_EDGE('',*,*,#546,.T.);
#381=ORIENTED_EDGE('',*,*,#519,.T.);
#382=ORIENTED_EDGE('',*,*,#600,.F.);
#383=ORIENTED_EDGE('',*,*,#600,.T.);
#384=ORIENTED_EDGE('',*,*,#568,.T.);
#385=ORIENTED_EDGE('',*,*,#601,.F.);
#386=ORIENTED_EDGE('',*,*,#442,.T.);
#387=ORIENTED_EDGE('',*,*,#533,.T.);
#388=ORIENTED_EDGE('',*,*,#490,.T.);
#389=ORIENTED_EDGE('',*,*,#594,.T.);
#390=ORIENTED_EDGE('',*,*,#602,.T.);
#391=ORIENTED_EDGE('',*,*,#493,.F.);
#392=ORIENTED_EDGE('',*,*,#484,.F.);
#393=ORIENTED_EDGE('',*,*,#603,.T.);
#394=ORIENTED_EDGE('',*,*,#495,.T.);
#395=ORIENTED_EDGE('',*,*,#460,.T.);
#396=ORIENTED_EDGE('',*,*,#599,.F.);
#397=ORIENTED_EDGE('',*,*,#553,.F.);
#398=ORIENTED_EDGE('',*,*,#497,.F.);
#399=ORIENTED_EDGE('',*,*,#494,.F.);
#400=ORIENTED_EDGE('',*,*,#602,.F.);
#401=ORIENTED_EDGE('',*,*,#470,.F.);
#402=ORIENTED_EDGE('',*,*,#483,.F.);
#403=ORIENTED_EDGE('',*,*,#492,.F.);
#404=ORIENTED_EDGE('',*,*,#496,.F.);
#405=ORIENTED_EDGE('',*,*,#603,.F.);
#406=ORIENTED_EDGE('',*,*,#500,.F.);
#407=ORIENTED_EDGE('',*,*,#511,.F.);
#408=ORIENTED_EDGE('',*,*,#440,.F.);
#409=ORIENTED_EDGE('',*,*,#512,.F.);
#410=ORIENTED_EDGE('',*,*,#593,.T.);
#411=ORIENTED_EDGE('',*,*,#591,.F.);
#412=ORIENTED_EDGE('',*,*,#604,.F.);
#413=ORIENTED_EDGE('',*,*,#563,.T.);
#414=ORIENTED_EDGE('',*,*,#601,.T.);
#415=ORIENTED_EDGE('',*,*,#604,.T.);
#416=ORIENTED_EDGE('',*,*,#590,.F.);
#417=ORIENTED_EDGE('',*,*,#592,.T.);
#418=ORIENTED_EDGE('',*,*,#584,.T.);
#419=ORIENTED_EDGE('',*,*,#580,.F.);
#420=ORIENTED_EDGE('',*,*,#564,.T.);
#421=ORIENTED_EDGE('',*,*,#515,.T.);
#422=ORIENTED_EDGE('',*,*,#452,.F.);
#423=ORIENTED_EDGE('',*,*,#525,.F.);
#424=ORIENTED_EDGE('',*,*,#578,.T.);
#425=EDGE_CURVE('',#605,#606,#726,.F.);
#426=EDGE_CURVE('',#607,#605,#727,.F.);
#427=EDGE_CURVE('',#608,#607,#728,.T.);
#428=EDGE_CURVE('',#608,#609,#729,.F.);
#429=EDGE_CURVE('',#610,#609,#730,.F.);
#430=EDGE_CURVE('',#610,#606,#731,.T.);
#431=EDGE_CURVE('',#611,#612,#732,.T.);
#432=EDGE_CURVE('',#613,#611,#733,.T.);
#433=EDGE_CURVE('',#613,#614,#734,.T.);
#434=EDGE_CURVE('',#615,#614,#735,.T.);
#435=EDGE_CURVE('',#615,#616,#736,.T.);
#436=EDGE_CURVE('',#612,#616,#63,.T.);
#437=EDGE_CURVE('',#613,#617,#737,.T.);
#438=EDGE_CURVE('',#618,#617,#738,.T.);
#439=EDGE_CURVE('',#619,#618,#739,.T.);
#440=EDGE_CURVE('',#619,#620,#35,.F.);
#441=EDGE_CURVE('',#614,#620,#36,.T.);
#442=EDGE_CURVE('',#621,#621,#37,.T.);
#443=EDGE_CURVE('',#610,#622,#740,.T.);
#444=EDGE_CURVE('',#622,#623,#741,.T.);
#445=EDGE_CURVE('',#623,#606,#742,.T.);
#446=EDGE_CURVE('',#624,#625,#743,.T.);
#447=EDGE_CURVE('',#624,#626,#38,.T.);
#448=EDGE_CURVE('',#627,#626,#744,.T.);
#449=EDGE_CURVE('',#628,#627,#39,.T.);
#450=EDGE_CURVE('',#628,#629,#745,.T.);
#451=EDGE_CURVE('',#630,#629,#746,.T.);
#452=EDGE_CURVE('',#630,#631,#747,.T.);
#453=EDGE_CURVE('',#625,#631,#748,.T.);
#454=EDGE_CURVE('',#632,#632,#40,.T.);
#455=EDGE_CURVE('',#617,#633,#749,.T.);
#456=EDGE_CURVE('',#634,#633,#750,.T.);
#457=EDGE_CURVE('',#635,#634,#41,.F.);
#458=EDGE_CURVE('',#635,#636,#751,.T.);
#459=EDGE_CURVE('',#636,#637,#752,.T.);
#460=EDGE_CURVE('',#638,#637,#753,.T.);
#461=EDGE_CURVE('',#639,#638,#754,.T.);
#462=EDGE_CURVE('',#639,#640,#755,.T.);
#463=EDGE_CURVE('',#641,#640,#756,.T.);
#464=EDGE_CURVE('',#641,#642,#757,.T.);
#465=EDGE_CURVE('',#642,#643,#758,.T.);
#466=EDGE_CURVE('',#643,#644,#759,.T.);
#467=EDGE_CURVE('',#645,#644,#760,.T.);
#468=EDGE_CURVE('',#618,#645,#761,.T.);
#469=EDGE_CURVE('',#646,#647,#762,.T.);
#470=EDGE_CURVE('',#646,#648,#763,.T.);
#471=EDGE_CURVE('',#648,#649,#764,.T.);
#472=EDGE_CURVE('',#649,#650,#42,.F.);
#473=EDGE_CURVE('',#650,#647,#765,.T.);
#474=EDGE_CURVE('',#651,#609,#766,.T.);
#475=EDGE_CURVE('',#611,#608,#767,.T.);
#476=EDGE_CURVE('',#612,#652,#768,.T.);
#477=EDGE_CURVE('',#651,#652,#769,.T.);
#478=EDGE_CURVE('',#616,#650,#26,.T.);
#479=EDGE_CURVE('',#653,#649,#770,.F.);
#480=EDGE_CURVE('',#653,#654,#27,.T.);
#481=EDGE_CURVE('',#654,#651,#43,.T.);
#482=EDGE_CURVE('',#655,#656,#44,.T.);
#483=EDGE_CURVE('',#656,#657,#45,.T.);
#484=EDGE_CURVE('',#657,#637,#771,.T.);
#485=EDGE_CURVE('',#658,#636,#772,.T.);
#486=EDGE_CURVE('',#659,#658,#773,.T.);
#487=EDGE_CURVE('',#659,#660,#774,.T.);
#488=EDGE_CURVE('',#661,#660,#775,.T.);
#489=EDGE_CURVE('',#661,#662,#776,.T.);
#490=EDGE_CURVE('',#655,#662,#777,.T.);
#491=EDGE_CURVE('',#663,#664,#46,.F.);
#492=EDGE_CURVE('',#663,#656,#778,.F.);
#493=EDGE_CURVE('',#655,#665,#779,.T.);
#494=EDGE_CURVE('',#665,#664,#28,.T.);
#495=EDGE_CURVE('',#666,#638,#780,.T.);
#496=EDGE_CURVE('',#666,#663,#47,.F.);
#497=EDGE_CURVE('',#664,#667,#781,.F.);
#498=EDGE_CURVE('',#639,#667,#782,.T.);
#499=EDGE_CURVE('',#668,#615,#48,.F.);
#500=EDGE_CURVE('',#668,#669,#49,.F.);
#501=EDGE_CURVE('',#669,#645,#783,.T.);
#502=EDGE_CURVE('',#670,#644,#784,.T.);
#503=EDGE_CURVE('',#671,#670,#785,.T.);
#504=EDGE_CURVE('',#671,#672,#50,.T.);
#505=EDGE_CURVE('',#672,#673,#786,.T.);
#506=EDGE_CURVE('',#673,#674,#787,.T.);
#507=EDGE_CURVE('',#675,#674,#788,.T.);
#508=EDGE_CURVE('',#675,#641,#789,.F.);
#509=EDGE_CURVE('',#640,#647,#790,.T.);
#510=EDGE_CURVE('',#676,#676,#51,.T.);
#511=EDGE_CURVE('',#620,#668,#791,.F.);
#512=EDGE_CURVE('',#669,#619,#792,.T.);
#513=EDGE_CURVE('',#622,#654,#793,.T.);
#514=EDGE_CURVE('',#625,#660,#794,.T.);
#515=EDGE_CURVE('',#677,#631,#795,.T.);
#516=EDGE_CURVE('',#677,#678,#796,.T.);
#517=EDGE_CURVE('',#678,#679,#797,.T.);
#518=EDGE_CURVE('',#661,#679,#798,.T.);
#519=EDGE_CURVE('',#680,#680,#52,.T.);
#520=EDGE_CURVE('',#681,#654,#799,.T.);
#521=EDGE_CURVE('',#623,#681,#800,.T.);
#522=EDGE_CURVE('',#682,#658,#801,.T.);
#523=EDGE_CURVE('',#683,#682,#802,.T.);
#524=EDGE_CURVE('',#684,#683,#803,.T.);
#525=EDGE_CURVE('',#684,#630,#804,.T.);
#526=EDGE_CURVE('',#629,#670,#805,.T.);
#527=EDGE_CURVE('',#685,#670,#806,.T.);
#528=EDGE_CURVE('',#686,#685,#807,.T.);
#529=EDGE_CURVE('',#686,#674,#808,.T.);
#530=EDGE_CURVE('',#687,#673,#809,.T.);
#531=EDGE_CURVE('',#688,#687,#810,.T.);
#532=EDGE_CURVE('',#688,#659,#811,.T.);
#533=EDGE_CURVE('',#689,#689,#53,.T.);
#534=EDGE_CURVE('',#690,#691,#812,.T.);
#535=EDGE_CURVE('',#691,#692,#54,.F.);
#536=EDGE_CURVE('',#692,#688,#813,.T.);
#537=EDGE_CURVE('',#693,#687,#814,.T.);
#538=EDGE_CURVE('',#690,#693,#55,.F.);
#539=EDGE_CURVE('',#693,#672,#815,.T.);
#540=EDGE_CURVE('',#686,#694,#816,.T.);
#541=EDGE_CURVE('',#694,#675,#817,.T.);
#542=EDGE_CURVE('',#628,#671,#818,.T.);
#543=EDGE_CURVE('',#627,#690,#819,.T.);
#544=EDGE_CURVE('',#626,#691,#820,.T.);
#545=EDGE_CURVE('',#633,#607,#821,.T.);
#546=EDGE_CURVE('',#695,#695,#56,.T.);
#547=EDGE_CURVE('',#692,#624,#822,.F.);
#548=EDGE_CURVE('',#696,#605,#823,.T.);
#549=EDGE_CURVE('',#696,#697,#824,.T.);
#550=EDGE_CURVE('',#634,#697,#825,.T.);
#551=EDGE_CURVE('',#685,#643,#826,.T.);
#552=EDGE_CURVE('',#642,#694,#827,.F.);
#553=EDGE_CURVE('',#667,#646,#57,.T.);
#554=EDGE_CURVE('',#681,#696,#58,.T.);
#555=EDGE_CURVE('',#698,#681,#29,.T.);
#556=EDGE_CURVE('',#698,#635,#828,.F.);
#557=EDGE_CURVE('',#699,#636,#829,.T.);
#558=EDGE_CURVE('',#700,#699,#830,.T.);
#559=EDGE_CURVE('',#700,#682,#831,.T.);
#560=EDGE_CURVE('',#701,#700,#832,.T.);
#561=EDGE_CURVE('',#699,#701,#833,.T.);
#562=EDGE_CURVE('',#702,#703,#834,.T.);
#563=EDGE_CURVE('',#704,#702,#835,.T.);
#564=EDGE_CURVE('',#705,#704,#836,.T.);
#565=EDGE_CURVE('',#705,#706,#837,.T.);
#566=EDGE_CURVE('',#706,#653,#838,.T.);
#567=EDGE_CURVE('',#653,#703,#839,.T.);
#568=EDGE_CURVE('',#707,#707,#59,.T.);
#569=EDGE_CURVE('',#708,#703,#840,.T.);
#570=EDGE_CURVE('',#709,#708,#30,.F.);
#571=EDGE_CURVE('',#710,#709,#841,.T.);
#572=EDGE_CURVE('',#710,#711,#842,.T.);
#573=EDGE_CURVE('',#703,#711,#843,.T.);
#574=EDGE_CURVE('',#710,#699,#844,.F.);
#575=EDGE_CURVE('',#709,#712,#845,.F.);
#576=EDGE_CURVE('',#712,#713,#846,.T.);
#577=EDGE_CURVE('',#678,#713,#847,.T.);
#578=EDGE_CURVE('',#684,#677,#848,.T.);
#579=EDGE_CURVE('',#683,#701,#849,.T.);
#580=EDGE_CURVE('',#705,#714,#31,.T.);
#581=EDGE_CURVE('',#714,#715,#850,.T.);
#582=EDGE_CURVE('',#715,#654,#851,.T.);
#583=EDGE_CURVE('',#716,#681,#852,.T.);
#584=EDGE_CURVE('',#717,#714,#853,.T.);
#585=EDGE_CURVE('',#717,#716,#854,.T.);
#586=EDGE_CURVE('',#711,#718,#855,.T.);
#587=EDGE_CURVE('',#698,#711,#856,.T.);
#588=EDGE_CURVE('',#719,#698,#857,.T.);
#589=EDGE_CURVE('',#720,#719,#858,.T.);
#590=EDGE_CURVE('',#720,#721,#859,.T.);
#591=EDGE_CURVE('',#721,#718,#860,.T.);
#592=EDGE_CURVE('',#720,#717,#32,.T.);
#593=EDGE_CURVE('',#702,#718,#861,.T.);
#594=EDGE_CURVE('',#662,#648,#862,.T.);
#595=EDGE_CURVE('',#712,#662,#863,.T.);
#596=EDGE_CURVE('',#722,#679,#864,.T.);
#597=EDGE_CURVE('',#722,#712,#865,.T.);
#598=EDGE_CURVE('',#713,#722,#866,.T.);
#599=EDGE_CURVE('',#723,#723,#60,.F.);
#600=EDGE_CURVE('',#724,#724,#61,.T.);
#601=EDGE_CURVE('',#725,#725,#62,.T.);
#602=EDGE_CURVE('',#648,#665,#64,.T.);
#603=EDGE_CURVE('',#657,#666,#867,.T.);
#604=EDGE_CURVE('',#704,#721,#868,.T.);
#605=VERTEX_POINT('',#1714);
#606=VERTEX_POINT('',#1715);
#607=VERTEX_POINT('',#1717);
#608=VERTEX_POINT('',#1719);
#609=VERTEX_POINT('',#1721);
#610=VERTEX_POINT('',#1723);
#611=VERTEX_POINT('',#1727);
#612=VERTEX_POINT('',#1728);
#613=VERTEX_POINT('',#1730);
#614=VERTEX_POINT('',#1732);
#615=VERTEX_POINT('',#1734);
#616=VERTEX_POINT('',#1736);
#617=VERTEX_POINT('',#1740);
#618=VERTEX_POINT('',#1742);
#619=VERTEX_POINT('',#1744);
#620=VERTEX_POINT('',#1746);
#621=VERTEX_POINT('',#1749);
#622=VERTEX_POINT('',#1751);
#623=VERTEX_POINT('',#1753);
#624=VERTEX_POINT('',#1756);
#625=VERTEX_POINT('',#1757);
#626=VERTEX_POINT('',#1759);
#627=VERTEX_POINT('',#1761);
#628=VERTEX_POINT('',#1763);
#629=VERTEX_POINT('',#1765);
#630=VERTEX_POINT('',#1767);
#631=VERTEX_POINT('',#1769);
#632=VERTEX_POINT('',#1772);
#633=VERTEX_POINT('',#1775);
#634=VERTEX_POINT('',#1777);
#635=VERTEX_POINT('',#1779);
#636=VERTEX_POINT('',#1781);
#637=VERTEX_POINT('',#1783);
#638=VERTEX_POINT('',#1785);
#639=VERTEX_POINT('',#1787);
#640=VERTEX_POINT('',#1789);
#641=VERTEX_POINT('',#1791);
#642=VERTEX_POINT('',#1793);
#643=VERTEX_POINT('',#1795);
#644=VERTEX_POINT('',#1797);
#645=VERTEX_POINT('',#1799);
#646=VERTEX_POINT('',#1803);
#647=VERTEX_POINT('',#1804);
#648=VERTEX_POINT('',#1806);
#649=VERTEX_POINT('',#1808);
#650=VERTEX_POINT('',#1810);
#651=VERTEX_POINT('',#1814);
#652=VERTEX_POINT('',#1817);
#653=VERTEX_POINT('',#1825);
#654=VERTEX_POINT('',#1830);
#655=VERTEX_POINT('',#1834);
#656=VERTEX_POINT('',#1835);
#657=VERTEX_POINT('',#1837);
#658=VERTEX_POINT('',#1840);
#659=VERTEX_POINT('',#1842);
#660=VERTEX_POINT('',#1844);
#661=VERTEX_POINT('',#1846);
#662=VERTEX_POINT('',#1848);
#663=VERTEX_POINT('',#1852);
#664=VERTEX_POINT('',#1853);
#665=VERTEX_POINT('',#1856);
#666=VERTEX_POINT('',#1864);
#667=VERTEX_POINT('',#1867);
#668=VERTEX_POINT('',#1871);
#669=VERTEX_POINT('',#1873);
#670=VERTEX_POINT('',#1876);
#671=VERTEX_POINT('',#1878);
#672=VERTEX_POINT('',#1880);
#673=VERTEX_POINT('',#1882);
#674=VERTEX_POINT('',#1884);
#675=VERTEX_POINT('',#1886);
#676=VERTEX_POINT('',#1890);
#677=VERTEX_POINT('',#1900);
#678=VERTEX_POINT('',#1902);
#679=VERTEX_POINT('',#1904);
#680=VERTEX_POINT('',#1907);
#681=VERTEX_POINT('',#1910);
#682=VERTEX_POINT('',#1914);
#683=VERTEX_POINT('',#1916);
#684=VERTEX_POINT('',#1918);
#685=VERTEX_POINT('',#1922);
#686=VERTEX_POINT('',#1924);
#687=VERTEX_POINT('',#1927);
#688=VERTEX_POINT('',#1929);
#689=VERTEX_POINT('',#1933);
#690=VERTEX_POINT('',#1935);
#691=VERTEX_POINT('',#1936);
#692=VERTEX_POINT('',#1938);
#693=VERTEX_POINT('',#1941);
#694=VERTEX_POINT('',#1947);
#695=VERTEX_POINT('',#1960);
#696=VERTEX_POINT('',#1964);
#697=VERTEX_POINT('',#1966);
#698=VERTEX_POINT('',#1981);
#699=VERTEX_POINT('',#1986);
#700=VERTEX_POINT('',#1988);
#701=VERTEX_POINT('',#1992);
#702=VERTEX_POINT('',#1996);
#703=VERTEX_POINT('',#1997);
#704=VERTEX_POINT('',#1999);
#705=VERTEX_POINT('',#2001);
#706=VERTEX_POINT('',#2003);
#707=VERTEX_POINT('',#2008);
#708=VERTEX_POINT('',#2010);
#709=VERTEX_POINT('',#2015);
#710=VERTEX_POINT('',#2017);
#711=VERTEX_POINT('',#2019);
#712=VERTEX_POINT('',#2024);
#713=VERTEX_POINT('',#2026);
#714=VERTEX_POINT('',#2042);
#715=VERTEX_POINT('',#2044);
#716=VERTEX_POINT('',#2048);
#717=VERTEX_POINT('',#2050);
#718=VERTEX_POINT('',#2054);
#719=VERTEX_POINT('',#2057);
#720=VERTEX_POINT('',#2059);
#721=VERTEX_POINT('',#2061);
#722=VERTEX_POINT('',#2084);
#723=VERTEX_POINT('',#2092);
#724=VERTEX_POINT('',#2095);
#725=VERTEX_POINT('',#2099);
#726=LINE('',#1713,#869);
#727=LINE('',#1716,#870);
#728=LINE('',#1718,#871);
#729=LINE('',#1720,#872);
#730=LINE('',#1722,#873);
#731=LINE('',#1724,#874);
#732=LINE('',#1726,#875);
#733=LINE('',#1729,#876);
#734=LINE('',#1731,#877);
#735=LINE('',#1733,#878);
#736=LINE('',#1735,#879);
#737=LINE('',#1739,#880);
#738=LINE('',#1741,#881);
#739=LINE('',#1743,#882);
#740=LINE('',#1750,#883);
#741=LINE('',#1752,#884);
#742=LINE('',#1754,#885);
#743=LINE('',#1755,#886);
#744=LINE('',#1760,#887);
#745=LINE('',#1764,#888);
#746=LINE('',#1766,#889);
#747=LINE('',#1768,#890);
#748=LINE('',#1770,#891);
#749=LINE('',#1774,#892);
#750=LINE('',#1776,#893);
#751=LINE('',#1780,#894);
#752=LINE('',#1782,#895);
#753=LINE('',#1784,#896);
#754=LINE('',#1786,#897);
#755=LINE('',#1788,#898);
#756=LINE('',#1790,#899);
#757=LINE('',#1792,#900);
#758=LINE('',#1794,#901);
#759=LINE('',#1796,#902);
#760=LINE('',#1798,#903);
#761=LINE('',#1800,#904);
#762=LINE('',#1802,#905);
#763=LINE('',#1805,#906);
#764=LINE('',#1807,#907);
#765=LINE('',#1811,#908);
#766=LINE('',#1813,#909);
#767=LINE('',#1815,#910);
#768=LINE('',#1816,#911);
#769=LINE('',#1818,#912);
#770=LINE('',#1824,#913);
#771=LINE('',#1838,#914);
#772=LINE('',#1839,#915);
#773=LINE('',#1841,#916);
#774=LINE('',#1843,#917);
#775=LINE('',#1845,#918);
#776=LINE('',#1847,#919);
#777=LINE('',#1849,#920);
#778=LINE('',#1854,#921);
#779=LINE('',#1855,#922);
#780=LINE('',#1863,#923);
#781=LINE('',#1866,#924);
#782=LINE('',#1868,#925);
#783=LINE('',#1874,#926);
#784=LINE('',#1875,#927);
#785=LINE('',#1877,#928);
#786=LINE('',#1881,#929);
#787=LINE('',#1883,#930);
#788=LINE('',#1885,#931);
#789=LINE('',#1887,#932);
#790=LINE('',#1888,#933);
#791=LINE('',#1892,#934);
#792=LINE('',#1894,#935);
#793=LINE('',#1896,#936);
#794=LINE('',#1898,#937);
#795=LINE('',#1899,#938);
#796=LINE('',#1901,#939);
#797=LINE('',#1903,#940);
#798=LINE('',#1905,#941);
#799=LINE('',#1909,#942);
#800=LINE('',#1911,#943);
#801=LINE('',#1913,#944);
#802=LINE('',#1915,#945);
#803=LINE('',#1917,#946);
#804=LINE('',#1919,#947);
#805=LINE('',#1920,#948);
#806=LINE('',#1921,#949);
#807=LINE('',#1923,#950);
#808=LINE('',#1925,#951);
#809=LINE('',#1926,#952);
#810=LINE('',#1928,#953);
#811=LINE('',#1930,#954);
#812=LINE('',#1934,#955);
#813=LINE('',#1939,#956);
#814=LINE('',#1940,#957);
#815=LINE('',#1944,#958);
#816=LINE('',#1946,#959);
#817=LINE('',#1948,#960);
#818=LINE('',#1950,#961);
#819=LINE('',#1952,#962);
#820=LINE('',#1954,#963);
#821=LINE('',#1956,#964);
#822=LINE('',#1961,#965);
#823=LINE('',#1963,#966);
#824=LINE('',#1965,#967);
#825=LINE('',#1967,#968);
#826=LINE('',#1969,#969);
#827=LINE('',#1971,#970);
#828=LINE('',#1982,#971);
#829=LINE('',#1985,#972);
#830=LINE('',#1987,#973);
#831=LINE('',#1989,#974);
#832=LINE('',#1991,#975);
#833=LINE('',#1993,#976);
#834=LINE('',#1995,#977);
#835=LINE('',#1998,#978);
#836=LINE('',#2000,#979);
#837=LINE('',#2002,#980);
#838=LINE('',#2004,#981);
#839=LINE('',#2005,#982);
#840=LINE('',#2009,#983);
#841=LINE('',#2016,#984);
#842=LINE('',#2018,#985);
#843=LINE('',#2020,#986);
#844=LINE('',#2022,#987);
#845=LINE('',#2023,#988);
#846=LINE('',#2025,#989);
#847=LINE('',#2027,#990);
#848=LINE('',#2028,#991);
#849=LINE('',#2029,#992);
#850=LINE('',#2043,#993);
#851=LINE('',#2045,#994);
#852=LINE('',#2047,#995);
#853=LINE('',#2049,#996);
#854=LINE('',#2051,#997);
#855=LINE('',#2053,#998);
#856=LINE('',#2055,#999);
#857=LINE('',#2056,#1000);
#858=LINE('',#2058,#1001);
#859=LINE('',#2060,#1002);
#860=LINE('',#2062,#1003);
#861=LINE('',#2076,#1004);
#862=LINE('',#2079,#1005);
#863=LINE('',#2080,#1006);
#864=LINE('',#2083,#1007);
#865=LINE('',#2085,#1008);
#866=LINE('',#2087,#1009);
#867=LINE('',#2104,#1010);
#868=LINE('',#2110,#1011);
#869=VECTOR('',#1388,1.);
#870=VECTOR('',#1389,1.);
#871=VECTOR('',#1390,1.);
#872=VECTOR('',#1391,1.);
#873=VECTOR('',#1392,1.);
#874=VECTOR('',#1393,1.);
#875=VECTOR('',#1396,1.);
#876=VECTOR('',#1397,1.);
#877=VECTOR('',#1398,1.);
#878=VECTOR('',#1399,1.);
#879=VECTOR('',#1400,1.);
#880=VECTOR('',#1405,1.);
#881=VECTOR('',#1406,1.);
#882=VECTOR('',#1407,1.);
#883=VECTOR('',#1414,1.);
#884=VECTOR('',#1415,1.);
#885=VECTOR('',#1416,1.);
#886=VECTOR('',#1417,1.);
#887=VECTOR('',#1420,1.);
#888=VECTOR('',#1423,1.);
#889=VECTOR('',#1424,1.);
#890=VECTOR('',#1425,1.);
#891=VECTOR('',#1426,1.);
#892=VECTOR('',#1431,1.);
#893=VECTOR('',#1432,1.);
#894=VECTOR('',#1435,1.);
#895=VECTOR('',#1436,1.);
#896=VECTOR('',#1437,1.);
#897=VECTOR('',#1438,1.);
#898=VECTOR('',#1439,1.);
#899=VECTOR('',#1440,1.);
#900=VECTOR('',#1441,1.);
#901=VECTOR('',#1442,1.);
#902=VECTOR('',#1443,1.);
#903=VECTOR('',#1444,1.);
#904=VECTOR('',#1445,1.);
#905=VECTOR('',#1448,1.);
#906=VECTOR('',#1449,1.);
#907=VECTOR('',#1450,1.);
#908=VECTOR('',#1453,1.);
#909=VECTOR('',#1456,1.);
#910=VECTOR('',#1457,1.);
#911=VECTOR('',#1458,1.);
#912=VECTOR('',#1459,1.);
#913=VECTOR('',#1462,1.);
#914=VECTOR('',#1471,1.);
#915=VECTOR('',#1472,1.);
#916=VECTOR('',#1473,1.);
#917=VECTOR('',#1474,1.);
#918=VECTOR('',#1475,1.);
#919=VECTOR('',#1476,1.);
#920=VECTOR('',#1477,1.);
#921=VECTOR('',#1482,1.);
#922=VECTOR('',#1483,1.);
#923=VECTOR('',#1486,1.);
#924=VECTOR('',#1489,1.);
#925=VECTOR('',#1490,1.);
#926=VECTOR('',#1497,1.);
#927=VECTOR('',#1498,1.);
#928=VECTOR('',#1499,1.);
#929=VECTOR('',#1502,1.);
#930=VECTOR('',#1503,1.);
#931=VECTOR('',#1504,1.);
#932=VECTOR('',#1505,1.);
#933=VECTOR('',#1506,1.);
#934=VECTOR('',#1511,1.);
#935=VECTOR('',#1514,1.);
#936=VECTOR('',#1517,1.);
#937=VECTOR('',#1520,1.);
#938=VECTOR('',#1521,1.);
#939=VECTOR('',#1522,1.);
#940=VECTOR('',#1523,1.);
#941=VECTOR('',#1524,1.);
#942=VECTOR('',#1529,1.);
#943=VECTOR('',#1530,1.);
#944=VECTOR('',#1533,1.);
#945=VECTOR('',#1534,1.);
#946=VECTOR('',#1535,1.);
#947=VECTOR('',#1536,1.);
#948=VECTOR('',#1537,1.);
#949=VECTOR('',#1538,1.);
#950=VECTOR('',#1539,1.);
#951=VECTOR('',#1540,1.);
#952=VECTOR('',#1541,1.);
#953=VECTOR('',#1542,1.);
#954=VECTOR('',#1543,1.);
#955=VECTOR('',#1548,1.);
#956=VECTOR('',#1551,1.);
#957=VECTOR('',#1552,1.);
#958=VECTOR('',#1557,1.);
#959=VECTOR('',#1560,1.);
#960=VECTOR('',#1561,1.);
#961=VECTOR('',#1564,1.);
#962=VECTOR('',#1567,1.);
#963=VECTOR('',#1570,1.);
#964=VECTOR('',#1573,1.);
#965=VECTOR('',#1580,1.);
#966=VECTOR('',#1583,1.);
#967=VECTOR('',#1584,1.);
#968=VECTOR('',#1585,1.);
#969=VECTOR('',#1588,1.);
#970=VECTOR('',#1591,1.);
#971=VECTOR('',#1602,1.);
#972=VECTOR('',#1607,1.);
#973=VECTOR('',#1608,1.);
#974=VECTOR('',#1609,1.);
#975=VECTOR('',#1612,1.);
#976=VECTOR('',#1613,1.);
#977=VECTOR('',#1616,1.);
#978=VECTOR('',#1617,1.);
#979=VECTOR('',#1618,1.);
#980=VECTOR('',#1619,1.);
#981=VECTOR('',#1620,1.);
#982=VECTOR('',#1621,1.);
#983=VECTOR('',#1626,1.);
#984=VECTOR('',#1627,1.);
#985=VECTOR('',#1628,1.);
#986=VECTOR('',#1629,1.);
#987=VECTOR('',#1632,1.);
#988=VECTOR('',#1633,1.);
#989=VECTOR('',#1634,1.);
#990=VECTOR('',#1635,1.);
#991=VECTOR('',#1636,1.);
#992=VECTOR('',#1637,1.);
#993=VECTOR('',#1638,1.);
#994=VECTOR('',#1639,1.);
#995=VECTOR('',#1642,1.);
#996=VECTOR('',#1643,1.);
#997=VECTOR('',#1644,1.);
#998=VECTOR('',#1647,1.);
#999=VECTOR('',#1648,1.);
#1000=VECTOR('',#1649,1.);
#1001=VECTOR('',#1650,1.);
#1002=VECTOR('',#1651,1.);
#1003=VECTOR('',#1652,1.);
#1004=VECTOR('',#1655,1.);
#1005=VECTOR('',#1660,1.);
#1006=VECTOR('',#1661,1.);
#1007=VECTOR('',#1666,1.);
#1008=VECTOR('',#1667,1.);
#1009=VECTOR('',#1670,1.);
#1010=VECTOR('',#1697,1.);
#1011=VECTOR('',#1708,1.);
#1012=EDGE_LOOP('',(#65,#66,#67,#68,#69,#70));
#1013=EDGE_LOOP('',(#71,#72,#73,#74,#75,#76));
#1014=EDGE_LOOP('',(#77,#78,#79,#80,#81,#82));
#1015=EDGE_LOOP('',(#83));
#1016=EDGE_LOOP('',(#84,#85,#86,#87));
#1017=EDGE_LOOP('',(#88,#89,#90,#91,#92,#93,#94,#95));
#1018=EDGE_LOOP('',(#96));
#1019=EDGE_LOOP('',(#97,#98,#99,#100,#101,#102,#103,#104,#105,#106,#107,
#108,#109,#110,#111));
#1020=EDGE_LOOP('',(#112,#113,#114,#115,#116));
#1021=EDGE_LOOP('',(#117,#118,#119,#120,#121,#122));
#1022=EDGE_LOOP('',(#123,#124,#125,#126,#127,#128,#129,#130));
#1023=EDGE_LOOP('',(#131,#132,#133,#134,#135,#136,#137,#138,#139,#140));
#1024=EDGE_LOOP('',(#141,#142,#143,#144,#145));
#1025=EDGE_LOOP('',(#146,#147,#148,#149,#150,#151));
#1026=EDGE_LOOP('',(#152,#153,#154,#155,#156,#157,#158,#159,#160,#161,#162,
#163,#164,#165,#166,#167));
#1027=EDGE_LOOP('',(#168));
#1028=EDGE_LOOP('',(#169,#170,#171,#172));
#1029=EDGE_LOOP('',(#173,#174,#175,#176));
#1030=EDGE_LOOP('',(#177,#178,#179,#180,#181));
#1031=EDGE_LOOP('',(#182,#183,#184,#185,#186,#187,#188));
#1032=EDGE_LOOP('',(#189));
#1033=EDGE_LOOP('',(#190,#191,#192,#193));
#1034=EDGE_LOOP('',(#194,#195,#196,#197,#198,#199,#200,#201,#202,#203,#204,
#205,#206,#207));
#1035=EDGE_LOOP('',(#208));
#1036=EDGE_LOOP('',(#209,#210,#211,#212,#213,#214));
#1037=EDGE_LOOP('',(#215,#216,#217,#218));
#1038=EDGE_LOOP('',(#219,#220,#221,#222));
#1039=EDGE_LOOP('',(#223,#224,#225,#226));
#1040=EDGE_LOOP('',(#227,#228,#229,#230,#231,#232));
#1041=EDGE_LOOP('',(#233,#234,#235,#236));
#1042=EDGE_LOOP('',(#237,#238,#239,#240,#241,#242));
#1043=EDGE_LOOP('',(#243));
#1044=EDGE_LOOP('',(#244));
#1045=EDGE_LOOP('',(#245));
#1046=EDGE_LOOP('',(#246,#247,#248,#249,#250,#251));
#1047=EDGE_LOOP('',(#252,#253,#254,#255,#256,#257));
#1048=EDGE_LOOP('',(#258,#259,#260,#261));
#1049=EDGE_LOOP('',(#262,#263,#264,#265,#266));
#1050=EDGE_LOOP('',(#267,#268,#269,#270));
#1051=EDGE_LOOP('',(#271,#272,#273,#274,#275));
#1052=EDGE_LOOP('',(#276,#277,#278,#279,#280,#281));
#1053=EDGE_LOOP('',(#282,#283,#284,#285,#286));
#1054=EDGE_LOOP('',(#287,#288,#289,#290,#291));
#1055=EDGE_LOOP('',(#292,#293,#294));
#1056=EDGE_LOOP('',(#295,#296,#297,#298,#299,#300));
#1057=EDGE_LOOP('',(#301));
#1058=EDGE_LOOP('',(#302,#303,#304,#305,#306));
#1059=EDGE_LOOP('',(#307,#308,#309,#310,#311,#312,#313,#314,#315,#316));
#1060=EDGE_LOOP('',(#317,#318,#319,#320,#321,#322));
#1061=EDGE_LOOP('',(#323,#324,#325,#326,#327,#328));
#1062=EDGE_LOOP('',(#329,#330,#331,#332,#333,#334));
#1063=EDGE_LOOP('',(#335,#336,#337,#338,#339,#340));
#1064=EDGE_LOOP('',(#341,#342,#343,#344));
#1065=EDGE_LOOP('',(#345,#346,#347,#348,#349,#350));
#1066=EDGE_LOOP('',(#351,#352,#353,#354,#355,#356,#357,#358));
#1067=EDGE_LOOP('',(#359,#360,#361,#362));
#1068=EDGE_LOOP('',(#363,#364,#365,#366,#367));
#1069=EDGE_LOOP('',(#368,#369,#370));
#1070=EDGE_LOOP('',(#371,#372,#373,#374));
#1071=EDGE_LOOP('',(#375,#376,#377,#378));
#1072=EDGE_LOOP('',(#379));
#1073=EDGE_LOOP('',(#380));
#1074=EDGE_LOOP('',(#381));
#1075=EDGE_LOOP('',(#382));
#1076=EDGE_LOOP('',(#383));
#1077=EDGE_LOOP('',(#384));
#1078=EDGE_LOOP('',(#385));
#1079=EDGE_LOOP('',(#386));
#1080=EDGE_LOOP('',(#387));
#1081=EDGE_LOOP('',(#388,#389,#390,#391));
#1082=EDGE_LOOP('',(#392,#393,#394,#395));
#1083=EDGE_LOOP('',(#396));
#1084=EDGE_LOOP('',(#397,#398,#399,#400,#401));
#1085=EDGE_LOOP('',(#402,#403,#404,#405));
#1086=EDGE_LOOP('',(#406,#407,#408,#409));
#1087=EDGE_LOOP('',(#410,#411,#412,#413));
#1088=EDGE_LOOP('',(#414));
#1089=EDGE_LOOP('',(#415,#416,#417,#418,#419,#420));
#1090=EDGE_LOOP('',(#421,#422,#423,#424));
#1091=FACE_BOUND('',#1012,.T.);
#1092=FACE_BOUND('',#1013,.T.);
#1093=FACE_BOUND('',#1014,.T.);
#1094=FACE_BOUND('',#1015,.T.);
#1095=FACE_BOUND('',#1016,.T.);
#1096=FACE_BOUND('',#1017,.T.);
#1097=FACE_BOUND('',#1018,.T.);
#1098=FACE_BOUND('',#1019,.T.);
#1099=FACE_BOUND('',#1020,.T.);
#1100=FACE_BOUND('',#1021,.T.);
#1101=FACE_BOUND('',#1022,.T.);
#1102=FACE_BOUND('',#1023,.T.);
#1103=FACE_BOUND('',#1024,.T.);
#1104=FACE_BOUND('',#1025,.T.);
#1105=FACE_BOUND('',#1026,.T.);
#1106=FACE_BOUND('',#1027,.T.);
#1107=FACE_BOUND('',#1028,.T.);
#1108=FACE_BOUND('',#1029,.T.);
#1109=FACE_BOUND('',#1030,.T.);
#1110=FACE_BOUND('',#1031,.T.);
#1111=FACE_BOUND('',#1032,.T.);
#1112=FACE_BOUND('',#1033,.T.);
#1113=FACE_BOUND('',#1034,.T.);
#1114=FACE_BOUND('',#1035,.T.);
#1115=FACE_BOUND('',#1036,.T.);
#1116=FACE_BOUND('',#1037,.T.);
#1117=FACE_BOUND('',#1038,.T.);
#1118=FACE_BOUND('',#1039,.T.);
#1119=FACE_BOUND('',#1040,.T.);
#1120=FACE_BOUND('',#1041,.T.);
#1121=FACE_BOUND('',#1042,.T.);
#1122=FACE_BOUND('',#1043,.T.);
#1123=FACE_BOUND('',#1044,.T.);
#1124=FACE_BOUND('',#1045,.T.);
#1125=FACE_BOUND('',#1046,.T.);
#1126=FACE_BOUND('',#1047,.T.);
#1127=FACE_BOUND('',#1048,.T.);
#1128=FACE_BOUND('',#1049,.T.);
#1129=FACE_BOUND('',#1050,.T.);
#1130=FACE_BOUND('',#1051,.T.);
#1131=FACE_BOUND('',#1052,.T.);
#1132=FACE_BOUND('',#1053,.T.);
#1133=FACE_BOUND('',#1054,.T.);
#1134=FACE_BOUND('',#1055,.T.);
#1135=FACE_BOUND('',#1056,.T.);
#1136=FACE_BOUND('',#1057,.T.);
#1137=FACE_BOUND('',#1058,.T.);
#1138=FACE_BOUND('',#1059,.T.);
#1139=FACE_BOUND('',#1060,.T.);
#1140=FACE_BOUND('',#1061,.T.);
#1141=FACE_BOUND('',#1062,.T.);
#1142=FACE_BOUND('',#1063,.T.);
#1143=FACE_BOUND('',#1064,.T.);
#1144=FACE_BOUND('',#1065,.T.);
#1145=FACE_BOUND('',#1066,.T.);
#1146=FACE_BOUND('',#1067,.T.);
#1147=FACE_BOUND('',#1068,.T.);
#1148=FACE_BOUND('',#1069,.T.);
#1149=FACE_BOUND('',#1070,.T.);
#1150=FACE_BOUND('',#1071,.T.);
#1151=FACE_BOUND('',#1072,.T.);
#1152=FACE_BOUND('',#1073,.T.);
#1153=FACE_BOUND('',#1074,.T.);
#1154=FACE_BOUND('',#1075,.T.);
#1155=FACE_BOUND('',#1076,.T.);
#1156=FACE_BOUND('',#1077,.T.);
#1157=FACE_BOUND('',#1078,.T.);
#1158=FACE_BOUND('',#1079,.T.);
#1159=FACE_BOUND('',#1080,.T.);
#1160=FACE_BOUND('',#1081,.T.);
#1161=FACE_BOUND('',#1082,.T.);
#1162=FACE_BOUND('',#1083,.T.);
#1163=FACE_BOUND('',#1084,.T.);
#1164=FACE_BOUND('',#1085,.T.);
#1165=FACE_BOUND('',#1086,.T.);
#1166=FACE_BOUND('',#1087,.T.);
#1167=FACE_BOUND('',#1088,.T.);
#1168=FACE_BOUND('',#1089,.T.);
#1169=FACE_BOUND('',#1090,.T.);
#1170=PLANE('',#1293);
#1171=PLANE('',#1294);
#1172=PLANE('',#1296);
#1173=PLANE('',#1303);
#1174=PLANE('',#1305);
#1175=PLANE('',#1307);
#1176=PLANE('',#1310);
#1177=PLANE('',#1315);
#1178=PLANE('',#1317);
#1179=PLANE('',#1323);
#1180=PLANE('',#1324);
#1181=PLANE('',#1325);
#1182=PLANE('',#1327);
#1183=PLANE('',#1328);
#1184=PLANE('',#1329);
#1185=PLANE('',#1333);
#1186=PLANE('',#1334);
#1187=PLANE('',#1335);
#1188=PLANE('',#1337);
#1189=PLANE('',#1338);
#1190=PLANE('',#1340);
#1191=PLANE('',#1342);
#1192=PLANE('',#1343);
#1193=PLANE('',#1344);
#1194=PLANE('',#1345);
#1195=PLANE('',#1346);
#1196=PLANE('',#1350);
#1197=PLANE('',#1351);
#1198=PLANE('',#1352);
#1199=PLANE('',#1353);
#1200=PLANE('',#1354);
#1201=PLANE('',#1356);
#1202=PLANE('',#1357);
#1203=PLANE('',#1358);
#1204=PLANE('',#1359);
#1205=PLANE('',#1360);
#1206=PLANE('',#1361);
#1207=PLANE('',#1362);
#1208=PLANE('',#1363);
#1209=PLANE('',#1364);
#1210=PLANE('',#1365);
#1211=PLANE('',#1371);
#1212=PLANE('',#1375);
#1213=PLANE('',#1377);
#1214=PLANE('',#1378);
#1215=PLANE('',#1382);
#1216=PLANE('',#1383);
#1217=ADVANCED_FACE('',(#1091),#1170,.F.);
#1218=ADVANCED_FACE('',(#1092),#1171,.F.);
#1219=ADVANCED_FACE('',(#1093,#1094,#1095,#1096,#1097),#1172,.T.);
#1220=ADVANCED_FACE('',(#1098),#1173,.F.);
#1221=ADVANCED_FACE('',(#1099),#1174,.F.);
#1222=ADVANCED_FACE('',(#1100),#1175,.T.);
#1223=ADVANCED_FACE('',(#1101),#33,.F.);
#1224=ADVANCED_FACE('',(#1102),#1176,.F.);
#1225=ADVANCED_FACE('',(#1103),#14,.F.);
#1226=ADVANCED_FACE('',(#1104),#1177,.T.);
#1227=ADVANCED_FACE('',(#1105,#1106),#1178,.T.);
#1228=ADVANCED_FACE('',(#1107),#15,.F.);
#1229=ADVANCED_FACE('',(#1108),#1179,.T.);
#1230=ADVANCED_FACE('',(#1109),#1180,.F.);
#1231=ADVANCED_FACE('',(#1110,#1111),#1181,.T.);
#1232=ADVANCED_FACE('',(#1112),#1182,.F.);
#1233=ADVANCED_FACE('',(#1113),#1183,.T.);
#1234=ADVANCED_FACE('',(#1114,#1115),#1184,.F.);
#1235=ADVANCED_FACE('',(#1116),#1185,.T.);
#1236=ADVANCED_FACE('',(#1117),#1186,.F.);
#1237=ADVANCED_FACE('',(#1118),#1187,.F.);
#1238=ADVANCED_FACE('',(#1119),#16,.T.);
#1239=ADVANCED_FACE('',(#1120),#1188,.T.);
#1240=ADVANCED_FACE('',(#1121),#1189,.F.);
#1241=ADVANCED_FACE('',(#1122,#1123),#17,.F.);
#1242=ADVANCED_FACE('',(#1124,#1125),#1190,.F.);
#1243=ADVANCED_FACE('',(#1126),#1191,.T.);
#1244=ADVANCED_FACE('',(#1127),#1192,.F.);
#1245=ADVANCED_FACE('',(#1128),#1193,.F.);
#1246=ADVANCED_FACE('',(#1129),#1194,.F.);
#1247=ADVANCED_FACE('',(#1130),#1195,.T.);
#1248=ADVANCED_FACE('',(#1131),#34,.F.);
#1249=ADVANCED_FACE('',(#1132),#1196,.F.);
#1250=ADVANCED_FACE('',(#1133),#1197,.F.);
#1251=ADVANCED_FACE('',(#1134),#1198,.F.);
#1252=ADVANCED_FACE('',(#1135),#1199,.F.);
#1253=ADVANCED_FACE('',(#1136,#1137),#1200,.F.);
#1254=ADVANCED_FACE('',(#1138),#1201,.F.);
#1255=ADVANCED_FACE('',(#1139),#12,.T.);
#1256=ADVANCED_FACE('',(#1140),#1202,.F.);
#1257=ADVANCED_FACE('',(#1141),#1203,.T.);
#1258=ADVANCED_FACE('',(#1142),#13,.F.);
#1259=ADVANCED_FACE('',(#1143),#1204,.F.);
#1260=ADVANCED_FACE('',(#1144),#1205,.T.);
#1261=ADVANCED_FACE('',(#1145),#1206,.F.);
#1262=ADVANCED_FACE('',(#1146),#1207,.T.);
#1263=ADVANCED_FACE('',(#1147),#1208,.F.);
#1264=ADVANCED_FACE('',(#1148),#1209,.F.);
#1265=ADVANCED_FACE('',(#1149),#1210,.T.);
#1266=ADVANCED_FACE('',(#1150),#18,.T.);
#1267=ADVANCED_FACE('',(#1151,#1152),#19,.F.);
#1268=ADVANCED_FACE('',(#1153,#1154),#20,.F.);
#1269=ADVANCED_FACE('',(#1155),#1211,.T.);
#1270=ADVANCED_FACE('',(#1156,#1157),#21,.F.);
#1271=ADVANCED_FACE('',(#1158,#1159),#22,.F.);
#1272=ADVANCED_FACE('',(#1160),#1212,.F.);
#1273=ADVANCED_FACE('',(#1161),#1213,.T.);
#1274=ADVANCED_FACE('',(#1162),#1214,.T.);
#1275=ADVANCED_FACE('',(#1163),#23,.F.);
#1276=ADVANCED_FACE('',(#1164),#24,.F.);
#1277=ADVANCED_FACE('',(#1165),#25,.F.);
#1278=ADVANCED_FACE('',(#1166),#1215,.F.);
#1279=ADVANCED_FACE('',(#1167,#1168,#1169),#1216,.F.);
#1280=CLOSED_SHELL('',(#1217,#1218,#1219,#1220,#1221,#1222,#1223,#1224,
#1225,#1226,#1227,#1228,#1229,#1230,#1231,#1232,#1233,#1234,#1235,#1236,
#1237,#1238,#1239,#1240,#1241,#1242,#1243,#1244,#1245,#1246,#1247,#1248,
#1249,#1250,#1251,#1252,#1253,#1254,#1255,#1256,#1257,#1258,#1259,#1260,
#1261,#1262,#1263,#1264,#1265,#1266,#1267,#1268,#1269,#1270,#1271,#1272,
#1273,#1274,#1275,#1276,#1277,#1278,#1279));
#1281=STYLED_ITEM('',(#1282),#1289);
#1282=PRESENTATION_STYLE_ASSIGNMENT((#1283));
#1283=SURFACE_STYLE_USAGE(.BOTH.,#1284);
#1284=SURFACE_SIDE_STYLE('',(#1285));
#1285=SURFACE_STYLE_FILL_AREA(#1286);
#1286=FILL_AREA_STYLE('',(#1287));
#1287=FILL_AREA_STYLE_COLOUR('',#1288);
#1288=COLOUR_RGB('',0.8,0.776470588235294,0.713725490196078);
#1289=MANIFOLD_SOLID_BREP('Coin Sorting and Output Housing',#1280);
#1290=SHAPE_DEFINITION_REPRESENTATION(#2118,#1291);
#1291=SHAPE_REPRESENTATION('Coin Sorting and Output Housing',(#1292),#2113);
#1292=AXIS2_PLACEMENT_3D('',#1711,#1384,#1385);
#1293=AXIS2_PLACEMENT_3D('',#1712,#1386,#1387);
#1294=AXIS2_PLACEMENT_3D('',#1725,#1394,#1395);
#1295=AXIS2_PLACEMENT_3D('',#1737,#1401,#1402);
#1296=AXIS2_PLACEMENT_3D('',#1738,#1403,#1404);
#1297=AXIS2_PLACEMENT_3D('',#1745,#1408,#1409);
#1298=AXIS2_PLACEMENT_3D('',#1747,#1410,#1411);
#1299=AXIS2_PLACEMENT_3D('',#1748,#1412,#1413);
#1300=AXIS2_PLACEMENT_3D('',#1758,#1418,#1419);
#1301=AXIS2_PLACEMENT_3D('',#1762,#1421,#1422);
#1302=AXIS2_PLACEMENT_3D('',#1771,#1427,#1428);
#1303=AXIS2_PLACEMENT_3D('',#1773,#1429,#1430);
#1304=AXIS2_PLACEMENT_3D('',#1778,#1433,#1434);
#1305=AXIS2_PLACEMENT_3D('',#1801,#1446,#1447);
#1306=AXIS2_PLACEMENT_3D('',#1809,#1451,#1452);
#1307=AXIS2_PLACEMENT_3D('',#1812,#1454,#1455);
#1308=AXIS2_PLACEMENT_3D('',#1819,#1460,#1461);
#1309=AXIS2_PLACEMENT_3D('',#1831,#1463,#1464);
#1310=AXIS2_PLACEMENT_3D('',#1832,#1465,#1466);
#1311=AXIS2_PLACEMENT_3D('',#1833,#1467,#1468);
#1312=AXIS2_PLACEMENT_3D('',#1836,#1469,#1470);
#1313=AXIS2_PLACEMENT_3D('',#1850,#1478,#1479);
#1314=AXIS2_PLACEMENT_3D('',#1851,#1480,#1481);
#1315=AXIS2_PLACEMENT_3D('',#1862,#1484,#1485);
#1316=AXIS2_PLACEMENT_3D('',#1865,#1487,#1488);
#1317=AXIS2_PLACEMENT_3D('',#1869,#1491,#1492);
#1318=AXIS2_PLACEMENT_3D('',#1870,#1493,#1494);
#1319=AXIS2_PLACEMENT_3D('',#1872,#1495,#1496);
#1320=AXIS2_PLACEMENT_3D('',#1879,#1500,#1501);
#1321=AXIS2_PLACEMENT_3D('',#1889,#1507,#1508);
#1322=AXIS2_PLACEMENT_3D('',#1891,#1509,#1510);
#1323=AXIS2_PLACEMENT_3D('',#1893,#1512,#1513);
#1324=AXIS2_PLACEMENT_3D('',#1895,#1515,#1516);
#1325=AXIS2_PLACEMENT_3D('',#1897,#1518,#1519);
#1326=AXIS2_PLACEMENT_3D('',#1906,#1525,#1526);
#1327=AXIS2_PLACEMENT_3D('',#1908,#1527,#1528);
#1328=AXIS2_PLACEMENT_3D('',#1912,#1531,#1532);
#1329=AXIS2_PLACEMENT_3D('',#1931,#1544,#1545);
#1330=AXIS2_PLACEMENT_3D('',#1932,#1546,#1547);
#1331=AXIS2_PLACEMENT_3D('',#1937,#1549,#1550);
#1332=AXIS2_PLACEMENT_3D('',#1942,#1553,#1554);
#1333=AXIS2_PLACEMENT_3D('',#1943,#1555,#1556);
#1334=AXIS2_PLACEMENT_3D('',#1945,#1558,#1559);
#1335=AXIS2_PLACEMENT_3D('',#1949,#1562,#1563);
#1336=AXIS2_PLACEMENT_3D('',#1951,#1565,#1566);
#1337=AXIS2_PLACEMENT_3D('',#1953,#1568,#1569);
#1338=AXIS2_PLACEMENT_3D('',#1955,#1571,#1572);
#1339=AXIS2_PLACEMENT_3D('',#1957,#1574,#1575);
#1340=AXIS2_PLACEMENT_3D('',#1958,#1576,#1577);
#1341=AXIS2_PLACEMENT_3D('',#1959,#1578,#1579);
#1342=AXIS2_PLACEMENT_3D('',#1962,#1581,#1582);
#1343=AXIS2_PLACEMENT_3D('',#1968,#1586,#1587);
#1344=AXIS2_PLACEMENT_3D('',#1970,#1589,#1590);
#1345=AXIS2_PLACEMENT_3D('',#1972,#1592,#1593);
#1346=AXIS2_PLACEMENT_3D('',#1973,#1594,#1595);
#1347=AXIS2_PLACEMENT_3D('',#1974,#1596,#1597);
#1348=AXIS2_PLACEMENT_3D('',#1975,#1598,#1599);
#1349=AXIS2_PLACEMENT_3D('',#1976,#1600,#1601);
#1350=AXIS2_PLACEMENT_3D('',#1983,#1603,#1604);
#1351=AXIS2_PLACEMENT_3D('',#1984,#1605,#1606);
#1352=AXIS2_PLACEMENT_3D('',#1990,#1610,#1611);
#1353=AXIS2_PLACEMENT_3D('',#1994,#1614,#1615);
#1354=AXIS2_PLACEMENT_3D('',#2006,#1622,#1623);
#1355=AXIS2_PLACEMENT_3D('',#2007,#1624,#1625);
#1356=AXIS2_PLACEMENT_3D('',#2021,#1630,#1631);
#1357=AXIS2_PLACEMENT_3D('',#2046,#1640,#1641);
#1358=AXIS2_PLACEMENT_3D('',#2052,#1645,#1646);
#1359=AXIS2_PLACEMENT_3D('',#2075,#1653,#1654);
#1360=AXIS2_PLACEMENT_3D('',#2077,#1656,#1657);
#1361=AXIS2_PLACEMENT_3D('',#2078,#1658,#1659);
#1362=AXIS2_PLACEMENT_3D('',#2081,#1662,#1663);
#1363=AXIS2_PLACEMENT_3D('',#2082,#1664,#1665);
#1364=AXIS2_PLACEMENT_3D('',#2086,#1668,#1669);
#1365=AXIS2_PLACEMENT_3D('',#2088,#1671,#1672);
#1366=AXIS2_PLACEMENT_3D('',#2089,#1673,#1674);
#1367=AXIS2_PLACEMENT_3D('',#2090,#1675,#1676);
#1368=AXIS2_PLACEMENT_3D('',#2091,#1677,#1678);
#1369=AXIS2_PLACEMENT_3D('',#2093,#1679,#1680);
#1370=AXIS2_PLACEMENT_3D('',#2094,#1681,#1682);
#1371=AXIS2_PLACEMENT_3D('',#2096,#1683,#1684);
#1372=AXIS2_PLACEMENT_3D('',#2097,#1685,#1686);
#1373=AXIS2_PLACEMENT_3D('',#2098,#1687,#1688);
#1374=AXIS2_PLACEMENT_3D('',#2100,#1689,#1690);
#1375=AXIS2_PLACEMENT_3D('',#2101,#1691,#1692);
#1376=AXIS2_PLACEMENT_3D('',#2102,#1693,#1694);
#1377=AXIS2_PLACEMENT_3D('',#2103,#1695,#1696);
#1378=AXIS2_PLACEMENT_3D('',#2105,#1698,#1699);
#1379=AXIS2_PLACEMENT_3D('',#2106,#1700,#1701);
#1380=AXIS2_PLACEMENT_3D('',#2107,#1702,#1703);
#1381=AXIS2_PLACEMENT_3D('',#2108,#1704,#1705);
#1382=AXIS2_PLACEMENT_3D('',#2109,#1706,#1707);
#1383=AXIS2_PLACEMENT_3D('',#2111,#1709,#1710);
#1384=DIRECTION('',(0.,0.,1.));
#1385=DIRECTION('',(1.,0.,0.));
#1386=DIRECTION('',(0.,0.707106781186548,-0.707106781186548));
#1387=DIRECTION('',(1.,0.,0.));
#1388=DIRECTION('',(-1.2266347333467E-16,0.707106781186548,0.707106781186548));
#1389=DIRECTION('',(0.577350269189626,0.577350269189626,0.577350269189626));
#1390=DIRECTION('',(1.,0.,0.));
#1391=DIRECTION('',(-0.577350269189626,0.577350269189626,0.577350269189626));
#1392=DIRECTION('',(-1.2266347333467E-16,-0.707106781186548,-0.707106781186548));
#1393=DIRECTION('',(1.,0.,0.));
#1394=DIRECTION('',(-0.999847613256218,0.0174570978642962,0.));
#1395=DIRECTION('',(-0.0174570978642962,-0.999847613256218,0.));
#1396=DIRECTION('',(-0.0174544384445174,-0.99969529615637,0.0174544384445173));
#1397=DIRECTION('',(0.,0.,1.));
#1398=DIRECTION('',(0.0174570978642962,0.999847613256218,0.));
#1399=DIRECTION('',(0.,0.,-1.));
#1400=DIRECTION('',(-0.0174570978642962,-0.999847613256218,0.));
#1401=DIRECTION('',(-0.999847613256218,0.0174570978642962,0.));
#1402=DIRECTION('',(0.0174570978642962,0.999847613256218,0.));
#1403=DIRECTION('',(0.,0.,-1.));
#1404=DIRECTION('',(1.,0.,0.));
#1405=DIRECTION('',(1.,0.,0.));
#1406=DIRECTION('',(0.,-1.,0.));
#1407=DIRECTION('',(1.,0.,0.));
#1408=DIRECTION('',(0.,0.,-1.));
#1409=DIRECTION('',(-1.,0.,0.));
#1410=DIRECTION('',(0.,0.,-1.));
#1411=DIRECTION('',(-1.,0.,0.));
#1412=DIRECTION('',(0.,0.,-1.));
#1413=DIRECTION('',(-1.,0.,0.));
#1414=DIRECTION('',(-1.7347234759768E-16,-1.,0.));
#1415=DIRECTION('',(1.,0.,0.));
#1416=DIRECTION('',(-1.7347234759768E-16,1.,0.));
#1417=DIRECTION('',(-1.,0.,0.));
#1418=DIRECTION('',(0.,0.,-1.));
#1419=DIRECTION('',(-1.,0.,0.));
#1420=DIRECTION('',(0.,1.,0.));
#1421=DIRECTION('',(0.,0.,1.));
#1422=DIRECTION('',(1.,0.,0.));
#1423=DIRECTION('',(-1.,0.,0.));
#1424=DIRECTION('',(0.,1.,0.));
#1425=DIRECTION('',(-1.,0.,0.));
#1426=DIRECTION('',(0.,-1.,0.));
#1427=DIRECTION('',(0.,0.,-1.));
#1428=DIRECTION('',(-1.,0.,0.));
#1429=DIRECTION('',(1.,0.,0.));
#1430=DIRECTION('',(0.,1.,0.));
#1431=DIRECTION('',(0.,0.,1.));
#1432=DIRECTION('',(0.,1.,0.));
#1433=DIRECTION('',(-1.,0.,0.));
#1434=DIRECTION('',(0.,0.,1.));
#1435=DIRECTION('',(-2.73903706733181E-16,-2.7390370673318E-16,1.));
#1436=DIRECTION('',(0.,1.,0.));
#1437=DIRECTION('',(0.,0.,1.));
#1438=DIRECTION('',(0.,-1.,0.));
#1439=DIRECTION('',(0.,0.,-1.));
#1440=DIRECTION('',(0.,1.,0.));
#1441=DIRECTION('',(0.,0.,1.));
#1442=DIRECTION('',(0.,-1.,0.));
#1443=DIRECTION('',(0.,0.,-1.));
#1444=DIRECTION('',(0.,-1.,0.));
#1445=DIRECTION('',(0.,0.,1.));
#1446=DIRECTION('',(-1.,0.,0.));
#1447=DIRECTION('',(0.,-1.,0.));
#1448=DIRECTION('',(0.,0.,-1.));
#1449=DIRECTION('',(0.,-1.,0.));
#1450=DIRECTION('',(0.,0.,-1.));
#1451=DIRECTION('',(-1.,0.,0.));
#1452=DIRECTION('',(0.,0.,1.));
#1453=DIRECTION('',(0.,1.,0.));
#1454=DIRECTION('',(0.707106781186548,-1.2266347333467E-16,0.707106781186547));
#1455=DIRECTION('',(-1.7347234759768E-16,-1.,0.));
#1456=DIRECTION('',(1.7347234759768E-16,1.,0.));
#1457=DIRECTION('',(0.707106781186547,0.,-0.707106781186548));
#1458=DIRECTION('',(0.707106781186547,0.,-0.707106781186548));
#1459=DIRECTION('',(-0.707106781186547,0.,0.707106781186548));
#1460=DIRECTION('',(1.,0.,0.));
#1461=DIRECTION('',(0.,0.,1.));
#1462=DIRECTION('',(0.707106781186548,-0.707106781186547,0.));
#1463=DIRECTION('',(1.,-1.7347234759768E-16,0.));
#1464=DIRECTION('',(1.7347234759768E-16,1.,0.));
#1465=DIRECTION('',(0.,0.,-1.));
#1466=DIRECTION('',(1.,0.,0.));
#1467=DIRECTION('',(0.,0.,-1.));
#1468=DIRECTION('',(-1.,0.,0.));
#1469=DIRECTION('',(0.,0.,-1.));
#1470=DIRECTION('',(-1.,0.,0.));
#1471=DIRECTION('',(1.,0.,0.));
#1472=DIRECTION('',(-1.,0.,0.));
#1473=DIRECTION('',(0.,-1.,0.));
#1474=DIRECTION('',(-1.,0.,0.));
#1475=DIRECTION('',(0.,1.,0.));
#1476=DIRECTION('',(1.,0.,0.));
#1477=DIRECTION('',(-0.0174570978642962,-0.999847613256218,0.));
#1478=DIRECTION('',(0.,0.,-1.));
#1479=DIRECTION('',(-1.,0.,0.));
#1480=DIRECTION('',(0.,0.,-1.));
#1481=DIRECTION('',(-1.,0.,0.));
#1482=DIRECTION('',(0.,0.,-1.));
#1483=DIRECTION('',(0.,0.,-1.));
#1484=DIRECTION('',(0.,0.,-1.));
#1485=DIRECTION('',(-1.,0.,0.));
#1486=DIRECTION('',(1.,0.,0.));
#1487=DIRECTION('',(0.,0.,-1.));
#1488=DIRECTION('',(-1.,0.,0.));
#1489=DIRECTION('',(0.,-1.,0.));
#1490=DIRECTION('',(-1.,0.,0.));
#1491=DIRECTION('',(0.,0.,1.));
#1492=DIRECTION('',(1.,0.,0.));
#1493=DIRECTION('',(0.,0.,-1.));
#1494=DIRECTION('',(-1.,0.,0.));
#1495=DIRECTION('',(0.,0.,1.));
#1496=DIRECTION('',(1.,0.,0.));
#1497=DIRECTION('',(1.,0.,0.));
#1498=DIRECTION('',(-1.,0.,0.));
#1499=DIRECTION('',(-1.,0.,0.));
#1500=DIRECTION('',(0.,0.,1.));
#1501=DIRECTION('',(1.,0.,0.));
#1502=DIRECTION('',(-1.,0.,0.));
#1503=DIRECTION('',(0.,1.,0.));
#1504=DIRECTION('',(1.,0.,0.));
#1505=DIRECTION('',(0.707106781186547,-0.707106781186548,0.));
#1506=DIRECTION('',(-1.,0.,0.));
#1507=DIRECTION('',(0.,0.,-1.));
#1508=DIRECTION('',(-1.,0.,0.));
#1509=DIRECTION('',(0.,0.,-1.));
#1510=DIRECTION('',(-1.,0.,0.));
#1511=DIRECTION('',(0.,0.,-1.));
#1512=DIRECTION('',(0.,-1.,0.));
#1513=DIRECTION('',(0.,0.,-1.));
#1514=DIRECTION('',(0.,0.,-1.));
#1515=DIRECTION('',(-1.,1.7347234759768E-16,0.));
#1516=DIRECTION('',(1.7347234759768E-16,1.,0.));
#1517=DIRECTION('',(0.,0.,1.));
#1518=DIRECTION('',(-1.,0.,0.));
#1519=DIRECTION('',(0.,-1.,0.));
#1520=DIRECTION('',(0.,0.,1.));
#1521=DIRECTION('',(0.,2.7390370673318E-16,-1.));
#1522=DIRECTION('',(0.,1.,2.7390370673318E-16));
#1523=DIRECTION('',(0.,0.516063559959312,0.856550291624562));
#1524=DIRECTION('',(0.,-2.7390370673318E-16,1.));
#1525=DIRECTION('',(-1.,0.,0.));
#1526=DIRECTION('',(0.,0.,1.));
#1527=DIRECTION('',(0.,-1.,0.));
#1528=DIRECTION('',(0.,0.,-1.));
#1529=DIRECTION('',(-1.,0.,0.));
#1530=DIRECTION('',(0.,0.,1.));
#1531=DIRECTION('',(1.,0.,0.));
#1532=DIRECTION('',(0.,1.,0.));
#1533=DIRECTION('',(0.,2.7390370673318E-16,-1.));
#1534=DIRECTION('',(0.,0.516063559959312,0.856550291624562));
#1535=DIRECTION('',(0.,1.,2.7390370673318E-16));
#1536=DIRECTION('',(0.,2.7390370673318E-16,-1.));
#1537=DIRECTION('',(0.,0.,1.));
#1538=DIRECTION('',(0.,0.,-1.));
#1539=DIRECTION('',(0.,-1.,0.));
#1540=DIRECTION('',(0.,0.,-1.));
#1541=DIRECTION('',(0.,0.,1.));
#1542=DIRECTION('',(-2.39542694091831E-16,-1.,0.));
#1543=DIRECTION('',(0.,0.,1.));
#1544=DIRECTION('',(0.,0.,-1.));
#1545=DIRECTION('',(1.,0.,0.));
#1546=DIRECTION('',(0.,0.,1.));
#1547=DIRECTION('',(1.,0.,0.));
#1548=DIRECTION('',(0.,1.,0.));
#1549=DIRECTION('',(0.,0.,-1.));
#1550=DIRECTION('',(-1.,0.,0.));
#1551=DIRECTION('',(-1.,0.,0.));
#1552=DIRECTION('',(-1.,0.,0.));
#1553=DIRECTION('',(0.,0.,-1.));
#1554=DIRECTION('',(-1.,0.,0.));
#1555=DIRECTION('',(0.,1.,0.));
#1556=DIRECTION('',(0.,0.,1.));
#1557=DIRECTION('',(0.,0.,1.));
#1558=DIRECTION('',(0.,1.,0.));
#1559=DIRECTION('',(0.,0.,1.));
#1560=DIRECTION('',(-1.,0.,0.));
#1561=DIRECTION('',(0.,0.,-1.));
#1562=DIRECTION('',(0.,1.,0.));
#1563=DIRECTION('',(0.,0.,1.));
#1564=DIRECTION('',(0.,0.,1.));
#1565=DIRECTION('',(0.,0.,1.));
#1566=DIRECTION('',(1.,0.,0.));
#1567=DIRECTION('',(0.,0.,1.));
#1568=DIRECTION('',(1.,0.,0.));
#1569=DIRECTION('',(0.,0.,-1.));
#1570=DIRECTION('',(0.,0.,1.));
#1571=DIRECTION('',(0.,-1.,0.));
#1572=DIRECTION('',(0.,0.,-1.));
#1573=DIRECTION('',(-0.707106781186547,0.,-0.707106781186548));
#1574=DIRECTION('',(0.,0.,-1.));
#1575=DIRECTION('',(-1.,0.,0.));
#1576=DIRECTION('',(0.,-1.,0.));
#1577=DIRECTION('',(0.,0.,-1.));
#1578=DIRECTION('',(0.,1.,0.));
#1579=DIRECTION('',(0.,0.,1.));
#1580=DIRECTION('',(0.,0.,1.));
#1581=DIRECTION('',(-0.707106781186548,-1.2266347333467E-16,0.707106781186547));
#1582=DIRECTION('',(1.7347234759768E-16,-1.,0.));
#1583=DIRECTION('',(-1.7347234759768E-16,1.,0.));
#1584=DIRECTION('',(0.707106781186547,0.,0.707106781186548));
#1585=DIRECTION('',(-0.707106781186547,0.,-0.707106781186548));
#1586=DIRECTION('',(0.,-1.,0.));
#1587=DIRECTION('',(0.,0.,-1.));
#1588=DIRECTION('',(-1.,0.,0.));
#1589=DIRECTION('',(0.,0.,1.));
#1590=DIRECTION('',(1.,0.,0.));
#1591=DIRECTION('',(-0.707106781186547,0.707106781186548,0.));
#1592=DIRECTION('',(0.707106781186548,0.707106781186547,0.));
#1593=DIRECTION('',(0.,0.,-1.));
#1594=DIRECTION('',(0.,-1.,0.));
#1595=DIRECTION('',(0.,0.,-1.));
#1596=DIRECTION('',(0.,-1.,0.));
#1597=DIRECTION('',(0.,0.,-1.));
#1598=DIRECTION('',(-1.,0.,0.));
#1599=DIRECTION('',(0.,0.,1.));
#1600=DIRECTION('',(1.,1.7347234759768E-16,0.));
#1601=DIRECTION('',(-1.7347234759768E-16,1.,0.));
#1602=DIRECTION('',(-0.707106781186548,-0.707106781186547,0.));
#1603=DIRECTION('',(1.,1.7347234759768E-16,0.));
#1604=DIRECTION('',(-1.7347234759768E-16,1.,0.));
#1605=DIRECTION('',(0.,-1.,-2.7390370673318E-16));
#1606=DIRECTION('',(1.,0.,0.));
#1607=DIRECTION('',(0.,0.,-1.));
#1608=DIRECTION('',(0.,2.7390370673318E-16,-1.));
#1609=DIRECTION('',(1.,0.,0.));
#1610=DIRECTION('',(1.,0.,0.));
#1611=DIRECTION('',(0.,1.,0.));
#1612=DIRECTION('',(0.,0.516063559959312,0.856550291624562));
#1613=DIRECTION('',(0.,-1.,0.));
#1614=DIRECTION('',(-1.,0.,0.));
#1615=DIRECTION('',(0.,0.,1.));
#1616=DIRECTION('',(0.,0.342020143325668,0.939692620785909));
#1617=DIRECTION('',(0.,1.,2.7390370673318E-16));
#1618=DIRECTION('',(0.,-2.7390370673318E-16,1.));
#1619=DIRECTION('',(0.,1.,2.7390370673318E-16));
#1620=DIRECTION('',(0.,1.,0.));
#1621=DIRECTION('',(0.,0.,1.));
#1622=DIRECTION('',(0.,-1.,0.));
#1623=DIRECTION('',(0.,0.,-1.));
#1624=DIRECTION('',(0.,1.,0.));
#1625=DIRECTION('',(0.,0.,1.));
#1626=DIRECTION('',(0.,0.,-1.));
#1627=DIRECTION('',(-1.,0.,0.));
#1628=DIRECTION('',(0.,0.,-1.));
#1629=DIRECTION('',(1.,0.,0.));
#1630=DIRECTION('',(0.,0.,-1.));
#1631=DIRECTION('',(-1.,0.,0.));
#1632=DIRECTION('',(-0.707106781186548,-0.707106781186547,0.));
#1633=DIRECTION('',(0.707106781186548,-0.707106781186547,0.));
#1634=DIRECTION('',(0.,-1.,0.));
#1635=DIRECTION('',(1.,0.,0.));
#1636=DIRECTION('',(-1.,0.,0.));
#1637=DIRECTION('',(-1.,0.,0.));
#1638=DIRECTION('',(0.,1.,2.7390370673318E-16));
#1639=DIRECTION('',(0.,1.,0.));
#1640=DIRECTION('',(0.,0.,-1.));
#1641=DIRECTION('',(-1.,0.,0.));
#1642=DIRECTION('',(0.,1.,0.));
#1643=DIRECTION('',(-1.,0.,0.));
#1644=DIRECTION('',(0.,1.,2.7390370673318E-16));
#1645=DIRECTION('',(-1.,0.,0.));
#1646=DIRECTION('',(0.,0.,1.));
#1647=DIRECTION('',(0.,-0.342020143325668,-0.939692620785909));
#1648=DIRECTION('',(0.,0.,1.));
#1649=DIRECTION('',(0.,1.,0.));
#1650=DIRECTION('',(0.,1.,2.7390370673318E-16));
#1651=DIRECTION('',(0.,-2.7390370673318E-16,1.));
#1652=DIRECTION('',(0.,1.,2.7390370673318E-16));
#1653=DIRECTION('',(0.,-0.939692620785909,0.342020143325668));
#1654=DIRECTION('',(0.,-0.342020143325668,-0.939692620785909));
#1655=DIRECTION('',(1.,0.,0.));
#1656=DIRECTION('',(-0.707106781186547,0.707106781186548,0.));
#1657=DIRECTION('',(-0.707106781186548,-0.707106781186547,0.));
#1658=DIRECTION('',(-0.707106781186547,-0.707106781186548,0.));
#1659=DIRECTION('',(0.707106781186548,-0.707106781186547,0.));
#1660=DIRECTION('',(0.,0.,-1.));
#1661=DIRECTION('',(0.,0.,-1.));
#1662=DIRECTION('',(0.,-0.856550291624562,0.516063559959312));
#1663=DIRECTION('',(0.,-0.516063559959312,-0.856550291624562));
#1664=DIRECTION('',(0.,-1.,-2.7390370673318E-16));
#1665=DIRECTION('',(1.,0.,0.));
#1666=DIRECTION('',(-1.,0.,0.));
#1667=DIRECTION('',(0.,2.7390370673318E-16,-1.));
#1668=DIRECTION('',(-1.,0.,0.));
#1669=DIRECTION('',(0.,1.,0.));
#1670=DIRECTION('',(0.,0.516063559959312,0.856550291624562));
#1671=DIRECTION('',(0.,-0.856550291624562,0.516063559959312));
#1672=DIRECTION('',(0.,-0.516063559959312,-0.856550291624562));
#1673=DIRECTION('',(0.,0.,-1.));
#1674=DIRECTION('',(-1.,0.,0.));
#1675=DIRECTION('',(0.,1.,0.));
#1676=DIRECTION('',(0.,0.,1.));
#1677=DIRECTION('',(0.,1.,0.));
#1678=DIRECTION('',(0.,0.,1.));
#1679=DIRECTION('',(-1.,0.,0.));
#1680=DIRECTION('',(0.,0.,1.));
#1681=DIRECTION('',(-1.,0.,0.));
#1682=DIRECTION('',(0.,0.,1.));
#1683=DIRECTION('',(-1.,0.,0.));
#1684=DIRECTION('',(0.,-1.,0.));
#1685=DIRECTION('',(0.,1.,0.));
#1686=DIRECTION('',(0.,0.,1.));
#1687=DIRECTION('',(0.,1.,2.7390370673318E-16));
#1688=DIRECTION('',(0.,-2.7390370673318E-16,1.));
#1689=DIRECTION('',(0.,0.,1.));
#1690=DIRECTION('',(1.,0.,0.));
#1691=DIRECTION('',(-0.999847613256218,0.0174570978642962,0.));
#1692=DIRECTION('',(-0.0174570978642962,-0.999847613256219,0.));
#1693=DIRECTION('',(-0.999847613256218,0.0174570978642962,0.));
#1694=DIRECTION('',(-0.0174570978642962,-0.999847613256219,0.));
#1695=DIRECTION('',(0.,-1.,0.));
#1696=DIRECTION('',(0.,0.,-1.));
#1697=DIRECTION('',(0.,0.,-1.));
#1698=DIRECTION('',(0.,1.,0.));
#1699=DIRECTION('',(0.,0.,1.));
#1700=DIRECTION('',(0.,-1.,0.));
#1701=DIRECTION('',(0.,0.,-1.));
#1702=DIRECTION('',(0.,0.,-1.));
#1703=DIRECTION('',(-1.,0.,0.));
#1704=DIRECTION('',(0.,0.,-1.));
#1705=DIRECTION('',(-1.,0.,0.));
#1706=DIRECTION('',(0.,-2.7390370673318E-16,1.));
#1707=DIRECTION('',(0.,-1.,-2.7390370673318E-16));
#1708=DIRECTION('',(1.,0.,0.));
#1709=DIRECTION('',(0.,1.,2.7390370673318E-16));
#1710=DIRECTION('',(0.,-2.7390370673318E-16,1.));
#1711=CARTESIAN_POINT('',(0.,0.,0.));
#1712=CARTESIAN_POINT('',(0.01,0.0316000231355429,0.0347636422514915));
#1713=CARTESIAN_POINT('',(0.003,0.0130000231355429,0.0161636422514915));
#1714=CARTESIAN_POINT('',(0.003,0.0306000231355428,0.0337636422514915));
#1715=CARTESIAN_POINT('',(0.003,0.0246000231355428,0.0277636422514916));
#1716=CARTESIAN_POINT('',(0.006,0.0336000231355429,0.0367636422514915));
#1717=CARTESIAN_POINT('',(0.004,0.0316000231355429,0.0347636422514915));
#1718=CARTESIAN_POINT('',(-0.00125,0.0316000231355429,0.0347636422514915));
#1719=CARTESIAN_POINT('',(-0.003,0.0316000231355429,0.0347636422514915));
#1720=CARTESIAN_POINT('',(0.00133333333333333,0.0272666898022095,0.0304303089181582));
#1721=CARTESIAN_POINT('',(-0.002,0.0306000186146498,0.0337636422514915));
#1722=CARTESIAN_POINT('',(-0.002,0.0130000231355429,0.0161636422514915));
#1723=CARTESIAN_POINT('',(-0.002,0.0246000231355428,0.0277636422514916));
#1724=CARTESIAN_POINT('',(0.01,0.0246000231355428,0.0277636422514916));
#1725=CARTESIAN_POINT('',(-0.0035,0.0262373035423033,0.0337636422514915));
#1726=CARTESIAN_POINT('',(-0.00375449369017385,0.0116612892077834,0.0355181359416654));
#1727=CARTESIAN_POINT('',(-0.00340636821099859,0.0316000231355429,0.0351700104624902));
#1728=CARTESIAN_POINT('',(-0.00375556338099942,0.0116000231355429,0.0355192056324909));
#1729=CARTESIAN_POINT('',(-0.00340636821099859,0.0316000231355429,0.00976364225149155));
#1730=CARTESIAN_POINT('',(-0.00340636821099859,0.0316000231355429,0.0277636422514916));
#1731=CARTESIAN_POINT('',(-0.00280491182643924,0.0660481734096678,0.0277636422514916));
#1732=CARTESIAN_POINT('',(-0.003,0.0548745839490636,0.0277636422514916));
#1733=CARTESIAN_POINT('',(-0.003,0.0548745839490636,0.0687636422514916));
#1734=CARTESIAN_POINT('',(-0.003,0.0548745839490636,0.0447636377305984));
#1735=CARTESIAN_POINT('',(-0.0035,0.0262373035423033,0.0447636422514915));
#1736=CARTESIAN_POINT('',(-0.00398417427094346,-0.00149361370294978,0.0447636377305984));
#1737=CARTESIAN_POINT('',(-0.00375121973770009,0.0118488033978428,0.0497636422514916));
#1738=CARTESIAN_POINT('',(0.015,0.0657373039490636,0.0277636422514916));
#1739=CARTESIAN_POINT('',(0.01,0.0316000231355429,0.0277636422514916));
#1740=CARTESIAN_POINT('',(0.005,0.0316000231355429,0.0277636422514916));
#1741=CARTESIAN_POINT('',(0.005,0.0657373039490636,0.0277636422514916));
#1742=CARTESIAN_POINT('',(0.005,0.0628745793434969,0.0277636422514916));
#1743=CARTESIAN_POINT('',(0.01,0.0628745793434969,0.0277636422514916));
#1744=CARTESIAN_POINT('',(0.000167601162766047,0.0628745793434969,0.0277636422514916));
#1745=CARTESIAN_POINT('',(0.000167601162766047,0.0608745793434969,0.0277636422514916));
#1746=CARTESIAN_POINT('',(-0.0016864486918882,0.061624578767801,0.0277636422514916));
#1747=CARTESIAN_POINT('',(0.015,0.0548745839490636,0.0277636422514916));
#1748=CARTESIAN_POINT('',(0.015,0.074276893478227,0.0277636422514916));
#1749=CARTESIAN_POINT('',(0.013,0.074276893478227,0.0277636422514916));
#1750=CARTESIAN_POINT('',(-0.002,0.0116000231355429,0.0277636422514916));
#1751=CARTESIAN_POINT('',(-0.002,-0.00339997686445713,0.0277636422514916));
#1752=CARTESIAN_POINT('',(0.01,-0.00339997686445713,0.0277636422514916));
#1753=CARTESIAN_POINT('',(0.003,-0.00339997686445713,0.0277636422514916));
#1754=CARTESIAN_POINT('',(0.003,0.0241000231355429,0.0277636422514916));
#1755=CARTESIAN_POINT('',(0.015,0.0816000239490636,0.0277636422514916));
#1756=CARTESIAN_POINT('',(0.015,0.0816000239490636,0.0277636422514916));
#1757=CARTESIAN_POINT('',(-0.009,0.0816000231355429,0.0277636422514916));
#1758=CARTESIAN_POINT('',(0.015,0.0766000231355429,0.0277636422514916));
#1759=CARTESIAN_POINT('',(0.02,0.0766000231355429,0.0277636422514916));
#1760=CARTESIAN_POINT('',(0.02,0.0682373039490636,0.0277636422514916));
#1761=CARTESIAN_POINT('',(0.02,0.0548745839490636,0.0277636422514916));
#1762=CARTESIAN_POINT('',(0.015,0.0548745839490636,0.0277636422514916));
#1763=CARTESIAN_POINT('',(0.015,0.0498745839490636,0.0277636422514916));
#1764=CARTESIAN_POINT('',(0.0125,0.0498745839490636,0.0277636422514916));
#1765=CARTESIAN_POINT('',(0.01,0.0498745839490636,0.0277636422514916));
#1766=CARTESIAN_POINT('',(0.01,0.0241000231355429,0.0277636422514916));
#1767=CARTESIAN_POINT('',(0.01,-0.00939997686445712,0.0277636422514916));
#1768=CARTESIAN_POINT('',(0.01,-0.00939997686445712,0.0277636422514916));
#1769=CARTESIAN_POINT('',(-0.009,-0.00939997686445712,0.0277636422514916));
#1770=CARTESIAN_POINT('',(-0.009,0.0557056299969554,0.0277636422514916));
#1771=CARTESIAN_POINT('',(0.015,0.0548745839490636,0.0277636422514916));
#1772=CARTESIAN_POINT('',(0.013,0.0548745839490636,0.0277636422514916));
#1773=CARTESIAN_POINT('',(0.005,0.143519970213478,0.0822731684404021));
#1774=CARTESIAN_POINT('',(0.005,0.0316000231355429,0.00976364225149155));
#1775=CARTESIAN_POINT('',(0.005,0.0316000231355429,0.0357636422514915));
#1776=CARTESIAN_POINT('',(0.005,0.0366000231355429,0.0357636422514915));
#1777=CARTESIAN_POINT('',(0.005,0.0116000231355429,0.0357636422514915));
#1778=CARTESIAN_POINT('',(0.005,0.0116000231355429,0.0497636422514916));
#1779=CARTESIAN_POINT('',(0.005,-0.00239997686445713,0.0497636422514916));
#1780=CARTESIAN_POINT('',(0.005,-0.00239997686445714,0.0727636422514915));
#1781=CARTESIAN_POINT('',(0.005,-0.00239997686445714,0.0667814969018874));
#1782=CARTESIAN_POINT('',(0.005,0.0605884567827049,0.0667814969018874));
#1783=CARTESIAN_POINT('',(0.005,0.0628745793434969,0.0667814969018874));
#1784=CARTESIAN_POINT('',(0.005,0.0628745793434969,0.0565603922514916));
#1785=CARTESIAN_POINT('',(0.005,0.0628745793434969,0.0565603922514916));
#1786=CARTESIAN_POINT('',(0.005,0.0710150897674737,0.0565603877305985));
#1787=CARTESIAN_POINT('',(0.005,0.0771000231355429,0.0565603877305985));
#1788=CARTESIAN_POINT('',(0.005,0.0771000231355429,0.0397636422514915));
#1789=CARTESIAN_POINT('',(0.005,0.0771000231355429,0.0447636377305984));
#1790=CARTESIAN_POINT('',(0.005,0.0710150897674737,0.0447636377305984));
#1791=CARTESIAN_POINT('',(0.005,0.0731000231355429,0.0447636377305984));
#1792=CARTESIAN_POINT('',(0.005,0.0731000231355429,0.0822731684404021));
#1793=CARTESIAN_POINT('',(0.005,0.0731000231355429,0.0547636422514915));
#1794=CARTESIAN_POINT('',(0.005,0.0423677952459239,0.0547636422514915));
#1795=CARTESIAN_POINT('',(0.005,0.0498745839490636,0.0547636422514915));
#1796=CARTESIAN_POINT('',(0.005,0.0498745839490636,0.0547636422514916));
#1797=CARTESIAN_POINT('',(0.005,0.0498745839490636,0.0447636422514915));
#1798=CARTESIAN_POINT('',(0.005,0.0423677952459239,0.0447636422514915));
#1799=CARTESIAN_POINT('',(0.005,0.0628745793434969,0.0447636422514915));
#1800=CARTESIAN_POINT('',(0.005,0.0628745793434969,0.0337636422514915));
#1801=CARTESIAN_POINT('',(-0.004,0.0557056299969554,0.0922063536707472));
#1802=CARTESIAN_POINT('',(-0.004,0.0771000231355429,0.0397636422514915));
#1803=CARTESIAN_POINT('',(-0.004,0.0771000231355429,0.0545603877305984));
#1804=CARTESIAN_POINT('',(-0.004,0.0771000231355429,0.0447636377305984));
#1805=CARTESIAN_POINT('',(-0.004,0.0557056299969554,0.0545603877305984));
#1806=CARTESIAN_POINT('',(-0.004,-0.00239997686445714,0.0545603877305984));
#1807=CARTESIAN_POINT('',(-0.004,-0.00239997686445714,0.0667814922514916));
#1808=CARTESIAN_POINT('',(-0.004,-0.00239997686445713,0.0497636422514916));
#1809=CARTESIAN_POINT('',(-0.004,0.0116000231355429,0.0497636422514916));
#1810=CARTESIAN_POINT('',(-0.004,-0.00147667196647158,0.0447636377305984));
#1811=CARTESIAN_POINT('',(-0.004,0.0710150897674737,0.0447636377305984));
#1812=CARTESIAN_POINT('',(-0.002,0.0116000231355429,0.0337636422514915));
#1813=CARTESIAN_POINT('',(-0.002,0.0266000231355428,0.0337636422514915));
#1814=CARTESIAN_POINT('',(-0.002,0.0116000231355429,0.0337636422514915));
#1815=CARTESIAN_POINT('',(-0.004,0.0316000231355429,0.0357636422514915));
#1816=CARTESIAN_POINT('',(-0.004,0.0116000231355429,0.0357636422514915));
#1817=CARTESIAN_POINT('',(-0.003,0.0116000231355429,0.0347636422514915));
#1818=CARTESIAN_POINT('',(-0.002,0.0116000231355429,0.0337636422514915));
#1819=CARTESIAN_POINT('',(-0.002,0.0116000231355429,0.0497636422514916));
#1820=CARTESIAN_POINT('',(-0.00398417427094345,-0.00149361370294977,0.0447636377305984));
#1821=CARTESIAN_POINT('',(-0.00398944974896732,-0.00148796667137772,0.0447636377305984));
#1822=CARTESIAN_POINT('',(-0.00399472499226965,-0.00148231942614304,0.0447636377305984));
#1823=CARTESIAN_POINT('',(-0.00399999999999999,-0.00147667196647157,0.0447636377305984));
#1824=CARTESIAN_POINT('',(-0.018,0.0116000231355429,0.0497636422514916));
#1825=CARTESIAN_POINT('',(-0.003,-0.00339997686445713,0.0497636422514916));
#1826=CARTESIAN_POINT('',(-0.003,-0.00339997686445713,0.0497636422514916));
#1827=CARTESIAN_POINT('',(-0.003,-0.00339997686445713,0.047847852363206));
#1828=CARTESIAN_POINT('',(-0.00262745098039216,-0.00339997686445713,0.0459989742541068));
#1829=CARTESIAN_POINT('',(-0.002,-0.00339997686445713,0.0441958778886615));
#1830=CARTESIAN_POINT('',(-0.002,-0.00339997686445713,0.0441958778886615));
#1831=CARTESIAN_POINT('',(-0.002,0.0116000231355429,0.0497636422514916));
#1832=CARTESIAN_POINT('',(0.012,0.0366000235423033,0.0667814922514916));
#1833=CARTESIAN_POINT('',(0.015,0.0548745839490636,0.0667814922514916));
#1834=CARTESIAN_POINT('',(-0.003,0.0548745839490636,0.0667814922514916));
#1835=CARTESIAN_POINT('',(-0.0016864486918882,0.061624578767801,0.0667814922514916));
#1836=CARTESIAN_POINT('',(0.000167601162766047,0.0608745793434969,0.0667814922514916));
#1837=CARTESIAN_POINT('',(0.000167601162766047,0.0628745793434969,0.0667814922514916));
#1838=CARTESIAN_POINT('',(0.01,0.0628745793434969,0.0667814922514916));
#1839=CARTESIAN_POINT('',(0.0005,-0.00239997686445714,0.0667814969018874));
#1840=CARTESIAN_POINT('',(0.01,-0.00239997686445714,0.0667814969018874));
#1841=CARTESIAN_POINT('',(0.01,0.143519970213478,0.0667814969018874));
#1842=CARTESIAN_POINT('',(0.01,0.0816000231355429,0.0667814969018874));
#1843=CARTESIAN_POINT('',(-0.004,0.0816000231355429,0.0667814969018874));
#1844=CARTESIAN_POINT('',(-0.009,0.0816000231355429,0.0667814969018874));
#1845=CARTESIAN_POINT('',(-0.009,0.0557056299969554,0.0667814969018874));
#1846=CARTESIAN_POINT('',(-0.009,-0.00239997686445714,0.0667814945766895));
#1847=CARTESIAN_POINT('',(0.005,-0.00239997686445713,0.0667814969018874));
#1848=CARTESIAN_POINT('',(-0.004,-0.00239997686445714,0.0667814922514916));
#1849=CARTESIAN_POINT('',(-0.0035,0.0262373035423033,0.0667814922514916));
#1850=CARTESIAN_POINT('',(0.015,0.0548745839490636,0.0687636422514916));
#1851=CARTESIAN_POINT('',(0.015,0.0548745839490636,0.0565603877305985));
#1852=CARTESIAN_POINT('',(-0.0016864486918882,0.061624578767801,0.0565603877305985));
#1853=CARTESIAN_POINT('',(-0.002,0.0607906637321632,0.0565603877305985));
#1854=CARTESIAN_POINT('',(-0.0016864486918882,0.061624578767801,0.0687636422514916));
#1855=CARTESIAN_POINT('',(-0.003,0.0548745839490636,0.0687636422514916));
#1856=CARTESIAN_POINT('',(-0.003,0.0548745839490636,0.0562924385381673));
#1857=CARTESIAN_POINT('',(-0.003,0.0548745839490636,0.0562924385381673));
#1858=CARTESIAN_POINT('',(-0.003,0.0558846456985175,0.0562924385381673));
#1859=CARTESIAN_POINT('',(-0.00283190515918919,0.0578803946888801,0.0564033508596691));
#1860=CARTESIAN_POINT('',(-0.00233178916296011,0.0598372594548181,0.0565603877305985));
#1861=CARTESIAN_POINT('',(-0.002,0.0607906637321632,0.0565603877305985));
#1862=CARTESIAN_POINT('',(0.005,0.0521000231355429,0.0565603877305985));
#1863=CARTESIAN_POINT('',(0.01,0.0628745793434969,0.0565603922514916));
#1864=CARTESIAN_POINT('',(0.000167601162766047,0.0628745793434969,0.0565603922514916));
#1865=CARTESIAN_POINT('',(0.000167601162766047,0.0608745793434969,0.0565603877305985));
#1866=CARTESIAN_POINT('',(-0.002,0.0521000231355429,0.0565603877305985));
#1867=CARTESIAN_POINT('',(-0.002,0.0771000231355429,0.0565603877305985));
#1868=CARTESIAN_POINT('',(0.005,0.0771000231355429,0.0565603877305985));
#1869=CARTESIAN_POINT('',(0.005,0.0453491752459239,0.0447636422514915));
#1870=CARTESIAN_POINT('',(0.015,0.0548745839490636,0.0447636377305984));
#1871=CARTESIAN_POINT('',(-0.0016864486918882,0.061624578767801,0.0447636377305984));
#1872=CARTESIAN_POINT('',(0.000167601162766047,0.0608745793434969,0.0447636422514915));
#1873=CARTESIAN_POINT('',(0.000167601162766047,0.0628745793434969,0.0447636422514915));
#1874=CARTESIAN_POINT('',(0.01,0.0628745793434969,0.0447636422514915));
#1875=CARTESIAN_POINT('',(0.0075,0.0498745839490636,0.0447636422514915));
#1876=CARTESIAN_POINT('',(0.01,0.0498745839490636,0.0447636422514915));
#1877=CARTESIAN_POINT('',(0.0125,0.0498745839490636,0.0447636422514915));
#1878=CARTESIAN_POINT('',(0.015,0.0498745839490636,0.0447636422514915));
#1879=CARTESIAN_POINT('',(0.015,0.0548745839490636,0.0447636422514915));
#1880=CARTESIAN_POINT('',(0.015,0.0598745839490636,0.0447636422514915));
#1881=CARTESIAN_POINT('',(0.0125,0.0598745839490636,0.0447636422514915));
#1882=CARTESIAN_POINT('',(0.01,0.0598745839490636,0.0447636422514915));
#1883=CARTESIAN_POINT('',(0.01,0.0423677952459239,0.0447636422514915));
#1884=CARTESIAN_POINT('',(0.01,0.0701000231355429,0.0447636422514915));
#1885=CARTESIAN_POINT('',(0.0075,0.0701000231355429,0.0447636422514915));
#1886=CARTESIAN_POINT('',(0.008,0.0701000231355429,0.0447636422514915));
#1887=CARTESIAN_POINT('',(0.008,0.0701000231355429,0.0447636422514915));
#1888=CARTESIAN_POINT('',(0.005,0.0771000231355429,0.0447636377305984));
#1889=CARTESIAN_POINT('',(0.015,0.0548745839490636,0.0447636422514915));
#1890=CARTESIAN_POINT('',(0.013,0.0548745839490636,0.0447636422514915));
#1891=CARTESIAN_POINT('',(0.015,0.0548745839490636,0.0687636422514916));
#1892=CARTESIAN_POINT('',(-0.0016864486918882,0.061624578767801,0.0687636422514916));
#1893=CARTESIAN_POINT('',(0.0005,0.0628745793434969,0.00976364225149155));
#1894=CARTESIAN_POINT('',(0.000167601162766047,0.0628745793434969,0.00976364225149155));
#1895=CARTESIAN_POINT('',(-0.002,0.0116000231355429,0.0175636422514916));
#1896=CARTESIAN_POINT('',(-0.002,-0.00339997686445713,0.0175636422514916));
#1897=CARTESIAN_POINT('',(-0.009,0.0557056299969554,0.0922063536707472));
#1898=CARTESIAN_POINT('',(-0.009,0.0816000231355429,0.0571335000933871));
#1899=CARTESIAN_POINT('',(-0.009,-0.00939997686445713,0.0537636422514915));
#1900=CARTESIAN_POINT('',(-0.009,-0.00939997686445714,0.0727636422514915));
#1901=CARTESIAN_POINT('',(-0.009,-0.00939997686445714,0.0727636422514915));
#1902=CARTESIAN_POINT('',(-0.009,-0.00839997686445714,0.0727636422514915));
#1903=CARTESIAN_POINT('',(-0.009,0.0019807641970363,0.0899933547779918));
#1904=CARTESIAN_POINT('',(-0.009,-0.00239997686445714,0.0827223026733833));
#1905=CARTESIAN_POINT('',(-0.009,-0.00239997686445715,0.0922063536707472));
#1906=CARTESIAN_POINT('',(-0.009,0.0766000231355428,0.0312827283716366));
#1907=CARTESIAN_POINT('',(-0.009,0.0766000231355428,0.0332827283716366));
#1908=CARTESIAN_POINT('',(0.01,-0.00339997686445713,0.0612636422514915));
#1909=CARTESIAN_POINT('',(0.0005,-0.00339997686445713,0.0441958778886615));
#1910=CARTESIAN_POINT('',(0.003,-0.00339997686445713,0.0441958778886615));
#1911=CARTESIAN_POINT('',(0.003,-0.00339997686445713,0.0175636422514916));
#1912=CARTESIAN_POINT('',(0.01,0.143519970213478,0.0822731684404021));
#1913=CARTESIAN_POINT('',(0.01,-0.00239997686445711,0.0822731684404021));
#1914=CARTESIAN_POINT('',(0.01,-0.00239997686445714,0.0827223026733833));
#1915=CARTESIAN_POINT('',(0.01,0.0019807641970363,0.0899933547779918));
#1916=CARTESIAN_POINT('',(0.01,-0.00839997686445714,0.0727636422514915));
#1917=CARTESIAN_POINT('',(0.01,-0.00939997686445714,0.0727636422514915));
#1918=CARTESIAN_POINT('',(0.01,-0.00939997686445714,0.0727636422514915));
#1919=CARTESIAN_POINT('',(0.01,-0.00939997686445713,0.0537636422514915));
#1920=CARTESIAN_POINT('',(0.01,0.0498745839490636,0.0397636422514915));
#1921=CARTESIAN_POINT('',(0.01,0.0498745839490636,0.0547636422514916));
#1922=CARTESIAN_POINT('',(0.01,0.0498745839490636,0.0547636422514916));
#1923=CARTESIAN_POINT('',(0.01,0.0423677952459239,0.0547636422514915));
#1924=CARTESIAN_POINT('',(0.01,0.0701000231355429,0.0547636422514915));
#1925=CARTESIAN_POINT('',(0.01,0.0701000231355429,0.0697636422514916));
#1926=CARTESIAN_POINT('',(0.01,0.0598745839490636,0.0397636422514915));
#1927=CARTESIAN_POINT('',(0.01,0.0598745839490636,0.0397636422514915));
#1928=CARTESIAN_POINT('',(0.01,0.0707373039490636,0.0397636422514915));
#1929=CARTESIAN_POINT('',(0.01,0.0816000239490636,0.0397636422514915));
#1930=CARTESIAN_POINT('',(0.01,0.0816000231355429,0.0571335000933872));
#1931=CARTESIAN_POINT('',(0.015,0.0657373039490636,0.0397636422514915));
#1932=CARTESIAN_POINT('',(0.015,0.074276893478227,0.0397636422514915));
#1933=CARTESIAN_POINT('',(0.017,0.074276893478227,0.0397636422514915));
#1934=CARTESIAN_POINT('',(0.02,0.0682373039490636,0.0397636422514915));
#1935=CARTESIAN_POINT('',(0.02,0.0548745839490636,0.0397636422514915));
#1936=CARTESIAN_POINT('',(0.02,0.0766000231355429,0.0397636422514915));
#1937=CARTESIAN_POINT('',(0.015,0.0766000231355429,0.0397636422514915));
#1938=CARTESIAN_POINT('',(0.015,0.0816000239490636,0.0397636422514915));
#1939=CARTESIAN_POINT('',(0.015,0.0816000239490636,0.0397636422514915));
#1940=CARTESIAN_POINT('',(0.0125,0.0598745839490636,0.0397636422514915));
#1941=CARTESIAN_POINT('',(0.015,0.0598745839490636,0.0397636422514915));
#1942=CARTESIAN_POINT('',(0.015,0.0548745839490636,0.0397636422514915));
#1943=CARTESIAN_POINT('',(0.0125,0.0598745839490636,0.0397636422514915));
#1944=CARTESIAN_POINT('',(0.015,0.0598745839490636,0.0397636422514915));
#1945=CARTESIAN_POINT('',(0.0075,0.0701000231355429,0.0697636422514916));
#1946=CARTESIAN_POINT('',(0.005,0.0701000231355429,0.0547636422514915));
#1947=CARTESIAN_POINT('',(0.008,0.0701000231355429,0.0547636422514915));
#1948=CARTESIAN_POINT('',(0.008,0.0701000231355429,0.0697636422514916));
#1949=CARTESIAN_POINT('',(0.0125,0.0498745839490636,0.0397636422514915));
#1950=CARTESIAN_POINT('',(0.015,0.0498745839490636,0.0397636422514915));
#1951=CARTESIAN_POINT('',(0.015,0.0548745839490636,0.0397636422514915));
#1952=CARTESIAN_POINT('',(0.02,0.0548745839490636,0.0277636422514916));
#1953=CARTESIAN_POINT('',(0.02,0.0682373039490636,0.0277636422514916));
#1954=CARTESIAN_POINT('',(0.02,0.0766000231355429,0.0397636422514915));
#1955=CARTESIAN_POINT('',(-0.00125,0.0316000231355429,0.00976364225149155));
#1956=CARTESIAN_POINT('',(0.005,0.0316000231355429,0.0357636422514915));
#1957=CARTESIAN_POINT('',(0.015,0.0548745839490636,0.0447636422514915));
#1958=CARTESIAN_POINT('',(-0.004,0.0816000231355429,0.0571335000933871));
#1959=CARTESIAN_POINT('',(0.0005,0.0816000231355429,0.0362657355235956));
#1960=CARTESIAN_POINT('',(0.0005,0.0816000231355429,0.0382657355235956));
#1961=CARTESIAN_POINT('',(0.015,0.0816000231355429,0.0277636422514916));
#1962=CARTESIAN_POINT('',(0.003,0.0116000231355429,0.0337636422514915));
#1963=CARTESIAN_POINT('',(0.003,0.0266000231355428,0.0337636422514915));
#1964=CARTESIAN_POINT('',(0.003,0.0116000231355429,0.0337636422514915));
#1965=CARTESIAN_POINT('',(0.003,0.0116000231355429,0.0337636422514915));
#1966=CARTESIAN_POINT('',(0.004,0.0116000231355429,0.0347636422514915));
#1967=CARTESIAN_POINT('',(0.005,0.0116000231355429,0.0357636422514915));
#1968=CARTESIAN_POINT('',(0.0075,0.0498745839490636,0.0547636422514916));
#1969=CARTESIAN_POINT('',(0.0075,0.0498745839490636,0.0547636422514916));
#1970=CARTESIAN_POINT('',(0.005,0.0423677952459239,0.0547636422514915));
#1971=CARTESIAN_POINT('',(0.0203661139448095,0.0577339091907334,0.0547636422514915));
#1972=CARTESIAN_POINT('',(0.008,0.0701000231355429,0.0697636422514916));
#1973=CARTESIAN_POINT('',(0.005,0.0771000231355429,0.0472636422514915));
#1974=CARTESIAN_POINT('',(-0.002,0.0771000231355429,0.0545603877305984));
#1975=CARTESIAN_POINT('',(0.003,0.0116000231355429,0.0497636422514916));
#1976=CARTESIAN_POINT('',(0.003,0.0116000231355429,0.0497636422514916));
#1977=CARTESIAN_POINT('',(0.004,-0.00339997686445713,0.0497636422514916));
#1978=CARTESIAN_POINT('',(0.004,-0.00339997686445713,0.047847852363206));
#1979=CARTESIAN_POINT('',(0.00362745098039216,-0.00339997686445713,0.0459989742541068));
#1980=CARTESIAN_POINT('',(0.003,-0.00339997686445713,0.0441958778886615));
#1981=CARTESIAN_POINT('',(0.004,-0.00339997686445713,0.0497636422514916));
#1982=CARTESIAN_POINT('',(0.019,0.0116000231355429,0.0497636422514916));
#1983=CARTESIAN_POINT('',(0.003,0.0116000231355429,0.0175636422514916));
#1984=CARTESIAN_POINT('',(0.0005,-0.00239997686445713,0.0502636422514916));
#1985=CARTESIAN_POINT('',(0.005,-0.00239997686445714,0.0727636422514915));
#1986=CARTESIAN_POINT('',(0.005,-0.00239997686445711,0.0727636422514915));
#1987=CARTESIAN_POINT('',(0.005,-0.00239997686445711,0.0822731684404021));
#1988=CARTESIAN_POINT('',(0.005,-0.00239997686445714,0.0827223026733833));
#1989=CARTESIAN_POINT('',(0.01,-0.00239997686445714,0.0827223026733833));
#1990=CARTESIAN_POINT('',(0.005,0.143519970213478,0.0822731684404021));
#1991=CARTESIAN_POINT('',(0.005,0.0019807641970363,0.0899933547779918));
#1992=CARTESIAN_POINT('',(0.005,-0.00839997686445714,0.0727636422514915));
#1993=CARTESIAN_POINT('',(0.005,-0.00589997686445713,0.0727636422514915));
#1994=CARTESIAN_POINT('',(-0.003,-0.0283999768644572,0.0612636422514915));
#1995=CARTESIAN_POINT('',(-0.003,-0.00748325341761336,0.0536505775184625));
#1996=CARTESIAN_POINT('',(-0.003,-0.00839997686445713,0.0511319005483746));
#1997=CARTESIAN_POINT('',(-0.003,-0.00339997686445713,0.0648692876456477));
#1998=CARTESIAN_POINT('',(-0.003,-0.00939997686445713,0.0511319005483746));
#1999=CARTESIAN_POINT('',(-0.003,-0.00939997686445713,0.0511319005483746));
#2000=CARTESIAN_POINT('',(-0.003,-0.00939997686445713,0.0537636422514915));
#2001=CARTESIAN_POINT('',(-0.003,-0.00939997686445713,0.0497636422514916));
#2002=CARTESIAN_POINT('',(-0.003,-0.00939997686445713,0.0497636422514916));
#2003=CARTESIAN_POINT('',(-0.003,-0.00839997686445713,0.0497636422514916));
#2004=CARTESIAN_POINT('',(-0.003,-0.0283999768644572,0.0497636422514916));
#2005=CARTESIAN_POINT('',(-0.003,-0.00339997686445713,0.0612636422514915));
#2006=CARTESIAN_POINT('',(0.01,-0.00339997686445713,0.0612636422514915));
#2007=CARTESIAN_POINT('',(0.0005,-0.00339997686445713,0.0688164649485696));
#2008=CARTESIAN_POINT('',(0.0005,-0.00339997686445713,0.0708164649485696));
#2009=CARTESIAN_POINT('',(-0.003,-0.00339997686445713,0.0667814922514916));
#2010=CARTESIAN_POINT('',(-0.003,-0.00339997686445713,0.0667814969018874));
#2011=CARTESIAN_POINT('',(-0.003,-0.00339997686445713,0.0667814922514915));
#2012=CARTESIAN_POINT('',(-0.003,-0.00339997686445713,0.0687755422514915));
#2013=CARTESIAN_POINT('',(-0.003,-0.00339997686445713,0.0707695922514915));
#2014=CARTESIAN_POINT('',(-0.003,-0.00339997686445713,0.0727636422514915));
#2015=CARTESIAN_POINT('',(-0.003,-0.00339997686445713,0.0727636422514915));
#2016=CARTESIAN_POINT('',(0.01,-0.00339997686445713,0.0727636422514915));
#2017=CARTESIAN_POINT('',(0.004,-0.00339997686445713,0.0727636422514915));
#2018=CARTESIAN_POINT('',(0.004,-0.00339997686445713,0.0727636422514915));
#2019=CARTESIAN_POINT('',(0.004,-0.00339997686445713,0.0648693001456477));
#2020=CARTESIAN_POINT('',(-0.005,-0.00339997686445713,0.0648692876456477));
#2021=CARTESIAN_POINT('',(0.01,-0.00589997686445713,0.0727636422514915));
#2022=CARTESIAN_POINT('',(0.019,0.0116000231355429,0.0727636422514915));
#2023=CARTESIAN_POINT('',(-0.018,0.0116000231355429,0.0727636422514915));
#2024=CARTESIAN_POINT('',(-0.004,-0.00239997686445711,0.0727636422514915));
#2025=CARTESIAN_POINT('',(-0.004,-0.00589997686445713,0.0727636422514915));
#2026=CARTESIAN_POINT('',(-0.004,-0.00839997686445714,0.0727636422514915));
#2027=CARTESIAN_POINT('',(-0.009,-0.00839997686445714,0.0727636422514915));
#2028=CARTESIAN_POINT('',(0.01,-0.00939997686445714,0.0727636422514915));
#2029=CARTESIAN_POINT('',(0.01,-0.00839997686445714,0.0727636422514915));
#2030=CARTESIAN_POINT('',(-0.003,-0.00939997686445713,0.0497636422514916));
#2031=CARTESIAN_POINT('',(-0.003,-0.00339997686445715,0.0497636422514916));
#2032=CARTESIAN_POINT('',(-0.003,-0.00939997686445713,0.047847852363206));
#2033=CARTESIAN_POINT('',(-0.003,-0.00339997686445715,0.047847852363206));
#2034=CARTESIAN_POINT('',(-0.00262745098039215,-0.00939997686445713,0.0459989742541068));
#2035=CARTESIAN_POINT('',(-0.00262745098039215,-0.00339997686445715,0.0459989742541068));
#2036=CARTESIAN_POINT('',(-0.002,-0.00939997686445713,0.0441958778886615));
#2037=CARTESIAN_POINT('',(-0.002,-0.00339997686445715,0.0441958778886615));
#2038=CARTESIAN_POINT('',(-0.003,-0.00939997686445713,0.0497636422514916));
#2039=CARTESIAN_POINT('',(-0.003,-0.00939997686445713,0.047847852363206));
#2040=CARTESIAN_POINT('',(-0.00262745098039215,-0.00939997686445713,0.0459989742541068));
#2041=CARTESIAN_POINT('',(-0.002,-0.00939997686445713,0.0441958778886615));
#2042=CARTESIAN_POINT('',(-0.002,-0.00939997686445713,0.0441958778886615));
#2043=CARTESIAN_POINT('',(-0.002,-0.00939997686445713,0.0441958778886615));
#2044=CARTESIAN_POINT('',(-0.002,-0.00839997686445713,0.0441958778886615));
#2045=CARTESIAN_POINT('',(-0.002,-0.0283999768644572,0.0441958778886615));
#2046=CARTESIAN_POINT('',(0.0005,-0.0283999768644572,0.0441958778886615));
#2047=CARTESIAN_POINT('',(0.003,-0.0283999768644572,0.0441958778886615));
#2048=CARTESIAN_POINT('',(0.003,-0.00839997686445713,0.0441958778886615));
#2049=CARTESIAN_POINT('',(0.01,-0.00939997686445713,0.0441958778886615));
#2050=CARTESIAN_POINT('',(0.003,-0.00939997686445713,0.0441958778886615));
#2051=CARTESIAN_POINT('',(0.003,-0.00939997686445713,0.0441958778886615));
#2052=CARTESIAN_POINT('',(0.004,-0.0283999768644572,0.0612636422514915));
#2053=CARTESIAN_POINT('',(0.004,-0.000727858361903022,0.0722108728935221));
#2054=CARTESIAN_POINT('',(0.004,-0.00839997686445713,0.0511319005483746));
#2055=CARTESIAN_POINT('',(0.004,-0.00339997686445713,0.0612636422514915));
#2056=CARTESIAN_POINT('',(0.004,-0.0283999768644572,0.0497636422514916));
#2057=CARTESIAN_POINT('',(0.004,-0.00839997686445713,0.0497636422514916));
#2058=CARTESIAN_POINT('',(0.004,-0.00939997686445713,0.0497636422514916));
#2059=CARTESIAN_POINT('',(0.004,-0.00939997686445713,0.0497636422514916));
#2060=CARTESIAN_POINT('',(0.004,-0.00939997686445713,0.0537636422514915));
#2061=CARTESIAN_POINT('',(0.004,-0.00939997686445713,0.0511319005483746));
#2062=CARTESIAN_POINT('',(0.004,-0.00939997686445713,0.0511319005483746));
#2063=CARTESIAN_POINT('',(0.004,-0.00939997686445713,0.0497636422514916));
#2064=CARTESIAN_POINT('',(0.004,-0.00339997686445715,0.0497636422514916));
#2065=CARTESIAN_POINT('',(0.004,-0.00939997686445713,0.047847852363206));
#2066=CARTESIAN_POINT('',(0.004,-0.00339997686445715,0.047847852363206));
#2067=CARTESIAN_POINT('',(0.00362745098039216,-0.00939997686445713,0.0459989742541068));
#2068=CARTESIAN_POINT('',(0.00362745098039216,-0.00339997686445715,0.0459989742541068));
#2069=CARTESIAN_POINT('',(0.003,-0.00939997686445713,0.0441958778886615));
#2070=CARTESIAN_POINT('',(0.003,-0.00339997686445715,0.0441958778886615));
#2071=CARTESIAN_POINT('',(0.004,-0.00939997686445713,0.0497636422514916));
#2072=CARTESIAN_POINT('',(0.004,-0.00939997686445713,0.047847852363206));
#2073=CARTESIAN_POINT('',(0.00362745098039215,-0.00939997686445713,0.0459989742541068));
#2074=CARTESIAN_POINT('',(0.003,-0.00939997686445713,0.0441958778886615));
#2075=CARTESIAN_POINT('',(-0.005,-0.000727858361903022,0.0722108728935221));
#2076=CARTESIAN_POINT('',(-0.005,-0.00839997686445713,0.0511319005483746));
#2077=CARTESIAN_POINT('',(0.019,0.0116000231355429,0.0727636422514915));
#2078=CARTESIAN_POINT('',(-0.018,0.0116000231355429,0.0667814922514916));
#2079=CARTESIAN_POINT('',(-0.004,-0.00239997686445714,0.0667814922514916));
#2080=CARTESIAN_POINT('',(-0.004,-0.00239997686445714,0.0667814922514916));
#2081=CARTESIAN_POINT('',(0.01,0.0019807641970363,0.0899933547779918));
#2082=CARTESIAN_POINT('',(0.0005,-0.00239997686445713,0.0502636422514916));
#2083=CARTESIAN_POINT('',(-0.009,-0.00239997686445714,0.0827223026733833));
#2084=CARTESIAN_POINT('',(-0.004,-0.00239997686445714,0.0827223026733833));
#2085=CARTESIAN_POINT('',(-0.004,-0.00239997686445711,0.0822731684404021));
#2086=CARTESIAN_POINT('',(-0.004,0.143519970213478,0.0822731684404021));
#2087=CARTESIAN_POINT('',(-0.004,0.0019807641970363,0.0899933547779918));
#2088=CARTESIAN_POINT('',(-0.009,0.0019807641970363,0.0899933547779918));
#2089=CARTESIAN_POINT('',(0.015,0.0766000231355429,0.0277636422514916));
#2090=CARTESIAN_POINT('',(0.0005,0.0746000231355429,0.0362657355235956));
#2091=CARTESIAN_POINT('',(0.0005,0.0771000231355429,0.0362657355235956));
#2092=CARTESIAN_POINT('',(0.0005,0.0771000231355429,0.0382657355235956));
#2093=CARTESIAN_POINT('',(-0.002,0.0766000231355428,0.0312827283716366));
#2094=CARTESIAN_POINT('',(-0.002,0.0766000231355428,0.0312827283716366));
#2095=CARTESIAN_POINT('',(-0.002,0.0766000231355428,0.0332827283716366));
#2096=CARTESIAN_POINT('',(-0.002,0.0341000231355429,0.0327636422514916));
#2097=CARTESIAN_POINT('',(0.0005,-0.0283999768644572,0.0688164649485696));
#2098=CARTESIAN_POINT('',(0.0005,-0.00939997686445714,0.0688164649485696));
#2099=CARTESIAN_POINT('',(0.0005,-0.00939997686445714,0.0708164649485696));
#2100=CARTESIAN_POINT('',(0.015,0.074276893478227,0.0147636422514915));
#2101=CARTESIAN_POINT('',(-0.0035,0.0262373035423033,0.0565603922514916));
#2102=CARTESIAN_POINT('',(-0.002,0.112149144762584,0.0545603877305984));
#2103=CARTESIAN_POINT('',(0.01,0.0628745793434969,0.0565603922514916));
#2104=CARTESIAN_POINT('',(0.000167601162766047,0.0628745793434969,0.0565603922514916));
#2105=CARTESIAN_POINT('',(0.005,0.0771000231355429,0.0337636377305984));
#2106=CARTESIAN_POINT('',(-0.002,0.0557056299969554,0.0545603877305984));
#2107=CARTESIAN_POINT('',(0.000167601162766047,0.0608745793434969,0.0687636422514916));
#2108=CARTESIAN_POINT('',(0.000167601162766047,0.0608745793434969,0.0687636422514916));
#2109=CARTESIAN_POINT('',(-0.005,-0.00939997686445713,0.0511319005483746));
#2110=CARTESIAN_POINT('',(-0.005,-0.00939997686445713,0.0511319005483746));
#2111=CARTESIAN_POINT('',(0.01,-0.00939997686445713,0.0537636422514915));
#2112=MECHANICAL_DESIGN_GEOMETRIC_PRESENTATION_REPRESENTATION('',(#1281),
#2113);
#2113=(
GEOMETRIC_REPRESENTATION_CONTEXT(3)
GLOBAL_UNCERTAINTY_ASSIGNED_CONTEXT((#2114))
GLOBAL_UNIT_ASSIGNED_CONTEXT((#2117,#2116,#2115))
REPRESENTATION_CONTEXT('Coin Sorting and Output Housing',
'TOP_LEVEL_ASSEMBLY_PART')
);
#2114=UNCERTAINTY_MEASURE_WITH_UNIT(LENGTH_MEASURE(2.E-5),#2117,
'DISTANCE_ACCURACY_VALUE','Maximum Tolerance applied to model');
#2115=(
NAMED_UNIT(*)
SI_UNIT($,.STERADIAN.)
SOLID_ANGLE_UNIT()
);
#2116=(
NAMED_UNIT(*)
PLANE_ANGLE_UNIT()
SI_UNIT($,.RADIAN.)
);
#2117=(
LENGTH_UNIT()
NAMED_UNIT(*)
SI_UNIT($,.METRE.)
);
#2118=PRODUCT_DEFINITION_SHAPE('','',#2119);
#2119=PRODUCT_DEFINITION('','',#2121,#2120);
#2120=PRODUCT_DEFINITION_CONTEXT('',#2127,'design');
#2121=PRODUCT_DEFINITION_FORMATION_WITH_SPECIFIED_SOURCE('','',#2123,
 .NOT_KNOWN.);
#2122=PRODUCT_RELATED_PRODUCT_CATEGORY('','',(#2123));
#2123=PRODUCT('Coin Sorting and Output Housing',
'Coin Sorting and Output Housing','Coin Sorting and Output Housing',(#2125));
#2124=PRODUCT_CATEGORY('','');
#2125=PRODUCT_CONTEXT('',#2127,'mechanical');
#2126=APPLICATION_PROTOCOL_DEFINITION('international standard',
'ap242_managed_model_based_3d_engineering',2020,#2127);
#2127=APPLICATION_CONTEXT('managed model based 3d engineering');
ENDSEC;
END-ISO-10303-21;
