ISO-10303-21;
HEADER;
/* Generated by software containing ST-Developer
 * from STEP Tools, Inc. (www.steptools.com) 
 */
/* OPTION: using custom renumber hook */

FILE_DESCRIPTION(
/* description */ ('STEP AP242 Edition 2',
'CAx-IF Rec.Pracs.---Representation and Presentation of Product Manufa
cturing Information (PMI)---4.0---2014-10-13',
'CAx-IF Rec.Pracs.---3D Tessellated Geometry---0.4---2014-09-14','2;1',
'CAx-IF Rec.Pracs.---User Defined Attributes---1.5---2016-08-15'),
/* implementation_level */ '2;1');

FILE_NAME(
/* name */ 'Assembly 1 - Base',
/* time_stamp */ '2026-07-14T16:54:41Z',
/* author */ (''),
/* organization */ (''),
/* preprocessor_version */ 'ST-DEVELOPER v20',
/* originating_system */ 'ONSHAPE BY PTC INC, 1.217',
/* authorisation */ '  ');

FILE_SCHEMA (('AP242_MANAGED_MODEL_BASED_3D_ENGINEERING_MIM_LF { 1 0 10303 442 3 1 4 }'));
ENDSEC;

DATA;
#10=SHAPE_REPRESENTATION_RELATIONSHIP('','',#473,#11);
#11=ADVANCED_BREP_SHAPE_REPRESENTATION('',(#471),#769);
#12=CYLINDRICAL_SURFACE('',#495,0.002);
#13=CYLINDRICAL_SURFACE('',#498,0.002);
#14=CYLINDRICAL_SURFACE('',#501,0.002);
#15=CYLINDRICAL_SURFACE('',#509,0.005);
#16=CYLINDRICAL_SURFACE('',#510,0.002);
#17=CYLINDRICAL_SURFACE('',#511,0.002);
#18=CIRCLE('',#478,0.002);
#19=CIRCLE('',#479,0.005);
#20=CIRCLE('',#480,0.002);
#21=CIRCLE('',#484,0.002);
#22=CIRCLE('',#493,0.002);
#23=CIRCLE('',#494,0.002);
#24=CIRCLE('',#496,0.002);
#25=CIRCLE('',#499,0.002);
#26=CIRCLE('',#502,0.002);
#27=CIRCLE('',#505,0.002);
#28=CIRCLE('',#506,0.005);
#29=CIRCLE('',#512,0.002);
#30=ORIENTED_EDGE('',*,*,#146,.T.);
#31=ORIENTED_EDGE('',*,*,#147,.T.);
#32=ORIENTED_EDGE('',*,*,#148,.T.);
#33=ORIENTED_EDGE('',*,*,#149,.T.);
#34=ORIENTED_EDGE('',*,*,#150,.T.);
#35=ORIENTED_EDGE('',*,*,#151,.F.);
#36=ORIENTED_EDGE('',*,*,#152,.F.);
#37=ORIENTED_EDGE('',*,*,#153,.F.);
#38=ORIENTED_EDGE('',*,*,#154,.T.);
#39=ORIENTED_EDGE('',*,*,#155,.T.);
#40=ORIENTED_EDGE('',*,*,#156,.F.);
#41=ORIENTED_EDGE('',*,*,#157,.F.);
#42=ORIENTED_EDGE('',*,*,#158,.T.);
#43=ORIENTED_EDGE('',*,*,#159,.F.);
#44=ORIENTED_EDGE('',*,*,#160,.F.);
#45=ORIENTED_EDGE('',*,*,#150,.F.);
#46=ORIENTED_EDGE('',*,*,#161,.T.);
#47=ORIENTED_EDGE('',*,*,#155,.F.);
#48=ORIENTED_EDGE('',*,*,#162,.F.);
#49=ORIENTED_EDGE('',*,*,#163,.F.);
#50=ORIENTED_EDGE('',*,*,#164,.T.);
#51=ORIENTED_EDGE('',*,*,#165,.F.);
#52=ORIENTED_EDGE('',*,*,#166,.F.);
#53=ORIENTED_EDGE('',*,*,#167,.F.);
#54=ORIENTED_EDGE('',*,*,#168,.F.);
#55=ORIENTED_EDGE('',*,*,#169,.T.);
#56=ORIENTED_EDGE('',*,*,#170,.T.);
#57=ORIENTED_EDGE('',*,*,#171,.F.);
#58=ORIENTED_EDGE('',*,*,#165,.T.);
#59=ORIENTED_EDGE('',*,*,#172,.T.);
#60=ORIENTED_EDGE('',*,*,#173,.T.);
#61=ORIENTED_EDGE('',*,*,#174,.F.);
#62=ORIENTED_EDGE('',*,*,#167,.T.);
#63=ORIENTED_EDGE('',*,*,#175,.T.);
#64=ORIENTED_EDGE('',*,*,#176,.F.);
#65=ORIENTED_EDGE('',*,*,#177,.T.);
#66=ORIENTED_EDGE('',*,*,#178,.F.);
#67=ORIENTED_EDGE('',*,*,#179,.F.);
#68=ORIENTED_EDGE('',*,*,#180,.F.);
#69=ORIENTED_EDGE('',*,*,#169,.F.);
#70=ORIENTED_EDGE('',*,*,#164,.F.);
#71=ORIENTED_EDGE('',*,*,#181,.F.);
#72=ORIENTED_EDGE('',*,*,#148,.F.);
#73=ORIENTED_EDGE('',*,*,#182,.F.);
#74=ORIENTED_EDGE('',*,*,#153,.T.);
#75=ORIENTED_EDGE('',*,*,#183,.T.);
#76=ORIENTED_EDGE('',*,*,#184,.F.);
#77=ORIENTED_EDGE('',*,*,#146,.F.);
#78=ORIENTED_EDGE('',*,*,#185,.T.);
#79=ORIENTED_EDGE('',*,*,#178,.T.);
#80=ORIENTED_EDGE('',*,*,#186,.F.);
#81=ORIENTED_EDGE('',*,*,#175,.F.);
#82=ORIENTED_EDGE('',*,*,#166,.T.);
#83=ORIENTED_EDGE('',*,*,#171,.T.);
#84=ORIENTED_EDGE('',*,*,#154,.F.);
#85=ORIENTED_EDGE('',*,*,#182,.T.);
#86=ORIENTED_EDGE('',*,*,#147,.F.);
#87=ORIENTED_EDGE('',*,*,#184,.T.);
#88=ORIENTED_EDGE('',*,*,#177,.F.);
#89=ORIENTED_EDGE('',*,*,#187,.F.);
#90=ORIENTED_EDGE('',*,*,#188,.T.);
#91=ORIENTED_EDGE('',*,*,#162,.T.);
#92=ORIENTED_EDGE('',*,*,#183,.F.);
#93=ORIENTED_EDGE('',*,*,#152,.T.);
#94=ORIENTED_EDGE('',*,*,#161,.F.);
#95=ORIENTED_EDGE('',*,*,#149,.F.);
#96=ORIENTED_EDGE('',*,*,#189,.F.);
#97=ORIENTED_EDGE('',*,*,#190,.T.);
#98=ORIENTED_EDGE('',*,*,#172,.F.);
#99=ORIENTED_EDGE('',*,*,#185,.F.);
#100=ORIENTED_EDGE('',*,*,#151,.T.);
#101=ORIENTED_EDGE('',*,*,#160,.T.);
#102=ORIENTED_EDGE('',*,*,#188,.F.);
#103=ORIENTED_EDGE('',*,*,#191,.T.);
#104=ORIENTED_EDGE('',*,*,#181,.T.);
#105=ORIENTED_EDGE('',*,*,#163,.T.);
#106=ORIENTED_EDGE('',*,*,#192,.F.);
#107=ORIENTED_EDGE('',*,*,#193,.F.);
#108=ORIENTED_EDGE('',*,*,#186,.T.);
#109=ORIENTED_EDGE('',*,*,#170,.F.);
#110=ORIENTED_EDGE('',*,*,#180,.T.);
#111=ORIENTED_EDGE('',*,*,#191,.F.);
#112=ORIENTED_EDGE('',*,*,#187,.T.);
#113=ORIENTED_EDGE('',*,*,#176,.T.);
#114=ORIENTED_EDGE('',*,*,#194,.F.);
#115=ORIENTED_EDGE('',*,*,#193,.T.);
#116=ORIENTED_EDGE('',*,*,#194,.T.);
#117=ORIENTED_EDGE('',*,*,#195,.F.);
#118=ORIENTED_EDGE('',*,*,#192,.T.);
#119=ORIENTED_EDGE('',*,*,#195,.T.);
#120=ORIENTED_EDGE('',*,*,#196,.F.);
#121=ORIENTED_EDGE('',*,*,#168,.T.);
#122=ORIENTED_EDGE('',*,*,#196,.T.);
#123=ORIENTED_EDGE('',*,*,#197,.F.);
#124=ORIENTED_EDGE('',*,*,#198,.T.);
#125=ORIENTED_EDGE('',*,*,#199,.T.);
#126=ORIENTED_EDGE('',*,*,#200,.T.);
#127=ORIENTED_EDGE('',*,*,#173,.F.);
#128=ORIENTED_EDGE('',*,*,#190,.F.);
#129=ORIENTED_EDGE('',*,*,#200,.F.);
#130=ORIENTED_EDGE('',*,*,#201,.T.);
#131=ORIENTED_EDGE('',*,*,#157,.T.);
#132=ORIENTED_EDGE('',*,*,#174,.T.);
#133=ORIENTED_EDGE('',*,*,#159,.T.);
#134=ORIENTED_EDGE('',*,*,#202,.T.);
#135=ORIENTED_EDGE('',*,*,#198,.F.);
#136=ORIENTED_EDGE('',*,*,#189,.T.);
#137=ORIENTED_EDGE('',*,*,#158,.F.);
#138=ORIENTED_EDGE('',*,*,#201,.F.);
#139=ORIENTED_EDGE('',*,*,#199,.F.);
#140=ORIENTED_EDGE('',*,*,#202,.F.);
#141=ORIENTED_EDGE('',*,*,#197,.T.);
#142=ORIENTED_EDGE('',*,*,#156,.T.);
#143=ORIENTED_EDGE('',*,*,#203,.F.);
#144=ORIENTED_EDGE('',*,*,#179,.T.);
#145=ORIENTED_EDGE('',*,*,#203,.T.);
#146=EDGE_CURVE('',#204,#205,#246,.T.);
#147=EDGE_CURVE('',#205,#206,#247,.T.);
#148=EDGE_CURVE('',#206,#207,#248,.T.);
#149=EDGE_CURVE('',#207,#208,#249,.T.);
#150=EDGE_CURVE('',#208,#209,#250,.T.);
#151=EDGE_CURVE('',#204,#209,#251,.T.);
#152=EDGE_CURVE('',#210,#211,#252,.T.);
#153=EDGE_CURVE('',#212,#210,#253,.T.);
#154=EDGE_CURVE('',#212,#213,#254,.T.);
#155=EDGE_CURVE('',#213,#211,#255,.T.);
#156=EDGE_CURVE('',#214,#214,#18,.T.);
#157=EDGE_CURVE('',#215,#216,#256,.T.);
#158=EDGE_CURVE('',#215,#217,#19,.F.);
#159=EDGE_CURVE('',#218,#217,#257,.T.);
#160=EDGE_CURVE('',#209,#218,#258,.T.);
#161=EDGE_CURVE('',#208,#211,#259,.T.);
#162=EDGE_CURVE('',#219,#213,#260,.T.);
#163=EDGE_CURVE('',#220,#219,#261,.T.);
#164=EDGE_CURVE('',#220,#221,#262,.T.);
#165=EDGE_CURVE('',#222,#221,#263,.T.);
#166=EDGE_CURVE('',#223,#222,#264,.T.);
#167=EDGE_CURVE('',#216,#223,#265,.T.);
#168=EDGE_CURVE('',#224,#224,#20,.T.);
#169=EDGE_CURVE('',#221,#225,#266,.T.);
#170=EDGE_CURVE('',#225,#226,#267,.T.);
#171=EDGE_CURVE('',#222,#226,#268,.T.);
#172=EDGE_CURVE('',#227,#228,#269,.T.);
#173=EDGE_CURVE('',#228,#229,#270,.T.);
#174=EDGE_CURVE('',#216,#229,#271,.T.);
#175=EDGE_CURVE('',#223,#230,#272,.T.);
#176=EDGE_CURVE('',#231,#230,#273,.T.);
#177=EDGE_CURVE('',#231,#232,#274,.T.);
#178=EDGE_CURVE('',#227,#232,#275,.T.);
#179=EDGE_CURVE('',#233,#233,#21,.T.);
#180=EDGE_CURVE('',#225,#234,#276,.T.);
#181=EDGE_CURVE('',#234,#220,#277,.T.);
#182=EDGE_CURVE('',#212,#206,#278,.T.);
#183=EDGE_CURVE('',#210,#207,#279,.T.);
#184=EDGE_CURVE('',#205,#232,#280,.T.);
#185=EDGE_CURVE('',#204,#227,#281,.T.);
#186=EDGE_CURVE('',#230,#226,#282,.T.);
#187=EDGE_CURVE('',#235,#231,#283,.T.);
#188=EDGE_CURVE('',#235,#219,#284,.T.);
#189=EDGE_CURVE('',#236,#218,#285,.T.);
#190=EDGE_CURVE('',#236,#228,#286,.T.);
#191=EDGE_CURVE('',#235,#234,#287,.T.);
#192=EDGE_CURVE('',#237,#237,#22,.T.);
#193=EDGE_CURVE('',#238,#238,#23,.T.);
#194=EDGE_CURVE('',#239,#239,#24,.T.);
#195=EDGE_CURVE('',#240,#240,#25,.T.);
#196=EDGE_CURVE('',#241,#241,#26,.T.);
#197=EDGE_CURVE('',#242,#242,#27,.T.);
#198=EDGE_CURVE('',#236,#243,#288,.T.);
#199=EDGE_CURVE('',#243,#244,#28,.T.);
#200=EDGE_CURVE('',#244,#229,#289,.T.);
#201=EDGE_CURVE('',#244,#215,#290,.F.);
#202=EDGE_CURVE('',#217,#243,#291,.T.);
#203=EDGE_CURVE('',#245,#245,#29,.T.);
#204=VERTEX_POINT('',#643);
#205=VERTEX_POINT('',#644);
#206=VERTEX_POINT('',#646);
#207=VERTEX_POINT('',#648);
#208=VERTEX_POINT('',#650);
#209=VERTEX_POINT('',#652);
#210=VERTEX_POINT('',#656);
#211=VERTEX_POINT('',#657);
#212=VERTEX_POINT('',#659);
#213=VERTEX_POINT('',#661);
#214=VERTEX_POINT('',#665);
#215=VERTEX_POINT('',#667);
#216=VERTEX_POINT('',#668);
#217=VERTEX_POINT('',#670);
#218=VERTEX_POINT('',#672);
#219=VERTEX_POINT('',#676);
#220=VERTEX_POINT('',#678);
#221=VERTEX_POINT('',#680);
#222=VERTEX_POINT('',#682);
#223=VERTEX_POINT('',#684);
#224=VERTEX_POINT('',#687);
#225=VERTEX_POINT('',#690);
#226=VERTEX_POINT('',#692);
#227=VERTEX_POINT('',#696);
#228=VERTEX_POINT('',#697);
#229=VERTEX_POINT('',#699);
#230=VERTEX_POINT('',#702);
#231=VERTEX_POINT('',#704);
#232=VERTEX_POINT('',#706);
#233=VERTEX_POINT('',#710);
#234=VERTEX_POINT('',#712);
#235=VERTEX_POINT('',#724);
#236=VERTEX_POINT('',#729);
#237=VERTEX_POINT('',#735);
#238=VERTEX_POINT('',#737);
#239=VERTEX_POINT('',#740);
#240=VERTEX_POINT('',#744);
#241=VERTEX_POINT('',#748);
#242=VERTEX_POINT('',#752);
#243=VERTEX_POINT('',#754);
#244=VERTEX_POINT('',#756);
#245=VERTEX_POINT('',#766);
#246=LINE('',#642,#292);
#247=LINE('',#645,#293);
#248=LINE('',#647,#294);
#249=LINE('',#649,#295);
#250=LINE('',#651,#296);
#251=LINE('',#653,#297);
#252=LINE('',#655,#298);
#253=LINE('',#658,#299);
#254=LINE('',#660,#300);
#255=LINE('',#662,#301);
#256=LINE('',#666,#302);
#257=LINE('',#671,#303);
#258=LINE('',#673,#304);
#259=LINE('',#674,#305);
#260=LINE('',#675,#306);
#261=LINE('',#677,#307);
#262=LINE('',#679,#308);
#263=LINE('',#681,#309);
#264=LINE('',#683,#310);
#265=LINE('',#685,#311);
#266=LINE('',#689,#312);
#267=LINE('',#691,#313);
#268=LINE('',#693,#314);
#269=LINE('',#695,#315);
#270=LINE('',#698,#316);
#271=LINE('',#700,#317);
#272=LINE('',#701,#318);
#273=LINE('',#703,#319);
#274=LINE('',#705,#320);
#275=LINE('',#707,#321);
#276=LINE('',#711,#322);
#277=LINE('',#713,#323);
#278=LINE('',#715,#324);
#279=LINE('',#716,#325);
#280=LINE('',#718,#326);
#281=LINE('',#719,#327);
#282=LINE('',#721,#328);
#283=LINE('',#723,#329);
#284=LINE('',#725,#330);
#285=LINE('',#728,#331);
#286=LINE('',#730,#332);
#287=LINE('',#732,#333);
#288=LINE('',#753,#334);
#289=LINE('',#757,#335);
#290=LINE('',#759,#336);
#291=LINE('',#761,#337);
#292=VECTOR('',#518,1.);
#293=VECTOR('',#519,1.);
#294=VECTOR('',#520,1.);
#295=VECTOR('',#521,1.);
#296=VECTOR('',#522,1.);
#297=VECTOR('',#523,1.);
#298=VECTOR('',#526,1.);
#299=VECTOR('',#527,1.);
#300=VECTOR('',#528,1.);
#301=VECTOR('',#529,1.);
#302=VECTOR('',#534,1.);
#303=VECTOR('',#537,1.);
#304=VECTOR('',#538,1.);
#305=VECTOR('',#539,1.);
#306=VECTOR('',#540,1.);
#307=VECTOR('',#541,1.);
#308=VECTOR('',#542,1.);
#309=VECTOR('',#543,1.);
#310=VECTOR('',#544,1.);
#311=VECTOR('',#545,1.);
#312=VECTOR('',#550,1.);
#313=VECTOR('',#551,1.);
#314=VECTOR('',#552,1.);
#315=VECTOR('',#555,1.);
#316=VECTOR('',#556,1.);
#317=VECTOR('',#557,1.);
#318=VECTOR('',#558,1.);
#319=VECTOR('',#559,1.);
#320=VECTOR('',#560,1.);
#321=VECTOR('',#561,1.);
#322=VECTOR('',#566,1.);
#323=VECTOR('',#567,1.);
#324=VECTOR('',#570,1.);
#325=VECTOR('',#571,1.);
#326=VECTOR('',#574,1.);
#327=VECTOR('',#575,1.);
#328=VECTOR('',#578,1.);
#329=VECTOR('',#581,1.);
#330=VECTOR('',#582,1.);
#331=VECTOR('',#587,1.);
#332=VECTOR('',#588,1.);
#333=VECTOR('',#591,1.);
#334=VECTOR('',#620,1.);
#335=VECTOR('',#623,1.);
#336=VECTOR('',#626,1.);
#337=VECTOR('',#629,1.);
#338=EDGE_LOOP('',(#30,#31,#32,#33,#34,#35));
#339=EDGE_LOOP('',(#36,#37,#38,#39));
#340=EDGE_LOOP('',(#40));
#341=EDGE_LOOP('',(#41,#42,#43,#44,#45,#46,#47,#48,#49,#50,#51,#52,#53));
#342=EDGE_LOOP('',(#54));
#343=EDGE_LOOP('',(#55,#56,#57,#58));
#344=EDGE_LOOP('',(#59,#60,#61,#62,#63,#64,#65,#66));
#345=EDGE_LOOP('',(#67));
#346=EDGE_LOOP('',(#68,#69,#70,#71));
#347=EDGE_LOOP('',(#72,#73,#74,#75));
#348=EDGE_LOOP('',(#76,#77,#78,#79));
#349=EDGE_LOOP('',(#80,#81,#82,#83));
#350=EDGE_LOOP('',(#84,#85,#86,#87,#88,#89,#90,#91));
#351=EDGE_LOOP('',(#92,#93,#94,#95));
#352=EDGE_LOOP('',(#96,#97,#98,#99,#100,#101));
#353=EDGE_LOOP('',(#102,#103,#104,#105));
#354=EDGE_LOOP('',(#106));
#355=EDGE_LOOP('',(#107));
#356=EDGE_LOOP('',(#108,#109,#110,#111,#112,#113));
#357=EDGE_LOOP('',(#114));
#358=EDGE_LOOP('',(#115));
#359=EDGE_LOOP('',(#116));
#360=EDGE_LOOP('',(#117));
#361=EDGE_LOOP('',(#118));
#362=EDGE_LOOP('',(#119));
#363=EDGE_LOOP('',(#120));
#364=EDGE_LOOP('',(#121));
#365=EDGE_LOOP('',(#122));
#366=EDGE_LOOP('',(#123));
#367=EDGE_LOOP('',(#124,#125,#126,#127,#128));
#368=EDGE_LOOP('',(#129,#130,#131,#132));
#369=EDGE_LOOP('',(#133,#134,#135,#136));
#370=EDGE_LOOP('',(#137,#138,#139,#140));
#371=EDGE_LOOP('',(#141));
#372=EDGE_LOOP('',(#142));
#373=EDGE_LOOP('',(#143));
#374=EDGE_LOOP('',(#144));
#375=EDGE_LOOP('',(#145));
#376=FACE_BOUND('',#338,.T.);
#377=FACE_BOUND('',#339,.T.);
#378=FACE_BOUND('',#340,.T.);
#379=FACE_BOUND('',#341,.T.);
#380=FACE_BOUND('',#342,.T.);
#381=FACE_BOUND('',#343,.T.);
#382=FACE_BOUND('',#344,.T.);
#383=FACE_BOUND('',#345,.T.);
#384=FACE_BOUND('',#346,.T.);
#385=FACE_BOUND('',#347,.T.);
#386=FACE_BOUND('',#348,.T.);
#387=FACE_BOUND('',#349,.T.);
#388=FACE_BOUND('',#350,.T.);
#389=FACE_BOUND('',#351,.T.);
#390=FACE_BOUND('',#352,.T.);
#391=FACE_BOUND('',#353,.T.);
#392=FACE_BOUND('',#354,.T.);
#393=FACE_BOUND('',#355,.T.);
#394=FACE_BOUND('',#356,.T.);
#395=FACE_BOUND('',#357,.T.);
#396=FACE_BOUND('',#358,.T.);
#397=FACE_BOUND('',#359,.T.);
#398=FACE_BOUND('',#360,.T.);
#399=FACE_BOUND('',#361,.T.);
#400=FACE_BOUND('',#362,.T.);
#401=FACE_BOUND('',#363,.T.);
#402=FACE_BOUND('',#364,.T.);
#403=FACE_BOUND('',#365,.T.);
#404=FACE_BOUND('',#366,.T.);
#405=FACE_BOUND('',#367,.T.);
#406=FACE_BOUND('',#368,.T.);
#407=FACE_BOUND('',#369,.T.);
#408=FACE_BOUND('',#370,.T.);
#409=FACE_BOUND('',#371,.T.);
#410=FACE_BOUND('',#372,.T.);
#411=FACE_BOUND('',#373,.T.);
#412=FACE_BOUND('',#374,.T.);
#413=FACE_BOUND('',#375,.T.);
#414=PLANE('',#475);
#415=PLANE('',#476);
#416=PLANE('',#477);
#417=PLANE('',#481);
#418=PLANE('',#482);
#419=PLANE('',#483);
#420=PLANE('',#485);
#421=PLANE('',#486);
#422=PLANE('',#487);
#423=PLANE('',#488);
#424=PLANE('',#489);
#425=PLANE('',#490);
#426=PLANE('',#491);
#427=PLANE('',#492);
#428=PLANE('',#497);
#429=PLANE('',#500);
#430=PLANE('',#503);
#431=PLANE('',#504);
#432=PLANE('',#507);
#433=PLANE('',#508);
#434=PLANE('',#513);
#435=ADVANCED_FACE('',(#376),#414,.T.);
#436=ADVANCED_FACE('',(#377),#415,.F.);
#437=ADVANCED_FACE('',(#378,#379,#380),#416,.F.);
#438=ADVANCED_FACE('',(#381),#417,.F.);
#439=ADVANCED_FACE('',(#382),#418,.F.);
#440=ADVANCED_FACE('',(#383,#384),#419,.T.);
#441=ADVANCED_FACE('',(#385),#420,.T.);
#442=ADVANCED_FACE('',(#386),#421,.T.);
#443=ADVANCED_FACE('',(#387),#422,.T.);
#444=ADVANCED_FACE('',(#388),#423,.T.);
#445=ADVANCED_FACE('',(#389),#424,.F.);
#446=ADVANCED_FACE('',(#390),#425,.T.);
#447=ADVANCED_FACE('',(#391),#426,.T.);
#448=ADVANCED_FACE('',(#392,#393,#394),#427,.F.);
#449=ADVANCED_FACE('',(#395,#396),#12,.F.);
#450=ADVANCED_FACE('',(#397),#428,.T.);
#451=ADVANCED_FACE('',(#398,#399),#13,.F.);
#452=ADVANCED_FACE('',(#400),#429,.T.);
#453=ADVANCED_FACE('',(#401,#402),#14,.F.);
#454=ADVANCED_FACE('',(#403),#430,.T.);
#455=ADVANCED_FACE('',(#404,#405),#431,.T.);
#456=ADVANCED_FACE('',(#406),#432,.F.);
#457=ADVANCED_FACE('',(#407),#433,.T.);
#458=ADVANCED_FACE('',(#408),#15,.T.);
#459=ADVANCED_FACE('',(#409,#410),#16,.F.);
#460=ADVANCED_FACE('',(#411,#412),#17,.F.);
#461=ADVANCED_FACE('',(#413),#434,.T.);
#462=CLOSED_SHELL('',(#435,#436,#437,#438,#439,#440,#441,#442,#443,#444,
#445,#446,#447,#448,#449,#450,#451,#452,#453,#454,#455,#456,#457,#458,#459,
#460,#461));
#463=STYLED_ITEM('',(#464),#471);
#464=PRESENTATION_STYLE_ASSIGNMENT((#465));
#465=SURFACE_STYLE_USAGE(.BOTH.,#466);
#466=SURFACE_SIDE_STYLE('',(#467));
#467=SURFACE_STYLE_FILL_AREA(#468);
#468=FILL_AREA_STYLE('',(#469));
#469=FILL_AREA_STYLE_COLOUR('',#470);
#470=COLOUR_RGB('',0.8,0.776470588235294,0.713725490196078);
#471=MANIFOLD_SOLID_BREP('Base',#462);
#472=SHAPE_DEFINITION_REPRESENTATION(#774,#473);
#473=SHAPE_REPRESENTATION('Base',(#474),#769);
#474=AXIS2_PLACEMENT_3D('',#640,#514,#515);
#475=AXIS2_PLACEMENT_3D('',#641,#516,#517);
#476=AXIS2_PLACEMENT_3D('',#654,#524,#525);
#477=AXIS2_PLACEMENT_3D('',#663,#530,#531);
#478=AXIS2_PLACEMENT_3D('',#664,#532,#533);
#479=AXIS2_PLACEMENT_3D('',#669,#535,#536);
#480=AXIS2_PLACEMENT_3D('',#686,#546,#547);
#481=AXIS2_PLACEMENT_3D('',#688,#548,#549);
#482=AXIS2_PLACEMENT_3D('',#694,#553,#554);
#483=AXIS2_PLACEMENT_3D('',#708,#562,#563);
#484=AXIS2_PLACEMENT_3D('',#709,#564,#565);
#485=AXIS2_PLACEMENT_3D('',#714,#568,#569);
#486=AXIS2_PLACEMENT_3D('',#717,#572,#573);
#487=AXIS2_PLACEMENT_3D('',#720,#576,#577);
#488=AXIS2_PLACEMENT_3D('',#722,#579,#580);
#489=AXIS2_PLACEMENT_3D('',#726,#583,#584);
#490=AXIS2_PLACEMENT_3D('',#727,#585,#586);
#491=AXIS2_PLACEMENT_3D('',#731,#589,#590);
#492=AXIS2_PLACEMENT_3D('',#733,#592,#593);
#493=AXIS2_PLACEMENT_3D('',#734,#594,#595);
#494=AXIS2_PLACEMENT_3D('',#736,#596,#597);
#495=AXIS2_PLACEMENT_3D('',#738,#598,#599);
#496=AXIS2_PLACEMENT_3D('',#739,#600,#601);
#497=AXIS2_PLACEMENT_3D('',#741,#602,#603);
#498=AXIS2_PLACEMENT_3D('',#742,#604,#605);
#499=AXIS2_PLACEMENT_3D('',#743,#606,#607);
#500=AXIS2_PLACEMENT_3D('',#745,#608,#609);
#501=AXIS2_PLACEMENT_3D('',#746,#610,#611);
#502=AXIS2_PLACEMENT_3D('',#747,#612,#613);
#503=AXIS2_PLACEMENT_3D('',#749,#614,#615);
#504=AXIS2_PLACEMENT_3D('',#750,#616,#617);
#505=AXIS2_PLACEMENT_3D('',#751,#618,#619);
#506=AXIS2_PLACEMENT_3D('',#755,#621,#622);
#507=AXIS2_PLACEMENT_3D('',#758,#624,#625);
#508=AXIS2_PLACEMENT_3D('',#760,#627,#628);
#509=AXIS2_PLACEMENT_3D('',#762,#630,#631);
#510=AXIS2_PLACEMENT_3D('',#763,#632,#633);
#511=AXIS2_PLACEMENT_3D('',#764,#634,#635);
#512=AXIS2_PLACEMENT_3D('',#765,#636,#637);
#513=AXIS2_PLACEMENT_3D('',#767,#638,#639);
#514=DIRECTION('',(0.,0.,1.));
#515=DIRECTION('',(1.,0.,0.));
#516=DIRECTION('',(0.,0.,1.));
#517=DIRECTION('',(1.,0.,0.));
#518=DIRECTION('',(1.,0.,0.));
#519=DIRECTION('',(0.,1.,0.));
#520=DIRECTION('',(-1.,0.,0.));
#521=DIRECTION('',(0.,1.,0.));
#522=DIRECTION('',(-1.,0.,0.));
#523=DIRECTION('',(0.,1.,0.));
#524=DIRECTION('',(0.,0.,-1.));
#525=DIRECTION('',(-1.,0.,0.));
#526=DIRECTION('',(0.,1.,0.));
#527=DIRECTION('',(-1.,0.,0.));
#528=DIRECTION('',(0.,1.,0.));
#529=DIRECTION('',(-1.,0.,0.));
#530=DIRECTION('',(0.,-1.,0.));
#531=DIRECTION('',(0.,0.,-1.));
#532=DIRECTION('',(0.,1.,0.));
#533=DIRECTION('',(0.,0.,1.));
#534=DIRECTION('',(0.,0.,-1.));
#535=DIRECTION('',(0.,-1.,0.));
#536=DIRECTION('',(0.,0.,-1.));
#537=DIRECTION('',(-1.,0.,0.));
#538=DIRECTION('',(0.,0.,-1.));
#539=DIRECTION('',(0.,0.,-1.));
#540=DIRECTION('',(0.,0.,-1.));
#541=DIRECTION('',(-1.,0.,0.));
#542=DIRECTION('',(0.,0.,-1.));
#543=DIRECTION('',(1.,0.,0.));
#544=DIRECTION('',(0.,0.,-1.));
#545=DIRECTION('',(-1.,0.,0.));
#546=DIRECTION('',(0.,1.,0.));
#547=DIRECTION('',(0.,0.,1.));
#548=DIRECTION('',(0.,0.,1.));
#549=DIRECTION('',(1.,0.,0.));
#550=DIRECTION('',(0.,-1.,0.));
#551=DIRECTION('',(-1.,0.,0.));
#552=DIRECTION('',(0.,-1.,0.));
#553=DIRECTION('',(0.,0.,-1.));
#554=DIRECTION('',(-1.,0.,0.));
#555=DIRECTION('',(0.,1.,0.));
#556=DIRECTION('',(-1.,0.,0.));
#557=DIRECTION('',(0.,-1.,0.));
#558=DIRECTION('',(0.,-1.,0.));
#559=DIRECTION('',(-1.,0.,0.));
#560=DIRECTION('',(0.,1.,0.));
#561=DIRECTION('',(1.,0.,0.));
#562=DIRECTION('',(1.,0.,0.));
#563=DIRECTION('',(0.,1.,0.));
#564=DIRECTION('',(1.,0.,0.));
#565=DIRECTION('',(0.,0.,-1.));
#566=DIRECTION('',(0.,-2.78412409724673E-16,1.));
#567=DIRECTION('',(0.,1.,0.));
#568=DIRECTION('',(0.,1.,0.));
#569=DIRECTION('',(0.,0.,1.));
#570=DIRECTION('',(0.,0.,1.));
#571=DIRECTION('',(0.,0.,1.));
#572=DIRECTION('',(0.,-1.,0.));
#573=DIRECTION('',(0.,0.,-1.));
#574=DIRECTION('',(0.,0.,-1.));
#575=DIRECTION('',(0.,0.,-1.));
#576=DIRECTION('',(-1.,0.,0.));
#577=DIRECTION('',(0.,-1.,0.));
#578=DIRECTION('',(0.,2.78412409724673E-16,-1.));
#579=DIRECTION('',(-1.,0.,0.));
#580=DIRECTION('',(0.,0.,1.));
#581=DIRECTION('',(0.,0.,-1.));
#582=DIRECTION('',(0.,1.,0.));
#583=DIRECTION('',(-1.,0.,0.));
#584=DIRECTION('',(0.,0.,1.));
#585=DIRECTION('',(-1.,0.,0.));
#586=DIRECTION('',(0.,0.,1.));
#587=DIRECTION('',(0.,1.,0.));
#588=DIRECTION('',(0.,0.,-1.));
#589=DIRECTION('',(0.,0.,1.));
#590=DIRECTION('',(1.,0.,0.));
#591=DIRECTION('',(1.,0.,0.));
#592=DIRECTION('',(0.,1.,2.78412409724673E-16));
#593=DIRECTION('',(0.,-2.78412409724673E-16,1.));
#594=DIRECTION('',(0.,-1.,-2.78412409724673E-16));
#595=DIRECTION('',(0.,2.78412409724673E-16,-1.));
#596=DIRECTION('',(0.,-1.,-2.78412409724673E-16));
#597=DIRECTION('',(0.,2.78412409724673E-16,-1.));
#598=DIRECTION('',(0.,-1.,-2.78412409724673E-16));
#599=DIRECTION('',(0.,2.78412409724673E-16,-1.));
#600=DIRECTION('',(0.,-1.,-2.78412409724673E-16));
#601=DIRECTION('',(0.,2.78412409724673E-16,-1.));
#602=DIRECTION('',(0.,-1.,-2.78412409724673E-16));
#603=DIRECTION('',(1.,0.,0.));
#604=DIRECTION('',(0.,-1.,-2.78412409724673E-16));
#605=DIRECTION('',(0.,2.78412409724673E-16,-1.));
#606=DIRECTION('',(0.,-1.,-2.78412409724673E-16));
#607=DIRECTION('',(0.,2.78412409724673E-16,-1.));
#608=DIRECTION('',(0.,-1.,-2.78412409724673E-16));
#609=DIRECTION('',(1.,0.,0.));
#610=DIRECTION('',(0.,1.,0.));
#611=DIRECTION('',(0.,0.,1.));
#612=DIRECTION('',(0.,1.,0.));
#613=DIRECTION('',(0.,0.,1.));
#614=DIRECTION('',(0.,1.,0.));
#615=DIRECTION('',(-1.,0.,0.));
#616=DIRECTION('',(0.,-1.,0.));
#617=DIRECTION('',(0.,0.,-1.));
#618=DIRECTION('',(0.,-1.,0.));
#619=DIRECTION('',(0.,0.,-1.));
#620=DIRECTION('',(-1.,0.,0.));
#621=DIRECTION('',(0.,-1.,0.));
#622=DIRECTION('',(0.,0.,-1.));
#623=DIRECTION('',(0.,0.,-1.));
#624=DIRECTION('',(1.,0.,0.));
#625=DIRECTION('',(0.,0.,-1.));
#626=DIRECTION('',(0.,-1.,0.));
#627=DIRECTION('',(0.,0.,1.));
#628=DIRECTION('',(1.,0.,0.));
#629=DIRECTION('',(0.,-1.,0.));
#630=DIRECTION('',(0.,1.,0.));
#631=DIRECTION('',(0.,0.,1.));
#632=DIRECTION('',(0.,1.,0.));
#633=DIRECTION('',(0.,0.,1.));
#634=DIRECTION('',(1.,0.,0.));
#635=DIRECTION('',(0.,0.,-1.));
#636=DIRECTION('',(1.,0.,0.));
#637=DIRECTION('',(0.,0.,-1.));
#638=DIRECTION('',(1.,0.,0.));
#639=DIRECTION('',(0.,1.,0.));
#640=CARTESIAN_POINT('',(0.,0.,0.));
#641=CARTESIAN_POINT('',(0.0541233874408504,0.0597434231355429,-0.0242363577485084));
#642=CARTESIAN_POINT('',(0.0629087409377098,0.0416000231355429,-0.0242363577485084));
#643=CARTESIAN_POINT('',(0.0419087409377098,0.0416000231355429,-0.0242363577485084));
#644=CARTESIAN_POINT('',(0.0779087409377098,0.0416000231355429,-0.0242363577485084));
#645=CARTESIAN_POINT('',(0.0779087409377098,0.0666000231355429,-0.0242363577485084));
#646=CARTESIAN_POINT('',(0.0779087409377098,0.0516000231355429,-0.0242363577485084));
#647=CARTESIAN_POINT('',(0.0629087409377098,0.0516000231355429,-0.0242363577485084));
#648=CARTESIAN_POINT('',(0.0479087409377098,0.0516000231355429,-0.0242363577485084));
#649=CARTESIAN_POINT('',(0.0479087409377098,0.0666000231355429,-0.0242363577485084));
#650=CARTESIAN_POINT('',(0.0479087409377098,0.0816000231355429,-0.0242363577485084));
#651=CARTESIAN_POINT('',(0.016,0.0816000231355429,-0.0242363577485084));
#652=CARTESIAN_POINT('',(0.0419087409377098,0.0816000231355429,-0.0242363577485084));
#653=CARTESIAN_POINT('',(0.0419087409377098,0.0666000231355429,-0.0242363577485084));
#654=CARTESIAN_POINT('',(0.016,0.0361000231355429,-0.0532363577485085));
#655=CARTESIAN_POINT('',(0.0479087409377098,0.0666000231355429,-0.0532363577485085));
#656=CARTESIAN_POINT('',(0.0479087409377098,0.0516000231355429,-0.0532363577485085));
#657=CARTESIAN_POINT('',(0.0479087409377098,0.0816000231355429,-0.0532363577485085));
#658=CARTESIAN_POINT('',(0.0629087409377098,0.0516000231355429,-0.0532363577485085));
#659=CARTESIAN_POINT('',(0.0779087409377098,0.0516000231355429,-0.0532363577485085));
#660=CARTESIAN_POINT('',(0.0779087409377098,0.0666000231355429,-0.0532363577485085));
#661=CARTESIAN_POINT('',(0.0779087409377098,0.0816000231355429,-0.0532363577485085));
#662=CARTESIAN_POINT('',(0.016,0.0816000231355429,-0.0532363577485085));
#663=CARTESIAN_POINT('',(-0.013,0.0816000231355429,-0.0547363577485085));
#664=CARTESIAN_POINT('',(0.0369087409377098,0.0816000231355429,-0.0482363577485084));
#665=CARTESIAN_POINT('',(0.0369087409377098,0.0816000231355429,-0.0462363577485084));
#666=CARTESIAN_POINT('',(0.0319087409377099,0.0816000231355429,-0.0432363577485084));
#667=CARTESIAN_POINT('',(0.0319087409377099,0.0816000231355429,-0.0482363577485084));
#668=CARTESIAN_POINT('',(0.0319087409377099,0.0816000231355429,-0.0532363577485085));
#669=CARTESIAN_POINT('',(0.0369087409377098,0.0816000231355429,-0.0482363577485084));
#670=CARTESIAN_POINT('',(0.0369087409377098,0.0816000231355429,-0.0432363577485084));
#671=CARTESIAN_POINT('',(0.016,0.0816000231355429,-0.0432363577485084));
#672=CARTESIAN_POINT('',(0.0419087409377098,0.0816000231355429,-0.0432363577485084));
#673=CARTESIAN_POINT('',(0.0419087409377098,0.0816000231355429,-0.0242363577485084));
#674=CARTESIAN_POINT('',(0.0479087409377098,0.0816000231355429,-0.0242363577485084));
#675=CARTESIAN_POINT('',(0.0779087409377098,0.0816000231355429,-0.0242363577485084));
#676=CARTESIAN_POINT('',(0.0779087409377098,0.0816000231355429,0.0187636422514916));
#677=CARTESIAN_POINT('',(0.016,0.0816000231355429,0.0187636422514916));
#678=CARTESIAN_POINT('',(0.0900000009377098,0.0816000231355429,0.0187636422514916));
#679=CARTESIAN_POINT('',(0.09,0.0816000231355429,-0.0547363577485085));
#680=CARTESIAN_POINT('',(0.09,0.0816000231355429,-0.0572363577485084));
#681=CARTESIAN_POINT('',(-0.013,0.0816000231355429,-0.0572363577485084));
#682=CARTESIAN_POINT('',(-0.009,0.0816000231355429,-0.0572363577485084));
#683=CARTESIAN_POINT('',(-0.009,0.0816000231355429,-0.0547363577485085));
#684=CARTESIAN_POINT('',(-0.009,0.0816000231355429,-0.0532363577485085));
#685=CARTESIAN_POINT('',(0.016,0.0816000231355429,-0.0532363577485085));
#686=CARTESIAN_POINT('',(0.08395437,0.0816000231355429,-0.0511907277485084));
#687=CARTESIAN_POINT('',(0.08395437,0.0816000231355429,-0.0491907277485084));
#688=CARTESIAN_POINT('',(-0.013,0.0341000231355429,-0.0572363577485084));
#689=CARTESIAN_POINT('',(0.09,0.0341000231355429,-0.0572363577485084));
#690=CARTESIAN_POINT('',(0.09,-0.0093999768644571,-0.0572363577485084));
#691=CARTESIAN_POINT('',(-0.013,-0.0093999768644571,-0.0572363577485084));
#692=CARTESIAN_POINT('',(-0.009,-0.0093999768644571,-0.0572363577485084));
#693=CARTESIAN_POINT('',(-0.009,0.0341000231355429,-0.0572363577485084));
#694=CARTESIAN_POINT('',(0.016,0.0361000231355429,-0.0532363577485085));
#695=CARTESIAN_POINT('',(0.0419087409377098,0.0666000231355429,-0.0532363577485085));
#696=CARTESIAN_POINT('',(0.0419087409377098,0.0416000231355429,-0.0532363577485085));
#697=CARTESIAN_POINT('',(0.0419087409377098,0.0746000231355428,-0.0532363577485085));
#698=CARTESIAN_POINT('',(0.0369087409377098,0.0746000231355428,-0.0532363577485085));
#699=CARTESIAN_POINT('',(0.0319087409377099,0.0746000231355428,-0.0532363577485085));
#700=CARTESIAN_POINT('',(0.0319087409377099,0.0781000231355429,-0.0532363577485085));
#701=CARTESIAN_POINT('',(-0.009,0.0361000231355429,-0.0532363577485085));
#702=CARTESIAN_POINT('',(-0.009,-0.0093999768644571,-0.0532363577485085));
#703=CARTESIAN_POINT('',(0.016,-0.0093999768644571,-0.0532363577485084));
#704=CARTESIAN_POINT('',(0.0779087409377098,-0.0093999768644571,-0.0532363577485085));
#705=CARTESIAN_POINT('',(0.0779087409377098,-0.00939997686445716,-0.0532363577485085));
#706=CARTESIAN_POINT('',(0.0779087409377098,0.0416000231355429,-0.0532363577485085));
#707=CARTESIAN_POINT('',(0.0629087409377098,0.0416000231355429,-0.0532363577485085));
#708=CARTESIAN_POINT('',(0.09,0.0341000231355429,0.0327636422514916));
#709=CARTESIAN_POINT('',(0.0900000009377098,0.0361000231355429,-0.0512363577485085));
#710=CARTESIAN_POINT('',(0.0900000009377098,0.0361000231355429,-0.0532363577485085));
#711=CARTESIAN_POINT('',(0.09,-0.00939997686445713,0.0327636422514915));
#712=CARTESIAN_POINT('',(0.0900000009377098,-0.00939997686445716,0.0187636422514916));
#713=CARTESIAN_POINT('',(0.0900000009377098,0.0666000231355429,0.0187636422514916));
#714=CARTESIAN_POINT('',(0.0629087409377098,0.0516000231355429,-0.0532363577485085));
#715=CARTESIAN_POINT('',(0.0779087409377098,0.0516000231355429,-0.0532363577485085));
#716=CARTESIAN_POINT('',(0.0479087409377098,0.0516000231355429,-0.0532363577485085));
#717=CARTESIAN_POINT('',(0.0629087409377098,0.0416000231355429,-0.0532363577485085));
#718=CARTESIAN_POINT('',(0.0779087409377098,0.0416000231355429,0.0157636422514916));
#719=CARTESIAN_POINT('',(0.0419087409377098,0.0416000231355429,-0.0242363577485084));
#720=CARTESIAN_POINT('',(-0.009,0.0341000231355429,0.0327636422514916));
#721=CARTESIAN_POINT('',(-0.009,-0.00939997686445713,0.0327636422514915));
#722=CARTESIAN_POINT('',(0.0779087409377098,0.0666000231355429,-0.0242363577485084));
#723=CARTESIAN_POINT('',(0.0779087409377098,-0.00939997686445716,0.0157636422514916));
#724=CARTESIAN_POINT('',(0.0779087409377098,-0.00939997686445712,0.0187636422514916));
#725=CARTESIAN_POINT('',(0.0779087409377098,0.0666000231355429,0.0187636422514916));
#726=CARTESIAN_POINT('',(0.0479087409377098,0.0666000231355429,-0.0242363577485084));
#727=CARTESIAN_POINT('',(0.0419087409377098,0.0666000231355429,-0.0242363577485084));
#728=CARTESIAN_POINT('',(0.0419087409377098,0.0666000231355429,-0.0432363577485084));
#729=CARTESIAN_POINT('',(0.0419087409377098,0.0746000231355428,-0.0432363577485084));
#730=CARTESIAN_POINT('',(0.0419087409377098,0.0746000231355428,-0.0432363577485084));
#731=CARTESIAN_POINT('',(0.0629087409377098,0.0616000231355428,0.0187636422514916));
#732=CARTESIAN_POINT('',(0.0629087409377098,-0.00939997686445716,0.0187636422514916));
#733=CARTESIAN_POINT('',(0.016,-0.00939997686445711,-0.0127363577485084));
#734=CARTESIAN_POINT('',(0.0839543709377098,-0.00939997686445712,0.0127636422514915));
#735=CARTESIAN_POINT('',(0.0839543709377098,-0.00939997686445712,0.0107636422514915));
#736=CARTESIAN_POINT('',(0.0839543704688549,-0.00939997686445711,-0.0472363577485085));
#737=CARTESIAN_POINT('',(0.0839543704688549,-0.00939997686445711,-0.0492363577485085));
#738=CARTESIAN_POINT('',(0.0839543704688549,0.000600023135542895,-0.0472363577485085));
#739=CARTESIAN_POINT('',(0.0839543704688549,0.000600023135542895,-0.0472363577485085));
#740=CARTESIAN_POINT('',(0.0839543704688549,0.000600023135542896,-0.0492363577485085));
#741=CARTESIAN_POINT('',(0.0405000004688549,0.000600023135542888,-0.0192363577485085));
#742=CARTESIAN_POINT('',(0.0839543709377098,0.000600023135542879,0.0127636422514915));
#743=CARTESIAN_POINT('',(0.0839543709377098,0.000600023135542879,0.0127636422514915));
#744=CARTESIAN_POINT('',(0.0839543709377098,0.00060002313554288,0.0107636422514915));
#745=CARTESIAN_POINT('',(0.0405000004688549,0.000600023135542888,-0.0192363577485085));
#746=CARTESIAN_POINT('',(0.08395437,0.0716000231355429,-0.0511907277485084));
#747=CARTESIAN_POINT('',(0.08395437,0.0716000231355429,-0.0511907277485084));
#748=CARTESIAN_POINT('',(0.08395437,0.0716000231355429,-0.0491907277485084));
#749=CARTESIAN_POINT('',(0.0839543709377098,0.0716000231355429,0.0327636422514915));
#750=CARTESIAN_POINT('',(0.0369087409377098,0.0746000231355428,-0.0432363577485084));
#751=CARTESIAN_POINT('',(0.0369087409377098,0.0746000231355428,-0.0482363577485084));
#752=CARTESIAN_POINT('',(0.0369087409377098,0.0746000231355428,-0.0502363577485084));
#753=CARTESIAN_POINT('',(0.0369087409377098,0.0746000231355428,-0.0432363577485084));
#754=CARTESIAN_POINT('',(0.0369087409377098,0.0746000231355428,-0.0432363577485084));
#755=CARTESIAN_POINT('',(0.0369087409377098,0.0746000231355428,-0.0482363577485084));
#756=CARTESIAN_POINT('',(0.0319087409377099,0.0746000231355428,-0.0482363577485084));
#757=CARTESIAN_POINT('',(0.0319087409377099,0.0746000231355428,-0.0432363577485084));
#758=CARTESIAN_POINT('',(0.0319087409377099,0.0781000231355429,-0.0432363577485084));
#759=CARTESIAN_POINT('',(0.0319087409377099,0.0816000231355429,-0.0482363577485084));
#760=CARTESIAN_POINT('',(0.0344543704688549,0.0361000231355429,-0.0432363577485084));
#761=CARTESIAN_POINT('',(0.0369087409377098,0.0746000231355428,-0.0432363577485084));
#762=CARTESIAN_POINT('',(0.0369087409377098,0.0361000231355429,-0.0482363577485084));
#763=CARTESIAN_POINT('',(0.0369087409377098,0.0566000231355429,-0.0482363577485084));
#764=CARTESIAN_POINT('',(0.0800000009377098,0.0361000231355429,-0.0512363577485085));
#765=CARTESIAN_POINT('',(0.0800000009377098,0.0361000231355429,-0.0512363577485085));
#766=CARTESIAN_POINT('',(0.0800000009377098,0.0361000231355429,-0.0532363577485085));
#767=CARTESIAN_POINT('',(0.0800000009377098,0.0361000231355429,0.0327636422514915));
#768=MECHANICAL_DESIGN_GEOMETRIC_PRESENTATION_REPRESENTATION('',(#463),
#769);
#769=(
GEOMETRIC_REPRESENTATION_CONTEXT(3)
GLOBAL_UNCERTAINTY_ASSIGNED_CONTEXT((#770))
GLOBAL_UNIT_ASSIGNED_CONTEXT((#773,#772,#771))
REPRESENTATION_CONTEXT('Base','TOP_LEVEL_ASSEMBLY_PART')
);
#770=UNCERTAINTY_MEASURE_WITH_UNIT(LENGTH_MEASURE(1.E-8),#773,
'DISTANCE_ACCURACY_VALUE','Maximum Tolerance applied to model');
#771=(
NAMED_UNIT(*)
SI_UNIT($,.STERADIAN.)
SOLID_ANGLE_UNIT()
);
#772=(
NAMED_UNIT(*)
PLANE_ANGLE_UNIT()
SI_UNIT($,.RADIAN.)
);
#773=(
LENGTH_UNIT()
NAMED_UNIT(*)
SI_UNIT($,.METRE.)
);
#774=PRODUCT_DEFINITION_SHAPE('','',#775);
#775=PRODUCT_DEFINITION('','',#777,#776);
#776=PRODUCT_DEFINITION_CONTEXT('',#783,'design');
#777=PRODUCT_DEFINITION_FORMATION_WITH_SPECIFIED_SOURCE('','',#779,
 .NOT_KNOWN.);
#778=PRODUCT_RELATED_PRODUCT_CATEGORY('','',(#779));
#779=PRODUCT('Base','Base','Base',(#781));
#780=PRODUCT_CATEGORY('','');
#781=PRODUCT_CONTEXT('',#783,'mechanical');
#782=APPLICATION_PROTOCOL_DEFINITION('international standard',
'ap242_managed_model_based_3d_engineering',2020,#783);
#783=APPLICATION_CONTEXT('managed model based 3d engineering');
ENDSEC;
END-ISO-10303-21;
