ISO-10303-21;
HEADER;
/* Generated by software containing ST-Developer
 * from STEP Tools, Inc. (www.steptools.com) 
 */
/* OPTION: using custom renumber hook */

FILE_DESCRIPTION(
/* description */ ('STEP AP242 Edition 2',
'CAx-IF Rec.Pracs.---Representation and Presentation of Product Manufa
cturing Information (PMI)---4.0---2014-10-13',
'CAx-IF Rec.Pracs.---3D Tessellated Geometry---0.4---2014-09-14','2;1',
'CAx-IF Rec.Pracs.---User Defined Attributes---1.5---2016-08-15'),
/* implementation_level */ '2;1');

FILE_NAME(
/* name */ 'Assembly 1 - Coin Insert Housing',
/* time_stamp */ '2026-07-14T16:54:41Z',
/* author */ (''),
/* organization */ (''),
/* preprocessor_version */ 'ST-DEVELOPER v20',
/* originating_system */ 'ONSHAPE BY PTC INC, 1.217',
/* authorisation */ '  ');

FILE_SCHEMA (('AP242_MANAGED_MODEL_BASED_3D_ENGINEERING_MIM_LF { 1 0 10303 442 3 1 4 }'));
ENDSEC;

DATA;
#10=SHAPE_REPRESENTATION_RELATIONSHIP('','',#641,#11);
#11=ADVANCED_BREP_SHAPE_REPRESENTATION('',(#639),#1063);
#12=CYLINDRICAL_SURFACE('',#677,0.008);
#13=CYLINDRICAL_SURFACE('',#678,0.063252424130765);
#14=CYLINDRICAL_SURFACE('',#682,0.005);
#15=CYLINDRICAL_SURFACE('',#683,0.002);
#16=CYLINDRICAL_SURFACE('',#686,0.002);
#17=CYLINDRICAL_SURFACE('',#689,0.005);
#18=CYLINDRICAL_SURFACE('',#692,0.05);
#19=CYLINDRICAL_SURFACE('',#693,0.05);
#20=CYLINDRICAL_SURFACE('',#694,0.04);
#21=CYLINDRICAL_SURFACE('',#695,0.04);
#22=CYLINDRICAL_SURFACE('',#696,0.002);
#23=CYLINDRICAL_SURFACE('',#699,0.002);
#24=CYLINDRICAL_SURFACE('',#701,0.002);
#25=CYLINDRICAL_SURFACE('',#702,0.002);
#26=CIRCLE('',#648,0.002);
#27=CIRCLE('',#649,0.002);
#28=CIRCLE('',#650,0.04);
#29=CIRCLE('',#651,0.05);
#30=CIRCLE('',#652,0.005);
#31=CIRCLE('',#653,0.002);
#32=CIRCLE('',#655,0.002);
#33=CIRCLE('',#656,0.002);
#34=CIRCLE('',#657,0.05);
#35=CIRCLE('',#658,0.04);
#36=CIRCLE('',#659,0.005);
#37=CIRCLE('',#661,0.002);
#38=CIRCLE('',#662,0.002);
#39=CIRCLE('',#663,0.04);
#40=CIRCLE('',#664,0.05);
#41=CIRCLE('',#665,0.005);
#42=CIRCLE('',#666,0.008);
#43=CIRCLE('',#667,0.063252424130765);
#44=CIRCLE('',#669,0.002);
#45=CIRCLE('',#670,0.002);
#46=CIRCLE('',#671,0.002);
#47=CIRCLE('',#672,0.05);
#48=CIRCLE('',#673,0.04);
#49=CIRCLE('',#674,0.0632524241307651);
#50=CIRCLE('',#675,0.008);
#51=CIRCLE('',#676,0.005);
#52=CIRCLE('',#680,0.002);
#53=CIRCLE('',#697,0.002);
#54=ORIENTED_EDGE('',*,*,#222,.T.);
#55=ORIENTED_EDGE('',*,*,#223,.F.);
#56=ORIENTED_EDGE('',*,*,#224,.F.);
#57=ORIENTED_EDGE('',*,*,#225,.T.);
#58=ORIENTED_EDGE('',*,*,#226,.T.);
#59=ORIENTED_EDGE('',*,*,#225,.F.);
#60=ORIENTED_EDGE('',*,*,#227,.F.);
#61=ORIENTED_EDGE('',*,*,#228,.T.);
#62=ORIENTED_EDGE('',*,*,#228,.F.);
#63=ORIENTED_EDGE('',*,*,#229,.F.);
#64=ORIENTED_EDGE('',*,*,#230,.T.);
#65=ORIENTED_EDGE('',*,*,#231,.T.);
#66=ORIENTED_EDGE('',*,*,#223,.T.);
#67=ORIENTED_EDGE('',*,*,#232,.T.);
#68=ORIENTED_EDGE('',*,*,#233,.T.);
#69=ORIENTED_EDGE('',*,*,#234,.F.);
#70=ORIENTED_EDGE('',*,*,#235,.T.);
#71=ORIENTED_EDGE('',*,*,#236,.F.);
#72=ORIENTED_EDGE('',*,*,#237,.F.);
#73=ORIENTED_EDGE('',*,*,#238,.T.);
#74=ORIENTED_EDGE('',*,*,#239,.F.);
#75=ORIENTED_EDGE('',*,*,#240,.T.);
#76=ORIENTED_EDGE('',*,*,#241,.F.);
#77=ORIENTED_EDGE('',*,*,#242,.F.);
#78=ORIENTED_EDGE('',*,*,#243,.F.);
#79=ORIENTED_EDGE('',*,*,#244,.T.);
#80=ORIENTED_EDGE('',*,*,#245,.T.);
#81=ORIENTED_EDGE('',*,*,#246,.T.);
#82=ORIENTED_EDGE('',*,*,#247,.F.);
#83=ORIENTED_EDGE('',*,*,#248,.T.);
#84=ORIENTED_EDGE('',*,*,#249,.F.);
#85=ORIENTED_EDGE('',*,*,#250,.T.);
#86=ORIENTED_EDGE('',*,*,#232,.F.);
#87=ORIENTED_EDGE('',*,*,#222,.F.);
#88=ORIENTED_EDGE('',*,*,#226,.F.);
#89=ORIENTED_EDGE('',*,*,#231,.F.);
#90=ORIENTED_EDGE('',*,*,#251,.F.);
#91=ORIENTED_EDGE('',*,*,#252,.F.);
#92=ORIENTED_EDGE('',*,*,#253,.T.);
#93=ORIENTED_EDGE('',*,*,#254,.T.);
#94=ORIENTED_EDGE('',*,*,#255,.T.);
#95=ORIENTED_EDGE('',*,*,#256,.F.);
#96=ORIENTED_EDGE('',*,*,#238,.F.);
#97=ORIENTED_EDGE('',*,*,#257,.F.);
#98=ORIENTED_EDGE('',*,*,#258,.T.);
#99=ORIENTED_EDGE('',*,*,#259,.F.);
#100=ORIENTED_EDGE('',*,*,#260,.F.);
#101=ORIENTED_EDGE('',*,*,#261,.T.);
#102=ORIENTED_EDGE('',*,*,#262,.F.);
#103=ORIENTED_EDGE('',*,*,#263,.T.);
#104=ORIENTED_EDGE('',*,*,#264,.T.);
#105=ORIENTED_EDGE('',*,*,#265,.T.);
#106=ORIENTED_EDGE('',*,*,#266,.T.);
#107=ORIENTED_EDGE('',*,*,#267,.T.);
#108=ORIENTED_EDGE('',*,*,#268,.F.);
#109=ORIENTED_EDGE('',*,*,#269,.F.);
#110=ORIENTED_EDGE('',*,*,#236,.T.);
#111=ORIENTED_EDGE('',*,*,#270,.T.);
#112=ORIENTED_EDGE('',*,*,#271,.T.);
#113=ORIENTED_EDGE('',*,*,#272,.F.);
#114=ORIENTED_EDGE('',*,*,#273,.T.);
#115=ORIENTED_EDGE('',*,*,#274,.T.);
#116=ORIENTED_EDGE('',*,*,#275,.T.);
#117=ORIENTED_EDGE('',*,*,#276,.T.);
#118=ORIENTED_EDGE('',*,*,#277,.T.);
#119=ORIENTED_EDGE('',*,*,#278,.T.);
#120=ORIENTED_EDGE('',*,*,#279,.T.);
#121=ORIENTED_EDGE('',*,*,#280,.T.);
#122=ORIENTED_EDGE('',*,*,#281,.F.);
#123=ORIENTED_EDGE('',*,*,#234,.T.);
#124=ORIENTED_EDGE('',*,*,#282,.T.);
#125=ORIENTED_EDGE('',*,*,#283,.T.);
#126=ORIENTED_EDGE('',*,*,#284,.F.);
#127=ORIENTED_EDGE('',*,*,#285,.T.);
#128=ORIENTED_EDGE('',*,*,#286,.F.);
#129=ORIENTED_EDGE('',*,*,#280,.F.);
#130=ORIENTED_EDGE('',*,*,#287,.F.);
#131=ORIENTED_EDGE('',*,*,#271,.F.);
#132=ORIENTED_EDGE('',*,*,#279,.F.);
#133=ORIENTED_EDGE('',*,*,#288,.T.);
#134=ORIENTED_EDGE('',*,*,#272,.T.);
#135=ORIENTED_EDGE('',*,*,#287,.T.);
#136=ORIENTED_EDGE('',*,*,#289,.F.);
#137=ORIENTED_EDGE('',*,*,#278,.F.);
#138=ORIENTED_EDGE('',*,*,#290,.T.);
#139=ORIENTED_EDGE('',*,*,#244,.F.);
#140=ORIENTED_EDGE('',*,*,#291,.F.);
#141=ORIENTED_EDGE('',*,*,#292,.F.);
#142=ORIENTED_EDGE('',*,*,#239,.T.);
#143=ORIENTED_EDGE('',*,*,#256,.T.);
#144=ORIENTED_EDGE('',*,*,#293,.T.);
#145=ORIENTED_EDGE('',*,*,#263,.F.);
#146=ORIENTED_EDGE('',*,*,#288,.F.);
#147=ORIENTED_EDGE('',*,*,#235,.F.);
#148=ORIENTED_EDGE('',*,*,#281,.T.);
#149=ORIENTED_EDGE('',*,*,#286,.T.);
#150=ORIENTED_EDGE('',*,*,#270,.F.);
#151=ORIENTED_EDGE('',*,*,#248,.F.);
#152=ORIENTED_EDGE('',*,*,#294,.F.);
#153=ORIENTED_EDGE('',*,*,#284,.T.);
#154=ORIENTED_EDGE('',*,*,#295,.F.);
#155=ORIENTED_EDGE('',*,*,#275,.F.);
#156=ORIENTED_EDGE('',*,*,#251,.T.);
#157=ORIENTED_EDGE('',*,*,#283,.F.);
#158=ORIENTED_EDGE('',*,*,#296,.T.);
#159=ORIENTED_EDGE('',*,*,#249,.T.);
#160=ORIENTED_EDGE('',*,*,#295,.T.);
#161=ORIENTED_EDGE('',*,*,#233,.F.);
#162=ORIENTED_EDGE('',*,*,#250,.F.);
#163=ORIENTED_EDGE('',*,*,#296,.F.);
#164=ORIENTED_EDGE('',*,*,#282,.F.);
#165=ORIENTED_EDGE('',*,*,#262,.T.);
#166=ORIENTED_EDGE('',*,*,#253,.F.);
#167=ORIENTED_EDGE('',*,*,#268,.T.);
#168=ORIENTED_EDGE('',*,*,#297,.F.);
#169=ORIENTED_EDGE('',*,*,#258,.F.);
#170=ORIENTED_EDGE('',*,*,#298,.F.);
#171=ORIENTED_EDGE('',*,*,#237,.T.);
#172=ORIENTED_EDGE('',*,*,#269,.T.);
#173=ORIENTED_EDGE('',*,*,#298,.T.);
#174=ORIENTED_EDGE('',*,*,#257,.T.);
#175=ORIENTED_EDGE('',*,*,#267,.F.);
#176=ORIENTED_EDGE('',*,*,#299,.F.);
#177=ORIENTED_EDGE('',*,*,#259,.T.);
#178=ORIENTED_EDGE('',*,*,#297,.T.);
#179=ORIENTED_EDGE('',*,*,#247,.T.);
#180=ORIENTED_EDGE('',*,*,#300,.T.);
#181=ORIENTED_EDGE('',*,*,#285,.F.);
#182=ORIENTED_EDGE('',*,*,#294,.T.);
#183=ORIENTED_EDGE('',*,*,#266,.F.);
#184=ORIENTED_EDGE('',*,*,#301,.T.);
#185=ORIENTED_EDGE('',*,*,#260,.T.);
#186=ORIENTED_EDGE('',*,*,#299,.T.);
#187=ORIENTED_EDGE('',*,*,#246,.F.);
#188=ORIENTED_EDGE('',*,*,#302,.T.);
#189=ORIENTED_EDGE('',*,*,#276,.F.);
#190=ORIENTED_EDGE('',*,*,#300,.F.);
#191=ORIENTED_EDGE('',*,*,#265,.F.);
#192=ORIENTED_EDGE('',*,*,#303,.T.);
#193=ORIENTED_EDGE('',*,*,#254,.F.);
#194=ORIENTED_EDGE('',*,*,#301,.F.);
#195=ORIENTED_EDGE('',*,*,#277,.F.);
#196=ORIENTED_EDGE('',*,*,#302,.F.);
#197=ORIENTED_EDGE('',*,*,#245,.F.);
#198=ORIENTED_EDGE('',*,*,#290,.F.);
#199=ORIENTED_EDGE('',*,*,#264,.F.);
#200=ORIENTED_EDGE('',*,*,#293,.F.);
#201=ORIENTED_EDGE('',*,*,#255,.F.);
#202=ORIENTED_EDGE('',*,*,#303,.F.);
#203=ORIENTED_EDGE('',*,*,#304,.F.);
#204=ORIENTED_EDGE('',*,*,#289,.T.);
#205=ORIENTED_EDGE('',*,*,#304,.T.);
#206=ORIENTED_EDGE('',*,*,#252,.T.);
#207=ORIENTED_EDGE('',*,*,#261,.F.);
#208=ORIENTED_EDGE('',*,*,#230,.F.);
#209=ORIENTED_EDGE('',*,*,#305,.F.);
#210=ORIENTED_EDGE('',*,*,#291,.T.);
#211=ORIENTED_EDGE('',*,*,#243,.T.);
#212=ORIENTED_EDGE('',*,*,#242,.T.);
#213=ORIENTED_EDGE('',*,*,#274,.F.);
#214=ORIENTED_EDGE('',*,*,#241,.T.);
#215=ORIENTED_EDGE('',*,*,#273,.F.);
#216=ORIENTED_EDGE('',*,*,#240,.F.);
#217=ORIENTED_EDGE('',*,*,#292,.T.);
#218=ORIENTED_EDGE('',*,*,#305,.T.);
#219=ORIENTED_EDGE('',*,*,#229,.T.);
#220=ORIENTED_EDGE('',*,*,#227,.T.);
#221=ORIENTED_EDGE('',*,*,#224,.T.);
#222=EDGE_CURVE('',#306,#307,#366,.T.);
#223=EDGE_CURVE('',#308,#307,#367,.T.);
#224=EDGE_CURVE('',#309,#308,#368,.T.);
#225=EDGE_CURVE('',#309,#306,#369,.T.);
#226=EDGE_CURVE('',#310,#306,#370,.T.);
#227=EDGE_CURVE('',#311,#309,#371,.T.);
#228=EDGE_CURVE('',#311,#310,#372,.T.);
#229=EDGE_CURVE('',#312,#311,#373,.T.);
#230=EDGE_CURVE('',#312,#313,#374,.T.);
#231=EDGE_CURVE('',#313,#310,#375,.T.);
#232=EDGE_CURVE('',#307,#314,#376,.T.);
#233=EDGE_CURVE('',#314,#315,#377,.T.);
#234=EDGE_CURVE('',#316,#315,#378,.T.);
#235=EDGE_CURVE('',#316,#317,#379,.T.);
#236=EDGE_CURVE('',#318,#317,#380,.T.);
#237=EDGE_CURVE('',#319,#318,#381,.T.);
#238=EDGE_CURVE('',#319,#320,#382,.T.);
#239=EDGE_CURVE('',#321,#320,#383,.T.);
#240=EDGE_CURVE('',#321,#308,#384,.T.);
#241=EDGE_CURVE('',#322,#322,#26,.T.);
#242=EDGE_CURVE('',#323,#323,#27,.T.);
#243=EDGE_CURVE('',#324,#313,#385,.T.);
#244=EDGE_CURVE('',#324,#325,#386,.T.);
#245=EDGE_CURVE('',#325,#326,#28,.T.);
#246=EDGE_CURVE('',#326,#327,#29,.F.);
#247=EDGE_CURVE('',#328,#327,#387,.T.);
#248=EDGE_CURVE('',#328,#329,#30,.T.);
#249=EDGE_CURVE('',#330,#329,#388,.T.);
#250=EDGE_CURVE('',#330,#314,#389,.T.);
#251=EDGE_CURVE('',#331,#331,#31,.T.);
#252=EDGE_CURVE('',#332,#332,#32,.T.);
#253=EDGE_CURVE('',#333,#333,#33,.T.);
#254=EDGE_CURVE('',#334,#335,#34,.F.);
#255=EDGE_CURVE('',#335,#336,#35,.T.);
#256=EDGE_CURVE('',#320,#336,#390,.T.);
#257=EDGE_CURVE('',#337,#319,#391,.T.);
#258=EDGE_CURVE('',#337,#338,#392,.T.);
#259=EDGE_CURVE('',#339,#338,#36,.T.);
#260=EDGE_CURVE('',#334,#339,#393,.T.);
#261=EDGE_CURVE('',#340,#340,#37,.T.);
#262=EDGE_CURVE('',#341,#341,#38,.T.);
#263=EDGE_CURVE('',#342,#343,#394,.T.);
#264=EDGE_CURVE('',#343,#344,#39,.F.);
#265=EDGE_CURVE('',#344,#345,#40,.T.);
#266=EDGE_CURVE('',#345,#346,#395,.T.);
#267=EDGE_CURVE('',#346,#347,#41,.T.);
#268=EDGE_CURVE('',#348,#347,#396,.T.);
#269=EDGE_CURVE('',#318,#348,#397,.T.);
#270=EDGE_CURVE('',#317,#349,#398,.T.);
#271=EDGE_CURVE('',#349,#350,#42,.T.);
#272=EDGE_CURVE('',#342,#350,#43,.T.);
#273=EDGE_CURVE('',#351,#351,#44,.T.);
#274=EDGE_CURVE('',#352,#352,#45,.T.);
#275=EDGE_CURVE('',#353,#353,#46,.T.);
#276=EDGE_CURVE('',#354,#355,#47,.T.);
#277=EDGE_CURVE('',#355,#356,#48,.F.);
#278=EDGE_CURVE('',#356,#357,#399,.T.);
#279=EDGE_CURVE('',#357,#358,#49,.T.);
#280=EDGE_CURVE('',#358,#359,#50,.T.);
#281=EDGE_CURVE('',#316,#359,#400,.T.);
#282=EDGE_CURVE('',#315,#360,#401,.T.);
#283=EDGE_CURVE('',#360,#361,#402,.T.);
#284=EDGE_CURVE('',#362,#361,#51,.T.);
#285=EDGE_CURVE('',#362,#354,#403,.T.);
#286=EDGE_CURVE('',#359,#349,#404,.F.);
#287=EDGE_CURVE('',#350,#358,#405,.F.);
#288=EDGE_CURVE('',#357,#342,#406,.T.);
#289=EDGE_CURVE('',#363,#363,#52,.T.);
#290=EDGE_CURVE('',#356,#325,#407,.T.);
#291=EDGE_CURVE('',#364,#324,#408,.T.);
#292=EDGE_CURVE('',#321,#364,#409,.T.);
#293=EDGE_CURVE('',#336,#343,#410,.T.);
#294=EDGE_CURVE('',#362,#328,#411,.T.);
#295=EDGE_CURVE('',#329,#361,#412,.T.);
#296=EDGE_CURVE('',#360,#330,#413,.T.);
#297=EDGE_CURVE('',#338,#347,#414,.T.);
#298=EDGE_CURVE('',#348,#337,#415,.T.);
#299=EDGE_CURVE('',#339,#346,#416,.T.);
#300=EDGE_CURVE('',#327,#354,#417,.F.);
#301=EDGE_CURVE('',#345,#334,#418,.F.);
#302=EDGE_CURVE('',#326,#355,#419,.F.);
#303=EDGE_CURVE('',#344,#335,#420,.F.);
#304=EDGE_CURVE('',#365,#365,#53,.T.);
#305=EDGE_CURVE('',#364,#312,#421,.T.);
#306=VERTEX_POINT('',#887);
#307=VERTEX_POINT('',#888);
#308=VERTEX_POINT('',#890);
#309=VERTEX_POINT('',#892);
#310=VERTEX_POINT('',#896);
#311=VERTEX_POINT('',#898);
#312=VERTEX_POINT('',#902);
#313=VERTEX_POINT('',#904);
#314=VERTEX_POINT('',#908);
#315=VERTEX_POINT('',#910);
#316=VERTEX_POINT('',#912);
#317=VERTEX_POINT('',#914);
#318=VERTEX_POINT('',#916);
#319=VERTEX_POINT('',#918);
#320=VERTEX_POINT('',#920);
#321=VERTEX_POINT('',#922);
#322=VERTEX_POINT('',#926);
#323=VERTEX_POINT('',#928);
#324=VERTEX_POINT('',#930);
#325=VERTEX_POINT('',#932);
#326=VERTEX_POINT('',#934);
#327=VERTEX_POINT('',#936);
#328=VERTEX_POINT('',#938);
#329=VERTEX_POINT('',#940);
#330=VERTEX_POINT('',#942);
#331=VERTEX_POINT('',#945);
#332=VERTEX_POINT('',#948);
#333=VERTEX_POINT('',#950);
#334=VERTEX_POINT('',#952);
#335=VERTEX_POINT('',#953);
#336=VERTEX_POINT('',#955);
#337=VERTEX_POINT('',#958);
#338=VERTEX_POINT('',#960);
#339=VERTEX_POINT('',#962);
#340=VERTEX_POINT('',#966);
#341=VERTEX_POINT('',#968);
#342=VERTEX_POINT('',#970);
#343=VERTEX_POINT('',#971);
#344=VERTEX_POINT('',#973);
#345=VERTEX_POINT('',#975);
#346=VERTEX_POINT('',#977);
#347=VERTEX_POINT('',#979);
#348=VERTEX_POINT('',#981);
#349=VERTEX_POINT('',#984);
#350=VERTEX_POINT('',#986);
#351=VERTEX_POINT('',#990);
#352=VERTEX_POINT('',#992);
#353=VERTEX_POINT('',#994);
#354=VERTEX_POINT('',#996);
#355=VERTEX_POINT('',#997);
#356=VERTEX_POINT('',#999);
#357=VERTEX_POINT('',#1001);
#358=VERTEX_POINT('',#1003);
#359=VERTEX_POINT('',#1005);
#360=VERTEX_POINT('',#1008);
#361=VERTEX_POINT('',#1010);
#362=VERTEX_POINT('',#1012);
#363=VERTEX_POINT('',#1021);
#364=VERTEX_POINT('',#1024);
#365=VERTEX_POINT('',#1054);
#366=LINE('',#886,#422);
#367=LINE('',#889,#423);
#368=LINE('',#891,#424);
#369=LINE('',#893,#425);
#370=LINE('',#895,#426);
#371=LINE('',#897,#427);
#372=LINE('',#899,#428);
#373=LINE('',#901,#429);
#374=LINE('',#903,#430);
#375=LINE('',#905,#431);
#376=LINE('',#907,#432);
#377=LINE('',#909,#433);
#378=LINE('',#911,#434);
#379=LINE('',#913,#435);
#380=LINE('',#915,#436);
#381=LINE('',#917,#437);
#382=LINE('',#919,#438);
#383=LINE('',#921,#439);
#384=LINE('',#923,#440);
#385=LINE('',#929,#441);
#386=LINE('',#931,#442);
#387=LINE('',#937,#443);
#388=LINE('',#941,#444);
#389=LINE('',#943,#445);
#390=LINE('',#956,#446);
#391=LINE('',#957,#447);
#392=LINE('',#959,#448);
#393=LINE('',#963,#449);
#394=LINE('',#969,#450);
#395=LINE('',#976,#451);
#396=LINE('',#980,#452);
#397=LINE('',#982,#453);
#398=LINE('',#983,#454);
#399=LINE('',#1000,#455);
#400=LINE('',#1006,#456);
#401=LINE('',#1007,#457);
#402=LINE('',#1009,#458);
#403=LINE('',#1013,#459);
#404=LINE('',#1015,#460);
#405=LINE('',#1016,#461);
#406=LINE('',#1018,#462);
#407=LINE('',#1022,#463);
#408=LINE('',#1023,#464);
#409=LINE('',#1025,#465);
#410=LINE('',#1026,#466);
#411=LINE('',#1029,#467);
#412=LINE('',#1030,#468);
#413=LINE('',#1033,#469);
#414=LINE('',#1037,#470);
#415=LINE('',#1038,#471);
#416=LINE('',#1041,#472);
#417=LINE('',#1043,#473);
#418=LINE('',#1045,#474);
#419=LINE('',#1047,#475);
#420=LINE('',#1049,#476);
#421=LINE('',#1058,#477);
#422=VECTOR('',#708,1.);
#423=VECTOR('',#709,1.);
#424=VECTOR('',#710,1.);
#425=VECTOR('',#711,1.);
#426=VECTOR('',#714,1.);
#427=VECTOR('',#715,1.);
#428=VECTOR('',#716,1.);
#429=VECTOR('',#719,1.);
#430=VECTOR('',#720,1.);
#431=VECTOR('',#721,1.);
#432=VECTOR('',#724,1.);
#433=VECTOR('',#725,1.);
#434=VECTOR('',#726,1.);
#435=VECTOR('',#727,1.);
#436=VECTOR('',#728,1.);
#437=VECTOR('',#729,1.);
#438=VECTOR('',#730,1.);
#439=VECTOR('',#731,1.);
#440=VECTOR('',#732,1.);
#441=VECTOR('',#739,1.);
#442=VECTOR('',#740,1.);
#443=VECTOR('',#745,1.);
#444=VECTOR('',#748,1.);
#445=VECTOR('',#749,1.);
#446=VECTOR('',#762,1.);
#447=VECTOR('',#763,1.);
#448=VECTOR('',#764,1.);
#449=VECTOR('',#767,1.);
#450=VECTOR('',#774,1.);
#451=VECTOR('',#779,1.);
#452=VECTOR('',#782,1.);
#453=VECTOR('',#783,1.);
#454=VECTOR('',#784,1.);
#455=VECTOR('',#801,1.);
#456=VECTOR('',#806,1.);
#457=VECTOR('',#807,1.);
#458=VECTOR('',#808,1.);
#459=VECTOR('',#811,1.);
#460=VECTOR('',#814,1.);
#461=VECTOR('',#815,1.);
#462=VECTOR('',#818,1.);
#463=VECTOR('',#823,1.);
#464=VECTOR('',#824,1.);
#465=VECTOR('',#825,1.);
#466=VECTOR('',#826,1.);
#467=VECTOR('',#831,1.);
#468=VECTOR('',#832,1.);
#469=VECTOR('',#837,1.);
#470=VECTOR('',#844,1.);
#471=VECTOR('',#845,1.);
#472=VECTOR('',#850,1.);
#473=VECTOR('',#853,1.);
#474=VECTOR('',#856,1.);
#475=VECTOR('',#859,1.);
#476=VECTOR('',#862,1.);
#477=VECTOR('',#877,1.);
#478=EDGE_LOOP('',(#54,#55,#56,#57));
#479=EDGE_LOOP('',(#58,#59,#60,#61));
#480=EDGE_LOOP('',(#62,#63,#64,#65));
#481=EDGE_LOOP('',(#66,#67,#68,#69,#70,#71,#72,#73,#74,#75));
#482=EDGE_LOOP('',(#76));
#483=EDGE_LOOP('',(#77));
#484=EDGE_LOOP('',(#78,#79,#80,#81,#82,#83,#84,#85,#86,#87,#88,#89));
#485=EDGE_LOOP('',(#90));
#486=EDGE_LOOP('',(#91));
#487=EDGE_LOOP('',(#92));
#488=EDGE_LOOP('',(#93,#94,#95,#96,#97,#98,#99,#100));
#489=EDGE_LOOP('',(#101));
#490=EDGE_LOOP('',(#102));
#491=EDGE_LOOP('',(#103,#104,#105,#106,#107,#108,#109,#110,#111,#112,#113));
#492=EDGE_LOOP('',(#114));
#493=EDGE_LOOP('',(#115));
#494=EDGE_LOOP('',(#116));
#495=EDGE_LOOP('',(#117,#118,#119,#120,#121,#122,#123,#124,#125,#126,#127));
#496=EDGE_LOOP('',(#128,#129,#130,#131));
#497=EDGE_LOOP('',(#132,#133,#134,#135));
#498=EDGE_LOOP('',(#136));
#499=EDGE_LOOP('',(#137,#138,#139,#140,#141,#142,#143,#144,#145,#146));
#500=EDGE_LOOP('',(#147,#148,#149,#150));
#501=EDGE_LOOP('',(#151,#152,#153,#154));
#502=EDGE_LOOP('',(#155));
#503=EDGE_LOOP('',(#156));
#504=EDGE_LOOP('',(#157,#158,#159,#160));
#505=EDGE_LOOP('',(#161,#162,#163,#164));
#506=EDGE_LOOP('',(#165));
#507=EDGE_LOOP('',(#166));
#508=EDGE_LOOP('',(#167,#168,#169,#170));
#509=EDGE_LOOP('',(#171,#172,#173,#174));
#510=EDGE_LOOP('',(#175,#176,#177,#178));
#511=EDGE_LOOP('',(#179,#180,#181,#182));
#512=EDGE_LOOP('',(#183,#184,#185,#186));
#513=EDGE_LOOP('',(#187,#188,#189,#190));
#514=EDGE_LOOP('',(#191,#192,#193,#194));
#515=EDGE_LOOP('',(#195,#196,#197,#198));
#516=EDGE_LOOP('',(#199,#200,#201,#202));
#517=EDGE_LOOP('',(#203));
#518=EDGE_LOOP('',(#204));
#519=EDGE_LOOP('',(#205));
#520=EDGE_LOOP('',(#206));
#521=EDGE_LOOP('',(#207));
#522=EDGE_LOOP('',(#208,#209,#210,#211));
#523=EDGE_LOOP('',(#212));
#524=EDGE_LOOP('',(#213));
#525=EDGE_LOOP('',(#214));
#526=EDGE_LOOP('',(#215));
#527=EDGE_LOOP('',(#216,#217,#218,#219,#220,#221));
#528=FACE_BOUND('',#478,.T.);
#529=FACE_BOUND('',#479,.T.);
#530=FACE_BOUND('',#480,.T.);
#531=FACE_BOUND('',#481,.T.);
#532=FACE_BOUND('',#482,.T.);
#533=FACE_BOUND('',#483,.T.);
#534=FACE_BOUND('',#484,.T.);
#535=FACE_BOUND('',#485,.T.);
#536=FACE_BOUND('',#486,.T.);
#537=FACE_BOUND('',#487,.T.);
#538=FACE_BOUND('',#488,.T.);
#539=FACE_BOUND('',#489,.T.);
#540=FACE_BOUND('',#490,.T.);
#541=FACE_BOUND('',#491,.T.);
#542=FACE_BOUND('',#492,.T.);
#543=FACE_BOUND('',#493,.T.);
#544=FACE_BOUND('',#494,.T.);
#545=FACE_BOUND('',#495,.T.);
#546=FACE_BOUND('',#496,.T.);
#547=FACE_BOUND('',#497,.T.);
#548=FACE_BOUND('',#498,.T.);
#549=FACE_BOUND('',#499,.T.);
#550=FACE_BOUND('',#500,.T.);
#551=FACE_BOUND('',#501,.T.);
#552=FACE_BOUND('',#502,.T.);
#553=FACE_BOUND('',#503,.T.);
#554=FACE_BOUND('',#504,.T.);
#555=FACE_BOUND('',#505,.T.);
#556=FACE_BOUND('',#506,.T.);
#557=FACE_BOUND('',#507,.T.);
#558=FACE_BOUND('',#508,.T.);
#559=FACE_BOUND('',#509,.T.);
#560=FACE_BOUND('',#510,.T.);
#561=FACE_BOUND('',#511,.T.);
#562=FACE_BOUND('',#512,.T.);
#563=FACE_BOUND('',#513,.T.);
#564=FACE_BOUND('',#514,.T.);
#565=FACE_BOUND('',#515,.T.);
#566=FACE_BOUND('',#516,.T.);
#567=FACE_BOUND('',#517,.T.);
#568=FACE_BOUND('',#518,.T.);
#569=FACE_BOUND('',#519,.T.);
#570=FACE_BOUND('',#520,.T.);
#571=FACE_BOUND('',#521,.T.);
#572=FACE_BOUND('',#522,.T.);
#573=FACE_BOUND('',#523,.T.);
#574=FACE_BOUND('',#524,.T.);
#575=FACE_BOUND('',#525,.T.);
#576=FACE_BOUND('',#526,.T.);
#577=FACE_BOUND('',#527,.T.);
#578=PLANE('',#643);
#579=PLANE('',#644);
#580=PLANE('',#645);
#581=PLANE('',#646);
#582=PLANE('',#647);
#583=PLANE('',#654);
#584=PLANE('',#660);
#585=PLANE('',#668);
#586=PLANE('',#679);
#587=PLANE('',#681);
#588=PLANE('',#684);
#589=PLANE('',#685);
#590=PLANE('',#687);
#591=PLANE('',#688);
#592=PLANE('',#690);
#593=PLANE('',#691);
#594=PLANE('',#698);
#595=PLANE('',#700);
#596=PLANE('',#703);
#597=ADVANCED_FACE('',(#528),#578,.F.);
#598=ADVANCED_FACE('',(#529),#579,.F.);
#599=ADVANCED_FACE('',(#530),#580,.F.);
#600=ADVANCED_FACE('',(#531),#581,.F.);
#601=ADVANCED_FACE('',(#532,#533,#534,#535),#582,.T.);
#602=ADVANCED_FACE('',(#536,#537,#538),#583,.T.);
#603=ADVANCED_FACE('',(#539,#540,#541),#584,.F.);
#604=ADVANCED_FACE('',(#542,#543,#544,#545),#585,.F.);
#605=ADVANCED_FACE('',(#546),#12,.T.);
#606=ADVANCED_FACE('',(#547),#13,.F.);
#607=ADVANCED_FACE('',(#548,#549),#586,.F.);
#608=ADVANCED_FACE('',(#550),#587,.T.);
#609=ADVANCED_FACE('',(#551),#14,.T.);
#610=ADVANCED_FACE('',(#552,#553),#15,.F.);
#611=ADVANCED_FACE('',(#554),#588,.T.);
#612=ADVANCED_FACE('',(#555),#589,.T.);
#613=ADVANCED_FACE('',(#556,#557),#16,.F.);
#614=ADVANCED_FACE('',(#558),#590,.T.);
#615=ADVANCED_FACE('',(#559),#591,.T.);
#616=ADVANCED_FACE('',(#560),#17,.T.);
#617=ADVANCED_FACE('',(#561),#592,.F.);
#618=ADVANCED_FACE('',(#562),#593,.F.);
#619=ADVANCED_FACE('',(#563),#18,.F.);
#620=ADVANCED_FACE('',(#564),#19,.F.);
#621=ADVANCED_FACE('',(#565),#20,.T.);
#622=ADVANCED_FACE('',(#566),#21,.T.);
#623=ADVANCED_FACE('',(#567,#568),#22,.F.);
#624=ADVANCED_FACE('',(#569),#594,.T.);
#625=ADVANCED_FACE('',(#570,#571),#23,.F.);
#626=ADVANCED_FACE('',(#572),#595,.T.);
#627=ADVANCED_FACE('',(#573,#574),#24,.F.);
#628=ADVANCED_FACE('',(#575,#576),#25,.F.);
#629=ADVANCED_FACE('',(#577),#596,.T.);
#630=CLOSED_SHELL('',(#597,#598,#599,#600,#601,#602,#603,#604,#605,#606,
#607,#608,#609,#610,#611,#612,#613,#614,#615,#616,#617,#618,#619,#620,#621,
#622,#623,#624,#625,#626,#627,#628,#629));
#631=STYLED_ITEM('',(#632),#639);
#632=PRESENTATION_STYLE_ASSIGNMENT((#633));
#633=SURFACE_STYLE_USAGE(.BOTH.,#634);
#634=SURFACE_SIDE_STYLE('',(#635));
#635=SURFACE_STYLE_FILL_AREA(#636);
#636=FILL_AREA_STYLE('',(#637));
#637=FILL_AREA_STYLE_COLOUR('',#638);
#638=COLOUR_RGB('',0.8,0.776470588235294,0.713725490196078);
#639=MANIFOLD_SOLID_BREP('Coin Insert Housing',#630);
#640=SHAPE_DEFINITION_REPRESENTATION(#1068,#641);
#641=SHAPE_REPRESENTATION('Coin Insert Housing',(#642),#1063);
#642=AXIS2_PLACEMENT_3D('',#884,#704,#705);
#643=AXIS2_PLACEMENT_3D('',#885,#706,#707);
#644=AXIS2_PLACEMENT_3D('',#894,#712,#713);
#645=AXIS2_PLACEMENT_3D('',#900,#717,#718);
#646=AXIS2_PLACEMENT_3D('',#906,#722,#723);
#647=AXIS2_PLACEMENT_3D('',#924,#733,#734);
#648=AXIS2_PLACEMENT_3D('',#925,#735,#736);
#649=AXIS2_PLACEMENT_3D('',#927,#737,#738);
#650=AXIS2_PLACEMENT_3D('',#933,#741,#742);
#651=AXIS2_PLACEMENT_3D('',#935,#743,#744);
#652=AXIS2_PLACEMENT_3D('',#939,#746,#747);
#653=AXIS2_PLACEMENT_3D('',#944,#750,#751);
#654=AXIS2_PLACEMENT_3D('',#946,#752,#753);
#655=AXIS2_PLACEMENT_3D('',#947,#754,#755);
#656=AXIS2_PLACEMENT_3D('',#949,#756,#757);
#657=AXIS2_PLACEMENT_3D('',#951,#758,#759);
#658=AXIS2_PLACEMENT_3D('',#954,#760,#761);
#659=AXIS2_PLACEMENT_3D('',#961,#765,#766);
#660=AXIS2_PLACEMENT_3D('',#964,#768,#769);
#661=AXIS2_PLACEMENT_3D('',#965,#770,#771);
#662=AXIS2_PLACEMENT_3D('',#967,#772,#773);
#663=AXIS2_PLACEMENT_3D('',#972,#775,#776);
#664=AXIS2_PLACEMENT_3D('',#974,#777,#778);
#665=AXIS2_PLACEMENT_3D('',#978,#780,#781);
#666=AXIS2_PLACEMENT_3D('',#985,#785,#786);
#667=AXIS2_PLACEMENT_3D('',#987,#787,#788);
#668=AXIS2_PLACEMENT_3D('',#988,#789,#790);
#669=AXIS2_PLACEMENT_3D('',#989,#791,#792);
#670=AXIS2_PLACEMENT_3D('',#991,#793,#794);
#671=AXIS2_PLACEMENT_3D('',#993,#795,#796);
#672=AXIS2_PLACEMENT_3D('',#995,#797,#798);
#673=AXIS2_PLACEMENT_3D('',#998,#799,#800);
#674=AXIS2_PLACEMENT_3D('',#1002,#802,#803);
#675=AXIS2_PLACEMENT_3D('',#1004,#804,#805);
#676=AXIS2_PLACEMENT_3D('',#1011,#809,#810);
#677=AXIS2_PLACEMENT_3D('',#1014,#812,#813);
#678=AXIS2_PLACEMENT_3D('',#1017,#816,#817);
#679=AXIS2_PLACEMENT_3D('',#1019,#819,#820);
#680=AXIS2_PLACEMENT_3D('',#1020,#821,#822);
#681=AXIS2_PLACEMENT_3D('',#1027,#827,#828);
#682=AXIS2_PLACEMENT_3D('',#1028,#829,#830);
#683=AXIS2_PLACEMENT_3D('',#1031,#833,#834);
#684=AXIS2_PLACEMENT_3D('',#1032,#835,#836);
#685=AXIS2_PLACEMENT_3D('',#1034,#838,#839);
#686=AXIS2_PLACEMENT_3D('',#1035,#840,#841);
#687=AXIS2_PLACEMENT_3D('',#1036,#842,#843);
#688=AXIS2_PLACEMENT_3D('',#1039,#846,#847);
#689=AXIS2_PLACEMENT_3D('',#1040,#848,#849);
#690=AXIS2_PLACEMENT_3D('',#1042,#851,#852);
#691=AXIS2_PLACEMENT_3D('',#1044,#854,#855);
#692=AXIS2_PLACEMENT_3D('',#1046,#857,#858);
#693=AXIS2_PLACEMENT_3D('',#1048,#860,#861);
#694=AXIS2_PLACEMENT_3D('',#1050,#863,#864);
#695=AXIS2_PLACEMENT_3D('',#1051,#865,#866);
#696=AXIS2_PLACEMENT_3D('',#1052,#867,#868);
#697=AXIS2_PLACEMENT_3D('',#1053,#869,#870);
#698=AXIS2_PLACEMENT_3D('',#1055,#871,#872);
#699=AXIS2_PLACEMENT_3D('',#1056,#873,#874);
#700=AXIS2_PLACEMENT_3D('',#1057,#875,#876);
#701=AXIS2_PLACEMENT_3D('',#1059,#878,#879);
#702=AXIS2_PLACEMENT_3D('',#1060,#880,#881);
#703=AXIS2_PLACEMENT_3D('',#1061,#882,#883);
#704=DIRECTION('',(0.,0.,1.));
#705=DIRECTION('',(1.,0.,0.));
#706=DIRECTION('',(0.,1.,0.));
#707=DIRECTION('',(0.,0.,1.));
#708=DIRECTION('',(0.,0.,-1.));
#709=DIRECTION('',(-1.,0.,0.));
#710=DIRECTION('',(0.,0.,-1.));
#711=DIRECTION('',(-1.,0.,0.));
#712=DIRECTION('',(0.,0.,-1.));
#713=DIRECTION('',(-1.,0.,0.));
#714=DIRECTION('',(0.,-1.,0.));
#715=DIRECTION('',(0.,-1.,0.));
#716=DIRECTION('',(-1.,0.,0.));
#717=DIRECTION('',(0.,-1.,0.));
#718=DIRECTION('',(0.,0.,-1.));
#719=DIRECTION('',(0.,0.,1.));
#720=DIRECTION('',(-1.,0.,0.));
#721=DIRECTION('',(0.,0.,1.));
#722=DIRECTION('',(0.,0.,1.));
#723=DIRECTION('',(1.,0.,0.));
#724=DIRECTION('',(0.,-1.,0.));
#725=DIRECTION('',(-1.,0.,0.));
#726=DIRECTION('',(0.,-1.,0.));
#727=DIRECTION('',(-1.,0.,0.));
#728=DIRECTION('',(0.,1.,0.));
#729=DIRECTION('',(1.,0.,0.));
#730=DIRECTION('',(0.,1.,0.));
#731=DIRECTION('',(-1.,0.,0.));
#732=DIRECTION('',(0.,-1.,0.));
#733=DIRECTION('',(1.,0.,0.));
#734=DIRECTION('',(0.,1.,0.));
#735=DIRECTION('',(1.,0.,0.));
#736=DIRECTION('',(0.,0.,-1.));
#737=DIRECTION('',(1.,0.,0.));
#738=DIRECTION('',(0.,0.,-1.));
#739=DIRECTION('',(0.,-1.,0.));
#740=DIRECTION('',(0.,0.,1.));
#741=DIRECTION('',(1.,0.,0.));
#742=DIRECTION('',(0.,0.,-1.));
#743=DIRECTION('',(1.,0.,0.));
#744=DIRECTION('',(0.,0.,-1.));
#745=DIRECTION('',(0.,1.,0.));
#746=DIRECTION('',(1.,0.,0.));
#747=DIRECTION('',(0.,0.,-1.));
#748=DIRECTION('',(0.,0.516063559959312,0.856550291624562));
#749=DIRECTION('',(0.,2.7390370673318E-16,-1.));
#750=DIRECTION('',(1.,0.,0.));
#751=DIRECTION('',(0.,0.,-1.));
#752=DIRECTION('',(-1.,0.,0.));
#753=DIRECTION('',(0.,-1.,0.));
#754=DIRECTION('',(-1.,0.,0.));
#755=DIRECTION('',(0.,0.,1.));
#756=DIRECTION('',(1.,0.,0.));
#757=DIRECTION('',(0.,0.,-1.));
#758=DIRECTION('',(-1.,0.,0.));
#759=DIRECTION('',(0.,0.,1.));
#760=DIRECTION('',(-1.,0.,0.));
#761=DIRECTION('',(0.,0.,1.));
#762=DIRECTION('',(0.,0.,1.));
#763=DIRECTION('',(0.,2.7390370673318E-16,-1.));
#764=DIRECTION('',(0.,0.516063559959312,0.856550291624562));
#765=DIRECTION('',(1.,0.,0.));
#766=DIRECTION('',(0.,0.,-1.));
#767=DIRECTION('',(0.,-1.,0.));
#768=DIRECTION('',(-1.,0.,0.));
#769=DIRECTION('',(0.,-1.,0.));
#770=DIRECTION('',(-1.,0.,0.));
#771=DIRECTION('',(0.,0.,1.));
#772=DIRECTION('',(1.,0.,0.));
#773=DIRECTION('',(0.,0.,-1.));
#774=DIRECTION('',(0.,0.,1.));
#775=DIRECTION('',(-1.,0.,0.));
#776=DIRECTION('',(0.,0.,1.));
#777=DIRECTION('',(-1.,0.,0.));
#778=DIRECTION('',(0.,0.,1.));
#779=DIRECTION('',(0.,-1.,0.));
#780=DIRECTION('',(1.,0.,0.));
#781=DIRECTION('',(0.,0.,-1.));
#782=DIRECTION('',(0.,0.516063559959312,0.856550291624562));
#783=DIRECTION('',(2.73903706733181E-16,-2.7390370673318E-16,1.));
#784=DIRECTION('',(0.,0.619819679875823,0.784744266903959));
#785=DIRECTION('',(-1.,0.,0.));
#786=DIRECTION('',(0.,0.,1.));
#787=DIRECTION('',(-1.,0.,0.));
#788=DIRECTION('',(0.,0.,1.));
#789=DIRECTION('',(1.,0.,0.));
#790=DIRECTION('',(0.,1.,0.));
#791=DIRECTION('',(1.,0.,0.));
#792=DIRECTION('',(0.,0.,-1.));
#793=DIRECTION('',(1.,0.,0.));
#794=DIRECTION('',(0.,0.,-1.));
#795=DIRECTION('',(1.,0.,0.));
#796=DIRECTION('',(0.,0.,-1.));
#797=DIRECTION('',(1.,0.,0.));
#798=DIRECTION('',(0.,0.,-1.));
#799=DIRECTION('',(1.,0.,0.));
#800=DIRECTION('',(0.,0.,-1.));
#801=DIRECTION('',(0.,0.,-1.));
#802=DIRECTION('',(-1.,0.,0.));
#803=DIRECTION('',(0.,0.,-1.));
#804=DIRECTION('',(1.,0.,0.));
#805=DIRECTION('',(0.,0.,-1.));
#806=DIRECTION('',(0.,0.619819679875823,0.784744266903959));
#807=DIRECTION('',(-2.73903706733181E-16,-2.7390370673318E-16,1.));
#808=DIRECTION('',(0.,0.516063559959312,0.856550291624562));
#809=DIRECTION('',(1.,0.,0.));
#810=DIRECTION('',(0.,0.,-1.));
#811=DIRECTION('',(0.,1.,0.));
#812=DIRECTION('',(-1.,0.,0.));
#813=DIRECTION('',(0.,0.,1.));
#814=DIRECTION('',(1.,0.,0.));
#815=DIRECTION('',(-1.,0.,0.));
#816=DIRECTION('',(-1.,0.,0.));
#817=DIRECTION('',(0.,0.,1.));
#818=DIRECTION('',(-1.,0.,0.));
#819=DIRECTION('',(0.,-1.,0.));
#820=DIRECTION('',(0.,0.,-1.));
#821=DIRECTION('',(0.,1.,0.));
#822=DIRECTION('',(0.,0.,1.));
#823=DIRECTION('',(1.,0.,0.));
#824=DIRECTION('',(-1.,0.,0.));
#825=DIRECTION('',(0.,0.,1.));
#826=DIRECTION('',(1.,0.,0.));
#827=DIRECTION('',(0.,-0.784744266903959,0.619819679875823));
#828=DIRECTION('',(0.,-0.619819679875823,-0.784744266903959));
#829=DIRECTION('',(1.,0.,0.));
#830=DIRECTION('',(0.,0.,-1.));
#831=DIRECTION('',(1.,0.,0.));
#832=DIRECTION('',(-1.,0.,0.));
#833=DIRECTION('',(1.,0.,0.));
#834=DIRECTION('',(0.,0.,-1.));
#835=DIRECTION('',(0.,-0.856550291624562,0.516063559959312));
#836=DIRECTION('',(0.,-0.516063559959312,-0.856550291624562));
#837=DIRECTION('',(1.,0.,0.));
#838=DIRECTION('',(0.,-1.,-2.7390370673318E-16));
#839=DIRECTION('',(1.,0.,0.));
#840=DIRECTION('',(-1.,0.,0.));
#841=DIRECTION('',(0.,0.,-1.));
#842=DIRECTION('',(0.,-0.856550291624562,0.516063559959312));
#843=DIRECTION('',(0.,-0.516063559959312,-0.856550291624562));
#844=DIRECTION('',(1.,0.,0.));
#845=DIRECTION('',(-1.,0.,0.));
#846=DIRECTION('',(0.,-1.,-2.7390370673318E-16));
#847=DIRECTION('',(-1.,0.,0.));
#848=DIRECTION('',(-1.,0.,0.));
#849=DIRECTION('',(0.,0.,-1.));
#850=DIRECTION('',(1.,0.,0.));
#851=DIRECTION('',(0.,0.,-1.));
#852=DIRECTION('',(-1.,0.,0.));
#853=DIRECTION('',(1.,0.,0.));
#854=DIRECTION('',(0.,0.,-1.));
#855=DIRECTION('',(-1.,0.,0.));
#856=DIRECTION('',(1.,0.,0.));
#857=DIRECTION('',(1.,0.,0.));
#858=DIRECTION('',(0.,0.,-1.));
#859=DIRECTION('',(1.,0.,0.));
#860=DIRECTION('',(1.,0.,0.));
#861=DIRECTION('',(0.,0.,-1.));
#862=DIRECTION('',(1.,0.,0.));
#863=DIRECTION('',(1.,0.,0.));
#864=DIRECTION('',(0.,0.,-1.));
#865=DIRECTION('',(1.,0.,0.));
#866=DIRECTION('',(0.,0.,-1.));
#867=DIRECTION('',(0.,1.,0.));
#868=DIRECTION('',(0.,0.,1.));
#869=DIRECTION('',(0.,1.,0.));
#870=DIRECTION('',(0.,0.,1.));
#871=DIRECTION('',(0.,1.,0.));
#872=DIRECTION('',(-1.,0.,0.));
#873=DIRECTION('',(-1.,0.,0.));
#874=DIRECTION('',(0.,0.,1.));
#875=DIRECTION('',(0.,0.,1.));
#876=DIRECTION('',(1.,0.,0.));
#877=DIRECTION('',(0.,-1.,0.));
#878=DIRECTION('',(1.,0.,0.));
#879=DIRECTION('',(0.,0.,-1.));
#880=DIRECTION('',(1.,0.,0.));
#881=DIRECTION('',(0.,0.,-1.));
#882=DIRECTION('',(1.,0.,0.));
#883=DIRECTION('',(0.,1.,0.));
#884=CARTESIAN_POINT('',(0.,0.,0.));
#885=CARTESIAN_POINT('',(0.016,0.0306442531355429,0.0870157355235956));
#886=CARTESIAN_POINT('',(0.01,0.0306442531355429,0.0870157355235956));
#887=CARTESIAN_POINT('',(0.01,0.0306442531355429,0.0882657355235956));
#888=CARTESIAN_POINT('',(0.01,0.0306442531355429,0.0667814969018874));
#889=CARTESIAN_POINT('',(0.016,0.0306442531355429,0.0667814969018874));
#890=CARTESIAN_POINT('',(0.022,0.0306442531355429,0.0667814969018874));
#891=CARTESIAN_POINT('',(0.022,0.0306442531355429,0.0870157355235956));
#892=CARTESIAN_POINT('',(0.022,0.0306442531355429,0.0882657355235956));
#893=CARTESIAN_POINT('',(0.016,0.0306442531355429,0.0882657355235956));
#894=CARTESIAN_POINT('',(0.016,0.0620000231355429,0.0882657355235956));
#895=CARTESIAN_POINT('',(0.01,0.0620000231355429,0.0882657355235956));
#896=CARTESIAN_POINT('',(0.01,0.0695000231355429,0.0882657355235956));
#897=CARTESIAN_POINT('',(0.022,0.0620000231355429,0.0882657355235956));
#898=CARTESIAN_POINT('',(0.022,0.0695000231355429,0.0882657355235956));
#899=CARTESIAN_POINT('',(0.016,0.0695000231355429,0.0882657355235956));
#900=CARTESIAN_POINT('',(0.016,0.0695000231355429,0.0857657355235956));
#901=CARTESIAN_POINT('',(0.022,0.0695000231355429,0.0857657355235956));
#902=CARTESIAN_POINT('',(0.022,0.0695000231355429,0.0812657355235956));
#903=CARTESIAN_POINT('',(0.0115,0.0695000231355429,0.0812657355235956));
#904=CARTESIAN_POINT('',(0.01,0.0695000231355429,0.0812657355235956));
#905=CARTESIAN_POINT('',(0.01,0.0695000231355429,0.0857657355235956));
#906=CARTESIAN_POINT('',(0.005,0.0605884567827049,0.0667814969018874));
#907=CARTESIAN_POINT('',(0.01,0.143519970213478,0.0667814969018874));
#908=CARTESIAN_POINT('',(0.01,-0.00239997686445711,0.0667814969018874));
#909=CARTESIAN_POINT('',(0.0005,-0.00239997686445714,0.0667814969018874));
#910=CARTESIAN_POINT('',(0.005,-0.00239997686445714,0.0667814969018874));
#911=CARTESIAN_POINT('',(0.005,0.143519970213478,0.0667814969018874));
#912=CARTESIAN_POINT('',(0.005,0.0440768904298669,0.0667814969018874));
#913=CARTESIAN_POINT('',(0.005,0.0440768904298669,0.0667814969018874));
#914=CARTESIAN_POINT('',(-0.004,0.0440768904298669,0.0667814969018874));
#915=CARTESIAN_POINT('',(-0.004,0.0557056299969554,0.0667814969018874));
#916=CARTESIAN_POINT('',(-0.004,-0.00239997686445714,0.0667814969018874));
#917=CARTESIAN_POINT('',(0.0005,-0.00239997686445714,0.0667814969018874));
#918=CARTESIAN_POINT('',(-0.009,-0.00239997686445711,0.0667814969018874));
#919=CARTESIAN_POINT('',(-0.009,0.0557056299969554,0.0667814969018874));
#920=CARTESIAN_POINT('',(-0.009,0.0816000231355429,0.0667814969018874));
#921=CARTESIAN_POINT('',(-0.004,0.0816000231355429,0.0667814969018874));
#922=CARTESIAN_POINT('',(0.022,0.0816000231355429,0.0667814969018874));
#923=CARTESIAN_POINT('',(0.022,0.143519970213478,0.0667814969018874));
#924=CARTESIAN_POINT('',(0.01,0.143519970213478,0.0822731684404021));
#925=CARTESIAN_POINT('',(0.01,0.0585000231355429,0.0996840890828037));
#926=CARTESIAN_POINT('',(0.01,0.0585000231355429,0.0976840890828037));
#927=CARTESIAN_POINT('',(0.01,0.0746000231355429,0.106684089082804));
#928=CARTESIAN_POINT('',(0.01,0.0746000231355429,0.104684089082804));
#929=CARTESIAN_POINT('',(0.01,0.0816000231355429,0.0812657355235956));
#930=CARTESIAN_POINT('',(0.01,0.0816000231355429,0.0812657355235956));
#931=CARTESIAN_POINT('',(0.01,0.0816000231355429,0.0571335000933872));
#932=CARTESIAN_POINT('',(0.01,0.0816000231355429,0.116208551663289));
#933=CARTESIAN_POINT('',(0.01,0.0837381154699916,0.0762657355235956));
#934=CARTESIAN_POINT('',(0.01,0.0606024645639666,0.108896114883244));
#935=CARTESIAN_POINT('',(0.01,0.0316829009314354,0.149684089082804));
#936=CARTESIAN_POINT('',(0.01,0.0316829009314354,0.0996840890828037));
#937=CARTESIAN_POINT('',(0.01,0.0293218900603681,0.0996840890828037));
#938=CARTESIAN_POINT('',(0.01,0.0106442567166525,0.0996840890828037));
#939=CARTESIAN_POINT('',(0.01,0.0106442567166525,0.0946840890828037));
#940=CARTESIAN_POINT('',(0.01,0.00636150525852972,0.0972644068826002));
#941=CARTESIAN_POINT('',(0.01,0.0019807641970363,0.0899933547779918));
#942=CARTESIAN_POINT('',(0.01,-0.00239997686445714,0.0827223026733833));
#943=CARTESIAN_POINT('',(0.01,-0.00239997686445711,0.0822731684404021));
#944=CARTESIAN_POINT('',(0.01,0.0106442567166525,0.0946840890828037));
#945=CARTESIAN_POINT('',(0.01,0.0106442567166525,0.0926840890828037));
#946=CARTESIAN_POINT('',(-0.009,0.0557056299969554,0.0922063536707472));
#947=CARTESIAN_POINT('',(-0.009,0.0706442567166525,0.0946840890828037));
#948=CARTESIAN_POINT('',(-0.009,0.0706442567166525,0.0966840890828037));
#949=CARTESIAN_POINT('',(-0.009,0.0106442567166525,0.0946840890828037));
#950=CARTESIAN_POINT('',(-0.009,0.0106442567166525,0.0926840890828037));
#951=CARTESIAN_POINT('',(-0.009,0.0316829009314354,0.149684089082804));
#952=CARTESIAN_POINT('',(-0.009,0.0316829009314354,0.0996840890828037));
#953=CARTESIAN_POINT('',(-0.009,0.0606024645639666,0.108896114883244));
#954=CARTESIAN_POINT('',(-0.009,0.0837381154699916,0.0762657355235956));
#955=CARTESIAN_POINT('',(-0.009,0.0816000231355429,0.116208551663289));
#956=CARTESIAN_POINT('',(-0.009,0.0816000231355429,0.0571335000933871));
#957=CARTESIAN_POINT('',(-0.009,-0.00239997686445711,0.0822731684404021));
#958=CARTESIAN_POINT('',(-0.009,-0.00239997686445714,0.0827223026733833));
#959=CARTESIAN_POINT('',(-0.009,0.0019807641970363,0.0899933547779918));
#960=CARTESIAN_POINT('',(-0.009,0.00636150525852972,0.0972644068826002));
#961=CARTESIAN_POINT('',(-0.009,0.0106442567166525,0.0946840890828037));
#962=CARTESIAN_POINT('',(-0.009,0.0106442567166525,0.0996840890828037));
#963=CARTESIAN_POINT('',(-0.009,0.0557056299969554,0.0996840890828037));
#964=CARTESIAN_POINT('',(-0.004,0.0557056299969554,0.0922063536707472));
#965=CARTESIAN_POINT('',(-0.004,0.0706442567166525,0.0946840890828037));
#966=CARTESIAN_POINT('',(-0.004,0.0706442567166525,0.0966840890828037));
#967=CARTESIAN_POINT('',(-0.004,0.0106442567166525,0.0946840890828037));
#968=CARTESIAN_POINT('',(-0.004,0.0106442567166525,0.0926840890828037));
#969=CARTESIAN_POINT('',(-0.004,0.0816000231355429,0.0982657355235956));
#970=CARTESIAN_POINT('',(-0.004,0.0816000231355429,0.0832657355235956));
#971=CARTESIAN_POINT('',(-0.004,0.0816000231355429,0.116208551663289));
#972=CARTESIAN_POINT('',(-0.004,0.0837381154699916,0.0762657355235956));
#973=CARTESIAN_POINT('',(-0.004,0.0606024645639666,0.108896114883244));
#974=CARTESIAN_POINT('',(-0.004,0.0316829009314354,0.149684089082804));
#975=CARTESIAN_POINT('',(-0.004,0.0316829009314354,0.0996840890828037));
#976=CARTESIAN_POINT('',(-0.004,0.0557056299969554,0.0996840890828037));
#977=CARTESIAN_POINT('',(-0.004,0.0106442567166525,0.0996840890828037));
#978=CARTESIAN_POINT('',(-0.004,0.0106442567166525,0.0946840890828037));
#979=CARTESIAN_POINT('',(-0.004,0.00636150525852972,0.0972644068826002));
#980=CARTESIAN_POINT('',(-0.004,0.0019807641970363,0.0899933547779918));
#981=CARTESIAN_POINT('',(-0.004,-0.00239997686445714,0.0827223026733833));
#982=CARTESIAN_POINT('',(-0.004,-0.00239997686445714,0.0727636422514915));
#983=CARTESIAN_POINT('',(-0.004,0.0341218326158984,0.0541775496574658));
#984=CARTESIAN_POINT('',(-0.004,0.044398266320887,0.0671883860281729));
#985=CARTESIAN_POINT('',(-0.004,0.0506762204561187,0.0622298285891663));
#986=CARTESIAN_POINT('',(-0.004,0.0497625840440065,0.0701774866408481));
#987=CARTESIAN_POINT('',(-0.004,0.0425388693139781,0.133016066382257));
#988=CARTESIAN_POINT('',(0.005,0.143519970213478,0.0822731684404021));
#989=CARTESIAN_POINT('',(0.005,0.0585000231355429,0.0996840890828037));
#990=CARTESIAN_POINT('',(0.005,0.0585000231355429,0.0976840890828037));
#991=CARTESIAN_POINT('',(0.005,0.0746000231355429,0.106684089082804));
#992=CARTESIAN_POINT('',(0.005,0.0746000231355429,0.104684089082804));
#993=CARTESIAN_POINT('',(0.005,0.0106442567166525,0.0946840890828037));
#994=CARTESIAN_POINT('',(0.005,0.0106442567166525,0.0926840890828037));
#995=CARTESIAN_POINT('',(0.005,0.0316829009314354,0.149684089082804));
#996=CARTESIAN_POINT('',(0.005,0.0316829009314354,0.0996840890828037));
#997=CARTESIAN_POINT('',(0.005,0.0606024645639666,0.108896114883244));
#998=CARTESIAN_POINT('',(0.005,0.0837381154699916,0.0762657355235956));
#999=CARTESIAN_POINT('',(0.005,0.0816000231355429,0.116208551663289));
#1000=CARTESIAN_POINT('',(0.005,0.0816000231355429,0.0997657355235956));
#1001=CARTESIAN_POINT('',(0.005,0.0816000231355429,0.0832657355235957));
#1002=CARTESIAN_POINT('',(0.005,0.042538869313978,0.133016066382257));
#1003=CARTESIAN_POINT('',(0.005,0.0497625840440065,0.0701774866408481));
#1004=CARTESIAN_POINT('',(0.005,0.0506762204561187,0.0622298285891663));
#1005=CARTESIAN_POINT('',(0.005,0.044398266320887,0.0671883860281729));
#1006=CARTESIAN_POINT('',(0.005,0.0341218326158984,0.0541775496574658));
#1007=CARTESIAN_POINT('',(0.005,-0.00239997686445714,0.0727636422514915));
#1008=CARTESIAN_POINT('',(0.005,-0.00239997686445714,0.0827223026733833));
#1009=CARTESIAN_POINT('',(0.005,0.0019807641970363,0.0899933547779918));
#1010=CARTESIAN_POINT('',(0.005,0.00636150525852972,0.0972644068826002));
#1011=CARTESIAN_POINT('',(0.005,0.0106442567166525,0.0946840890828037));
#1012=CARTESIAN_POINT('',(0.005,0.0106442567166525,0.0996840890828037));
#1013=CARTESIAN_POINT('',(0.005,0.143519970213478,0.0996840890828037));
#1014=CARTESIAN_POINT('',(-0.004,0.0506762204561187,0.0622298285891663));
#1015=CARTESIAN_POINT('',(-0.009,0.044398266320887,0.0671883860281729));
#1016=CARTESIAN_POINT('',(-0.004,0.0497625840440065,0.0701774866408481));
#1017=CARTESIAN_POINT('',(-0.004,0.0425388693139781,0.133016066382257));
#1018=CARTESIAN_POINT('',(-0.004,0.0816000231355429,0.0832657355235956));
#1019=CARTESIAN_POINT('',(-0.004,0.0816000231355429,0.0571335000933871));
#1020=CARTESIAN_POINT('',(0.0005,0.0816000231355429,0.0762657355235956));
#1021=CARTESIAN_POINT('',(0.0005,0.0816000231355429,0.0782657355235956));
#1022=CARTESIAN_POINT('',(0.0075,0.0816000231355429,0.116208551663289));
#1023=CARTESIAN_POINT('',(0.0115,0.0816000231355429,0.0812657355235956));
#1024=CARTESIAN_POINT('',(0.022,0.0816000231355429,0.0812657355235956));
#1025=CARTESIAN_POINT('',(0.022,0.0816000231355429,0.0857657355235956));
#1026=CARTESIAN_POINT('',(-0.0065,0.0816000231355429,0.116208551663289));
#1027=CARTESIAN_POINT('',(-0.004,0.0341218326158984,0.0541775496574658));
#1028=CARTESIAN_POINT('',(0.005,0.0106442567166525,0.0946840890828037));
#1029=CARTESIAN_POINT('',(-0.015,0.0106442567166525,0.0996840890828037));
#1030=CARTESIAN_POINT('',(0.01,0.00636150525852972,0.0972644068826002));
#1031=CARTESIAN_POINT('',(0.005,0.0106442567166525,0.0946840890828037));
#1032=CARTESIAN_POINT('',(0.01,0.0019807641970363,0.0899933547779918));
#1033=CARTESIAN_POINT('',(0.01,-0.00239997686445714,0.0827223026733833));
#1034=CARTESIAN_POINT('',(0.0005,-0.00239997686445713,0.0502636422514916));
#1035=CARTESIAN_POINT('',(-0.004,0.0106442567166525,0.0946840890828037));
#1036=CARTESIAN_POINT('',(-0.009,0.0019807641970363,0.0899933547779918));
#1037=CARTESIAN_POINT('',(-0.009,0.00636150525852972,0.0972644068826002));
#1038=CARTESIAN_POINT('',(-0.009,-0.00239997686445714,0.0827223026733833));
#1039=CARTESIAN_POINT('',(0.0005,-0.00239997686445713,0.0502636422514916));
#1040=CARTESIAN_POINT('',(-0.004,0.0106442567166525,0.0946840890828037));
#1041=CARTESIAN_POINT('',(-0.015,0.0106442567166525,0.0996840890828037));
#1042=CARTESIAN_POINT('',(-0.015,0.0293218900603681,0.0996840890828037));
#1043=CARTESIAN_POINT('',(-0.015,0.0316829009314354,0.0996840890828037));
#1044=CARTESIAN_POINT('',(-0.015,0.0293218900603681,0.0996840890828037));
#1045=CARTESIAN_POINT('',(-0.015,0.0316829009314354,0.0996840890828037));
#1046=CARTESIAN_POINT('',(-0.015,0.0316829009314354,0.149684089082804));
#1047=CARTESIAN_POINT('',(-0.015,0.0606024645639666,0.108896114883244));
#1048=CARTESIAN_POINT('',(-0.015,0.0316829009314354,0.149684089082804));
#1049=CARTESIAN_POINT('',(-0.015,0.0606024645639666,0.108896114883244));
#1050=CARTESIAN_POINT('',(-0.015,0.0837381154699916,0.0762657355235956));
#1051=CARTESIAN_POINT('',(-0.015,0.0837381154699916,0.0762657355235956));
#1052=CARTESIAN_POINT('',(0.0005,0.0746000231355429,0.0762657355235956));
#1053=CARTESIAN_POINT('',(0.0005,0.0746000231355429,0.0762657355235956));
#1054=CARTESIAN_POINT('',(0.0005,0.0746000231355429,0.0782657355235956));
#1055=CARTESIAN_POINT('',(0.0005,0.0746000231355429,0.0914950242825883));
#1056=CARTESIAN_POINT('',(-0.003,0.0706442567166525,0.0946840890828037));
#1057=CARTESIAN_POINT('',(0.0115,0.0816000231355429,0.0812657355235956));
#1058=CARTESIAN_POINT('',(0.022,0.0816000231355429,0.0812657355235956));
#1059=CARTESIAN_POINT('',(0.004,0.0746000231355429,0.106684089082804));
#1060=CARTESIAN_POINT('',(0.004,0.0585000231355429,0.0996840890828037));
#1061=CARTESIAN_POINT('',(0.022,0.0234504471205385,0.0923103241556351));
#1062=MECHANICAL_DESIGN_GEOMETRIC_PRESENTATION_REPRESENTATION('',(#631),
#1063);
#1063=(
GEOMETRIC_REPRESENTATION_CONTEXT(3)
GLOBAL_UNCERTAINTY_ASSIGNED_CONTEXT((#1064))
GLOBAL_UNIT_ASSIGNED_CONTEXT((#1067,#1066,#1065))
REPRESENTATION_CONTEXT('Coin Insert Housing','TOP_LEVEL_ASSEMBLY_PART')
);
#1064=UNCERTAINTY_MEASURE_WITH_UNIT(LENGTH_MEASURE(1.E-8),#1067,
'DISTANCE_ACCURACY_VALUE','Maximum Tolerance applied to model');
#1065=(
NAMED_UNIT(*)
SI_UNIT($,.STERADIAN.)
SOLID_ANGLE_UNIT()
);
#1066=(
NAMED_UNIT(*)
PLANE_ANGLE_UNIT()
SI_UNIT($,.RADIAN.)
);
#1067=(
LENGTH_UNIT()
NAMED_UNIT(*)
SI_UNIT($,.METRE.)
);
#1068=PRODUCT_DEFINITION_SHAPE('','',#1069);
#1069=PRODUCT_DEFINITION('','',#1071,#1070);
#1070=PRODUCT_DEFINITION_CONTEXT('',#1077,'design');
#1071=PRODUCT_DEFINITION_FORMATION_WITH_SPECIFIED_SOURCE('','',#1073,
 .NOT_KNOWN.);
#1072=PRODUCT_RELATED_PRODUCT_CATEGORY('','',(#1073));
#1073=PRODUCT('Coin Insert Housing','Coin Insert Housing',
'Coin Insert Housing',(#1075));
#1074=PRODUCT_CATEGORY('','');
#1075=PRODUCT_CONTEXT('',#1077,'mechanical');
#1076=APPLICATION_PROTOCOL_DEFINITION('international standard',
'ap242_managed_model_based_3d_engineering',2020,#1077);
#1077=APPLICATION_CONTEXT('managed model based 3d engineering');
ENDSEC;
END-ISO-10303-21;
