ISO-10303-21;
HEADER;
/* Generated by software containing ST-Developer
 * from STEP Tools, Inc. (www.steptools.com) 
 */
/* OPTION: using custom renumber hook */

FILE_DESCRIPTION(
/* description */ ('STEP AP242 Edition 2',
'CAx-IF Rec.Pracs.---Representation and Presentation of Product Manufa
cturing Information (PMI)---4.0---2014-10-13',
'CAx-IF Rec.Pracs.---3D Tessellated Geometry---0.4---2014-09-14','2;1',
'CAx-IF Rec.Pracs.---User Defined Attributes---1.5---2016-08-15'),
/* implementation_level */ '2;1');

FILE_NAME(
/* name */ 'Assembly 1 - Button Housing',
/* time_stamp */ '2026-07-14T16:54:41Z',
/* author */ (''),
/* organization */ (''),
/* preprocessor_version */ 'ST-DEVELOPER v20',
/* originating_system */ 'ONSHAPE BY PTC INC, 1.217',
/* authorisation */ '  ');

FILE_SCHEMA (('AP242_MANAGED_MODEL_BASED_3D_ENGINEERING_MIM_LF { 1 0 10303 442 3 1 4 }'));
ENDSEC;

DATA;
#10=SHAPE_REPRESENTATION_RELATIONSHIP('','',#193,#11);
#11=ADVANCED_BREP_SHAPE_REPRESENTATION('',(#191),#315);
#12=CIRCLE('',#197,0.04);
#13=CIRCLE('',#198,0.04);
#14=CIRCLE('',#200,0.05);
#15=CIRCLE('',#201,0.05);
#16=CIRCLE('',#205,0.002);
#17=CIRCLE('',#206,0.002);
#18=CIRCLE('',#208,0.002);
#19=CIRCLE('',#209,0.002);
#20=CYLINDRICAL_SURFACE('',#196,0.04);
#21=CYLINDRICAL_SURFACE('',#199,0.05);
#22=CYLINDRICAL_SURFACE('',#204,0.002);
#23=CYLINDRICAL_SURFACE('',#207,0.002);
#24=ORIENTED_EDGE('',*,*,#68,.F.);
#25=ORIENTED_EDGE('',*,*,#69,.F.);
#26=ORIENTED_EDGE('',*,*,#70,.T.);
#27=ORIENTED_EDGE('',*,*,#71,.T.);
#28=ORIENTED_EDGE('',*,*,#72,.T.);
#29=ORIENTED_EDGE('',*,*,#73,.F.);
#30=ORIENTED_EDGE('',*,*,#74,.F.);
#31=ORIENTED_EDGE('',*,*,#69,.T.);
#32=ORIENTED_EDGE('',*,*,#75,.T.);
#33=ORIENTED_EDGE('',*,*,#76,.F.);
#34=ORIENTED_EDGE('',*,*,#77,.F.);
#35=ORIENTED_EDGE('',*,*,#73,.T.);
#36=ORIENTED_EDGE('',*,*,#78,.F.);
#37=ORIENTED_EDGE('',*,*,#79,.F.);
#38=ORIENTED_EDGE('',*,*,#80,.T.);
#39=ORIENTED_EDGE('',*,*,#76,.T.);
#40=ORIENTED_EDGE('',*,*,#81,.T.);
#41=ORIENTED_EDGE('',*,*,#82,.F.);
#42=ORIENTED_EDGE('',*,*,#83,.F.);
#43=ORIENTED_EDGE('',*,*,#79,.T.);
#44=ORIENTED_EDGE('',*,*,#84,.T.);
#45=ORIENTED_EDGE('',*,*,#85,.F.);
#46=ORIENTED_EDGE('',*,*,#86,.T.);
#47=ORIENTED_EDGE('',*,*,#87,.F.);
#48=ORIENTED_EDGE('',*,*,#70,.F.);
#49=ORIENTED_EDGE('',*,*,#74,.T.);
#50=ORIENTED_EDGE('',*,*,#77,.T.);
#51=ORIENTED_EDGE('',*,*,#80,.F.);
#52=ORIENTED_EDGE('',*,*,#83,.T.);
#53=ORIENTED_EDGE('',*,*,#88,.F.);
#54=ORIENTED_EDGE('',*,*,#84,.F.);
#55=ORIENTED_EDGE('',*,*,#86,.F.);
#56=ORIENTED_EDGE('',*,*,#68,.T.);
#57=ORIENTED_EDGE('',*,*,#89,.T.);
#58=ORIENTED_EDGE('',*,*,#81,.F.);
#59=ORIENTED_EDGE('',*,*,#78,.T.);
#60=ORIENTED_EDGE('',*,*,#75,.F.);
#61=ORIENTED_EDGE('',*,*,#72,.F.);
#62=ORIENTED_EDGE('',*,*,#85,.T.);
#63=ORIENTED_EDGE('',*,*,#87,.T.);
#64=ORIENTED_EDGE('',*,*,#89,.F.);
#65=ORIENTED_EDGE('',*,*,#71,.F.);
#66=ORIENTED_EDGE('',*,*,#88,.T.);
#67=ORIENTED_EDGE('',*,*,#82,.T.);
#68=EDGE_CURVE('',#90,#91,#106,.T.);
#69=EDGE_CURVE('',#92,#90,#107,.T.);
#70=EDGE_CURVE('',#92,#93,#108,.T.);
#71=EDGE_CURVE('',#93,#91,#109,.T.);
#72=EDGE_CURVE('',#90,#94,#12,.T.);
#73=EDGE_CURVE('',#95,#94,#110,.T.);
#74=EDGE_CURVE('',#92,#95,#13,.T.);
#75=EDGE_CURVE('',#94,#96,#14,.F.);
#76=EDGE_CURVE('',#97,#96,#111,.T.);
#77=EDGE_CURVE('',#95,#97,#15,.F.);
#78=EDGE_CURVE('',#98,#96,#112,.T.);
#79=EDGE_CURVE('',#99,#98,#113,.T.);
#80=EDGE_CURVE('',#99,#97,#114,.T.);
#81=EDGE_CURVE('',#98,#100,#115,.T.);
#82=EDGE_CURVE('',#101,#100,#116,.T.);
#83=EDGE_CURVE('',#99,#101,#117,.T.);
#84=EDGE_CURVE('',#102,#102,#16,.T.);
#85=EDGE_CURVE('',#103,#103,#17,.T.);
#86=EDGE_CURVE('',#104,#104,#18,.T.);
#87=EDGE_CURVE('',#105,#105,#19,.T.);
#88=EDGE_CURVE('',#93,#101,#118,.T.);
#89=EDGE_CURVE('',#91,#100,#119,.T.);
#90=VERTEX_POINT('',#268);
#91=VERTEX_POINT('',#269);
#92=VERTEX_POINT('',#271);
#93=VERTEX_POINT('',#273);
#94=VERTEX_POINT('',#277);
#95=VERTEX_POINT('',#279);
#96=VERTEX_POINT('',#283);
#97=VERTEX_POINT('',#285);
#98=VERTEX_POINT('',#289);
#99=VERTEX_POINT('',#291);
#100=VERTEX_POINT('',#295);
#101=VERTEX_POINT('',#297);
#102=VERTEX_POINT('',#301);
#103=VERTEX_POINT('',#303);
#104=VERTEX_POINT('',#306);
#105=VERTEX_POINT('',#308);
#106=LINE('',#267,#120);
#107=LINE('',#270,#121);
#108=LINE('',#272,#122);
#109=LINE('',#274,#123);
#110=LINE('',#278,#124);
#111=LINE('',#284,#125);
#112=LINE('',#288,#126);
#113=LINE('',#290,#127);
#114=LINE('',#292,#128);
#115=LINE('',#294,#129);
#116=LINE('',#296,#130);
#117=LINE('',#298,#131);
#118=LINE('',#310,#132);
#119=LINE('',#312,#133);
#120=VECTOR('',#217,1.);
#121=VECTOR('',#218,1.);
#122=VECTOR('',#219,1.);
#123=VECTOR('',#220,1.);
#124=VECTOR('',#225,1.);
#125=VECTOR('',#232,1.);
#126=VECTOR('',#237,1.);
#127=VECTOR('',#238,1.);
#128=VECTOR('',#239,1.);
#129=VECTOR('',#242,1.);
#130=VECTOR('',#243,1.);
#131=VECTOR('',#244,1.);
#132=VECTOR('',#259,1.);
#133=VECTOR('',#262,1.);
#134=EDGE_LOOP('',(#24,#25,#26,#27));
#135=EDGE_LOOP('',(#28,#29,#30,#31));
#136=EDGE_LOOP('',(#32,#33,#34,#35));
#137=EDGE_LOOP('',(#36,#37,#38,#39));
#138=EDGE_LOOP('',(#40,#41,#42,#43));
#139=EDGE_LOOP('',(#44));
#140=EDGE_LOOP('',(#45));
#141=EDGE_LOOP('',(#46));
#142=EDGE_LOOP('',(#47));
#143=EDGE_LOOP('',(#48,#49,#50,#51,#52,#53));
#144=EDGE_LOOP('',(#54));
#145=EDGE_LOOP('',(#55));
#146=EDGE_LOOP('',(#56,#57,#58,#59,#60,#61));
#147=EDGE_LOOP('',(#62));
#148=EDGE_LOOP('',(#63));
#149=EDGE_LOOP('',(#64,#65,#66,#67));
#150=FACE_BOUND('',#134,.T.);
#151=FACE_BOUND('',#135,.T.);
#152=FACE_BOUND('',#136,.T.);
#153=FACE_BOUND('',#137,.T.);
#154=FACE_BOUND('',#138,.T.);
#155=FACE_BOUND('',#139,.T.);
#156=FACE_BOUND('',#140,.T.);
#157=FACE_BOUND('',#141,.T.);
#158=FACE_BOUND('',#142,.T.);
#159=FACE_BOUND('',#143,.T.);
#160=FACE_BOUND('',#144,.T.);
#161=FACE_BOUND('',#145,.T.);
#162=FACE_BOUND('',#146,.T.);
#163=FACE_BOUND('',#147,.T.);
#164=FACE_BOUND('',#148,.T.);
#165=FACE_BOUND('',#149,.T.);
#166=PLANE('',#195);
#167=PLANE('',#202);
#168=PLANE('',#203);
#169=PLANE('',#210);
#170=PLANE('',#211);
#171=PLANE('',#212);
#172=ADVANCED_FACE('',(#150),#166,.T.);
#173=ADVANCED_FACE('',(#151),#20,.T.);
#174=ADVANCED_FACE('',(#152),#21,.F.);
#175=ADVANCED_FACE('',(#153),#167,.T.);
#176=ADVANCED_FACE('',(#154),#168,.F.);
#177=ADVANCED_FACE('',(#155,#156),#22,.F.);
#178=ADVANCED_FACE('',(#157,#158),#23,.F.);
#179=ADVANCED_FACE('',(#159,#160,#161),#169,.T.);
#180=ADVANCED_FACE('',(#162,#163,#164),#170,.F.);
#181=ADVANCED_FACE('',(#165),#171,.T.);
#182=CLOSED_SHELL('',(#172,#173,#174,#175,#176,#177,#178,#179,#180,#181));
#183=STYLED_ITEM('',(#184),#191);
#184=PRESENTATION_STYLE_ASSIGNMENT((#185));
#185=SURFACE_STYLE_USAGE(.BOTH.,#186);
#186=SURFACE_SIDE_STYLE('',(#187));
#187=SURFACE_STYLE_FILL_AREA(#188);
#188=FILL_AREA_STYLE('',(#189));
#189=FILL_AREA_STYLE_COLOUR('',#190);
#190=COLOUR_RGB('',0.8,0.776470588235294,0.713725490196078);
#191=MANIFOLD_SOLID_BREP('Button Housing',#182);
#192=SHAPE_DEFINITION_REPRESENTATION(#320,#193);
#193=SHAPE_REPRESENTATION('Button Housing',(#194),#315);
#194=AXIS2_PLACEMENT_3D('',#265,#213,#214);
#195=AXIS2_PLACEMENT_3D('',#266,#215,#216);
#196=AXIS2_PLACEMENT_3D('',#275,#221,#222);
#197=AXIS2_PLACEMENT_3D('',#276,#223,#224);
#198=AXIS2_PLACEMENT_3D('',#280,#226,#227);
#199=AXIS2_PLACEMENT_3D('',#281,#228,#229);
#200=AXIS2_PLACEMENT_3D('',#282,#230,#231);
#201=AXIS2_PLACEMENT_3D('',#286,#233,#234);
#202=AXIS2_PLACEMENT_3D('',#287,#235,#236);
#203=AXIS2_PLACEMENT_3D('',#293,#240,#241);
#204=AXIS2_PLACEMENT_3D('',#299,#245,#246);
#205=AXIS2_PLACEMENT_3D('',#300,#247,#248);
#206=AXIS2_PLACEMENT_3D('',#302,#249,#250);
#207=AXIS2_PLACEMENT_3D('',#304,#251,#252);
#208=AXIS2_PLACEMENT_3D('',#305,#253,#254);
#209=AXIS2_PLACEMENT_3D('',#307,#255,#256);
#210=AXIS2_PLACEMENT_3D('',#309,#257,#258);
#211=AXIS2_PLACEMENT_3D('',#311,#260,#261);
#212=AXIS2_PLACEMENT_3D('',#313,#263,#264);
#213=DIRECTION('',(0.,0.,1.));
#214=DIRECTION('',(1.,0.,0.));
#215=DIRECTION('',(0.,1.,0.));
#216=DIRECTION('',(0.,0.,1.));
#217=DIRECTION('',(0.,0.,-1.));
#218=DIRECTION('',(-1.,0.,0.));
#219=DIRECTION('',(0.,0.,-1.));
#220=DIRECTION('',(-1.,0.,0.));
#221=DIRECTION('',(-1.,0.,0.));
#222=DIRECTION('',(0.,0.,1.));
#223=DIRECTION('',(1.,0.,0.));
#224=DIRECTION('',(0.,0.,-1.));
#225=DIRECTION('',(-1.,0.,0.));
#226=DIRECTION('',(1.,0.,0.));
#227=DIRECTION('',(0.,0.,-1.));
#228=DIRECTION('',(-1.,0.,0.));
#229=DIRECTION('',(0.,0.,1.));
#230=DIRECTION('',(1.,0.,0.));
#231=DIRECTION('',(0.,0.,-1.));
#232=DIRECTION('',(-1.,0.,0.));
#233=DIRECTION('',(1.,0.,0.));
#234=DIRECTION('',(0.,0.,-1.));
#235=DIRECTION('',(0.,0.,1.));
#236=DIRECTION('',(1.,0.,0.));
#237=DIRECTION('',(0.,1.,0.));
#238=DIRECTION('',(-1.,0.,0.));
#239=DIRECTION('',(0.,1.,0.));
#240=DIRECTION('',(0.,1.,0.));
#241=DIRECTION('',(0.,0.,1.));
#242=DIRECTION('',(0.,0.,-1.));
#243=DIRECTION('',(-1.,0.,0.));
#244=DIRECTION('',(0.,0.,-1.));
#245=DIRECTION('',(-1.,0.,0.));
#246=DIRECTION('',(0.,0.,1.));
#247=DIRECTION('',(1.,0.,0.));
#248=DIRECTION('',(0.,0.,-1.));
#249=DIRECTION('',(1.,0.,0.));
#250=DIRECTION('',(0.,0.,-1.));
#251=DIRECTION('',(-1.,0.,0.));
#252=DIRECTION('',(0.,0.,1.));
#253=DIRECTION('',(1.,0.,0.));
#254=DIRECTION('',(0.,0.,-1.));
#255=DIRECTION('',(1.,0.,0.));
#256=DIRECTION('',(0.,0.,-1.));
#257=DIRECTION('',(1.,0.,0.));
#258=DIRECTION('',(0.,1.,0.));
#259=DIRECTION('',(0.,-1.,0.));
#260=DIRECTION('',(1.,0.,0.));
#261=DIRECTION('',(0.,1.,0.));
#262=DIRECTION('',(0.,-1.,0.));
#263=DIRECTION('',(0.,0.,-1.));
#264=DIRECTION('',(-1.,0.,0.));
#265=CARTESIAN_POINT('',(0.,0.,0.));
#266=CARTESIAN_POINT('',(0.027,0.0816000231355429,0.0904749123031996));
#267=CARTESIAN_POINT('',(0.022,0.0816000231355429,0.0904749123031996));
#268=CARTESIAN_POINT('',(0.022,0.0816000231355429,0.116208551663289));
#269=CARTESIAN_POINT('',(0.022,0.0816000231355429,0.0667814969018874));
#270=CARTESIAN_POINT('',(0.027,0.0816000231355429,0.116208551663289));
#271=CARTESIAN_POINT('',(0.027,0.0816000231355429,0.116208551663289));
#272=CARTESIAN_POINT('',(0.027,0.0816000231355429,0.0904749123031996));
#273=CARTESIAN_POINT('',(0.027,0.0816000231355429,0.0667814969018874));
#274=CARTESIAN_POINT('',(0.027,0.0816000231355429,0.0667814969018874));
#275=CARTESIAN_POINT('',(0.027,0.0837381154699916,0.0762657355235956));
#276=CARTESIAN_POINT('',(0.022,0.0837381154699916,0.0762657355235956));
#277=CARTESIAN_POINT('',(0.022,0.0606024645639666,0.108896114883244));
#278=CARTESIAN_POINT('',(0.027,0.0606024645639666,0.108896114883244));
#279=CARTESIAN_POINT('',(0.027,0.0606024645639666,0.108896114883244));
#280=CARTESIAN_POINT('',(0.027,0.0837381154699916,0.0762657355235956));
#281=CARTESIAN_POINT('',(0.027,0.0316829009314354,0.149684089082804));
#282=CARTESIAN_POINT('',(0.022,0.0316829009314354,0.149684089082804));
#283=CARTESIAN_POINT('',(0.022,0.0316829009314354,0.0996840890828037));
#284=CARTESIAN_POINT('',(0.027,0.0316829009314354,0.0996840890828037));
#285=CARTESIAN_POINT('',(0.027,0.0316829009314354,0.0996840890828037));
#286=CARTESIAN_POINT('',(0.027,0.0316829009314354,0.149684089082804));
#287=CARTESIAN_POINT('',(0.027,0.0306442531355429,0.0996840890828037));
#288=CARTESIAN_POINT('',(0.022,0.0306442531355429,0.0996840890828037));
#289=CARTESIAN_POINT('',(0.022,0.0306442531355429,0.0996840890828037));
#290=CARTESIAN_POINT('',(0.027,0.0306442531355429,0.0996840890828037));
#291=CARTESIAN_POINT('',(0.027,0.0306442531355429,0.0996840890828037));
#292=CARTESIAN_POINT('',(0.027,0.0306442531355429,0.0996840890828037));
#293=CARTESIAN_POINT('',(0.027,0.0306442531355429,0.0914749123031996));
#294=CARTESIAN_POINT('',(0.022,0.0306442531355429,0.0914749123031996));
#295=CARTESIAN_POINT('',(0.022,0.0306442531355429,0.0667814969018874));
#296=CARTESIAN_POINT('',(0.027,0.0306442531355429,0.0667814969018874));
#297=CARTESIAN_POINT('',(0.027,0.0306442531355429,0.0667814969018874));
#298=CARTESIAN_POINT('',(0.027,0.0306442531355429,0.0914749123031996));
#299=CARTESIAN_POINT('',(0.027,0.0585000231355429,0.0996840890828037));
#300=CARTESIAN_POINT('',(0.027,0.0585000231355429,0.0996840890828037));
#301=CARTESIAN_POINT('',(0.027,0.0585000231355429,0.0976840890828037));
#302=CARTESIAN_POINT('',(0.022,0.0585000231355429,0.0996840890828037));
#303=CARTESIAN_POINT('',(0.022,0.0585000231355429,0.0976840890828037));
#304=CARTESIAN_POINT('',(0.027,0.0746000231355429,0.106684089082804));
#305=CARTESIAN_POINT('',(0.027,0.0746000231355429,0.106684089082804));
#306=CARTESIAN_POINT('',(0.027,0.0746000231355429,0.104684089082804));
#307=CARTESIAN_POINT('',(0.022,0.0746000231355429,0.106684089082804));
#308=CARTESIAN_POINT('',(0.022,0.0746000231355429,0.104684089082804));
#309=CARTESIAN_POINT('',(0.027,0.0561221381355429,0.0987371435934424));
#310=CARTESIAN_POINT('',(0.027,0.143519970213478,0.0667814969018874));
#311=CARTESIAN_POINT('',(0.022,0.0561221381355429,0.0987371435934424));
#312=CARTESIAN_POINT('',(0.022,0.143519970213478,0.0667814969018874));
#313=CARTESIAN_POINT('',(0.027,0.143519970213478,0.0667814969018874));
#314=MECHANICAL_DESIGN_GEOMETRIC_PRESENTATION_REPRESENTATION('',(#183),
#315);
#315=(
GEOMETRIC_REPRESENTATION_CONTEXT(3)
GLOBAL_UNCERTAINTY_ASSIGNED_CONTEXT((#316))
GLOBAL_UNIT_ASSIGNED_CONTEXT((#319,#318,#317))
REPRESENTATION_CONTEXT('Button Housing','TOP_LEVEL_ASSEMBLY_PART')
);
#316=UNCERTAINTY_MEASURE_WITH_UNIT(LENGTH_MEASURE(1.E-8),#319,
'DISTANCE_ACCURACY_VALUE','Maximum Tolerance applied to model');
#317=(
NAMED_UNIT(*)
SI_UNIT($,.STERADIAN.)
SOLID_ANGLE_UNIT()
);
#318=(
NAMED_UNIT(*)
PLANE_ANGLE_UNIT()
SI_UNIT($,.RADIAN.)
);
#319=(
LENGTH_UNIT()
NAMED_UNIT(*)
SI_UNIT($,.METRE.)
);
#320=PRODUCT_DEFINITION_SHAPE('','',#321);
#321=PRODUCT_DEFINITION('','',#323,#322);
#322=PRODUCT_DEFINITION_CONTEXT('',#329,'design');
#323=PRODUCT_DEFINITION_FORMATION_WITH_SPECIFIED_SOURCE('','',#325,
 .NOT_KNOWN.);
#324=PRODUCT_RELATED_PRODUCT_CATEGORY('','',(#325));
#325=PRODUCT('Button Housing','Button Housing','Button Housing',(#327));
#326=PRODUCT_CATEGORY('','');
#327=PRODUCT_CONTEXT('',#329,'mechanical');
#328=APPLICATION_PROTOCOL_DEFINITION('international standard',
'ap242_managed_model_based_3d_engineering',2020,#329);
#329=APPLICATION_CONTEXT('managed model based 3d engineering');
ENDSEC;
END-ISO-10303-21;
