ISO-10303-21;
HEADER;
/* Generated by software containing ST-Developer
 * from STEP Tools, Inc. (www.steptools.com) 
 */
/* OPTION: using custom renumber hook */

FILE_DESCRIPTION(
/* description */ ('STEP AP242 Edition 2',
'CAx-IF Rec.Pracs.---Representation and Presentation of Product Manufa
cturing Information (PMI)---4.0---2014-10-13',
'CAx-IF Rec.Pracs.---3D Tessellated Geometry---0.4---2014-09-14','2;1',
'CAx-IF Rec.Pracs.---User Defined Attributes---1.5---2016-08-15'),
/* implementation_level */ '2;1');

FILE_NAME(
/* name */ 'Assembly 1 - Coin Bin',
/* time_stamp */ '2026-07-14T16:54:41Z',
/* author */ (''),
/* organization */ (''),
/* preprocessor_version */ 'ST-DEVELOPER v20',
/* originating_system */ 'ONSHAPE BY PTC INC, 1.217',
/* authorisation */ '  ');

FILE_SCHEMA (('AP242_MANAGED_MODEL_BASED_3D_ENGINEERING_MIM_LF { 1 0 10303 442 3 1 4 }'));
ENDSEC;

DATA;
#10=SHAPE_REPRESENTATION_RELATIONSHIP('','',#458,#11);
#11=ADVANCED_BREP_SHAPE_REPRESENTATION('',(#456),#768);
#12=CYLINDRICAL_SURFACE('',#492,0.003);
#13=CYLINDRICAL_SURFACE('',#493,0.002);
#14=CYLINDRICAL_SURFACE('',#494,0.002);
#15=CYLINDRICAL_SURFACE('',#495,0.002);
#16=CYLINDRICAL_SURFACE('',#496,0.005);
#17=CYLINDRICAL_SURFACE('',#497,0.005);
#18=CYLINDRICAL_SURFACE('',#500,0.005);
#19=CYLINDRICAL_SURFACE('',#501,0.005);
#20=CYLINDRICAL_SURFACE('',#502,0.005);
#21=CYLINDRICAL_SURFACE('',#503,0.005);
#22=CIRCLE('',#462,0.002);
#23=CIRCLE('',#463,0.003);
#24=CIRCLE('',#465,0.005);
#25=CIRCLE('',#466,0.005);
#26=CIRCLE('',#468,0.003);
#27=CIRCLE('',#469,0.002);
#28=CIRCLE('',#471,0.005);
#29=CIRCLE('',#472,0.005);
#30=CIRCLE('',#473,0.005);
#31=CIRCLE('',#474,0.005);
#32=CIRCLE('',#475,0.005);
#33=CIRCLE('',#476,0.005);
#34=CIRCLE('',#479,0.005);
#35=CIRCLE('',#480,0.005);
#36=CIRCLE('',#481,0.005);
#37=CIRCLE('',#482,0.005);
#38=CIRCLE('',#487,0.002);
#39=CIRCLE('',#488,0.002);
#40=CIRCLE('',#490,0.002);
#41=CIRCLE('',#491,0.002);
#42=ORIENTED_EDGE('',*,*,#168,.F.);
#43=ORIENTED_EDGE('',*,*,#169,.T.);
#44=ORIENTED_EDGE('',*,*,#170,.T.);
#45=ORIENTED_EDGE('',*,*,#171,.T.);
#46=ORIENTED_EDGE('',*,*,#172,.F.);
#47=ORIENTED_EDGE('',*,*,#173,.T.);
#48=ORIENTED_EDGE('',*,*,#174,.T.);
#49=ORIENTED_EDGE('',*,*,#175,.F.);
#50=ORIENTED_EDGE('',*,*,#176,.T.);
#51=ORIENTED_EDGE('',*,*,#177,.T.);
#52=ORIENTED_EDGE('',*,*,#178,.T.);
#53=ORIENTED_EDGE('',*,*,#179,.T.);
#54=ORIENTED_EDGE('',*,*,#180,.T.);
#55=ORIENTED_EDGE('',*,*,#181,.F.);
#56=ORIENTED_EDGE('',*,*,#182,.T.);
#57=ORIENTED_EDGE('',*,*,#172,.T.);
#58=ORIENTED_EDGE('',*,*,#183,.F.);
#59=ORIENTED_EDGE('',*,*,#184,.F.);
#60=ORIENTED_EDGE('',*,*,#185,.T.);
#61=ORIENTED_EDGE('',*,*,#186,.F.);
#62=ORIENTED_EDGE('',*,*,#187,.T.);
#63=ORIENTED_EDGE('',*,*,#184,.T.);
#64=ORIENTED_EDGE('',*,*,#188,.F.);
#65=ORIENTED_EDGE('',*,*,#189,.T.);
#66=ORIENTED_EDGE('',*,*,#190,.T.);
#67=ORIENTED_EDGE('',*,*,#191,.F.);
#68=ORIENTED_EDGE('',*,*,#192,.T.);
#69=ORIENTED_EDGE('',*,*,#193,.T.);
#70=ORIENTED_EDGE('',*,*,#194,.F.);
#71=ORIENTED_EDGE('',*,*,#195,.T.);
#72=ORIENTED_EDGE('',*,*,#196,.T.);
#73=ORIENTED_EDGE('',*,*,#197,.T.);
#74=ORIENTED_EDGE('',*,*,#168,.T.);
#75=ORIENTED_EDGE('',*,*,#198,.T.);
#76=ORIENTED_EDGE('',*,*,#199,.F.);
#77=ORIENTED_EDGE('',*,*,#200,.T.);
#78=ORIENTED_EDGE('',*,*,#174,.F.);
#79=ORIENTED_EDGE('',*,*,#201,.T.);
#80=ORIENTED_EDGE('',*,*,#202,.F.);
#81=ORIENTED_EDGE('',*,*,#203,.T.);
#82=ORIENTED_EDGE('',*,*,#186,.T.);
#83=ORIENTED_EDGE('',*,*,#204,.T.);
#84=ORIENTED_EDGE('',*,*,#205,.F.);
#85=ORIENTED_EDGE('',*,*,#206,.T.);
#86=ORIENTED_EDGE('',*,*,#194,.T.);
#87=ORIENTED_EDGE('',*,*,#207,.T.);
#88=ORIENTED_EDGE('',*,*,#208,.F.);
#89=ORIENTED_EDGE('',*,*,#209,.T.);
#90=ORIENTED_EDGE('',*,*,#205,.T.);
#91=ORIENTED_EDGE('',*,*,#210,.T.);
#92=ORIENTED_EDGE('',*,*,#211,.F.);
#93=ORIENTED_EDGE('',*,*,#212,.T.);
#94=ORIENTED_EDGE('',*,*,#170,.F.);
#95=ORIENTED_EDGE('',*,*,#213,.T.);
#96=ORIENTED_EDGE('',*,*,#180,.F.);
#97=ORIENTED_EDGE('',*,*,#214,.T.);
#98=ORIENTED_EDGE('',*,*,#188,.T.);
#99=ORIENTED_EDGE('',*,*,#183,.T.);
#100=ORIENTED_EDGE('',*,*,#211,.T.);
#101=ORIENTED_EDGE('',*,*,#215,.T.);
#102=ORIENTED_EDGE('',*,*,#199,.T.);
#103=ORIENTED_EDGE('',*,*,#216,.T.);
#104=ORIENTED_EDGE('',*,*,#217,.F.);
#105=ORIENTED_EDGE('',*,*,#218,.T.);
#106=ORIENTED_EDGE('',*,*,#219,.T.);
#107=ORIENTED_EDGE('',*,*,#220,.T.);
#108=ORIENTED_EDGE('',*,*,#191,.T.);
#109=ORIENTED_EDGE('',*,*,#221,.T.);
#110=ORIENTED_EDGE('',*,*,#177,.F.);
#111=ORIENTED_EDGE('',*,*,#222,.T.);
#112=ORIENTED_EDGE('',*,*,#217,.T.);
#113=ORIENTED_EDGE('',*,*,#223,.T.);
#114=ORIENTED_EDGE('',*,*,#219,.F.);
#115=ORIENTED_EDGE('',*,*,#224,.T.);
#116=ORIENTED_EDGE('',*,*,#175,.T.);
#117=ORIENTED_EDGE('',*,*,#204,.F.);
#118=ORIENTED_EDGE('',*,*,#193,.F.);
#119=ORIENTED_EDGE('',*,*,#225,.T.);
#120=ORIENTED_EDGE('',*,*,#179,.F.);
#121=ORIENTED_EDGE('',*,*,#226,.T.);
#122=ORIENTED_EDGE('',*,*,#189,.F.);
#123=ORIENTED_EDGE('',*,*,#214,.F.);
#124=ORIENTED_EDGE('',*,*,#178,.F.);
#125=ORIENTED_EDGE('',*,*,#221,.F.);
#126=ORIENTED_EDGE('',*,*,#190,.F.);
#127=ORIENTED_EDGE('',*,*,#226,.F.);
#128=ORIENTED_EDGE('',*,*,#222,.F.);
#129=ORIENTED_EDGE('',*,*,#176,.F.);
#130=ORIENTED_EDGE('',*,*,#224,.F.);
#131=ORIENTED_EDGE('',*,*,#218,.F.);
#132=ORIENTED_EDGE('',*,*,#223,.F.);
#133=ORIENTED_EDGE('',*,*,#220,.F.);
#134=ORIENTED_EDGE('',*,*,#225,.F.);
#135=ORIENTED_EDGE('',*,*,#192,.F.);
#136=ORIENTED_EDGE('',*,*,#210,.F.);
#137=ORIENTED_EDGE('',*,*,#207,.F.);
#138=ORIENTED_EDGE('',*,*,#200,.F.);
#139=ORIENTED_EDGE('',*,*,#215,.F.);
#140=ORIENTED_EDGE('',*,*,#198,.F.);
#141=ORIENTED_EDGE('',*,*,#171,.F.);
#142=ORIENTED_EDGE('',*,*,#212,.F.);
#143=ORIENTED_EDGE('',*,*,#216,.F.);
#144=ORIENTED_EDGE('',*,*,#202,.T.);
#145=ORIENTED_EDGE('',*,*,#227,.T.);
#146=ORIENTED_EDGE('',*,*,#181,.T.);
#147=ORIENTED_EDGE('',*,*,#228,.T.);
#148=ORIENTED_EDGE('',*,*,#196,.F.);
#149=ORIENTED_EDGE('',*,*,#229,.T.);
#150=ORIENTED_EDGE('',*,*,#208,.T.);
#151=ORIENTED_EDGE('',*,*,#230,.T.);
#152=ORIENTED_EDGE('',*,*,#195,.F.);
#153=ORIENTED_EDGE('',*,*,#206,.F.);
#154=ORIENTED_EDGE('',*,*,#209,.F.);
#155=ORIENTED_EDGE('',*,*,#229,.F.);
#156=ORIENTED_EDGE('',*,*,#197,.F.);
#157=ORIENTED_EDGE('',*,*,#230,.F.);
#158=ORIENTED_EDGE('',*,*,#213,.F.);
#159=ORIENTED_EDGE('',*,*,#169,.F.);
#160=ORIENTED_EDGE('',*,*,#182,.F.);
#161=ORIENTED_EDGE('',*,*,#227,.F.);
#162=ORIENTED_EDGE('',*,*,#201,.F.);
#163=ORIENTED_EDGE('',*,*,#173,.F.);
#164=ORIENTED_EDGE('',*,*,#185,.F.);
#165=ORIENTED_EDGE('',*,*,#187,.F.);
#166=ORIENTED_EDGE('',*,*,#203,.F.);
#167=ORIENTED_EDGE('',*,*,#228,.F.);
#168=EDGE_CURVE('',#231,#232,#273,.T.);
#169=EDGE_CURVE('',#231,#233,#274,.T.);
#170=EDGE_CURVE('',#233,#234,#275,.T.);
#171=EDGE_CURVE('',#234,#232,#276,.F.);
#172=EDGE_CURVE('',#235,#236,#277,.T.);
#173=EDGE_CURVE('',#235,#237,#278,.T.);
#174=EDGE_CURVE('',#237,#238,#279,.T.);
#175=EDGE_CURVE('',#239,#238,#280,.T.);
#176=EDGE_CURVE('',#239,#240,#281,.F.);
#177=EDGE_CURVE('',#240,#241,#282,.T.);
#178=EDGE_CURVE('',#241,#242,#22,.F.);
#179=EDGE_CURVE('',#242,#243,#23,.T.);
#180=EDGE_CURVE('',#243,#236,#283,.T.);
#181=EDGE_CURVE('',#244,#245,#284,.T.);
#182=EDGE_CURVE('',#244,#235,#24,.T.);
#183=EDGE_CURVE('',#246,#236,#285,.T.);
#184=EDGE_CURVE('',#247,#246,#286,.T.);
#185=EDGE_CURVE('',#247,#245,#25,.T.);
#186=EDGE_CURVE('',#248,#249,#287,.T.);
#187=EDGE_CURVE('',#248,#247,#288,.F.);
#188=EDGE_CURVE('',#250,#246,#289,.T.);
#189=EDGE_CURVE('',#250,#251,#26,.F.);
#190=EDGE_CURVE('',#251,#252,#27,.T.);
#191=EDGE_CURVE('',#253,#252,#290,.T.);
#192=EDGE_CURVE('',#253,#254,#291,.T.);
#193=EDGE_CURVE('',#254,#249,#292,.T.);
#194=EDGE_CURVE('',#255,#256,#293,.T.);
#195=EDGE_CURVE('',#255,#257,#28,.F.);
#196=EDGE_CURVE('',#257,#258,#294,.T.);
#197=EDGE_CURVE('',#258,#231,#29,.F.);
#198=EDGE_CURVE('',#232,#259,#30,.F.);
#199=EDGE_CURVE('',#260,#259,#295,.T.);
#200=EDGE_CURVE('',#260,#256,#31,.F.);
#201=EDGE_CURVE('',#237,#261,#32,.T.);
#202=EDGE_CURVE('',#262,#261,#296,.T.);
#203=EDGE_CURVE('',#262,#248,#33,.T.);
#204=EDGE_CURVE('',#249,#238,#297,.T.);
#205=EDGE_CURVE('',#263,#264,#298,.T.);
#206=EDGE_CURVE('',#263,#255,#299,.F.);
#207=EDGE_CURVE('',#256,#264,#300,.F.);
#208=EDGE_CURVE('',#265,#266,#301,.T.);
#209=EDGE_CURVE('',#265,#263,#34,.T.);
#210=EDGE_CURVE('',#264,#267,#35,.T.);
#211=EDGE_CURVE('',#268,#267,#302,.T.);
#212=EDGE_CURVE('',#268,#234,#36,.T.);
#213=EDGE_CURVE('',#233,#266,#37,.T.);
#214=EDGE_CURVE('',#243,#250,#303,.T.);
#215=EDGE_CURVE('',#267,#260,#304,.T.);
#216=EDGE_CURVE('',#259,#268,#305,.T.);
#217=EDGE_CURVE('',#269,#270,#306,.T.);
#218=EDGE_CURVE('',#269,#271,#307,.T.);
#219=EDGE_CURVE('',#271,#272,#308,.T.);
#220=EDGE_CURVE('',#272,#270,#309,.F.);
#221=EDGE_CURVE('',#252,#241,#310,.T.);
#222=EDGE_CURVE('',#240,#269,#38,.T.);
#223=EDGE_CURVE('',#270,#253,#39,.T.);
#224=EDGE_CURVE('',#271,#239,#40,.F.);
#225=EDGE_CURVE('',#254,#272,#41,.F.);
#226=EDGE_CURVE('',#242,#251,#311,.T.);
#227=EDGE_CURVE('',#261,#244,#312,.F.);
#228=EDGE_CURVE('',#245,#262,#313,.T.);
#229=EDGE_CURVE('',#257,#265,#314,.T.);
#230=EDGE_CURVE('',#266,#258,#315,.F.);
#231=VERTEX_POINT('',#640);
#232=VERTEX_POINT('',#641);
#233=VERTEX_POINT('',#643);
#234=VERTEX_POINT('',#645);
#235=VERTEX_POINT('',#649);
#236=VERTEX_POINT('',#650);
#237=VERTEX_POINT('',#652);
#238=VERTEX_POINT('',#654);
#239=VERTEX_POINT('',#656);
#240=VERTEX_POINT('',#658);
#241=VERTEX_POINT('',#660);
#242=VERTEX_POINT('',#662);
#243=VERTEX_POINT('',#664);
#244=VERTEX_POINT('',#668);
#245=VERTEX_POINT('',#669);
#246=VERTEX_POINT('',#672);
#247=VERTEX_POINT('',#674);
#248=VERTEX_POINT('',#678);
#249=VERTEX_POINT('',#679);
#250=VERTEX_POINT('',#682);
#251=VERTEX_POINT('',#684);
#252=VERTEX_POINT('',#686);
#253=VERTEX_POINT('',#688);
#254=VERTEX_POINT('',#690);
#255=VERTEX_POINT('',#694);
#256=VERTEX_POINT('',#695);
#257=VERTEX_POINT('',#697);
#258=VERTEX_POINT('',#699);
#259=VERTEX_POINT('',#702);
#260=VERTEX_POINT('',#704);
#261=VERTEX_POINT('',#707);
#262=VERTEX_POINT('',#709);
#263=VERTEX_POINT('',#714);
#264=VERTEX_POINT('',#715);
#265=VERTEX_POINT('',#720);
#266=VERTEX_POINT('',#721);
#267=VERTEX_POINT('',#724);
#268=VERTEX_POINT('',#726);
#269=VERTEX_POINT('',#736);
#270=VERTEX_POINT('',#737);
#271=VERTEX_POINT('',#739);
#272=VERTEX_POINT('',#741);
#273=LINE('',#639,#316);
#274=LINE('',#642,#317);
#275=LINE('',#644,#318);
#276=LINE('',#646,#319);
#277=LINE('',#648,#320);
#278=LINE('',#651,#321);
#279=LINE('',#653,#322);
#280=LINE('',#655,#323);
#281=LINE('',#657,#324);
#282=LINE('',#659,#325);
#283=LINE('',#665,#326);
#284=LINE('',#667,#327);
#285=LINE('',#671,#328);
#286=LINE('',#673,#329);
#287=LINE('',#677,#330);
#288=LINE('',#680,#331);
#289=LINE('',#681,#332);
#290=LINE('',#687,#333);
#291=LINE('',#689,#334);
#292=LINE('',#691,#335);
#293=LINE('',#693,#336);
#294=LINE('',#698,#337);
#295=LINE('',#703,#338);
#296=LINE('',#708,#339);
#297=LINE('',#711,#340);
#298=LINE('',#713,#341);
#299=LINE('',#716,#342);
#300=LINE('',#717,#343);
#301=LINE('',#719,#344);
#302=LINE('',#725,#345);
#303=LINE('',#730,#346);
#304=LINE('',#732,#347);
#305=LINE('',#733,#348);
#306=LINE('',#735,#349);
#307=LINE('',#738,#350);
#308=LINE('',#740,#351);
#309=LINE('',#742,#352);
#310=LINE('',#744,#353);
#311=LINE('',#751,#354);
#312=LINE('',#758,#355);
#313=LINE('',#759,#356);
#314=LINE('',#761,#357);
#315=LINE('',#762,#358);
#316=VECTOR('',#508,1.);
#317=VECTOR('',#509,1.);
#318=VECTOR('',#510,1.);
#319=VECTOR('',#511,1.);
#320=VECTOR('',#514,1.);
#321=VECTOR('',#515,1.);
#322=VECTOR('',#516,1.);
#323=VECTOR('',#517,1.);
#324=VECTOR('',#518,1.);
#325=VECTOR('',#519,1.);
#326=VECTOR('',#524,1.);
#327=VECTOR('',#527,1.);
#328=VECTOR('',#530,1.);
#329=VECTOR('',#531,1.);
#330=VECTOR('',#536,1.);
#331=VECTOR('',#537,1.);
#332=VECTOR('',#538,1.);
#333=VECTOR('',#543,1.);
#334=VECTOR('',#544,1.);
#335=VECTOR('',#545,1.);
#336=VECTOR('',#548,1.);
#337=VECTOR('',#551,1.);
#338=VECTOR('',#556,1.);
#339=VECTOR('',#561,1.);
#340=VECTOR('',#564,1.);
#341=VECTOR('',#567,1.);
#342=VECTOR('',#568,1.);
#343=VECTOR('',#569,1.);
#344=VECTOR('',#572,1.);
#345=VECTOR('',#577,1.);
#346=VECTOR('',#584,1.);
#347=VECTOR('',#587,1.);
#348=VECTOR('',#588,1.);
#349=VECTOR('',#591,1.);
#350=VECTOR('',#592,1.);
#351=VECTOR('',#593,1.);
#352=VECTOR('',#594,1.);
#353=VECTOR('',#597,1.);
#354=VECTOR('',#610,1.);
#355=VECTOR('',#623,1.);
#356=VECTOR('',#624,1.);
#357=VECTOR('',#627,1.);
#358=VECTOR('',#628,1.);
#359=EDGE_LOOP('',(#42,#43,#44,#45));
#360=EDGE_LOOP('',(#46,#47,#48,#49,#50,#51,#52,#53,#54));
#361=EDGE_LOOP('',(#55,#56,#57,#58,#59,#60));
#362=EDGE_LOOP('',(#61,#62,#63,#64,#65,#66,#67,#68,#69));
#363=EDGE_LOOP('',(#70,#71,#72,#73,#74,#75,#76,#77));
#364=EDGE_LOOP('',(#78,#79,#80,#81,#82,#83));
#365=EDGE_LOOP('',(#84,#85,#86,#87));
#366=EDGE_LOOP('',(#88,#89,#90,#91,#92,#93,#94,#95));
#367=EDGE_LOOP('',(#96,#97,#98,#99));
#368=EDGE_LOOP('',(#100,#101,#102,#103));
#369=EDGE_LOOP('',(#104,#105,#106,#107));
#370=EDGE_LOOP('',(#108,#109,#110,#111,#112,#113));
#371=EDGE_LOOP('',(#114,#115,#116,#117,#118,#119));
#372=EDGE_LOOP('',(#120,#121,#122,#123));
#373=EDGE_LOOP('',(#124,#125,#126,#127));
#374=EDGE_LOOP('',(#128,#129,#130,#131));
#375=EDGE_LOOP('',(#132,#133,#134,#135));
#376=EDGE_LOOP('',(#136,#137,#138,#139));
#377=EDGE_LOOP('',(#140,#141,#142,#143));
#378=EDGE_LOOP('',(#144,#145,#146,#147));
#379=EDGE_LOOP('',(#148,#149,#150,#151));
#380=EDGE_LOOP('',(#152,#153,#154,#155));
#381=EDGE_LOOP('',(#156,#157,#158,#159));
#382=EDGE_LOOP('',(#160,#161,#162,#163));
#383=EDGE_LOOP('',(#164,#165,#166,#167));
#384=FACE_BOUND('',#359,.T.);
#385=FACE_BOUND('',#360,.T.);
#386=FACE_BOUND('',#361,.T.);
#387=FACE_BOUND('',#362,.T.);
#388=FACE_BOUND('',#363,.T.);
#389=FACE_BOUND('',#364,.T.);
#390=FACE_BOUND('',#365,.T.);
#391=FACE_BOUND('',#366,.T.);
#392=FACE_BOUND('',#367,.T.);
#393=FACE_BOUND('',#368,.T.);
#394=FACE_BOUND('',#369,.T.);
#395=FACE_BOUND('',#370,.T.);
#396=FACE_BOUND('',#371,.T.);
#397=FACE_BOUND('',#372,.T.);
#398=FACE_BOUND('',#373,.T.);
#399=FACE_BOUND('',#374,.T.);
#400=FACE_BOUND('',#375,.T.);
#401=FACE_BOUND('',#376,.T.);
#402=FACE_BOUND('',#377,.T.);
#403=FACE_BOUND('',#378,.T.);
#404=FACE_BOUND('',#379,.T.);
#405=FACE_BOUND('',#380,.T.);
#406=FACE_BOUND('',#381,.T.);
#407=FACE_BOUND('',#382,.T.);
#408=FACE_BOUND('',#383,.T.);
#409=PLANE('',#460);
#410=PLANE('',#461);
#411=PLANE('',#464);
#412=PLANE('',#467);
#413=PLANE('',#470);
#414=PLANE('',#477);
#415=PLANE('',#478);
#416=PLANE('',#483);
#417=PLANE('',#484);
#418=PLANE('',#485);
#419=PLANE('',#486);
#420=PLANE('',#489);
#421=PLANE('',#498);
#422=PLANE('',#499);
#423=ADVANCED_FACE('',(#384),#409,.T.);
#424=ADVANCED_FACE('',(#385),#410,.F.);
#425=ADVANCED_FACE('',(#386),#411,.T.);
#426=ADVANCED_FACE('',(#387),#412,.T.);
#427=ADVANCED_FACE('',(#388,#389),#413,.T.);
#428=ADVANCED_FACE('',(#390),#414,.T.);
#429=ADVANCED_FACE('',(#391),#415,.T.);
#430=ADVANCED_FACE('',(#392),#416,.F.);
#431=ADVANCED_FACE('',(#393),#417,.F.);
#432=ADVANCED_FACE('',(#394),#418,.F.);
#433=ADVANCED_FACE('',(#395),#419,.T.);
#434=ADVANCED_FACE('',(#396),#420,.F.);
#435=ADVANCED_FACE('',(#397),#12,.F.);
#436=ADVANCED_FACE('',(#398),#13,.T.);
#437=ADVANCED_FACE('',(#399),#14,.T.);
#438=ADVANCED_FACE('',(#400),#15,.T.);
#439=ADVANCED_FACE('',(#401),#16,.F.);
#440=ADVANCED_FACE('',(#402),#17,.F.);
#441=ADVANCED_FACE('',(#403),#421,.F.);
#442=ADVANCED_FACE('',(#404),#422,.T.);
#443=ADVANCED_FACE('',(#405),#18,.F.);
#444=ADVANCED_FACE('',(#406),#19,.F.);
#445=ADVANCED_FACE('',(#407),#20,.T.);
#446=ADVANCED_FACE('',(#408),#21,.T.);
#447=CLOSED_SHELL('',(#423,#424,#425,#426,#427,#428,#429,#430,#431,#432,
#433,#434,#435,#436,#437,#438,#439,#440,#441,#442,#443,#444,#445,#446));
#448=STYLED_ITEM('',(#449),#456);
#449=PRESENTATION_STYLE_ASSIGNMENT((#450));
#450=SURFACE_STYLE_USAGE(.BOTH.,#451);
#451=SURFACE_SIDE_STYLE('',(#452));
#452=SURFACE_STYLE_FILL_AREA(#453);
#453=FILL_AREA_STYLE('',(#454));
#454=FILL_AREA_STYLE_COLOUR('',#455);
#455=DRAUGHTING_PRE_DEFINED_COLOUR('red');
#456=MANIFOLD_SOLID_BREP('Coin Bin',#447);
#457=SHAPE_DEFINITION_REPRESENTATION(#773,#458);
#458=SHAPE_REPRESENTATION('Coin Bin',(#459),#768);
#459=AXIS2_PLACEMENT_3D('',#637,#504,#505);
#460=AXIS2_PLACEMENT_3D('',#638,#506,#507);
#461=AXIS2_PLACEMENT_3D('',#647,#512,#513);
#462=AXIS2_PLACEMENT_3D('',#661,#520,#521);
#463=AXIS2_PLACEMENT_3D('',#663,#522,#523);
#464=AXIS2_PLACEMENT_3D('',#666,#525,#526);
#465=AXIS2_PLACEMENT_3D('',#670,#528,#529);
#466=AXIS2_PLACEMENT_3D('',#675,#532,#533);
#467=AXIS2_PLACEMENT_3D('',#676,#534,#535);
#468=AXIS2_PLACEMENT_3D('',#683,#539,#540);
#469=AXIS2_PLACEMENT_3D('',#685,#541,#542);
#470=AXIS2_PLACEMENT_3D('',#692,#546,#547);
#471=AXIS2_PLACEMENT_3D('',#696,#549,#550);
#472=AXIS2_PLACEMENT_3D('',#700,#552,#553);
#473=AXIS2_PLACEMENT_3D('',#701,#554,#555);
#474=AXIS2_PLACEMENT_3D('',#705,#557,#558);
#475=AXIS2_PLACEMENT_3D('',#706,#559,#560);
#476=AXIS2_PLACEMENT_3D('',#710,#562,#563);
#477=AXIS2_PLACEMENT_3D('',#712,#565,#566);
#478=AXIS2_PLACEMENT_3D('',#718,#570,#571);
#479=AXIS2_PLACEMENT_3D('',#722,#573,#574);
#480=AXIS2_PLACEMENT_3D('',#723,#575,#576);
#481=AXIS2_PLACEMENT_3D('',#727,#578,#579);
#482=AXIS2_PLACEMENT_3D('',#728,#580,#581);
#483=AXIS2_PLACEMENT_3D('',#729,#582,#583);
#484=AXIS2_PLACEMENT_3D('',#731,#585,#586);
#485=AXIS2_PLACEMENT_3D('',#734,#589,#590);
#486=AXIS2_PLACEMENT_3D('',#743,#595,#596);
#487=AXIS2_PLACEMENT_3D('',#745,#598,#599);
#488=AXIS2_PLACEMENT_3D('',#746,#600,#601);
#489=AXIS2_PLACEMENT_3D('',#747,#602,#603);
#490=AXIS2_PLACEMENT_3D('',#748,#604,#605);
#491=AXIS2_PLACEMENT_3D('',#749,#606,#607);
#492=AXIS2_PLACEMENT_3D('',#750,#608,#609);
#493=AXIS2_PLACEMENT_3D('',#752,#611,#612);
#494=AXIS2_PLACEMENT_3D('',#753,#613,#614);
#495=AXIS2_PLACEMENT_3D('',#754,#615,#616);
#496=AXIS2_PLACEMENT_3D('',#755,#617,#618);
#497=AXIS2_PLACEMENT_3D('',#756,#619,#620);
#498=AXIS2_PLACEMENT_3D('',#757,#621,#622);
#499=AXIS2_PLACEMENT_3D('',#760,#625,#626);
#500=AXIS2_PLACEMENT_3D('',#763,#629,#630);
#501=AXIS2_PLACEMENT_3D('',#764,#631,#632);
#502=AXIS2_PLACEMENT_3D('',#765,#633,#634);
#503=AXIS2_PLACEMENT_3D('',#766,#635,#636);
#504=DIRECTION('',(0.,0.,1.));
#505=DIRECTION('',(1.,0.,0.));
#506=DIRECTION('',(3.43175852763516E-17,1.,0.));
#507=DIRECTION('',(-1.,3.43175852763516E-17,0.));
#508=DIRECTION('',(-1.,3.43175852763516E-17,0.));
#509=DIRECTION('',(0.,0.,-1.));
#510=DIRECTION('',(-1.,3.43175852763516E-17,0.));
#511=DIRECTION('',(0.,0.,-1.));
#512=DIRECTION('',(3.43175852763516E-17,1.,0.));
#513=DIRECTION('',(-1.,3.43175852763516E-17,0.));
#514=DIRECTION('',(-1.,3.43175852763516E-17,0.));
#515=DIRECTION('',(0.,0.,1.));
#516=DIRECTION('',(-1.,3.43175852763516E-17,0.));
#517=DIRECTION('',(0.,0.,-1.));
#518=DIRECTION('',(1.,-3.43175852763516E-17,0.));
#519=DIRECTION('',(0.,0.,-1.));
#520=DIRECTION('',(3.43175852763516E-17,1.,0.));
#521=DIRECTION('',(-1.,3.43175852763516E-17,0.));
#522=DIRECTION('',(3.43175852763516E-17,1.,0.));
#523=DIRECTION('',(-1.,3.43175852763516E-17,0.));
#524=DIRECTION('',(0.,0.,-1.));
#525=DIRECTION('',(0.,0.,-1.));
#526=DIRECTION('',(-1.,0.,0.));
#527=DIRECTION('',(0.,1.,0.));
#528=DIRECTION('',(0.,0.,-1.));
#529=DIRECTION('',(-1.,0.,0.));
#530=DIRECTION('',(-3.43175852763516E-17,-1.,0.));
#531=DIRECTION('',(-1.,3.43175852763516E-17,0.));
#532=DIRECTION('',(0.,0.,-1.));
#533=DIRECTION('',(-1.,0.,0.));
#534=DIRECTION('',(3.43175852763516E-17,1.,0.));
#535=DIRECTION('',(-1.,3.43175852763516E-17,0.));
#536=DIRECTION('',(-1.,3.43175852763516E-17,0.));
#537=DIRECTION('',(0.,0.,1.));
#538=DIRECTION('',(0.,0.,-1.));
#539=DIRECTION('',(3.43175852763516E-17,1.,0.));
#540=DIRECTION('',(-1.,3.43175852763516E-17,0.));
#541=DIRECTION('',(3.43175852763516E-17,1.,0.));
#542=DIRECTION('',(-1.,3.43175852763516E-17,0.));
#543=DIRECTION('',(0.,0.,-1.));
#544=DIRECTION('',(1.,-3.43175852763516E-17,0.));
#545=DIRECTION('',(0.,0.,-1.));
#546=DIRECTION('',(0.,0.,1.));
#547=DIRECTION('',(1.,0.,0.));
#548=DIRECTION('',(-1.,3.43175852763516E-17,0.));
#549=DIRECTION('',(0.,0.,1.));
#550=DIRECTION('',(1.,0.,0.));
#551=DIRECTION('',(-3.43175852763516E-17,-1.,0.));
#552=DIRECTION('',(0.,0.,1.));
#553=DIRECTION('',(1.,0.,0.));
#554=DIRECTION('',(0.,0.,1.));
#555=DIRECTION('',(1.,0.,0.));
#556=DIRECTION('',(-3.43175852763516E-17,-1.,0.));
#557=DIRECTION('',(0.,0.,1.));
#558=DIRECTION('',(1.,0.,0.));
#559=DIRECTION('',(0.,0.,1.));
#560=DIRECTION('',(1.,0.,0.));
#561=DIRECTION('',(0.,-1.,0.));
#562=DIRECTION('',(0.,0.,1.));
#563=DIRECTION('',(1.,0.,0.));
#564=DIRECTION('',(-3.43175852763516E-17,-1.,0.));
#565=DIRECTION('',(-3.43175852763516E-17,-1.,0.));
#566=DIRECTION('',(1.,-3.43175852763516E-17,0.));
#567=DIRECTION('',(-1.,3.43175852763516E-17,0.));
#568=DIRECTION('',(0.,0.,-1.));
#569=DIRECTION('',(0.,0.,1.));
#570=DIRECTION('',(0.,0.,1.));
#571=DIRECTION('',(1.,0.,0.));
#572=DIRECTION('',(-3.43175852763516E-17,-1.,0.));
#573=DIRECTION('',(0.,0.,1.));
#574=DIRECTION('',(1.,0.,0.));
#575=DIRECTION('',(0.,0.,1.));
#576=DIRECTION('',(1.,0.,0.));
#577=DIRECTION('',(3.43175852763516E-17,1.,0.));
#578=DIRECTION('',(0.,0.,1.));
#579=DIRECTION('',(1.,0.,0.));
#580=DIRECTION('',(0.,0.,1.));
#581=DIRECTION('',(1.,0.,0.));
#582=DIRECTION('',(1.,-3.43175852763516E-17,0.));
#583=DIRECTION('',(3.43175852763516E-17,1.,0.));
#584=DIRECTION('',(3.43175852763516E-17,1.,0.));
#585=DIRECTION('',(-1.,3.43175852763516E-17,0.));
#586=DIRECTION('',(-3.43175852763516E-17,-1.,0.));
#587=DIRECTION('',(0.,0.,1.));
#588=DIRECTION('',(0.,0.,-1.));
#589=DIRECTION('',(0.,0.,-1.));
#590=DIRECTION('',(-1.,0.,0.));
#591=DIRECTION('',(3.43175852763516E-17,1.,0.));
#592=DIRECTION('',(1.,-3.43175852763516E-17,0.));
#593=DIRECTION('',(3.43175852763516E-17,1.,0.));
#594=DIRECTION('',(1.,-3.43175852763516E-17,0.));
#595=DIRECTION('',(-1.,3.43175852763516E-17,0.));
#596=DIRECTION('',(-3.43175852763516E-17,-1.,0.));
#597=DIRECTION('',(-3.43175852763516E-17,-1.,0.));
#598=DIRECTION('',(-1.,3.43175852763516E-17,0.));
#599=DIRECTION('',(-3.43175852763516E-17,-1.,0.));
#600=DIRECTION('',(-1.,3.43175852763516E-17,0.));
#601=DIRECTION('',(-3.43175852763516E-17,-1.,0.));
#602=DIRECTION('',(-1.,3.43175852763516E-17,0.));
#603=DIRECTION('',(-3.43175852763516E-17,-1.,0.));
#604=DIRECTION('',(-1.,3.43175852763516E-17,0.));
#605=DIRECTION('',(-3.43175852763516E-17,-1.,0.));
#606=DIRECTION('',(-1.,3.43175852763516E-17,0.));
#607=DIRECTION('',(-3.43175852763516E-17,-1.,0.));
#608=DIRECTION('',(3.43175852763516E-17,1.,0.));
#609=DIRECTION('',(-1.,3.43175852763516E-17,0.));
#610=DIRECTION('',(3.43175852763516E-17,1.,0.));
#611=DIRECTION('',(3.43175852763516E-17,1.,0.));
#612=DIRECTION('',(-1.,3.43175852763516E-17,0.));
#613=DIRECTION('',(1.,-3.43175852763516E-17,0.));
#614=DIRECTION('',(3.43175852763516E-17,1.,0.));
#615=DIRECTION('',(-1.,3.43175852763516E-17,0.));
#616=DIRECTION('',(-3.43175852763516E-17,-1.,0.));
#617=DIRECTION('',(0.,0.,1.));
#618=DIRECTION('',(1.,0.,0.));
#619=DIRECTION('',(0.,0.,-1.));
#620=DIRECTION('',(-1.,0.,0.));
#621=DIRECTION('',(-1.,0.,0.));
#622=DIRECTION('',(0.,0.,1.));
#623=DIRECTION('',(0.,0.,1.));
#624=DIRECTION('',(0.,0.,1.));
#625=DIRECTION('',(-1.,3.43175852763516E-17,0.));
#626=DIRECTION('',(-3.43175852763516E-17,-1.,0.));
#627=DIRECTION('',(0.,0.,-1.));
#628=DIRECTION('',(0.,0.,-1.));
#629=DIRECTION('',(0.,0.,1.));
#630=DIRECTION('',(1.,0.,0.));
#631=DIRECTION('',(0.,0.,1.));
#632=DIRECTION('',(1.,0.,0.));
#633=DIRECTION('',(0.,0.,1.));
#634=DIRECTION('',(1.,0.,0.));
#635=DIRECTION('',(0.,0.,-1.));
#636=DIRECTION('',(-1.,0.,0.));
#637=CARTESIAN_POINT('',(0.,0.,0.));
#638=CARTESIAN_POINT('',(0.025,0.0316000231355429,0.00776364225149155));
#639=CARTESIAN_POINT('',(0.025,0.0316000231355429,0.0277636422514916));
#640=CARTESIAN_POINT('',(0.012,0.0316000231355429,0.0277636422514916));
#641=CARTESIAN_POINT('',(-0.006,0.0316000231355429,0.0277636422514916));
#642=CARTESIAN_POINT('',(0.012,0.0316000231355429,-0.0122363577485084));
#643=CARTESIAN_POINT('',(0.012,0.0316000231355429,-0.0122363577485084));
#644=CARTESIAN_POINT('',(0.025,0.0316000231355429,-0.0122363577485084));
#645=CARTESIAN_POINT('',(-0.006,0.0316000231355429,-0.0122363577485084));
#646=CARTESIAN_POINT('',(-0.006,0.0316000231355429,0.00776364225149155));
#647=CARTESIAN_POINT('',(0.025,0.0266000231355428,0.00526364225149155));
#648=CARTESIAN_POINT('',(0.025,0.0266000231355428,-0.0172363577485085));
#649=CARTESIAN_POINT('',(0.015,0.0266000231355428,-0.0172363577485085));
#650=CARTESIAN_POINT('',(-0.013,0.0266000231355428,-0.0172363577485085));
#651=CARTESIAN_POINT('',(0.015,0.0266000231355428,0.00526364225149155));
#652=CARTESIAN_POINT('',(0.015,0.0266000231355428,0.0277636422514916));
#653=CARTESIAN_POINT('',(0.025,0.0266000231355428,0.0277636422514916));
#654=CARTESIAN_POINT('',(-0.013,0.0266000231355428,0.0277636422514916));
#655=CARTESIAN_POINT('',(-0.013,0.0266000231355428,0.00526364225149155));
#656=CARTESIAN_POINT('',(-0.013,0.0266000231355428,0.0307636422514916));
#657=CARTESIAN_POINT('',(0.025,0.0266000231355428,0.0307636422514916));
#658=CARTESIAN_POINT('',(-0.016,0.0266000231355428,0.0307636422514916));
#659=CARTESIAN_POINT('',(-0.016,0.0266000231355428,0.00526364225149155));
#660=CARTESIAN_POINT('',(-0.016,0.0266000231355428,0.0193462179464474));
#661=CARTESIAN_POINT('',(-0.014,0.0266000231355428,0.0193462179464474));
#662=CARTESIAN_POINT('',(-0.0148,0.0266000231355428,0.0175131876684651));
#663=CARTESIAN_POINT('',(-0.016,0.0266000231355428,0.0147636422514915));
#664=CARTESIAN_POINT('',(-0.013,0.0266000231355428,0.0147636422514915));
#665=CARTESIAN_POINT('',(-0.013,0.0266000231355428,0.00526364225149155));
#666=CARTESIAN_POINT('',(0.025,0.0472373012395199,-0.0172363577485085));
#667=CARTESIAN_POINT('',(0.02,0.0472373012395199,-0.0172363577485085));
#668=CARTESIAN_POINT('',(0.02,0.0316000231355429,-0.0172363577485085));
#669=CARTESIAN_POINT('',(0.02,0.0628745793434969,-0.0172363577485085));
#670=CARTESIAN_POINT('',(0.015,0.0316000231355429,-0.0172363577485085));
#671=CARTESIAN_POINT('',(-0.013,0.0472373012395199,-0.0172363577485085));
#672=CARTESIAN_POINT('',(-0.013,0.0678745793434969,-0.0172363577485085));
#673=CARTESIAN_POINT('',(0.025,0.0678745793434969,-0.0172363577485085));
#674=CARTESIAN_POINT('',(0.015,0.0678745793434969,-0.0172363577485085));
#675=CARTESIAN_POINT('',(0.015,0.0628745793434969,-0.0172363577485085));
#676=CARTESIAN_POINT('',(0.025,0.0678745793434969,0.00526364225149155));
#677=CARTESIAN_POINT('',(0.025,0.0678745793434969,0.0277636422514916));
#678=CARTESIAN_POINT('',(0.015,0.0678745793434969,0.0277636422514916));
#679=CARTESIAN_POINT('',(-0.013,0.0678745793434969,0.0277636422514916));
#680=CARTESIAN_POINT('',(0.015,0.0678745793434969,-0.0172363577485085));
#681=CARTESIAN_POINT('',(-0.013,0.0678745793434969,0.00526364225149155));
#682=CARTESIAN_POINT('',(-0.013,0.0678745793434969,0.0147636422514915));
#683=CARTESIAN_POINT('',(-0.016,0.0678745793434969,0.0147636422514915));
#684=CARTESIAN_POINT('',(-0.0148,0.0678745793434969,0.0175131876684651));
#685=CARTESIAN_POINT('',(-0.014,0.0678745793434969,0.0193462179464474));
#686=CARTESIAN_POINT('',(-0.016,0.0678745793434969,0.0193462179464474));
#687=CARTESIAN_POINT('',(-0.016,0.0678745793434969,0.00526364225149155));
#688=CARTESIAN_POINT('',(-0.016,0.0678745793434969,0.0307636422514916));
#689=CARTESIAN_POINT('',(-0.013,0.0678745793434969,0.0307636422514916));
#690=CARTESIAN_POINT('',(-0.013,0.0678745793434969,0.0307636422514916));
#691=CARTESIAN_POINT('',(-0.013,0.0678745793434969,0.00526364225149155));
#692=CARTESIAN_POINT('',(0.025,0.0653745793434969,0.0277636422514916));
#693=CARTESIAN_POINT('',(0.025,0.0628745793434969,0.0277636422514916));
#694=CARTESIAN_POINT('',(0.012,0.0628745793434969,0.0277636422514916));
#695=CARTESIAN_POINT('',(-0.006,0.0628745793434969,0.0277636422514916));
#696=CARTESIAN_POINT('',(0.012,0.0578745793434969,0.0277636422514916));
#697=CARTESIAN_POINT('',(0.017,0.0578745793434969,0.0277636422514916));
#698=CARTESIAN_POINT('',(0.017,0.0636000231355429,0.0277636422514916));
#699=CARTESIAN_POINT('',(0.017,0.0366000231355429,0.0277636422514916));
#700=CARTESIAN_POINT('',(0.012,0.0366000231355429,0.0277636422514916));
#701=CARTESIAN_POINT('',(-0.006,0.0366000231355429,0.0277636422514916));
#702=CARTESIAN_POINT('',(-0.011,0.0366000231355429,0.0277636422514916));
#703=CARTESIAN_POINT('',(-0.011,0.0472373012395199,0.0277636422514916));
#704=CARTESIAN_POINT('',(-0.011,0.0578745793434969,0.0277636422514916));
#705=CARTESIAN_POINT('',(-0.006,0.0578745793434969,0.0277636422514916));
#706=CARTESIAN_POINT('',(0.015,0.0316000231355429,0.0277636422514916));
#707=CARTESIAN_POINT('',(0.02,0.0316000231355429,0.0277636422514916));
#708=CARTESIAN_POINT('',(0.02,0.0472373012395199,0.0277636422514916));
#709=CARTESIAN_POINT('',(0.02,0.0628745793434969,0.0277636422514916));
#710=CARTESIAN_POINT('',(0.015,0.0628745793434969,0.0277636422514916));
#711=CARTESIAN_POINT('',(-0.013,0.0291000231355429,0.0277636422514916));
#712=CARTESIAN_POINT('',(0.025,0.0628745793434969,0.00776364225149155));
#713=CARTESIAN_POINT('',(0.025,0.0628745793434969,-0.0122363577485084));
#714=CARTESIAN_POINT('',(0.012,0.0628745793434969,-0.0122363577485084));
#715=CARTESIAN_POINT('',(-0.006,0.0628745793434969,-0.0122363577485084));
#716=CARTESIAN_POINT('',(0.012,0.0628745793434969,0.0277636422514916));
#717=CARTESIAN_POINT('',(-0.006,0.0628745793434969,0.00776364225149155));
#718=CARTESIAN_POINT('',(0.025,0.0472373012395199,-0.0122363577485084));
#719=CARTESIAN_POINT('',(0.017,0.0636000231355429,-0.0122363577485084));
#720=CARTESIAN_POINT('',(0.017,0.0578745793434969,-0.0122363577485084));
#721=CARTESIAN_POINT('',(0.017,0.0366000231355429,-0.0122363577485084));
#722=CARTESIAN_POINT('',(0.012,0.0578745793434969,-0.0122363577485084));
#723=CARTESIAN_POINT('',(-0.006,0.0578745793434969,-0.0122363577485084));
#724=CARTESIAN_POINT('',(-0.011,0.0578745793434969,-0.0122363577485084));
#725=CARTESIAN_POINT('',(-0.011,0.0472373012395199,-0.0122363577485084));
#726=CARTESIAN_POINT('',(-0.011,0.0366000231355429,-0.0122363577485084));
#727=CARTESIAN_POINT('',(-0.006,0.0366000231355429,-0.0122363577485084));
#728=CARTESIAN_POINT('',(0.012,0.0366000231355429,-0.0122363577485084));
#729=CARTESIAN_POINT('',(-0.013,0.0472373012395199,0.00876364225149155));
#730=CARTESIAN_POINT('',(-0.013,0.0472373012395199,0.0147636422514915));
#731=CARTESIAN_POINT('',(-0.011,0.0472373012395199,0.00526364225149155));
#732=CARTESIAN_POINT('',(-0.011,0.0578745793434969,0.00526364225149155));
#733=CARTESIAN_POINT('',(-0.011,0.0366000231355429,0.00526364225149155));
#734=CARTESIAN_POINT('',(-0.016,0.0472373012395199,0.0327636422514915));
#735=CARTESIAN_POINT('',(-0.016,0.0472373012395199,0.0327636422514915));
#736=CARTESIAN_POINT('',(-0.016,0.0286000231355428,0.0327636422514915));
#737=CARTESIAN_POINT('',(-0.016,0.0658745793434969,0.0327636422514915));
#738=CARTESIAN_POINT('',(-0.016,0.0286000231355428,0.0327636422514915));
#739=CARTESIAN_POINT('',(-0.013,0.0286000231355428,0.0327636422514915));
#740=CARTESIAN_POINT('',(-0.013,0.0472373012395199,0.0327636422514915));
#741=CARTESIAN_POINT('',(-0.013,0.0658745793434969,0.0327636422514915));
#742=CARTESIAN_POINT('',(-0.016,0.0658745793434969,0.0327636422514915));
#743=CARTESIAN_POINT('',(-0.016,0.0472373012395199,0.00776364225149155));
#744=CARTESIAN_POINT('',(-0.016,0.0266000231355428,0.0193462179464474));
#745=CARTESIAN_POINT('',(-0.016,0.0286000231355428,0.0307636422514916));
#746=CARTESIAN_POINT('',(-0.016,0.0658745793434969,0.0307636422514916));
#747=CARTESIAN_POINT('',(-0.013,0.0472373012395199,0.00776364225149155));
#748=CARTESIAN_POINT('',(-0.013,0.0286000231355428,0.0307636422514916));
#749=CARTESIAN_POINT('',(-0.013,0.0658745793434969,0.0307636422514916));
#750=CARTESIAN_POINT('',(-0.016,0.0472373012395199,0.0147636422514915));
#751=CARTESIAN_POINT('',(-0.0148,0.0472373012395199,0.0175131876684651));
#752=CARTESIAN_POINT('',(-0.014,0.0472373012395199,0.0193462179464474));
#753=CARTESIAN_POINT('',(-0.016,0.0286000231355428,0.0307636422514916));
#754=CARTESIAN_POINT('',(0.025,0.0658745793434969,0.0307636422514916));
#755=CARTESIAN_POINT('',(-0.006,0.0578745793434969,0.00526364225149155));
#756=CARTESIAN_POINT('',(-0.006,0.0366000231355429,0.00526364225149155));
#757=CARTESIAN_POINT('',(0.02,0.0472373012395199,-0.0307363577485085));
#758=CARTESIAN_POINT('',(0.02,0.0316000231355429,-0.0307363577485085));
#759=CARTESIAN_POINT('',(0.02,0.0628745793434969,0.0277636422514916));
#760=CARTESIAN_POINT('',(0.017,0.0636000231355429,0.00776364225149155));
#761=CARTESIAN_POINT('',(0.017,0.0578745793434969,-0.0122363577485084));
#762=CARTESIAN_POINT('',(0.017,0.0366000231355429,0.0277636422514916));
#763=CARTESIAN_POINT('',(0.012,0.0578745793434969,0.00776364225149155));
#764=CARTESIAN_POINT('',(0.012,0.0366000231355429,0.00776364225149155));
#765=CARTESIAN_POINT('',(0.015,0.0316000231355429,0.00526364225149155));
#766=CARTESIAN_POINT('',(0.015,0.0628745793434969,-0.0307363577485085));
#767=MECHANICAL_DESIGN_GEOMETRIC_PRESENTATION_REPRESENTATION('',(#448),
#768);
#768=(
GEOMETRIC_REPRESENTATION_CONTEXT(3)
GLOBAL_UNCERTAINTY_ASSIGNED_CONTEXT((#769))
GLOBAL_UNIT_ASSIGNED_CONTEXT((#772,#771,#770))
REPRESENTATION_CONTEXT('Coin Bin','TOP_LEVEL_ASSEMBLY_PART')
);
#769=UNCERTAINTY_MEASURE_WITH_UNIT(LENGTH_MEASURE(1.E-8),#772,
'DISTANCE_ACCURACY_VALUE','Maximum Tolerance applied to model');
#770=(
NAMED_UNIT(*)
SI_UNIT($,.STERADIAN.)
SOLID_ANGLE_UNIT()
);
#771=(
NAMED_UNIT(*)
PLANE_ANGLE_UNIT()
SI_UNIT($,.RADIAN.)
);
#772=(
LENGTH_UNIT()
NAMED_UNIT(*)
SI_UNIT($,.METRE.)
);
#773=PRODUCT_DEFINITION_SHAPE('','',#774);
#774=PRODUCT_DEFINITION('','',#776,#775);
#775=PRODUCT_DEFINITION_CONTEXT('',#782,'design');
#776=PRODUCT_DEFINITION_FORMATION_WITH_SPECIFIED_SOURCE('','',#778,
 .NOT_KNOWN.);
#777=PRODUCT_RELATED_PRODUCT_CATEGORY('','',(#778));
#778=PRODUCT('Coin Bin','Coin Bin','Coin Bin',(#780));
#779=PRODUCT_CATEGORY('','');
#780=PRODUCT_CONTEXT('',#782,'mechanical');
#781=APPLICATION_PROTOCOL_DEFINITION('international standard',
'ap242_managed_model_based_3d_engineering',2020,#782);
#782=APPLICATION_CONTEXT('managed model based 3d engineering');
ENDSEC;
END-ISO-10303-21;
