ISO-10303-21;
HEADER;
/* Generated by software containing ST-Developer
 * from STEP Tools, Inc. (www.steptools.com) 
 */
/* OPTION: using custom renumber hook */

FILE_DESCRIPTION(
/* description */ ('STEP AP242 Edition 2',
'CAx-IF Rec.Pracs.---Representation and Presentation of Product Manufa
cturing Information (PMI)---4.0---2014-10-13',
'CAx-IF Rec.Pracs.---3D Tessellated Geometry---0.4---2014-09-14','2;1',
'CAx-IF Rec.Pracs.---User Defined Attributes---1.5---2016-08-15'),
/* implementation_level */ '2;1');

FILE_NAME(
/* name */ 'Assembly 1 - Coin Bin Wall',
/* time_stamp */ '2026-07-14T16:54:41Z',
/* author */ (''),
/* organization */ (''),
/* preprocessor_version */ 'ST-DEVELOPER v20',
/* originating_system */ 'ONSHAPE BY PTC INC, 1.217',
/* authorisation */ '  ');

FILE_SCHEMA (('AP242_MANAGED_MODEL_BASED_3D_ENGINEERING_MIM_LF { 1 0 10303 442 3 1 4 }'));
ENDSEC;

DATA;
#10=SHAPE_REPRESENTATION_RELATIONSHIP('','',#470,#11);
#11=ADVANCED_BREP_SHAPE_REPRESENTATION('',(#468),#748);
#12=CYLINDRICAL_SURFACE('',#486,0.002);
#13=CYLINDRICAL_SURFACE('',#487,0.002);
#14=CYLINDRICAL_SURFACE('',#488,0.002);
#15=CYLINDRICAL_SURFACE('',#489,0.002);
#16=CYLINDRICAL_SURFACE('',#505,0.002);
#17=CYLINDRICAL_SURFACE('',#506,0.002);
#18=CIRCLE('',#473,0.002);
#19=CIRCLE('',#474,0.002);
#20=CIRCLE('',#475,0.002);
#21=CIRCLE('',#476,0.002);
#22=CIRCLE('',#478,0.002);
#23=CIRCLE('',#479,0.002);
#24=CIRCLE('',#480,0.002);
#25=CIRCLE('',#481,0.002);
#26=CIRCLE('',#493,0.002);
#27=CIRCLE('',#494,0.002);
#28=CIRCLE('',#500,0.002);
#29=CIRCLE('',#504,0.002);
#30=ORIENTED_EDGE('',*,*,#144,.T.);
#31=ORIENTED_EDGE('',*,*,#145,.T.);
#32=ORIENTED_EDGE('',*,*,#146,.T.);
#33=ORIENTED_EDGE('',*,*,#147,.T.);
#34=ORIENTED_EDGE('',*,*,#148,.T.);
#35=ORIENTED_EDGE('',*,*,#149,.T.);
#36=ORIENTED_EDGE('',*,*,#150,.T.);
#37=ORIENTED_EDGE('',*,*,#151,.T.);
#38=ORIENTED_EDGE('',*,*,#152,.F.);
#39=ORIENTED_EDGE('',*,*,#153,.T.);
#40=ORIENTED_EDGE('',*,*,#154,.T.);
#41=ORIENTED_EDGE('',*,*,#155,.T.);
#42=ORIENTED_EDGE('',*,*,#156,.F.);
#43=ORIENTED_EDGE('',*,*,#157,.T.);
#44=ORIENTED_EDGE('',*,*,#158,.T.);
#45=ORIENTED_EDGE('',*,*,#159,.T.);
#46=ORIENTED_EDGE('',*,*,#160,.T.);
#47=ORIENTED_EDGE('',*,*,#161,.F.);
#48=ORIENTED_EDGE('',*,*,#162,.F.);
#49=ORIENTED_EDGE('',*,*,#163,.F.);
#50=ORIENTED_EDGE('',*,*,#164,.F.);
#51=ORIENTED_EDGE('',*,*,#165,.F.);
#52=ORIENTED_EDGE('',*,*,#166,.F.);
#53=ORIENTED_EDGE('',*,*,#167,.F.);
#54=ORIENTED_EDGE('',*,*,#168,.F.);
#55=ORIENTED_EDGE('',*,*,#169,.F.);
#56=ORIENTED_EDGE('',*,*,#170,.F.);
#57=ORIENTED_EDGE('',*,*,#171,.F.);
#58=ORIENTED_EDGE('',*,*,#172,.T.);
#59=ORIENTED_EDGE('',*,*,#173,.T.);
#60=ORIENTED_EDGE('',*,*,#174,.T.);
#61=ORIENTED_EDGE('',*,*,#168,.T.);
#62=ORIENTED_EDGE('',*,*,#175,.F.);
#63=ORIENTED_EDGE('',*,*,#147,.F.);
#64=ORIENTED_EDGE('',*,*,#176,.T.);
#65=ORIENTED_EDGE('',*,*,#169,.T.);
#66=ORIENTED_EDGE('',*,*,#174,.F.);
#67=ORIENTED_EDGE('',*,*,#146,.F.);
#68=ORIENTED_EDGE('',*,*,#177,.T.);
#69=ORIENTED_EDGE('',*,*,#166,.T.);
#70=ORIENTED_EDGE('',*,*,#176,.F.);
#71=ORIENTED_EDGE('',*,*,#145,.F.);
#72=ORIENTED_EDGE('',*,*,#175,.T.);
#73=ORIENTED_EDGE('',*,*,#167,.T.);
#74=ORIENTED_EDGE('',*,*,#177,.F.);
#75=ORIENTED_EDGE('',*,*,#144,.F.);
#76=ORIENTED_EDGE('',*,*,#165,.T.);
#77=ORIENTED_EDGE('',*,*,#148,.F.);
#78=ORIENTED_EDGE('',*,*,#164,.T.);
#79=ORIENTED_EDGE('',*,*,#149,.F.);
#80=ORIENTED_EDGE('',*,*,#163,.T.);
#81=ORIENTED_EDGE('',*,*,#150,.F.);
#82=ORIENTED_EDGE('',*,*,#162,.T.);
#83=ORIENTED_EDGE('',*,*,#151,.F.);
#84=ORIENTED_EDGE('',*,*,#178,.T.);
#85=ORIENTED_EDGE('',*,*,#161,.T.);
#86=ORIENTED_EDGE('',*,*,#179,.F.);
#87=ORIENTED_EDGE('',*,*,#173,.F.);
#88=ORIENTED_EDGE('',*,*,#180,.T.);
#89=ORIENTED_EDGE('',*,*,#181,.F.);
#90=ORIENTED_EDGE('',*,*,#182,.F.);
#91=ORIENTED_EDGE('',*,*,#152,.T.);
#92=ORIENTED_EDGE('',*,*,#178,.F.);
#93=ORIENTED_EDGE('',*,*,#172,.F.);
#94=ORIENTED_EDGE('',*,*,#183,.F.);
#95=ORIENTED_EDGE('',*,*,#184,.F.);
#96=ORIENTED_EDGE('',*,*,#185,.T.);
#97=ORIENTED_EDGE('',*,*,#159,.F.);
#98=ORIENTED_EDGE('',*,*,#186,.T.);
#99=ORIENTED_EDGE('',*,*,#187,.T.);
#100=ORIENTED_EDGE('',*,*,#188,.F.);
#101=ORIENTED_EDGE('',*,*,#155,.F.);
#102=ORIENTED_EDGE('',*,*,#189,.T.);
#103=ORIENTED_EDGE('',*,*,#190,.F.);
#104=ORIENTED_EDGE('',*,*,#180,.F.);
#105=ORIENTED_EDGE('',*,*,#171,.T.);
#106=ORIENTED_EDGE('',*,*,#160,.F.);
#107=ORIENTED_EDGE('',*,*,#185,.F.);
#108=ORIENTED_EDGE('',*,*,#170,.T.);
#109=ORIENTED_EDGE('',*,*,#179,.T.);
#110=ORIENTED_EDGE('',*,*,#186,.F.);
#111=ORIENTED_EDGE('',*,*,#158,.F.);
#112=ORIENTED_EDGE('',*,*,#191,.T.);
#113=ORIENTED_EDGE('',*,*,#192,.T.);
#114=ORIENTED_EDGE('',*,*,#187,.F.);
#115=ORIENTED_EDGE('',*,*,#192,.F.);
#116=ORIENTED_EDGE('',*,*,#193,.T.);
#117=ORIENTED_EDGE('',*,*,#194,.T.);
#118=ORIENTED_EDGE('',*,*,#188,.T.);
#119=ORIENTED_EDGE('',*,*,#194,.F.);
#120=ORIENTED_EDGE('',*,*,#195,.F.);
#121=ORIENTED_EDGE('',*,*,#156,.T.);
#122=ORIENTED_EDGE('',*,*,#196,.T.);
#123=ORIENTED_EDGE('',*,*,#157,.F.);
#124=ORIENTED_EDGE('',*,*,#195,.T.);
#125=ORIENTED_EDGE('',*,*,#193,.F.);
#126=ORIENTED_EDGE('',*,*,#191,.F.);
#127=ORIENTED_EDGE('',*,*,#189,.F.);
#128=ORIENTED_EDGE('',*,*,#154,.F.);
#129=ORIENTED_EDGE('',*,*,#197,.T.);
#130=ORIENTED_EDGE('',*,*,#198,.T.);
#131=ORIENTED_EDGE('',*,*,#190,.T.);
#132=ORIENTED_EDGE('',*,*,#198,.F.);
#133=ORIENTED_EDGE('',*,*,#199,.F.);
#134=ORIENTED_EDGE('',*,*,#181,.T.);
#135=ORIENTED_EDGE('',*,*,#200,.T.);
#136=ORIENTED_EDGE('',*,*,#182,.T.);
#137=ORIENTED_EDGE('',*,*,#199,.T.);
#138=ORIENTED_EDGE('',*,*,#197,.F.);
#139=ORIENTED_EDGE('',*,*,#153,.F.);
#140=ORIENTED_EDGE('',*,*,#200,.F.);
#141=ORIENTED_EDGE('',*,*,#184,.T.);
#142=ORIENTED_EDGE('',*,*,#196,.F.);
#143=ORIENTED_EDGE('',*,*,#183,.T.);
#144=EDGE_CURVE('',#201,#202,#243,.T.);
#145=EDGE_CURVE('',#202,#203,#244,.T.);
#146=EDGE_CURVE('',#203,#204,#245,.T.);
#147=EDGE_CURVE('',#204,#201,#246,.T.);
#148=EDGE_CURVE('',#205,#205,#18,.T.);
#149=EDGE_CURVE('',#206,#206,#19,.T.);
#150=EDGE_CURVE('',#207,#207,#20,.T.);
#151=EDGE_CURVE('',#208,#208,#21,.T.);
#152=EDGE_CURVE('',#209,#210,#247,.T.);
#153=EDGE_CURVE('',#209,#211,#248,.T.);
#154=EDGE_CURVE('',#211,#212,#249,.T.);
#155=EDGE_CURVE('',#212,#213,#250,.T.);
#156=EDGE_CURVE('',#214,#213,#251,.T.);
#157=EDGE_CURVE('',#214,#215,#252,.T.);
#158=EDGE_CURVE('',#215,#216,#253,.T.);
#159=EDGE_CURVE('',#216,#217,#254,.T.);
#160=EDGE_CURVE('',#217,#218,#255,.T.);
#161=EDGE_CURVE('',#210,#218,#256,.T.);
#162=EDGE_CURVE('',#219,#219,#22,.T.);
#163=EDGE_CURVE('',#220,#220,#23,.T.);
#164=EDGE_CURVE('',#221,#221,#24,.T.);
#165=EDGE_CURVE('',#222,#222,#25,.T.);
#166=EDGE_CURVE('',#223,#224,#257,.T.);
#167=EDGE_CURVE('',#225,#223,#258,.T.);
#168=EDGE_CURVE('',#226,#225,#259,.T.);
#169=EDGE_CURVE('',#224,#226,#260,.T.);
#170=EDGE_CURVE('',#227,#228,#261,.T.);
#171=EDGE_CURVE('',#229,#227,#262,.T.);
#172=EDGE_CURVE('',#229,#230,#263,.T.);
#173=EDGE_CURVE('',#230,#228,#264,.T.);
#174=EDGE_CURVE('',#204,#226,#265,.T.);
#175=EDGE_CURVE('',#201,#225,#266,.T.);
#176=EDGE_CURVE('',#203,#224,#267,.T.);
#177=EDGE_CURVE('',#202,#223,#268,.T.);
#178=EDGE_CURVE('',#230,#210,#269,.T.);
#179=EDGE_CURVE('',#228,#218,#270,.T.);
#180=EDGE_CURVE('',#229,#231,#271,.T.);
#181=EDGE_CURVE('',#232,#231,#272,.T.);
#182=EDGE_CURVE('',#209,#232,#273,.T.);
#183=EDGE_CURVE('',#233,#233,#26,.T.);
#184=EDGE_CURVE('',#234,#234,#27,.T.);
#185=EDGE_CURVE('',#227,#217,#274,.T.);
#186=EDGE_CURVE('',#216,#235,#275,.T.);
#187=EDGE_CURVE('',#235,#236,#276,.T.);
#188=EDGE_CURVE('',#213,#236,#277,.T.);
#189=EDGE_CURVE('',#212,#237,#278,.T.);
#190=EDGE_CURVE('',#231,#237,#279,.T.);
#191=EDGE_CURVE('',#215,#238,#280,.T.);
#192=EDGE_CURVE('',#238,#235,#281,.T.);
#193=EDGE_CURVE('',#238,#239,#282,.T.);
#194=EDGE_CURVE('',#239,#236,#283,.T.);
#195=EDGE_CURVE('',#214,#239,#284,.T.);
#196=EDGE_CURVE('',#240,#240,#28,.T.);
#197=EDGE_CURVE('',#211,#241,#285,.T.);
#198=EDGE_CURVE('',#241,#237,#286,.T.);
#199=EDGE_CURVE('',#232,#241,#287,.T.);
#200=EDGE_CURVE('',#242,#242,#29,.T.);
#201=VERTEX_POINT('',#627);
#202=VERTEX_POINT('',#628);
#203=VERTEX_POINT('',#630);
#204=VERTEX_POINT('',#632);
#205=VERTEX_POINT('',#635);
#206=VERTEX_POINT('',#637);
#207=VERTEX_POINT('',#639);
#208=VERTEX_POINT('',#641);
#209=VERTEX_POINT('',#643);
#210=VERTEX_POINT('',#644);
#211=VERTEX_POINT('',#646);
#212=VERTEX_POINT('',#648);
#213=VERTEX_POINT('',#650);
#214=VERTEX_POINT('',#652);
#215=VERTEX_POINT('',#654);
#216=VERTEX_POINT('',#656);
#217=VERTEX_POINT('',#658);
#218=VERTEX_POINT('',#660);
#219=VERTEX_POINT('',#664);
#220=VERTEX_POINT('',#666);
#221=VERTEX_POINT('',#668);
#222=VERTEX_POINT('',#670);
#223=VERTEX_POINT('',#672);
#224=VERTEX_POINT('',#673);
#225=VERTEX_POINT('',#675);
#226=VERTEX_POINT('',#677);
#227=VERTEX_POINT('',#680);
#228=VERTEX_POINT('',#681);
#229=VERTEX_POINT('',#683);
#230=VERTEX_POINT('',#685);
#231=VERTEX_POINT('',#704);
#232=VERTEX_POINT('',#706);
#233=VERTEX_POINT('',#710);
#234=VERTEX_POINT('',#712);
#235=VERTEX_POINT('',#715);
#236=VERTEX_POINT('',#717);
#237=VERTEX_POINT('',#720);
#238=VERTEX_POINT('',#725);
#239=VERTEX_POINT('',#729);
#240=VERTEX_POINT('',#735);
#241=VERTEX_POINT('',#738);
#242=VERTEX_POINT('',#744);
#243=LINE('',#626,#288);
#244=LINE('',#629,#289);
#245=LINE('',#631,#290);
#246=LINE('',#633,#291);
#247=LINE('',#642,#292);
#248=LINE('',#645,#293);
#249=LINE('',#647,#294);
#250=LINE('',#649,#295);
#251=LINE('',#651,#296);
#252=LINE('',#653,#297);
#253=LINE('',#655,#298);
#254=LINE('',#657,#299);
#255=LINE('',#659,#300);
#256=LINE('',#661,#301);
#257=LINE('',#671,#302);
#258=LINE('',#674,#303);
#259=LINE('',#676,#304);
#260=LINE('',#678,#305);
#261=LINE('',#679,#306);
#262=LINE('',#682,#307);
#263=LINE('',#684,#308);
#264=LINE('',#686,#309);
#265=LINE('',#688,#310);
#266=LINE('',#689,#311);
#267=LINE('',#691,#312);
#268=LINE('',#693,#313);
#269=LINE('',#700,#314);
#270=LINE('',#701,#315);
#271=LINE('',#703,#316);
#272=LINE('',#705,#317);
#273=LINE('',#707,#318);
#274=LINE('',#713,#319);
#275=LINE('',#714,#320);
#276=LINE('',#716,#321);
#277=LINE('',#718,#322);
#278=LINE('',#719,#323);
#279=LINE('',#721,#324);
#280=LINE('',#724,#325);
#281=LINE('',#726,#326);
#282=LINE('',#728,#327);
#283=LINE('',#730,#328);
#284=LINE('',#732,#329);
#285=LINE('',#737,#330);
#286=LINE('',#739,#331);
#287=LINE('',#741,#332);
#288=VECTOR('',#511,1.);
#289=VECTOR('',#512,1.);
#290=VECTOR('',#513,1.);
#291=VECTOR('',#514,1.);
#292=VECTOR('',#523,1.);
#293=VECTOR('',#524,1.);
#294=VECTOR('',#525,1.);
#295=VECTOR('',#526,1.);
#296=VECTOR('',#527,1.);
#297=VECTOR('',#528,1.);
#298=VECTOR('',#529,1.);
#299=VECTOR('',#530,1.);
#300=VECTOR('',#531,1.);
#301=VECTOR('',#532,1.);
#302=VECTOR('',#543,1.);
#303=VECTOR('',#544,1.);
#304=VECTOR('',#545,1.);
#305=VECTOR('',#546,1.);
#306=VECTOR('',#547,1.);
#307=VECTOR('',#548,1.);
#308=VECTOR('',#549,1.);
#309=VECTOR('',#550,1.);
#310=VECTOR('',#553,1.);
#311=VECTOR('',#554,1.);
#312=VECTOR('',#557,1.);
#313=VECTOR('',#560,1.);
#314=VECTOR('',#573,1.);
#315=VECTOR('',#574,1.);
#316=VECTOR('',#577,1.);
#317=VECTOR('',#578,1.);
#318=VECTOR('',#579,1.);
#319=VECTOR('',#586,1.);
#320=VECTOR('',#587,1.);
#321=VECTOR('',#588,1.);
#322=VECTOR('',#589,1.);
#323=VECTOR('',#590,1.);
#324=VECTOR('',#591,1.);
#325=VECTOR('',#596,1.);
#326=VECTOR('',#597,1.);
#327=VECTOR('',#600,1.);
#328=VECTOR('',#601,1.);
#329=VECTOR('',#604,1.);
#330=VECTOR('',#611,1.);
#331=VECTOR('',#612,1.);
#332=VECTOR('',#615,1.);
#333=EDGE_LOOP('',(#30,#31,#32,#33));
#334=EDGE_LOOP('',(#34));
#335=EDGE_LOOP('',(#35));
#336=EDGE_LOOP('',(#36));
#337=EDGE_LOOP('',(#37));
#338=EDGE_LOOP('',(#38,#39,#40,#41,#42,#43,#44,#45,#46,#47));
#339=EDGE_LOOP('',(#48));
#340=EDGE_LOOP('',(#49));
#341=EDGE_LOOP('',(#50));
#342=EDGE_LOOP('',(#51));
#343=EDGE_LOOP('',(#52,#53,#54,#55));
#344=EDGE_LOOP('',(#56,#57,#58,#59));
#345=EDGE_LOOP('',(#60,#61,#62,#63));
#346=EDGE_LOOP('',(#64,#65,#66,#67));
#347=EDGE_LOOP('',(#68,#69,#70,#71));
#348=EDGE_LOOP('',(#72,#73,#74,#75));
#349=EDGE_LOOP('',(#76));
#350=EDGE_LOOP('',(#77));
#351=EDGE_LOOP('',(#78));
#352=EDGE_LOOP('',(#79));
#353=EDGE_LOOP('',(#80));
#354=EDGE_LOOP('',(#81));
#355=EDGE_LOOP('',(#82));
#356=EDGE_LOOP('',(#83));
#357=EDGE_LOOP('',(#84,#85,#86,#87));
#358=EDGE_LOOP('',(#88,#89,#90,#91,#92,#93));
#359=EDGE_LOOP('',(#94));
#360=EDGE_LOOP('',(#95));
#361=EDGE_LOOP('',(#96,#97,#98,#99,#100,#101,#102,#103,#104,#105));
#362=EDGE_LOOP('',(#106,#107,#108,#109));
#363=EDGE_LOOP('',(#110,#111,#112,#113));
#364=EDGE_LOOP('',(#114,#115,#116,#117));
#365=EDGE_LOOP('',(#118,#119,#120,#121));
#366=EDGE_LOOP('',(#122));
#367=EDGE_LOOP('',(#123,#124,#125,#126));
#368=EDGE_LOOP('',(#127,#128,#129,#130));
#369=EDGE_LOOP('',(#131,#132,#133,#134));
#370=EDGE_LOOP('',(#135));
#371=EDGE_LOOP('',(#136,#137,#138,#139));
#372=EDGE_LOOP('',(#140));
#373=EDGE_LOOP('',(#141));
#374=EDGE_LOOP('',(#142));
#375=EDGE_LOOP('',(#143));
#376=FACE_BOUND('',#333,.T.);
#377=FACE_BOUND('',#334,.T.);
#378=FACE_BOUND('',#335,.T.);
#379=FACE_BOUND('',#336,.T.);
#380=FACE_BOUND('',#337,.T.);
#381=FACE_BOUND('',#338,.T.);
#382=FACE_BOUND('',#339,.T.);
#383=FACE_BOUND('',#340,.T.);
#384=FACE_BOUND('',#341,.T.);
#385=FACE_BOUND('',#342,.T.);
#386=FACE_BOUND('',#343,.T.);
#387=FACE_BOUND('',#344,.T.);
#388=FACE_BOUND('',#345,.T.);
#389=FACE_BOUND('',#346,.T.);
#390=FACE_BOUND('',#347,.T.);
#391=FACE_BOUND('',#348,.T.);
#392=FACE_BOUND('',#349,.T.);
#393=FACE_BOUND('',#350,.T.);
#394=FACE_BOUND('',#351,.T.);
#395=FACE_BOUND('',#352,.T.);
#396=FACE_BOUND('',#353,.T.);
#397=FACE_BOUND('',#354,.T.);
#398=FACE_BOUND('',#355,.T.);
#399=FACE_BOUND('',#356,.T.);
#400=FACE_BOUND('',#357,.T.);
#401=FACE_BOUND('',#358,.T.);
#402=FACE_BOUND('',#359,.T.);
#403=FACE_BOUND('',#360,.T.);
#404=FACE_BOUND('',#361,.T.);
#405=FACE_BOUND('',#362,.T.);
#406=FACE_BOUND('',#363,.T.);
#407=FACE_BOUND('',#364,.T.);
#408=FACE_BOUND('',#365,.T.);
#409=FACE_BOUND('',#366,.T.);
#410=FACE_BOUND('',#367,.T.);
#411=FACE_BOUND('',#368,.T.);
#412=FACE_BOUND('',#369,.T.);
#413=FACE_BOUND('',#370,.T.);
#414=FACE_BOUND('',#371,.T.);
#415=FACE_BOUND('',#372,.T.);
#416=FACE_BOUND('',#373,.T.);
#417=FACE_BOUND('',#374,.T.);
#418=FACE_BOUND('',#375,.T.);
#419=PLANE('',#472);
#420=PLANE('',#477);
#421=PLANE('',#482);
#422=PLANE('',#483);
#423=PLANE('',#484);
#424=PLANE('',#485);
#425=PLANE('',#490);
#426=PLANE('',#491);
#427=PLANE('',#492);
#428=PLANE('',#495);
#429=PLANE('',#496);
#430=PLANE('',#497);
#431=PLANE('',#498);
#432=PLANE('',#499);
#433=PLANE('',#501);
#434=PLANE('',#502);
#435=PLANE('',#503);
#436=ADVANCED_FACE('',(#376,#377,#378,#379,#380,#381),#419,.F.);
#437=ADVANCED_FACE('',(#382,#383,#384,#385,#386,#387),#420,.T.);
#438=ADVANCED_FACE('',(#388),#421,.F.);
#439=ADVANCED_FACE('',(#389),#422,.F.);
#440=ADVANCED_FACE('',(#390),#423,.F.);
#441=ADVANCED_FACE('',(#391),#424,.F.);
#442=ADVANCED_FACE('',(#392,#393),#12,.F.);
#443=ADVANCED_FACE('',(#394,#395),#13,.F.);
#444=ADVANCED_FACE('',(#396,#397),#14,.F.);
#445=ADVANCED_FACE('',(#398,#399),#15,.F.);
#446=ADVANCED_FACE('',(#400),#425,.F.);
#447=ADVANCED_FACE('',(#401),#426,.F.);
#448=ADVANCED_FACE('',(#402,#403,#404),#427,.T.);
#449=ADVANCED_FACE('',(#405),#428,.T.);
#450=ADVANCED_FACE('',(#406),#429,.T.);
#451=ADVANCED_FACE('',(#407),#430,.T.);
#452=ADVANCED_FACE('',(#408),#431,.F.);
#453=ADVANCED_FACE('',(#409,#410),#432,.F.);
#454=ADVANCED_FACE('',(#411),#433,.T.);
#455=ADVANCED_FACE('',(#412),#434,.F.);
#456=ADVANCED_FACE('',(#413,#414),#435,.F.);
#457=ADVANCED_FACE('',(#415,#416),#16,.F.);
#458=ADVANCED_FACE('',(#417,#418),#17,.F.);
#459=CLOSED_SHELL('',(#436,#437,#438,#439,#440,#441,#442,#443,#444,#445,
#446,#447,#448,#449,#450,#451,#452,#453,#454,#455,#456,#457,#458));
#460=STYLED_ITEM('',(#461),#468);
#461=PRESENTATION_STYLE_ASSIGNMENT((#462));
#462=SURFACE_STYLE_USAGE(.BOTH.,#463);
#463=SURFACE_SIDE_STYLE('',(#464));
#464=SURFACE_STYLE_FILL_AREA(#465);
#465=FILL_AREA_STYLE('',(#466));
#466=FILL_AREA_STYLE_COLOUR('',#467);
#467=COLOUR_RGB('',0.8,0.776470588235294,0.713725490196078);
#468=MANIFOLD_SOLID_BREP('Coin Bin Wall',#459);
#469=SHAPE_DEFINITION_REPRESENTATION(#753,#470);
#470=SHAPE_REPRESENTATION('Coin Bin Wall',(#471),#748);
#471=AXIS2_PLACEMENT_3D('',#624,#507,#508);
#472=AXIS2_PLACEMENT_3D('',#625,#509,#510);
#473=AXIS2_PLACEMENT_3D('',#634,#515,#516);
#474=AXIS2_PLACEMENT_3D('',#636,#517,#518);
#475=AXIS2_PLACEMENT_3D('',#638,#519,#520);
#476=AXIS2_PLACEMENT_3D('',#640,#521,#522);
#477=AXIS2_PLACEMENT_3D('',#662,#533,#534);
#478=AXIS2_PLACEMENT_3D('',#663,#535,#536);
#479=AXIS2_PLACEMENT_3D('',#665,#537,#538);
#480=AXIS2_PLACEMENT_3D('',#667,#539,#540);
#481=AXIS2_PLACEMENT_3D('',#669,#541,#542);
#482=AXIS2_PLACEMENT_3D('',#687,#551,#552);
#483=AXIS2_PLACEMENT_3D('',#690,#555,#556);
#484=AXIS2_PLACEMENT_3D('',#692,#558,#559);
#485=AXIS2_PLACEMENT_3D('',#694,#561,#562);
#486=AXIS2_PLACEMENT_3D('',#695,#563,#564);
#487=AXIS2_PLACEMENT_3D('',#696,#565,#566);
#488=AXIS2_PLACEMENT_3D('',#697,#567,#568);
#489=AXIS2_PLACEMENT_3D('',#698,#569,#570);
#490=AXIS2_PLACEMENT_3D('',#699,#571,#572);
#491=AXIS2_PLACEMENT_3D('',#702,#575,#576);
#492=AXIS2_PLACEMENT_3D('',#708,#580,#581);
#493=AXIS2_PLACEMENT_3D('',#709,#582,#583);
#494=AXIS2_PLACEMENT_3D('',#711,#584,#585);
#495=AXIS2_PLACEMENT_3D('',#722,#592,#593);
#496=AXIS2_PLACEMENT_3D('',#723,#594,#595);
#497=AXIS2_PLACEMENT_3D('',#727,#598,#599);
#498=AXIS2_PLACEMENT_3D('',#731,#602,#603);
#499=AXIS2_PLACEMENT_3D('',#733,#605,#606);
#500=AXIS2_PLACEMENT_3D('',#734,#607,#608);
#501=AXIS2_PLACEMENT_3D('',#736,#609,#610);
#502=AXIS2_PLACEMENT_3D('',#740,#613,#614);
#503=AXIS2_PLACEMENT_3D('',#742,#616,#617);
#504=AXIS2_PLACEMENT_3D('',#743,#618,#619);
#505=AXIS2_PLACEMENT_3D('',#745,#620,#621);
#506=AXIS2_PLACEMENT_3D('',#746,#622,#623);
#507=DIRECTION('',(0.,0.,1.));
#508=DIRECTION('',(1.,0.,0.));
#509=DIRECTION('',(-1.,0.,0.));
#510=DIRECTION('',(0.,-1.,0.));
#511=DIRECTION('',(0.,0.,1.));
#512=DIRECTION('',(0.,1.,0.));
#513=DIRECTION('',(0.,0.,-1.));
#514=DIRECTION('',(0.,-1.,0.));
#515=DIRECTION('',(-1.,0.,0.));
#516=DIRECTION('',(0.,0.,1.));
#517=DIRECTION('',(-1.,0.,0.));
#518=DIRECTION('',(0.,0.,1.));
#519=DIRECTION('',(-1.,0.,0.));
#520=DIRECTION('',(0.,0.,1.));
#521=DIRECTION('',(-1.,0.,0.));
#522=DIRECTION('',(0.,0.,1.));
#523=DIRECTION('',(0.,0.,-1.));
#524=DIRECTION('',(0.,-1.,0.));
#525=DIRECTION('',(0.,0.,1.));
#526=DIRECTION('',(0.,-1.,0.));
#527=DIRECTION('',(0.,0.,1.));
#528=DIRECTION('',(0.,-1.,0.));
#529=DIRECTION('',(0.,0.,1.));
#530=DIRECTION('',(0.,-1.,0.));
#531=DIRECTION('',(0.,0.,-1.));
#532=DIRECTION('',(0.,-1.,0.));
#533=DIRECTION('',(-1.,0.,0.));
#534=DIRECTION('',(0.,-1.,0.));
#535=DIRECTION('',(-1.,0.,0.));
#536=DIRECTION('',(0.,0.,1.));
#537=DIRECTION('',(-1.,0.,0.));
#538=DIRECTION('',(0.,0.,1.));
#539=DIRECTION('',(-1.,0.,0.));
#540=DIRECTION('',(0.,0.,1.));
#541=DIRECTION('',(-1.,0.,0.));
#542=DIRECTION('',(0.,0.,1.));
#543=DIRECTION('',(0.,1.,0.));
#544=DIRECTION('',(0.,0.,1.));
#545=DIRECTION('',(0.,-1.,0.));
#546=DIRECTION('',(0.,0.,-1.));
#547=DIRECTION('',(0.,0.,-1.));
#548=DIRECTION('',(0.,-1.,0.));
#549=DIRECTION('',(0.,0.,-1.));
#550=DIRECTION('',(0.,-1.,0.));
#551=DIRECTION('',(0.,0.,-1.));
#552=DIRECTION('',(-1.,0.,0.));
#553=DIRECTION('',(-1.,0.,0.));
#554=DIRECTION('',(-1.,0.,0.));
#555=DIRECTION('',(0.,1.,0.));
#556=DIRECTION('',(0.,0.,1.));
#557=DIRECTION('',(-1.,0.,0.));
#558=DIRECTION('',(0.,0.,1.));
#559=DIRECTION('',(1.,0.,0.));
#560=DIRECTION('',(-1.,0.,0.));
#561=DIRECTION('',(0.,-1.,0.));
#562=DIRECTION('',(0.,0.,-1.));
#563=DIRECTION('',(1.,0.,0.));
#564=DIRECTION('',(0.,0.,-1.));
#565=DIRECTION('',(-1.,0.,0.));
#566=DIRECTION('',(0.,0.,1.));
#567=DIRECTION('',(-1.,0.,0.));
#568=DIRECTION('',(0.,0.,1.));
#569=DIRECTION('',(-1.,0.,0.));
#570=DIRECTION('',(0.,0.,1.));
#571=DIRECTION('',(0.,0.,1.));
#572=DIRECTION('',(1.,0.,0.));
#573=DIRECTION('',(1.,0.,0.));
#574=DIRECTION('',(1.,0.,0.));
#575=DIRECTION('',(0.,-1.,0.));
#576=DIRECTION('',(0.,0.,-1.));
#577=DIRECTION('',(1.,0.,0.));
#578=DIRECTION('',(0.,0.,1.));
#579=DIRECTION('',(1.,0.,0.));
#580=DIRECTION('',(0.,0.,1.));
#581=DIRECTION('',(1.,0.,0.));
#582=DIRECTION('',(0.,0.,1.));
#583=DIRECTION('',(1.,0.,0.));
#584=DIRECTION('',(0.,0.,1.));
#585=DIRECTION('',(1.,0.,0.));
#586=DIRECTION('',(1.,0.,0.));
#587=DIRECTION('',(1.,0.,0.));
#588=DIRECTION('',(-1.80700362080917E-16,1.,0.));
#589=DIRECTION('',(1.,0.,0.));
#590=DIRECTION('',(1.,0.,0.));
#591=DIRECTION('',(7.2280144832367E-17,-1.,0.));
#592=DIRECTION('',(0.,-1.,0.));
#593=DIRECTION('',(0.,0.,-1.));
#594=DIRECTION('',(0.,-1.,0.));
#595=DIRECTION('',(0.,0.,-1.));
#596=DIRECTION('',(1.,0.,0.));
#597=DIRECTION('',(0.,0.,1.));
#598=DIRECTION('',(1.,1.80700362080917E-16,0.));
#599=DIRECTION('',(-1.80700362080917E-16,1.,0.));
#600=DIRECTION('',(-1.80700362080917E-16,1.,0.));
#601=DIRECTION('',(0.,0.,1.));
#602=DIRECTION('',(0.,-1.,0.));
#603=DIRECTION('',(0.,0.,-1.));
#604=DIRECTION('',(1.,0.,0.));
#605=DIRECTION('',(0.,0.,1.));
#606=DIRECTION('',(1.,0.,0.));
#607=DIRECTION('',(0.,0.,1.));
#608=DIRECTION('',(1.,0.,0.));
#609=DIRECTION('',(0.,-1.,0.));
#610=DIRECTION('',(0.,0.,-1.));
#611=DIRECTION('',(1.,0.,0.));
#612=DIRECTION('',(0.,0.,1.));
#613=DIRECTION('',(-1.,-7.2280144832367E-17,0.));
#614=DIRECTION('',(7.2280144832367E-17,-1.,0.));
#615=DIRECTION('',(7.2280144832367E-17,-1.,0.));
#616=DIRECTION('',(0.,0.,1.));
#617=DIRECTION('',(1.,0.,0.));
#618=DIRECTION('',(0.,0.,1.));
#619=DIRECTION('',(1.,0.,0.));
#620=DIRECTION('',(0.,0.,1.));
#621=DIRECTION('',(1.,0.,0.));
#622=DIRECTION('',(0.,0.,1.));
#623=DIRECTION('',(1.,0.,0.));
#624=CARTESIAN_POINT('',(0.,0.,0.));
#625=CARTESIAN_POINT('',(-0.009,0.0341000231355429,0.0327636422514916));
#626=CARTESIAN_POINT('',(-0.009,0.0256000231355429,0.0327636422514916));
#627=CARTESIAN_POINT('',(-0.009,0.0256000231355429,-0.0182363577485085));
#628=CARTESIAN_POINT('',(-0.009,0.0256000231355429,0.0287636422514916));
#629=CARTESIAN_POINT('',(-0.009,0.0341000231355429,0.0287636422514916));
#630=CARTESIAN_POINT('',(-0.009,0.0688745793434969,0.0287636422514916));
#631=CARTESIAN_POINT('',(-0.009,0.0688745793434969,0.0327636422514916));
#632=CARTESIAN_POINT('',(-0.009,0.0688745793434969,-0.0182363577485085));
#633=CARTESIAN_POINT('',(-0.009,0.0341000231355429,-0.0182363577485085));
#634=CARTESIAN_POINT('',(-0.009,0.0106442567166525,0.0946840890828037));
#635=CARTESIAN_POINT('',(-0.009,0.0106442567166525,0.0966840890828037));
#636=CARTESIAN_POINT('',(-0.009,0.0766000231355428,0.0312827283716366));
#637=CARTESIAN_POINT('',(-0.009,0.0766000231355428,0.0332827283716366));
#638=CARTESIAN_POINT('',(-0.009,0.0706442567166525,0.0946840890828037));
#639=CARTESIAN_POINT('',(-0.009,0.0706442567166525,0.0966840890828037));
#640=CARTESIAN_POINT('',(-0.009,0.0686000231355429,-0.0357707477485084));
#641=CARTESIAN_POINT('',(-0.009,0.0686000231355429,-0.0337707477485084));
#642=CARTESIAN_POINT('',(-0.009,0.0816000231355429,-0.0547363577485085));
#643=CARTESIAN_POINT('',(-0.009,0.0816000231355429,0.116263642251492));
#644=CARTESIAN_POINT('',(-0.009,0.0816000231355429,-0.0572363577485084));
#645=CARTESIAN_POINT('',(-0.009,0.0341000231355429,0.116263642251492));
#646=CARTESIAN_POINT('',(-0.009,0.0696000231355429,0.116263642251492));
#647=CARTESIAN_POINT('',(-0.009,0.0696000231355429,0.116263642251492));
#648=CARTESIAN_POINT('',(-0.009,0.0696000231355429,0.122763642251492));
#649=CARTESIAN_POINT('',(-0.009,0.0341000231355429,0.122763642251492));
#650=CARTESIAN_POINT('',(-0.009,0.00260002313554285,0.122763642251492));
#651=CARTESIAN_POINT('',(-0.009,0.00260002313554285,0.116263642251492));
#652=CARTESIAN_POINT('',(-0.009,0.00260002313554285,0.116263642251492));
#653=CARTESIAN_POINT('',(-0.009,0.0341000231355429,0.116263642251492));
#654=CARTESIAN_POINT('',(-0.009,-0.00939997686445715,0.116263642251492));
#655=CARTESIAN_POINT('',(-0.009,-0.00939997686445715,0.116263642251492));
#656=CARTESIAN_POINT('',(-0.009,-0.00939997686445715,0.122763642251492));
#657=CARTESIAN_POINT('',(-0.009,0.0341000231355429,0.122763642251492));
#658=CARTESIAN_POINT('',(-0.009,-0.0133999768644571,0.122763642251492));
#659=CARTESIAN_POINT('',(-0.009,-0.0133999768644571,-0.0547363577485085));
#660=CARTESIAN_POINT('',(-0.009,-0.0133999768644571,-0.0572363577485084));
#661=CARTESIAN_POINT('',(-0.009,0.0341000231355429,-0.0572363577485084));
#662=CARTESIAN_POINT('',(-0.013,0.0341000231355429,0.0327636422514916));
#663=CARTESIAN_POINT('',(-0.013,0.0686000231355429,-0.0357707477485084));
#664=CARTESIAN_POINT('',(-0.013,0.0686000231355429,-0.0337707477485084));
#665=CARTESIAN_POINT('',(-0.013,0.0706442567166525,0.0946840890828037));
#666=CARTESIAN_POINT('',(-0.013,0.0706442567166525,0.0966840890828037));
#667=CARTESIAN_POINT('',(-0.013,0.0766000231355428,0.0312827283716366));
#668=CARTESIAN_POINT('',(-0.013,0.0766000231355428,0.0332827283716366));
#669=CARTESIAN_POINT('',(-0.013,0.0106442567166525,0.0946840890828037));
#670=CARTESIAN_POINT('',(-0.013,0.0106442567166525,0.0966840890828037));
#671=CARTESIAN_POINT('',(-0.013,0.0472373012395199,0.0287636422514916));
#672=CARTESIAN_POINT('',(-0.013,0.0256000231355429,0.0287636422514916));
#673=CARTESIAN_POINT('',(-0.013,0.0688745793434969,0.0287636422514916));
#674=CARTESIAN_POINT('',(-0.013,0.0256000231355429,0.00526364225149155));
#675=CARTESIAN_POINT('',(-0.013,0.0256000231355429,-0.0182363577485085));
#676=CARTESIAN_POINT('',(-0.013,0.0472373012395199,-0.0182363577485085));
#677=CARTESIAN_POINT('',(-0.013,0.0688745793434969,-0.0182363577485085));
#678=CARTESIAN_POINT('',(-0.013,0.0688745793434969,0.00526364225149155));
#679=CARTESIAN_POINT('',(-0.013,-0.0133999768644571,-0.0547363577485085));
#680=CARTESIAN_POINT('',(-0.013,-0.0133999768644571,0.122763642251492));
#681=CARTESIAN_POINT('',(-0.013,-0.0133999768644571,-0.0572363577485084));
#682=CARTESIAN_POINT('',(-0.013,0.0341000231355429,0.122763642251492));
#683=CARTESIAN_POINT('',(-0.013,0.0816000231355429,0.122763642251492));
#684=CARTESIAN_POINT('',(-0.013,0.0816000231355429,-0.0547363577485085));
#685=CARTESIAN_POINT('',(-0.013,0.0816000231355429,-0.0572363577485084));
#686=CARTESIAN_POINT('',(-0.013,0.0341000231355429,-0.0572363577485084));
#687=CARTESIAN_POINT('',(0.012,0.0472373012395199,-0.0182363577485085));
#688=CARTESIAN_POINT('',(0.012,0.0688745793434969,-0.0182363577485085));
#689=CARTESIAN_POINT('',(0.012,0.0256000231355429,-0.0182363577485085));
#690=CARTESIAN_POINT('',(0.012,0.0688745793434969,0.00526364225149155));
#691=CARTESIAN_POINT('',(0.012,0.0688745793434969,0.0287636422514916));
#692=CARTESIAN_POINT('',(0.012,0.0472373012395199,0.0287636422514916));
#693=CARTESIAN_POINT('',(0.012,0.0256000231355429,0.0287636422514916));
#694=CARTESIAN_POINT('',(0.012,0.0256000231355429,0.00526364225149155));
#695=CARTESIAN_POINT('',(-0.029,0.0106442567166525,0.0946840890828037));
#696=CARTESIAN_POINT('',(-0.002,0.0766000231355428,0.0312827283716366));
#697=CARTESIAN_POINT('',(-0.003,0.0706442567166525,0.0946840890828037));
#698=CARTESIAN_POINT('',(0.,0.0686000231355429,-0.0357707477485084));
#699=CARTESIAN_POINT('',(-0.013,0.0341000231355429,-0.0572363577485084));
#700=CARTESIAN_POINT('',(-0.013,0.0816000231355429,-0.0572363577485084));
#701=CARTESIAN_POINT('',(-0.013,-0.0133999768644571,-0.0572363577485084));
#702=CARTESIAN_POINT('',(-0.013,0.0816000231355429,-0.0547363577485085));
#703=CARTESIAN_POINT('',(-0.013,0.0816000231355429,0.122763642251492));
#704=CARTESIAN_POINT('',(0.003,0.0816000231355429,0.122763642251492));
#705=CARTESIAN_POINT('',(0.003,0.0816000231355429,0.116263642251492));
#706=CARTESIAN_POINT('',(0.003,0.0816000231355429,0.116263642251492));
#707=CARTESIAN_POINT('',(-0.003,0.0816000231355429,0.116263642251492));
#708=CARTESIAN_POINT('',(-0.013,0.0341000231355429,0.122763642251492));
#709=CARTESIAN_POINT('',(-0.003,-0.00339997686445715,0.122763642251492));
#710=CARTESIAN_POINT('',(-0.001,-0.00339997686445715,0.122763642251492));
#711=CARTESIAN_POINT('',(-0.003,0.0756000231355428,0.122763642251492));
#712=CARTESIAN_POINT('',(-0.001,0.0756000231355428,0.122763642251492));
#713=CARTESIAN_POINT('',(-0.013,-0.0133999768644571,0.122763642251492));
#714=CARTESIAN_POINT('',(-0.003,-0.00939997686445715,0.122763642251492));
#715=CARTESIAN_POINT('',(0.003,-0.00939997686445715,0.122763642251492));
#716=CARTESIAN_POINT('',(0.003,-0.00339997686445715,0.122763642251492));
#717=CARTESIAN_POINT('',(0.003,0.00260002313554285,0.122763642251492));
#718=CARTESIAN_POINT('',(-0.003,0.00260002313554285,0.122763642251492));
#719=CARTESIAN_POINT('',(-0.003,0.0696000231355429,0.122763642251492));
#720=CARTESIAN_POINT('',(0.003,0.0696000231355429,0.122763642251492));
#721=CARTESIAN_POINT('',(0.003,0.0756000231355429,0.122763642251492));
#722=CARTESIAN_POINT('',(-0.013,-0.0133999768644571,-0.0547363577485085));
#723=CARTESIAN_POINT('',(-0.003,-0.00939997686445715,0.116263642251492));
#724=CARTESIAN_POINT('',(-0.003,-0.00939997686445715,0.116263642251492));
#725=CARTESIAN_POINT('',(0.003,-0.00939997686445715,0.116263642251492));
#726=CARTESIAN_POINT('',(0.003,-0.00939997686445715,0.116263642251492));
#727=CARTESIAN_POINT('',(0.003,-0.00339997686445715,0.116263642251492));
#728=CARTESIAN_POINT('',(0.003,-0.00339997686445715,0.116263642251492));
#729=CARTESIAN_POINT('',(0.003,0.00260002313554285,0.116263642251492));
#730=CARTESIAN_POINT('',(0.003,0.00260002313554285,0.116263642251492));
#731=CARTESIAN_POINT('',(-0.003,0.00260002313554285,0.116263642251492));
#732=CARTESIAN_POINT('',(-0.003,0.00260002313554285,0.116263642251492));
#733=CARTESIAN_POINT('',(-0.005,0.0341000231355429,0.116263642251492));
#734=CARTESIAN_POINT('',(-0.003,-0.00339997686445715,0.116263642251492));
#735=CARTESIAN_POINT('',(-0.001,-0.00339997686445715,0.116263642251492));
#736=CARTESIAN_POINT('',(-0.003,0.0696000231355429,0.116263642251492));
#737=CARTESIAN_POINT('',(-0.003,0.0696000231355429,0.116263642251492));
#738=CARTESIAN_POINT('',(0.003,0.0696000231355429,0.116263642251492));
#739=CARTESIAN_POINT('',(0.003,0.0696000231355429,0.116263642251492));
#740=CARTESIAN_POINT('',(0.003,0.0756000231355429,0.116263642251492));
#741=CARTESIAN_POINT('',(0.003,0.0756000231355429,0.116263642251492));
#742=CARTESIAN_POINT('',(-0.005,0.0341000231355429,0.116263642251492));
#743=CARTESIAN_POINT('',(-0.003,0.0756000231355428,0.116263642251492));
#744=CARTESIAN_POINT('',(-0.001,0.0756000231355428,0.116263642251492));
#745=CARTESIAN_POINT('',(-0.003,0.0756000231355428,0.116263642251492));
#746=CARTESIAN_POINT('',(-0.003,-0.00339997686445715,0.116263642251492));
#747=MECHANICAL_DESIGN_GEOMETRIC_PRESENTATION_REPRESENTATION('',(#460),
#748);
#748=(
GEOMETRIC_REPRESENTATION_CONTEXT(3)
GLOBAL_UNCERTAINTY_ASSIGNED_CONTEXT((#749))
GLOBAL_UNIT_ASSIGNED_CONTEXT((#752,#751,#750))
REPRESENTATION_CONTEXT('Coin Bin Wall','TOP_LEVEL_ASSEMBLY_PART')
);
#749=UNCERTAINTY_MEASURE_WITH_UNIT(LENGTH_MEASURE(1.E-8),#752,
'DISTANCE_ACCURACY_VALUE','Maximum Tolerance applied to model');
#750=(
NAMED_UNIT(*)
SI_UNIT($,.STERADIAN.)
SOLID_ANGLE_UNIT()
);
#751=(
NAMED_UNIT(*)
PLANE_ANGLE_UNIT()
SI_UNIT($,.RADIAN.)
);
#752=(
LENGTH_UNIT()
NAMED_UNIT(*)
SI_UNIT($,.METRE.)
);
#753=PRODUCT_DEFINITION_SHAPE('','',#754);
#754=PRODUCT_DEFINITION('','',#756,#755);
#755=PRODUCT_DEFINITION_CONTEXT('',#762,'design');
#756=PRODUCT_DEFINITION_FORMATION_WITH_SPECIFIED_SOURCE('','',#758,
 .NOT_KNOWN.);
#757=PRODUCT_RELATED_PRODUCT_CATEGORY('','',(#758));
#758=PRODUCT('Coin Bin Wall','Coin Bin Wall','Coin Bin Wall',(#760));
#759=PRODUCT_CATEGORY('','');
#760=PRODUCT_CONTEXT('',#762,'mechanical');
#761=APPLICATION_PROTOCOL_DEFINITION('international standard',
'ap242_managed_model_based_3d_engineering',2020,#762);
#762=APPLICATION_CONTEXT('managed model based 3d engineering');
ENDSEC;
END-ISO-10303-21;
