ISO-10303-21;
HEADER;
/* Generated by software containing ST-Developer
 * from STEP Tools, Inc. (www.steptools.com) 
 */
/* OPTION: using custom renumber hook */

FILE_DESCRIPTION(
/* description */ ('STEP AP242 Edition 2',
'CAx-IF Rec.Pracs.---Representation and Presentation of Product Manufa
cturing Information (PMI)---4.0---2014-10-13',
'CAx-IF Rec.Pracs.---3D Tessellated Geometry---0.4---2014-09-14','2;1',
'CAx-IF Rec.Pracs.---User Defined Attributes---1.5---2016-08-15'),
/* implementation_level */ '2;1');

FILE_NAME(
/* name */ 'Assembly 1 - Coin Push Lever',
/* time_stamp */ '2026-07-14T16:54:41Z',
/* author */ (''),
/* organization */ (''),
/* preprocessor_version */ 'ST-DEVELOPER v20',
/* originating_system */ 'ONSHAPE BY PTC INC, 1.217',
/* authorisation */ '  ');

FILE_SCHEMA (('AP242_MANAGED_MODEL_BASED_3D_ENGINEERING_MIM_LF { 1 0 10303 442 3 1 4 }'));
ENDSEC;

DATA;
#10=SHAPE_REPRESENTATION_RELATIONSHIP('','',#669,#11);
#11=ADVANCED_BREP_SHAPE_REPRESENTATION('',(#667),#1254);
#12=SPHERICAL_SURFACE('',#725,0.001);
#13=SPHERICAL_SURFACE('',#727,0.001);
#14=(
BOUNDED_SURFACE()
B_SPLINE_SURFACE(3,2,((#1155,#1156,#1157),(#1158,#1159,#1160),(#1161,#1162,
#1163),(#1164,#1165,#1166),(#1167,#1168,#1169),(#1170,#1171,#1172),(#1173,
#1174,#1175),(#1176,#1177,#1178),(#1179,#1180,#1181)),.UNSPECIFIED.,.F.,
 .F.,.F.)
B_SPLINE_SURFACE_WITH_KNOTS((4,1,1,1,1,1,4),(3,3),(-5.85469173142172E-18,
0.00046641722963782,0.000932834459275645,0.00116604307409456,0.00139925168891347,
0.00163246030373238,0.0018656689185513),(0.,1.),.UNSPECIFIED.)
GEOMETRIC_REPRESENTATION_ITEM()
RATIONAL_B_SPLINE_SURFACE(((1.,0.707106781186559,1.),(1.,0.707106781186559,
1.),(1.,0.707106781186546,1.),(1.,0.707106781186546,1.),(1.,0.707106781186547,
1.),(1.,0.707106781186549,1.),(1.,0.707106781186547,1.),(1.,0.707106781186558,
1.),(1.,0.707106781186558,1.)))
REPRESENTATION_ITEM('')
SURFACE()
);
#15=(
BOUNDED_SURFACE()
B_SPLINE_SURFACE(3,2,((#1183,#1184,#1185),(#1186,#1187,#1188),(#1189,#1190,
#1191),(#1192,#1193,#1194),(#1195,#1196,#1197),(#1198,#1199,#1200),(#1201,
#1202,#1203),(#1204,#1205,#1206),(#1207,#1208,#1209)),.UNSPECIFIED.,.F.,
 .F.,.F.)
B_SPLINE_SURFACE_WITH_KNOTS((4,1,1,1,1,1,4),(3,3),(2.35542921972476E-17,
0.000236320116150016,0.000472640232300008,0.00070896034845,0.000945280464599992,
0.00141792069689998,0.00189056092919996),(0.,1.),.UNSPECIFIED.)
GEOMETRIC_REPRESENTATION_ITEM()
RATIONAL_B_SPLINE_SURFACE(((1.,0.707106781186558,1.),(1.,0.707106781186558,
1.),(1.,0.707106781186541,1.),(1.,0.707106781186547,1.),(1.,0.707106781186555,
1.),(1.,0.707106781186542,1.),(1.,0.707106781186545,1.),(1.,0.707106781186555,
1.),(1.,0.707106781186555,1.)))
REPRESENTATION_ITEM('')
SURFACE()
);
#16=(
BOUNDED_SURFACE()
B_SPLINE_SURFACE(3,2,((#1211,#1212,#1213),(#1214,#1215,#1216),(#1217,#1218,
#1219),(#1220,#1221,#1222)),.UNSPECIFIED.,.F.,.F.,.F.)
B_SPLINE_SURFACE_WITH_KNOTS((4,4),(3,3),(2.86229373536173E-17,0.00414182892313559),
(0.,1.),.PIECEWISE_BEZIER_KNOTS.)
GEOMETRIC_REPRESENTATION_ITEM()
RATIONAL_B_SPLINE_SURFACE(((1.,0.707106781186567,1.),(1.,0.707106781186567,
1.),(1.,0.707106781186548,1.),(1.,0.707106781186548,1.)))
REPRESENTATION_ITEM('')
SURFACE()
);
#17=(
BOUNDED_SURFACE()
B_SPLINE_SURFACE(3,2,((#1224,#1225,#1226),(#1227,#1228,#1229),(#1230,#1231,
#1232),(#1233,#1234,#1235)),.UNSPECIFIED.,.F.,.F.,.F.)
B_SPLINE_SURFACE_WITH_KNOTS((4,4),(3,3),(-3.81639164714898E-17,0.00414192450241524),
(0.,1.),.PIECEWISE_BEZIER_KNOTS.)
GEOMETRIC_REPRESENTATION_ITEM()
RATIONAL_B_SPLINE_SURFACE(((1.,0.707106781186543,1.),(1.,0.707106781186543,
1.),(1.,0.707106781186567,1.),(1.,0.707106781186567,1.)))
REPRESENTATION_ITEM('')
SURFACE()
);
#18=ELLIPSE('',#689,0.00289300900258532,0.002);
#19=ELLIPSE('',#692,0.00289300900258532,0.002);
#20=ELLIPSE('',#730,0.00141421356237309,0.001);
#21=ELLIPSE('',#732,0.00141421356237309,0.001);
#22=CYLINDRICAL_SURFACE('',#688,0.002);
#23=CYLINDRICAL_SURFACE('',#691,0.002);
#24=CYLINDRICAL_SURFACE('',#699,0.00275);
#25=CYLINDRICAL_SURFACE('',#700,0.005);
#26=CYLINDRICAL_SURFACE('',#701,0.005);
#27=CYLINDRICAL_SURFACE('',#702,0.001);
#28=CYLINDRICAL_SURFACE('',#703,0.001);
#29=CYLINDRICAL_SURFACE('',#705,0.0322424762006963);
#30=CYLINDRICAL_SURFACE('',#707,0.0322424762000194);
#31=CYLINDRICAL_SURFACE('',#710,0.001);
#32=CYLINDRICAL_SURFACE('',#711,0.001);
#33=CYLINDRICAL_SURFACE('',#718,0.001);
#34=CYLINDRICAL_SURFACE('',#720,0.001);
#35=CYLINDRICAL_SURFACE('',#723,0.001);
#36=CYLINDRICAL_SURFACE('',#729,0.001);
#37=CYLINDRICAL_SURFACE('',#731,0.001);
#38=CYLINDRICAL_SURFACE('',#733,0.001);
#39=B_SPLINE_CURVE_WITH_KNOTS('',3,(#1000,#1001,#1002,#1003),
 .UNSPECIFIED.,.F.,.F.,(4,4),(0.,0.00427317646915436),.UNSPECIFIED.);
#40=B_SPLINE_CURVE_WITH_KNOTS('',3,(#1005,#1006,#1007,#1008),
 .UNSPECIFIED.,.F.,.F.,(4,4),(0.,0.815957573597731),
 .PIECEWISE_BEZIER_KNOTS.);
#41=B_SPLINE_CURVE_WITH_KNOTS('',3,(#1019,#1020,#1021,#1022),
 .UNSPECIFIED.,.F.,.F.,(4,4),(0.,0.00427317646915435),.UNSPECIFIED.);
#42=B_SPLINE_CURVE_WITH_KNOTS('',3,(#1026,#1027,#1028,#1029),
 .UNSPECIFIED.,.F.,.F.,(4,4),(0.,0.815957573597727),
 .PIECEWISE_BEZIER_KNOTS.);
#43=B_SPLINE_CURVE_WITH_KNOTS('',3,(#1061,#1062,#1063,#1064),
 .UNSPECIFIED.,.F.,.F.,(4,4),(-5.99999999225782E-8,0.00427419524228558),
 .UNSPECIFIED.);
#44=B_SPLINE_CURVE_WITH_KNOTS('',3,(#1077,#1078,#1079,#1080,#1081),
 .UNSPECIFIED.,.F.,.F.,(4,1,4),(6.28837260041593E-18,0.00165605401380989,
0.00331210802761976),.UNSPECIFIED.);
#45=B_SPLINE_CURVE_WITH_KNOTS('',3,(#1098,#1099,#1100,#1101,#1102,#1103),
 .UNSPECIFIED.,.F.,.F.,(4,1,1,4),(4.33680868994202E-19,0.0016437657829195,
0.00246564867437924,0.00328753156583899),.UNSPECIFIED.);
#46=B_SPLINE_CURVE_WITH_KNOTS('',3,(#1105,#1106,#1107,#1108),
 .UNSPECIFIED.,.F.,.F.,(4,4),(-5.99999999693708E-8,0.00427409418729284),
 .UNSPECIFIED.);
#47=B_SPLINE_CURVE_WITH_KNOTS('',3,(#1117,#1118,#1119,#1120),
 .UNSPECIFIED.,.F.,.F.,(4,4),(0.,0.00414054384375874),.UNSPECIFIED.);
#48=B_SPLINE_CURVE_WITH_KNOTS('',3,(#1122,#1123,#1124,#1125,#1126,#1127),
 .UNSPECIFIED.,.F.,.F.,(4,1,1,4),(0.,0.000943411215010551,0.00141511682251583,
0.0018868224300211),.UNSPECIFIED.);
#49=B_SPLINE_CURVE_WITH_KNOTS('',3,(#1131,#1132,#1133,#1134,#1135,#1136),
 .UNSPECIFIED.,.F.,.F.,(4,1,1,4),(0.,0.000474078890876839,0.000948157781753679,
0.00189631556350736),.UNSPECIFIED.);
#50=B_SPLINE_CURVE_WITH_KNOTS('',3,(#1138,#1139,#1140,#1141),
 .UNSPECIFIED.,.F.,.F.,(4,4),(0.,0.00414067507579908),.UNSPECIFIED.);
#51=B_SPLINE_SURFACE_WITH_KNOTS('',3,1,((#992,#993),(#994,#995),(#996,#997),
(#998,#999)),.SURF_OF_LINEAR_EXTRUSION.,.F.,.F.,.F.,(4,4),(2,2),(0.,0.521481370912836),
(0.,1.),.PIECEWISE_BEZIER_KNOTS.);
#52=B_SPLINE_SURFACE_WITH_KNOTS('',3,1,((#1011,#1012),(#1013,#1014),(#1015,
#1016),(#1017,#1018)),.SURF_OF_LINEAR_EXTRUSION.,.F.,.F.,.F.,(4,4),(2,2),
(0.,0.521481370912832),(0.,1.),.PIECEWISE_BEZIER_KNOTS.);
#53=B_SPLINE_SURFACE_WITH_KNOTS('',3,1,((#1065,#1066),(#1067,#1068),(#1069,
#1070),(#1071,#1072),(#1073,#1074)),.SURF_OF_LINEAR_EXTRUSION.,.F.,.F.,
 .F.,(4,1,4),(2,2),(4.90259172236219,5.59288851477089,6.28318530717959),
(0.,1.),.UNSPECIFIED.);
#54=B_SPLINE_SURFACE_WITH_KNOTS('',3,1,((#1086,#1087),(#1088,#1089),(#1090,
#1091),(#1092,#1093),(#1094,#1095)),.SURF_OF_LINEAR_EXTRUSION.,.F.,.F.,
 .F.,(4,1,4),(2,2),(0.,0.690296792408702,1.3805935848174),(0.,1.),
 .UNSPECIFIED.);
#55=CIRCLE('',#672,0.001);
#56=CIRCLE('',#673,0.001);
#57=CIRCLE('',#674,0.005);
#58=CIRCLE('',#675,0.001);
#59=CIRCLE('',#676,0.001);
#60=CIRCLE('',#677,0.005);
#61=CIRCLE('',#678,0.00275);
#62=CIRCLE('',#680,0.001);
#63=CIRCLE('',#681,0.005);
#64=CIRCLE('',#682,0.001);
#65=CIRCLE('',#683,0.001);
#66=CIRCLE('',#684,0.005);
#67=CIRCLE('',#685,0.001);
#68=CIRCLE('',#686,0.00275);
#69=CIRCLE('',#690,0.002);
#70=CIRCLE('',#693,0.002);
#71=CIRCLE('',#712,0.001);
#72=CIRCLE('',#713,0.001);
#73=CIRCLE('',#714,0.001);
#74=CIRCLE('',#715,0.001);
#75=CIRCLE('',#716,0.001);
#76=CIRCLE('',#717,0.001);
#77=CIRCLE('',#719,0.001);
#78=CIRCLE('',#721,0.001);
#79=CIRCLE('',#722,0.001);
#80=CIRCLE('',#724,0.001);
#81=CIRCLE('',#726,0.001);
#82=CIRCLE('',#728,0.001);
#83=ORIENTED_EDGE('',*,*,#271,.T.);
#84=ORIENTED_EDGE('',*,*,#272,.T.);
#85=ORIENTED_EDGE('',*,*,#273,.T.);
#86=ORIENTED_EDGE('',*,*,#274,.T.);
#87=ORIENTED_EDGE('',*,*,#275,.T.);
#88=ORIENTED_EDGE('',*,*,#276,.F.);
#89=ORIENTED_EDGE('',*,*,#277,.T.);
#90=ORIENTED_EDGE('',*,*,#278,.T.);
#91=ORIENTED_EDGE('',*,*,#279,.T.);
#92=ORIENTED_EDGE('',*,*,#280,.T.);
#93=ORIENTED_EDGE('',*,*,#281,.F.);
#94=ORIENTED_EDGE('',*,*,#282,.F.);
#95=ORIENTED_EDGE('',*,*,#283,.F.);
#96=ORIENTED_EDGE('',*,*,#284,.F.);
#97=ORIENTED_EDGE('',*,*,#285,.F.);
#98=ORIENTED_EDGE('',*,*,#286,.T.);
#99=ORIENTED_EDGE('',*,*,#287,.T.);
#100=ORIENTED_EDGE('',*,*,#288,.F.);
#101=ORIENTED_EDGE('',*,*,#289,.T.);
#102=ORIENTED_EDGE('',*,*,#290,.T.);
#103=ORIENTED_EDGE('',*,*,#291,.T.);
#104=ORIENTED_EDGE('',*,*,#292,.T.);
#105=ORIENTED_EDGE('',*,*,#293,.T.);
#106=ORIENTED_EDGE('',*,*,#294,.T.);
#107=ORIENTED_EDGE('',*,*,#295,.T.);
#108=ORIENTED_EDGE('',*,*,#296,.T.);
#109=ORIENTED_EDGE('',*,*,#297,.T.);
#110=ORIENTED_EDGE('',*,*,#298,.F.);
#111=ORIENTED_EDGE('',*,*,#299,.T.);
#112=ORIENTED_EDGE('',*,*,#300,.F.);
#113=ORIENTED_EDGE('',*,*,#301,.T.);
#114=ORIENTED_EDGE('',*,*,#302,.F.);
#115=ORIENTED_EDGE('',*,*,#303,.T.);
#116=ORIENTED_EDGE('',*,*,#304,.F.);
#117=ORIENTED_EDGE('',*,*,#305,.F.);
#118=ORIENTED_EDGE('',*,*,#306,.T.);
#119=ORIENTED_EDGE('',*,*,#307,.T.);
#120=ORIENTED_EDGE('',*,*,#308,.T.);
#121=ORIENTED_EDGE('',*,*,#309,.F.);
#122=ORIENTED_EDGE('',*,*,#284,.T.);
#123=ORIENTED_EDGE('',*,*,#310,.T.);
#124=ORIENTED_EDGE('',*,*,#311,.T.);
#125=ORIENTED_EDGE('',*,*,#293,.F.);
#126=ORIENTED_EDGE('',*,*,#312,.T.);
#127=ORIENTED_EDGE('',*,*,#313,.T.);
#128=ORIENTED_EDGE('',*,*,#314,.F.);
#129=ORIENTED_EDGE('',*,*,#313,.F.);
#130=ORIENTED_EDGE('',*,*,#315,.T.);
#131=ORIENTED_EDGE('',*,*,#308,.F.);
#132=ORIENTED_EDGE('',*,*,#316,.F.);
#133=ORIENTED_EDGE('',*,*,#306,.F.);
#134=ORIENTED_EDGE('',*,*,#317,.T.);
#135=ORIENTED_EDGE('',*,*,#311,.F.);
#136=ORIENTED_EDGE('',*,*,#318,.F.);
#137=ORIENTED_EDGE('',*,*,#275,.F.);
#138=ORIENTED_EDGE('',*,*,#319,.T.);
#139=ORIENTED_EDGE('',*,*,#302,.T.);
#140=ORIENTED_EDGE('',*,*,#320,.F.);
#141=ORIENTED_EDGE('',*,*,#314,.T.);
#142=ORIENTED_EDGE('',*,*,#316,.T.);
#143=ORIENTED_EDGE('',*,*,#307,.F.);
#144=ORIENTED_EDGE('',*,*,#318,.T.);
#145=ORIENTED_EDGE('',*,*,#310,.F.);
#146=ORIENTED_EDGE('',*,*,#283,.T.);
#147=ORIENTED_EDGE('',*,*,#321,.T.);
#148=ORIENTED_EDGE('',*,*,#294,.F.);
#149=ORIENTED_EDGE('',*,*,#322,.T.);
#150=ORIENTED_EDGE('',*,*,#300,.T.);
#151=ORIENTED_EDGE('',*,*,#323,.T.);
#152=ORIENTED_EDGE('',*,*,#277,.F.);
#153=ORIENTED_EDGE('',*,*,#324,.F.);
#154=ORIENTED_EDGE('',*,*,#281,.T.);
#155=ORIENTED_EDGE('',*,*,#325,.T.);
#156=ORIENTED_EDGE('',*,*,#296,.F.);
#157=ORIENTED_EDGE('',*,*,#326,.T.);
#158=ORIENTED_EDGE('',*,*,#279,.F.);
#159=ORIENTED_EDGE('',*,*,#327,.T.);
#160=ORIENTED_EDGE('',*,*,#298,.T.);
#161=ORIENTED_EDGE('',*,*,#287,.F.);
#162=ORIENTED_EDGE('',*,*,#304,.T.);
#163=ORIENTED_EDGE('',*,*,#324,.T.);
#164=ORIENTED_EDGE('',*,*,#295,.F.);
#165=ORIENTED_EDGE('',*,*,#321,.F.);
#166=ORIENTED_EDGE('',*,*,#282,.T.);
#167=ORIENTED_EDGE('',*,*,#320,.T.);
#168=ORIENTED_EDGE('',*,*,#301,.F.);
#169=ORIENTED_EDGE('',*,*,#322,.F.);
#170=ORIENTED_EDGE('',*,*,#276,.T.);
#171=ORIENTED_EDGE('',*,*,#323,.F.);
#172=ORIENTED_EDGE('',*,*,#299,.F.);
#173=ORIENTED_EDGE('',*,*,#327,.F.);
#174=ORIENTED_EDGE('',*,*,#278,.F.);
#175=ORIENTED_EDGE('',*,*,#326,.F.);
#176=ORIENTED_EDGE('',*,*,#297,.F.);
#177=ORIENTED_EDGE('',*,*,#325,.F.);
#178=ORIENTED_EDGE('',*,*,#280,.F.);
#179=ORIENTED_EDGE('',*,*,#288,.T.);
#180=ORIENTED_EDGE('',*,*,#328,.T.);
#181=ORIENTED_EDGE('',*,*,#273,.F.);
#182=ORIENTED_EDGE('',*,*,#329,.T.);
#183=ORIENTED_EDGE('',*,*,#330,.F.);
#184=ORIENTED_EDGE('',*,*,#331,.T.);
#185=ORIENTED_EDGE('',*,*,#285,.T.);
#186=ORIENTED_EDGE('',*,*,#309,.T.);
#187=ORIENTED_EDGE('',*,*,#332,.F.);
#188=ORIENTED_EDGE('',*,*,#333,.T.);
#189=ORIENTED_EDGE('',*,*,#330,.T.);
#190=ORIENTED_EDGE('',*,*,#317,.F.);
#191=ORIENTED_EDGE('',*,*,#334,.F.);
#192=ORIENTED_EDGE('',*,*,#335,.T.);
#193=ORIENTED_EDGE('',*,*,#332,.T.);
#194=ORIENTED_EDGE('',*,*,#305,.T.);
#195=ORIENTED_EDGE('',*,*,#336,.F.);
#196=ORIENTED_EDGE('',*,*,#337,.T.);
#197=ORIENTED_EDGE('',*,*,#334,.T.);
#198=ORIENTED_EDGE('',*,*,#315,.F.);
#199=ORIENTED_EDGE('',*,*,#292,.F.);
#200=ORIENTED_EDGE('',*,*,#338,.T.);
#201=ORIENTED_EDGE('',*,*,#336,.T.);
#202=ORIENTED_EDGE('',*,*,#312,.F.);
#203=ORIENTED_EDGE('',*,*,#339,.T.);
#204=ORIENTED_EDGE('',*,*,#340,.T.);
#205=ORIENTED_EDGE('',*,*,#341,.T.);
#206=ORIENTED_EDGE('',*,*,#342,.T.);
#207=ORIENTED_EDGE('',*,*,#343,.T.);
#208=ORIENTED_EDGE('',*,*,#344,.T.);
#209=ORIENTED_EDGE('',*,*,#345,.T.);
#210=ORIENTED_EDGE('',*,*,#346,.T.);
#211=ORIENTED_EDGE('',*,*,#347,.T.);
#212=ORIENTED_EDGE('',*,*,#348,.T.);
#213=ORIENTED_EDGE('',*,*,#349,.T.);
#214=ORIENTED_EDGE('',*,*,#350,.T.);
#215=ORIENTED_EDGE('',*,*,#303,.F.);
#216=ORIENTED_EDGE('',*,*,#319,.F.);
#217=ORIENTED_EDGE('',*,*,#274,.F.);
#218=ORIENTED_EDGE('',*,*,#328,.F.);
#219=ORIENTED_EDGE('',*,*,#351,.F.);
#220=ORIENTED_EDGE('',*,*,#335,.F.);
#221=ORIENTED_EDGE('',*,*,#352,.F.);
#222=ORIENTED_EDGE('',*,*,#344,.F.);
#223=ORIENTED_EDGE('',*,*,#352,.T.);
#224=ORIENTED_EDGE('',*,*,#337,.F.);
#225=ORIENTED_EDGE('',*,*,#353,.F.);
#226=ORIENTED_EDGE('',*,*,#345,.F.);
#227=ORIENTED_EDGE('',*,*,#351,.T.);
#228=ORIENTED_EDGE('',*,*,#343,.F.);
#229=ORIENTED_EDGE('',*,*,#354,.F.);
#230=ORIENTED_EDGE('',*,*,#333,.F.);
#231=ORIENTED_EDGE('',*,*,#353,.T.);
#232=ORIENTED_EDGE('',*,*,#338,.F.);
#233=ORIENTED_EDGE('',*,*,#355,.F.);
#234=ORIENTED_EDGE('',*,*,#346,.F.);
#235=ORIENTED_EDGE('',*,*,#354,.T.);
#236=ORIENTED_EDGE('',*,*,#342,.F.);
#237=ORIENTED_EDGE('',*,*,#356,.F.);
#238=ORIENTED_EDGE('',*,*,#331,.F.);
#239=ORIENTED_EDGE('',*,*,#355,.T.);
#240=ORIENTED_EDGE('',*,*,#291,.F.);
#241=ORIENTED_EDGE('',*,*,#357,.F.);
#242=ORIENTED_EDGE('',*,*,#339,.F.);
#243=ORIENTED_EDGE('',*,*,#358,.F.);
#244=ORIENTED_EDGE('',*,*,#340,.F.);
#245=ORIENTED_EDGE('',*,*,#359,.F.);
#246=ORIENTED_EDGE('',*,*,#350,.F.);
#247=ORIENTED_EDGE('',*,*,#356,.T.);
#248=ORIENTED_EDGE('',*,*,#341,.F.);
#249=ORIENTED_EDGE('',*,*,#360,.F.);
#250=ORIENTED_EDGE('',*,*,#286,.F.);
#251=ORIENTED_EDGE('',*,*,#359,.T.);
#252=ORIENTED_EDGE('',*,*,#357,.T.);
#253=ORIENTED_EDGE('',*,*,#361,.F.);
#254=ORIENTED_EDGE('',*,*,#360,.T.);
#255=ORIENTED_EDGE('',*,*,#358,.T.);
#256=ORIENTED_EDGE('',*,*,#362,.F.);
#257=ORIENTED_EDGE('',*,*,#361,.T.);
#258=ORIENTED_EDGE('',*,*,#290,.F.);
#259=ORIENTED_EDGE('',*,*,#363,.F.);
#260=ORIENTED_EDGE('',*,*,#347,.F.);
#261=ORIENTED_EDGE('',*,*,#362,.T.);
#262=ORIENTED_EDGE('',*,*,#349,.F.);
#263=ORIENTED_EDGE('',*,*,#364,.F.);
#264=ORIENTED_EDGE('',*,*,#271,.F.);
#265=ORIENTED_EDGE('',*,*,#289,.F.);
#266=ORIENTED_EDGE('',*,*,#329,.F.);
#267=ORIENTED_EDGE('',*,*,#272,.F.);
#268=ORIENTED_EDGE('',*,*,#364,.T.);
#269=ORIENTED_EDGE('',*,*,#348,.F.);
#270=ORIENTED_EDGE('',*,*,#363,.T.);
#271=EDGE_CURVE('',#365,#366,#423,.F.);
#272=EDGE_CURVE('',#366,#367,#55,.T.);
#273=EDGE_CURVE('',#367,#368,#424,.T.);
#274=EDGE_CURVE('',#368,#369,#56,.F.);
#275=EDGE_CURVE('',#369,#370,#425,.T.);
#276=EDGE_CURVE('',#371,#370,#57,.T.);
#277=EDGE_CURVE('',#371,#372,#426,.T.);
#278=EDGE_CURVE('',#372,#373,#58,.T.);
#279=EDGE_CURVE('',#373,#374,#427,.T.);
#280=EDGE_CURVE('',#374,#375,#59,.T.);
#281=EDGE_CURVE('',#376,#375,#428,.T.);
#282=EDGE_CURVE('',#377,#376,#60,.T.);
#283=EDGE_CURVE('',#378,#377,#429,.T.);
#284=EDGE_CURVE('',#379,#378,#430,.T.);
#285=EDGE_CURVE('',#380,#379,#431,.T.);
#286=EDGE_CURVE('',#380,#365,#432,.T.);
#287=EDGE_CURVE('',#381,#381,#61,.T.);
#288=EDGE_CURVE('',#382,#383,#433,.T.);
#289=EDGE_CURVE('',#382,#384,#62,.F.);
#290=EDGE_CURVE('',#384,#385,#434,.T.);
#291=EDGE_CURVE('',#385,#386,#435,.F.);
#292=EDGE_CURVE('',#386,#387,#436,.T.);
#293=EDGE_CURVE('',#387,#388,#437,.T.);
#294=EDGE_CURVE('',#388,#389,#438,.T.);
#295=EDGE_CURVE('',#389,#390,#63,.T.);
#296=EDGE_CURVE('',#390,#391,#439,.T.);
#297=EDGE_CURVE('',#391,#392,#64,.F.);
#298=EDGE_CURVE('',#393,#392,#440,.T.);
#299=EDGE_CURVE('',#393,#394,#65,.F.);
#300=EDGE_CURVE('',#395,#394,#441,.T.);
#301=EDGE_CURVE('',#395,#396,#66,.T.);
#302=EDGE_CURVE('',#397,#396,#442,.T.);
#303=EDGE_CURVE('',#397,#383,#67,.T.);
#304=EDGE_CURVE('',#398,#398,#68,.T.);
#305=EDGE_CURVE('',#399,#400,#443,.T.);
#306=EDGE_CURVE('',#399,#401,#444,.T.);
#307=EDGE_CURVE('',#401,#402,#445,.T.);
#308=EDGE_CURVE('',#402,#400,#446,.T.);
#309=EDGE_CURVE('',#379,#403,#39,.T.);
#310=EDGE_CURVE('',#378,#404,#40,.T.);
#311=EDGE_CURVE('',#404,#403,#447,.F.);
#312=EDGE_CURVE('',#387,#405,#41,.T.);
#313=EDGE_CURVE('',#405,#406,#448,.T.);
#314=EDGE_CURVE('',#388,#406,#42,.T.);
#315=EDGE_CURVE('',#405,#400,#18,.F.);
#316=EDGE_CURVE('',#406,#402,#69,.T.);
#317=EDGE_CURVE('',#399,#403,#19,.F.);
#318=EDGE_CURVE('',#401,#404,#70,.T.);
#319=EDGE_CURVE('',#369,#397,#449,.F.);
#320=EDGE_CURVE('',#370,#396,#450,.T.);
#321=EDGE_CURVE('',#377,#389,#451,.T.);
#322=EDGE_CURVE('',#371,#395,#452,.T.);
#323=EDGE_CURVE('',#394,#372,#453,.T.);
#324=EDGE_CURVE('',#376,#390,#454,.T.);
#325=EDGE_CURVE('',#375,#391,#455,.F.);
#326=EDGE_CURVE('',#392,#374,#456,.T.);
#327=EDGE_CURVE('',#373,#393,#457,.F.);
#328=EDGE_CURVE('',#383,#368,#458,.T.);
#329=EDGE_CURVE('',#367,#382,#459,.F.);
#330=EDGE_CURVE('',#407,#403,#460,.T.);
#331=EDGE_CURVE('',#407,#380,#43,.T.);
#332=EDGE_CURVE('',#408,#399,#461,.T.);
#333=EDGE_CURVE('',#408,#407,#44,.T.);
#334=EDGE_CURVE('',#409,#400,#462,.T.);
#335=EDGE_CURVE('',#409,#408,#463,.F.);
#336=EDGE_CURVE('',#410,#405,#464,.T.);
#337=EDGE_CURVE('',#410,#409,#45,.T.);
#338=EDGE_CURVE('',#386,#410,#46,.T.);
#339=EDGE_CURVE('',#411,#412,#465,.T.);
#340=EDGE_CURVE('',#412,#413,#466,.T.);
#341=EDGE_CURVE('',#413,#414,#467,.F.);
#342=EDGE_CURVE('',#414,#415,#47,.T.);
#343=EDGE_CURVE('',#415,#416,#48,.T.);
#344=EDGE_CURVE('',#416,#417,#468,.T.);
#345=EDGE_CURVE('',#417,#418,#49,.T.);
#346=EDGE_CURVE('',#418,#411,#50,.T.);
#347=EDGE_CURVE('',#419,#420,#469,.F.);
#348=EDGE_CURVE('',#420,#421,#470,.T.);
#349=EDGE_CURVE('',#421,#422,#471,.T.);
#350=EDGE_CURVE('',#422,#419,#472,.F.);
#351=EDGE_CURVE('',#408,#416,#71,.T.);
#352=EDGE_CURVE('',#417,#409,#72,.T.);
#353=EDGE_CURVE('',#418,#410,#73,.T.);
#354=EDGE_CURVE('',#407,#415,#74,.T.);
#355=EDGE_CURVE('',#411,#386,#75,.T.);
#356=EDGE_CURVE('',#380,#414,#76,.T.);
#357=EDGE_CURVE('',#412,#385,#77,.T.);
#358=EDGE_CURVE('',#413,#422,#78,.T.);
#359=EDGE_CURVE('',#419,#412,#79,.T.);
#360=EDGE_CURVE('',#365,#413,#80,.T.);
#361=EDGE_CURVE('',#419,#385,#81,.F.);
#362=EDGE_CURVE('',#365,#422,#82,.F.);
#363=EDGE_CURVE('',#420,#384,#20,.F.);
#364=EDGE_CURVE('',#366,#421,#21,.T.);
#365=VERTEX_POINT('',#915);
#366=VERTEX_POINT('',#916);
#367=VERTEX_POINT('',#918);
#368=VERTEX_POINT('',#920);
#369=VERTEX_POINT('',#922);
#370=VERTEX_POINT('',#924);
#371=VERTEX_POINT('',#926);
#372=VERTEX_POINT('',#928);
#373=VERTEX_POINT('',#930);
#374=VERTEX_POINT('',#932);
#375=VERTEX_POINT('',#934);
#376=VERTEX_POINT('',#936);
#377=VERTEX_POINT('',#938);
#378=VERTEX_POINT('',#940);
#379=VERTEX_POINT('',#942);
#380=VERTEX_POINT('',#944);
#381=VERTEX_POINT('',#947);
#382=VERTEX_POINT('',#950);
#383=VERTEX_POINT('',#951);
#384=VERTEX_POINT('',#953);
#385=VERTEX_POINT('',#955);
#386=VERTEX_POINT('',#957);
#387=VERTEX_POINT('',#959);
#388=VERTEX_POINT('',#961);
#389=VERTEX_POINT('',#963);
#390=VERTEX_POINT('',#965);
#391=VERTEX_POINT('',#967);
#392=VERTEX_POINT('',#969);
#393=VERTEX_POINT('',#971);
#394=VERTEX_POINT('',#973);
#395=VERTEX_POINT('',#975);
#396=VERTEX_POINT('',#977);
#397=VERTEX_POINT('',#979);
#398=VERTEX_POINT('',#982);
#399=VERTEX_POINT('',#985);
#400=VERTEX_POINT('',#986);
#401=VERTEX_POINT('',#988);
#402=VERTEX_POINT('',#990);
#403=VERTEX_POINT('',#1004);
#404=VERTEX_POINT('',#1009);
#405=VERTEX_POINT('',#1023);
#406=VERTEX_POINT('',#1025);
#407=VERTEX_POINT('',#1060);
#408=VERTEX_POINT('',#1076);
#409=VERTEX_POINT('',#1084);
#410=VERTEX_POINT('',#1097);
#411=VERTEX_POINT('',#1111);
#412=VERTEX_POINT('',#1112);
#413=VERTEX_POINT('',#1114);
#414=VERTEX_POINT('',#1116);
#415=VERTEX_POINT('',#1121);
#416=VERTEX_POINT('',#1128);
#417=VERTEX_POINT('',#1130);
#418=VERTEX_POINT('',#1137);
#419=VERTEX_POINT('',#1144);
#420=VERTEX_POINT('',#1145);
#421=VERTEX_POINT('',#1147);
#422=VERTEX_POINT('',#1149);
#423=LINE('',#914,#473);
#424=LINE('',#919,#474);
#425=LINE('',#923,#475);
#426=LINE('',#927,#476);
#427=LINE('',#931,#477);
#428=LINE('',#935,#478);
#429=LINE('',#939,#479);
#430=LINE('',#941,#480);
#431=LINE('',#943,#481);
#432=LINE('',#945,#482);
#433=LINE('',#949,#483);
#434=LINE('',#954,#484);
#435=LINE('',#956,#485);
#436=LINE('',#958,#486);
#437=LINE('',#960,#487);
#438=LINE('',#962,#488);
#439=LINE('',#966,#489);
#440=LINE('',#970,#490);
#441=LINE('',#974,#491);
#442=LINE('',#978,#492);
#443=LINE('',#984,#493);
#444=LINE('',#987,#494);
#445=LINE('',#989,#495);
#446=LINE('',#991,#496);
#447=LINE('',#1010,#497);
#448=LINE('',#1024,#498);
#449=LINE('',#1037,#499);
#450=LINE('',#1038,#500);
#451=LINE('',#1040,#501);
#452=LINE('',#1042,#502);
#453=LINE('',#1043,#503);
#454=LINE('',#1045,#504);
#455=LINE('',#1046,#505);
#456=LINE('',#1048,#506);
#457=LINE('',#1049,#507);
#458=LINE('',#1056,#508);
#459=LINE('',#1057,#509);
#460=LINE('',#1059,#510);
#461=LINE('',#1075,#511);
#462=LINE('',#1083,#512);
#463=LINE('',#1085,#513);
#464=LINE('',#1096,#514);
#465=LINE('',#1110,#515);
#466=LINE('',#1113,#516);
#467=LINE('',#1115,#517);
#468=LINE('',#1129,#518);
#469=LINE('',#1143,#519);
#470=LINE('',#1146,#520);
#471=LINE('',#1148,#521);
#472=LINE('',#1150,#522);
#473=VECTOR('',#738,1.);
#474=VECTOR('',#741,1.);
#475=VECTOR('',#744,1.);
#476=VECTOR('',#747,1.);
#477=VECTOR('',#750,1.);
#478=VECTOR('',#753,1.);
#479=VECTOR('',#756,1.);
#480=VECTOR('',#757,1.);
#481=VECTOR('',#758,1.);
#482=VECTOR('',#759,1.);
#483=VECTOR('',#764,1.);
#484=VECTOR('',#767,1.);
#485=VECTOR('',#768,1.);
#486=VECTOR('',#769,1.);
#487=VECTOR('',#770,1.);
#488=VECTOR('',#771,1.);
#489=VECTOR('',#774,1.);
#490=VECTOR('',#777,1.);
#491=VECTOR('',#780,1.);
#492=VECTOR('',#783,1.);
#493=VECTOR('',#790,1.);
#494=VECTOR('',#791,1.);
#495=VECTOR('',#792,1.);
#496=VECTOR('',#793,1.);
#497=VECTOR('',#794,1.);
#498=VECTOR('',#795,1.);
#499=VECTOR('',#810,1.);
#500=VECTOR('',#811,1.);
#501=VECTOR('',#814,1.);
#502=VECTOR('',#817,1.);
#503=VECTOR('',#818,1.);
#504=VECTOR('',#821,1.);
#505=VECTOR('',#822,1.);
#506=VECTOR('',#825,1.);
#507=VECTOR('',#826,1.);
#508=VECTOR('',#839,1.);
#509=VECTOR('',#840,1.);
#510=VECTOR('',#843,1.);
#511=VECTOR('',#844,1.);
#512=VECTOR('',#847,1.);
#513=VECTOR('',#848,1.);
#514=VECTOR('',#849,1.);
#515=VECTOR('',#854,1.);
#516=VECTOR('',#855,1.);
#517=VECTOR('',#856,1.);
#518=VECTOR('',#857,1.);
#519=VECTOR('',#860,1.);
#520=VECTOR('',#861,1.);
#521=VECTOR('',#862,1.);
#522=VECTOR('',#863,1.);
#523=EDGE_LOOP('',(#83,#84,#85,#86,#87,#88,#89,#90,#91,#92,#93,#94,#95,
#96,#97,#98));
#524=EDGE_LOOP('',(#99));
#525=EDGE_LOOP('',(#100,#101,#102,#103,#104,#105,#106,#107,#108,#109,#110,
#111,#112,#113,#114,#115));
#526=EDGE_LOOP('',(#116));
#527=EDGE_LOOP('',(#117,#118,#119,#120));
#528=EDGE_LOOP('',(#121,#122,#123,#124));
#529=EDGE_LOOP('',(#125,#126,#127,#128));
#530=EDGE_LOOP('',(#129,#130,#131,#132));
#531=EDGE_LOOP('',(#133,#134,#135,#136));
#532=EDGE_LOOP('',(#137,#138,#139,#140));
#533=EDGE_LOOP('',(#141,#142,#143,#144,#145,#146,#147,#148));
#534=EDGE_LOOP('',(#149,#150,#151,#152));
#535=EDGE_LOOP('',(#153,#154,#155,#156));
#536=EDGE_LOOP('',(#157,#158,#159,#160));
#537=EDGE_LOOP('',(#161));
#538=EDGE_LOOP('',(#162));
#539=EDGE_LOOP('',(#163,#164,#165,#166));
#540=EDGE_LOOP('',(#167,#168,#169,#170));
#541=EDGE_LOOP('',(#171,#172,#173,#174));
#542=EDGE_LOOP('',(#175,#176,#177,#178));
#543=EDGE_LOOP('',(#179,#180,#181,#182));
#544=EDGE_LOOP('',(#183,#184,#185,#186));
#545=EDGE_LOOP('',(#187,#188,#189,#190));
#546=EDGE_LOOP('',(#191,#192,#193,#194));
#547=EDGE_LOOP('',(#195,#196,#197,#198));
#548=EDGE_LOOP('',(#199,#200,#201,#202));
#549=EDGE_LOOP('',(#203,#204,#205,#206,#207,#208,#209,#210));
#550=EDGE_LOOP('',(#211,#212,#213,#214));
#551=EDGE_LOOP('',(#215,#216,#217,#218));
#552=EDGE_LOOP('',(#219,#220,#221,#222));
#553=EDGE_LOOP('',(#223,#224,#225,#226));
#554=EDGE_LOOP('',(#227,#228,#229,#230));
#555=EDGE_LOOP('',(#231,#232,#233,#234));
#556=EDGE_LOOP('',(#235,#236,#237,#238));
#557=EDGE_LOOP('',(#239,#240,#241,#242));
#558=EDGE_LOOP('',(#243,#244,#245,#246));
#559=EDGE_LOOP('',(#247,#248,#249,#250));
#560=EDGE_LOOP('',(#251,#252,#253));
#561=EDGE_LOOP('',(#254,#255,#256));
#562=EDGE_LOOP('',(#257,#258,#259,#260));
#563=EDGE_LOOP('',(#261,#262,#263,#264));
#564=EDGE_LOOP('',(#265,#266,#267,#268,#269,#270));
#565=FACE_BOUND('',#523,.T.);
#566=FACE_BOUND('',#524,.T.);
#567=FACE_BOUND('',#525,.T.);
#568=FACE_BOUND('',#526,.T.);
#569=FACE_BOUND('',#527,.T.);
#570=FACE_BOUND('',#528,.T.);
#571=FACE_BOUND('',#529,.T.);
#572=FACE_BOUND('',#530,.T.);
#573=FACE_BOUND('',#531,.T.);
#574=FACE_BOUND('',#532,.T.);
#575=FACE_BOUND('',#533,.T.);
#576=FACE_BOUND('',#534,.T.);
#577=FACE_BOUND('',#535,.T.);
#578=FACE_BOUND('',#536,.T.);
#579=FACE_BOUND('',#537,.T.);
#580=FACE_BOUND('',#538,.T.);
#581=FACE_BOUND('',#539,.T.);
#582=FACE_BOUND('',#540,.T.);
#583=FACE_BOUND('',#541,.T.);
#584=FACE_BOUND('',#542,.T.);
#585=FACE_BOUND('',#543,.T.);
#586=FACE_BOUND('',#544,.T.);
#587=FACE_BOUND('',#545,.T.);
#588=FACE_BOUND('',#546,.T.);
#589=FACE_BOUND('',#547,.T.);
#590=FACE_BOUND('',#548,.T.);
#591=FACE_BOUND('',#549,.T.);
#592=FACE_BOUND('',#550,.T.);
#593=FACE_BOUND('',#551,.T.);
#594=FACE_BOUND('',#552,.T.);
#595=FACE_BOUND('',#553,.T.);
#596=FACE_BOUND('',#554,.T.);
#597=FACE_BOUND('',#555,.T.);
#598=FACE_BOUND('',#556,.T.);
#599=FACE_BOUND('',#557,.T.);
#600=FACE_BOUND('',#558,.T.);
#601=FACE_BOUND('',#559,.T.);
#602=FACE_BOUND('',#560,.T.);
#603=FACE_BOUND('',#561,.T.);
#604=FACE_BOUND('',#562,.T.);
#605=FACE_BOUND('',#563,.T.);
#606=FACE_BOUND('',#564,.T.);
#607=PLANE('',#671);
#608=PLANE('',#679);
#609=PLANE('',#687);
#610=PLANE('',#694);
#611=PLANE('',#695);
#612=PLANE('',#696);
#613=PLANE('',#697);
#614=PLANE('',#698);
#615=PLANE('',#704);
#616=PLANE('',#706);
#617=PLANE('',#708);
#618=PLANE('',#709);
#619=ADVANCED_FACE('',(#565,#566),#607,.T.);
#620=ADVANCED_FACE('',(#567,#568),#608,.F.);
#621=ADVANCED_FACE('',(#569),#609,.F.);
#622=ADVANCED_FACE('',(#570),#51,.F.);
#623=ADVANCED_FACE('',(#571),#52,.T.);
#624=ADVANCED_FACE('',(#572),#22,.T.);
#625=ADVANCED_FACE('',(#573),#23,.T.);
#626=ADVANCED_FACE('',(#574),#610,.F.);
#627=ADVANCED_FACE('',(#575),#611,.T.);
#628=ADVANCED_FACE('',(#576),#612,.F.);
#629=ADVANCED_FACE('',(#577),#613,.T.);
#630=ADVANCED_FACE('',(#578),#614,.F.);
#631=ADVANCED_FACE('',(#579,#580),#24,.F.);
#632=ADVANCED_FACE('',(#581),#25,.T.);
#633=ADVANCED_FACE('',(#582),#26,.T.);
#634=ADVANCED_FACE('',(#583),#27,.T.);
#635=ADVANCED_FACE('',(#584),#28,.T.);
#636=ADVANCED_FACE('',(#585),#615,.T.);
#637=ADVANCED_FACE('',(#586),#29,.T.);
#638=ADVANCED_FACE('',(#587),#53,.F.);
#639=ADVANCED_FACE('',(#588),#616,.F.);
#640=ADVANCED_FACE('',(#589),#54,.F.);
#641=ADVANCED_FACE('',(#590),#30,.T.);
#642=ADVANCED_FACE('',(#591),#617,.T.);
#643=ADVANCED_FACE('',(#592),#618,.F.);
#644=ADVANCED_FACE('',(#593),#31,.F.);
#645=ADVANCED_FACE('',(#594),#32,.T.);
#646=ADVANCED_FACE('',(#595),#14,.T.);
#647=ADVANCED_FACE('',(#596),#15,.T.);
#648=ADVANCED_FACE('',(#597),#16,.T.);
#649=ADVANCED_FACE('',(#598),#17,.T.);
#650=ADVANCED_FACE('',(#599),#33,.T.);
#651=ADVANCED_FACE('',(#600),#34,.T.);
#652=ADVANCED_FACE('',(#601),#35,.T.);
#653=ADVANCED_FACE('',(#602),#12,.T.);
#654=ADVANCED_FACE('',(#603),#13,.T.);
#655=ADVANCED_FACE('',(#604),#36,.T.);
#656=ADVANCED_FACE('',(#605),#37,.T.);
#657=ADVANCED_FACE('',(#606),#38,.T.);
#658=CLOSED_SHELL('',(#619,#620,#621,#622,#623,#624,#625,#626,#627,#628,
#629,#630,#631,#632,#633,#634,#635,#636,#637,#638,#639,#640,#641,#642,#643,
#644,#645,#646,#647,#648,#649,#650,#651,#652,#653,#654,#655,#656,#657));
#659=STYLED_ITEM('',(#660),#667);
#660=PRESENTATION_STYLE_ASSIGNMENT((#661));
#661=SURFACE_STYLE_USAGE(.BOTH.,#662);
#662=SURFACE_SIDE_STYLE('',(#663));
#663=SURFACE_STYLE_FILL_AREA(#664);
#664=FILL_AREA_STYLE('',(#665));
#665=FILL_AREA_STYLE_COLOUR('',#666);
#666=DRAUGHTING_PRE_DEFINED_COLOUR('red');
#667=MANIFOLD_SOLID_BREP('Coin Push Lever',#658);
#668=SHAPE_DEFINITION_REPRESENTATION(#1259,#669);
#669=SHAPE_REPRESENTATION('Coin Push Lever',(#670),#1254);
#670=AXIS2_PLACEMENT_3D('',#912,#734,#735);
#671=AXIS2_PLACEMENT_3D('',#913,#736,#737);
#672=AXIS2_PLACEMENT_3D('',#917,#739,#740);
#673=AXIS2_PLACEMENT_3D('',#921,#742,#743);
#674=AXIS2_PLACEMENT_3D('',#925,#745,#746);
#675=AXIS2_PLACEMENT_3D('',#929,#748,#749);
#676=AXIS2_PLACEMENT_3D('',#933,#751,#752);
#677=AXIS2_PLACEMENT_3D('',#937,#754,#755);
#678=AXIS2_PLACEMENT_3D('',#946,#760,#761);
#679=AXIS2_PLACEMENT_3D('',#948,#762,#763);
#680=AXIS2_PLACEMENT_3D('',#952,#765,#766);
#681=AXIS2_PLACEMENT_3D('',#964,#772,#773);
#682=AXIS2_PLACEMENT_3D('',#968,#775,#776);
#683=AXIS2_PLACEMENT_3D('',#972,#778,#779);
#684=AXIS2_PLACEMENT_3D('',#976,#781,#782);
#685=AXIS2_PLACEMENT_3D('',#980,#784,#785);
#686=AXIS2_PLACEMENT_3D('',#981,#786,#787);
#687=AXIS2_PLACEMENT_3D('',#983,#788,#789);
#688=AXIS2_PLACEMENT_3D('',#1030,#796,#797);
#689=AXIS2_PLACEMENT_3D('',#1031,#798,#799);
#690=AXIS2_PLACEMENT_3D('',#1032,#800,#801);
#691=AXIS2_PLACEMENT_3D('',#1033,#802,#803);
#692=AXIS2_PLACEMENT_3D('',#1034,#804,#805);
#693=AXIS2_PLACEMENT_3D('',#1035,#806,#807);
#694=AXIS2_PLACEMENT_3D('',#1036,#808,#809);
#695=AXIS2_PLACEMENT_3D('',#1039,#812,#813);
#696=AXIS2_PLACEMENT_3D('',#1041,#815,#816);
#697=AXIS2_PLACEMENT_3D('',#1044,#819,#820);
#698=AXIS2_PLACEMENT_3D('',#1047,#823,#824);
#699=AXIS2_PLACEMENT_3D('',#1050,#827,#828);
#700=AXIS2_PLACEMENT_3D('',#1051,#829,#830);
#701=AXIS2_PLACEMENT_3D('',#1052,#831,#832);
#702=AXIS2_PLACEMENT_3D('',#1053,#833,#834);
#703=AXIS2_PLACEMENT_3D('',#1054,#835,#836);
#704=AXIS2_PLACEMENT_3D('',#1055,#837,#838);
#705=AXIS2_PLACEMENT_3D('',#1058,#841,#842);
#706=AXIS2_PLACEMENT_3D('',#1082,#845,#846);
#707=AXIS2_PLACEMENT_3D('',#1104,#850,#851);
#708=AXIS2_PLACEMENT_3D('',#1109,#852,#853);
#709=AXIS2_PLACEMENT_3D('',#1142,#858,#859);
#710=AXIS2_PLACEMENT_3D('',#1151,#864,#865);
#711=AXIS2_PLACEMENT_3D('',#1152,#866,#867);
#712=AXIS2_PLACEMENT_3D('',#1153,#868,#869);
#713=AXIS2_PLACEMENT_3D('',#1154,#870,#871);
#714=AXIS2_PLACEMENT_3D('',#1182,#872,#873);
#715=AXIS2_PLACEMENT_3D('',#1210,#874,#875);
#716=AXIS2_PLACEMENT_3D('',#1223,#876,#877);
#717=AXIS2_PLACEMENT_3D('',#1236,#878,#879);
#718=AXIS2_PLACEMENT_3D('',#1237,#880,#881);
#719=AXIS2_PLACEMENT_3D('',#1238,#882,#883);
#720=AXIS2_PLACEMENT_3D('',#1239,#884,#885);
#721=AXIS2_PLACEMENT_3D('',#1240,#886,#887);
#722=AXIS2_PLACEMENT_3D('',#1241,#888,#889);
#723=AXIS2_PLACEMENT_3D('',#1242,#890,#891);
#724=AXIS2_PLACEMENT_3D('',#1243,#892,#893);
#725=AXIS2_PLACEMENT_3D('',#1244,#894,#895);
#726=AXIS2_PLACEMENT_3D('',#1245,#896,#897);
#727=AXIS2_PLACEMENT_3D('',#1246,#898,#899);
#728=AXIS2_PLACEMENT_3D('',#1247,#900,#901);
#729=AXIS2_PLACEMENT_3D('',#1248,#902,#903);
#730=AXIS2_PLACEMENT_3D('',#1249,#904,#905);
#731=AXIS2_PLACEMENT_3D('',#1250,#906,#907);
#732=AXIS2_PLACEMENT_3D('',#1251,#908,#909);
#733=AXIS2_PLACEMENT_3D('',#1252,#910,#911);
#734=DIRECTION('',(0.,0.,1.));
#735=DIRECTION('',(1.,0.,0.));
#736=DIRECTION('',(1.,0.,0.));
#737=DIRECTION('',(0.,0.121869343405147,-0.992546151641322));
#738=DIRECTION('',(0.,0.808004209290586,-0.589176711834994));
#739=DIRECTION('',(1.,0.,0.));
#740=DIRECTION('',(0.,0.,-1.));
#741=DIRECTION('',(0.,-0.2464099576833,-0.969165689010148));
#742=DIRECTION('',(1.,0.,0.));
#743=DIRECTION('',(0.,0.,-1.));
#744=DIRECTION('',(0.,-0.529919264233206,0.848048096156425));
#745=DIRECTION('',(-1.,0.,0.));
#746=DIRECTION('',(0.,-0.529919264233206,0.848048096156425));
#747=DIRECTION('',(0.,-0.529919264233206,0.848048096156425));
#748=DIRECTION('',(1.,0.,0.));
#749=DIRECTION('',(0.,0.788010753606722,-0.615661475325658));
#750=DIRECTION('',(0.,-0.848048096156425,-0.529919264233206));
#751=DIRECTION('',(1.,0.,0.));
#752=DIRECTION('',(0.,0.788010753606722,-0.615661475325658));
#753=DIRECTION('',(0.,-0.529919264233206,0.848048096156425));
#754=DIRECTION('',(-1.,0.,0.));
#755=DIRECTION('',(0.,-0.529919264233206,0.848048096156425));
#756=DIRECTION('',(0.,-0.529919264233206,0.848048096156425));
#757=DIRECTION('',(0.,-0.848048096156425,-0.529919264233206));
#758=DIRECTION('',(0.,-0.969165689010148,0.2464099576833));
#759=DIRECTION('',(0.,0.2464099576833,0.969165689010148));
#760=DIRECTION('',(-1.,0.,0.));
#761=DIRECTION('',(0.,-0.529919264233206,0.848048096156425));
#762=DIRECTION('',(1.,0.,0.));
#763=DIRECTION('',(0.,0.121869343405147,-0.992546151641322));
#764=DIRECTION('',(0.,-0.2464099576833,-0.969165689010148));
#765=DIRECTION('',(1.,0.,0.));
#766=DIRECTION('',(0.,0.,-1.));
#767=DIRECTION('',(0.,0.808004209290586,-0.589176711834994));
#768=DIRECTION('',(0.,0.2464099576833,0.969165689010148));
#769=DIRECTION('',(0.,-0.969165689010148,0.2464099576833));
#770=DIRECTION('',(0.,-0.848048096156425,-0.529919264233206));
#771=DIRECTION('',(0.,-0.529919264233206,0.848048096156425));
#772=DIRECTION('',(-1.,0.,0.));
#773=DIRECTION('',(0.,-0.529919264233206,0.848048096156425));
#774=DIRECTION('',(0.,-0.529919264233206,0.848048096156425));
#775=DIRECTION('',(1.,0.,0.));
#776=DIRECTION('',(0.,0.788010753606722,-0.615661475325658));
#777=DIRECTION('',(0.,-0.848048096156425,-0.529919264233206));
#778=DIRECTION('',(1.,0.,0.));
#779=DIRECTION('',(0.,0.788010753606722,-0.615661475325658));
#780=DIRECTION('',(0.,-0.529919264233206,0.848048096156425));
#781=DIRECTION('',(-1.,0.,0.));
#782=DIRECTION('',(0.,-0.529919264233206,0.848048096156425));
#783=DIRECTION('',(0.,-0.529919264233206,0.848048096156425));
#784=DIRECTION('',(1.,0.,0.));
#785=DIRECTION('',(0.,0.,-1.));
#786=DIRECTION('',(-1.,0.,0.));
#787=DIRECTION('',(0.,-0.529919264233206,0.848048096156425));
#788=DIRECTION('',(0.,-0.529919264233206,0.848048096156425));
#789=DIRECTION('',(0.,-0.848048096156425,-0.529919264233206));
#790=DIRECTION('',(-1.,0.,0.));
#791=DIRECTION('',(0.,-0.848048096156425,-0.529919264233206));
#792=DIRECTION('',(-1.,0.,0.));
#793=DIRECTION('',(0.,0.848048096156425,0.529919264233206));
#794=DIRECTION('',(0.,-0.848048096156425,-0.529919264233206));
#795=DIRECTION('',(0.,-0.848048096156425,-0.529919264233206));
#796=DIRECTION('',(0.,-0.848048096156425,-0.529919264233206));
#797=DIRECTION('',(0.,0.529919264233206,-0.848048096156425));
#798=DIRECTION('',(0.,0.969165689010148,-0.2464099576833));
#799=DIRECTION('',(0.,-0.2464099576833,-0.969165689010148));
#800=DIRECTION('',(0.,-0.848048096156425,-0.529919264233206));
#801=DIRECTION('',(0.,0.529919264233206,-0.848048096156425));
#802=DIRECTION('',(0.,-0.848048096156425,-0.529919264233206));
#803=DIRECTION('',(0.,0.529919264233206,-0.848048096156425));
#804=DIRECTION('',(0.,0.969165689010148,-0.2464099576833));
#805=DIRECTION('',(0.,-0.2464099576833,-0.969165689010148));
#806=DIRECTION('',(0.,-0.848048096156425,-0.529919264233206));
#807=DIRECTION('',(0.,0.529919264233206,-0.848048096156425));
#808=DIRECTION('',(0.,-0.848048096156425,-0.529919264233206));
#809=DIRECTION('',(1.,0.,0.));
#810=DIRECTION('',(1.,0.,0.));
#811=DIRECTION('',(-1.,0.,0.));
#812=DIRECTION('',(0.,-0.848048096156425,-0.529919264233206));
#813=DIRECTION('',(1.,0.,0.));
#814=DIRECTION('',(-1.,0.,0.));
#815=DIRECTION('',(0.,-0.848048096156425,-0.529919264233206));
#816=DIRECTION('',(1.,0.,0.));
#817=DIRECTION('',(-1.,0.,0.));
#818=DIRECTION('',(1.,0.,0.));
#819=DIRECTION('',(0.,-0.848048096156425,-0.529919264233206));
#820=DIRECTION('',(1.,0.,0.));
#821=DIRECTION('',(-1.,0.,0.));
#822=DIRECTION('',(1.,0.,0.));
#823=DIRECTION('',(0.,0.529919264233206,-0.848048096156425));
#824=DIRECTION('',(0.,0.848048096156425,0.529919264233206));
#825=DIRECTION('',(1.,0.,0.));
#826=DIRECTION('',(1.,0.,0.));
#827=DIRECTION('',(-1.,0.,0.));
#828=DIRECTION('',(0.,-0.529919264233206,0.848048096156425));
#829=DIRECTION('',(-1.,0.,0.));
#830=DIRECTION('',(0.,-0.529919264233206,0.848048096156425));
#831=DIRECTION('',(-1.,0.,0.));
#832=DIRECTION('',(0.,-0.529919264233206,0.848048096156425));
#833=DIRECTION('',(1.,0.,0.));
#834=DIRECTION('',(0.,0.788010753606722,-0.615661475325658));
#835=DIRECTION('',(-1.,0.,0.));
#836=DIRECTION('',(0.,-0.788010753606722,0.615661475325658));
#837=DIRECTION('',(0.,-0.969165689010148,0.2464099576833));
#838=DIRECTION('',(0.,-0.2464099576833,-0.969165689010148));
#839=DIRECTION('',(1.,0.,0.));
#840=DIRECTION('',(1.,0.,0.));
#841=DIRECTION('',(0.,-0.969165689010148,0.2464099576833));
#842=DIRECTION('',(0.997694260064806,-0.0167235289302477,-0.0657760367752509));
#843=DIRECTION('',(0.,-0.969165689010148,0.2464099576833));
#844=DIRECTION('',(0.,-0.969165689010148,0.2464099576833));
#845=DIRECTION('',(0.,0.2464099576833,0.969165689010148));
#846=DIRECTION('',(0.,-0.969165689010148,0.2464099576833));
#847=DIRECTION('',(0.,-0.969165689010148,0.2464099576833));
#848=DIRECTION('',(-1.,0.,0.));
#849=DIRECTION('',(0.,-0.969165689010148,0.2464099576833));
#850=DIRECTION('',(0.,-0.969165689010148,0.2464099576833));
#851=DIRECTION('',(-0.997694260064774,-0.0167235289303627,-0.0657760367757033));
#852=DIRECTION('',(0.,0.969165689010148,-0.2464099576833));
#853=DIRECTION('',(0.,0.2464099576833,0.969165689010148));
#854=DIRECTION('',(0.,0.2464099576833,0.969165689010148));
#855=DIRECTION('',(1.,0.,0.));
#856=DIRECTION('',(0.,0.2464099576833,0.969165689010148));
#857=DIRECTION('',(-1.,0.,0.));
#858=DIRECTION('',(0.,-0.589176711834994,-0.808004209290586));
#859=DIRECTION('',(0.,0.808004209290586,-0.589176711834994));
#860=DIRECTION('',(0.,0.808004209290586,-0.589176711834994));
#861=DIRECTION('',(1.,0.,0.));
#862=DIRECTION('',(0.,0.808004209290586,-0.589176711834994));
#863=DIRECTION('',(1.,0.,0.));
#864=DIRECTION('',(1.,0.,0.));
#865=DIRECTION('',(0.,0.,-1.));
#866=DIRECTION('',(1.,0.,0.));
#867=DIRECTION('',(0.,0.,-1.));
#868=DIRECTION('',(1.,0.,0.));
#869=DIRECTION('',(0.,0.,-1.));
#870=DIRECTION('',(-1.,2.67158211442291E-17,1.05077154552321E-16));
#871=DIRECTION('',(1.05077154552321E-16,0.,1.));
#872=DIRECTION('',(-0.131936690269019,0.244255877529365,0.960693382954841));
#873=DIRECTION('',(0.,-0.969165689010149,0.246409957683297));
#874=DIRECTION('',(0.131936690302661,0.244255877528262,0.960693382950501));
#875=DIRECTION('',(0.,-0.969165689010148,0.246409957683297));
#876=DIRECTION('',(0.,0.246409957683297,0.969165689010149));
#877=DIRECTION('',(0.,-0.969165689010149,0.246409957683297));
#878=DIRECTION('',(0.,0.246409957683297,0.969165689010149));
#879=DIRECTION('',(0.,-0.969165689010149,0.246409957683297));
#880=DIRECTION('',(0.,-0.2464099576833,-0.969165689010148));
#881=DIRECTION('',(0.,0.969165689010148,-0.2464099576833));
#882=DIRECTION('',(1.34498757826971E-14,0.246409957683297,0.969165689010148));
#883=DIRECTION('',(0.,-0.969165689010149,0.246409957683297));
#884=DIRECTION('',(-1.,0.,0.));
#885=DIRECTION('',(0.,0.,1.));
#886=DIRECTION('',(1.,0.,0.));
#887=DIRECTION('',(0.,0.,-1.));
#888=DIRECTION('',(-1.,7.54988006503457E-16,-5.50518606254678E-16));
#889=DIRECTION('',(-7.54988006503457E-16,-1.,0.));
#890=DIRECTION('',(0.,0.2464099576833,0.969165689010148));
#891=DIRECTION('',(0.,-0.969165689010148,0.2464099576833));
#892=DIRECTION('',(0.,0.246409957683299,0.969165689010148));
#893=DIRECTION('',(0.,-0.969165689010148,0.246409957683299));
#894=DIRECTION('',(-1.,0.,1.38777878078145E-14));
#895=DIRECTION('',(1.38777878078145E-14,0.,1.));
#896=DIRECTION('',(0.,0.808004209290579,-0.589176711835003));
#897=DIRECTION('',(0.,0.589176711835003,0.808004209290579));
#898=DIRECTION('',(1.,6.93889390390723E-15,0.));
#899=DIRECTION('',(-6.93889390390723E-15,1.,0.));
#900=DIRECTION('',(-5.60665548217781E-15,0.808004209290584,-0.589176711834996));
#901=DIRECTION('',(0.,0.589176711834996,0.808004209290584));
#902=DIRECTION('',(0.,0.808004209290586,-0.589176711834994));
#903=DIRECTION('',(0.,0.589176711834994,0.808004209290586));
#904=DIRECTION('',(-0.707106781186548,0.571345255616647,-0.416610848255717));
#905=DIRECTION('',(0.707106781186548,0.571345255616647,-0.416610848255717));
#906=DIRECTION('',(0.,-0.808004209290586,0.589176711834994));
#907=DIRECTION('',(0.,-0.589176711834994,-0.808004209290586));
#908=DIRECTION('',(-0.707106781186548,-0.571345255616647,0.416610848255717));
#909=DIRECTION('',(0.707106781186548,-0.571345255616647,0.416610848255717));
#910=DIRECTION('',(-1.,0.,0.));
#911=DIRECTION('',(0.,0.,1.));
#912=CARTESIAN_POINT('',(0.,0.,0.));
#913=CARTESIAN_POINT('',(0.004,0.0255922600758806,0.0745364429964092));
#914=CARTESIAN_POINT('',(0.004,0.0390157027917055,0.0701743592227217));
#915=CARTESIAN_POINT('',(0.004,0.0459565922440418,0.0651132340729801));
#916=CARTESIAN_POINT('',(0.004,0.0390554946758245,0.0701453439636755));
#917=CARTESIAN_POINT('',(0.004,0.0398634988851152,0.0695561672518405));
#918=CARTESIAN_POINT('',(0.004,0.038894333196105,0.0698025772095238));
#919=CARTESIAN_POINT('',(0.004,0.0389067887136874,0.0698515665458041));
#920=CARTESIAN_POINT('',(0.004,0.0364795332947588,0.0603048230107358));
#921=CARTESIAN_POINT('',(0.004,0.0355103676057488,0.0605512329684191));
#922=CARTESIAN_POINT('',(0.004,0.0346623195095923,0.0600213137041859));
#923=CARTESIAN_POINT('',(0.004,0.0255922600758806,0.0745364429964092));
#924=CARTESIAN_POINT('',(0.004,0.0147687480495294,0.0918576830176701));
#925=CARTESIAN_POINT('',(0.004,0.0106442567166525,0.0946840890828037));
#926=CARTESIAN_POINT('',(0.004,0.00991195776840142,0.0996301722048701));
#927=CARTESIAN_POINT('',(0.004,0.0305866601956666,0.066543732032869));
#928=CARTESIAN_POINT('',(0.004,0.00227188688853449,0.111856841438242));
#929=CARTESIAN_POINT('',(0.004,0.00142383879237806,0.111326922174009));
#930=CARTESIAN_POINT('',(0.004,0.000893919528144854,0.112174970270165));
#931=CARTESIAN_POINT('',(0.004,0.00174196762430128,0.112704889534399));
#932=CARTESIAN_POINT('',(0.004,-0.000802176664168014,0.111115131741699));
#933=CARTESIAN_POINT('',(0.004,-0.000272257399934792,0.110267083645542));
#934=CARTESIAN_POINT('',(0.004,-0.00112030549609124,0.109737164381309));
#935=CARTESIAN_POINT('',(0.004,0.0271944678110408,0.0644240549759362));
#936=CARTESIAN_POINT('',(0.004,0.0065197653837757,0.0975104951479373));
#937=CARTESIAN_POINT('',(0.004,0.0106442567166525,0.0946840890828037));
#938=CARTESIAN_POINT('',(0.004,0.0113765556649037,0.0897380059607373));
#939=CARTESIAN_POINT('',(0.004,0.0222000676912549,0.0724167659394764));
#940=CARTESIAN_POINT('',(0.004,0.0330235797176061,0.0550955259182155));
#941=CARTESIAN_POINT('',(0.004,0.0364157721022318,0.0572152029751483));
#942=CARTESIAN_POINT('',(0.004000200295909,0.0404644913593531,0.0597451231392385));
#943=CARTESIAN_POINT('',(0.004,0.0453103196229197,0.0585130736515881));
#944=CARTESIAN_POINT('',(0.004000200295909,0.0443411536308109,0.0587594834317103));
#945=CARTESIAN_POINT('',(0.004,0.0469704895164286,0.0691010373980439));
#946=CARTESIAN_POINT('',(0.004,0.0106442567166525,0.0946840890828037));
#947=CARTESIAN_POINT('',(0.004,0.0091869787400112,0.0970162213472339));
#948=CARTESIAN_POINT('',(-0.003,0.0255922600758806,0.0745364429964092));
#949=CARTESIAN_POINT('',(-0.003,0.0392171640043474,0.0710723170595103));
#950=CARTESIAN_POINT('',(-0.003,0.038894333196105,0.0698025772095238));
#951=CARTESIAN_POINT('',(-0.003,0.0364795332947588,0.0603048230107358));
#952=CARTESIAN_POINT('',(-0.003,0.0398634988851152,0.0695561672518405));
#953=CARTESIAN_POINT('',(-0.003,0.0390554946758245,0.0701453439636755));
#954=CARTESIAN_POINT('',(-0.003,0.0281753273140612,0.0780788932654128));
#955=CARTESIAN_POINT('',(-0.003,0.0459565922440418,0.0651132340729801));
#956=CARTESIAN_POINT('',(-0.003,0.0443411539339095,0.0587594836092714));
#957=CARTESIAN_POINT('',(-0.00300020029590853,0.0443411536308108,0.0587594834317103));
#958=CARTESIAN_POINT('',(-0.003,0.0453103196229197,0.0585130736515881));
#959=CARTESIAN_POINT('',(-0.00300020029590853,0.0404644913593531,0.0597451231392385));
#960=CARTESIAN_POINT('',(-0.003,0.0364157721022318,0.0572152029751483));
#961=CARTESIAN_POINT('',(-0.003,0.0330235797176062,0.0550955259182155));
#962=CARTESIAN_POINT('',(-0.003,0.0222000676912549,0.0724167659394764));
#963=CARTESIAN_POINT('',(-0.003,0.0113765556649037,0.0897380059607373));
#964=CARTESIAN_POINT('',(-0.003,0.0106442567166525,0.0946840890828037));
#965=CARTESIAN_POINT('',(-0.003,0.0065197653837757,0.0975104951479373));
#966=CARTESIAN_POINT('',(-0.003,0.0271944678110408,0.0644240549759362));
#967=CARTESIAN_POINT('',(-0.003,-0.00112030549609124,0.109737164381309));
#968=CARTESIAN_POINT('',(-0.003,-0.000272257399934792,0.110267083645542));
#969=CARTESIAN_POINT('',(-0.003,-0.000802176664168014,0.111115131741699));
#970=CARTESIAN_POINT('',(-0.003,0.00174196762430128,0.112704889534399));
#971=CARTESIAN_POINT('',(-0.003,0.000893919528144854,0.112174970270165));
#972=CARTESIAN_POINT('',(-0.003,0.00142383879237806,0.111326922174009));
#973=CARTESIAN_POINT('',(-0.003,0.00227188688853449,0.111856841438242));
#974=CARTESIAN_POINT('',(-0.003,0.0305866601956666,0.066543732032869));
#975=CARTESIAN_POINT('',(-0.003,0.00991195776840142,0.0996301722048701));
#976=CARTESIAN_POINT('',(-0.003,0.0106442567166525,0.0946840890828037));
#977=CARTESIAN_POINT('',(-0.003,0.0147687480495294,0.0918576830176701));
#978=CARTESIAN_POINT('',(-0.003,0.0255922600758806,0.0745364429964092));
#979=CARTESIAN_POINT('',(-0.003,0.0346623195095923,0.0600213137041859));
#980=CARTESIAN_POINT('',(-0.003,0.0355103676057488,0.0605512329684191));
#981=CARTESIAN_POINT('',(-0.003,0.0106442567166525,0.0946840890828037));
#982=CARTESIAN_POINT('',(-0.003,0.0091869787400112,0.0970162213472339));
#983=CARTESIAN_POINT('',(0.0005,0.0388363184325733,0.0533415191035591));
#984=CARTESIAN_POINT('',(0.0005,0.0388363887067932,0.0533415630157653));
#985=CARTESIAN_POINT('',(0.00174878701615211,0.0388363887067932,0.0533415630157653));
#986=CARTESIAN_POINT('',(-0.000748787016152125,0.0388363887067932,0.0533415630157653));
#987=CARTESIAN_POINT('',(0.00174878701615211,0.0388363184325733,0.0533415191035591));
#988=CARTESIAN_POINT('',(0.00174878701615211,0.0354441260479477,0.0512218420466263));
#989=CARTESIAN_POINT('',(0.0005,0.0354441260479477,0.0512218420466263));
#990=CARTESIAN_POINT('',(-0.000748787016152125,0.0354441260479477,0.0512218420466263));
#991=CARTESIAN_POINT('',(-0.000748787016152125,0.0388363184325734,0.0533415191035591));
#992=CARTESIAN_POINT('',(0.004,0.0405091366419601,0.0597730210222169));
#993=CARTESIAN_POINT('',(0.004,0.0330235797176061,0.0550955259182155));
#994=CARTESIAN_POINT('',(0.004,0.0410384503283801,0.0589259420531451));
#995=CARTESIAN_POINT('',(0.004,0.0335528934040261,0.0542484469491436));
#996=CARTESIAN_POINT('',(0.00389866917686495,0.0415584062737861,0.0580938386001316));
#997=CARTESIAN_POINT('',(0.00389866917686495,0.0340728493494321,0.0534163434961302));
#998=CARTESIAN_POINT('',(0.0037127188667709,0.0420702153800012,0.057274772815178));
#999=CARTESIAN_POINT('',(0.0037127188667709,0.0345846584556472,0.0525972777111765));
#1000=CARTESIAN_POINT('',(0.004,0.0404644911778689,0.0597451234400046));
#1001=CARTESIAN_POINT('',(0.004,0.0401133025685559,0.0583638482930202));
#1002=CARTESIAN_POINT('',(0.00390075066677333,0.039762587265388,0.0569844347269582));
#1003=CARTESIAN_POINT('',(0.00371271886692455,0.0394144818810416,0.0556152863457803));
#1004=CARTESIAN_POINT('',(0.00371271886677089,0.0394144818807571,0.0556152863446614));
#1005=CARTESIAN_POINT('',(0.004,0.0330235797176061,0.0550955259182155));
#1006=CARTESIAN_POINT('',(0.004,0.033851792450282,0.0537701084847228));
#1007=CARTESIAN_POINT('',(0.00375191578668991,0.0346570949988109,0.0524813550099873));
#1008=CARTESIAN_POINT('',(0.00331976468369956,0.0354441260523476,0.0512218420395849));
#1009=CARTESIAN_POINT('',(0.00371271886677089,0.0345846584556472,0.0525972777111765));
#1010=CARTESIAN_POINT('',(0.00371271886677089,0.0345846584556473,0.0525972777111765));
#1011=CARTESIAN_POINT('',(-0.003,0.0405091366419601,0.0597730210222169));
#1012=CARTESIAN_POINT('',(-0.003,0.0330235797176061,0.0550955259182155));
#1013=CARTESIAN_POINT('',(-0.003,0.04103845032838,0.0589259420531451));
#1014=CARTESIAN_POINT('',(-0.003,0.0335528934040261,0.0542484469491436));
#1015=CARTESIAN_POINT('',(-0.00289866917686496,0.0415584062737861,0.0580938386001316));
#1016=CARTESIAN_POINT('',(-0.00289866917686496,0.0340728493494321,0.0534163434961301));
#1017=CARTESIAN_POINT('',(-0.00271271886677091,0.0420702153800012,0.0572747728151779));
#1018=CARTESIAN_POINT('',(-0.00271271886677091,0.0345846584556472,0.0525972777111765));
#1019=CARTESIAN_POINT('',(-0.003,0.0404644911778689,0.0597451234400046));
#1020=CARTESIAN_POINT('',(-0.003,0.0401133025685559,0.0583638482930202));
#1021=CARTESIAN_POINT('',(-0.00290075066677335,0.039762587265388,0.0569844347269582));
#1022=CARTESIAN_POINT('',(-0.00271271886692458,0.0394144818810416,0.0556152863457803));
#1023=CARTESIAN_POINT('',(-0.00271271886677091,0.0394144818807571,0.0556152863446614));
#1024=CARTESIAN_POINT('',(-0.00271271886677091,0.037976850840273,0.0547169547681093));
#1025=CARTESIAN_POINT('',(-0.00271271886677091,0.0345846584556472,0.0525972777111765));
#1026=CARTESIAN_POINT('',(-0.003,0.0330235797176061,0.0550955259182155));
#1027=CARTESIAN_POINT('',(-0.003,0.033851792450282,0.0537701084847228));
#1028=CARTESIAN_POINT('',(-0.00275191578668992,0.034657094998811,0.0524813550099873));
#1029=CARTESIAN_POINT('',(-0.00231976468369957,0.0354441260523476,0.0512218420395849));
#1030=CARTESIAN_POINT('',(-0.000748787016152125,0.0360803837117941,0.0539777767674056));
#1031=CARTESIAN_POINT('',(-0.000748787016152125,0.0395492549326976,0.0561453680790685));
#1032=CARTESIAN_POINT('',(-0.000748787016152125,0.0343842875194812,0.0529179382389392));
#1033=CARTESIAN_POINT('',(0.00174878701615211,0.0360803837117942,0.0539777767674056));
#1034=CARTESIAN_POINT('',(0.00174878701615211,0.0395492549326976,0.0561453680790685));
#1035=CARTESIAN_POINT('',(0.00174878701615211,0.0343842875194812,0.0529179382389391));
#1036=CARTESIAN_POINT('',(0.0005,0.0361508058461244,0.0576392376238277));
#1037=CARTESIAN_POINT('',(0.0005,0.0346623195095923,0.0600213137041859));
#1038=CARTESIAN_POINT('',(0.003,0.0147687480495294,0.0918576830176701));
#1039=CARTESIAN_POINT('',(0.0005,0.0327586134614987,0.0555195605668949));
#1040=CARTESIAN_POINT('',(0.003,0.0113765556649037,0.0897380059607373));
#1041=CARTESIAN_POINT('',(0.0005,0.0361508058461244,0.0576392376238277));
#1042=CARTESIAN_POINT('',(0.003,0.00991195776840142,0.0996301722048701));
#1043=CARTESIAN_POINT('',(0.0005,0.00227188688853447,0.111856841438242));
#1044=CARTESIAN_POINT('',(0.0005,0.0327586134614987,0.0555195605668949));
#1045=CARTESIAN_POINT('',(0.003,0.0065197653837757,0.0975104951479373));
#1046=CARTESIAN_POINT('',(-0.002,-0.00112030549609123,0.109737164381309));
#1047=CARTESIAN_POINT('',(0.0005,0.00174196762430128,0.112704889534399));
#1048=CARTESIAN_POINT('',(0.003,-0.000802176664168014,0.111115131741699));
#1049=CARTESIAN_POINT('',(0.0005,0.000893919528144854,0.112174970270165));
#1050=CARTESIAN_POINT('',(0.003,0.0106442567166525,0.0946840890828037));
#1051=CARTESIAN_POINT('',(0.003,0.0106442567166525,0.0946840890828037));
#1052=CARTESIAN_POINT('',(0.003,0.0106442567166525,0.0946840890828037));
#1053=CARTESIAN_POINT('',(0.0005,0.00142383879237806,0.111326922174009));
#1054=CARTESIAN_POINT('',(0.0005,-0.000272257399934792,0.110267083645542));
#1055=CARTESIAN_POINT('',(-0.021,0.0389067887136874,0.0698515665458041));
#1056=CARTESIAN_POINT('',(-0.021,0.0364795332947588,0.0603048230107358));
#1057=CARTESIAN_POINT('',(-0.003,0.038894333196105,0.0698025772095238));
#1058=CARTESIAN_POINT('',(-0.0282420511381002,0.045320107891167,0.0585515723138648));
#1059=CARTESIAN_POINT('',(0.00371271886677089,0.0442603103258079,0.0543832365562449));
#1060=CARTESIAN_POINT('',(0.00371271886677089,0.0432911446367977,0.0546296465139282));
#1061=CARTESIAN_POINT('',(0.00371271886692455,0.0432911446370821,0.0546296465150471));
#1062=CARTESIAN_POINT('',(0.00390069466272149,0.0436391486658904,0.0559983962503633));
#1063=CARTESIAN_POINT('',(0.004,0.0439900235560928,0.0573784374951105));
#1064=CARTESIAN_POINT('',(0.004,0.0443411539339095,0.0587594836092714));
#1065=CARTESIAN_POINT('',(0.00371271886677089,0.0432911446367977,0.0546296465139282));
#1066=CARTESIAN_POINT('',(0.00371271886677089,0.0394144818807571,0.0556152863446614));
#1067=CARTESIAN_POINT('',(0.00362571478655033,0.0431300730052898,0.0539961286959063));
#1068=CARTESIAN_POINT('',(0.00362571478655033,0.0392534102492492,0.0549817685266394));
#1069=CARTESIAN_POINT('',(0.00312728841673479,0.0428309520684546,0.0528196431692224));
#1070=CARTESIAN_POINT('',(0.00312728841673479,0.038954289312414,0.0538052829999556));
#1071=CARTESIAN_POINT('',(0.00220898487775791,0.0427130514628338,0.0523559231850321));
#1072=CARTESIAN_POINT('',(0.00220898487775791,0.0388363887067932,0.0533415630157653));
#1073=CARTESIAN_POINT('',(0.00174878701615211,0.0427130514628338,0.0523559231850321));
#1074=CARTESIAN_POINT('',(0.00174878701615211,0.0388363887067932,0.0533415630157653));
#1075=CARTESIAN_POINT('',(0.00174878701615211,0.0436822171518439,0.0521095132273488));
#1076=CARTESIAN_POINT('',(0.00174878701615211,0.0427130514628338,0.0523559231850321));
#1077=CARTESIAN_POINT('',(0.00174878701615211,0.0427130514628338,0.0523559231850321));
#1078=CARTESIAN_POINT('',(0.00230999564811151,0.0427130514628338,0.0523559231850321));
#1079=CARTESIAN_POINT('',(0.00329267217881732,0.0428890687149969,0.0530482242717019));
#1080=CARTESIAN_POINT('',(0.00363929127569526,0.0431552073122231,0.0540949855283408));
#1081=CARTESIAN_POINT('',(0.0037127188667709,0.0432911446367977,0.0546296465139282));
#1082=CARTESIAN_POINT('',(0.0005,0.0436822171518439,0.0521095132273488));
#1083=CARTESIAN_POINT('',(-0.000748787016152125,0.0436822171518439,0.0521095132273488));
#1084=CARTESIAN_POINT('',(-0.000748787016152125,0.0427130514628338,0.0523559231850321));
#1085=CARTESIAN_POINT('',(0.00174878701615211,0.0427130514628338,0.0523559231850321));
#1086=CARTESIAN_POINT('',(-0.000748787016152125,0.0427130514628338,0.0523559231850321));
#1087=CARTESIAN_POINT('',(-0.000748787016152125,0.0388363887067932,0.0533415630157653));
#1088=CARTESIAN_POINT('',(-0.00120898487775793,0.0427130514628338,0.0523559231850321));
#1089=CARTESIAN_POINT('',(-0.00120898487775793,0.0388363887067932,0.0533415630157653));
#1090=CARTESIAN_POINT('',(-0.00212728841673482,0.0428309520684546,0.0528196431692223));
#1091=CARTESIAN_POINT('',(-0.00212728841673482,0.038954289312414,0.0538052829999556));
#1092=CARTESIAN_POINT('',(-0.00262571478655036,0.0431300730052898,0.0539961286959063));
#1093=CARTESIAN_POINT('',(-0.00262571478655036,0.0392534102492492,0.0549817685266395));
#1094=CARTESIAN_POINT('',(-0.00271271886677092,0.0432911446367977,0.0546296465139282));
#1095=CARTESIAN_POINT('',(-0.00271271886677092,0.0394144818807571,0.0556152863446614));
#1096=CARTESIAN_POINT('',(-0.00271271886677091,0.0442603103258079,0.0543832365562449));
#1097=CARTESIAN_POINT('',(-0.00271271886677091,0.0432911446367977,0.0546296465139282));
#1098=CARTESIAN_POINT('',(-0.00271271886677091,0.0432911446367977,0.0546296465139282));
#1099=CARTESIAN_POINT('',(-0.00263927468196701,0.0431551765920675,0.0540948647015647));
#1100=CARTESIAN_POINT('',(-0.00237237838261828,0.0429575045161036,0.0533173920884415));
#1101=CARTESIAN_POINT('',(-0.00157624751908195,0.0427569813210434,0.0525287056151747));
#1102=CARTESIAN_POINT('',(-0.00102947024735695,0.0427130514628338,0.0523559231850321));
#1103=CARTESIAN_POINT('',(-0.000748787016152126,0.0427130514628338,0.0523559231850321));
#1104=CARTESIAN_POINT('',(0.0292420511374243,0.0453201078911709,0.058551572313832));
#1105=CARTESIAN_POINT('',(-0.003,0.0443411539339095,0.0587594836092714));
#1106=CARTESIAN_POINT('',(-0.003,0.0439900892153854,0.0573786957469166));
#1107=CARTESIAN_POINT('',(-0.00290071965605132,0.0436391926109303,0.0559985690925051));
#1108=CARTESIAN_POINT('',(-0.00271271886677091,0.0432911446367977,0.0546296465139282));
#1109=CARTESIAN_POINT('',(-0.021,0.0453873370399086,0.0588159941938569));
#1110=CARTESIAN_POINT('',(-0.002,0.0470924851876808,0.065522586309846));
#1111=CARTESIAN_POINT('',(-0.002,0.0453103196229197,0.0585130736515881));
#1112=CARTESIAN_POINT('',(-0.002,0.0469257579330519,0.0648668241152968));
#1113=CARTESIAN_POINT('',(0.004,0.0469257579330519,0.0648668241152968));
#1114=CARTESIAN_POINT('',(0.003,0.0469257579330519,0.0648668241152968));
#1115=CARTESIAN_POINT('',(0.003,0.0453873370399086,0.0588159941938569));
#1116=CARTESIAN_POINT('',(0.003,0.0453103196229197,0.0585130736515881));
#1117=CARTESIAN_POINT('',(0.003,0.0453103196229197,0.0585130736515881));
#1118=CARTESIAN_POINT('',(0.003,0.0449700600314152,0.0571747838984336));
#1119=CARTESIAN_POINT('',(0.00290364430401431,0.0446300993531892,0.0558376698140561));
#1120=CARTESIAN_POINT('',(0.00272146072191055,0.0442928208400822,0.0545111050696078));
#1121=CARTESIAN_POINT('',(0.00272146072191055,0.0442928208400822,0.0545111050696078));
#1122=CARTESIAN_POINT('',(0.00272146072191055,0.0442928208400822,0.0545111050696078));
#1123=CARTESIAN_POINT('',(0.00267984916427035,0.0442157848957713,0.0542081116567255));
#1124=CARTESIAN_POINT('',(0.00254817080113989,0.0441022781624666,0.0537616734022622));
#1125=CARTESIAN_POINT('',(0.00218901571332455,0.0439749650450018,0.0532609326596075));
#1126=CARTESIAN_POINT('',(0.00190916303565023,0.0439286271095272,0.053078678916359));
#1127=CARTESIAN_POINT('',(0.00174878701615211,0.0439286271095272,0.053078678916359));
#1128=CARTESIAN_POINT('',(0.00174878701615211,0.0439286271095272,0.053078678916359));
#1129=CARTESIAN_POINT('',(-0.000748787016152126,0.0439286271095272,0.053078678916359));
#1130=CARTESIAN_POINT('',(-0.000748787016152125,0.0439286271095272,0.053078678916359));
#1131=CARTESIAN_POINT('',(-0.000748787016152125,0.0439286271095272,0.053078678916359));
#1132=CARTESIAN_POINT('',(-0.000908660324343505,0.0439286271095272,0.053078678916359));
#1133=CARTESIAN_POINT('',(-0.0011885326016804,0.043974747185628,0.0532600757874578));
#1134=CARTESIAN_POINT('',(-0.00154945673643652,0.0441028603979989,0.0537639634180802));
#1135=CARTESIAN_POINT('',(-0.00167985309096336,0.0442157921653087,0.0542081402488582));
#1136=CARTESIAN_POINT('',(-0.00172146072190609,0.0442928208400739,0.0545111050695752));
#1137=CARTESIAN_POINT('',(-0.00172146072190609,0.0442928208400739,0.0545111050695752));
#1138=CARTESIAN_POINT('',(-0.00172146072190609,0.0442928208400739,0.0545111050695752));
#1139=CARTESIAN_POINT('',(-0.00190364100043166,0.0446300932372295,0.0558376457591099));
#1140=CARTESIAN_POINT('',(-0.002,0.0449700649624258,0.0571748032928054));
#1141=CARTESIAN_POINT('',(-0.002,0.0453103196229197,0.0585130736515881));
#1142=CARTESIAN_POINT('',(-0.003,0.0433486823456106,0.0682524748709291));
#1143=CARTESIAN_POINT('',(-0.002,0.0433486823456106,0.0682524748709291));
#1144=CARTESIAN_POINT('',(-0.002,0.0465457689558768,0.0659212382822707));
#1145=CARTESIAN_POINT('',(-0.002,0.0404526755969501,0.0703641714611311));
#1146=CARTESIAN_POINT('',(0.004,0.0404526755969501,0.0703641714611311));
#1147=CARTESIAN_POINT('',(0.003,0.0404526755969501,0.0703641714611311));
#1148=CARTESIAN_POINT('',(0.003,0.0470924851876808,0.065522586309846));
#1149=CARTESIAN_POINT('',(0.003,0.0465457689558768,0.0659212382822707));
#1150=CARTESIAN_POINT('',(-0.003,0.0465457689558768,0.0659212382822707));
#1151=CARTESIAN_POINT('',(-0.021,0.0355103676057488,0.0605512329684191));
#1152=CARTESIAN_POINT('',(-0.021,0.0429594614205171,0.0533250888740423));
#1153=CARTESIAN_POINT('',(0.00174878701615211,0.0429594614205171,0.0533250888740423));
#1154=CARTESIAN_POINT('',(-0.000748787016152125,0.0429594614205171,0.0533250888740423));
#1155=CARTESIAN_POINT('',(-0.00172146072191056,0.0442928208400822,0.0545111050696078));
#1156=CARTESIAN_POINT('',(-0.00271271886677089,0.0442603103258079,0.0543832365562449));
#1157=CARTESIAN_POINT('',(-0.00271271886677092,0.0432911446367977,0.0546296465139282));
#1158=CARTESIAN_POINT('',(-0.00170063534328404,0.0442542665822363,0.0543594656463444));
#1159=CARTESIAN_POINT('',(-0.00268510592241472,0.0442091901670937,0.0541821736440519));
#1160=CARTESIAN_POINT('',(-0.00268510592015313,0.0432400244783939,0.0544285836023261));
#1161=CARTESIAN_POINT('',(-0.00163576464924381,0.0441790511184443,0.0540636324443278));
#1162=CARTESIAN_POINT('',(-0.00259870877419323,0.0441083992915326,0.0537857486801011));
#1163=CARTESIAN_POINT('',(-0.0025987087752698,0.0431392336029179,0.0540321586396409));
#1164=CARTESIAN_POINT('',(-0.00149096670522008,0.0440895581617058,0.053711643815725));
#1165=CARTESIAN_POINT('',(-0.00239648052343982,0.0439821424570901,0.0532891624503507));
#1166=CARTESIAN_POINT('',(-0.00239648052330624,0.0430129767666048,0.05353557240219));
#1167=CARTESIAN_POINT('',(-0.00132388232764915,0.0440228567680537,0.0534492976721493));
#1168=CARTESIAN_POINT('',(-0.00214091968005565,0.0438790157831796,0.0528835504575162));
#1169=CARTESIAN_POINT('',(-0.00214091968008077,0.0429098500967457,0.0531299604253475));
#1170=CARTESIAN_POINT('',(-0.00117025519268165,0.0439780958828364,0.0532732466936493));
#1171=CARTESIAN_POINT('',(-0.00187558758392453,0.0438019067870878,0.0525802697215564));
#1172=CARTESIAN_POINT('',(-0.00187558758391797,0.042832741088235,0.052826679640494));
#1173=CARTESIAN_POINT('',(-0.000982996690715731,0.043941530897061,0.053129431362622));
#1174=CARTESIAN_POINT('',(-0.00151281467138528,0.0437266691716364,0.0522843493937341));
#1175=CARTESIAN_POINT('',(-0.00151281467138642,0.0427575035194206,0.0525307594962526));
#1176=CARTESIAN_POINT('',(-0.000828952378302121,0.0439286271304173,0.0530786789985228));
#1177=CARTESIAN_POINT('',(-0.00103845913790025,0.0436822172311344,0.0521095135394673));
#1178=CARTESIAN_POINT('',(-0.00103845913790197,0.0427130514628326,0.0523559231850325));
#1179=CARTESIAN_POINT('',(-0.000748787016152126,0.0439286271095272,0.053078678916359));
#1180=CARTESIAN_POINT('',(-0.000748787016152127,0.0436822171518439,0.0521095132273489));
#1181=CARTESIAN_POINT('',(-0.000748787016152128,0.0427130514628338,0.0523559231850322));
#1182=CARTESIAN_POINT('',(-0.00172146072190609,0.0433236551510637,0.0547575150272585));
#1183=CARTESIAN_POINT('',(0.00174878701615211,0.0439286271095272,0.053078678916359));
#1184=CARTESIAN_POINT('',(0.00174878701615211,0.0436822171518439,0.0521095132273489));
#1185=CARTESIAN_POINT('',(0.00174878701615211,0.0427130514628338,0.0523559231850322));
#1186=CARTESIAN_POINT('',(0.00182897500591039,0.043928627135403,0.0530786790181321));
#1187=CARTESIAN_POINT('',(0.0020385409000604,0.0436822172491517,0.0521095136103288));
#1188=CARTESIAN_POINT('',(0.00203854090006433,0.0427130514628326,0.0523559231850325));
#1189=CARTESIAN_POINT('',(0.00198206480437839,0.0439414172297346,0.0531289842927316));
#1190=CARTESIAN_POINT('',(0.00251039818156212,0.0437263735916249,0.0522831868351756));
#1191=CARTESIAN_POINT('',(0.00251039818156409,0.0427572079477698,0.0525295969705767));
#1192=CARTESIAN_POINT('',(0.00216985827869039,0.0439780069545782,0.0532728969260611));
#1193=CARTESIAN_POINT('',(0.00287491739478652,0.043801731943473,0.0525795820365523));
#1194=CARTESIAN_POINT('',(0.00287491739477372,0.0428325662423832,0.0528259919466931));
#1195=CARTESIAN_POINT('',(0.00232218366015708,0.04402232315685,0.0534471989027868));
#1196=CARTESIAN_POINT('',(0.00313808586409774,0.0438781249168667,0.0528800465525969));
#1197=CARTESIAN_POINT('',(0.00313808586414697,0.0429089592310197,0.0531264565227324));
#1198=CARTESIAN_POINT('',(0.00248894910632132,0.0440885723769612,0.0537077665830018));
#1199=CARTESIAN_POINT('',(0.00339359726764331,0.0439806970426425,0.0532834774280922));
#1200=CARTESIAN_POINT('',(0.00339359726738145,0.0430115313518142,0.0535298873786031));
#1201=CARTESIAN_POINT('',(0.00263479025889522,0.0441780175616153,0.0540595673171479));
#1202=CARTESIAN_POINT('',(0.00359740845756458,0.0441070111679057,0.0537802889910397));
#1203=CARTESIAN_POINT('',(0.0035974084596751,0.0431378454794437,0.0540266989510129));
#1204=CARTESIAN_POINT('',(0.00270065494489587,0.0442543028678324,0.0543596083627955));
#1205=CARTESIAN_POINT('',(0.00368513191277295,0.0442092382793756,0.0541823628762062));
#1206=CARTESIAN_POINT('',(0.0036851319083393,0.043240072590614,0.0544287728345895));
#1207=CARTESIAN_POINT('',(0.00272146072191055,0.0442928208400822,0.0545111050696078));
#1208=CARTESIAN_POINT('',(0.00371271886677088,0.0442603103258079,0.0543832365562449));
#1209=CARTESIAN_POINT('',(0.0037127188667709,0.0432911446367977,0.0546296465139282));
#1210=CARTESIAN_POINT('',(0.00272146072191055,0.043323655151072,0.0547575150272911));
#1211=CARTESIAN_POINT('',(-0.002,0.0453103196229196,0.0585130736515881));
#1212=CARTESIAN_POINT('',(-0.00299999999999994,0.0453103196229196,0.0585130736515881));
#1213=CARTESIAN_POINT('',(-0.003,0.0443411539339096,0.0587594836092714));
#1214=CARTESIAN_POINT('',(-0.00199999999974789,0.0449700649624268,0.0571748032928096));
#1215=CARTESIAN_POINT('',(-0.00299999999966838,0.0449586862240799,0.0571300490900164));
#1216=CARTESIAN_POINT('',(-0.00300000000000001,0.0439895205374857,0.0573764590509912));
#1217=CARTESIAN_POINT('',(-0.00190364100095235,0.0446300932372133,0.0558376457590459));
#1218=CARTESIAN_POINT('',(-0.00290036649906552,0.0446077044959567,0.0557495876284899));
#1219=CARTESIAN_POINT('',(-0.00290036649848719,0.0436385388063106,0.0559959975854247));
#1220=CARTESIAN_POINT('',(-0.00172146072190148,0.0442928208400654,0.0545111050695416));
#1221=CARTESIAN_POINT('',(-0.00271271886676631,0.0442603103257993,0.0543832365562113));
#1222=CARTESIAN_POINT('',(-0.00271271886676631,0.0432911446367892,0.0546296465138946));
#1223=CARTESIAN_POINT('',(-0.002,0.0443411539339095,0.0587594836092714));
#1224=CARTESIAN_POINT('',(0.00272146072190607,0.0442928208400739,0.0545111050695752));
#1225=CARTESIAN_POINT('',(0.00371271886677092,0.0442603103258078,0.054383236556245));
#1226=CARTESIAN_POINT('',(0.0037127188667709,0.0432911446367977,0.0546296465139283));
#1227=CARTESIAN_POINT('',(0.00290364430454151,0.0446300993531652,0.0558376698139617));
#1228=CARTESIAN_POINT('',(0.00390036990209533,0.0446077107962259,0.0557496124074549));
#1229=CARTESIAN_POINT('',(0.00390036990148866,0.0436385451064469,0.0559960223642556));
#1230=CARTESIAN_POINT('',(0.00299999999972932,0.0449700600314178,0.0571747838984442));
#1231=CARTESIAN_POINT('',(0.00399999999962265,0.0449586811287296,0.0571300290478675));
#1232=CARTESIAN_POINT('',(0.00400000000000001,0.0439895154415347,0.0573764390080409));
#1233=CARTESIAN_POINT('',(0.003,0.0453103196229196,0.0585130736515881));
#1234=CARTESIAN_POINT('',(0.00399999999999994,0.0453103196229196,0.0585130736515881));
#1235=CARTESIAN_POINT('',(0.004,0.0443411539339096,0.0587594836092714));
#1236=CARTESIAN_POINT('',(0.003,0.0443411539339095,0.0587594836092714));
#1237=CARTESIAN_POINT('',(-0.002,0.0444181713508985,0.0590624041515402));
#1238=CARTESIAN_POINT('',(-0.002,0.0459565922440418,0.0651132340729801));
#1239=CARTESIAN_POINT('',(-0.021,0.0459565922440418,0.0651132340729801));
#1240=CARTESIAN_POINT('',(0.003,0.0459565922440418,0.0651132340729801));
#1241=CARTESIAN_POINT('',(-0.002,0.0459565922440418,0.0651132340729801));
#1242=CARTESIAN_POINT('',(0.003,0.0469704895164286,0.0691010373980439));
#1243=CARTESIAN_POINT('',(0.003,0.0459565922440418,0.0651132340729801));
#1244=CARTESIAN_POINT('',(-0.002,0.0459565922440418,0.0651132340729801));
#1245=CARTESIAN_POINT('',(-0.002,0.0459565922440418,0.0651132340729801));
#1246=CARTESIAN_POINT('',(0.003,0.0459565922440418,0.0651132340729801));
#1247=CARTESIAN_POINT('',(0.003,0.0459565922440418,0.0651132340729801));
#1248=CARTESIAN_POINT('',(-0.002,0.0281753273140612,0.0780788932654128));
#1249=CARTESIAN_POINT('',(-0.002,0.0398634988851152,0.0695561672518405));
#1250=CARTESIAN_POINT('',(0.003,0.0427595056337756,0.0674444706616386));
#1251=CARTESIAN_POINT('',(0.003,0.0398634988851152,0.0695561672518405));
#1252=CARTESIAN_POINT('',(-0.003,0.0398634988851152,0.0695561672518405));
#1253=MECHANICAL_DESIGN_GEOMETRIC_PRESENTATION_REPRESENTATION('',(#659),
#1254);
#1254=(
GEOMETRIC_REPRESENTATION_CONTEXT(3)
GLOBAL_UNCERTAINTY_ASSIGNED_CONTEXT((#1255))
GLOBAL_UNIT_ASSIGNED_CONTEXT((#1258,#1257,#1256))
REPRESENTATION_CONTEXT('Coin Push Lever','TOP_LEVEL_ASSEMBLY_PART')
);
#1255=UNCERTAINTY_MEASURE_WITH_UNIT(LENGTH_MEASURE(2.E-5),#1258,
'DISTANCE_ACCURACY_VALUE','Maximum Tolerance applied to model');
#1256=(
NAMED_UNIT(*)
SI_UNIT($,.STERADIAN.)
SOLID_ANGLE_UNIT()
);
#1257=(
NAMED_UNIT(*)
PLANE_ANGLE_UNIT()
SI_UNIT($,.RADIAN.)
);
#1258=(
LENGTH_UNIT()
NAMED_UNIT(*)
SI_UNIT($,.METRE.)
);
#1259=PRODUCT_DEFINITION_SHAPE('','',#1260);
#1260=PRODUCT_DEFINITION('','',#1262,#1261);
#1261=PRODUCT_DEFINITION_CONTEXT('',#1268,'design');
#1262=PRODUCT_DEFINITION_FORMATION_WITH_SPECIFIED_SOURCE('','',#1264,
 .NOT_KNOWN.);
#1263=PRODUCT_RELATED_PRODUCT_CATEGORY('','',(#1264));
#1264=PRODUCT('Coin Push Lever','Coin Push Lever','Coin Push Lever',(#1266));
#1265=PRODUCT_CATEGORY('','');
#1266=PRODUCT_CONTEXT('',#1268,'mechanical');
#1267=APPLICATION_PROTOCOL_DEFINITION('international standard',
'ap242_managed_model_based_3d_engineering',2020,#1268);
#1268=APPLICATION_CONTEXT('managed model based 3d engineering');
ENDSEC;
END-ISO-10303-21;
