ISO-10303-21;
HEADER;
/* Generated by software containing ST-Developer
 * from STEP Tools, Inc. (www.steptools.com) 
 */
/* OPTION: using custom renumber hook */

FILE_DESCRIPTION(
/* description */ ('STEP AP242 Edition 2',
'CAx-IF Rec.Pracs.---Representation and Presentation of Product Manufa
cturing Information (PMI)---4.0---2014-10-13',
'CAx-IF Rec.Pracs.---3D Tessellated Geometry---0.4---2014-09-14','2;1',
'CAx-IF Rec.Pracs.---User Defined Attributes---1.5---2016-08-15'),
/* implementation_level */ '2;1');

FILE_NAME(
/* name */ 'Assembly 1 - Left Wall',
/* time_stamp */ '2026-07-14T16:54:42Z',
/* author */ (''),
/* organization */ (''),
/* preprocessor_version */ 'ST-DEVELOPER v20',
/* originating_system */ 'ONSHAPE BY PTC INC, 1.217',
/* authorisation */ '  ');

FILE_SCHEMA (('AP242_MANAGED_MODEL_BASED_3D_ENGINEERING_MIM_LF { 1 0 10303 442 3 1 4 }'));
ENDSEC;

DATA;
#10=SHAPE_REPRESENTATION_RELATIONSHIP('','',#175,#11);
#11=ADVANCED_BREP_SHAPE_REPRESENTATION('',(#173),#279);
#12=CIRCLE('',#181,0.0025);
#13=CIRCLE('',#182,0.0025);
#14=CIRCLE('',#184,0.0025);
#15=CIRCLE('',#185,0.0025);
#16=CIRCLE('',#188,0.0025);
#17=CIRCLE('',#189,0.0025);
#18=CYLINDRICAL_SURFACE('',#180,0.0025);
#19=CYLINDRICAL_SURFACE('',#183,0.0025);
#20=CYLINDRICAL_SURFACE('',#187,0.0025);
#21=ORIENTED_EDGE('',*,*,#57,.F.);
#22=ORIENTED_EDGE('',*,*,#58,.F.);
#23=ORIENTED_EDGE('',*,*,#59,.T.);
#24=ORIENTED_EDGE('',*,*,#60,.T.);
#25=ORIENTED_EDGE('',*,*,#61,.T.);
#26=ORIENTED_EDGE('',*,*,#62,.F.);
#27=ORIENTED_EDGE('',*,*,#63,.F.);
#28=ORIENTED_EDGE('',*,*,#58,.T.);
#29=ORIENTED_EDGE('',*,*,#64,.T.);
#30=ORIENTED_EDGE('',*,*,#65,.F.);
#31=ORIENTED_EDGE('',*,*,#66,.F.);
#32=ORIENTED_EDGE('',*,*,#62,.T.);
#33=ORIENTED_EDGE('',*,*,#67,.T.);
#34=ORIENTED_EDGE('',*,*,#68,.F.);
#35=ORIENTED_EDGE('',*,*,#69,.T.);
#36=ORIENTED_EDGE('',*,*,#70,.F.);
#37=ORIENTED_EDGE('',*,*,#71,.F.);
#38=ORIENTED_EDGE('',*,*,#60,.F.);
#39=ORIENTED_EDGE('',*,*,#72,.T.);
#40=ORIENTED_EDGE('',*,*,#65,.T.);
#41=ORIENTED_EDGE('',*,*,#73,.T.);
#42=ORIENTED_EDGE('',*,*,#74,.F.);
#43=ORIENTED_EDGE('',*,*,#59,.F.);
#44=ORIENTED_EDGE('',*,*,#63,.T.);
#45=ORIENTED_EDGE('',*,*,#66,.T.);
#46=ORIENTED_EDGE('',*,*,#72,.F.);
#47=ORIENTED_EDGE('',*,*,#69,.F.);
#48=ORIENTED_EDGE('',*,*,#67,.F.);
#49=ORIENTED_EDGE('',*,*,#73,.F.);
#50=ORIENTED_EDGE('',*,*,#57,.T.);
#51=ORIENTED_EDGE('',*,*,#71,.T.);
#52=ORIENTED_EDGE('',*,*,#64,.F.);
#53=ORIENTED_EDGE('',*,*,#61,.F.);
#54=ORIENTED_EDGE('',*,*,#70,.T.);
#55=ORIENTED_EDGE('',*,*,#68,.T.);
#56=ORIENTED_EDGE('',*,*,#74,.T.);
#57=EDGE_CURVE('',#75,#76,#89,.T.);
#58=EDGE_CURVE('',#77,#75,#90,.T.);
#59=EDGE_CURVE('',#77,#78,#91,.T.);
#60=EDGE_CURVE('',#78,#76,#92,.T.);
#61=EDGE_CURVE('',#75,#79,#93,.T.);
#62=EDGE_CURVE('',#80,#79,#94,.T.);
#63=EDGE_CURVE('',#77,#80,#95,.T.);
#64=EDGE_CURVE('',#79,#81,#96,.T.);
#65=EDGE_CURVE('',#82,#81,#97,.T.);
#66=EDGE_CURVE('',#80,#82,#98,.T.);
#67=EDGE_CURVE('',#83,#83,#12,.T.);
#68=EDGE_CURVE('',#84,#84,#13,.T.);
#69=EDGE_CURVE('',#85,#85,#14,.T.);
#70=EDGE_CURVE('',#86,#86,#15,.T.);
#71=EDGE_CURVE('',#76,#81,#99,.T.);
#72=EDGE_CURVE('',#78,#82,#100,.T.);
#73=EDGE_CURVE('',#87,#87,#16,.T.);
#74=EDGE_CURVE('',#88,#88,#17,.T.);
#75=VERTEX_POINT('',#239);
#76=VERTEX_POINT('',#240);
#77=VERTEX_POINT('',#242);
#78=VERTEX_POINT('',#244);
#79=VERTEX_POINT('',#248);
#80=VERTEX_POINT('',#250);
#81=VERTEX_POINT('',#254);
#82=VERTEX_POINT('',#256);
#83=VERTEX_POINT('',#260);
#84=VERTEX_POINT('',#262);
#85=VERTEX_POINT('',#265);
#86=VERTEX_POINT('',#267);
#87=VERTEX_POINT('',#273);
#88=VERTEX_POINT('',#275);
#89=LINE('',#238,#101);
#90=LINE('',#241,#102);
#91=LINE('',#243,#103);
#92=LINE('',#245,#104);
#93=LINE('',#247,#105);
#94=LINE('',#249,#106);
#95=LINE('',#251,#107);
#96=LINE('',#253,#108);
#97=LINE('',#255,#109);
#98=LINE('',#257,#110);
#99=LINE('',#269,#111);
#100=LINE('',#270,#112);
#101=VECTOR('',#196,1.);
#102=VECTOR('',#197,1.);
#103=VECTOR('',#198,1.);
#104=VECTOR('',#199,1.);
#105=VECTOR('',#202,1.);
#106=VECTOR('',#203,1.);
#107=VECTOR('',#204,1.);
#108=VECTOR('',#207,1.);
#109=VECTOR('',#208,1.);
#110=VECTOR('',#209,1.);
#111=VECTOR('',#224,1.);
#112=VECTOR('',#225,1.);
#113=EDGE_LOOP('',(#21,#22,#23,#24));
#114=EDGE_LOOP('',(#25,#26,#27,#28));
#115=EDGE_LOOP('',(#29,#30,#31,#32));
#116=EDGE_LOOP('',(#33));
#117=EDGE_LOOP('',(#34));
#118=EDGE_LOOP('',(#35));
#119=EDGE_LOOP('',(#36));
#120=EDGE_LOOP('',(#37,#38,#39,#40));
#121=EDGE_LOOP('',(#41));
#122=EDGE_LOOP('',(#42));
#123=EDGE_LOOP('',(#43,#44,#45,#46));
#124=EDGE_LOOP('',(#47));
#125=EDGE_LOOP('',(#48));
#126=EDGE_LOOP('',(#49));
#127=EDGE_LOOP('',(#50,#51,#52,#53));
#128=EDGE_LOOP('',(#54));
#129=EDGE_LOOP('',(#55));
#130=EDGE_LOOP('',(#56));
#131=FACE_BOUND('',#113,.T.);
#132=FACE_BOUND('',#114,.T.);
#133=FACE_BOUND('',#115,.T.);
#134=FACE_BOUND('',#116,.T.);
#135=FACE_BOUND('',#117,.T.);
#136=FACE_BOUND('',#118,.T.);
#137=FACE_BOUND('',#119,.T.);
#138=FACE_BOUND('',#120,.T.);
#139=FACE_BOUND('',#121,.T.);
#140=FACE_BOUND('',#122,.T.);
#141=FACE_BOUND('',#123,.T.);
#142=FACE_BOUND('',#124,.T.);
#143=FACE_BOUND('',#125,.T.);
#144=FACE_BOUND('',#126,.T.);
#145=FACE_BOUND('',#127,.T.);
#146=FACE_BOUND('',#128,.T.);
#147=FACE_BOUND('',#129,.T.);
#148=FACE_BOUND('',#130,.T.);
#149=PLANE('',#177);
#150=PLANE('',#178);
#151=PLANE('',#179);
#152=PLANE('',#186);
#153=PLANE('',#190);
#154=PLANE('',#191);
#155=ADVANCED_FACE('',(#131),#149,.T.);
#156=ADVANCED_FACE('',(#132),#150,.F.);
#157=ADVANCED_FACE('',(#133),#151,.F.);
#158=ADVANCED_FACE('',(#134,#135),#18,.F.);
#159=ADVANCED_FACE('',(#136,#137),#19,.F.);
#160=ADVANCED_FACE('',(#138),#152,.T.);
#161=ADVANCED_FACE('',(#139,#140),#20,.F.);
#162=ADVANCED_FACE('',(#141,#142,#143,#144),#153,.T.);
#163=ADVANCED_FACE('',(#145,#146,#147,#148),#154,.F.);
#164=CLOSED_SHELL('',(#155,#156,#157,#158,#159,#160,#161,#162,#163));
#165=STYLED_ITEM('',(#166),#173);
#166=PRESENTATION_STYLE_ASSIGNMENT((#167));
#167=SURFACE_STYLE_USAGE(.BOTH.,#168);
#168=SURFACE_SIDE_STYLE('',(#169));
#169=SURFACE_STYLE_FILL_AREA(#170);
#170=FILL_AREA_STYLE('',(#171));
#171=FILL_AREA_STYLE_COLOUR('',#172);
#172=COLOUR_RGB('',0.8,0.776470588235294,0.713725490196078);
#173=MANIFOLD_SOLID_BREP('Left Wall',#164);
#174=SHAPE_DEFINITION_REPRESENTATION(#284,#175);
#175=SHAPE_REPRESENTATION('Left Wall',(#176),#279);
#176=AXIS2_PLACEMENT_3D('',#236,#192,#193);
#177=AXIS2_PLACEMENT_3D('',#237,#194,#195);
#178=AXIS2_PLACEMENT_3D('',#246,#200,#201);
#179=AXIS2_PLACEMENT_3D('',#252,#205,#206);
#180=AXIS2_PLACEMENT_3D('',#258,#210,#211);
#181=AXIS2_PLACEMENT_3D('',#259,#212,#213);
#182=AXIS2_PLACEMENT_3D('',#261,#214,#215);
#183=AXIS2_PLACEMENT_3D('',#263,#216,#217);
#184=AXIS2_PLACEMENT_3D('',#264,#218,#219);
#185=AXIS2_PLACEMENT_3D('',#266,#220,#221);
#186=AXIS2_PLACEMENT_3D('',#268,#222,#223);
#187=AXIS2_PLACEMENT_3D('',#271,#226,#227);
#188=AXIS2_PLACEMENT_3D('',#272,#228,#229);
#189=AXIS2_PLACEMENT_3D('',#274,#230,#231);
#190=AXIS2_PLACEMENT_3D('',#276,#232,#233);
#191=AXIS2_PLACEMENT_3D('',#277,#234,#235);
#192=DIRECTION('',(0.,0.,1.));
#193=DIRECTION('',(1.,0.,0.));
#194=DIRECTION('',(0.,0.,1.));
#195=DIRECTION('',(1.,0.,0.));
#196=DIRECTION('',(0.,1.,0.));
#197=DIRECTION('',(-1.,0.,0.));
#198=DIRECTION('',(0.,1.,0.));
#199=DIRECTION('',(-1.,0.,0.));
#200=DIRECTION('',(0.,1.,0.));
#201=DIRECTION('',(0.,0.,1.));
#202=DIRECTION('',(0.,0.,-1.));
#203=DIRECTION('',(-1.,0.,0.));
#204=DIRECTION('',(0.,0.,-1.));
#205=DIRECTION('',(0.,0.,1.));
#206=DIRECTION('',(1.,0.,0.));
#207=DIRECTION('',(0.,1.,0.));
#208=DIRECTION('',(-1.,0.,0.));
#209=DIRECTION('',(0.,1.,0.));
#210=DIRECTION('',(-1.,0.,0.));
#211=DIRECTION('',(0.,0.,1.));
#212=DIRECTION('',(1.,0.,0.));
#213=DIRECTION('',(0.,0.,-1.));
#214=DIRECTION('',(1.,0.,0.));
#215=DIRECTION('',(0.,0.,-1.));
#216=DIRECTION('',(-1.,0.,0.));
#217=DIRECTION('',(0.,0.,1.));
#218=DIRECTION('',(1.,0.,0.));
#219=DIRECTION('',(0.,0.,-1.));
#220=DIRECTION('',(1.,0.,0.));
#221=DIRECTION('',(0.,0.,-1.));
#222=DIRECTION('',(0.,1.,0.));
#223=DIRECTION('',(0.,0.,1.));
#224=DIRECTION('',(0.,0.,-1.));
#225=DIRECTION('',(0.,0.,-1.));
#226=DIRECTION('',(-1.,0.,0.));
#227=DIRECTION('',(0.,0.,1.));
#228=DIRECTION('',(1.,0.,0.));
#229=DIRECTION('',(0.,0.,-1.));
#230=DIRECTION('',(1.,0.,0.));
#231=DIRECTION('',(0.,0.,-1.));
#232=DIRECTION('',(1.,0.,0.));
#233=DIRECTION('',(0.,1.,0.));
#234=DIRECTION('',(1.,0.,0.));
#235=DIRECTION('',(0.,1.,0.));
#236=CARTESIAN_POINT('',(0.,0.,0.));
#237=CARTESIAN_POINT('',(0.0940000009377098,0.0341000231355429,0.122763642251492));
#238=CARTESIAN_POINT('',(0.0900000009377098,0.0341000231355429,0.122763642251492));
#239=CARTESIAN_POINT('',(0.0900000009377098,-0.0133999768644571,0.122763642251492));
#240=CARTESIAN_POINT('',(0.0900000009377098,0.0816000231355429,0.122763642251492));
#241=CARTESIAN_POINT('',(0.0940000009377098,-0.0133999768644571,0.122763642251492));
#242=CARTESIAN_POINT('',(0.0940000009377098,-0.0133999768644571,0.122763642251492));
#243=CARTESIAN_POINT('',(0.0940000009377098,0.0341000231355429,0.122763642251492));
#244=CARTESIAN_POINT('',(0.0940000009377098,0.0816000231355429,0.122763642251492));
#245=CARTESIAN_POINT('',(0.0940000009377098,0.0816000231355429,0.122763642251492));
#246=CARTESIAN_POINT('',(0.0940000009377098,-0.0133999768644571,0.0327636422514915));
#247=CARTESIAN_POINT('',(0.0900000009377098,-0.0133999768644571,0.0327636422514915));
#248=CARTESIAN_POINT('',(0.0900000009377098,-0.0133999768644571,-0.0572363577485084));
#249=CARTESIAN_POINT('',(0.0940000009377098,-0.0133999768644571,-0.0572363577485084));
#250=CARTESIAN_POINT('',(0.0940000009377098,-0.0133999768644571,-0.0572363577485084));
#251=CARTESIAN_POINT('',(0.0940000009377098,-0.0133999768644571,0.0327636422514915));
#252=CARTESIAN_POINT('',(0.0940000009377098,0.0341000231355429,-0.0572363577485084));
#253=CARTESIAN_POINT('',(0.0900000009377098,0.0341000231355429,-0.0572363577485084));
#254=CARTESIAN_POINT('',(0.0900000009377098,0.0816000231355429,-0.0572363577485084));
#255=CARTESIAN_POINT('',(0.0940000009377098,0.0816000231355429,-0.0572363577485084));
#256=CARTESIAN_POINT('',(0.0940000009377098,0.0816000231355429,-0.0572363577485084));
#257=CARTESIAN_POINT('',(0.0940000009377098,0.0341000231355429,-0.0572363577485084));
#258=CARTESIAN_POINT('',(0.0940000009377098,0.0361000231355429,0.116763642251492));
#259=CARTESIAN_POINT('',(0.0940000009377098,0.0361000231355429,0.116763642251492));
#260=CARTESIAN_POINT('',(0.0940000009377098,0.0361000231355429,0.114263642251492));
#261=CARTESIAN_POINT('',(0.0900000009377098,0.0361000231355429,0.116763642251492));
#262=CARTESIAN_POINT('',(0.0900000009377098,0.0361000231355429,0.114263642251492));
#263=CARTESIAN_POINT('',(0.0940000009377098,0.0361000231355429,-0.0512363577485085));
#264=CARTESIAN_POINT('',(0.0940000009377098,0.0361000231355429,-0.0512363577485085));
#265=CARTESIAN_POINT('',(0.0940000009377098,0.0361000231355429,-0.0537363577485085));
#266=CARTESIAN_POINT('',(0.0900000009377098,0.0361000231355429,-0.0512363577485085));
#267=CARTESIAN_POINT('',(0.0900000009377098,0.0361000231355429,-0.0537363577485085));
#268=CARTESIAN_POINT('',(0.0940000009377098,0.0816000231355429,0.0327636422514915));
#269=CARTESIAN_POINT('',(0.0900000009377098,0.0816000231355429,0.0327636422514915));
#270=CARTESIAN_POINT('',(0.0940000009377098,0.0816000231355429,0.0327636422514915));
#271=CARTESIAN_POINT('',(0.0940000009377098,0.0361000231355429,0.0327636422514915));
#272=CARTESIAN_POINT('',(0.0940000009377098,0.0361000231355429,0.0327636422514915));
#273=CARTESIAN_POINT('',(0.0940000009377098,0.0361000231355429,0.0302636422514915));
#274=CARTESIAN_POINT('',(0.0900000009377098,0.0361000231355429,0.0327636422514915));
#275=CARTESIAN_POINT('',(0.0900000009377098,0.0361000231355429,0.0302636422514915));
#276=CARTESIAN_POINT('',(0.0940000009377098,0.0341000231355429,0.0327636422514915));
#277=CARTESIAN_POINT('',(0.0900000009377098,0.0341000231355429,0.0327636422514915));
#278=MECHANICAL_DESIGN_GEOMETRIC_PRESENTATION_REPRESENTATION('',(#165),
#279);
#279=(
GEOMETRIC_REPRESENTATION_CONTEXT(3)
GLOBAL_UNCERTAINTY_ASSIGNED_CONTEXT((#280))
GLOBAL_UNIT_ASSIGNED_CONTEXT((#283,#282,#281))
REPRESENTATION_CONTEXT('Left Wall','TOP_LEVEL_ASSEMBLY_PART')
);
#280=UNCERTAINTY_MEASURE_WITH_UNIT(LENGTH_MEASURE(1.E-8),#283,
'DISTANCE_ACCURACY_VALUE','Maximum Tolerance applied to model');
#281=(
NAMED_UNIT(*)
SI_UNIT($,.STERADIAN.)
SOLID_ANGLE_UNIT()
);
#282=(
NAMED_UNIT(*)
PLANE_ANGLE_UNIT()
SI_UNIT($,.RADIAN.)
);
#283=(
LENGTH_UNIT()
NAMED_UNIT(*)
SI_UNIT($,.METRE.)
);
#284=PRODUCT_DEFINITION_SHAPE('','',#285);
#285=PRODUCT_DEFINITION('','',#287,#286);
#286=PRODUCT_DEFINITION_CONTEXT('',#293,'design');
#287=PRODUCT_DEFINITION_FORMATION_WITH_SPECIFIED_SOURCE('','',#289,
 .NOT_KNOWN.);
#288=PRODUCT_RELATED_PRODUCT_CATEGORY('','',(#289));
#289=PRODUCT('Left Wall','Left Wall','Left Wall',(#291));
#290=PRODUCT_CATEGORY('','');
#291=PRODUCT_CONTEXT('',#293,'mechanical');
#292=APPLICATION_PROTOCOL_DEFINITION('international standard',
'ap242_managed_model_based_3d_engineering',2020,#293);
#293=APPLICATION_CONTEXT('managed model based 3d engineering');
ENDSEC;
END-ISO-10303-21;
