ISO-10303-21;
HEADER;
/* Generated by software containing ST-Developer
 * from STEP Tools, Inc. (www.steptools.com) 
 */
/* OPTION: using custom renumber hook */

FILE_DESCRIPTION(
/* description */ ('STEP AP242 Edition 2',
'CAx-IF Rec.Pracs.---Representation and Presentation of Product Manufa
cturing Information (PMI)---4.0---2014-10-13',
'CAx-IF Rec.Pracs.---3D Tessellated Geometry---0.4---2014-09-14','2;1',
'CAx-IF Rec.Pracs.---User Defined Attributes---1.5---2016-08-15'),
/* implementation_level */ '2;1');

FILE_NAME(
/* name */ 'Assembly 1 - Button Spacer',
/* time_stamp */ '2026-07-14T16:54:41Z',
/* author */ (''),
/* organization */ (''),
/* preprocessor_version */ 'ST-DEVELOPER v20',
/* originating_system */ 'ONSHAPE BY PTC INC, 1.217',
/* authorisation */ '  ');

FILE_SCHEMA (('AP242_MANAGED_MODEL_BASED_3D_ENGINEERING_MIM_LF { 1 0 10303 442 3 1 4 }'));
ENDSEC;

DATA;
#10=SHAPE_REPRESENTATION_RELATIONSHIP('','',#235,#11);
#11=ADVANCED_BREP_SHAPE_REPRESENTATION('',(#233),#381);
#12=CYLINDRICAL_SURFACE('',#247,0.05);
#13=CYLINDRICAL_SURFACE('',#250,0.04);
#14=CYLINDRICAL_SURFACE('',#252,0.002);
#15=CYLINDRICAL_SURFACE('',#254,0.002);
#16=LINE('',#325,#36);
#17=LINE('',#332,#37);
#18=LINE('',#334,#38);
#19=LINE('',#336,#39);
#20=LINE('',#338,#40);
#21=LINE('',#340,#41);
#22=LINE('',#342,#42);
#23=LINE('',#344,#43);
#24=LINE('',#346,#44);
#25=LINE('',#348,#45);
#26=LINE('',#350,#46);
#27=LINE('',#352,#47);
#28=LINE('',#354,#48);
#29=LINE('',#356,#49);
#30=LINE('',#358,#50);
#31=LINE('',#360,#51);
#32=LINE('',#362,#52);
#33=LINE('',#366,#53);
#34=LINE('',#368,#54);
#35=LINE('',#370,#55);
#36=VECTOR('',#265,1.);
#37=VECTOR('',#270,1.);
#38=VECTOR('',#271,1.);
#39=VECTOR('',#272,1.);
#40=VECTOR('',#273,1.);
#41=VECTOR('',#274,1.);
#42=VECTOR('',#277,1.);
#43=VECTOR('',#278,1.);
#44=VECTOR('',#279,1.);
#45=VECTOR('',#282,1.);
#46=VECTOR('',#283,1.);
#47=VECTOR('',#284,1.);
#48=VECTOR('',#287,1.);
#49=VECTOR('',#290,1.);
#50=VECTOR('',#291,1.);
#51=VECTOR('',#294,1.);
#52=VECTOR('',#295,1.);
#53=VECTOR('',#300,1.);
#54=VECTOR('',#303,1.);
#55=VECTOR('',#304,1.);
#56=ORIENTED_EDGE('',*,*,#112,.F.);
#57=ORIENTED_EDGE('',*,*,#113,.F.);
#58=ORIENTED_EDGE('',*,*,#114,.T.);
#59=ORIENTED_EDGE('',*,*,#115,.F.);
#60=ORIENTED_EDGE('',*,*,#116,.F.);
#61=ORIENTED_EDGE('',*,*,#117,.F.);
#62=ORIENTED_EDGE('',*,*,#118,.F.);
#63=ORIENTED_EDGE('',*,*,#119,.F.);
#64=ORIENTED_EDGE('',*,*,#120,.F.);
#65=ORIENTED_EDGE('',*,*,#121,.T.);
#66=ORIENTED_EDGE('',*,*,#120,.T.);
#67=ORIENTED_EDGE('',*,*,#122,.F.);
#68=ORIENTED_EDGE('',*,*,#123,.F.);
#69=ORIENTED_EDGE('',*,*,#124,.T.);
#70=ORIENTED_EDGE('',*,*,#125,.F.);
#71=ORIENTED_EDGE('',*,*,#126,.T.);
#72=ORIENTED_EDGE('',*,*,#127,.T.);
#73=ORIENTED_EDGE('',*,*,#114,.F.);
#74=ORIENTED_EDGE('',*,*,#121,.F.);
#75=ORIENTED_EDGE('',*,*,#124,.F.);
#76=ORIENTED_EDGE('',*,*,#128,.T.);
#77=ORIENTED_EDGE('',*,*,#125,.T.);
#78=ORIENTED_EDGE('',*,*,#119,.T.);
#79=ORIENTED_EDGE('',*,*,#129,.F.);
#80=ORIENTED_EDGE('',*,*,#130,.F.);
#81=ORIENTED_EDGE('',*,*,#122,.T.);
#82=ORIENTED_EDGE('',*,*,#131,.F.);
#83=ORIENTED_EDGE('',*,*,#132,.F.);
#84=ORIENTED_EDGE('',*,*,#129,.T.);
#85=ORIENTED_EDGE('',*,*,#118,.T.);
#86=ORIENTED_EDGE('',*,*,#115,.T.);
#87=ORIENTED_EDGE('',*,*,#127,.F.);
#88=ORIENTED_EDGE('',*,*,#133,.F.);
#89=ORIENTED_EDGE('',*,*,#134,.T.);
#90=ORIENTED_EDGE('',*,*,#117,.T.);
#91=ORIENTED_EDGE('',*,*,#135,.F.);
#92=ORIENTED_EDGE('',*,*,#136,.F.);
#93=ORIENTED_EDGE('',*,*,#131,.T.);
#94=ORIENTED_EDGE('',*,*,#116,.T.);
#95=ORIENTED_EDGE('',*,*,#134,.F.);
#96=ORIENTED_EDGE('',*,*,#137,.F.);
#97=ORIENTED_EDGE('',*,*,#135,.T.);
#98=ORIENTED_EDGE('',*,*,#113,.T.);
#99=ORIENTED_EDGE('',*,*,#138,.T.);
#100=ORIENTED_EDGE('',*,*,#112,.T.);
#101=ORIENTED_EDGE('',*,*,#139,.T.);
#102=ORIENTED_EDGE('',*,*,#139,.F.);
#103=ORIENTED_EDGE('',*,*,#138,.F.);
#104=ORIENTED_EDGE('',*,*,#123,.T.);
#105=ORIENTED_EDGE('',*,*,#130,.T.);
#106=ORIENTED_EDGE('',*,*,#132,.T.);
#107=ORIENTED_EDGE('',*,*,#136,.T.);
#108=ORIENTED_EDGE('',*,*,#137,.T.);
#109=ORIENTED_EDGE('',*,*,#133,.T.);
#110=ORIENTED_EDGE('',*,*,#126,.F.);
#111=ORIENTED_EDGE('',*,*,#128,.F.);
#112=EDGE_CURVE('',#140,#140,#160,.T.);
#113=EDGE_CURVE('',#141,#141,#161,.T.);
#114=EDGE_CURVE('',#142,#143,#16,.T.);
#115=EDGE_CURVE('',#144,#143,#162,.F.);
#116=EDGE_CURVE('',#145,#144,#163,.T.);
#117=EDGE_CURVE('',#146,#145,#17,.T.);
#118=EDGE_CURVE('',#147,#146,#18,.T.);
#119=EDGE_CURVE('',#148,#147,#19,.T.);
#120=EDGE_CURVE('',#149,#148,#20,.T.);
#121=EDGE_CURVE('',#149,#142,#21,.T.);
#122=EDGE_CURVE('',#150,#148,#22,.T.);
#123=EDGE_CURVE('',#151,#150,#23,.T.);
#124=EDGE_CURVE('',#151,#149,#24,.T.);
#125=EDGE_CURVE('',#152,#142,#25,.T.);
#126=EDGE_CURVE('',#152,#153,#26,.T.);
#127=EDGE_CURVE('',#153,#143,#27,.T.);
#128=EDGE_CURVE('',#151,#152,#28,.T.);
#129=EDGE_CURVE('',#154,#147,#29,.T.);
#130=EDGE_CURVE('',#150,#154,#30,.T.);
#131=EDGE_CURVE('',#155,#146,#31,.T.);
#132=EDGE_CURVE('',#154,#155,#32,.T.);
#133=EDGE_CURVE('',#156,#153,#164,.F.);
#134=EDGE_CURVE('',#156,#144,#33,.T.);
#135=EDGE_CURVE('',#157,#145,#34,.T.);
#136=EDGE_CURVE('',#155,#157,#35,.T.);
#137=EDGE_CURVE('',#157,#156,#165,.T.);
#138=EDGE_CURVE('',#158,#158,#166,.T.);
#139=EDGE_CURVE('',#159,#159,#167,.T.);
#140=VERTEX_POINT('',#322);
#141=VERTEX_POINT('',#324);
#142=VERTEX_POINT('',#326);
#143=VERTEX_POINT('',#327);
#144=VERTEX_POINT('',#329);
#145=VERTEX_POINT('',#331);
#146=VERTEX_POINT('',#333);
#147=VERTEX_POINT('',#335);
#148=VERTEX_POINT('',#337);
#149=VERTEX_POINT('',#339);
#150=VERTEX_POINT('',#343);
#151=VERTEX_POINT('',#345);
#152=VERTEX_POINT('',#349);
#153=VERTEX_POINT('',#351);
#154=VERTEX_POINT('',#357);
#155=VERTEX_POINT('',#361);
#156=VERTEX_POINT('',#365);
#157=VERTEX_POINT('',#369);
#158=VERTEX_POINT('',#375);
#159=VERTEX_POINT('',#378);
#160=CIRCLE('',#238,0.002);
#161=CIRCLE('',#239,0.002);
#162=CIRCLE('',#240,0.05);
#163=CIRCLE('',#241,0.04);
#164=CIRCLE('',#248,0.05);
#165=CIRCLE('',#251,0.04);
#166=CIRCLE('',#253,0.002);
#167=CIRCLE('',#255,0.002);
#168=EDGE_LOOP('',(#56));
#169=EDGE_LOOP('',(#57));
#170=EDGE_LOOP('',(#58,#59,#60,#61,#62,#63,#64,#65));
#171=EDGE_LOOP('',(#66,#67,#68,#69));
#172=EDGE_LOOP('',(#70,#71,#72,#73));
#173=EDGE_LOOP('',(#74,#75,#76,#77));
#174=EDGE_LOOP('',(#78,#79,#80,#81));
#175=EDGE_LOOP('',(#82,#83,#84,#85));
#176=EDGE_LOOP('',(#86,#87,#88,#89));
#177=EDGE_LOOP('',(#90,#91,#92,#93));
#178=EDGE_LOOP('',(#94,#95,#96,#97));
#179=EDGE_LOOP('',(#98));
#180=EDGE_LOOP('',(#99));
#181=EDGE_LOOP('',(#100));
#182=EDGE_LOOP('',(#101));
#183=EDGE_LOOP('',(#102));
#184=EDGE_LOOP('',(#103));
#185=EDGE_LOOP('',(#104,#105,#106,#107,#108,#109,#110,#111));
#186=FACE_BOUND('',#168,.T.);
#187=FACE_BOUND('',#169,.T.);
#188=FACE_BOUND('',#170,.T.);
#189=FACE_BOUND('',#171,.T.);
#190=FACE_BOUND('',#172,.T.);
#191=FACE_BOUND('',#173,.T.);
#192=FACE_BOUND('',#174,.T.);
#193=FACE_BOUND('',#175,.T.);
#194=FACE_BOUND('',#176,.T.);
#195=FACE_BOUND('',#177,.T.);
#196=FACE_BOUND('',#178,.T.);
#197=FACE_BOUND('',#179,.T.);
#198=FACE_BOUND('',#180,.T.);
#199=FACE_BOUND('',#181,.T.);
#200=FACE_BOUND('',#182,.T.);
#201=FACE_BOUND('',#183,.T.);
#202=FACE_BOUND('',#184,.T.);
#203=FACE_BOUND('',#185,.T.);
#204=PLANE('',#237);
#205=PLANE('',#242);
#206=PLANE('',#243);
#207=PLANE('',#244);
#208=PLANE('',#245);
#209=PLANE('',#246);
#210=PLANE('',#249);
#211=PLANE('',#256);
#212=ADVANCED_FACE('',(#186,#187,#188),#204,.T.);
#213=ADVANCED_FACE('',(#189),#205,.T.);
#214=ADVANCED_FACE('',(#190),#206,.F.);
#215=ADVANCED_FACE('',(#191),#207,.T.);
#216=ADVANCED_FACE('',(#192),#208,.F.);
#217=ADVANCED_FACE('',(#193),#209,.F.);
#218=ADVANCED_FACE('',(#194),#12,.F.);
#219=ADVANCED_FACE('',(#195),#210,.F.);
#220=ADVANCED_FACE('',(#196),#13,.T.);
#221=ADVANCED_FACE('',(#197,#198),#14,.F.);
#222=ADVANCED_FACE('',(#199,#200),#15,.F.);
#223=ADVANCED_FACE('',(#201,#202,#203),#211,.F.);
#224=CLOSED_SHELL('',(#212,#213,#214,#215,#216,#217,#218,#219,#220,#221,
#222,#223));
#225=STYLED_ITEM('',(#226),#233);
#226=PRESENTATION_STYLE_ASSIGNMENT((#227));
#227=SURFACE_STYLE_USAGE(.BOTH.,#228);
#228=SURFACE_SIDE_STYLE('',(#229));
#229=SURFACE_STYLE_FILL_AREA(#230);
#230=FILL_AREA_STYLE('',(#231));
#231=FILL_AREA_STYLE_COLOUR('',#232);
#232=COLOUR_RGB('',0.8,0.776470588235294,0.713725490196078);
#233=MANIFOLD_SOLID_BREP('Button Spacer',#224);
#234=SHAPE_DEFINITION_REPRESENTATION(#386,#235);
#235=SHAPE_REPRESENTATION('Button Spacer',(#236),#381);
#236=AXIS2_PLACEMENT_3D('',#319,#257,#258);
#237=AXIS2_PLACEMENT_3D('',#320,#259,#260);
#238=AXIS2_PLACEMENT_3D('',#321,#261,#262);
#239=AXIS2_PLACEMENT_3D('',#323,#263,#264);
#240=AXIS2_PLACEMENT_3D('',#328,#266,#267);
#241=AXIS2_PLACEMENT_3D('',#330,#268,#269);
#242=AXIS2_PLACEMENT_3D('',#341,#275,#276);
#243=AXIS2_PLACEMENT_3D('',#347,#280,#281);
#244=AXIS2_PLACEMENT_3D('',#353,#285,#286);
#245=AXIS2_PLACEMENT_3D('',#355,#288,#289);
#246=AXIS2_PLACEMENT_3D('',#359,#292,#293);
#247=AXIS2_PLACEMENT_3D('',#363,#296,#297);
#248=AXIS2_PLACEMENT_3D('',#364,#298,#299);
#249=AXIS2_PLACEMENT_3D('',#367,#301,#302);
#250=AXIS2_PLACEMENT_3D('',#371,#305,#306);
#251=AXIS2_PLACEMENT_3D('',#372,#307,#308);
#252=AXIS2_PLACEMENT_3D('',#373,#309,#310);
#253=AXIS2_PLACEMENT_3D('',#374,#311,#312);
#254=AXIS2_PLACEMENT_3D('',#376,#313,#314);
#255=AXIS2_PLACEMENT_3D('',#377,#315,#316);
#256=AXIS2_PLACEMENT_3D('',#379,#317,#318);
#257=DIRECTION('',(0.,0.,1.));
#258=DIRECTION('',(1.,0.,0.));
#259=DIRECTION('',(-1.,0.,0.));
#260=DIRECTION('',(0.,0.,1.));
#261=DIRECTION('',(-1.,0.,0.));
#262=DIRECTION('',(0.,0.,1.));
#263=DIRECTION('',(-1.,0.,0.));
#264=DIRECTION('',(0.,0.,1.));
#265=DIRECTION('',(0.,1.,0.));
#266=DIRECTION('',(1.,0.,0.));
#267=DIRECTION('',(0.,0.,-1.));
#268=DIRECTION('',(1.,0.,0.));
#269=DIRECTION('',(0.,0.,-1.));
#270=DIRECTION('',(0.,0.,1.));
#271=DIRECTION('',(0.,1.,0.));
#272=DIRECTION('',(0.,0.,1.));
#273=DIRECTION('',(0.,1.,0.));
#274=DIRECTION('',(0.,0.,1.));
#275=DIRECTION('',(0.,0.,-1.));
#276=DIRECTION('',(-1.,0.,0.));
#277=DIRECTION('',(-1.,0.,0.));
#278=DIRECTION('',(0.,1.,0.));
#279=DIRECTION('',(-1.,0.,0.));
#280=DIRECTION('',(0.,0.,-1.));
#281=DIRECTION('',(-1.,0.,0.));
#282=DIRECTION('',(-1.,0.,0.));
#283=DIRECTION('',(0.,1.,0.));
#284=DIRECTION('',(-1.,0.,0.));
#285=DIRECTION('',(0.,-1.,0.));
#286=DIRECTION('',(0.,0.,-1.));
#287=DIRECTION('',(0.,0.,1.));
#288=DIRECTION('',(0.,-1.,0.));
#289=DIRECTION('',(0.,0.,-1.));
#290=DIRECTION('',(-1.,0.,0.));
#291=DIRECTION('',(0.,0.,1.));
#292=DIRECTION('',(0.,0.,1.));
#293=DIRECTION('',(1.,0.,0.));
#294=DIRECTION('',(-1.,0.,0.));
#295=DIRECTION('',(0.,1.,0.));
#296=DIRECTION('',(-1.,0.,0.));
#297=DIRECTION('',(0.,0.,1.));
#298=DIRECTION('',(1.,0.,0.));
#299=DIRECTION('',(0.,0.,-1.));
#300=DIRECTION('',(-1.,0.,0.));
#301=DIRECTION('',(0.,-1.,0.));
#302=DIRECTION('',(0.,0.,-1.));
#303=DIRECTION('',(-1.,0.,0.));
#304=DIRECTION('',(0.,0.,1.));
#305=DIRECTION('',(-1.,0.,0.));
#306=DIRECTION('',(0.,0.,1.));
#307=DIRECTION('',(1.,0.,0.));
#308=DIRECTION('',(0.,0.,-1.));
#309=DIRECTION('',(1.,0.,0.));
#310=DIRECTION('',(0.,0.,-1.));
#311=DIRECTION('',(1.,0.,0.));
#312=DIRECTION('',(0.,0.,-1.));
#313=DIRECTION('',(1.,0.,0.));
#314=DIRECTION('',(0.,0.,-1.));
#315=DIRECTION('',(1.,0.,0.));
#316=DIRECTION('',(0.,0.,-1.));
#317=DIRECTION('',(-1.,0.,0.));
#318=DIRECTION('',(0.,0.,1.));
#319=CARTESIAN_POINT('',(0.,0.,0.));
#320=CARTESIAN_POINT('',(0.01,0.0306442531355429,0.0984340890828037));
#321=CARTESIAN_POINT('',(0.01,0.0585000231355429,0.0996840890828037));
#322=CARTESIAN_POINT('',(0.01,0.0585000231355429,0.101684089082804));
#323=CARTESIAN_POINT('',(0.01,0.0746000231355429,0.106684089082804));
#324=CARTESIAN_POINT('',(0.01,0.0746000231355429,0.108684089082804));
#325=CARTESIAN_POINT('',(0.01,0.0306442531355429,0.0996840890828037));
#326=CARTESIAN_POINT('',(0.01,0.0306442531355429,0.0996840890828037));
#327=CARTESIAN_POINT('',(0.01,0.0316829009314354,0.0996840890828037));
#328=CARTESIAN_POINT('',(0.01,0.0316829009314354,0.149684089082804));
#329=CARTESIAN_POINT('',(0.01,0.0606024645639666,0.108896114883244));
#330=CARTESIAN_POINT('',(0.01,0.0837381154699916,0.0762657355235956));
#331=CARTESIAN_POINT('',(0.01,0.0816000231355429,0.116208551663289));
#332=CARTESIAN_POINT('',(0.01,0.0816000231355429,0.0571335000933872));
#333=CARTESIAN_POINT('',(0.01,0.0816000231355429,0.0996840890828037));
#334=CARTESIAN_POINT('',(0.01,0.0572051217157863,0.0996840890828037));
#335=CARTESIAN_POINT('',(0.01,0.0695000231355429,0.0996840890828037));
#336=CARTESIAN_POINT('',(0.01,0.0695000231355429,0.0971840890828037));
#337=CARTESIAN_POINT('',(0.01,0.0695000231355429,0.0946840890828037));
#338=CARTESIAN_POINT('',(0.01,0.0306442531355429,0.0946840890828037));
#339=CARTESIAN_POINT('',(0.01,0.0306442531355429,0.0946840890828037));
#340=CARTESIAN_POINT('',(0.01,0.0306442531355429,0.0984340890828037));
#341=CARTESIAN_POINT('',(0.016,0.0306442531355429,0.0946840890828037));
#342=CARTESIAN_POINT('',(0.016,0.0695000231355429,0.0946840890828037));
#343=CARTESIAN_POINT('',(0.022,0.0695000231355429,0.0946840890828037));
#344=CARTESIAN_POINT('',(0.022,0.0306442531355429,0.0946840890828037));
#345=CARTESIAN_POINT('',(0.022,0.0306442531355429,0.0946840890828037));
#346=CARTESIAN_POINT('',(0.016,0.0306442531355429,0.0946840890828037));
#347=CARTESIAN_POINT('',(0.016,0.0306442531355429,0.0996840890828037));
#348=CARTESIAN_POINT('',(0.016,0.0306442531355429,0.0996840890828037));
#349=CARTESIAN_POINT('',(0.022,0.0306442531355429,0.0996840890828037));
#350=CARTESIAN_POINT('',(0.022,0.0306442531355429,0.0996840890828037));
#351=CARTESIAN_POINT('',(0.022,0.0316829009314354,0.0996840890828037));
#352=CARTESIAN_POINT('',(0.016,0.0316829009314354,0.0996840890828037));
#353=CARTESIAN_POINT('',(0.016,0.0306442531355429,0.0984340890828037));
#354=CARTESIAN_POINT('',(0.022,0.0306442531355429,0.0984340890828037));
#355=CARTESIAN_POINT('',(0.016,0.0695000231355429,0.0971840890828037));
#356=CARTESIAN_POINT('',(0.016,0.0695000231355429,0.0996840890828037));
#357=CARTESIAN_POINT('',(0.022,0.0695000231355429,0.0996840890828037));
#358=CARTESIAN_POINT('',(0.022,0.0695000231355429,0.0971840890828037));
#359=CARTESIAN_POINT('',(0.016,0.0572051217157863,0.0996840890828037));
#360=CARTESIAN_POINT('',(0.016,0.0816000231355429,0.0996840890828037));
#361=CARTESIAN_POINT('',(0.022,0.0816000231355429,0.0996840890828037));
#362=CARTESIAN_POINT('',(0.022,0.0572051217157863,0.0996840890828037));
#363=CARTESIAN_POINT('',(0.016,0.0316829009314354,0.149684089082804));
#364=CARTESIAN_POINT('',(0.022,0.0316829009314354,0.149684089082804));
#365=CARTESIAN_POINT('',(0.022,0.0606024645639666,0.108896114883244));
#366=CARTESIAN_POINT('',(0.016,0.0606024645639666,0.108896114883244));
#367=CARTESIAN_POINT('',(0.016,0.0816000231355429,0.0571335000933872));
#368=CARTESIAN_POINT('',(0.016,0.0816000231355429,0.116208551663289));
#369=CARTESIAN_POINT('',(0.022,0.0816000231355429,0.116208551663289));
#370=CARTESIAN_POINT('',(0.022,0.0816000231355429,0.0571335000933872));
#371=CARTESIAN_POINT('',(0.016,0.0837381154699916,0.0762657355235956));
#372=CARTESIAN_POINT('',(0.022,0.0837381154699916,0.0762657355235956));
#373=CARTESIAN_POINT('',(0.004,0.0746000231355429,0.106684089082804));
#374=CARTESIAN_POINT('',(0.022,0.0746000231355429,0.106684089082804));
#375=CARTESIAN_POINT('',(0.022,0.0746000231355429,0.104684089082804));
#376=CARTESIAN_POINT('',(0.004,0.0585000231355429,0.0996840890828037));
#377=CARTESIAN_POINT('',(0.022,0.0585000231355429,0.0996840890828037));
#378=CARTESIAN_POINT('',(0.022,0.0585000231355429,0.0976840890828037));
#379=CARTESIAN_POINT('',(0.022,0.0306442531355429,0.0984340890828037));
#380=MECHANICAL_DESIGN_GEOMETRIC_PRESENTATION_REPRESENTATION('',(#225),
#381);
#381=(
GEOMETRIC_REPRESENTATION_CONTEXT(3)
GLOBAL_UNCERTAINTY_ASSIGNED_CONTEXT((#382))
GLOBAL_UNIT_ASSIGNED_CONTEXT((#385,#384,#383))
REPRESENTATION_CONTEXT('Button Spacer','TOP_LEVEL_ASSEMBLY_PART')
);
#382=UNCERTAINTY_MEASURE_WITH_UNIT(LENGTH_MEASURE(1.E-8),#385,
'DISTANCE_ACCURACY_VALUE','Maximum Tolerance applied to model');
#383=(
NAMED_UNIT(*)
SI_UNIT($,.STERADIAN.)
SOLID_ANGLE_UNIT()
);
#384=(
NAMED_UNIT(*)
PLANE_ANGLE_UNIT()
SI_UNIT($,.RADIAN.)
);
#385=(
LENGTH_UNIT()
NAMED_UNIT(*)
SI_UNIT($,.METRE.)
);
#386=PRODUCT_DEFINITION_SHAPE('','',#387);
#387=PRODUCT_DEFINITION('','',#389,#388);
#388=PRODUCT_DEFINITION_CONTEXT('',#395,'design');
#389=PRODUCT_DEFINITION_FORMATION_WITH_SPECIFIED_SOURCE('','',#391,
 .NOT_KNOWN.);
#390=PRODUCT_RELATED_PRODUCT_CATEGORY('','',(#391));
#391=PRODUCT('Button Spacer','Button Spacer','Button Spacer',(#393));
#392=PRODUCT_CATEGORY('','');
#393=PRODUCT_CONTEXT('',#395,'mechanical');
#394=APPLICATION_PROTOCOL_DEFINITION('international standard',
'ap242_managed_model_based_3d_engineering',2020,#395);
#395=APPLICATION_CONTEXT('managed model based 3d engineering');
ENDSEC;
END-ISO-10303-21;
