ISO-10303-21;
HEADER;
/* Generated by software containing ST-Developer
 * from STEP Tools, Inc. (www.steptools.com) 
 */
/* OPTION: using custom renumber hook */

FILE_DESCRIPTION(
/* description */ ('STEP AP242 Edition 2',
'CAx-IF Rec.Pracs.---Representation and Presentation of Product Manufa
cturing Information (PMI)---4.0---2014-10-13',
'CAx-IF Rec.Pracs.---3D Tessellated Geometry---0.4---2014-09-14','2;1',
'CAx-IF Rec.Pracs.---User Defined Attributes---1.5---2016-08-15'),
/* implementation_level */ '2;1');

FILE_NAME(
/* name */ 'Assembly 1 - Output Lever (1)',
/* time_stamp */ '2026-07-14T16:54:42Z',
/* author */ (''),
/* organization */ (''),
/* preprocessor_version */ 'ST-DEVELOPER v20',
/* originating_system */ 'ONSHAPE BY PTC INC, 1.217',
/* authorisation */ '  ');

FILE_SCHEMA (('AP242_MANAGED_MODEL_BASED_3D_ENGINEERING_MIM_LF { 1 0 10303 442 3 1 4 }'));
ENDSEC;

DATA;
#10=SHAPE_REPRESENTATION_RELATIONSHIP('','',#687,#11);
#11=ADVANCED_BREP_SHAPE_REPRESENTATION('',(#685),#1164);
#12=B_SPLINE_CURVE_WITH_KNOTS('',3,(#1151,#1152,#1153,#1154),
 .UNSPECIFIED.,.F.,.F.,(4,4),(0.,3.4676339895574E-5),.UNSPECIFIED.);
#13=CYLINDRICAL_SURFACE('',#722,0.005);
#14=CYLINDRICAL_SURFACE('',#723,0.0025);
#15=CYLINDRICAL_SURFACE('',#728,0.004);
#16=CYLINDRICAL_SURFACE('',#729,0.004);
#17=CYLINDRICAL_SURFACE('',#730,0.004);
#18=CYLINDRICAL_SURFACE('',#732,0.004);
#19=CYLINDRICAL_SURFACE('',#740,0.004);
#20=CYLINDRICAL_SURFACE('',#742,0.004);
#21=CYLINDRICAL_SURFACE('',#744,0.006);
#22=CYLINDRICAL_SURFACE('',#745,0.00225);
#23=CYLINDRICAL_SURFACE('',#746,0.001);
#24=CYLINDRICAL_SURFACE('',#748,0.001);
#25=CYLINDRICAL_SURFACE('',#751,0.002);
#26=CYLINDRICAL_SURFACE('',#754,0.0015);
#27=CYLINDRICAL_SURFACE('',#756,0.002);
#28=CYLINDRICAL_SURFACE('',#759,0.0179508977991);
#29=ELLIPSE('',#702,0.0192331047847501,0.0179508977991);
#30=ELLIPSE('',#704,0.0500009705607833,0.0179508977991);
#31=LINE('',#971,#90);
#32=LINE('',#976,#91);
#33=LINE('',#978,#92);
#34=LINE('',#980,#93);
#35=LINE('',#982,#94);
#36=LINE('',#986,#95);
#37=LINE('',#990,#96);
#38=LINE('',#994,#97);
#39=LINE('',#998,#98);
#40=LINE('',#1004,#99);
#41=LINE('',#1011,#100);
#42=LINE('',#1013,#101);
#43=LINE('',#1015,#102);
#44=LINE('',#1017,#103);
#45=LINE('',#1019,#104);
#46=LINE('',#1023,#105);
#47=LINE('',#1025,#106);
#48=LINE('',#1027,#107);
#49=LINE('',#1028,#108);
#50=LINE('',#1030,#109);
#51=LINE('',#1032,#110);
#52=LINE('',#1036,#111);
#53=LINE('',#1038,#112);
#54=LINE('',#1039,#113);
#55=LINE('',#1043,#114);
#56=LINE('',#1047,#115);
#57=LINE('',#1053,#116);
#58=LINE('',#1057,#117);
#59=LINE('',#1061,#118);
#60=LINE('',#1065,#119);
#61=LINE('',#1069,#120);
#62=LINE('',#1073,#121);
#63=LINE('',#1075,#122);
#64=LINE('',#1078,#123);
#65=LINE('',#1079,#124);
#66=LINE('',#1081,#125);
#67=LINE('',#1084,#126);
#68=LINE('',#1086,#127);
#69=LINE('',#1088,#128);
#70=LINE('',#1090,#129);
#71=LINE('',#1091,#130);
#72=LINE('',#1094,#131);
#73=LINE('',#1096,#132);
#74=LINE('',#1098,#133);
#75=LINE('',#1099,#134);
#76=LINE('',#1101,#135);
#77=LINE('',#1103,#136);
#78=LINE('',#1105,#137);
#79=LINE('',#1107,#138);
#80=LINE('',#1109,#139);
#81=LINE('',#1110,#140);
#82=LINE('',#1112,#141);
#83=LINE('',#1114,#142);
#84=LINE('',#1116,#143);
#85=LINE('',#1134,#144);
#86=LINE('',#1138,#145);
#87=LINE('',#1155,#146);
#88=LINE('',#1159,#147);
#89=LINE('',#1161,#148);
#90=VECTOR('',#770,1.);
#91=VECTOR('',#773,1.);
#92=VECTOR('',#774,1.);
#93=VECTOR('',#775,1.);
#94=VECTOR('',#776,1.);
#95=VECTOR('',#779,1.);
#96=VECTOR('',#782,1.);
#97=VECTOR('',#785,1.);
#98=VECTOR('',#788,1.);
#99=VECTOR('',#793,1.);
#100=VECTOR('',#800,1.);
#101=VECTOR('',#801,1.);
#102=VECTOR('',#802,1.);
#103=VECTOR('',#803,1.);
#104=VECTOR('',#804,1.);
#105=VECTOR('',#809,1.);
#106=VECTOR('',#810,1.);
#107=VECTOR('',#813,1.);
#108=VECTOR('',#814,1.);
#109=VECTOR('',#815,1.);
#110=VECTOR('',#816,1.);
#111=VECTOR('',#821,1.);
#112=VECTOR('',#824,1.);
#113=VECTOR('',#825,1.);
#114=VECTOR('',#830,1.);
#115=VECTOR('',#833,1.);
#116=VECTOR('',#838,1.);
#117=VECTOR('',#841,1.);
#118=VECTOR('',#844,1.);
#119=VECTOR('',#847,1.);
#120=VECTOR('',#850,1.);
#121=VECTOR('',#855,1.);
#122=VECTOR('',#858,1.);
#123=VECTOR('',#859,1.);
#124=VECTOR('',#860,1.);
#125=VECTOR('',#863,1.);
#126=VECTOR('',#864,1.);
#127=VECTOR('',#865,1.);
#128=VECTOR('',#866,1.);
#129=VECTOR('',#869,1.);
#130=VECTOR('',#870,1.);
#131=VECTOR('',#875,1.);
#132=VECTOR('',#876,1.);
#133=VECTOR('',#877,1.);
#134=VECTOR('',#878,1.);
#135=VECTOR('',#881,1.);
#136=VECTOR('',#882,1.);
#137=VECTOR('',#883,1.);
#138=VECTOR('',#886,1.);
#139=VECTOR('',#887,1.);
#140=VECTOR('',#888,1.);
#141=VECTOR('',#889,1.);
#142=VECTOR('',#892,1.);
#143=VECTOR('',#895,1.);
#144=VECTOR('',#922,1.);
#145=VECTOR('',#927,1.);
#146=VECTOR('',#950,1.);
#147=VECTOR('',#957,1.);
#148=VECTOR('',#960,1.);
#149=ORIENTED_EDGE('',*,*,#339,.F.);
#150=ORIENTED_EDGE('',*,*,#340,.F.);
#151=ORIENTED_EDGE('',*,*,#341,.F.);
#152=ORIENTED_EDGE('',*,*,#342,.F.);
#153=ORIENTED_EDGE('',*,*,#343,.T.);
#154=ORIENTED_EDGE('',*,*,#344,.F.);
#155=ORIENTED_EDGE('',*,*,#345,.F.);
#156=ORIENTED_EDGE('',*,*,#346,.T.);
#157=ORIENTED_EDGE('',*,*,#347,.F.);
#158=ORIENTED_EDGE('',*,*,#348,.T.);
#159=ORIENTED_EDGE('',*,*,#349,.F.);
#160=ORIENTED_EDGE('',*,*,#350,.T.);
#161=ORIENTED_EDGE('',*,*,#351,.F.);
#162=ORIENTED_EDGE('',*,*,#352,.T.);
#163=ORIENTED_EDGE('',*,*,#353,.F.);
#164=ORIENTED_EDGE('',*,*,#354,.T.);
#165=ORIENTED_EDGE('',*,*,#355,.T.);
#166=ORIENTED_EDGE('',*,*,#356,.T.);
#167=ORIENTED_EDGE('',*,*,#357,.T.);
#168=ORIENTED_EDGE('',*,*,#358,.F.);
#169=ORIENTED_EDGE('',*,*,#359,.T.);
#170=ORIENTED_EDGE('',*,*,#360,.F.);
#171=ORIENTED_EDGE('',*,*,#361,.T.);
#172=ORIENTED_EDGE('',*,*,#362,.T.);
#173=ORIENTED_EDGE('',*,*,#363,.F.);
#174=ORIENTED_EDGE('',*,*,#364,.F.);
#175=ORIENTED_EDGE('',*,*,#365,.F.);
#176=ORIENTED_EDGE('',*,*,#366,.F.);
#177=ORIENTED_EDGE('',*,*,#365,.T.);
#178=ORIENTED_EDGE('',*,*,#367,.F.);
#179=ORIENTED_EDGE('',*,*,#368,.T.);
#180=ORIENTED_EDGE('',*,*,#346,.F.);
#181=ORIENTED_EDGE('',*,*,#369,.T.);
#182=ORIENTED_EDGE('',*,*,#370,.T.);
#183=ORIENTED_EDGE('',*,*,#371,.T.);
#184=ORIENTED_EDGE('',*,*,#372,.T.);
#185=ORIENTED_EDGE('',*,*,#370,.F.);
#186=ORIENTED_EDGE('',*,*,#363,.T.);
#187=ORIENTED_EDGE('',*,*,#373,.T.);
#188=ORIENTED_EDGE('',*,*,#374,.F.);
#189=ORIENTED_EDGE('',*,*,#361,.F.);
#190=ORIENTED_EDGE('',*,*,#375,.T.);
#191=ORIENTED_EDGE('',*,*,#342,.T.);
#192=ORIENTED_EDGE('',*,*,#376,.F.);
#193=ORIENTED_EDGE('',*,*,#377,.T.);
#194=ORIENTED_EDGE('',*,*,#374,.T.);
#195=ORIENTED_EDGE('',*,*,#378,.T.);
#196=ORIENTED_EDGE('',*,*,#379,.F.);
#197=ORIENTED_EDGE('',*,*,#380,.T.);
#198=ORIENTED_EDGE('',*,*,#381,.T.);
#199=ORIENTED_EDGE('',*,*,#382,.F.);
#200=ORIENTED_EDGE('',*,*,#383,.F.);
#201=ORIENTED_EDGE('',*,*,#384,.T.);
#202=ORIENTED_EDGE('',*,*,#385,.F.);
#203=ORIENTED_EDGE('',*,*,#386,.T.);
#204=ORIENTED_EDGE('',*,*,#387,.F.);
#205=ORIENTED_EDGE('',*,*,#388,.T.);
#206=ORIENTED_EDGE('',*,*,#389,.F.);
#207=ORIENTED_EDGE('',*,*,#390,.F.);
#208=ORIENTED_EDGE('',*,*,#391,.T.);
#209=ORIENTED_EDGE('',*,*,#371,.F.);
#210=ORIENTED_EDGE('',*,*,#392,.T.);
#211=ORIENTED_EDGE('',*,*,#372,.F.);
#212=ORIENTED_EDGE('',*,*,#391,.F.);
#213=ORIENTED_EDGE('',*,*,#393,.T.);
#214=ORIENTED_EDGE('',*,*,#347,.T.);
#215=ORIENTED_EDGE('',*,*,#394,.F.);
#216=ORIENTED_EDGE('',*,*,#395,.T.);
#217=ORIENTED_EDGE('',*,*,#387,.T.);
#218=ORIENTED_EDGE('',*,*,#396,.T.);
#219=ORIENTED_EDGE('',*,*,#397,.F.);
#220=ORIENTED_EDGE('',*,*,#398,.T.);
#221=ORIENTED_EDGE('',*,*,#399,.T.);
#222=ORIENTED_EDGE('',*,*,#400,.T.);
#223=ORIENTED_EDGE('',*,*,#382,.T.);
#224=ORIENTED_EDGE('',*,*,#401,.T.);
#225=ORIENTED_EDGE('',*,*,#356,.F.);
#226=ORIENTED_EDGE('',*,*,#402,.F.);
#227=ORIENTED_EDGE('',*,*,#341,.T.);
#228=ORIENTED_EDGE('',*,*,#392,.F.);
#229=ORIENTED_EDGE('',*,*,#403,.T.);
#230=ORIENTED_EDGE('',*,*,#404,.F.);
#231=ORIENTED_EDGE('',*,*,#405,.T.);
#232=ORIENTED_EDGE('',*,*,#349,.T.);
#233=ORIENTED_EDGE('',*,*,#406,.T.);
#234=ORIENTED_EDGE('',*,*,#389,.T.);
#235=ORIENTED_EDGE('',*,*,#407,.T.);
#236=ORIENTED_EDGE('',*,*,#408,.F.);
#237=ORIENTED_EDGE('',*,*,#409,.T.);
#238=ORIENTED_EDGE('',*,*,#351,.T.);
#239=ORIENTED_EDGE('',*,*,#410,.T.);
#240=ORIENTED_EDGE('',*,*,#385,.T.);
#241=ORIENTED_EDGE('',*,*,#411,.T.);
#242=ORIENTED_EDGE('',*,*,#353,.T.);
#243=ORIENTED_EDGE('',*,*,#412,.T.);
#244=ORIENTED_EDGE('',*,*,#413,.F.);
#245=ORIENTED_EDGE('',*,*,#355,.F.);
#246=ORIENTED_EDGE('',*,*,#414,.T.);
#247=ORIENTED_EDGE('',*,*,#383,.T.);
#248=ORIENTED_EDGE('',*,*,#402,.T.);
#249=ORIENTED_EDGE('',*,*,#381,.F.);
#250=ORIENTED_EDGE('',*,*,#415,.T.);
#251=ORIENTED_EDGE('',*,*,#357,.F.);
#252=ORIENTED_EDGE('',*,*,#401,.F.);
#253=ORIENTED_EDGE('',*,*,#393,.F.);
#254=ORIENTED_EDGE('',*,*,#390,.T.);
#255=ORIENTED_EDGE('',*,*,#406,.F.);
#256=ORIENTED_EDGE('',*,*,#348,.F.);
#257=ORIENTED_EDGE('',*,*,#409,.F.);
#258=ORIENTED_EDGE('',*,*,#416,.F.);
#259=ORIENTED_EDGE('',*,*,#412,.F.);
#260=ORIENTED_EDGE('',*,*,#352,.F.);
#261=ORIENTED_EDGE('',*,*,#405,.F.);
#262=ORIENTED_EDGE('',*,*,#417,.F.);
#263=ORIENTED_EDGE('',*,*,#407,.F.);
#264=ORIENTED_EDGE('',*,*,#350,.F.);
#265=ORIENTED_EDGE('',*,*,#399,.F.);
#266=ORIENTED_EDGE('',*,*,#418,.T.);
#267=ORIENTED_EDGE('',*,*,#419,.T.);
#268=ORIENTED_EDGE('',*,*,#413,.T.);
#269=ORIENTED_EDGE('',*,*,#416,.T.);
#270=ORIENTED_EDGE('',*,*,#408,.T.);
#271=ORIENTED_EDGE('',*,*,#417,.T.);
#272=ORIENTED_EDGE('',*,*,#404,.T.);
#273=ORIENTED_EDGE('',*,*,#420,.F.);
#274=ORIENTED_EDGE('',*,*,#421,.T.);
#275=ORIENTED_EDGE('',*,*,#422,.F.);
#276=ORIENTED_EDGE('',*,*,#423,.F.);
#277=ORIENTED_EDGE('',*,*,#424,.T.);
#278=ORIENTED_EDGE('',*,*,#420,.T.);
#279=ORIENTED_EDGE('',*,*,#403,.F.);
#280=ORIENTED_EDGE('',*,*,#388,.F.);
#281=ORIENTED_EDGE('',*,*,#395,.F.);
#282=ORIENTED_EDGE('',*,*,#425,.F.);
#283=ORIENTED_EDGE('',*,*,#396,.F.);
#284=ORIENTED_EDGE('',*,*,#386,.F.);
#285=ORIENTED_EDGE('',*,*,#410,.F.);
#286=ORIENTED_EDGE('',*,*,#419,.F.);
#287=ORIENTED_EDGE('',*,*,#426,.T.);
#288=ORIENTED_EDGE('',*,*,#354,.F.);
#289=ORIENTED_EDGE('',*,*,#411,.F.);
#290=ORIENTED_EDGE('',*,*,#384,.F.);
#291=ORIENTED_EDGE('',*,*,#414,.F.);
#292=ORIENTED_EDGE('',*,*,#422,.T.);
#293=ORIENTED_EDGE('',*,*,#340,.T.);
#294=ORIENTED_EDGE('',*,*,#427,.F.);
#295=ORIENTED_EDGE('',*,*,#426,.F.);
#296=ORIENTED_EDGE('',*,*,#418,.F.);
#297=ORIENTED_EDGE('',*,*,#398,.F.);
#298=ORIENTED_EDGE('',*,*,#428,.F.);
#299=ORIENTED_EDGE('',*,*,#400,.F.);
#300=ORIENTED_EDGE('',*,*,#421,.F.);
#301=ORIENTED_EDGE('',*,*,#424,.F.);
#302=ORIENTED_EDGE('',*,*,#425,.T.);
#303=ORIENTED_EDGE('',*,*,#427,.T.);
#304=ORIENTED_EDGE('',*,*,#397,.T.);
#305=ORIENTED_EDGE('',*,*,#428,.T.);
#306=ORIENTED_EDGE('',*,*,#423,.T.);
#307=ORIENTED_EDGE('',*,*,#394,.T.);
#308=ORIENTED_EDGE('',*,*,#429,.F.);
#309=ORIENTED_EDGE('',*,*,#339,.T.);
#310=ORIENTED_EDGE('',*,*,#429,.T.);
#311=ORIENTED_EDGE('',*,*,#379,.T.);
#312=ORIENTED_EDGE('',*,*,#430,.T.);
#313=ORIENTED_EDGE('',*,*,#376,.T.);
#314=ORIENTED_EDGE('',*,*,#359,.F.);
#315=ORIENTED_EDGE('',*,*,#431,.F.);
#316=ORIENTED_EDGE('',*,*,#431,.T.);
#317=ORIENTED_EDGE('',*,*,#358,.T.);
#318=ORIENTED_EDGE('',*,*,#415,.F.);
#319=ORIENTED_EDGE('',*,*,#380,.F.);
#320=ORIENTED_EDGE('',*,*,#373,.F.);
#321=ORIENTED_EDGE('',*,*,#362,.F.);
#322=ORIENTED_EDGE('',*,*,#377,.F.);
#323=ORIENTED_EDGE('',*,*,#430,.F.);
#324=ORIENTED_EDGE('',*,*,#378,.F.);
#325=ORIENTED_EDGE('',*,*,#364,.T.);
#326=ORIENTED_EDGE('',*,*,#369,.F.);
#327=ORIENTED_EDGE('',*,*,#345,.T.);
#328=ORIENTED_EDGE('',*,*,#432,.F.);
#329=ORIENTED_EDGE('',*,*,#367,.T.);
#330=ORIENTED_EDGE('',*,*,#433,.F.);
#331=ORIENTED_EDGE('',*,*,#368,.F.);
#332=ORIENTED_EDGE('',*,*,#432,.T.);
#333=ORIENTED_EDGE('',*,*,#344,.T.);
#334=ORIENTED_EDGE('',*,*,#360,.T.);
#335=ORIENTED_EDGE('',*,*,#366,.T.);
#336=ORIENTED_EDGE('',*,*,#433,.T.);
#337=ORIENTED_EDGE('',*,*,#343,.F.);
#338=ORIENTED_EDGE('',*,*,#375,.F.);
#339=EDGE_CURVE('',#434,#434,#499,.T.);
#340=EDGE_CURVE('',#435,#435,#500,.T.);
#341=EDGE_CURVE('',#436,#436,#501,.T.);
#342=EDGE_CURVE('',#437,#438,#31,.T.);
#343=EDGE_CURVE('',#437,#439,#502,.T.);
#344=EDGE_CURVE('',#440,#439,#32,.T.);
#345=EDGE_CURVE('',#441,#440,#33,.T.);
#346=EDGE_CURVE('',#441,#442,#34,.T.);
#347=EDGE_CURVE('',#443,#442,#35,.T.);
#348=EDGE_CURVE('',#443,#444,#503,.T.);
#349=EDGE_CURVE('',#445,#444,#36,.T.);
#350=EDGE_CURVE('',#445,#446,#504,.T.);
#351=EDGE_CURVE('',#447,#446,#37,.T.);
#352=EDGE_CURVE('',#447,#448,#505,.T.);
#353=EDGE_CURVE('',#449,#448,#38,.T.);
#354=EDGE_CURVE('',#449,#450,#506,.F.);
#355=EDGE_CURVE('',#450,#451,#39,.T.);
#356=EDGE_CURVE('',#451,#452,#507,.T.);
#357=EDGE_CURVE('',#452,#453,#508,.F.);
#358=EDGE_CURVE('',#454,#453,#40,.T.);
#359=EDGE_CURVE('',#454,#438,#509,.T.);
#360=EDGE_CURVE('',#455,#456,#29,.T.);
#361=EDGE_CURVE('',#455,#457,#41,.T.);
#362=EDGE_CURVE('',#457,#458,#42,.F.);
#363=EDGE_CURVE('',#459,#458,#43,.T.);
#364=EDGE_CURVE('',#460,#459,#44,.T.);
#365=EDGE_CURVE('',#456,#460,#45,.F.);
#366=EDGE_CURVE('',#456,#461,#30,.T.);
#367=EDGE_CURVE('',#462,#460,#46,.T.);
#368=EDGE_CURVE('',#462,#461,#47,.T.);
#369=EDGE_CURVE('',#441,#459,#48,.T.);
#370=EDGE_CURVE('',#459,#463,#49,.T.);
#371=EDGE_CURVE('',#463,#464,#50,.T.);
#372=EDGE_CURVE('',#464,#442,#51,.T.);
#373=EDGE_CURVE('',#458,#465,#510,.F.);
#374=EDGE_CURVE('',#463,#465,#52,.T.);
#375=EDGE_CURVE('',#455,#437,#53,.T.);
#376=EDGE_CURVE('',#466,#438,#54,.T.);
#377=EDGE_CURVE('',#466,#457,#511,.F.);
#378=EDGE_CURVE('',#465,#467,#55,.T.);
#379=EDGE_CURVE('',#468,#467,#512,.T.);
#380=EDGE_CURVE('',#468,#469,#56,.T.);
#381=EDGE_CURVE('',#469,#470,#513,.T.);
#382=EDGE_CURVE('',#471,#470,#514,.T.);
#383=EDGE_CURVE('',#472,#471,#57,.T.);
#384=EDGE_CURVE('',#472,#473,#515,.T.);
#385=EDGE_CURVE('',#474,#473,#58,.T.);
#386=EDGE_CURVE('',#474,#475,#516,.T.);
#387=EDGE_CURVE('',#476,#475,#59,.T.);
#388=EDGE_CURVE('',#476,#477,#517,.T.);
#389=EDGE_CURVE('',#478,#477,#60,.T.);
#390=EDGE_CURVE('',#479,#478,#518,.T.);
#391=EDGE_CURVE('',#479,#464,#61,.T.);
#392=EDGE_CURVE('',#480,#480,#519,.T.);
#393=EDGE_CURVE('',#479,#443,#62,.T.);
#394=EDGE_CURVE('',#481,#482,#63,.T.);
#395=EDGE_CURVE('',#481,#476,#64,.T.);
#396=EDGE_CURVE('',#475,#482,#65,.F.);
#397=EDGE_CURVE('',#483,#484,#66,.T.);
#398=EDGE_CURVE('',#483,#485,#67,.F.);
#399=EDGE_CURVE('',#485,#486,#68,.T.);
#400=EDGE_CURVE('',#486,#484,#69,.T.);
#401=EDGE_CURVE('',#470,#452,#70,.F.);
#402=EDGE_CURVE('',#471,#451,#71,.T.);
#403=EDGE_CURVE('',#477,#487,#72,.F.);
#404=EDGE_CURVE('',#488,#487,#73,.T.);
#405=EDGE_CURVE('',#488,#445,#74,.T.);
#406=EDGE_CURVE('',#444,#478,#75,.F.);
#407=EDGE_CURVE('',#446,#489,#76,.F.);
#408=EDGE_CURVE('',#490,#489,#77,.T.);
#409=EDGE_CURVE('',#490,#447,#78,.T.);
#410=EDGE_CURVE('',#491,#474,#79,.T.);
#411=EDGE_CURVE('',#473,#449,#80,.F.);
#412=EDGE_CURVE('',#448,#492,#81,.F.);
#413=EDGE_CURVE('',#491,#492,#82,.T.);
#414=EDGE_CURVE('',#450,#472,#83,.T.);
#415=EDGE_CURVE('',#469,#453,#84,.T.);
#416=EDGE_CURVE('',#492,#490,#520,.F.);
#417=EDGE_CURVE('',#489,#488,#521,.F.);
#418=EDGE_CURVE('',#485,#493,#522,.F.);
#419=EDGE_CURVE('',#493,#491,#523,.T.);
#420=EDGE_CURVE('',#494,#487,#524,.F.);
#421=EDGE_CURVE('',#494,#486,#525,.F.);
#422=EDGE_CURVE('',#495,#495,#526,.T.);
#423=EDGE_CURVE('',#496,#481,#527,.T.);
#424=EDGE_CURVE('',#496,#494,#85,.T.);
#425=EDGE_CURVE('',#482,#497,#528,.T.);
#426=EDGE_CURVE('',#493,#497,#86,.F.);
#427=EDGE_CURVE('',#497,#483,#529,.T.);
#428=EDGE_CURVE('',#484,#496,#530,.T.);
#429=EDGE_CURVE('',#498,#498,#531,.T.);
#430=EDGE_CURVE('',#467,#466,#12,.T.);
#431=EDGE_CURVE('',#468,#454,#87,.T.);
#432=EDGE_CURVE('',#462,#440,#88,.T.);
#433=EDGE_CURVE('',#461,#439,#89,.T.);
#434=VERTEX_POINT('',#966);
#435=VERTEX_POINT('',#968);
#436=VERTEX_POINT('',#970);
#437=VERTEX_POINT('',#972);
#438=VERTEX_POINT('',#973);
#439=VERTEX_POINT('',#975);
#440=VERTEX_POINT('',#977);
#441=VERTEX_POINT('',#979);
#442=VERTEX_POINT('',#981);
#443=VERTEX_POINT('',#983);
#444=VERTEX_POINT('',#985);
#445=VERTEX_POINT('',#987);
#446=VERTEX_POINT('',#989);
#447=VERTEX_POINT('',#991);
#448=VERTEX_POINT('',#993);
#449=VERTEX_POINT('',#995);
#450=VERTEX_POINT('',#997);
#451=VERTEX_POINT('',#999);
#452=VERTEX_POINT('',#1001);
#453=VERTEX_POINT('',#1003);
#454=VERTEX_POINT('',#1005);
#455=VERTEX_POINT('',#1009);
#456=VERTEX_POINT('',#1010);
#457=VERTEX_POINT('',#1012);
#458=VERTEX_POINT('',#1014);
#459=VERTEX_POINT('',#1016);
#460=VERTEX_POINT('',#1018);
#461=VERTEX_POINT('',#1022);
#462=VERTEX_POINT('',#1024);
#463=VERTEX_POINT('',#1029);
#464=VERTEX_POINT('',#1031);
#465=VERTEX_POINT('',#1035);
#466=VERTEX_POINT('',#1040);
#467=VERTEX_POINT('',#1044);
#468=VERTEX_POINT('',#1046);
#469=VERTEX_POINT('',#1048);
#470=VERTEX_POINT('',#1050);
#471=VERTEX_POINT('',#1052);
#472=VERTEX_POINT('',#1054);
#473=VERTEX_POINT('',#1056);
#474=VERTEX_POINT('',#1058);
#475=VERTEX_POINT('',#1060);
#476=VERTEX_POINT('',#1062);
#477=VERTEX_POINT('',#1064);
#478=VERTEX_POINT('',#1066);
#479=VERTEX_POINT('',#1068);
#480=VERTEX_POINT('',#1071);
#481=VERTEX_POINT('',#1076);
#482=VERTEX_POINT('',#1077);
#483=VERTEX_POINT('',#1082);
#484=VERTEX_POINT('',#1083);
#485=VERTEX_POINT('',#1085);
#486=VERTEX_POINT('',#1087);
#487=VERTEX_POINT('',#1095);
#488=VERTEX_POINT('',#1097);
#489=VERTEX_POINT('',#1102);
#490=VERTEX_POINT('',#1104);
#491=VERTEX_POINT('',#1108);
#492=VERTEX_POINT('',#1111);
#493=VERTEX_POINT('',#1124);
#494=VERTEX_POINT('',#1127);
#495=VERTEX_POINT('',#1130);
#496=VERTEX_POINT('',#1133);
#497=VERTEX_POINT('',#1137);
#498=VERTEX_POINT('',#1148);
#499=CIRCLE('',#690,0.002);
#500=CIRCLE('',#691,0.00225);
#501=CIRCLE('',#692,0.0025);
#502=CIRCLE('',#693,0.0179508977991);
#503=CIRCLE('',#694,0.004);
#504=CIRCLE('',#695,0.004);
#505=CIRCLE('',#696,0.004);
#506=CIRCLE('',#697,0.006);
#507=CIRCLE('',#698,0.005);
#508=CIRCLE('',#699,0.004);
#509=CIRCLE('',#700,0.0015);
#510=CIRCLE('',#707,0.002);
#511=CIRCLE('',#709,0.002);
#512=CIRCLE('',#711,0.0015);
#513=CIRCLE('',#712,0.004);
#514=CIRCLE('',#713,0.005);
#515=CIRCLE('',#714,0.006);
#516=CIRCLE('',#715,0.004);
#517=CIRCLE('',#716,0.004);
#518=CIRCLE('',#717,0.004);
#519=CIRCLE('',#718,0.0025);
#520=CIRCLE('',#731,0.004);
#521=CIRCLE('',#733,0.004);
#522=CIRCLE('',#735,0.001);
#523=CIRCLE('',#736,0.004);
#524=CIRCLE('',#737,0.004);
#525=CIRCLE('',#738,0.001);
#526=CIRCLE('',#739,0.00225);
#527=CIRCLE('',#741,0.004);
#528=CIRCLE('',#743,0.004);
#529=CIRCLE('',#747,0.001);
#530=CIRCLE('',#749,0.001);
#531=CIRCLE('',#752,0.002);
#532=EDGE_LOOP('',(#149));
#533=EDGE_LOOP('',(#150));
#534=EDGE_LOOP('',(#151));
#535=EDGE_LOOP('',(#152,#153,#154,#155,#156,#157,#158,#159,#160,#161,#162,
#163,#164,#165,#166,#167,#168,#169));
#536=EDGE_LOOP('',(#170,#171,#172,#173,#174,#175));
#537=EDGE_LOOP('',(#176,#177,#178,#179));
#538=EDGE_LOOP('',(#180,#181,#182,#183,#184));
#539=EDGE_LOOP('',(#185,#186,#187,#188));
#540=EDGE_LOOP('',(#189,#190,#191,#192,#193));
#541=EDGE_LOOP('',(#194,#195,#196,#197,#198,#199,#200,#201,#202,#203,#204,
#205,#206,#207,#208,#209));
#542=EDGE_LOOP('',(#210));
#543=EDGE_LOOP('',(#211,#212,#213,#214));
#544=EDGE_LOOP('',(#215,#216,#217,#218));
#545=EDGE_LOOP('',(#219,#220,#221,#222));
#546=EDGE_LOOP('',(#223,#224,#225,#226));
#547=EDGE_LOOP('',(#227));
#548=EDGE_LOOP('',(#228));
#549=EDGE_LOOP('',(#229,#230,#231,#232,#233,#234));
#550=EDGE_LOOP('',(#235,#236,#237,#238));
#551=EDGE_LOOP('',(#239,#240,#241,#242,#243,#244));
#552=EDGE_LOOP('',(#245,#246,#247,#248));
#553=EDGE_LOOP('',(#249,#250,#251,#252));
#554=EDGE_LOOP('',(#253,#254,#255,#256));
#555=EDGE_LOOP('',(#257,#258,#259,#260));
#556=EDGE_LOOP('',(#261,#262,#263,#264));
#557=EDGE_LOOP('',(#265,#266,#267,#268,#269,#270,#271,#272,#273,#274));
#558=EDGE_LOOP('',(#275));
#559=EDGE_LOOP('',(#276,#277,#278,#279,#280,#281));
#560=EDGE_LOOP('',(#282,#283,#284,#285,#286,#287));
#561=EDGE_LOOP('',(#288,#289,#290,#291));
#562=EDGE_LOOP('',(#292));
#563=EDGE_LOOP('',(#293));
#564=EDGE_LOOP('',(#294,#295,#296,#297));
#565=EDGE_LOOP('',(#298,#299,#300,#301));
#566=EDGE_LOOP('',(#302,#303,#304,#305,#306,#307));
#567=EDGE_LOOP('',(#308));
#568=EDGE_LOOP('',(#309));
#569=EDGE_LOOP('',(#310));
#570=EDGE_LOOP('',(#311,#312,#313,#314,#315));
#571=EDGE_LOOP('',(#316,#317,#318,#319));
#572=EDGE_LOOP('',(#320,#321,#322,#323,#324));
#573=EDGE_LOOP('',(#325,#326,#327,#328,#329));
#574=EDGE_LOOP('',(#330,#331,#332,#333));
#575=EDGE_LOOP('',(#334,#335,#336,#337,#338));
#576=FACE_BOUND('',#532,.T.);
#577=FACE_BOUND('',#533,.T.);
#578=FACE_BOUND('',#534,.T.);
#579=FACE_BOUND('',#535,.T.);
#580=FACE_BOUND('',#536,.T.);
#581=FACE_BOUND('',#537,.T.);
#582=FACE_BOUND('',#538,.T.);
#583=FACE_BOUND('',#539,.T.);
#584=FACE_BOUND('',#540,.T.);
#585=FACE_BOUND('',#541,.T.);
#586=FACE_BOUND('',#542,.T.);
#587=FACE_BOUND('',#543,.T.);
#588=FACE_BOUND('',#544,.T.);
#589=FACE_BOUND('',#545,.T.);
#590=FACE_BOUND('',#546,.T.);
#591=FACE_BOUND('',#547,.T.);
#592=FACE_BOUND('',#548,.T.);
#593=FACE_BOUND('',#549,.T.);
#594=FACE_BOUND('',#550,.T.);
#595=FACE_BOUND('',#551,.T.);
#596=FACE_BOUND('',#552,.T.);
#597=FACE_BOUND('',#553,.T.);
#598=FACE_BOUND('',#554,.T.);
#599=FACE_BOUND('',#555,.T.);
#600=FACE_BOUND('',#556,.T.);
#601=FACE_BOUND('',#557,.T.);
#602=FACE_BOUND('',#558,.T.);
#603=FACE_BOUND('',#559,.T.);
#604=FACE_BOUND('',#560,.T.);
#605=FACE_BOUND('',#561,.T.);
#606=FACE_BOUND('',#562,.T.);
#607=FACE_BOUND('',#563,.T.);
#608=FACE_BOUND('',#564,.T.);
#609=FACE_BOUND('',#565,.T.);
#610=FACE_BOUND('',#566,.T.);
#611=FACE_BOUND('',#567,.T.);
#612=FACE_BOUND('',#568,.T.);
#613=FACE_BOUND('',#569,.T.);
#614=FACE_BOUND('',#570,.T.);
#615=FACE_BOUND('',#571,.T.);
#616=FACE_BOUND('',#572,.T.);
#617=FACE_BOUND('',#573,.T.);
#618=FACE_BOUND('',#574,.T.);
#619=FACE_BOUND('',#575,.T.);
#620=PLANE('',#689);
#621=PLANE('',#701);
#622=PLANE('',#703);
#623=PLANE('',#705);
#624=PLANE('',#706);
#625=PLANE('',#708);
#626=PLANE('',#710);
#627=PLANE('',#719);
#628=PLANE('',#720);
#629=PLANE('',#721);
#630=PLANE('',#724);
#631=PLANE('',#725);
#632=PLANE('',#726);
#633=PLANE('',#727);
#634=PLANE('',#734);
#635=PLANE('',#750);
#636=PLANE('',#753);
#637=PLANE('',#755);
#638=PLANE('',#757);
#639=PLANE('',#758);
#640=ADVANCED_FACE('',(#576,#577,#578,#579),#620,.T.);
#641=ADVANCED_FACE('',(#580),#621,.F.);
#642=ADVANCED_FACE('',(#581),#622,.F.);
#643=ADVANCED_FACE('',(#582),#623,.T.);
#644=ADVANCED_FACE('',(#583),#624,.T.);
#645=ADVANCED_FACE('',(#584),#625,.F.);
#646=ADVANCED_FACE('',(#585,#586),#626,.F.);
#647=ADVANCED_FACE('',(#587),#627,.F.);
#648=ADVANCED_FACE('',(#588),#628,.F.);
#649=ADVANCED_FACE('',(#589),#629,.F.);
#650=ADVANCED_FACE('',(#590),#13,.T.);
#651=ADVANCED_FACE('',(#591,#592),#14,.F.);
#652=ADVANCED_FACE('',(#593),#630,.F.);
#653=ADVANCED_FACE('',(#594),#631,.F.);
#654=ADVANCED_FACE('',(#595),#632,.F.);
#655=ADVANCED_FACE('',(#596),#633,.T.);
#656=ADVANCED_FACE('',(#597),#15,.F.);
#657=ADVANCED_FACE('',(#598),#16,.T.);
#658=ADVANCED_FACE('',(#599),#17,.T.);
#659=ADVANCED_FACE('',(#600),#18,.T.);
#660=ADVANCED_FACE('',(#601,#602),#634,.T.);
#661=ADVANCED_FACE('',(#603),#19,.T.);
#662=ADVANCED_FACE('',(#604),#20,.T.);
#663=ADVANCED_FACE('',(#605),#21,.F.);
#664=ADVANCED_FACE('',(#606,#607),#22,.F.);
#665=ADVANCED_FACE('',(#608),#23,.T.);
#666=ADVANCED_FACE('',(#609),#24,.T.);
#667=ADVANCED_FACE('',(#610),#635,.T.);
#668=ADVANCED_FACE('',(#611,#612),#25,.F.);
#669=ADVANCED_FACE('',(#613),#636,.T.);
#670=ADVANCED_FACE('',(#614),#26,.T.);
#671=ADVANCED_FACE('',(#615),#637,.F.);
#672=ADVANCED_FACE('',(#616),#27,.T.);
#673=ADVANCED_FACE('',(#617),#638,.T.);
#674=ADVANCED_FACE('',(#618),#639,.T.);
#675=ADVANCED_FACE('',(#619),#28,.T.);
#676=CLOSED_SHELL('',(#640,#641,#642,#643,#644,#645,#646,#647,#648,#649,
#650,#651,#652,#653,#654,#655,#656,#657,#658,#659,#660,#661,#662,#663,#664,
#665,#666,#667,#668,#669,#670,#671,#672,#673,#674,#675));
#677=STYLED_ITEM('',(#678),#685);
#678=PRESENTATION_STYLE_ASSIGNMENT((#679));
#679=SURFACE_STYLE_USAGE(.BOTH.,#680);
#680=SURFACE_SIDE_STYLE('',(#681));
#681=SURFACE_STYLE_FILL_AREA(#682);
#682=FILL_AREA_STYLE('',(#683));
#683=FILL_AREA_STYLE_COLOUR('',#684);
#684=DRAUGHTING_PRE_DEFINED_COLOUR('red');
#685=MANIFOLD_SOLID_BREP('Output Lever (1)',#676);
#686=SHAPE_DEFINITION_REPRESENTATION(#1169,#687);
#687=SHAPE_REPRESENTATION('Output Lever (1)',(#688),#1164);
#688=AXIS2_PLACEMENT_3D('',#963,#760,#761);
#689=AXIS2_PLACEMENT_3D('',#964,#762,#763);
#690=AXIS2_PLACEMENT_3D('',#965,#764,#765);
#691=AXIS2_PLACEMENT_3D('',#967,#766,#767);
#692=AXIS2_PLACEMENT_3D('',#969,#768,#769);
#693=AXIS2_PLACEMENT_3D('',#974,#771,#772);
#694=AXIS2_PLACEMENT_3D('',#984,#777,#778);
#695=AXIS2_PLACEMENT_3D('',#988,#780,#781);
#696=AXIS2_PLACEMENT_3D('',#992,#783,#784);
#697=AXIS2_PLACEMENT_3D('',#996,#786,#787);
#698=AXIS2_PLACEMENT_3D('',#1000,#789,#790);
#699=AXIS2_PLACEMENT_3D('',#1002,#791,#792);
#700=AXIS2_PLACEMENT_3D('',#1006,#794,#795);
#701=AXIS2_PLACEMENT_3D('',#1007,#796,#797);
#702=AXIS2_PLACEMENT_3D('',#1008,#798,#799);
#703=AXIS2_PLACEMENT_3D('',#1020,#805,#806);
#704=AXIS2_PLACEMENT_3D('',#1021,#807,#808);
#705=AXIS2_PLACEMENT_3D('',#1026,#811,#812);
#706=AXIS2_PLACEMENT_3D('',#1033,#817,#818);
#707=AXIS2_PLACEMENT_3D('',#1034,#819,#820);
#708=AXIS2_PLACEMENT_3D('',#1037,#822,#823);
#709=AXIS2_PLACEMENT_3D('',#1041,#826,#827);
#710=AXIS2_PLACEMENT_3D('',#1042,#828,#829);
#711=AXIS2_PLACEMENT_3D('',#1045,#831,#832);
#712=AXIS2_PLACEMENT_3D('',#1049,#834,#835);
#713=AXIS2_PLACEMENT_3D('',#1051,#836,#837);
#714=AXIS2_PLACEMENT_3D('',#1055,#839,#840);
#715=AXIS2_PLACEMENT_3D('',#1059,#842,#843);
#716=AXIS2_PLACEMENT_3D('',#1063,#845,#846);
#717=AXIS2_PLACEMENT_3D('',#1067,#848,#849);
#718=AXIS2_PLACEMENT_3D('',#1070,#851,#852);
#719=AXIS2_PLACEMENT_3D('',#1072,#853,#854);
#720=AXIS2_PLACEMENT_3D('',#1074,#856,#857);
#721=AXIS2_PLACEMENT_3D('',#1080,#861,#862);
#722=AXIS2_PLACEMENT_3D('',#1089,#867,#868);
#723=AXIS2_PLACEMENT_3D('',#1092,#871,#872);
#724=AXIS2_PLACEMENT_3D('',#1093,#873,#874);
#725=AXIS2_PLACEMENT_3D('',#1100,#879,#880);
#726=AXIS2_PLACEMENT_3D('',#1106,#884,#885);
#727=AXIS2_PLACEMENT_3D('',#1113,#890,#891);
#728=AXIS2_PLACEMENT_3D('',#1115,#893,#894);
#729=AXIS2_PLACEMENT_3D('',#1117,#896,#897);
#730=AXIS2_PLACEMENT_3D('',#1118,#898,#899);
#731=AXIS2_PLACEMENT_3D('',#1119,#900,#901);
#732=AXIS2_PLACEMENT_3D('',#1120,#902,#903);
#733=AXIS2_PLACEMENT_3D('',#1121,#904,#905);
#734=AXIS2_PLACEMENT_3D('',#1122,#906,#907);
#735=AXIS2_PLACEMENT_3D('',#1123,#908,#909);
#736=AXIS2_PLACEMENT_3D('',#1125,#910,#911);
#737=AXIS2_PLACEMENT_3D('',#1126,#912,#913);
#738=AXIS2_PLACEMENT_3D('',#1128,#914,#915);
#739=AXIS2_PLACEMENT_3D('',#1129,#916,#917);
#740=AXIS2_PLACEMENT_3D('',#1131,#918,#919);
#741=AXIS2_PLACEMENT_3D('',#1132,#920,#921);
#742=AXIS2_PLACEMENT_3D('',#1135,#923,#924);
#743=AXIS2_PLACEMENT_3D('',#1136,#925,#926);
#744=AXIS2_PLACEMENT_3D('',#1139,#928,#929);
#745=AXIS2_PLACEMENT_3D('',#1140,#930,#931);
#746=AXIS2_PLACEMENT_3D('',#1141,#932,#933);
#747=AXIS2_PLACEMENT_3D('',#1142,#934,#935);
#748=AXIS2_PLACEMENT_3D('',#1143,#936,#937);
#749=AXIS2_PLACEMENT_3D('',#1144,#938,#939);
#750=AXIS2_PLACEMENT_3D('',#1145,#940,#941);
#751=AXIS2_PLACEMENT_3D('',#1146,#942,#943);
#752=AXIS2_PLACEMENT_3D('',#1147,#944,#945);
#753=AXIS2_PLACEMENT_3D('',#1149,#946,#947);
#754=AXIS2_PLACEMENT_3D('',#1150,#948,#949);
#755=AXIS2_PLACEMENT_3D('',#1156,#951,#952);
#756=AXIS2_PLACEMENT_3D('',#1157,#953,#954);
#757=AXIS2_PLACEMENT_3D('',#1158,#955,#956);
#758=AXIS2_PLACEMENT_3D('',#1160,#958,#959);
#759=AXIS2_PLACEMENT_3D('',#1162,#961,#962);
#760=DIRECTION('',(0.,0.,1.));
#761=DIRECTION('',(1.,0.,0.));
#762=DIRECTION('',(0.,0.,1.));
#763=DIRECTION('',(0.707106781186547,0.707106781186548,0.));
#764=DIRECTION('',(0.,0.,1.));
#765=DIRECTION('',(1.,0.,0.));
#766=DIRECTION('',(0.,0.,1.));
#767=DIRECTION('',(1.,0.,0.));
#768=DIRECTION('',(0.,0.,1.));
#769=DIRECTION('',(0.707106781186547,0.707106781186548,0.));
#770=DIRECTION('',(-3.32045926111229E-16,1.,0.));
#771=DIRECTION('',(0.,0.,1.));
#772=DIRECTION('',(1.,0.,0.));
#773=DIRECTION('',(-1.,-3.32045926111229E-16,0.));
#774=DIRECTION('',(3.32045926111229E-16,-1.,0.));
#775=DIRECTION('',(0.998499385869312,-0.0547629109763779,0.));
#776=DIRECTION('',(-1.,1.55431223447522E-15,0.));
#777=DIRECTION('',(0.,0.,1.));
#778=DIRECTION('',(0.707106781186547,0.707106781186548,0.));
#779=DIRECTION('',(-0.707106781186547,-0.707106781186548,0.));
#780=DIRECTION('',(0.,0.,1.));
#781=DIRECTION('',(0.707106781186547,0.707106781186548,0.));
#782=DIRECTION('',(0.707106781186548,-0.707106781186547,0.));
#783=DIRECTION('',(0.,0.,1.));
#784=DIRECTION('',(0.707106781186547,0.707106781186548,0.));
#785=DIRECTION('',(0.707106781186547,0.707106781186548,0.));
#786=DIRECTION('',(0.,0.,1.));
#787=DIRECTION('',(1.,0.,0.));
#788=DIRECTION('',(-1.,1.55431223447522E-15,0.));
#789=DIRECTION('',(0.,0.,1.));
#790=DIRECTION('',(0.707106781186547,0.707106781186548,0.));
#791=DIRECTION('',(0.,0.,1.));
#792=DIRECTION('',(0.707106781186547,0.707106781186548,0.));
#793=DIRECTION('',(0.998587765476396,0.053126967171656,0.));
#794=DIRECTION('',(0.,0.,1.));
#795=DIRECTION('',(1.,0.,0.));
#796=DIRECTION('',(1.19208135709772E-16,-0.359010987142303,0.933333333333333));
#797=DIRECTION('',(0.,-0.933333333333333,-0.359010987142303));
#798=DIRECTION('',(1.19208135709772E-16,-0.359010987142303,0.933333333333333));
#799=DIRECTION('',(-3.09909531037147E-16,0.933333333333333,0.359010987142303));
#800=DIRECTION('',(-3.09909531037147E-16,0.933333333333333,0.359010987142303));
#801=DIRECTION('',(-1.,-3.32045926111229E-16,0.));
#802=DIRECTION('',(-3.09909531037147E-16,0.933333333333333,0.359010987142303));
#803=DIRECTION('',(-3.09909531037147E-16,0.933333333333333,0.359010987142303));
#804=DIRECTION('',(-1.,-3.32045926111229E-16,0.));
#805=DIRECTION('',(-3.09909531037147E-16,0.933333333333333,0.359010987142303));
#806=DIRECTION('',(0.,-0.359010987142303,0.933333333333333));
#807=DIRECTION('',(-3.09909531037147E-16,0.933333333333333,0.359010987142303));
#808=DIRECTION('',(1.19208135709772E-16,-0.359010987142303,0.933333333333333));
#809=DIRECTION('',(-1.19208135709772E-16,0.359010987142303,-0.933333333333333));
#810=DIRECTION('',(-1.,-3.32045926111229E-16,0.));
#811=DIRECTION('',(-0.0547629109763779,-0.998499385869312,0.));
#812=DIRECTION('',(0.998499385869312,-0.0547629109763779,0.));
#813=DIRECTION('',(0.,0.,-1.));
#814=DIRECTION('',(0.,0.,-1.));
#815=DIRECTION('',(0.998499385869312,-0.0547629109763779,0.));
#816=DIRECTION('',(0.,0.,1.));
#817=DIRECTION('',(-1.,-3.32045926111229E-16,0.));
#818=DIRECTION('',(3.32045926111229E-16,-1.,0.));
#819=DIRECTION('',(-1.,-3.32045926111229E-16,0.));
#820=DIRECTION('',(3.32045926111229E-16,-1.,0.));
#821=DIRECTION('',(-3.32045926111229E-16,1.,0.));
#822=DIRECTION('',(1.,3.32045926111229E-16,0.));
#823=DIRECTION('',(-3.32045926111229E-16,1.,0.));
#824=DIRECTION('',(0.,0.,1.));
#825=DIRECTION('',(0.,0.,1.));
#826=DIRECTION('',(1.,3.32045926111229E-16,0.));
#827=DIRECTION('',(-3.32045926111229E-16,1.,0.));
#828=DIRECTION('',(0.,0.,1.));
#829=DIRECTION('',(0.707106781186547,0.707106781186548,0.));
#830=DIRECTION('',(-1.,-3.32045926111229E-16,0.));
#831=DIRECTION('',(0.,0.,1.));
#832=DIRECTION('',(1.,0.,0.));
#833=DIRECTION('',(0.998587765476396,0.053126967171656,0.));
#834=DIRECTION('',(0.,0.,1.));
#835=DIRECTION('',(0.707106781186547,0.707106781186548,0.));
#836=DIRECTION('',(0.,0.,1.));
#837=DIRECTION('',(0.707106781186547,0.707106781186548,0.));
#838=DIRECTION('',(-1.,1.55431223447522E-15,0.));
#839=DIRECTION('',(0.,0.,1.));
#840=DIRECTION('',(1.,0.,0.));
#841=DIRECTION('',(0.707106781186547,0.707106781186548,0.));
#842=DIRECTION('',(0.,0.,1.));
#843=DIRECTION('',(1.,0.,0.));
#844=DIRECTION('',(-0.602074979086245,0.798439552851872,0.));
#845=DIRECTION('',(0.,0.,1.));
#846=DIRECTION('',(1.,0.,0.));
#847=DIRECTION('',(0.707106781186547,0.707106781186548,0.));
#848=DIRECTION('',(0.,0.,1.));
#849=DIRECTION('',(1.,0.,0.));
#850=DIRECTION('',(-1.,1.55431223447522E-15,0.));
#851=DIRECTION('',(0.,0.,1.));
#852=DIRECTION('',(0.707106781186547,0.707106781186548,0.));
#853=DIRECTION('',(1.55431223447522E-15,1.,0.));
#854=DIRECTION('',(-1.,1.55431223447522E-15,0.));
#855=DIRECTION('',(0.,0.,1.));
#856=DIRECTION('',(0.798439552851872,0.602074979086245,0.));
#857=DIRECTION('',(-0.602074979086245,0.798439552851872,0.));
#858=DIRECTION('',(-0.602074979086245,0.798439552851872,0.));
#859=DIRECTION('',(0.,0.,1.));
#860=DIRECTION('',(0.,0.,1.));
#861=DIRECTION('',(-0.707106781186548,-0.707106781186548,0.));
#862=DIRECTION('',(0.707106781186548,-0.707106781186548,0.));
#863=DIRECTION('',(0.707106781186548,-0.707106781186548,0.));
#864=DIRECTION('',(0.,0.,-1.));
#865=DIRECTION('',(0.707106781186548,-0.707106781186548,0.));
#866=DIRECTION('',(0.,0.,-1.));
#867=DIRECTION('',(0.,0.,-1.));
#868=DIRECTION('',(-0.707106781186547,-0.707106781186548,0.));
#869=DIRECTION('',(0.,0.,-1.));
#870=DIRECTION('',(0.,0.,1.));
#871=DIRECTION('',(0.,0.,-1.));
#872=DIRECTION('',(-0.707106781186547,-0.707106781186548,0.));
#873=DIRECTION('',(-0.707106781186548,0.707106781186547,0.));
#874=DIRECTION('',(0.,0.,1.));
#875=DIRECTION('',(0.,0.,1.));
#876=DIRECTION('',(-0.707106781186547,-0.707106781186548,0.));
#877=DIRECTION('',(0.,0.,1.));
#878=DIRECTION('',(0.,0.,1.));
#879=DIRECTION('',(-0.707106781186547,-0.707106781186548,0.));
#880=DIRECTION('',(0.,0.,1.));
#881=DIRECTION('',(0.,0.,1.));
#882=DIRECTION('',(0.707106781186548,-0.707106781186547,0.));
#883=DIRECTION('',(0.,0.,1.));
#884=DIRECTION('',(0.707106781186548,-0.707106781186547,0.));
#885=DIRECTION('',(0.,0.,-1.));
#886=DIRECTION('',(0.,0.,1.));
#887=DIRECTION('',(0.,0.,-1.));
#888=DIRECTION('',(0.,0.,1.));
#889=DIRECTION('',(0.707106781186547,0.707106781186548,0.));
#890=DIRECTION('',(1.55431223447522E-15,1.,0.));
#891=DIRECTION('',(-1.,1.55431223447522E-15,0.));
#892=DIRECTION('',(0.,0.,-1.));
#893=DIRECTION('',(0.,0.,-1.));
#894=DIRECTION('',(-0.707106781186547,-0.707106781186548,0.));
#895=DIRECTION('',(0.,0.,1.));
#896=DIRECTION('',(0.,0.,1.));
#897=DIRECTION('',(0.707106781186547,0.707106781186548,0.));
#898=DIRECTION('',(0.,0.,1.));
#899=DIRECTION('',(0.707106781186547,0.707106781186548,0.));
#900=DIRECTION('',(0.,0.,1.));
#901=DIRECTION('',(0.707106781186547,0.707106781186548,0.));
#902=DIRECTION('',(0.,0.,1.));
#903=DIRECTION('',(0.707106781186547,0.707106781186548,0.));
#904=DIRECTION('',(0.,0.,1.));
#905=DIRECTION('',(0.707106781186547,0.707106781186548,0.));
#906=DIRECTION('',(0.,0.,-1.));
#907=DIRECTION('',(1.,0.,0.));
#908=DIRECTION('',(0.,0.,-1.));
#909=DIRECTION('',(-1.,0.,0.));
#910=DIRECTION('',(0.,0.,-1.));
#911=DIRECTION('',(-1.,0.,0.));
#912=DIRECTION('',(0.,0.,-1.));
#913=DIRECTION('',(-1.,0.,0.));
#914=DIRECTION('',(0.,0.,-1.));
#915=DIRECTION('',(-1.,0.,0.));
#916=DIRECTION('',(0.,0.,-1.));
#917=DIRECTION('',(-1.,0.,0.));
#918=DIRECTION('',(0.,0.,1.));
#919=DIRECTION('',(1.,0.,0.));
#920=DIRECTION('',(0.,0.,-1.));
#921=DIRECTION('',(-1.,0.,0.));
#922=DIRECTION('',(0.,0.,1.));
#923=DIRECTION('',(0.,0.,1.));
#924=DIRECTION('',(1.,0.,0.));
#925=DIRECTION('',(0.,0.,-1.));
#926=DIRECTION('',(-1.,0.,0.));
#927=DIRECTION('',(0.,0.,1.));
#928=DIRECTION('',(0.,0.,-1.));
#929=DIRECTION('',(-1.,0.,0.));
#930=DIRECTION('',(0.,0.,1.));
#931=DIRECTION('',(1.,0.,0.));
#932=DIRECTION('',(0.,0.,1.));
#933=DIRECTION('',(1.,0.,0.));
#934=DIRECTION('',(0.,0.,-1.));
#935=DIRECTION('',(-1.,0.,0.));
#936=DIRECTION('',(0.,0.,1.));
#937=DIRECTION('',(1.,0.,0.));
#938=DIRECTION('',(0.,0.,-1.));
#939=DIRECTION('',(-1.,0.,0.));
#940=DIRECTION('',(0.,0.,-1.));
#941=DIRECTION('',(1.,0.,0.));
#942=DIRECTION('',(0.,0.,1.));
#943=DIRECTION('',(1.,0.,0.));
#944=DIRECTION('',(0.,0.,1.));
#945=DIRECTION('',(1.,0.,0.));
#946=DIRECTION('',(0.,0.,1.));
#947=DIRECTION('',(1.,0.,0.));
#948=DIRECTION('',(0.,0.,1.));
#949=DIRECTION('',(1.,0.,0.));
#950=DIRECTION('',(0.,0.,1.));
#951=DIRECTION('',(0.053126967171656,-0.998587765476396,0.));
#952=DIRECTION('',(0.998587765476396,0.053126967171656,0.));
#953=DIRECTION('',(-1.,-3.32045926111229E-16,0.));
#954=DIRECTION('',(3.32045926111229E-16,-1.,0.));
#955=DIRECTION('',(1.,3.32045926111229E-16,0.));
#956=DIRECTION('',(-3.32045926111229E-16,1.,0.));
#957=DIRECTION('',(0.,0.,1.));
#958=DIRECTION('',(3.32045926111229E-16,-1.,0.));
#959=DIRECTION('',(1.,3.32045926111229E-16,0.));
#960=DIRECTION('',(0.,0.,1.));
#961=DIRECTION('',(0.,0.,1.));
#962=DIRECTION('',(1.,0.,0.));
#963=CARTESIAN_POINT('',(0.,0.,0.));
#964=CARTESIAN_POINT('',(0.0141688141870738,0.0498270901055495,0.0537636422514916));
#965=CARTESIAN_POINT('',(0.0320160885909168,0.0556609953962051,0.0537636422514916));
#966=CARTESIAN_POINT('',(0.0340160885909168,0.0556609953962051,0.0537636422514916));
#967=CARTESIAN_POINT('',(0.0376729428404091,0.0613178496456975,0.0537636422514916));
#968=CARTESIAN_POINT('',(0.0399229428404091,0.0613178496456975,0.0537636422514916));
#969=CARTESIAN_POINT('',(0.015,0.0548745839490636,0.0537636422514916));
#970=CARTESIAN_POINT('',(0.0167677669529664,0.05664235090203,0.0537636422514916));
#971=CARTESIAN_POINT('',(-0.0025,0.0535684969445541,0.0537636422514916));
#972=CARTESIAN_POINT('',(-0.0025,0.0508764929303741,0.0537636422514916));
#973=CARTESIAN_POINT('',(-0.0025,0.0548745839490636,0.0537636422514916));
#974=CARTESIAN_POINT('',(0.015,0.0548745839490636,0.0537636422514916));
#975=CARTESIAN_POINT('',(-0.00070278212939867,0.0461764597150484,0.0537636422514916));
#976=CARTESIAN_POINT('',(0.0045,0.0461764597150484,0.0537636422514916));
#977=CARTESIAN_POINT('',(0.0045,0.0461764597150484,0.0537636422514916));
#978=CARTESIAN_POINT('',(0.0045,0.0485097930483817,0.0537636422514916));
#979=CARTESIAN_POINT('',(0.0045,0.0504592098943745,0.0537636422514916));
#980=CARTESIAN_POINT('',(0.00706163444710642,0.050318716508834,0.0537636422514916));
#981=CARTESIAN_POINT('',(0.0151595620457073,0.0498745839490636,0.0537636422514916));
#982=CARTESIAN_POINT('',(0.025,0.0498745839490636,0.0537636422514916));
#983=CARTESIAN_POINT('',(0.0333431457505076,0.0498745839490636,0.0537636422514916));
#984=CARTESIAN_POINT('',(0.0333431457505076,0.0538745839490636,0.0537636422514916));
#985=CARTESIAN_POINT('',(0.0361715728752538,0.0510461568243174,0.0537636422514916));
#986=CARTESIAN_POINT('',(0.0409181394307867,0.0557927233798504,0.0537636422514916));
#987=CARTESIAN_POINT('',(0.0440078517368273,0.058882435685891,0.0537636422514916));
#988=CARTESIAN_POINT('',(0.0411794246120811,0.0617108628106372,0.0537636422514916));
#989=CARTESIAN_POINT('',(0.0440078517368273,0.0645392899353833,0.0537636422514916));
#990=CARTESIAN_POINT('',(0.0424511174334612,0.0660960242387495,0.0537636422514916));
#991=CARTESIAN_POINT('',(0.0408943831300951,0.0676527585421156,0.0537636422514916));
#992=CARTESIAN_POINT('',(0.0380659560053489,0.0648243314173694,0.0537636422514916));
#993=CARTESIAN_POINT('',(0.0352375288806027,0.0676527585421157,0.0537636422514916));
#994=CARTESIAN_POINT('',(0.0332614162480282,0.0656766459095412,0.0537636422514916));
#995=CARTESIAN_POINT('',(0.0292167136004313,0.0616319432619443,0.0537636422514916));
#996=CARTESIAN_POINT('',(0.024974072913312,0.0658745839490636,0.0537636422514916));
#997=CARTESIAN_POINT('',(0.024974072913312,0.0598745839490636,0.0537636422514916));
#998=CARTESIAN_POINT('',(0.0175,0.0598745839490636,0.0537636422514916));
#999=CARTESIAN_POINT('',(0.015,0.0598745839490636,0.0537636422514916));
#1000=CARTESIAN_POINT('',(0.015,0.0548745839490636,0.0537636422514916));
#1001=CARTESIAN_POINT('',(0.0112732200375004,0.0582079172823969,0.0537636422514916));
#1002=CARTESIAN_POINT('',(0.00829179606750063,0.0608745839490636,0.0537636422514916));
#1003=CARTESIAN_POINT('',(0.00850430393618726,0.056880232887158,0.0537636422514916));
#1004=CARTESIAN_POINT('',(0.00388845210443705,0.056634659871733,0.0537636422514916));
#1005=CARTESIAN_POINT('',(-0.000999999999999985,0.0563745839490636,0.0537636422514916));
#1006=CARTESIAN_POINT('',(-0.000999999999999973,0.0548745839490636,0.0537636422514916));
#1007=CARTESIAN_POINT('',(0.0025,0.048375923336644,0.0452505653414954));
#1008=CARTESIAN_POINT('',(0.015,0.0548745839490636,0.0477503052288893));
#1009=CARTESIAN_POINT('',(-0.0025,0.0508764929303741,0.046212421011063));
#1010=CARTESIAN_POINT('',(-0.00173326453619612,0.048375923336644,0.0452505653414954));
#1011=CARTESIAN_POINT('',(-0.0025,0.048375923336644,0.0452505653414954));
#1012=CARTESIAN_POINT('',(-0.0025,0.0530425900033107,0.047045620277207));
#1013=CARTESIAN_POINT('',(0.0025,0.0530425900033107,0.047045620277207));
#1014=CARTESIAN_POINT('',(0.0045,0.0530425900033107,0.047045620277207));
#1015=CARTESIAN_POINT('',(0.0045,0.048375923336644,0.0452505653414954));
#1016=CARTESIAN_POINT('',(0.0045,0.0504592098943745,0.0460519111596288));
#1017=CARTESIAN_POINT('',(0.0045,0.048375923336644,0.0452505653414954));
#1018=CARTESIAN_POINT('',(0.0045,0.048375923336644,0.0452505653414954));
#1019=CARTESIAN_POINT('',(0.0025,0.048375923336644,0.0452505653414954));
#1020=CARTESIAN_POINT('',(0.0025,0.047522750916832,0.04746858731578));
#1021=CARTESIAN_POINT('',(0.015,0.0548745839490636,0.0283557716197996));
#1022=CARTESIAN_POINT('',(-0.000702782129398668,0.0461764597150484,0.05096858731578));
#1023=CARTESIAN_POINT('',(0.0045,0.047522750916832,0.04746858731578));
#1024=CARTESIAN_POINT('',(0.0045,0.0461764597150484,0.05096858731578));
#1025=CARTESIAN_POINT('',(0.0025,0.0461764597150484,0.05096858731578));
#1026=CARTESIAN_POINT('',(0.00706163444710642,0.050318716508834,0.0287636422514916));
#1027=CARTESIAN_POINT('',(0.0045,0.0504592098943745,0.0287636422514916));
#1028=CARTESIAN_POINT('',(0.0045,0.0504592098943745,0.0287636422514916));
#1029=CARTESIAN_POINT('',(0.0045,0.0504592098943745,0.0457636422514916));
#1030=CARTESIAN_POINT('',(0.0141743824147139,0.0499286163352536,0.0457636422514916));
#1031=CARTESIAN_POINT('',(0.0151595620457073,0.0498745839490636,0.0457636422514916));
#1032=CARTESIAN_POINT('',(0.0151595620457073,0.0498745839490636,0.0287636422514916));
#1033=CARTESIAN_POINT('',(0.0045,0.0514394586272855,0.0497636422514916));
#1034=CARTESIAN_POINT('',(0.0045,0.0549092566699774,0.0477636422514916));
#1035=CARTESIAN_POINT('',(0.0045,0.0549092566699774,0.0457636422514916));
#1036=CARTESIAN_POINT('',(0.0045,0.0498270901055495,0.0457636422514916));
#1037=CARTESIAN_POINT('',(-0.0025,0.0535684969445541,0.0287636422514916));
#1038=CARTESIAN_POINT('',(-0.0025,0.0508764929303741,0.0287636422514916));
#1039=CARTESIAN_POINT('',(-0.0025,0.0548745839490636,0.0287636422514916));
#1040=CARTESIAN_POINT('',(-0.0025,0.0548745839490636,0.0457639428234713));
#1041=CARTESIAN_POINT('',(-0.0025,0.0549092566699774,0.0477636422514916));
#1042=CARTESIAN_POINT('',(0.0141688141870738,0.0498270901055495,0.0457636422514916));
#1043=CARTESIAN_POINT('',(0.0141688141870738,0.0549092566699774,0.0457636422514916));
#1044=CARTESIAN_POINT('',(-0.00249959921393164,0.0549092566699774,0.0457636422514916));
#1045=CARTESIAN_POINT('',(-0.000999999999999973,0.0548745839490636,0.0457636422514916));
#1046=CARTESIAN_POINT('',(-0.000999999999999985,0.0563745839490636,0.0457636422514916));
#1047=CARTESIAN_POINT('',(0.0137786433468651,0.0571608388252746,0.0457636422514916));
#1048=CARTESIAN_POINT('',(0.00850430393618726,0.056880232887158,0.0457636422514916));
#1049=CARTESIAN_POINT('',(0.00829179606750063,0.0608745839490636,0.0457636422514916));
#1050=CARTESIAN_POINT('',(0.0112732200375004,0.0582079172823969,0.0457636422514916));
#1051=CARTESIAN_POINT('',(0.015,0.0548745839490636,0.0457636422514916));
#1052=CARTESIAN_POINT('',(0.015,0.0598745839490636,0.0457636422514916));
#1053=CARTESIAN_POINT('',(0.0175,0.0598745839490636,0.0457636422514916));
#1054=CARTESIAN_POINT('',(0.024974072913312,0.0598745839490636,0.0457636422514916));
#1055=CARTESIAN_POINT('',(0.024974072913312,0.0658745839490636,0.0457636422514916));
#1056=CARTESIAN_POINT('',(0.0292167136004313,0.0616319432619443,0.0457636422514916));
#1057=CARTESIAN_POINT('',(0.0157903373155551,0.0482055669770681,0.0457636422514916));
#1058=CARTESIAN_POINT('',(0.028974296902377,0.06138952656389,0.0457636422514916));
#1059=CARTESIAN_POINT('',(0.0318027240271231,0.0585610994391438,0.0457636422514916));
#1060=CARTESIAN_POINT('',(0.0286089658157157,0.0561527995227988,0.0457636422514916));
#1061=CARTESIAN_POINT('',(0.0280437986089361,0.0569022939670829,0.0457636422514916));
#1062=CARTESIAN_POINT('',(0.0312858984765855,0.0526027949702041,0.0457636422514916));
#1063=CARTESIAN_POINT('',(0.034479656687993,0.0550110948865491,0.0457636422514916));
#1064=CARTESIAN_POINT('',(0.0373080838127392,0.0521826677618029,0.0457636422514916));
#1065=CARTESIAN_POINT('',(0.0409181394307867,0.0557927233798504,0.0457636422514916));
#1066=CARTESIAN_POINT('',(0.0361715728752538,0.0510461568243174,0.0457636422514916));
#1067=CARTESIAN_POINT('',(0.0333431457505076,0.0538745839490636,0.0457636422514916));
#1068=CARTESIAN_POINT('',(0.0333431457505076,0.0498745839490636,0.0457636422514916));
#1069=CARTESIAN_POINT('',(0.025,0.0498745839490636,0.0457636422514916));
#1070=CARTESIAN_POINT('',(0.015,0.0548745839490636,0.0457636422514916));
#1071=CARTESIAN_POINT('',(0.0167677669529664,0.05664235090203,0.0457636422514916));
#1072=CARTESIAN_POINT('',(0.025,0.0498745839490636,0.0457636422514916));
#1073=CARTESIAN_POINT('',(0.0333431457505076,0.0498745839490636,0.0457636422514916));
#1074=CARTESIAN_POINT('',(0.0280437986089361,0.0569022939670829,0.0307636422514916));
#1075=CARTESIAN_POINT('',(0.0280437986089361,0.0569022939670829,0.0287636422514916));
#1076=CARTESIAN_POINT('',(0.0312858984765855,0.0526027949702041,0.0287636422514916));
#1077=CARTESIAN_POINT('',(0.0286089658157157,0.0561527995227988,0.0287636422514916));
#1078=CARTESIAN_POINT('',(0.0312858984765855,0.0526027949702041,0.0307636422514916));
#1079=CARTESIAN_POINT('',(0.0286089658157157,0.0561527995227988,0.0307636422514916));
#1080=CARTESIAN_POINT('',(0.0352327196324137,0.0549088304487754,0.0257636422514915));
#1081=CARTESIAN_POINT('',(0.0352327196324137,0.0549088304487754,0.0287636422514916));
#1082=CARTESIAN_POINT('',(0.0297344267336867,0.0604071233475024,0.0287636422514916));
#1083=CARTESIAN_POINT('',(0.0368917517416604,0.0532497983395287,0.0287636422514916));
#1084=CARTESIAN_POINT('',(0.0297344267336867,0.0604071233475024,0.0307636422514916));
#1085=CARTESIAN_POINT('',(0.0297344267336867,0.0604071233475024,0.0307636422514916));
#1086=CARTESIAN_POINT('',(0.0352327196324137,0.0549088304487754,0.0307636422514916));
#1087=CARTESIAN_POINT('',(0.0368917517416604,0.0532497983395287,0.0307636422514916));
#1088=CARTESIAN_POINT('',(0.0368917517416604,0.0532497983395287,0.0257636422514915));
#1089=CARTESIAN_POINT('',(0.015,0.0548745839490636,0.0537636422514916));
#1090=CARTESIAN_POINT('',(0.0112732200375004,0.0582079172823969,0.0537636422514916));
#1091=CARTESIAN_POINT('',(0.015,0.0598745839490636,0.0457636422514916));
#1092=CARTESIAN_POINT('',(0.015,0.0548745839490636,0.0537636422514916));
#1093=CARTESIAN_POINT('',(0.0409181394307867,0.0557927233798504,0.0457636422514916));
#1094=CARTESIAN_POINT('',(0.0373080838127392,0.0521826677618029,0.0457636422514916));
#1095=CARTESIAN_POINT('',(0.0373080838127392,0.0521826677618029,0.0307636422514916));
#1096=CARTESIAN_POINT('',(0.0409181394307867,0.0557927233798504,0.0307636422514916));
#1097=CARTESIAN_POINT('',(0.0440078517368273,0.058882435685891,0.0307636422514916));
#1098=CARTESIAN_POINT('',(0.0440078517368273,0.058882435685891,0.0457636422514916));
#1099=CARTESIAN_POINT('',(0.0361715728752538,0.0510461568243174,0.0457636422514916));
#1100=CARTESIAN_POINT('',(0.0424511174334612,0.0660960242387495,0.0457636422514916));
#1101=CARTESIAN_POINT('',(0.0440078517368273,0.0645392899353833,0.0457636422514916));
#1102=CARTESIAN_POINT('',(0.0440078517368273,0.0645392899353833,0.0307636422514916));
#1103=CARTESIAN_POINT('',(0.0424511174334612,0.0660960242387495,0.0307636422514916));
#1104=CARTESIAN_POINT('',(0.0408943831300951,0.0676527585421156,0.0307636422514916));
#1105=CARTESIAN_POINT('',(0.0408943831300951,0.0676527585421156,0.0457636422514916));
#1106=CARTESIAN_POINT('',(0.0332614162480282,0.0656766459095412,0.0457636422514916));
#1107=CARTESIAN_POINT('',(0.028974296902377,0.06138952656389,0.0457636422514916));
#1108=CARTESIAN_POINT('',(0.028974296902377,0.06138952656389,0.0307636422514916));
#1109=CARTESIAN_POINT('',(0.0292167136004313,0.0616319432619443,0.0457636422514916));
#1110=CARTESIAN_POINT('',(0.0352375288806027,0.0676527585421157,0.0457636422514916));
#1111=CARTESIAN_POINT('',(0.0352375288806027,0.0676527585421157,0.0307636422514916));
#1112=CARTESIAN_POINT('',(0.0332614162480282,0.0656766459095412,0.0307636422514916));
#1113=CARTESIAN_POINT('',(0.0175,0.0598745839490636,0.0457636422514916));
#1114=CARTESIAN_POINT('',(0.024974072913312,0.0598745839490636,0.0457636422514916));
#1115=CARTESIAN_POINT('',(0.00829179606750063,0.0608745839490636,0.0537636422514916));
#1116=CARTESIAN_POINT('',(0.00850430393618726,0.056880232887158,0.0287636422514916));
#1117=CARTESIAN_POINT('',(0.0333431457505076,0.0538745839490636,0.0457636422514916));
#1118=CARTESIAN_POINT('',(0.0380659560053489,0.0648243314173694,0.0457636422514916));
#1119=CARTESIAN_POINT('',(0.0380659560053489,0.0648243314173694,0.0307636422514916));
#1120=CARTESIAN_POINT('',(0.0411794246120811,0.0617108628106372,0.0457636422514916));
#1121=CARTESIAN_POINT('',(0.0411794246120811,0.0617108628106372,0.0307636422514916));
#1122=CARTESIAN_POINT('',(0.0210897123060406,0.0593494576832165,0.0307636422514916));
#1123=CARTESIAN_POINT('',(0.0290273199525002,0.0597000165663159,0.0307636422514916));
#1124=CARTESIAN_POINT('',(0.0281021852609592,0.0600796556087065,0.0307636422514916));
#1125=CARTESIAN_POINT('',(0.0318027240271231,0.0585610994391438,0.0307636422514916));
#1126=CARTESIAN_POINT('',(0.034479656687993,0.0550110948865491,0.0307636422514916));
#1127=CARTESIAN_POINT('',(0.0367529743846341,0.0517198904489398,0.0307636422514916));
#1128=CARTESIAN_POINT('',(0.0361846449604738,0.0525426915583421,0.0307636422514916));
#1129=CARTESIAN_POINT('',(0.0376729428404091,0.0613178496456975,0.0307636422514916));
#1130=CARTESIAN_POINT('',(0.0354229428404091,0.0613178496456975,0.0307636422514916));
#1131=CARTESIAN_POINT('',(0.034479656687993,0.0550110948865491,0.0307636422514916));
#1132=CARTESIAN_POINT('',(0.034479656687993,0.0550110948865491,0.0287636422514916));
#1133=CARTESIAN_POINT('',(0.0367529743846341,0.0517198904489398,0.0287636422514916));
#1134=CARTESIAN_POINT('',(0.0367529743846341,0.0517198904489398,0.0307636422514916));
#1135=CARTESIAN_POINT('',(0.0318027240271231,0.0585610994391438,0.0457636422514916));
#1136=CARTESIAN_POINT('',(0.0318027240271231,0.0585610994391438,0.0287636422514916));
#1137=CARTESIAN_POINT('',(0.0281021852609592,0.0600796556087065,0.0287636422514916));
#1138=CARTESIAN_POINT('',(0.0281021852609592,0.0600796556087065,0.0457636422514916));
#1139=CARTESIAN_POINT('',(0.024974072913312,0.0658745839490636,0.0457636422514916));
#1140=CARTESIAN_POINT('',(0.0376729428404091,0.0613178496456975,0.0287636422514916));
#1141=CARTESIAN_POINT('',(0.0290273199525002,0.0597000165663159,0.0457636422514916));
#1142=CARTESIAN_POINT('',(0.0290273199525002,0.0597000165663159,0.0287636422514916));
#1143=CARTESIAN_POINT('',(0.0361846449604738,0.0525426915583421,0.0307636422514916));
#1144=CARTESIAN_POINT('',(0.0361846449604738,0.0525426915583421,0.0287636422514916));
#1145=CARTESIAN_POINT('',(0.0356464448879062,0.0579222199115738,0.0287636422514916));
#1146=CARTESIAN_POINT('',(0.0320160885909168,0.0556609953962051,0.0437636422514915));
#1147=CARTESIAN_POINT('',(0.0320160885909168,0.0556609953962051,0.0437636422514915));
#1148=CARTESIAN_POINT('',(0.0340160885909168,0.0556609953962051,0.0437636422514915));
#1149=CARTESIAN_POINT('',(0.0210897123060406,0.0589894225209512,0.0437636422514915));
#1150=CARTESIAN_POINT('',(-0.000999999999999973,0.0548745839490636,0.0287636422514916));
#1151=CARTESIAN_POINT('',(-0.00249959921393164,0.0549092566699774,0.0457636422514916));
#1152=CARTESIAN_POINT('',(-0.00249986642472021,0.05489769977228,0.0457636422514916));
#1153=CARTESIAN_POINT('',(-0.0025,0.054886142198178,0.0457637424153799));
#1154=CARTESIAN_POINT('',(-0.0025,0.0548745839490636,0.0457639428234713));
#1155=CARTESIAN_POINT('',(-0.000999999999999985,0.0563745839490636,0.0287636422514916));
#1156=CARTESIAN_POINT('',(0.00388845210443705,0.056634659871733,0.0287636422514916));
#1157=CARTESIAN_POINT('',(0.0141688141870738,0.0549092566699774,0.0477636422514916));
#1158=CARTESIAN_POINT('',(0.0045,0.047522750916832,0.04746858731578));
#1159=CARTESIAN_POINT('',(0.0045,0.0461764597150484,0.0523661147836358));
#1160=CARTESIAN_POINT('',(0.0045,0.0461764597150484,0.0523661147836358));
#1161=CARTESIAN_POINT('',(-0.00070278212939867,0.0461764597150484,0.0287636422514916));
#1162=CARTESIAN_POINT('',(0.015,0.0548745839490636,0.0287636422514916));
#1163=MECHANICAL_DESIGN_GEOMETRIC_PRESENTATION_REPRESENTATION('',(#677),
#1164);
#1164=(
GEOMETRIC_REPRESENTATION_CONTEXT(3)
GLOBAL_UNCERTAINTY_ASSIGNED_CONTEXT((#1165))
GLOBAL_UNIT_ASSIGNED_CONTEXT((#1168,#1167,#1166))
REPRESENTATION_CONTEXT('Output Lever (1)','TOP_LEVEL_ASSEMBLY_PART')
);
#1165=UNCERTAINTY_MEASURE_WITH_UNIT(LENGTH_MEASURE(2.E-5),#1168,
'DISTANCE_ACCURACY_VALUE','Maximum Tolerance applied to model');
#1166=(
NAMED_UNIT(*)
SI_UNIT($,.STERADIAN.)
SOLID_ANGLE_UNIT()
);
#1167=(
NAMED_UNIT(*)
PLANE_ANGLE_UNIT()
SI_UNIT($,.RADIAN.)
);
#1168=(
LENGTH_UNIT()
NAMED_UNIT(*)
SI_UNIT($,.METRE.)
);
#1169=PRODUCT_DEFINITION_SHAPE('','',#1170);
#1170=PRODUCT_DEFINITION('','',#1172,#1171);
#1171=PRODUCT_DEFINITION_CONTEXT('',#1178,'design');
#1172=PRODUCT_DEFINITION_FORMATION_WITH_SPECIFIED_SOURCE('','',#1174,
 .NOT_KNOWN.);
#1173=PRODUCT_RELATED_PRODUCT_CATEGORY('','',(#1174));
#1174=PRODUCT('Output Lever (1)','Output Lever (1)','Output Lever (1)',
(#1176));
#1175=PRODUCT_CATEGORY('','');
#1176=PRODUCT_CONTEXT('',#1178,'mechanical');
#1177=APPLICATION_PROTOCOL_DEFINITION('international standard',
'ap242_managed_model_based_3d_engineering',2020,#1178);
#1178=APPLICATION_CONTEXT('managed model based 3d engineering');
ENDSEC;
END-ISO-10303-21;
