ISO-10303-21;
HEADER;
/* Generated by software containing ST-Developer
 * from STEP Tools, Inc. (www.steptools.com) 
 */
/* OPTION: using custom renumber hook */

FILE_DESCRIPTION(
/* description */ ('STEP AP242 Edition 2',
'CAx-IF Rec.Pracs.---Representation and Presentation of Product Manufa
cturing Information (PMI)---4.0---2014-10-13',
'CAx-IF Rec.Pracs.---3D Tessellated Geometry---0.4---2014-09-14','2;1',
'CAx-IF Rec.Pracs.---User Defined Attributes---1.5---2016-08-15'),
/* implementation_level */ '2;1');

FILE_NAME(
/* name */ 'Assembly 1 - Reload Shute',
/* time_stamp */ '2026-07-14T16:54:42Z',
/* author */ (''),
/* organization */ (''),
/* preprocessor_version */ 'ST-DEVELOPER v20',
/* originating_system */ 'ONSHAPE BY PTC INC, 1.217',
/* authorisation */ '  ');

FILE_SCHEMA (('AP242_MANAGED_MODEL_BASED_3D_ENGINEERING_MIM_LF { 1 0 10303 442 3 1 4 }'));
ENDSEC;

DATA;
#10=SHAPE_REPRESENTATION_RELATIONSHIP('','',#526,#11);
#11=ADVANCED_BREP_SHAPE_REPRESENTATION('',(#524),#872);
#12=CYLINDRICAL_SURFACE('',#533,0.002);
#13=CYLINDRICAL_SURFACE('',#547,0.002);
#14=CYLINDRICAL_SURFACE('',#549,0.002);
#15=CYLINDRICAL_SURFACE('',#557,0.002);
#16=CYLINDRICAL_SURFACE('',#560,0.002);
#17=CYLINDRICAL_SURFACE('',#562,0.00199999999999998);
#18=CYLINDRICAL_SURFACE('',#565,0.002);
#19=CYLINDRICAL_SURFACE('',#567,0.002);
#20=CYLINDRICAL_SURFACE('',#569,0.002);
#21=CYLINDRICAL_SURFACE('',#572,0.002);
#22=CIRCLE('',#531,0.002);
#23=CIRCLE('',#532,0.002);
#24=CIRCLE('',#534,0.002);
#25=CIRCLE('',#535,0.002);
#26=CIRCLE('',#537,0.002);
#27=CIRCLE('',#538,0.002);
#28=CIRCLE('',#545,0.002);
#29=CIRCLE('',#546,0.002);
#30=CIRCLE('',#548,0.002);
#31=CIRCLE('',#550,0.002);
#32=CIRCLE('',#554,0.002);
#33=CIRCLE('',#555,0.002);
#34=CIRCLE('',#556,0.002);
#35=CIRCLE('',#558,0.002);
#36=CIRCLE('',#561,0.002);
#37=CIRCLE('',#563,0.002);
#38=CIRCLE('',#566,0.002);
#39=CIRCLE('',#568,0.002);
#40=CIRCLE('',#570,0.002);
#41=CIRCLE('',#573,0.002);
#42=ORIENTED_EDGE('',*,*,#164,.F.);
#43=ORIENTED_EDGE('',*,*,#165,.T.);
#44=ORIENTED_EDGE('',*,*,#166,.T.);
#45=ORIENTED_EDGE('',*,*,#167,.F.);
#46=ORIENTED_EDGE('',*,*,#166,.F.);
#47=ORIENTED_EDGE('',*,*,#168,.T.);
#48=ORIENTED_EDGE('',*,*,#169,.F.);
#49=ORIENTED_EDGE('',*,*,#170,.T.);
#50=ORIENTED_EDGE('',*,*,#171,.T.);
#51=ORIENTED_EDGE('',*,*,#172,.T.);
#52=ORIENTED_EDGE('',*,*,#164,.T.);
#53=ORIENTED_EDGE('',*,*,#173,.T.);
#54=ORIENTED_EDGE('',*,*,#174,.F.);
#55=ORIENTED_EDGE('',*,*,#175,.F.);
#56=ORIENTED_EDGE('',*,*,#176,.T.);
#57=ORIENTED_EDGE('',*,*,#177,.T.);
#58=ORIENTED_EDGE('',*,*,#178,.T.);
#59=ORIENTED_EDGE('',*,*,#179,.T.);
#60=ORIENTED_EDGE('',*,*,#180,.T.);
#61=ORIENTED_EDGE('',*,*,#181,.F.);
#62=ORIENTED_EDGE('',*,*,#182,.F.);
#63=ORIENTED_EDGE('',*,*,#183,.F.);
#64=ORIENTED_EDGE('',*,*,#184,.F.);
#65=ORIENTED_EDGE('',*,*,#185,.F.);
#66=ORIENTED_EDGE('',*,*,#185,.T.);
#67=ORIENTED_EDGE('',*,*,#186,.F.);
#68=ORIENTED_EDGE('',*,*,#187,.T.);
#69=ORIENTED_EDGE('',*,*,#174,.T.);
#70=ORIENTED_EDGE('',*,*,#188,.F.);
#71=ORIENTED_EDGE('',*,*,#169,.T.);
#72=ORIENTED_EDGE('',*,*,#189,.F.);
#73=ORIENTED_EDGE('',*,*,#190,.T.);
#74=ORIENTED_EDGE('',*,*,#191,.T.);
#75=ORIENTED_EDGE('',*,*,#192,.F.);
#76=ORIENTED_EDGE('',*,*,#193,.T.);
#77=ORIENTED_EDGE('',*,*,#194,.T.);
#78=ORIENTED_EDGE('',*,*,#195,.F.);
#79=ORIENTED_EDGE('',*,*,#186,.T.);
#80=ORIENTED_EDGE('',*,*,#196,.F.);
#81=ORIENTED_EDGE('',*,*,#197,.F.);
#82=ORIENTED_EDGE('',*,*,#198,.T.);
#83=ORIENTED_EDGE('',*,*,#199,.F.);
#84=ORIENTED_EDGE('',*,*,#200,.T.);
#85=ORIENTED_EDGE('',*,*,#201,.T.);
#86=ORIENTED_EDGE('',*,*,#193,.F.);
#87=ORIENTED_EDGE('',*,*,#202,.T.);
#88=ORIENTED_EDGE('',*,*,#181,.T.);
#89=ORIENTED_EDGE('',*,*,#184,.T.);
#90=ORIENTED_EDGE('',*,*,#173,.F.);
#91=ORIENTED_EDGE('',*,*,#167,.T.);
#92=ORIENTED_EDGE('',*,*,#170,.F.);
#93=ORIENTED_EDGE('',*,*,#188,.T.);
#94=ORIENTED_EDGE('',*,*,#201,.F.);
#95=ORIENTED_EDGE('',*,*,#180,.F.);
#96=ORIENTED_EDGE('',*,*,#203,.F.);
#97=ORIENTED_EDGE('',*,*,#194,.F.);
#98=ORIENTED_EDGE('',*,*,#204,.F.);
#99=ORIENTED_EDGE('',*,*,#177,.F.);
#100=ORIENTED_EDGE('',*,*,#205,.T.);
#101=ORIENTED_EDGE('',*,*,#198,.F.);
#102=ORIENTED_EDGE('',*,*,#206,.F.);
#103=ORIENTED_EDGE('',*,*,#207,.F.);
#104=ORIENTED_EDGE('',*,*,#200,.F.);
#105=ORIENTED_EDGE('',*,*,#208,.F.);
#106=ORIENTED_EDGE('',*,*,#175,.T.);
#107=ORIENTED_EDGE('',*,*,#187,.F.);
#108=ORIENTED_EDGE('',*,*,#191,.F.);
#109=ORIENTED_EDGE('',*,*,#209,.F.);
#110=ORIENTED_EDGE('',*,*,#190,.F.);
#111=ORIENTED_EDGE('',*,*,#210,.F.);
#112=ORIENTED_EDGE('',*,*,#210,.T.);
#113=ORIENTED_EDGE('',*,*,#209,.T.);
#114=ORIENTED_EDGE('',*,*,#211,.F.);
#115=ORIENTED_EDGE('',*,*,#212,.F.);
#116=ORIENTED_EDGE('',*,*,#213,.F.);
#117=ORIENTED_EDGE('',*,*,#205,.F.);
#118=ORIENTED_EDGE('',*,*,#176,.F.);
#119=ORIENTED_EDGE('',*,*,#208,.T.);
#120=ORIENTED_EDGE('',*,*,#199,.T.);
#121=ORIENTED_EDGE('',*,*,#214,.F.);
#122=ORIENTED_EDGE('',*,*,#213,.T.);
#123=ORIENTED_EDGE('',*,*,#214,.T.);
#124=ORIENTED_EDGE('',*,*,#211,.T.);
#125=ORIENTED_EDGE('',*,*,#215,.F.);
#126=ORIENTED_EDGE('',*,*,#216,.F.);
#127=ORIENTED_EDGE('',*,*,#217,.T.);
#128=ORIENTED_EDGE('',*,*,#212,.T.);
#129=ORIENTED_EDGE('',*,*,#217,.F.);
#130=ORIENTED_EDGE('',*,*,#218,.F.);
#131=ORIENTED_EDGE('',*,*,#215,.T.);
#132=ORIENTED_EDGE('',*,*,#216,.T.);
#133=ORIENTED_EDGE('',*,*,#218,.T.);
#134=ORIENTED_EDGE('',*,*,#219,.T.);
#135=ORIENTED_EDGE('',*,*,#207,.T.);
#136=ORIENTED_EDGE('',*,*,#220,.T.);
#137=ORIENTED_EDGE('',*,*,#206,.T.);
#138=ORIENTED_EDGE('',*,*,#221,.F.);
#139=ORIENTED_EDGE('',*,*,#183,.T.);
#140=ORIENTED_EDGE('',*,*,#221,.T.);
#141=ORIENTED_EDGE('',*,*,#222,.F.);
#142=ORIENTED_EDGE('',*,*,#182,.T.);
#143=ORIENTED_EDGE('',*,*,#222,.T.);
#144=ORIENTED_EDGE('',*,*,#220,.F.);
#145=ORIENTED_EDGE('',*,*,#219,.F.);
#146=ORIENTED_EDGE('',*,*,#197,.T.);
#147=ORIENTED_EDGE('',*,*,#223,.T.);
#148=ORIENTED_EDGE('',*,*,#171,.F.);
#149=ORIENTED_EDGE('',*,*,#204,.T.);
#150=ORIENTED_EDGE('',*,*,#179,.F.);
#151=ORIENTED_EDGE('',*,*,#224,.F.);
#152=ORIENTED_EDGE('',*,*,#195,.T.);
#153=ORIENTED_EDGE('',*,*,#203,.T.);
#154=ORIENTED_EDGE('',*,*,#202,.F.);
#155=ORIENTED_EDGE('',*,*,#192,.T.);
#156=ORIENTED_EDGE('',*,*,#224,.T.);
#157=ORIENTED_EDGE('',*,*,#178,.F.);
#158=ORIENTED_EDGE('',*,*,#172,.F.);
#159=ORIENTED_EDGE('',*,*,#223,.F.);
#160=ORIENTED_EDGE('',*,*,#196,.T.);
#161=ORIENTED_EDGE('',*,*,#189,.T.);
#162=ORIENTED_EDGE('',*,*,#168,.F.);
#163=ORIENTED_EDGE('',*,*,#165,.F.);
#164=EDGE_CURVE('',#225,#226,#271,.T.);
#165=EDGE_CURVE('',#225,#227,#272,.T.);
#166=EDGE_CURVE('',#227,#228,#273,.T.);
#167=EDGE_CURVE('',#226,#228,#274,.T.);
#168=EDGE_CURVE('',#227,#229,#275,.T.);
#169=EDGE_CURVE('',#230,#229,#276,.T.);
#170=EDGE_CURVE('',#230,#228,#277,.T.);
#171=EDGE_CURVE('',#231,#232,#278,.T.);
#172=EDGE_CURVE('',#232,#225,#279,.T.);
#173=EDGE_CURVE('',#226,#233,#280,.T.);
#174=EDGE_CURVE('',#234,#233,#281,.T.);
#175=EDGE_CURVE('',#235,#234,#282,.T.);
#176=EDGE_CURVE('',#235,#236,#283,.T.);
#177=EDGE_CURVE('',#236,#231,#284,.T.);
#178=EDGE_CURVE('',#237,#238,#285,.T.);
#179=EDGE_CURVE('',#238,#239,#286,.T.);
#180=EDGE_CURVE('',#239,#240,#287,.T.);
#181=EDGE_CURVE('',#237,#240,#288,.T.);
#182=EDGE_CURVE('',#241,#241,#22,.T.);
#183=EDGE_CURVE('',#242,#242,#23,.T.);
#184=EDGE_CURVE('',#243,#243,#24,.T.);
#185=EDGE_CURVE('',#244,#244,#25,.F.);
#186=EDGE_CURVE('',#245,#246,#289,.T.);
#187=EDGE_CURVE('',#245,#234,#290,.T.);
#188=EDGE_CURVE('',#230,#233,#291,.T.);
#189=EDGE_CURVE('',#246,#229,#292,.T.);
#190=EDGE_CURVE('',#247,#247,#26,.F.);
#191=EDGE_CURVE('',#248,#248,#27,.F.);
#192=EDGE_CURVE('',#249,#250,#293,.T.);
#193=EDGE_CURVE('',#249,#251,#294,.T.);
#194=EDGE_CURVE('',#251,#252,#295,.T.);
#195=EDGE_CURVE('',#250,#252,#296,.T.);
#196=EDGE_CURVE('',#253,#246,#297,.T.);
#197=EDGE_CURVE('',#254,#253,#298,.T.);
#198=EDGE_CURVE('',#254,#255,#299,.T.);
#199=EDGE_CURVE('',#256,#255,#300,.T.);
#200=EDGE_CURVE('',#256,#245,#301,.T.);
#201=EDGE_CURVE('',#240,#251,#302,.T.);
#202=EDGE_CURVE('',#249,#237,#303,.T.);
#203=EDGE_CURVE('',#252,#239,#304,.T.);
#204=EDGE_CURVE('',#231,#254,#305,.T.);
#205=EDGE_CURVE('',#236,#255,#306,.T.);
#206=EDGE_CURVE('',#257,#257,#28,.T.);
#207=EDGE_CURVE('',#258,#258,#29,.T.);
#208=EDGE_CURVE('',#235,#256,#307,.T.);
#209=EDGE_CURVE('',#259,#259,#30,.T.);
#210=EDGE_CURVE('',#260,#260,#31,.T.);
#211=EDGE_CURVE('',#261,#262,#32,.T.);
#212=EDGE_CURVE('',#262,#261,#33,.T.);
#213=EDGE_CURVE('',#263,#263,#34,.T.);
#214=EDGE_CURVE('',#264,#264,#35,.T.);
#215=EDGE_CURVE('',#265,#262,#308,.T.);
#216=EDGE_CURVE('',#266,#265,#36,.T.);
#217=EDGE_CURVE('',#266,#261,#309,.T.);
#218=EDGE_CURVE('',#265,#266,#37,.T.);
#219=EDGE_CURVE('',#267,#267,#38,.F.);
#220=EDGE_CURVE('',#268,#268,#39,.F.);
#221=EDGE_CURVE('',#269,#269,#40,.T.);
#222=EDGE_CURVE('',#270,#270,#41,.T.);
#223=EDGE_CURVE('',#253,#232,#310,.T.);
#224=EDGE_CURVE('',#250,#238,#311,.T.);
#225=VERTEX_POINT('',#733);
#226=VERTEX_POINT('',#734);
#227=VERTEX_POINT('',#736);
#228=VERTEX_POINT('',#738);
#229=VERTEX_POINT('',#742);
#230=VERTEX_POINT('',#744);
#231=VERTEX_POINT('',#748);
#232=VERTEX_POINT('',#749);
#233=VERTEX_POINT('',#752);
#234=VERTEX_POINT('',#754);
#235=VERTEX_POINT('',#756);
#236=VERTEX_POINT('',#758);
#237=VERTEX_POINT('',#761);
#238=VERTEX_POINT('',#762);
#239=VERTEX_POINT('',#764);
#240=VERTEX_POINT('',#766);
#241=VERTEX_POINT('',#769);
#242=VERTEX_POINT('',#771);
#243=VERTEX_POINT('',#774);
#244=VERTEX_POINT('',#776);
#245=VERTEX_POINT('',#779);
#246=VERTEX_POINT('',#780);
#247=VERTEX_POINT('',#785);
#248=VERTEX_POINT('',#787);
#249=VERTEX_POINT('',#790);
#250=VERTEX_POINT('',#791);
#251=VERTEX_POINT('',#793);
#252=VERTEX_POINT('',#795);
#253=VERTEX_POINT('',#798);
#254=VERTEX_POINT('',#800);
#255=VERTEX_POINT('',#802);
#256=VERTEX_POINT('',#804);
#257=VERTEX_POINT('',#817);
#258=VERTEX_POINT('',#819);
#259=VERTEX_POINT('',#823);
#260=VERTEX_POINT('',#826);
#261=VERTEX_POINT('',#831);
#262=VERTEX_POINT('',#832);
#263=VERTEX_POINT('',#835);
#264=VERTEX_POINT('',#838);
#265=VERTEX_POINT('',#842);
#266=VERTEX_POINT('',#844);
#267=VERTEX_POINT('',#851);
#268=VERTEX_POINT('',#854);
#269=VERTEX_POINT('',#857);
#270=VERTEX_POINT('',#861);
#271=LINE('',#732,#312);
#272=LINE('',#735,#313);
#273=LINE('',#737,#314);
#274=LINE('',#739,#315);
#275=LINE('',#741,#316);
#276=LINE('',#743,#317);
#277=LINE('',#745,#318);
#278=LINE('',#747,#319);
#279=LINE('',#750,#320);
#280=LINE('',#751,#321);
#281=LINE('',#753,#322);
#282=LINE('',#755,#323);
#283=LINE('',#757,#324);
#284=LINE('',#759,#325);
#285=LINE('',#760,#326);
#286=LINE('',#763,#327);
#287=LINE('',#765,#328);
#288=LINE('',#767,#329);
#289=LINE('',#778,#330);
#290=LINE('',#781,#331);
#291=LINE('',#782,#332);
#292=LINE('',#783,#333);
#293=LINE('',#789,#334);
#294=LINE('',#792,#335);
#295=LINE('',#794,#336);
#296=LINE('',#796,#337);
#297=LINE('',#797,#338);
#298=LINE('',#799,#339);
#299=LINE('',#801,#340);
#300=LINE('',#803,#341);
#301=LINE('',#805,#342);
#302=LINE('',#807,#343);
#303=LINE('',#808,#344);
#304=LINE('',#811,#345);
#305=LINE('',#813,#346);
#306=LINE('',#814,#347);
#307=LINE('',#820,#348);
#308=LINE('',#841,#349);
#309=LINE('',#845,#350);
#310=LINE('',#866,#351);
#311=LINE('',#868,#352);
#312=VECTOR('',#585,1.);
#313=VECTOR('',#586,1.);
#314=VECTOR('',#587,1.);
#315=VECTOR('',#588,1.);
#316=VECTOR('',#591,1.);
#317=VECTOR('',#592,1.);
#318=VECTOR('',#593,1.);
#319=VECTOR('',#596,1.);
#320=VECTOR('',#597,1.);
#321=VECTOR('',#598,1.);
#322=VECTOR('',#599,1.);
#323=VECTOR('',#600,1.);
#324=VECTOR('',#601,1.);
#325=VECTOR('',#602,1.);
#326=VECTOR('',#603,1.);
#327=VECTOR('',#604,1.);
#328=VECTOR('',#605,1.);
#329=VECTOR('',#606,1.);
#330=VECTOR('',#619,1.);
#331=VECTOR('',#620,1.);
#332=VECTOR('',#621,1.);
#333=VECTOR('',#622,1.);
#334=VECTOR('',#629,1.);
#335=VECTOR('',#630,1.);
#336=VECTOR('',#631,1.);
#337=VECTOR('',#632,1.);
#338=VECTOR('',#633,1.);
#339=VECTOR('',#634,1.);
#340=VECTOR('',#635,1.);
#341=VECTOR('',#636,1.);
#342=VECTOR('',#637,1.);
#343=VECTOR('',#640,1.);
#344=VECTOR('',#641,1.);
#345=VECTOR('',#646,1.);
#346=VECTOR('',#649,1.);
#347=VECTOR('',#650,1.);
#348=VECTOR('',#657,1.);
#349=VECTOR('',#686,1.);
#350=VECTOR('',#689,1.);
#351=VECTOR('',#722,1.);
#352=VECTOR('',#725,1.);
#353=EDGE_LOOP('',(#42,#43,#44,#45));
#354=EDGE_LOOP('',(#46,#47,#48,#49));
#355=EDGE_LOOP('',(#50,#51,#52,#53,#54,#55,#56,#57));
#356=EDGE_LOOP('',(#58,#59,#60,#61));
#357=EDGE_LOOP('',(#62));
#358=EDGE_LOOP('',(#63));
#359=EDGE_LOOP('',(#64));
#360=EDGE_LOOP('',(#65));
#361=EDGE_LOOP('',(#66));
#362=EDGE_LOOP('',(#67,#68,#69,#70,#71,#72));
#363=EDGE_LOOP('',(#73));
#364=EDGE_LOOP('',(#74));
#365=EDGE_LOOP('',(#75,#76,#77,#78));
#366=EDGE_LOOP('',(#79,#80,#81,#82,#83,#84));
#367=EDGE_LOOP('',(#85,#86,#87,#88));
#368=EDGE_LOOP('',(#89));
#369=EDGE_LOOP('',(#90,#91,#92,#93));
#370=EDGE_LOOP('',(#94,#95,#96,#97));
#371=EDGE_LOOP('',(#98,#99,#100,#101));
#372=EDGE_LOOP('',(#102));
#373=EDGE_LOOP('',(#103));
#374=EDGE_LOOP('',(#104,#105,#106,#107));
#375=EDGE_LOOP('',(#108));
#376=EDGE_LOOP('',(#109));
#377=EDGE_LOOP('',(#110));
#378=EDGE_LOOP('',(#111));
#379=EDGE_LOOP('',(#112));
#380=EDGE_LOOP('',(#113));
#381=EDGE_LOOP('',(#114,#115));
#382=EDGE_LOOP('',(#116));
#383=EDGE_LOOP('',(#117,#118,#119,#120));
#384=EDGE_LOOP('',(#121));
#385=EDGE_LOOP('',(#122));
#386=EDGE_LOOP('',(#123));
#387=EDGE_LOOP('',(#124,#125,#126,#127));
#388=EDGE_LOOP('',(#128,#129,#130,#131));
#389=EDGE_LOOP('',(#132,#133));
#390=EDGE_LOOP('',(#134));
#391=EDGE_LOOP('',(#135));
#392=EDGE_LOOP('',(#136));
#393=EDGE_LOOP('',(#137));
#394=EDGE_LOOP('',(#138));
#395=EDGE_LOOP('',(#139));
#396=EDGE_LOOP('',(#140));
#397=EDGE_LOOP('',(#141));
#398=EDGE_LOOP('',(#142));
#399=EDGE_LOOP('',(#143));
#400=EDGE_LOOP('',(#144));
#401=EDGE_LOOP('',(#145));
#402=EDGE_LOOP('',(#146,#147,#148,#149));
#403=EDGE_LOOP('',(#150,#151,#152,#153));
#404=EDGE_LOOP('',(#154,#155,#156,#157));
#405=EDGE_LOOP('',(#158,#159,#160,#161,#162,#163));
#406=FACE_BOUND('',#353,.T.);
#407=FACE_BOUND('',#354,.T.);
#408=FACE_BOUND('',#355,.T.);
#409=FACE_BOUND('',#356,.T.);
#410=FACE_BOUND('',#357,.T.);
#411=FACE_BOUND('',#358,.T.);
#412=FACE_BOUND('',#359,.T.);
#413=FACE_BOUND('',#360,.T.);
#414=FACE_BOUND('',#361,.T.);
#415=FACE_BOUND('',#362,.T.);
#416=FACE_BOUND('',#363,.T.);
#417=FACE_BOUND('',#364,.T.);
#418=FACE_BOUND('',#365,.T.);
#419=FACE_BOUND('',#366,.T.);
#420=FACE_BOUND('',#367,.T.);
#421=FACE_BOUND('',#368,.T.);
#422=FACE_BOUND('',#369,.T.);
#423=FACE_BOUND('',#370,.T.);
#424=FACE_BOUND('',#371,.T.);
#425=FACE_BOUND('',#372,.T.);
#426=FACE_BOUND('',#373,.T.);
#427=FACE_BOUND('',#374,.T.);
#428=FACE_BOUND('',#375,.T.);
#429=FACE_BOUND('',#376,.T.);
#430=FACE_BOUND('',#377,.T.);
#431=FACE_BOUND('',#378,.T.);
#432=FACE_BOUND('',#379,.T.);
#433=FACE_BOUND('',#380,.T.);
#434=FACE_BOUND('',#381,.T.);
#435=FACE_BOUND('',#382,.T.);
#436=FACE_BOUND('',#383,.T.);
#437=FACE_BOUND('',#384,.T.);
#438=FACE_BOUND('',#385,.T.);
#439=FACE_BOUND('',#386,.T.);
#440=FACE_BOUND('',#387,.T.);
#441=FACE_BOUND('',#388,.T.);
#442=FACE_BOUND('',#389,.T.);
#443=FACE_BOUND('',#390,.T.);
#444=FACE_BOUND('',#391,.T.);
#445=FACE_BOUND('',#392,.T.);
#446=FACE_BOUND('',#393,.T.);
#447=FACE_BOUND('',#394,.T.);
#448=FACE_BOUND('',#395,.T.);
#449=FACE_BOUND('',#396,.T.);
#450=FACE_BOUND('',#397,.T.);
#451=FACE_BOUND('',#398,.T.);
#452=FACE_BOUND('',#399,.T.);
#453=FACE_BOUND('',#400,.T.);
#454=FACE_BOUND('',#401,.T.);
#455=FACE_BOUND('',#402,.T.);
#456=FACE_BOUND('',#403,.T.);
#457=FACE_BOUND('',#404,.T.);
#458=FACE_BOUND('',#405,.T.);
#459=PLANE('',#528);
#460=PLANE('',#529);
#461=PLANE('',#530);
#462=PLANE('',#536);
#463=PLANE('',#539);
#464=PLANE('',#540);
#465=PLANE('',#541);
#466=PLANE('',#542);
#467=PLANE('',#543);
#468=PLANE('',#544);
#469=PLANE('',#551);
#470=PLANE('',#552);
#471=PLANE('',#553);
#472=PLANE('',#559);
#473=PLANE('',#564);
#474=PLANE('',#571);
#475=PLANE('',#574);
#476=PLANE('',#575);
#477=PLANE('',#576);
#478=PLANE('',#577);
#479=PLANE('',#578);
#480=PLANE('',#579);
#481=PLANE('',#580);
#482=ADVANCED_FACE('',(#406),#459,.T.);
#483=ADVANCED_FACE('',(#407),#460,.F.);
#484=ADVANCED_FACE('',(#408,#409,#410,#411),#461,.T.);
#485=ADVANCED_FACE('',(#412,#413),#12,.F.);
#486=ADVANCED_FACE('',(#414,#415,#416,#417),#462,.T.);
#487=ADVANCED_FACE('',(#418,#419),#463,.F.);
#488=ADVANCED_FACE('',(#420,#421),#464,.F.);
#489=ADVANCED_FACE('',(#422),#465,.F.);
#490=ADVANCED_FACE('',(#423),#466,.F.);
#491=ADVANCED_FACE('',(#424),#467,.F.);
#492=ADVANCED_FACE('',(#425,#426,#427),#468,.T.);
#493=ADVANCED_FACE('',(#428,#429),#13,.F.);
#494=ADVANCED_FACE('',(#430,#431),#14,.F.);
#495=ADVANCED_FACE('',(#432),#469,.T.);
#496=ADVANCED_FACE('',(#433),#470,.T.);
#497=ADVANCED_FACE('',(#434,#435,#436),#471,.T.);
#498=ADVANCED_FACE('',(#437,#438),#15,.F.);
#499=ADVANCED_FACE('',(#439),#472,.T.);
#500=ADVANCED_FACE('',(#440),#16,.F.);
#501=ADVANCED_FACE('',(#441),#17,.F.);
#502=ADVANCED_FACE('',(#442),#473,.T.);
#503=ADVANCED_FACE('',(#443,#444),#18,.F.);
#504=ADVANCED_FACE('',(#445,#446),#19,.F.);
#505=ADVANCED_FACE('',(#447,#448),#20,.F.);
#506=ADVANCED_FACE('',(#449),#474,.T.);
#507=ADVANCED_FACE('',(#450,#451),#21,.F.);
#508=ADVANCED_FACE('',(#452),#475,.T.);
#509=ADVANCED_FACE('',(#453),#476,.T.);
#510=ADVANCED_FACE('',(#454),#477,.T.);
#511=ADVANCED_FACE('',(#455),#478,.T.);
#512=ADVANCED_FACE('',(#456),#479,.T.);
#513=ADVANCED_FACE('',(#457),#480,.T.);
#514=ADVANCED_FACE('',(#458),#481,.T.);
#515=CLOSED_SHELL('',(#482,#483,#484,#485,#486,#487,#488,#489,#490,#491,
#492,#493,#494,#495,#496,#497,#498,#499,#500,#501,#502,#503,#504,#505,#506,
#507,#508,#509,#510,#511,#512,#513,#514));
#516=STYLED_ITEM('',(#517),#524);
#517=PRESENTATION_STYLE_ASSIGNMENT((#518));
#518=SURFACE_STYLE_USAGE(.BOTH.,#519);
#519=SURFACE_SIDE_STYLE('',(#520));
#520=SURFACE_STYLE_FILL_AREA(#521);
#521=FILL_AREA_STYLE('',(#522));
#522=FILL_AREA_STYLE_COLOUR('',#523);
#523=COLOUR_RGB('',0.8,0.776470588235294,0.713725490196078);
#524=MANIFOLD_SOLID_BREP('Reload Shute',#515);
#525=SHAPE_DEFINITION_REPRESENTATION(#877,#526);
#526=SHAPE_REPRESENTATION('Reload Shute',(#527),#872);
#527=AXIS2_PLACEMENT_3D('',#730,#581,#582);
#528=AXIS2_PLACEMENT_3D('',#731,#583,#584);
#529=AXIS2_PLACEMENT_3D('',#740,#589,#590);
#530=AXIS2_PLACEMENT_3D('',#746,#594,#595);
#531=AXIS2_PLACEMENT_3D('',#768,#607,#608);
#532=AXIS2_PLACEMENT_3D('',#770,#609,#610);
#533=AXIS2_PLACEMENT_3D('',#772,#611,#612);
#534=AXIS2_PLACEMENT_3D('',#773,#613,#614);
#535=AXIS2_PLACEMENT_3D('',#775,#615,#616);
#536=AXIS2_PLACEMENT_3D('',#777,#617,#618);
#537=AXIS2_PLACEMENT_3D('',#784,#623,#624);
#538=AXIS2_PLACEMENT_3D('',#786,#625,#626);
#539=AXIS2_PLACEMENT_3D('',#788,#627,#628);
#540=AXIS2_PLACEMENT_3D('',#806,#638,#639);
#541=AXIS2_PLACEMENT_3D('',#809,#642,#643);
#542=AXIS2_PLACEMENT_3D('',#810,#644,#645);
#543=AXIS2_PLACEMENT_3D('',#812,#647,#648);
#544=AXIS2_PLACEMENT_3D('',#815,#651,#652);
#545=AXIS2_PLACEMENT_3D('',#816,#653,#654);
#546=AXIS2_PLACEMENT_3D('',#818,#655,#656);
#547=AXIS2_PLACEMENT_3D('',#821,#658,#659);
#548=AXIS2_PLACEMENT_3D('',#822,#660,#661);
#549=AXIS2_PLACEMENT_3D('',#824,#662,#663);
#550=AXIS2_PLACEMENT_3D('',#825,#664,#665);
#551=AXIS2_PLACEMENT_3D('',#827,#666,#667);
#552=AXIS2_PLACEMENT_3D('',#828,#668,#669);
#553=AXIS2_PLACEMENT_3D('',#829,#670,#671);
#554=AXIS2_PLACEMENT_3D('',#830,#672,#673);
#555=AXIS2_PLACEMENT_3D('',#833,#674,#675);
#556=AXIS2_PLACEMENT_3D('',#834,#676,#677);
#557=AXIS2_PLACEMENT_3D('',#836,#678,#679);
#558=AXIS2_PLACEMENT_3D('',#837,#680,#681);
#559=AXIS2_PLACEMENT_3D('',#839,#682,#683);
#560=AXIS2_PLACEMENT_3D('',#840,#684,#685);
#561=AXIS2_PLACEMENT_3D('',#843,#687,#688);
#562=AXIS2_PLACEMENT_3D('',#846,#690,#691);
#563=AXIS2_PLACEMENT_3D('',#847,#692,#693);
#564=AXIS2_PLACEMENT_3D('',#848,#694,#695);
#565=AXIS2_PLACEMENT_3D('',#849,#696,#697);
#566=AXIS2_PLACEMENT_3D('',#850,#698,#699);
#567=AXIS2_PLACEMENT_3D('',#852,#700,#701);
#568=AXIS2_PLACEMENT_3D('',#853,#702,#703);
#569=AXIS2_PLACEMENT_3D('',#855,#704,#705);
#570=AXIS2_PLACEMENT_3D('',#856,#706,#707);
#571=AXIS2_PLACEMENT_3D('',#858,#708,#709);
#572=AXIS2_PLACEMENT_3D('',#859,#710,#711);
#573=AXIS2_PLACEMENT_3D('',#860,#712,#713);
#574=AXIS2_PLACEMENT_3D('',#862,#714,#715);
#575=AXIS2_PLACEMENT_3D('',#863,#716,#717);
#576=AXIS2_PLACEMENT_3D('',#864,#718,#719);
#577=AXIS2_PLACEMENT_3D('',#865,#720,#721);
#578=AXIS2_PLACEMENT_3D('',#867,#723,#724);
#579=AXIS2_PLACEMENT_3D('',#869,#726,#727);
#580=AXIS2_PLACEMENT_3D('',#870,#728,#729);
#581=DIRECTION('',(0.,0.,1.));
#582=DIRECTION('',(1.,0.,0.));
#583=DIRECTION('',(0.,-1.,6.1535798978907E-17));
#584=DIRECTION('',(0.,-6.1535798978907E-17,-1.));
#585=DIRECTION('',(1.,0.,0.));
#586=DIRECTION('',(0.,-6.1535798978907E-17,-1.));
#587=DIRECTION('',(1.,0.,0.));
#588=DIRECTION('',(0.,-6.1535798978907E-17,-1.));
#589=DIRECTION('',(0.,1.83480367651393E-16,-1.));
#590=DIRECTION('',(0.,1.,1.83480367651393E-16));
#591=DIRECTION('',(0.,-1.,-1.83480367651393E-16));
#592=DIRECTION('',(-1.,0.,0.));
#593=DIRECTION('',(0.,1.,1.83480367651393E-16));
#594=DIRECTION('',(0.,0.,1.));
#595=DIRECTION('',(1.,0.,0.));
#596=DIRECTION('',(-1.,0.,0.));
#597=DIRECTION('',(0.,-1.,0.));
#598=DIRECTION('',(0.,-1.,0.));
#599=DIRECTION('',(-1.,0.,0.));
#600=DIRECTION('',(0.,-1.,0.));
#601=DIRECTION('',(-1.,0.,0.));
#602=DIRECTION('',(0.,-1.,0.));
#603=DIRECTION('',(0.,1.,0.));
#604=DIRECTION('',(1.,0.,0.));
#605=DIRECTION('',(0.,-1.,0.));
#606=DIRECTION('',(1.,0.,0.));
#607=DIRECTION('',(0.,0.,1.));
#608=DIRECTION('',(1.,0.,0.));
#609=DIRECTION('',(0.,0.,1.));
#610=DIRECTION('',(1.,0.,0.));
#611=DIRECTION('',(0.,1.,1.83480367651393E-16));
#612=DIRECTION('',(0.,-1.83480367651393E-16,1.));
#613=DIRECTION('',(0.,-1.,0.));
#614=DIRECTION('',(0.,0.,-1.));
#615=DIRECTION('',(0.,-1.,-1.83480367651393E-16));
#616=DIRECTION('',(0.,1.83480367651393E-16,-1.));
#617=DIRECTION('',(0.,-1.,-1.83480367651393E-16));
#618=DIRECTION('',(0.,1.83480367651393E-16,-1.));
#619=DIRECTION('',(-1.,0.,0.));
#620=DIRECTION('',(0.,-1.83480367651393E-16,1.));
#621=DIRECTION('',(0.,-1.83480367651393E-16,1.));
#622=DIRECTION('',(0.,-1.83480367651393E-16,1.));
#623=DIRECTION('',(0.,-1.,-1.83480367651393E-16));
#624=DIRECTION('',(0.,1.83480367651393E-16,-1.));
#625=DIRECTION('',(0.,-1.,-1.83480367651393E-16));
#626=DIRECTION('',(0.,1.83480367651393E-16,-1.));
#627=DIRECTION('',(0.,0.,1.));
#628=DIRECTION('',(1.,0.,0.));
#629=DIRECTION('',(0.,1.,0.));
#630=DIRECTION('',(1.,0.,0.));
#631=DIRECTION('',(0.,1.,0.));
#632=DIRECTION('',(1.,0.,0.));
#633=DIRECTION('',(0.,-1.,0.));
#634=DIRECTION('',(-1.,0.,0.));
#635=DIRECTION('',(0.,1.,0.));
#636=DIRECTION('',(-1.,0.,0.));
#637=DIRECTION('',(0.,-1.,0.));
#638=DIRECTION('',(0.,-1.,0.));
#639=DIRECTION('',(0.,0.,-1.));
#640=DIRECTION('',(0.,0.,-1.));
#641=DIRECTION('',(0.,0.,1.));
#642=DIRECTION('',(1.,0.,0.));
#643=DIRECTION('',(0.,1.,0.));
#644=DIRECTION('',(1.,0.,0.));
#645=DIRECTION('',(0.,1.,0.));
#646=DIRECTION('',(0.,0.,1.));
#647=DIRECTION('',(1.,0.,0.));
#648=DIRECTION('',(0.,1.,0.));
#649=DIRECTION('',(0.,0.,-1.));
#650=DIRECTION('',(0.,0.,-1.));
#651=DIRECTION('',(1.,0.,0.));
#652=DIRECTION('',(0.,1.,0.));
#653=DIRECTION('',(1.,0.,0.));
#654=DIRECTION('',(0.,0.,-1.));
#655=DIRECTION('',(1.,0.,0.));
#656=DIRECTION('',(0.,0.,-1.));
#657=DIRECTION('',(0.,2.66880534765662E-16,-1.));
#658=DIRECTION('',(0.,1.,1.83480367651393E-16));
#659=DIRECTION('',(0.,-1.83480367651393E-16,1.));
#660=DIRECTION('',(0.,-1.,-1.83480367651393E-16));
#661=DIRECTION('',(0.,1.83480367651393E-16,-1.));
#662=DIRECTION('',(0.,1.,1.83480367651393E-16));
#663=DIRECTION('',(0.,-1.83480367651393E-16,1.));
#664=DIRECTION('',(0.,-1.,-1.83480367651393E-16));
#665=DIRECTION('',(0.,1.83480367651393E-16,-1.));
#666=DIRECTION('',(0.,-1.,-1.83480367651393E-16));
#667=DIRECTION('',(1.,0.,0.));
#668=DIRECTION('',(0.,-1.,-1.83480367651393E-16));
#669=DIRECTION('',(1.,0.,0.));
#670=DIRECTION('',(0.,1.,0.));
#671=DIRECTION('',(-1.,0.,0.));
#672=DIRECTION('',(0.,1.,0.));
#673=DIRECTION('',(0.,0.,1.));
#674=DIRECTION('',(-1.08189533013692E-14,1.,3.02100005547796E-23));
#675=DIRECTION('',(-5.58464385846946E-9,0.,-1.));
#676=DIRECTION('',(0.,1.,0.));
#677=DIRECTION('',(0.,0.,1.));
#678=DIRECTION('',(0.,1.,0.));
#679=DIRECTION('',(0.,0.,1.));
#680=DIRECTION('',(0.,1.,0.));
#681=DIRECTION('',(0.,0.,1.));
#682=DIRECTION('',(0.,1.,0.));
#683=DIRECTION('',(-1.,0.,0.));
#684=DIRECTION('',(0.,1.,0.));
#685=DIRECTION('',(0.,0.,1.));
#686=DIRECTION('',(0.,1.,0.));
#687=DIRECTION('',(0.,1.,0.));
#688=DIRECTION('',(0.,0.,1.));
#689=DIRECTION('',(0.,1.,0.));
#690=DIRECTION('',(0.,1.,0.));
#691=DIRECTION('',(-1.,0.,2.79230805144696E-9));
#692=DIRECTION('',(-3.25793245840222E-14,1.,9.09719624756214E-23));
#693=DIRECTION('',(-5.58464385846946E-9,0.,-1.));
#694=DIRECTION('',(0.,1.,0.));
#695=DIRECTION('',(-1.,0.,0.));
#696=DIRECTION('',(1.,0.,0.));
#697=DIRECTION('',(0.,0.,-1.));
#698=DIRECTION('',(1.,0.,0.));
#699=DIRECTION('',(0.,0.,-1.));
#700=DIRECTION('',(1.,0.,0.));
#701=DIRECTION('',(0.,0.,-1.));
#702=DIRECTION('',(1.,0.,0.));
#703=DIRECTION('',(0.,0.,-1.));
#704=DIRECTION('',(0.,0.,1.));
#705=DIRECTION('',(1.,0.,0.));
#706=DIRECTION('',(0.,0.,1.));
#707=DIRECTION('',(1.,0.,0.));
#708=DIRECTION('',(0.,0.,1.));
#709=DIRECTION('',(1.,0.,0.));
#710=DIRECTION('',(0.,0.,1.));
#711=DIRECTION('',(1.,0.,0.));
#712=DIRECTION('',(0.,0.,1.));
#713=DIRECTION('',(1.,0.,0.));
#714=DIRECTION('',(0.,0.,1.));
#715=DIRECTION('',(1.,0.,0.));
#716=DIRECTION('',(1.,0.,0.));
#717=DIRECTION('',(0.,0.,-1.));
#718=DIRECTION('',(1.,0.,0.));
#719=DIRECTION('',(0.,0.,-1.));
#720=DIRECTION('',(0.,1.,0.));
#721=DIRECTION('',(0.,0.,1.));
#722=DIRECTION('',(0.,0.,1.));
#723=DIRECTION('',(0.,-1.,0.));
#724=DIRECTION('',(0.,0.,-1.));
#725=DIRECTION('',(0.,0.,1.));
#726=DIRECTION('',(1.,0.,0.));
#727=DIRECTION('',(0.,0.,-1.));
#728=DIRECTION('',(-1.,0.,0.));
#729=DIRECTION('',(0.,-1.,0.));
#730=CARTESIAN_POINT('',(0.,0.,0.));
#731=CARTESIAN_POINT('',(0.0529087409377098,-0.000399976864457161,0.0857636422514916));
#732=CARTESIAN_POINT('',(0.0529087409377098,-0.000399976864457159,0.122763642251492));
#733=CARTESIAN_POINT('',(0.0519087409377098,-0.000399976864457159,0.122763642251492));
#734=CARTESIAN_POINT('',(0.0779087409377098,-0.000399976864457159,0.122763642251492));
#735=CARTESIAN_POINT('',(0.0519087409377098,-0.000399976864457161,0.0857636422514916));
#736=CARTESIAN_POINT('',(0.0519087409377098,-0.000399976864457162,0.0487636422514915));
#737=CARTESIAN_POINT('',(0.0529087409377098,-0.000399976864457163,0.0487636422514915));
#738=CARTESIAN_POINT('',(0.0779087409377098,-0.000399976864457163,0.0487636422514915));
#739=CARTESIAN_POINT('',(0.0779087409377098,-0.000399976864457161,0.0857636422514916));
#740=CARTESIAN_POINT('',(0.0779087409377098,-0.00939997686445716,0.0487636422514915));
#741=CARTESIAN_POINT('',(0.0519087409377098,0.0216000231355429,0.0487636422514916));
#742=CARTESIAN_POINT('',(0.0519087409377098,-0.00939997686445717,0.0487636422514915));
#743=CARTESIAN_POINT('',(0.0779087409377098,-0.00939997686445716,0.0487636422514915));
#744=CARTESIAN_POINT('',(0.0779087409377098,-0.00939997686445717,0.0487636422514915));
#745=CARTESIAN_POINT('',(0.0779087409377098,-0.00939997686445717,0.0487636422514915));
#746=CARTESIAN_POINT('',(0.0629087409377098,0.0161000231355428,0.122763642251492));
#747=CARTESIAN_POINT('',(0.0674087409377098,0.0536000231355429,0.122763642251492));
#748=CARTESIAN_POINT('',(0.0779087409377098,0.0536000231355429,0.122763642251492));
#749=CARTESIAN_POINT('',(0.0519087409377098,0.0536000231355429,0.122763642251492));
#750=CARTESIAN_POINT('',(0.0519087409377098,0.00260002313554282,0.122763642251492));
#751=CARTESIAN_POINT('',(0.0779087409377098,0.00260002313554282,0.122763642251492));
#752=CARTESIAN_POINT('',(0.0779087409377098,-0.00939997686445718,0.122763642251492));
#753=CARTESIAN_POINT('',(0.0819087409377098,-0.00939997686445718,0.122763642251492));
#754=CARTESIAN_POINT('',(0.0900000009377098,-0.00939997686445718,0.122763642251492));
#755=CARTESIAN_POINT('',(0.0900000009377098,0.00260002313554282,0.122763642251492));
#756=CARTESIAN_POINT('',(0.0900000009377098,0.0816000231355429,0.122763642251492));
#757=CARTESIAN_POINT('',(0.0704087409377098,0.0816000231355429,0.122763642251492));
#758=CARTESIAN_POINT('',(0.0779087409377098,0.0816000231355429,0.122763642251492));
#759=CARTESIAN_POINT('',(0.0779087409377098,0.00260002313554282,0.122763642251492));
#760=CARTESIAN_POINT('',(0.0559087409377098,0.0391000231355429,0.122763642251492));
#761=CARTESIAN_POINT('',(0.0559087409377098,0.00360002313554284,0.122763642251492));
#762=CARTESIAN_POINT('',(0.0559087409377098,0.0496000231355429,0.122763642251492));
#763=CARTESIAN_POINT('',(0.0621587409377098,0.0496000231355429,0.122763642251492));
#764=CARTESIAN_POINT('',(0.0779087409377098,0.0496000231355429,0.122763642251492));
#765=CARTESIAN_POINT('',(0.0779087409377098,0.00260002313554282,0.122763642251492));
#766=CARTESIAN_POINT('',(0.0779087409377098,0.00360002313554284,0.122763642251492));
#767=CARTESIAN_POINT('',(0.0529087409377098,0.00360002313554284,0.122763642251492));
#768=CARTESIAN_POINT('',(0.0840000009377098,0.0666000231355429,0.122763642251492));
#769=CARTESIAN_POINT('',(0.0860000009377098,0.0666000231355429,0.122763642251492));
#770=CARTESIAN_POINT('',(0.0840000009377098,0.00560002313554283,0.122763642251492));
#771=CARTESIAN_POINT('',(0.0860000009377098,0.00560002313554283,0.122763642251492));
#772=CARTESIAN_POINT('',(0.0629087409377098,-0.0338999768644572,0.0262636422514916));
#773=CARTESIAN_POINT('',(0.0629087409377098,0.00360002313554284,0.0262636422514916));
#774=CARTESIAN_POINT('',(0.0629087409377098,0.00360002313554284,0.0242636422514916));
#775=CARTESIAN_POINT('',(0.0629087409377098,-0.00939997686445716,0.0262636422514916));
#776=CARTESIAN_POINT('',(0.0629087409377098,-0.00939997686445716,0.0242636422514916));
#777=CARTESIAN_POINT('',(0.0819087409377098,-0.00939997686445717,0.0707636422514916));
#778=CARTESIAN_POINT('',(0.0819087409377098,-0.00939997686445716,0.0187636422514916));
#779=CARTESIAN_POINT('',(0.0900000009377098,-0.00939997686445716,0.0187636422514916));
#780=CARTESIAN_POINT('',(0.0519087409377098,-0.00939997686445716,0.0187636422514916));
#781=CARTESIAN_POINT('',(0.0900000009377098,-0.00939997686445717,0.0707636422514916));
#782=CARTESIAN_POINT('',(0.0779087409377098,-0.00939997686445717,0.0707636422514916));
#783=CARTESIAN_POINT('',(0.0519087409377098,-0.00939997686445717,0.0707636422514916));
#784=CARTESIAN_POINT('',(0.0839543709377098,-0.00939997686445718,0.117763642251492));
#785=CARTESIAN_POINT('',(0.0839543709377098,-0.00939997686445718,0.115763642251492));
#786=CARTESIAN_POINT('',(0.0839543709377098,-0.00939997686445717,0.0707636422514916));
#787=CARTESIAN_POINT('',(0.0839543709377098,-0.00939997686445717,0.0687636422514916));
#788=CARTESIAN_POINT('',(0.0704087409377098,-0.00689997686445715,0.0187636422514916));
#789=CARTESIAN_POINT('',(0.0559087409377098,0.0141000231355428,0.0187636422514916));
#790=CARTESIAN_POINT('',(0.0559087409377098,0.00360002313554284,0.0187636422514916));
#791=CARTESIAN_POINT('',(0.0559087409377098,0.0496000231355429,0.0187636422514916));
#792=CARTESIAN_POINT('',(0.0704087409377098,0.00360002313554284,0.0187636422514916));
#793=CARTESIAN_POINT('',(0.0779087409377098,0.00360002313554284,0.0187636422514916));
#794=CARTESIAN_POINT('',(0.0779087409377098,-0.00689997686445715,0.0187636422514916));
#795=CARTESIAN_POINT('',(0.0779087409377098,0.0496000231355429,0.0187636422514916));
#796=CARTESIAN_POINT('',(0.0621587409377098,0.0496000231355429,0.0187636422514916));
#797=CARTESIAN_POINT('',(0.0519087409377098,0.0516000231355429,0.0187636422514916));
#798=CARTESIAN_POINT('',(0.0519087409377098,0.0536000231355429,0.0187636422514916));
#799=CARTESIAN_POINT('',(0.0674087409377098,0.0536000231355429,0.0187636422514916));
#800=CARTESIAN_POINT('',(0.0779087409377098,0.0536000231355429,0.0187636422514916));
#801=CARTESIAN_POINT('',(0.0779087409377098,-0.00689997686445715,0.0187636422514916));
#802=CARTESIAN_POINT('',(0.0779087409377098,0.0816000231355429,0.0187636422514916));
#803=CARTESIAN_POINT('',(0.0704087409377098,0.0816000231355429,0.0187636422514916));
#804=CARTESIAN_POINT('',(0.0900000009377098,0.0816000231355429,0.0187636422514916));
#805=CARTESIAN_POINT('',(0.0900000009377098,0.00260002313554284,0.0187636422514916));
#806=CARTESIAN_POINT('',(0.0529087409377098,0.00360002313554284,0.0857636422514916));
#807=CARTESIAN_POINT('',(0.0779087409377098,0.00360002313554284,0.0857636422514916));
#808=CARTESIAN_POINT('',(0.0559087409377098,0.00360002313554285,0.0487636422514916));
#809=CARTESIAN_POINT('',(0.0779087409377098,0.0216000231355429,0.0707636422514916));
#810=CARTESIAN_POINT('',(0.0779087409377098,0.0216000231355429,0.0707636422514916));
#811=CARTESIAN_POINT('',(0.0779087409377098,0.0496000231355429,0.0487636422514916));
#812=CARTESIAN_POINT('',(0.0779087409377098,0.0216000231355429,0.0707636422514916));
#813=CARTESIAN_POINT('',(0.0779087409377098,0.0536000231355429,0.0487636422514916));
#814=CARTESIAN_POINT('',(0.0779087409377098,0.0816000231355429,0.0707636422514916));
#815=CARTESIAN_POINT('',(0.0900000009377098,0.0216000231355429,0.0707636422514916));
#816=CARTESIAN_POINT('',(0.0900000009377098,0.0361000231355429,0.116763642251492));
#817=CARTESIAN_POINT('',(0.0900000009377098,0.0361000231355429,0.114763642251492));
#818=CARTESIAN_POINT('',(0.0900000009377098,0.0361000231355429,0.0327636422514915));
#819=CARTESIAN_POINT('',(0.0900000009377098,0.0361000231355429,0.0307636422514915));
#820=CARTESIAN_POINT('',(0.0900000009377098,0.0816000231355429,0.0707636422514916));
#821=CARTESIAN_POINT('',(0.0839543709377098,-0.0338999768644572,0.0707636422514916));
#822=CARTESIAN_POINT('',(0.0839543709377098,0.00060002313554283,0.0707636422514916));
#823=CARTESIAN_POINT('',(0.0839543709377098,0.00060002313554283,0.0687636422514916));
#824=CARTESIAN_POINT('',(0.0839543709377098,-0.0338999768644572,0.117763642251492));
#825=CARTESIAN_POINT('',(0.0839543709377098,0.000600023135542822,0.117763642251492));
#826=CARTESIAN_POINT('',(0.0839543709377098,0.000600023135542822,0.115763642251492));
#827=CARTESIAN_POINT('',(0.0669543709377098,0.00060002313554283,0.0707636422514916));
#828=CARTESIAN_POINT('',(0.0669543709377098,0.00060002313554283,0.0707636422514916));
#829=CARTESIAN_POINT('',(0.0732789262580466,0.0816000231355429,0.0707636422514916));
#830=CARTESIAN_POINT('',(0.0839543709377098,0.0816000231355429,0.116718012251492));
#831=CARTESIAN_POINT('',(0.0839543709377098,0.0816000231355429,0.118718012251492));
#832=CARTESIAN_POINT('',(0.0839543709265405,0.0816000231355429,0.114718012251492));
#833=CARTESIAN_POINT('',(0.0839543709377098,0.0816000231355429,0.116718012251492));
#834=CARTESIAN_POINT('',(0.0839543704688549,0.0816000231355429,0.0327636422514915));
#835=CARTESIAN_POINT('',(0.0839543704688549,0.0816000231355429,0.0347636422514915));
#836=CARTESIAN_POINT('',(0.0839543704688549,0.0716000231355429,0.0327636422514915));
#837=CARTESIAN_POINT('',(0.0839543704688549,0.0716000231355429,0.0327636422514915));
#838=CARTESIAN_POINT('',(0.0839543704688549,0.0716000231355429,0.0347636422514915));
#839=CARTESIAN_POINT('',(0.0839543709377098,0.0716000231355429,0.0327636422514915));
#840=CARTESIAN_POINT('',(0.0839543709377098,0.0716000231355429,0.116718012251492));
#841=CARTESIAN_POINT('',(0.0839543709265405,0.0716000231355429,0.114718012251492));
#842=CARTESIAN_POINT('',(0.0839543709265405,0.0716000231355429,0.114718012251492));
#843=CARTESIAN_POINT('',(0.0839543709377098,0.0716000231355429,0.116718012251492));
#844=CARTESIAN_POINT('',(0.0839543709377098,0.0716000231355429,0.118718012251492));
#845=CARTESIAN_POINT('',(0.0839543709377098,0.0716000231355429,0.118718012251492));
#846=CARTESIAN_POINT('',(0.0839543709377098,0.0716000231355429,0.116718012251492));
#847=CARTESIAN_POINT('',(0.0839543709377098,0.0716000231355429,0.116718012251492));
#848=CARTESIAN_POINT('',(0.0839543709377098,0.0716000231355429,0.0327636422514915));
#849=CARTESIAN_POINT('',(0.0800000009377098,0.0361000231355429,0.0327636422514915));
#850=CARTESIAN_POINT('',(0.0819087409377098,0.0361000231355429,0.0327636422514915));
#851=CARTESIAN_POINT('',(0.0819087409377098,0.0361000231355429,0.0307636422514915));
#852=CARTESIAN_POINT('',(0.0800000009377098,0.0361000231355429,0.116763642251492));
#853=CARTESIAN_POINT('',(0.0819087409377098,0.0361000231355429,0.116763642251492));
#854=CARTESIAN_POINT('',(0.0819087409377098,0.0361000231355429,0.114763642251492));
#855=CARTESIAN_POINT('',(0.0840000009377098,0.00560002313554283,0.116263642251492));
#856=CARTESIAN_POINT('',(0.0840000009377098,0.00560002313554283,0.116263642251492));
#857=CARTESIAN_POINT('',(0.0860000009377098,0.00560002313554283,0.116263642251492));
#858=CARTESIAN_POINT('',(0.0385000004688549,0.0341000231355429,0.116263642251492));
#859=CARTESIAN_POINT('',(0.0840000009377098,0.0666000231355429,0.116263642251492));
#860=CARTESIAN_POINT('',(0.0840000009377098,0.0666000231355429,0.116263642251492));
#861=CARTESIAN_POINT('',(0.0860000009377098,0.0666000231355429,0.116263642251492));
#862=CARTESIAN_POINT('',(0.0385000004688549,0.0341000231355429,0.116263642251492));
#863=CARTESIAN_POINT('',(0.0819087409377098,0.0266000231355428,0.0487636422514916));
#864=CARTESIAN_POINT('',(0.0819087409377098,0.0266000231355428,0.0487636422514916));
#865=CARTESIAN_POINT('',(0.0674087409377098,0.0536000231355429,0.0487636422514916));
#866=CARTESIAN_POINT('',(0.0519087409377098,0.0536000231355429,0.0487636422514916));
#867=CARTESIAN_POINT('',(0.0621587409377098,0.0496000231355429,0.0487636422514916));
#868=CARTESIAN_POINT('',(0.0559087409377098,0.0496000231355429,0.0487636422514916));
#869=CARTESIAN_POINT('',(0.0559087409377098,0.0391000231355429,0.0487636422514916));
#870=CARTESIAN_POINT('',(0.0519087409377098,0.0361000231355429,0.0707636422514916));
#871=MECHANICAL_DESIGN_GEOMETRIC_PRESENTATION_REPRESENTATION('',(#516),
#872);
#872=(
GEOMETRIC_REPRESENTATION_CONTEXT(3)
GLOBAL_UNCERTAINTY_ASSIGNED_CONTEXT((#873))
GLOBAL_UNIT_ASSIGNED_CONTEXT((#876,#875,#874))
REPRESENTATION_CONTEXT('Reload Shute','TOP_LEVEL_ASSEMBLY_PART')
);
#873=UNCERTAINTY_MEASURE_WITH_UNIT(LENGTH_MEASURE(1.E-8),#876,
'DISTANCE_ACCURACY_VALUE','Maximum Tolerance applied to model');
#874=(
NAMED_UNIT(*)
SI_UNIT($,.STERADIAN.)
SOLID_ANGLE_UNIT()
);
#875=(
NAMED_UNIT(*)
PLANE_ANGLE_UNIT()
SI_UNIT($,.RADIAN.)
);
#876=(
LENGTH_UNIT()
NAMED_UNIT(*)
SI_UNIT($,.METRE.)
);
#877=PRODUCT_DEFINITION_SHAPE('','',#878);
#878=PRODUCT_DEFINITION('','',#880,#879);
#879=PRODUCT_DEFINITION_CONTEXT('',#886,'design');
#880=PRODUCT_DEFINITION_FORMATION_WITH_SPECIFIED_SOURCE('','',#882,
 .NOT_KNOWN.);
#881=PRODUCT_RELATED_PRODUCT_CATEGORY('','',(#882));
#882=PRODUCT('Reload Shute','Reload Shute','Reload Shute',(#884));
#883=PRODUCT_CATEGORY('','');
#884=PRODUCT_CONTEXT('',#886,'mechanical');
#885=APPLICATION_PROTOCOL_DEFINITION('international standard',
'ap242_managed_model_based_3d_engineering',2020,#886);
#886=APPLICATION_CONTEXT('managed model based 3d engineering');
ENDSEC;
END-ISO-10303-21;
