ISO-10303-21;
HEADER;
/* Generated by software containing ST-Developer
 * from STEP Tools, Inc. (www.steptools.com) 
 */
/* OPTION: using custom renumber hook */

FILE_DESCRIPTION(
/* description */ ('STEP AP242 Edition 2',
'CAx-IF Rec.Pracs.---Representation and Presentation of Product Manufa
cturing Information (PMI)---4.0---2014-10-13',
'CAx-IF Rec.Pracs.---3D Tessellated Geometry---0.4---2014-09-14','2;1',
'CAx-IF Rec.Pracs.---User Defined Attributes---1.5---2016-08-15'),
/* implementation_level */ '2;1');

FILE_NAME(
/* name */ 'Assembly 1 - Button + Lever',
/* time_stamp */ '2026-07-14T16:54:41Z',
/* author */ (''),
/* organization */ (''),
/* preprocessor_version */ 'ST-DEVELOPER v20',
/* originating_system */ 'ONSHAPE BY PTC INC, 1.217',
/* authorisation */ '  ');

FILE_SCHEMA (('AP242_MANAGED_MODEL_BASED_3D_ENGINEERING_MIM_LF { 1 0 10303 442 3 1 4 }'));
ENDSEC;

DATA;
#10=SHAPE_REPRESENTATION_RELATIONSHIP('','',#755,#11);
#11=ADVANCED_BREP_SHAPE_REPRESENTATION('',(#753),#1259);
#12=ELLIPSE('',#818,0.00424264068711928,0.003);
#13=ELLIPSE('',#819,0.00424264068711928,0.003);
#14=ELLIPSE('',#821,0.00424264068711928,0.003);
#15=ELLIPSE('',#823,0.00424264068711928,0.003);
#16=CYLINDRICAL_SURFACE('',#782,0.002);
#17=CYLINDRICAL_SURFACE('',#783,0.002);
#18=CYLINDRICAL_SURFACE('',#785,0.001);
#19=CYLINDRICAL_SURFACE('',#796,0.019);
#20=CYLINDRICAL_SURFACE('',#798,0.003);
#21=CYLINDRICAL_SURFACE('',#800,0.003);
#22=CYLINDRICAL_SURFACE('',#802,0.003);
#23=CYLINDRICAL_SURFACE('',#803,0.003);
#24=CYLINDRICAL_SURFACE('',#807,0.0005);
#25=CYLINDRICAL_SURFACE('',#808,0.0005);
#26=CYLINDRICAL_SURFACE('',#809,0.0005);
#27=CYLINDRICAL_SURFACE('',#815,0.001);
#28=CYLINDRICAL_SURFACE('',#817,0.003);
#29=CYLINDRICAL_SURFACE('',#820,0.003);
#30=CYLINDRICAL_SURFACE('',#822,0.003);
#31=CYLINDRICAL_SURFACE('',#824,0.003);
#32=CYLINDRICAL_SURFACE('',#825,0.002);
#33=CIRCLE('',#759,0.001);
#34=CIRCLE('',#760,0.0005);
#35=CIRCLE('',#761,0.0005);
#36=CIRCLE('',#762,0.0005);
#37=CIRCLE('',#763,0.002);
#38=CIRCLE('',#764,0.002);
#39=CIRCLE('',#770,0.0005);
#40=CIRCLE('',#771,0.003);
#41=CIRCLE('',#772,0.001);
#42=CIRCLE('',#773,0.002);
#43=CIRCLE('',#774,0.0005);
#44=CIRCLE('',#775,0.0005);
#45=CIRCLE('',#778,0.001);
#46=CIRCLE('',#779,0.002);
#47=CIRCLE('',#780,0.003);
#48=CIRCLE('',#781,0.003);
#49=CIRCLE('',#786,0.001);
#50=CIRCLE('',#792,0.002);
#51=CIRCLE('',#793,0.003);
#52=CIRCLE('',#794,0.019);
#53=CIRCLE('',#795,0.003);
#54=CIRCLE('',#797,0.019);
#55=CIRCLE('',#799,0.003);
#56=CIRCLE('',#801,0.003);
#57=CIRCLE('',#804,0.003);
#58=CIRCLE('',#813,0.002);
#59=ORIENTED_EDGE('',*,*,#271,.F.);
#60=ORIENTED_EDGE('',*,*,#272,.F.);
#61=ORIENTED_EDGE('',*,*,#273,.T.);
#62=ORIENTED_EDGE('',*,*,#274,.F.);
#63=ORIENTED_EDGE('',*,*,#275,.T.);
#64=ORIENTED_EDGE('',*,*,#276,.T.);
#65=ORIENTED_EDGE('',*,*,#277,.F.);
#66=ORIENTED_EDGE('',*,*,#278,.T.);
#67=ORIENTED_EDGE('',*,*,#279,.F.);
#68=ORIENTED_EDGE('',*,*,#280,.T.);
#69=ORIENTED_EDGE('',*,*,#281,.F.);
#70=ORIENTED_EDGE('',*,*,#282,.T.);
#71=ORIENTED_EDGE('',*,*,#283,.T.);
#72=ORIENTED_EDGE('',*,*,#284,.T.);
#73=ORIENTED_EDGE('',*,*,#285,.F.);
#74=ORIENTED_EDGE('',*,*,#286,.T.);
#75=ORIENTED_EDGE('',*,*,#277,.T.);
#76=ORIENTED_EDGE('',*,*,#287,.T.);
#77=ORIENTED_EDGE('',*,*,#288,.T.);
#78=ORIENTED_EDGE('',*,*,#289,.T.);
#79=ORIENTED_EDGE('',*,*,#290,.T.);
#80=ORIENTED_EDGE('',*,*,#291,.T.);
#81=ORIENTED_EDGE('',*,*,#292,.F.);
#82=ORIENTED_EDGE('',*,*,#293,.T.);
#83=ORIENTED_EDGE('',*,*,#294,.T.);
#84=ORIENTED_EDGE('',*,*,#295,.T.);
#85=ORIENTED_EDGE('',*,*,#296,.T.);
#86=ORIENTED_EDGE('',*,*,#297,.F.);
#87=ORIENTED_EDGE('',*,*,#298,.T.);
#88=ORIENTED_EDGE('',*,*,#299,.T.);
#89=ORIENTED_EDGE('',*,*,#300,.T.);
#90=ORIENTED_EDGE('',*,*,#285,.T.);
#91=ORIENTED_EDGE('',*,*,#301,.T.);
#92=ORIENTED_EDGE('',*,*,#302,.T.);
#93=ORIENTED_EDGE('',*,*,#303,.T.);
#94=ORIENTED_EDGE('',*,*,#304,.T.);
#95=ORIENTED_EDGE('',*,*,#305,.T.);
#96=ORIENTED_EDGE('',*,*,#306,.T.);
#97=ORIENTED_EDGE('',*,*,#307,.F.);
#98=ORIENTED_EDGE('',*,*,#308,.T.);
#99=ORIENTED_EDGE('',*,*,#283,.F.);
#100=ORIENTED_EDGE('',*,*,#309,.T.);
#101=ORIENTED_EDGE('',*,*,#310,.T.);
#102=ORIENTED_EDGE('',*,*,#311,.T.);
#103=ORIENTED_EDGE('',*,*,#312,.T.);
#104=ORIENTED_EDGE('',*,*,#313,.T.);
#105=ORIENTED_EDGE('',*,*,#294,.F.);
#106=ORIENTED_EDGE('',*,*,#314,.T.);
#107=ORIENTED_EDGE('',*,*,#315,.T.);
#108=ORIENTED_EDGE('',*,*,#316,.T.);
#109=ORIENTED_EDGE('',*,*,#302,.F.);
#110=ORIENTED_EDGE('',*,*,#317,.T.);
#111=ORIENTED_EDGE('',*,*,#310,.F.);
#112=ORIENTED_EDGE('',*,*,#318,.T.);
#113=ORIENTED_EDGE('',*,*,#319,.T.);
#114=ORIENTED_EDGE('',*,*,#320,.T.);
#115=ORIENTED_EDGE('',*,*,#275,.F.);
#116=ORIENTED_EDGE('',*,*,#321,.T.);
#117=ORIENTED_EDGE('',*,*,#322,.T.);
#118=ORIENTED_EDGE('',*,*,#323,.T.);
#119=ORIENTED_EDGE('',*,*,#288,.F.);
#120=ORIENTED_EDGE('',*,*,#324,.T.);
#121=ORIENTED_EDGE('',*,*,#322,.F.);
#122=ORIENTED_EDGE('',*,*,#325,.T.);
#123=ORIENTED_EDGE('',*,*,#299,.F.);
#124=ORIENTED_EDGE('',*,*,#326,.T.);
#125=ORIENTED_EDGE('',*,*,#305,.F.);
#126=ORIENTED_EDGE('',*,*,#327,.T.);
#127=ORIENTED_EDGE('',*,*,#325,.F.);
#128=ORIENTED_EDGE('',*,*,#321,.F.);
#129=ORIENTED_EDGE('',*,*,#286,.F.);
#130=ORIENTED_EDGE('',*,*,#300,.F.);
#131=ORIENTED_EDGE('',*,*,#317,.F.);
#132=ORIENTED_EDGE('',*,*,#301,.F.);
#133=ORIENTED_EDGE('',*,*,#284,.F.);
#134=ORIENTED_EDGE('',*,*,#311,.F.);
#135=ORIENTED_EDGE('',*,*,#315,.F.);
#136=ORIENTED_EDGE('',*,*,#328,.T.);
#137=ORIENTED_EDGE('',*,*,#329,.T.);
#138=ORIENTED_EDGE('',*,*,#330,.T.);
#139=ORIENTED_EDGE('',*,*,#316,.F.);
#140=ORIENTED_EDGE('',*,*,#330,.F.);
#141=ORIENTED_EDGE('',*,*,#331,.F.);
#142=ORIENTED_EDGE('',*,*,#296,.F.);
#143=ORIENTED_EDGE('',*,*,#332,.F.);
#144=ORIENTED_EDGE('',*,*,#333,.F.);
#145=ORIENTED_EDGE('',*,*,#334,.T.);
#146=ORIENTED_EDGE('',*,*,#335,.T.);
#147=ORIENTED_EDGE('',*,*,#336,.T.);
#148=ORIENTED_EDGE('',*,*,#308,.F.);
#149=ORIENTED_EDGE('',*,*,#337,.F.);
#150=ORIENTED_EDGE('',*,*,#271,.T.);
#151=ORIENTED_EDGE('',*,*,#338,.F.);
#152=ORIENTED_EDGE('',*,*,#339,.F.);
#153=ORIENTED_EDGE('',*,*,#340,.T.);
#154=ORIENTED_EDGE('',*,*,#341,.T.);
#155=ORIENTED_EDGE('',*,*,#342,.F.);
#156=ORIENTED_EDGE('',*,*,#335,.F.);
#157=ORIENTED_EDGE('',*,*,#343,.T.);
#158=ORIENTED_EDGE('',*,*,#338,.T.);
#159=ORIENTED_EDGE('',*,*,#344,.T.);
#160=ORIENTED_EDGE('',*,*,#345,.F.);
#161=ORIENTED_EDGE('',*,*,#346,.T.);
#162=ORIENTED_EDGE('',*,*,#347,.T.);
#163=ORIENTED_EDGE('',*,*,#348,.T.);
#164=ORIENTED_EDGE('',*,*,#332,.T.);
#165=ORIENTED_EDGE('',*,*,#342,.T.);
#166=ORIENTED_EDGE('',*,*,#341,.F.);
#167=ORIENTED_EDGE('',*,*,#349,.T.);
#168=ORIENTED_EDGE('',*,*,#350,.T.);
#169=ORIENTED_EDGE('',*,*,#290,.F.);
#170=ORIENTED_EDGE('',*,*,#351,.T.);
#171=ORIENTED_EDGE('',*,*,#303,.F.);
#172=ORIENTED_EDGE('',*,*,#336,.F.);
#173=ORIENTED_EDGE('',*,*,#274,.T.);
#174=ORIENTED_EDGE('',*,*,#350,.F.);
#175=ORIENTED_EDGE('',*,*,#352,.T.);
#176=ORIENTED_EDGE('',*,*,#353,.F.);
#177=ORIENTED_EDGE('',*,*,#291,.F.);
#178=ORIENTED_EDGE('',*,*,#340,.F.);
#179=ORIENTED_EDGE('',*,*,#354,.F.);
#180=ORIENTED_EDGE('',*,*,#352,.F.);
#181=ORIENTED_EDGE('',*,*,#349,.F.);
#182=ORIENTED_EDGE('',*,*,#293,.F.);
#183=ORIENTED_EDGE('',*,*,#355,.F.);
#184=ORIENTED_EDGE('',*,*,#328,.F.);
#185=ORIENTED_EDGE('',*,*,#314,.F.);
#186=ORIENTED_EDGE('',*,*,#327,.F.);
#187=ORIENTED_EDGE('',*,*,#304,.F.);
#188=ORIENTED_EDGE('',*,*,#351,.F.);
#189=ORIENTED_EDGE('',*,*,#289,.F.);
#190=ORIENTED_EDGE('',*,*,#326,.F.);
#191=ORIENTED_EDGE('',*,*,#298,.F.);
#192=ORIENTED_EDGE('',*,*,#356,.F.);
#193=ORIENTED_EDGE('',*,*,#306,.F.);
#194=ORIENTED_EDGE('',*,*,#281,.T.);
#195=ORIENTED_EDGE('',*,*,#357,.T.);
#196=ORIENTED_EDGE('',*,*,#319,.F.);
#197=ORIENTED_EDGE('',*,*,#358,.T.);
#198=ORIENTED_EDGE('',*,*,#279,.T.);
#199=ORIENTED_EDGE('',*,*,#359,.T.);
#200=ORIENTED_EDGE('',*,*,#312,.F.);
#201=ORIENTED_EDGE('',*,*,#360,.T.);
#202=ORIENTED_EDGE('',*,*,#313,.F.);
#203=ORIENTED_EDGE('',*,*,#359,.F.);
#204=ORIENTED_EDGE('',*,*,#278,.F.);
#205=ORIENTED_EDGE('',*,*,#295,.F.);
#206=ORIENTED_EDGE('',*,*,#320,.F.);
#207=ORIENTED_EDGE('',*,*,#357,.F.);
#208=ORIENTED_EDGE('',*,*,#280,.F.);
#209=ORIENTED_EDGE('',*,*,#360,.F.);
#210=ORIENTED_EDGE('',*,*,#282,.F.);
#211=ORIENTED_EDGE('',*,*,#358,.F.);
#212=ORIENTED_EDGE('',*,*,#318,.F.);
#213=ORIENTED_EDGE('',*,*,#309,.F.);
#214=ORIENTED_EDGE('',*,*,#347,.F.);
#215=ORIENTED_EDGE('',*,*,#361,.T.);
#216=ORIENTED_EDGE('',*,*,#362,.T.);
#217=ORIENTED_EDGE('',*,*,#363,.T.);
#218=ORIENTED_EDGE('',*,*,#364,.F.);
#219=ORIENTED_EDGE('',*,*,#365,.T.);
#220=ORIENTED_EDGE('',*,*,#345,.T.);
#221=ORIENTED_EDGE('',*,*,#273,.F.);
#222=ORIENTED_EDGE('',*,*,#366,.F.);
#223=ORIENTED_EDGE('',*,*,#362,.F.);
#224=ORIENTED_EDGE('',*,*,#367,.T.);
#225=ORIENTED_EDGE('',*,*,#364,.T.);
#226=ORIENTED_EDGE('',*,*,#272,.T.);
#227=ORIENTED_EDGE('',*,*,#337,.T.);
#228=ORIENTED_EDGE('',*,*,#307,.T.);
#229=ORIENTED_EDGE('',*,*,#356,.T.);
#230=ORIENTED_EDGE('',*,*,#297,.T.);
#231=ORIENTED_EDGE('',*,*,#331,.T.);
#232=ORIENTED_EDGE('',*,*,#329,.F.);
#233=ORIENTED_EDGE('',*,*,#355,.T.);
#234=ORIENTED_EDGE('',*,*,#292,.T.);
#235=ORIENTED_EDGE('',*,*,#353,.T.);
#236=ORIENTED_EDGE('',*,*,#354,.T.);
#237=ORIENTED_EDGE('',*,*,#339,.T.);
#238=ORIENTED_EDGE('',*,*,#343,.F.);
#239=ORIENTED_EDGE('',*,*,#334,.F.);
#240=ORIENTED_EDGE('',*,*,#368,.T.);
#241=ORIENTED_EDGE('',*,*,#368,.F.);
#242=ORIENTED_EDGE('',*,*,#333,.T.);
#243=ORIENTED_EDGE('',*,*,#348,.F.);
#244=ORIENTED_EDGE('',*,*,#363,.F.);
#245=ORIENTED_EDGE('',*,*,#323,.F.);
#246=ORIENTED_EDGE('',*,*,#324,.F.);
#247=ORIENTED_EDGE('',*,*,#287,.F.);
#248=ORIENTED_EDGE('',*,*,#276,.F.);
#249=ORIENTED_EDGE('',*,*,#369,.T.);
#250=ORIENTED_EDGE('',*,*,#370,.T.);
#251=ORIENTED_EDGE('',*,*,#371,.T.);
#252=ORIENTED_EDGE('',*,*,#372,.T.);
#253=ORIENTED_EDGE('',*,*,#373,.F.);
#254=ORIENTED_EDGE('',*,*,#367,.F.);
#255=ORIENTED_EDGE('',*,*,#374,.F.);
#256=ORIENTED_EDGE('',*,*,#372,.F.);
#257=ORIENTED_EDGE('',*,*,#374,.T.);
#258=ORIENTED_EDGE('',*,*,#361,.F.);
#259=ORIENTED_EDGE('',*,*,#375,.F.);
#260=ORIENTED_EDGE('',*,*,#369,.F.);
#261=ORIENTED_EDGE('',*,*,#373,.T.);
#262=ORIENTED_EDGE('',*,*,#371,.F.);
#263=ORIENTED_EDGE('',*,*,#376,.F.);
#264=ORIENTED_EDGE('',*,*,#365,.F.);
#265=ORIENTED_EDGE('',*,*,#375,.T.);
#266=ORIENTED_EDGE('',*,*,#346,.F.);
#267=ORIENTED_EDGE('',*,*,#376,.T.);
#268=ORIENTED_EDGE('',*,*,#370,.F.);
#269=ORIENTED_EDGE('',*,*,#366,.T.);
#270=ORIENTED_EDGE('',*,*,#344,.F.);
#271=EDGE_CURVE('',#377,#378,#447,.T.);
#272=EDGE_CURVE('',#379,#377,#448,.T.);
#273=EDGE_CURVE('',#379,#380,#449,.T.);
#274=EDGE_CURVE('',#378,#380,#450,.T.);
#275=EDGE_CURVE('',#381,#382,#451,.T.);
#276=EDGE_CURVE('',#382,#383,#33,.T.);
#277=EDGE_CURVE('',#384,#383,#452,.T.);
#278=EDGE_CURVE('',#384,#385,#34,.T.);
#279=EDGE_CURVE('',#386,#385,#453,.T.);
#280=EDGE_CURVE('',#386,#387,#35,.T.);
#281=EDGE_CURVE('',#388,#387,#454,.T.);
#282=EDGE_CURVE('',#388,#389,#36,.F.);
#283=EDGE_CURVE('',#389,#390,#455,.T.);
#284=EDGE_CURVE('',#390,#391,#37,.T.);
#285=EDGE_CURVE('',#392,#391,#456,.T.);
#286=EDGE_CURVE('',#392,#381,#38,.T.);
#287=EDGE_CURVE('',#383,#393,#457,.F.);
#288=EDGE_CURVE('',#393,#394,#458,.T.);
#289=EDGE_CURVE('',#394,#395,#459,.T.);
#290=EDGE_CURVE('',#395,#396,#460,.T.);
#291=EDGE_CURVE('',#396,#397,#461,.T.);
#292=EDGE_CURVE('',#398,#397,#462,.T.);
#293=EDGE_CURVE('',#398,#399,#463,.T.);
#294=EDGE_CURVE('',#399,#400,#464,.T.);
#295=EDGE_CURVE('',#400,#384,#465,.T.);
#296=EDGE_CURVE('',#401,#402,#466,.T.);
#297=EDGE_CURVE('',#403,#402,#467,.T.);
#298=EDGE_CURVE('',#403,#404,#468,.F.);
#299=EDGE_CURVE('',#404,#405,#469,.T.);
#300=EDGE_CURVE('',#405,#392,#470,.T.);
#301=EDGE_CURVE('',#391,#406,#471,.F.);
#302=EDGE_CURVE('',#406,#401,#472,.T.);
#303=EDGE_CURVE('',#407,#408,#473,.T.);
#304=EDGE_CURVE('',#408,#409,#474,.F.);
#305=EDGE_CURVE('',#409,#410,#475,.T.);
#306=EDGE_CURVE('',#410,#411,#476,.T.);
#307=EDGE_CURVE('',#412,#411,#477,.T.);
#308=EDGE_CURVE('',#412,#407,#478,.T.);
#309=EDGE_CURVE('',#389,#413,#479,.T.);
#310=EDGE_CURVE('',#413,#414,#480,.T.);
#311=EDGE_CURVE('',#414,#390,#481,.T.);
#312=EDGE_CURVE('',#415,#416,#482,.T.);
#313=EDGE_CURVE('',#416,#400,#39,.F.);
#314=EDGE_CURVE('',#399,#417,#40,.F.);
#315=EDGE_CURVE('',#417,#418,#483,.T.);
#316=EDGE_CURVE('',#418,#401,#41,.F.);
#317=EDGE_CURVE('',#406,#414,#42,.F.);
#318=EDGE_CURVE('',#413,#419,#43,.T.);
#319=EDGE_CURVE('',#419,#420,#484,.T.);
#320=EDGE_CURVE('',#420,#415,#44,.F.);
#321=EDGE_CURVE('',#381,#421,#485,.F.);
#322=EDGE_CURVE('',#421,#422,#486,.T.);
#323=EDGE_CURVE('',#422,#382,#487,.F.);
#324=EDGE_CURVE('',#393,#422,#45,.F.);
#325=EDGE_CURVE('',#421,#405,#46,.F.);
#326=EDGE_CURVE('',#404,#410,#47,.F.);
#327=EDGE_CURVE('',#409,#394,#48,.F.);
#328=EDGE_CURVE('',#417,#423,#488,.F.);
#329=EDGE_CURVE('',#423,#424,#489,.T.);
#330=EDGE_CURVE('',#424,#418,#490,.F.);
#331=EDGE_CURVE('',#402,#424,#49,.T.);
#332=EDGE_CURVE('',#425,#426,#491,.T.);
#333=EDGE_CURVE('',#427,#425,#492,.T.);
#334=EDGE_CURVE('',#427,#428,#493,.T.);
#335=EDGE_CURVE('',#428,#426,#494,.T.);
#336=EDGE_CURVE('',#378,#407,#495,.T.);
#337=EDGE_CURVE('',#377,#412,#496,.T.);
#338=EDGE_CURVE('',#429,#430,#497,.T.);
#339=EDGE_CURVE('',#431,#429,#498,.T.);
#340=EDGE_CURVE('',#431,#432,#499,.F.);
#341=EDGE_CURVE('',#432,#430,#500,.T.);
#342=EDGE_CURVE('',#426,#430,#501,.T.);
#343=EDGE_CURVE('',#428,#429,#502,.T.);
#344=EDGE_CURVE('',#433,#433,#50,.T.);
#345=EDGE_CURVE('',#434,#380,#503,.T.);
#346=EDGE_CURVE('',#434,#435,#504,.F.);
#347=EDGE_CURVE('',#435,#436,#505,.T.);
#348=EDGE_CURVE('',#436,#425,#506,.T.);
#349=EDGE_CURVE('',#432,#437,#51,.F.);
#350=EDGE_CURVE('',#437,#396,#52,.T.);
#351=EDGE_CURVE('',#395,#408,#53,.T.);
#352=EDGE_CURVE('',#437,#438,#507,.T.);
#353=EDGE_CURVE('',#397,#438,#54,.F.);
#354=EDGE_CURVE('',#438,#431,#55,.T.);
#355=EDGE_CURVE('',#423,#398,#56,.T.);
#356=EDGE_CURVE('',#411,#403,#57,.T.);
#357=EDGE_CURVE('',#387,#420,#508,.F.);
#358=EDGE_CURVE('',#419,#388,#509,.F.);
#359=EDGE_CURVE('',#385,#416,#510,.F.);
#360=EDGE_CURVE('',#415,#386,#511,.T.);
#361=EDGE_CURVE('',#435,#439,#512,.F.);
#362=EDGE_CURVE('',#439,#440,#513,.T.);
#363=EDGE_CURVE('',#440,#436,#514,.T.);
#364=EDGE_CURVE('',#441,#379,#515,.T.);
#365=EDGE_CURVE('',#441,#434,#516,.T.);
#366=EDGE_CURVE('',#442,#442,#58,.T.);
#367=EDGE_CURVE('',#439,#441,#517,.F.);
#368=EDGE_CURVE('',#427,#440,#518,.T.);
#369=EDGE_CURVE('',#443,#444,#519,.T.);
#370=EDGE_CURVE('',#444,#445,#520,.T.);
#371=EDGE_CURVE('',#445,#446,#521,.F.);
#372=EDGE_CURVE('',#446,#443,#522,.T.);
#373=EDGE_CURVE('',#441,#446,#12,.T.);
#374=EDGE_CURVE('',#443,#439,#13,.F.);
#375=EDGE_CURVE('',#444,#435,#14,.F.);
#376=EDGE_CURVE('',#434,#445,#15,.T.);
#377=VERTEX_POINT('',#1045);
#378=VERTEX_POINT('',#1046);
#379=VERTEX_POINT('',#1048);
#380=VERTEX_POINT('',#1050);
#381=VERTEX_POINT('',#1054);
#382=VERTEX_POINT('',#1055);
#383=VERTEX_POINT('',#1057);
#384=VERTEX_POINT('',#1059);
#385=VERTEX_POINT('',#1061);
#386=VERTEX_POINT('',#1063);
#387=VERTEX_POINT('',#1065);
#388=VERTEX_POINT('',#1067);
#389=VERTEX_POINT('',#1069);
#390=VERTEX_POINT('',#1071);
#391=VERTEX_POINT('',#1073);
#392=VERTEX_POINT('',#1075);
#393=VERTEX_POINT('',#1079);
#394=VERTEX_POINT('',#1081);
#395=VERTEX_POINT('',#1083);
#396=VERTEX_POINT('',#1085);
#397=VERTEX_POINT('',#1087);
#398=VERTEX_POINT('',#1089);
#399=VERTEX_POINT('',#1091);
#400=VERTEX_POINT('',#1093);
#401=VERTEX_POINT('',#1097);
#402=VERTEX_POINT('',#1098);
#403=VERTEX_POINT('',#1100);
#404=VERTEX_POINT('',#1102);
#405=VERTEX_POINT('',#1104);
#406=VERTEX_POINT('',#1107);
#407=VERTEX_POINT('',#1111);
#408=VERTEX_POINT('',#1112);
#409=VERTEX_POINT('',#1114);
#410=VERTEX_POINT('',#1116);
#411=VERTEX_POINT('',#1118);
#412=VERTEX_POINT('',#1120);
#413=VERTEX_POINT('',#1124);
#414=VERTEX_POINT('',#1126);
#415=VERTEX_POINT('',#1130);
#416=VERTEX_POINT('',#1131);
#417=VERTEX_POINT('',#1134);
#418=VERTEX_POINT('',#1136);
#419=VERTEX_POINT('',#1140);
#420=VERTEX_POINT('',#1142);
#421=VERTEX_POINT('',#1146);
#422=VERTEX_POINT('',#1148);
#423=VERTEX_POINT('',#1159);
#424=VERTEX_POINT('',#1161);
#425=VERTEX_POINT('',#1167);
#426=VERTEX_POINT('',#1168);
#427=VERTEX_POINT('',#1170);
#428=VERTEX_POINT('',#1172);
#429=VERTEX_POINT('',#1179);
#430=VERTEX_POINT('',#1180);
#431=VERTEX_POINT('',#1182);
#432=VERTEX_POINT('',#1184);
#433=VERTEX_POINT('',#1191);
#434=VERTEX_POINT('',#1193);
#435=VERTEX_POINT('',#1195);
#436=VERTEX_POINT('',#1197);
#437=VERTEX_POINT('',#1200);
#438=VERTEX_POINT('',#1205);
#439=VERTEX_POINT('',#1225);
#440=VERTEX_POINT('',#1227);
#441=VERTEX_POINT('',#1231);
#442=VERTEX_POINT('',#1235);
#443=VERTEX_POINT('',#1242);
#444=VERTEX_POINT('',#1243);
#445=VERTEX_POINT('',#1245);
#446=VERTEX_POINT('',#1247);
#447=LINE('',#1044,#523);
#448=LINE('',#1047,#524);
#449=LINE('',#1049,#525);
#450=LINE('',#1051,#526);
#451=LINE('',#1053,#527);
#452=LINE('',#1058,#528);
#453=LINE('',#1062,#529);
#454=LINE('',#1066,#530);
#455=LINE('',#1070,#531);
#456=LINE('',#1074,#532);
#457=LINE('',#1078,#533);
#458=LINE('',#1080,#534);
#459=LINE('',#1082,#535);
#460=LINE('',#1084,#536);
#461=LINE('',#1086,#537);
#462=LINE('',#1088,#538);
#463=LINE('',#1090,#539);
#464=LINE('',#1092,#540);
#465=LINE('',#1094,#541);
#466=LINE('',#1096,#542);
#467=LINE('',#1099,#543);
#468=LINE('',#1101,#544);
#469=LINE('',#1103,#545);
#470=LINE('',#1105,#546);
#471=LINE('',#1106,#547);
#472=LINE('',#1108,#548);
#473=LINE('',#1110,#549);
#474=LINE('',#1113,#550);
#475=LINE('',#1115,#551);
#476=LINE('',#1117,#552);
#477=LINE('',#1119,#553);
#478=LINE('',#1121,#554);
#479=LINE('',#1123,#555);
#480=LINE('',#1125,#556);
#481=LINE('',#1127,#557);
#482=LINE('',#1129,#558);
#483=LINE('',#1135,#559);
#484=LINE('',#1141,#560);
#485=LINE('',#1145,#561);
#486=LINE('',#1147,#562);
#487=LINE('',#1149,#563);
#488=LINE('',#1158,#564);
#489=LINE('',#1160,#565);
#490=LINE('',#1162,#566);
#491=LINE('',#1166,#567);
#492=LINE('',#1169,#568);
#493=LINE('',#1171,#569);
#494=LINE('',#1173,#570);
#495=LINE('',#1175,#571);
#496=LINE('',#1176,#572);
#497=LINE('',#1178,#573);
#498=LINE('',#1181,#574);
#499=LINE('',#1183,#575);
#500=LINE('',#1185,#576);
#501=LINE('',#1187,#577);
#502=LINE('',#1188,#578);
#503=LINE('',#1192,#579);
#504=LINE('',#1194,#580);
#505=LINE('',#1196,#581);
#506=LINE('',#1198,#582);
#507=LINE('',#1204,#583);
#508=LINE('',#1215,#584);
#509=LINE('',#1216,#585);
#510=LINE('',#1218,#586);
#511=LINE('',#1219,#587);
#512=LINE('',#1224,#588);
#513=LINE('',#1226,#589);
#514=LINE('',#1228,#590);
#515=LINE('',#1230,#591);
#516=LINE('',#1232,#592);
#517=LINE('',#1236,#593);
#518=LINE('',#1237,#594);
#519=LINE('',#1241,#595);
#520=LINE('',#1244,#596);
#521=LINE('',#1246,#597);
#522=LINE('',#1248,#598);
#523=VECTOR('',#830,1.);
#524=VECTOR('',#831,1.);
#525=VECTOR('',#832,1.);
#526=VECTOR('',#833,1.);
#527=VECTOR('',#836,1.);
#528=VECTOR('',#839,1.);
#529=VECTOR('',#842,1.);
#530=VECTOR('',#845,1.);
#531=VECTOR('',#848,1.);
#532=VECTOR('',#851,1.);
#533=VECTOR('',#856,1.);
#534=VECTOR('',#857,1.);
#535=VECTOR('',#858,1.);
#536=VECTOR('',#859,1.);
#537=VECTOR('',#860,1.);
#538=VECTOR('',#861,1.);
#539=VECTOR('',#862,1.);
#540=VECTOR('',#863,1.);
#541=VECTOR('',#864,1.);
#542=VECTOR('',#867,1.);
#543=VECTOR('',#868,1.);
#544=VECTOR('',#869,1.);
#545=VECTOR('',#870,1.);
#546=VECTOR('',#871,1.);
#547=VECTOR('',#872,1.);
#548=VECTOR('',#873,1.);
#549=VECTOR('',#876,1.);
#550=VECTOR('',#877,1.);
#551=VECTOR('',#878,1.);
#552=VECTOR('',#879,1.);
#553=VECTOR('',#880,1.);
#554=VECTOR('',#881,1.);
#555=VECTOR('',#884,1.);
#556=VECTOR('',#885,1.);
#557=VECTOR('',#886,1.);
#558=VECTOR('',#889,1.);
#559=VECTOR('',#894,1.);
#560=VECTOR('',#901,1.);
#561=VECTOR('',#906,1.);
#562=VECTOR('',#907,1.);
#563=VECTOR('',#908,1.);
#564=VECTOR('',#925,1.);
#565=VECTOR('',#926,1.);
#566=VECTOR('',#927,1.);
#567=VECTOR('',#934,1.);
#568=VECTOR('',#935,1.);
#569=VECTOR('',#936,1.);
#570=VECTOR('',#937,1.);
#571=VECTOR('',#940,1.);
#572=VECTOR('',#941,1.);
#573=VECTOR('',#944,1.);
#574=VECTOR('',#945,1.);
#575=VECTOR('',#946,1.);
#576=VECTOR('',#947,1.);
#577=VECTOR('',#950,1.);
#578=VECTOR('',#951,1.);
#579=VECTOR('',#956,1.);
#580=VECTOR('',#957,1.);
#581=VECTOR('',#958,1.);
#582=VECTOR('',#959,1.);
#583=VECTOR('',#968,1.);
#584=VECTOR('',#987,1.);
#585=VECTOR('',#988,1.);
#586=VECTOR('',#991,1.);
#587=VECTOR('',#992,1.);
#588=VECTOR('',#1001,1.);
#589=VECTOR('',#1002,1.);
#590=VECTOR('',#1003,1.);
#591=VECTOR('',#1006,1.);
#592=VECTOR('',#1007,1.);
#593=VECTOR('',#1012,1.);
#594=VECTOR('',#1013,1.);
#595=VECTOR('',#1020,1.);
#596=VECTOR('',#1021,1.);
#597=VECTOR('',#1022,1.);
#598=VECTOR('',#1023,1.);
#599=EDGE_LOOP('',(#59,#60,#61,#62));
#600=EDGE_LOOP('',(#63,#64,#65,#66,#67,#68,#69,#70,#71,#72,#73,#74));
#601=EDGE_LOOP('',(#75,#76,#77,#78,#79,#80,#81,#82,#83,#84));
#602=EDGE_LOOP('',(#85,#86,#87,#88,#89,#90,#91,#92));
#603=EDGE_LOOP('',(#93,#94,#95,#96,#97,#98));
#604=EDGE_LOOP('',(#99,#100,#101,#102));
#605=EDGE_LOOP('',(#103,#104,#105,#106,#107,#108,#109,#110,#111,#112,#113,
#114));
#606=EDGE_LOOP('',(#115,#116,#117,#118));
#607=EDGE_LOOP('',(#119,#120,#121,#122,#123,#124,#125,#126));
#608=EDGE_LOOP('',(#127,#128,#129,#130));
#609=EDGE_LOOP('',(#131,#132,#133,#134));
#610=EDGE_LOOP('',(#135,#136,#137,#138));
#611=EDGE_LOOP('',(#139,#140,#141,#142));
#612=EDGE_LOOP('',(#143,#144,#145,#146));
#613=EDGE_LOOP('',(#147,#148,#149,#150));
#614=EDGE_LOOP('',(#151,#152,#153,#154));
#615=EDGE_LOOP('',(#155,#156,#157,#158));
#616=EDGE_LOOP('',(#159));
#617=EDGE_LOOP('',(#160,#161,#162,#163,#164,#165,#166,#167,#168,#169,#170,
#171,#172,#173));
#618=EDGE_LOOP('',(#174,#175,#176,#177));
#619=EDGE_LOOP('',(#178,#179,#180,#181));
#620=EDGE_LOOP('',(#182,#183,#184,#185));
#621=EDGE_LOOP('',(#186,#187,#188,#189));
#622=EDGE_LOOP('',(#190,#191,#192,#193));
#623=EDGE_LOOP('',(#194,#195,#196,#197));
#624=EDGE_LOOP('',(#198,#199,#200,#201));
#625=EDGE_LOOP('',(#202,#203,#204,#205));
#626=EDGE_LOOP('',(#206,#207,#208,#209));
#627=EDGE_LOOP('',(#210,#211,#212,#213));
#628=EDGE_LOOP('',(#214,#215,#216,#217));
#629=EDGE_LOOP('',(#218,#219,#220,#221));
#630=EDGE_LOOP('',(#222));
#631=EDGE_LOOP('',(#223,#224,#225,#226,#227,#228,#229,#230,#231,#232,#233,
#234,#235,#236,#237,#238,#239,#240));
#632=EDGE_LOOP('',(#241,#242,#243,#244));
#633=EDGE_LOOP('',(#245,#246,#247,#248));
#634=EDGE_LOOP('',(#249,#250,#251,#252));
#635=EDGE_LOOP('',(#253,#254,#255,#256));
#636=EDGE_LOOP('',(#257,#258,#259,#260));
#637=EDGE_LOOP('',(#261,#262,#263,#264));
#638=EDGE_LOOP('',(#265,#266,#267,#268));
#639=EDGE_LOOP('',(#269));
#640=EDGE_LOOP('',(#270));
#641=FACE_BOUND('',#599,.T.);
#642=FACE_BOUND('',#600,.T.);
#643=FACE_BOUND('',#601,.T.);
#644=FACE_BOUND('',#602,.T.);
#645=FACE_BOUND('',#603,.T.);
#646=FACE_BOUND('',#604,.T.);
#647=FACE_BOUND('',#605,.T.);
#648=FACE_BOUND('',#606,.T.);
#649=FACE_BOUND('',#607,.T.);
#650=FACE_BOUND('',#608,.T.);
#651=FACE_BOUND('',#609,.T.);
#652=FACE_BOUND('',#610,.T.);
#653=FACE_BOUND('',#611,.T.);
#654=FACE_BOUND('',#612,.T.);
#655=FACE_BOUND('',#613,.T.);
#656=FACE_BOUND('',#614,.T.);
#657=FACE_BOUND('',#615,.T.);
#658=FACE_BOUND('',#616,.T.);
#659=FACE_BOUND('',#617,.T.);
#660=FACE_BOUND('',#618,.T.);
#661=FACE_BOUND('',#619,.T.);
#662=FACE_BOUND('',#620,.T.);
#663=FACE_BOUND('',#621,.T.);
#664=FACE_BOUND('',#622,.T.);
#665=FACE_BOUND('',#623,.T.);
#666=FACE_BOUND('',#624,.T.);
#667=FACE_BOUND('',#625,.T.);
#668=FACE_BOUND('',#626,.T.);
#669=FACE_BOUND('',#627,.T.);
#670=FACE_BOUND('',#628,.T.);
#671=FACE_BOUND('',#629,.T.);
#672=FACE_BOUND('',#630,.T.);
#673=FACE_BOUND('',#631,.T.);
#674=FACE_BOUND('',#632,.T.);
#675=FACE_BOUND('',#633,.T.);
#676=FACE_BOUND('',#634,.T.);
#677=FACE_BOUND('',#635,.T.);
#678=FACE_BOUND('',#636,.T.);
#679=FACE_BOUND('',#637,.T.);
#680=FACE_BOUND('',#638,.T.);
#681=FACE_BOUND('',#639,.T.);
#682=FACE_BOUND('',#640,.T.);
#683=PLANE('',#757);
#684=PLANE('',#758);
#685=PLANE('',#765);
#686=PLANE('',#766);
#687=PLANE('',#767);
#688=PLANE('',#768);
#689=PLANE('',#769);
#690=PLANE('',#776);
#691=PLANE('',#777);
#692=PLANE('',#784);
#693=PLANE('',#787);
#694=PLANE('',#788);
#695=PLANE('',#789);
#696=PLANE('',#790);
#697=PLANE('',#791);
#698=PLANE('',#805);
#699=PLANE('',#806);
#700=PLANE('',#810);
#701=PLANE('',#811);
#702=PLANE('',#812);
#703=PLANE('',#814);
#704=PLANE('',#816);
#705=ADVANCED_FACE('',(#641),#683,.F.);
#706=ADVANCED_FACE('',(#642),#684,.F.);
#707=ADVANCED_FACE('',(#643),#685,.T.);
#708=ADVANCED_FACE('',(#644),#686,.T.);
#709=ADVANCED_FACE('',(#645),#687,.T.);
#710=ADVANCED_FACE('',(#646),#688,.T.);
#711=ADVANCED_FACE('',(#647),#689,.F.);
#712=ADVANCED_FACE('',(#648),#690,.T.);
#713=ADVANCED_FACE('',(#649),#691,.F.);
#714=ADVANCED_FACE('',(#650),#16,.T.);
#715=ADVANCED_FACE('',(#651),#17,.T.);
#716=ADVANCED_FACE('',(#652),#692,.T.);
#717=ADVANCED_FACE('',(#653),#18,.T.);
#718=ADVANCED_FACE('',(#654),#693,.T.);
#719=ADVANCED_FACE('',(#655),#694,.F.);
#720=ADVANCED_FACE('',(#656),#695,.F.);
#721=ADVANCED_FACE('',(#657),#696,.T.);
#722=ADVANCED_FACE('',(#658,#659),#697,.F.);
#723=ADVANCED_FACE('',(#660),#19,.F.);
#724=ADVANCED_FACE('',(#661),#20,.T.);
#725=ADVANCED_FACE('',(#662),#21,.T.);
#726=ADVANCED_FACE('',(#663),#22,.T.);
#727=ADVANCED_FACE('',(#664),#23,.T.);
#728=ADVANCED_FACE('',(#665),#698,.F.);
#729=ADVANCED_FACE('',(#666),#699,.F.);
#730=ADVANCED_FACE('',(#667),#24,.T.);
#731=ADVANCED_FACE('',(#668),#25,.T.);
#732=ADVANCED_FACE('',(#669),#26,.F.);
#733=ADVANCED_FACE('',(#670),#700,.F.);
#734=ADVANCED_FACE('',(#671),#701,.T.);
#735=ADVANCED_FACE('',(#672,#673),#702,.F.);
#736=ADVANCED_FACE('',(#674),#703,.F.);
#737=ADVANCED_FACE('',(#675),#27,.T.);
#738=ADVANCED_FACE('',(#676),#704,.T.);
#739=ADVANCED_FACE('',(#677),#28,.T.);
#740=ADVANCED_FACE('',(#678),#29,.T.);
#741=ADVANCED_FACE('',(#679),#30,.T.);
#742=ADVANCED_FACE('',(#680),#31,.T.);
#743=ADVANCED_FACE('',(#681,#682),#32,.F.);
#744=CLOSED_SHELL('',(#705,#706,#707,#708,#709,#710,#711,#712,#713,#714,
#715,#716,#717,#718,#719,#720,#721,#722,#723,#724,#725,#726,#727,#728,#729,
#730,#731,#732,#733,#734,#735,#736,#737,#738,#739,#740,#741,#742,#743));
#745=STYLED_ITEM('',(#746),#753);
#746=PRESENTATION_STYLE_ASSIGNMENT((#747));
#747=SURFACE_STYLE_USAGE(.BOTH.,#748);
#748=SURFACE_SIDE_STYLE('',(#749));
#749=SURFACE_STYLE_FILL_AREA(#750);
#750=FILL_AREA_STYLE('',(#751));
#751=FILL_AREA_STYLE_COLOUR('',#752);
#752=DRAUGHTING_PRE_DEFINED_COLOUR('red');
#753=MANIFOLD_SOLID_BREP('Button + Lever',#744);
#754=SHAPE_DEFINITION_REPRESENTATION(#1264,#755);
#755=SHAPE_REPRESENTATION('Button + Lever',(#756),#1259);
#756=AXIS2_PLACEMENT_3D('',#1042,#826,#827);
#757=AXIS2_PLACEMENT_3D('',#1043,#828,#829);
#758=AXIS2_PLACEMENT_3D('',#1052,#834,#835);
#759=AXIS2_PLACEMENT_3D('',#1056,#837,#838);
#760=AXIS2_PLACEMENT_3D('',#1060,#840,#841);
#761=AXIS2_PLACEMENT_3D('',#1064,#843,#844);
#762=AXIS2_PLACEMENT_3D('',#1068,#846,#847);
#763=AXIS2_PLACEMENT_3D('',#1072,#849,#850);
#764=AXIS2_PLACEMENT_3D('',#1076,#852,#853);
#765=AXIS2_PLACEMENT_3D('',#1077,#854,#855);
#766=AXIS2_PLACEMENT_3D('',#1095,#865,#866);
#767=AXIS2_PLACEMENT_3D('',#1109,#874,#875);
#768=AXIS2_PLACEMENT_3D('',#1122,#882,#883);
#769=AXIS2_PLACEMENT_3D('',#1128,#887,#888);
#770=AXIS2_PLACEMENT_3D('',#1132,#890,#891);
#771=AXIS2_PLACEMENT_3D('',#1133,#892,#893);
#772=AXIS2_PLACEMENT_3D('',#1137,#895,#896);
#773=AXIS2_PLACEMENT_3D('',#1138,#897,#898);
#774=AXIS2_PLACEMENT_3D('',#1139,#899,#900);
#775=AXIS2_PLACEMENT_3D('',#1143,#902,#903);
#776=AXIS2_PLACEMENT_3D('',#1144,#904,#905);
#777=AXIS2_PLACEMENT_3D('',#1150,#909,#910);
#778=AXIS2_PLACEMENT_3D('',#1151,#911,#912);
#779=AXIS2_PLACEMENT_3D('',#1152,#913,#914);
#780=AXIS2_PLACEMENT_3D('',#1153,#915,#916);
#781=AXIS2_PLACEMENT_3D('',#1154,#917,#918);
#782=AXIS2_PLACEMENT_3D('',#1155,#919,#920);
#783=AXIS2_PLACEMENT_3D('',#1156,#921,#922);
#784=AXIS2_PLACEMENT_3D('',#1157,#923,#924);
#785=AXIS2_PLACEMENT_3D('',#1163,#928,#929);
#786=AXIS2_PLACEMENT_3D('',#1164,#930,#931);
#787=AXIS2_PLACEMENT_3D('',#1165,#932,#933);
#788=AXIS2_PLACEMENT_3D('',#1174,#938,#939);
#789=AXIS2_PLACEMENT_3D('',#1177,#942,#943);
#790=AXIS2_PLACEMENT_3D('',#1186,#948,#949);
#791=AXIS2_PLACEMENT_3D('',#1189,#952,#953);
#792=AXIS2_PLACEMENT_3D('',#1190,#954,#955);
#793=AXIS2_PLACEMENT_3D('',#1199,#960,#961);
#794=AXIS2_PLACEMENT_3D('',#1201,#962,#963);
#795=AXIS2_PLACEMENT_3D('',#1202,#964,#965);
#796=AXIS2_PLACEMENT_3D('',#1203,#966,#967);
#797=AXIS2_PLACEMENT_3D('',#1206,#969,#970);
#798=AXIS2_PLACEMENT_3D('',#1207,#971,#972);
#799=AXIS2_PLACEMENT_3D('',#1208,#973,#974);
#800=AXIS2_PLACEMENT_3D('',#1209,#975,#976);
#801=AXIS2_PLACEMENT_3D('',#1210,#977,#978);
#802=AXIS2_PLACEMENT_3D('',#1211,#979,#980);
#803=AXIS2_PLACEMENT_3D('',#1212,#981,#982);
#804=AXIS2_PLACEMENT_3D('',#1213,#983,#984);
#805=AXIS2_PLACEMENT_3D('',#1214,#985,#986);
#806=AXIS2_PLACEMENT_3D('',#1217,#989,#990);
#807=AXIS2_PLACEMENT_3D('',#1220,#993,#994);
#808=AXIS2_PLACEMENT_3D('',#1221,#995,#996);
#809=AXIS2_PLACEMENT_3D('',#1222,#997,#998);
#810=AXIS2_PLACEMENT_3D('',#1223,#999,#1000);
#811=AXIS2_PLACEMENT_3D('',#1229,#1004,#1005);
#812=AXIS2_PLACEMENT_3D('',#1233,#1008,#1009);
#813=AXIS2_PLACEMENT_3D('',#1234,#1010,#1011);
#814=AXIS2_PLACEMENT_3D('',#1238,#1014,#1015);
#815=AXIS2_PLACEMENT_3D('',#1239,#1016,#1017);
#816=AXIS2_PLACEMENT_3D('',#1240,#1018,#1019);
#817=AXIS2_PLACEMENT_3D('',#1249,#1024,#1025);
#818=AXIS2_PLACEMENT_3D('',#1250,#1026,#1027);
#819=AXIS2_PLACEMENT_3D('',#1251,#1028,#1029);
#820=AXIS2_PLACEMENT_3D('',#1252,#1030,#1031);
#821=AXIS2_PLACEMENT_3D('',#1253,#1032,#1033);
#822=AXIS2_PLACEMENT_3D('',#1254,#1034,#1035);
#823=AXIS2_PLACEMENT_3D('',#1255,#1036,#1037);
#824=AXIS2_PLACEMENT_3D('',#1256,#1038,#1039);
#825=AXIS2_PLACEMENT_3D('',#1257,#1040,#1041);
#826=DIRECTION('',(0.,0.,1.));
#827=DIRECTION('',(1.,0.,0.));
#828=DIRECTION('',(0.,1.,0.));
#829=DIRECTION('',(-1.,0.,0.));
#830=DIRECTION('',(-1.,0.,0.));
#831=DIRECTION('',(0.,0.,-1.));
#832=DIRECTION('',(-1.,0.,0.));
#833=DIRECTION('',(0.,0.,1.));
#834=DIRECTION('',(1.,0.,0.));
#835=DIRECTION('',(0.,1.,0.));
#836=DIRECTION('',(0.,0.,-1.));
#837=DIRECTION('',(1.,0.,0.));
#838=DIRECTION('',(0.,0.,-1.));
#839=DIRECTION('',(0.,1.,0.));
#840=DIRECTION('',(1.,0.,0.));
#841=DIRECTION('',(0.,0.,-1.));
#842=DIRECTION('',(0.,-0.342020143325669,-0.939692620785908));
#843=DIRECTION('',(1.,0.,0.));
#844=DIRECTION('',(0.,0.,-1.));
#845=DIRECTION('',(0.,0.939692620785908,-0.342020143325669));
#846=DIRECTION('',(1.,0.,0.));
#847=DIRECTION('',(0.,0.,-1.));
#848=DIRECTION('',(0.,0.,1.));
#849=DIRECTION('',(1.,0.,0.));
#850=DIRECTION('',(0.,0.,-1.));
#851=DIRECTION('',(0.,-1.,0.));
#852=DIRECTION('',(1.,0.,0.));
#853=DIRECTION('',(0.,0.,-1.));
#854=DIRECTION('',(0.,0.,-1.));
#855=DIRECTION('',(-1.,0.,0.));
#856=DIRECTION('',(1.,0.,0.));
#857=DIRECTION('',(0.,1.,0.));
#858=DIRECTION('',(1.,0.,0.));
#859=DIRECTION('',(0.,-1.,0.));
#860=DIRECTION('',(1.,0.,0.));
#861=DIRECTION('',(0.,1.,0.));
#862=DIRECTION('',(-1.,-1.7347234759768E-16,0.));
#863=DIRECTION('',(0.,1.,0.));
#864=DIRECTION('',(1.,0.,0.));
#865=DIRECTION('',(0.,0.,1.));
#866=DIRECTION('',(1.,0.,0.));
#867=DIRECTION('',(1.,1.7347234759768E-16,0.));
#868=DIRECTION('',(0.,-1.,0.));
#869=DIRECTION('',(1.,0.,0.));
#870=DIRECTION('',(0.,-1.,0.));
#871=DIRECTION('',(1.,0.,0.));
#872=DIRECTION('',(1.,0.,0.));
#873=DIRECTION('',(0.,-1.,0.));
#874=DIRECTION('',(0.,1.,0.));
#875=DIRECTION('',(0.,0.,1.));
#876=DIRECTION('',(0.,0.,1.));
#877=DIRECTION('',(1.,0.,0.));
#878=DIRECTION('',(0.,0.,1.));
#879=DIRECTION('',(1.,0.,0.));
#880=DIRECTION('',(0.,0.,1.));
#881=DIRECTION('',(-1.,0.,0.));
#882=DIRECTION('',(0.,1.,0.));
#883=DIRECTION('',(0.,0.,1.));
#884=DIRECTION('',(-1.,0.,0.));
#885=DIRECTION('',(0.,0.,1.));
#886=DIRECTION('',(1.,0.,0.));
#887=DIRECTION('',(1.,0.,0.));
#888=DIRECTION('',(0.,1.,0.));
#889=DIRECTION('',(0.,-0.342020143325669,-0.939692620785908));
#890=DIRECTION('',(1.,0.,0.));
#891=DIRECTION('',(0.,0.,-1.));
#892=DIRECTION('',(1.,0.,0.));
#893=DIRECTION('',(0.,0.,-1.));
#894=DIRECTION('',(0.,0.,1.));
#895=DIRECTION('',(1.,0.,0.));
#896=DIRECTION('',(0.,0.,-1.));
#897=DIRECTION('',(1.,0.,0.));
#898=DIRECTION('',(0.,0.,-1.));
#899=DIRECTION('',(1.,0.,0.));
#900=DIRECTION('',(0.,0.,-1.));
#901=DIRECTION('',(0.,0.939692620785908,-0.342020143325669));
#902=DIRECTION('',(1.,0.,0.));
#903=DIRECTION('',(0.,0.,-1.));
#904=DIRECTION('',(0.,-1.,0.));
#905=DIRECTION('',(0.,0.,-1.));
#906=DIRECTION('',(1.,0.,0.));
#907=DIRECTION('',(0.,0.,-1.));
#908=DIRECTION('',(-1.,0.,0.));
#909=DIRECTION('',(1.,0.,0.));
#910=DIRECTION('',(0.,1.,0.));
#911=DIRECTION('',(1.,0.,0.));
#912=DIRECTION('',(0.,0.,-1.));
#913=DIRECTION('',(1.,0.,0.));
#914=DIRECTION('',(0.,0.,-1.));
#915=DIRECTION('',(1.,0.,0.));
#916=DIRECTION('',(0.,0.,-1.));
#917=DIRECTION('',(1.,0.,0.));
#918=DIRECTION('',(0.,0.,-1.));
#919=DIRECTION('',(1.,0.,0.));
#920=DIRECTION('',(0.,0.,-1.));
#921=DIRECTION('',(1.,0.,0.));
#922=DIRECTION('',(0.,0.,-1.));
#923=DIRECTION('',(1.7347234759768E-16,-1.,0.));
#924=DIRECTION('',(1.,1.7347234759768E-16,0.));
#925=DIRECTION('',(-1.,-1.7347234759768E-16,0.));
#926=DIRECTION('',(0.,0.,1.));
#927=DIRECTION('',(1.,1.7347234759768E-16,0.));
#928=DIRECTION('',(1.,1.7347234759768E-16,0.));
#929=DIRECTION('',(-1.7347234759768E-16,1.,0.));
#930=DIRECTION('',(1.,0.,0.));
#931=DIRECTION('',(0.,0.,-1.));
#932=DIRECTION('',(0.,0.,-1.));
#933=DIRECTION('',(-1.,0.,0.));
#934=DIRECTION('',(0.,-1.,0.));
#935=DIRECTION('',(-1.,0.,0.));
#936=DIRECTION('',(0.,-1.,0.));
#937=DIRECTION('',(-1.,0.,0.));
#938=DIRECTION('',(0.,0.,-1.));
#939=DIRECTION('',(-1.,0.,0.));
#940=DIRECTION('',(0.,-1.,0.));
#941=DIRECTION('',(0.,-1.,0.));
#942=DIRECTION('',(0.,0.,1.));
#943=DIRECTION('',(1.,0.,0.));
#944=DIRECTION('',(-1.,0.,0.));
#945=DIRECTION('',(0.,1.,0.));
#946=DIRECTION('',(1.,0.,0.));
#947=DIRECTION('',(0.,1.,0.));
#948=DIRECTION('',(0.,1.,0.));
#949=DIRECTION('',(0.,0.,1.));
#950=DIRECTION('',(0.,0.,-1.));
#951=DIRECTION('',(0.,0.,-1.));
#952=DIRECTION('',(1.,0.,0.));
#953=DIRECTION('',(0.,1.,0.));
#954=DIRECTION('',(1.,0.,0.));
#955=DIRECTION('',(0.,0.,-1.));
#956=DIRECTION('',(0.,-1.,0.));
#957=DIRECTION('',(0.,0.,1.));
#958=DIRECTION('',(0.,-1.,0.));
#959=DIRECTION('',(0.,0.,1.));
#960=DIRECTION('',(1.,0.,0.));
#961=DIRECTION('',(0.,0.,-1.));
#962=DIRECTION('',(1.,0.,0.));
#963=DIRECTION('',(0.,0.,-1.));
#964=DIRECTION('',(1.,0.,0.));
#965=DIRECTION('',(0.,0.,-1.));
#966=DIRECTION('',(1.,0.,0.));
#967=DIRECTION('',(0.,0.,-1.));
#968=DIRECTION('',(1.,0.,0.));
#969=DIRECTION('',(1.,0.,0.));
#970=DIRECTION('',(0.,0.,-1.));
#971=DIRECTION('',(1.,0.,0.));
#972=DIRECTION('',(0.,0.,-1.));
#973=DIRECTION('',(1.,0.,0.));
#974=DIRECTION('',(0.,0.,-1.));
#975=DIRECTION('',(-1.,-1.7347234759768E-16,0.));
#976=DIRECTION('',(1.7347234759768E-16,-1.,0.));
#977=DIRECTION('',(1.,0.,0.));
#978=DIRECTION('',(0.,0.,-1.));
#979=DIRECTION('',(1.,0.,0.));
#980=DIRECTION('',(0.,0.,-1.));
#981=DIRECTION('',(1.,0.,0.));
#982=DIRECTION('',(0.,0.,-1.));
#983=DIRECTION('',(1.,0.,0.));
#984=DIRECTION('',(0.,0.,-1.));
#985=DIRECTION('',(0.,-0.342020143325669,-0.939692620785908));
#986=DIRECTION('',(0.,0.939692620785908,-0.342020143325669));
#987=DIRECTION('',(1.,0.,0.));
#988=DIRECTION('',(-1.,0.,0.));
#989=DIRECTION('',(0.,-0.939692620785908,0.342020143325669));
#990=DIRECTION('',(0.,-0.342020143325669,-0.939692620785908));
#991=DIRECTION('',(1.,0.,0.));
#992=DIRECTION('',(1.,0.,0.));
#993=DIRECTION('',(-1.,0.,0.));
#994=DIRECTION('',(0.,0.,1.));
#995=DIRECTION('',(1.,0.,0.));
#996=DIRECTION('',(0.,0.,-1.));
#997=DIRECTION('',(-1.,0.,0.));
#998=DIRECTION('',(0.,0.,1.));
#999=DIRECTION('',(0.,0.,1.));
#1000=DIRECTION('',(1.,0.,0.));
#1001=DIRECTION('',(-1.,0.,0.));
#1002=DIRECTION('',(0.,-1.,0.));
#1003=DIRECTION('',(-1.,0.,0.));
#1004=DIRECTION('',(0.,0.,1.));
#1005=DIRECTION('',(1.,0.,0.));
#1006=DIRECTION('',(0.,-1.,0.));
#1007=DIRECTION('',(-1.,0.,0.));
#1008=DIRECTION('',(-1.,0.,0.));
#1009=DIRECTION('',(0.,0.,1.));
#1010=DIRECTION('',(1.,0.,0.));
#1011=DIRECTION('',(0.,0.,-1.));
#1012=DIRECTION('',(0.,0.,-1.));
#1013=DIRECTION('',(0.,0.,-1.));
#1014=DIRECTION('',(0.,1.,0.));
#1015=DIRECTION('',(-1.,0.,0.));
#1016=DIRECTION('',(-1.,0.,0.));
#1017=DIRECTION('',(0.,0.,1.));
#1018=DIRECTION('',(0.,1.,0.));
#1019=DIRECTION('',(-1.,0.,0.));
#1020=DIRECTION('',(-1.,0.,0.));
#1021=DIRECTION('',(0.,0.,1.));
#1022=DIRECTION('',(-1.,0.,0.));
#1023=DIRECTION('',(0.,0.,-1.));
#1024=DIRECTION('',(0.,0.,1.));
#1025=DIRECTION('',(1.,0.,0.));
#1026=DIRECTION('',(-0.707106781186548,0.,0.707106781186548));
#1027=DIRECTION('',(-0.707106781186548,0.,-0.707106781186548));
#1028=DIRECTION('',(0.707106781186548,0.,0.707106781186548));
#1029=DIRECTION('',(-0.707106781186548,0.,0.707106781186548));
#1030=DIRECTION('',(1.,0.,0.));
#1031=DIRECTION('',(0.,0.,-1.));
#1032=DIRECTION('',(0.707106781186548,0.,-0.707106781186548));
#1033=DIRECTION('',(0.707106781186548,0.,0.707106781186548));
#1034=DIRECTION('',(-1.,0.,0.));
#1035=DIRECTION('',(0.,0.,1.));
#1036=DIRECTION('',(-0.707106781186548,0.,-0.707106781186548));
#1037=DIRECTION('',(-0.707106781186548,0.,0.707106781186548));
#1038=DIRECTION('',(0.,0.,-1.));
#1039=DIRECTION('',(-1.,0.,0.));
#1040=DIRECTION('',(1.,0.,0.));
#1041=DIRECTION('',(0.,0.,-1.));
#1042=CARTESIAN_POINT('',(0.,0.,0.));
#1043=CARTESIAN_POINT('',(0.01575,0.0816000231355429,0.0987371435934424));
#1044=CARTESIAN_POINT('',(0.0155,0.0816000231355429,0.0941840890828037));
#1045=CARTESIAN_POINT('',(0.0215,0.0816000231355429,0.0941840890828037));
#1046=CARTESIAN_POINT('',(0.0105,0.0816000231355429,0.0941840890828037));
#1047=CARTESIAN_POINT('',(0.0215,0.0816000231355429,0.0904749123031996));
#1048=CARTESIAN_POINT('',(0.0215,0.0816000231355429,0.0991840890828037));
#1049=CARTESIAN_POINT('',(0.01325,0.0816000231355429,0.0991840890828037));
#1050=CARTESIAN_POINT('',(0.0105,0.0816000231355429,0.0991840890828037));
#1051=CARTESIAN_POINT('',(0.0105,0.0816000231355429,0.0904749123031996));
#1052=CARTESIAN_POINT('',(0.004,0.0234504471205385,0.0923103241556351));
#1053=CARTESIAN_POINT('',(0.004,0.0196442567166525,0.0923103241556351));
#1054=CARTESIAN_POINT('',(0.004,0.0196442567166525,0.110684089082804));
#1055=CARTESIAN_POINT('',(0.004,0.0196442567166525,0.106619500348981));
#1056=CARTESIAN_POINT('',(0.004,0.0199978182574173,0.105684089082804));
#1057=CARTESIAN_POINT('',(0.004,0.0199978182574173,0.104684089082804));
#1058=CARTESIAN_POINT('',(0.004,0.00514425671665253,0.104684089082804));
#1059=CARTESIAN_POINT('',(0.004,0.0112734108590199,0.104684089082804));
#1060=CARTESIAN_POINT('',(0.004,0.0112734108590199,0.105184089082804));
#1061=CARTESIAN_POINT('',(0.004,0.0117432571694129,0.105013079011141));
#1062=CARTESIAN_POINT('',(0.004,0.0117977215741103,0.105162718733211));
#1063=CARTESIAN_POINT('',(0.004,0.0119807407511442,0.105665559789439));
#1064=CARTESIAN_POINT('',(0.004,0.0115108944407512,0.105836569861102));
#1065=CARTESIAN_POINT('',(0.004,0.011681904512414,0.106306416171495));
#1066=CARTESIAN_POINT('',(0.004,0.0113980037697298,0.106409747591318));
#1067=CARTESIAN_POINT('',(0.004,0.0109732466449897,0.106564346541516));
#1068=CARTESIAN_POINT('',(0.004,0.0111442567166525,0.107034192851909));
#1069=CARTESIAN_POINT('',(0.004,0.0106442567166525,0.107034192851909));
#1070=CARTESIAN_POINT('',(0.004,0.0106442567166525,0.0923103241556351));
#1071=CARTESIAN_POINT('',(0.004,0.0106442567166525,0.110684089082804));
#1072=CARTESIAN_POINT('',(0.004,0.00864425671665253,0.110684089082804));
#1073=CARTESIAN_POINT('',(0.004,0.00864425671665253,0.112684089082804));
#1074=CARTESIAN_POINT('',(0.004,0.00514425671665253,0.112684089082804));
#1075=CARTESIAN_POINT('',(0.004,0.0216442567166526,0.112684089082804));
#1076=CARTESIAN_POINT('',(0.004,0.0216442567166526,0.110684089082804));
#1077=CARTESIAN_POINT('',(0.004,0.00514425671665253,0.104684089082804));
#1078=CARTESIAN_POINT('',(-0.005,0.0199978182574173,0.104684089082804));
#1079=CARTESIAN_POINT('',(-0.005,0.0199978182574173,0.104684089082804));
#1080=CARTESIAN_POINT('',(-0.005,0.0251442567166526,0.104684089082804));
#1081=CARTESIAN_POINT('',(-0.005,0.0276442567166526,0.104684089082804));
#1082=CARTESIAN_POINT('',(0.004,0.0276442567166526,0.104684089082804));
#1083=CARTESIAN_POINT('',(0.0105,0.0276442567166526,0.104684089082804));
#1084=CARTESIAN_POINT('',(0.0105,0.00514425671665253,0.104684089082804));
#1085=CARTESIAN_POINT('',(0.0105,0.00664425313554288,0.104684089082804));
#1086=CARTESIAN_POINT('',(0.004,0.00664425313554288,0.104684089082804));
#1087=CARTESIAN_POINT('',(0.0215,0.00664425313554288,0.104684089082804));
#1088=CARTESIAN_POINT('',(0.0215,0.00514425671665253,0.104684089082804));
#1089=CARTESIAN_POINT('',(0.0215,0.00614425671665253,0.104684089082804));
#1090=CARTESIAN_POINT('',(0.004,0.00614425671665253,0.104684089082804));
#1091=CARTESIAN_POINT('',(-0.005,0.00614425671665253,0.104684089082804));
#1092=CARTESIAN_POINT('',(-0.005,0.00514425671665253,0.104684089082804));
#1093=CARTESIAN_POINT('',(-0.005,0.0112734108590199,0.104684089082804));
#1094=CARTESIAN_POINT('',(0.004,0.0112734108590199,0.104684089082804));
#1095=CARTESIAN_POINT('',(0.004,0.00514425671665253,0.112684089082804));
#1096=CARTESIAN_POINT('',(0.004,0.00414425671665253,0.112684089082804));
#1097=CARTESIAN_POINT('',(-0.005,0.00414425671665252,0.112684089082804));
#1098=CARTESIAN_POINT('',(0.0215,0.00414425671665253,0.112684089082804));
#1099=CARTESIAN_POINT('',(0.0215,0.00514425671665253,0.112684089082804));
#1100=CARTESIAN_POINT('',(0.0215,0.0276442567166526,0.112684089082804));
#1101=CARTESIAN_POINT('',(0.004,0.0276442567166526,0.112684089082804));
#1102=CARTESIAN_POINT('',(-0.005,0.0276442567166526,0.112684089082804));
#1103=CARTESIAN_POINT('',(-0.005,0.0251442567166526,0.112684089082804));
#1104=CARTESIAN_POINT('',(-0.005,0.0216442567166526,0.112684089082804));
#1105=CARTESIAN_POINT('',(0.004,0.0216442567166526,0.112684089082804));
#1106=CARTESIAN_POINT('',(0.004,0.00864425671665253,0.112684089082804));
#1107=CARTESIAN_POINT('',(-0.005,0.00864425671665253,0.112684089082804));
#1108=CARTESIAN_POINT('',(-0.005,0.00514425671665253,0.112684089082804));
#1109=CARTESIAN_POINT('',(0.004,0.0306442567166526,0.108684089082804));
#1110=CARTESIAN_POINT('',(0.0105,0.0306442531355429,0.0944340890828037));
#1111=CARTESIAN_POINT('',(0.0105,0.0306442531355429,0.0941840890828037));
#1112=CARTESIAN_POINT('',(0.0105,0.0306442567166526,0.107684089082804));
#1113=CARTESIAN_POINT('',(0.004,0.0306442567166526,0.107684089082804));
#1114=CARTESIAN_POINT('',(-0.005,0.0306442567166526,0.107684089082804));
#1115=CARTESIAN_POINT('',(-0.005,0.0306442567166526,0.108684089082804));
#1116=CARTESIAN_POINT('',(-0.005,0.0306442567166526,0.109684089082804));
#1117=CARTESIAN_POINT('',(0.004,0.0306442567166526,0.109684089082804));
#1118=CARTESIAN_POINT('',(0.0215,0.0306442567166526,0.109684089082804));
#1119=CARTESIAN_POINT('',(0.0215,0.0306442567166526,0.108684089082804));
#1120=CARTESIAN_POINT('',(0.0215,0.0306442531355429,0.0941840890828037));
#1121=CARTESIAN_POINT('',(0.0155,0.0306442531355429,0.0941840890828037));
#1122=CARTESIAN_POINT('',(-0.005,0.0106442567166525,0.108684089082804));
#1123=CARTESIAN_POINT('',(-0.005,0.0106442567166525,0.107034192851909));
#1124=CARTESIAN_POINT('',(-0.005,0.0106442567166525,0.107034192851909));
#1125=CARTESIAN_POINT('',(-0.005,0.0106442567166525,0.108684089082804));
#1126=CARTESIAN_POINT('',(-0.005,0.0106442567166525,0.110684089082804));
#1127=CARTESIAN_POINT('',(-0.005,0.0106442567166525,0.110684089082804));
#1128=CARTESIAN_POINT('',(-0.005,0.0234504471205385,0.0923103241556351));
#1129=CARTESIAN_POINT('',(-0.005,0.0117977215741103,0.105162718733211));
#1130=CARTESIAN_POINT('',(-0.005,0.0119807407511442,0.105665559789439));
#1131=CARTESIAN_POINT('',(-0.005,0.0117432571694129,0.105013079011141));
#1132=CARTESIAN_POINT('',(-0.005,0.0112734108590199,0.105184089082804));
#1133=CARTESIAN_POINT('',(-0.005,0.00614425671665253,0.107684089082804));
#1134=CARTESIAN_POINT('',(-0.005,0.00314425671665252,0.107684089082804));
#1135=CARTESIAN_POINT('',(-0.005,0.00314425671665252,0.0876840890828037));
#1136=CARTESIAN_POINT('',(-0.005,0.00314425671665252,0.111684089082804));
#1137=CARTESIAN_POINT('',(-0.005,0.00414425671665252,0.111684089082804));
#1138=CARTESIAN_POINT('',(-0.005,0.00864425671665253,0.110684089082804));
#1139=CARTESIAN_POINT('',(-0.005,0.0111442567166525,0.107034192851909));
#1140=CARTESIAN_POINT('',(-0.005,0.0109732466449897,0.106564346541516));
#1141=CARTESIAN_POINT('',(-0.005,0.0113980037697298,0.106409747591318));
#1142=CARTESIAN_POINT('',(-0.005,0.011681904512414,0.106306416171495));
#1143=CARTESIAN_POINT('',(-0.005,0.0115108944407512,0.105836569861102));
#1144=CARTESIAN_POINT('',(-0.005,0.0196442567166525,0.108684089082804));
#1145=CARTESIAN_POINT('',(-0.005,0.0196442567166525,0.110684089082804));
#1146=CARTESIAN_POINT('',(-0.005,0.0196442567166525,0.110684089082804));
#1147=CARTESIAN_POINT('',(-0.005,0.0196442567166525,0.108684089082804));
#1148=CARTESIAN_POINT('',(-0.005,0.0196442567166525,0.106619500348981));
#1149=CARTESIAN_POINT('',(-0.0005,0.0196442567166525,0.106619500348981));
#1150=CARTESIAN_POINT('',(-0.005,0.0234504471205385,0.0923103241556351));
#1151=CARTESIAN_POINT('',(-0.005,0.0199978182574173,0.105684089082804));
#1152=CARTESIAN_POINT('',(-0.005,0.0216442567166526,0.110684089082804));
#1153=CARTESIAN_POINT('',(-0.005,0.0276442567166526,0.109684089082804));
#1154=CARTESIAN_POINT('',(-0.005,0.0276442567166526,0.107684089082804));
#1155=CARTESIAN_POINT('',(0.004,0.0216442567166526,0.110684089082804));
#1156=CARTESIAN_POINT('',(-0.005,0.00864425671665253,0.110684089082804));
#1157=CARTESIAN_POINT('',(0.0025,0.00314425671665252,0.0876840890828037));
#1158=CARTESIAN_POINT('',(0.0025,0.00314425671665252,0.107684089082804));
#1159=CARTESIAN_POINT('',(0.0215,0.00314425671665252,0.107684089082804));
#1160=CARTESIAN_POINT('',(0.0215,0.00314425671665252,0.0876840890828037));
#1161=CARTESIAN_POINT('',(0.0215,0.00314425671665252,0.111684089082804));
#1162=CARTESIAN_POINT('',(0.0025,0.00314425671665252,0.111684089082804));
#1163=CARTESIAN_POINT('',(0.004,0.00414425671665253,0.111684089082804));
#1164=CARTESIAN_POINT('',(0.0215,0.00414425671665253,0.111684089082804));
#1165=CARTESIAN_POINT('',(0.0155,0.0381442531355429,0.0887657355235956));
#1166=CARTESIAN_POINT('',(0.0105,0.0381442531355429,0.0887657355235956));
#1167=CARTESIAN_POINT('',(0.0105,0.0816000231355429,0.0887657355235956));
#1168=CARTESIAN_POINT('',(0.0105,0.0306442531355429,0.0887657355235956));
#1169=CARTESIAN_POINT('',(0.0155,0.0816000231355429,0.0887657355235956));
#1170=CARTESIAN_POINT('',(0.0215,0.0816000231355429,0.0887657355235956));
#1171=CARTESIAN_POINT('',(0.0215,0.0381442531355429,0.0887657355235956));
#1172=CARTESIAN_POINT('',(0.0215,0.0306442531355429,0.0887657355235956));
#1173=CARTESIAN_POINT('',(0.0155,0.0306442531355429,0.0887657355235956));
#1174=CARTESIAN_POINT('',(0.0155,0.0381442531355429,0.0941840890828037));
#1175=CARTESIAN_POINT('',(0.0105,0.0381442531355429,0.0941840890828037));
#1176=CARTESIAN_POINT('',(0.0215,0.0381442531355429,0.0941840890828037));
#1177=CARTESIAN_POINT('',(0.0155,0.0281442531355429,0.0857657355235956));
#1178=CARTESIAN_POINT('',(0.0155,0.0306442531355429,0.0857657355235956));
#1179=CARTESIAN_POINT('',(0.0215,0.0306442531355429,0.0857657355235956));
#1180=CARTESIAN_POINT('',(0.0105,0.0306442531355429,0.0857657355235956));
#1181=CARTESIAN_POINT('',(0.0215,0.0281442531355429,0.0857657355235956));
#1182=CARTESIAN_POINT('',(0.0215,0.0284273533559879,0.0857657355235956));
#1183=CARTESIAN_POINT('',(0.0155,0.0284273533559879,0.0857657355235956));
#1184=CARTESIAN_POINT('',(0.0105,0.0284273533559879,0.0857657355235956));
#1185=CARTESIAN_POINT('',(0.0105,0.0281442531355429,0.0857657355235956));
#1186=CARTESIAN_POINT('',(0.0155,0.0306442531355429,0.0870157355235956));
#1187=CARTESIAN_POINT('',(0.0105,0.0306442531355429,0.0870157355235956));
#1188=CARTESIAN_POINT('',(0.0215,0.0306442531355429,0.0870157355235956));
#1189=CARTESIAN_POINT('',(0.0105,-0.000405322879461566,0.0923103241556351));
#1190=CARTESIAN_POINT('',(0.0105,0.0250668712154303,0.0996840890828037));
#1191=CARTESIAN_POINT('',(0.0105,0.0250668712154303,0.0976840890828037));
#1192=CARTESIAN_POINT('',(0.0105,0.0846000231355429,0.0991840890828037));
#1193=CARTESIAN_POINT('',(0.0105,0.0856000231355429,0.0991840890828037));
#1194=CARTESIAN_POINT('',(0.0105,0.0856000231355429,0.0817657355235956));
#1195=CARTESIAN_POINT('',(0.0105,0.0856000231355429,0.0817657355235956));
#1196=CARTESIAN_POINT('',(0.0105,0.0846000231355429,0.0817657355235956));
#1197=CARTESIAN_POINT('',(0.0105,0.0816000231355429,0.0817657355235956));
#1198=CARTESIAN_POINT('',(0.0105,0.0816000231355429,0.0904749123031996));
#1199=CARTESIAN_POINT('',(0.0105,0.0284273533559879,0.0887657355235956));
#1200=CARTESIAN_POINT('',(0.0105,0.0254569305986545,0.0883455110089422));
#1201=CARTESIAN_POINT('',(0.0105,0.00664425313554288,0.0856840890828037));
#1202=CARTESIAN_POINT('',(0.0105,0.0276442567166526,0.107684089082804));
#1203=CARTESIAN_POINT('',(0.004,0.00664425313554288,0.0856840890828037));
#1204=CARTESIAN_POINT('',(0.004,0.0254569305986545,0.0883455110089422));
#1205=CARTESIAN_POINT('',(0.0215,0.0254569305986545,0.0883455110089422));
#1206=CARTESIAN_POINT('',(0.0215,0.00664425313554288,0.0856840890828037));
#1207=CARTESIAN_POINT('',(0.004,0.0284273533559879,0.0887657355235956));
#1208=CARTESIAN_POINT('',(0.0215,0.0284273533559879,0.0887657355235956));
#1209=CARTESIAN_POINT('',(0.004,0.00614425671665253,0.107684089082804));
#1210=CARTESIAN_POINT('',(0.0215,0.00614425671665253,0.107684089082804));
#1211=CARTESIAN_POINT('',(0.004,0.0276442567166526,0.107684089082804));
#1212=CARTESIAN_POINT('',(0.004,0.0276442567166526,0.109684089082804));
#1213=CARTESIAN_POINT('',(0.0215,0.0276442567166526,0.109684089082804));
#1214=CARTESIAN_POINT('',(-0.005,0.0113980037697298,0.106409747591318));
#1215=CARTESIAN_POINT('',(-0.005,0.011681904512414,0.106306416171495));
#1216=CARTESIAN_POINT('',(-0.005,0.0109732466449897,0.106564346541516));
#1217=CARTESIAN_POINT('',(-0.005,0.0117977215741103,0.105162718733211));
#1218=CARTESIAN_POINT('',(-0.005,0.0117432571694129,0.105013079011141));
#1219=CARTESIAN_POINT('',(-0.005,0.0119807407511442,0.105665559789439));
#1220=CARTESIAN_POINT('',(0.004,0.0112734108590199,0.105184089082804));
#1221=CARTESIAN_POINT('',(-0.005,0.0115108944407512,0.105836569861102));
#1222=CARTESIAN_POINT('',(-0.005,0.0111442567166525,0.107034192851909));
#1223=CARTESIAN_POINT('',(0.01875,0.0846000231355429,0.0817657355235956));
#1224=CARTESIAN_POINT('',(0.0215,0.0856000231355429,0.0817657355235956));
#1225=CARTESIAN_POINT('',(0.0215,0.0856000231355429,0.0817657355235956));
#1226=CARTESIAN_POINT('',(0.0215,0.0846000231355429,0.0817657355235956));
#1227=CARTESIAN_POINT('',(0.0215,0.0816000231355429,0.0817657355235956));
#1228=CARTESIAN_POINT('',(0.01875,0.0816000231355429,0.0817657355235956));
#1229=CARTESIAN_POINT('',(0.01325,0.0846000231355429,0.0991840890828037));
#1230=CARTESIAN_POINT('',(0.0215,0.0846000231355429,0.0991840890828037));
#1231=CARTESIAN_POINT('',(0.0215,0.0856000231355429,0.0991840890828037));
#1232=CARTESIAN_POINT('',(0.01325,0.0856000231355429,0.0991840890828037));
#1233=CARTESIAN_POINT('',(0.0215,0.0846000231355429,0.0904749123031996));
#1234=CARTESIAN_POINT('',(0.0215,0.0250668712154303,0.0996840890828037));
#1235=CARTESIAN_POINT('',(0.0215,0.0250668712154303,0.0976840890828037));
#1236=CARTESIAN_POINT('',(0.0215,0.0856000231355429,0.0991840890828037));
#1237=CARTESIAN_POINT('',(0.0215,0.0816000231355429,0.0904749123031996));
#1238=CARTESIAN_POINT('',(0.01575,0.0816000231355429,0.0987371435934424));
#1239=CARTESIAN_POINT('',(-0.005,0.0199978182574173,0.105684089082804));
#1240=CARTESIAN_POINT('',(0.01575,0.0886000231355429,0.0987371435934424));
#1241=CARTESIAN_POINT('',(0.0105,0.0886000231355429,0.0847657355235956));
#1242=CARTESIAN_POINT('',(0.0185,0.0886000231355429,0.0847657355235956));
#1243=CARTESIAN_POINT('',(0.0135,0.0886000231355429,0.0847657355235956));
#1244=CARTESIAN_POINT('',(0.0135,0.0886000231355429,0.0991840890828037));
#1245=CARTESIAN_POINT('',(0.0135,0.0886000231355429,0.0961840890828037));
#1246=CARTESIAN_POINT('',(0.01575,0.0886000231355429,0.0961840890828037));
#1247=CARTESIAN_POINT('',(0.0185,0.0886000231355429,0.0961840890828037));
#1248=CARTESIAN_POINT('',(0.0185,0.0886000231355429,0.0817657355235956));
#1249=CARTESIAN_POINT('',(0.0185,0.0856000231355429,0.0987371435934424));
#1250=CARTESIAN_POINT('',(0.0185,0.0856000231355429,0.0961840890828037));
#1251=CARTESIAN_POINT('',(0.0185,0.0856000231355429,0.0847657355235956));
#1252=CARTESIAN_POINT('',(0.01575,0.0856000231355429,0.0847657355235956));
#1253=CARTESIAN_POINT('',(0.0135,0.0856000231355429,0.0847657355235956));
#1254=CARTESIAN_POINT('',(0.01325,0.0856000231355429,0.0961840890828037));
#1255=CARTESIAN_POINT('',(0.0135,0.0856000231355429,0.0961840890828037));
#1256=CARTESIAN_POINT('',(0.0135,0.0856000231355429,0.0987371435934424));
#1257=CARTESIAN_POINT('',(-0.0035,0.0250668712154303,0.0996840890828037));
#1258=MECHANICAL_DESIGN_GEOMETRIC_PRESENTATION_REPRESENTATION('',(#745),
#1259);
#1259=(
GEOMETRIC_REPRESENTATION_CONTEXT(3)
GLOBAL_UNCERTAINTY_ASSIGNED_CONTEXT((#1260))
GLOBAL_UNIT_ASSIGNED_CONTEXT((#1263,#1262,#1261))
REPRESENTATION_CONTEXT('Button + Lever','TOP_LEVEL_ASSEMBLY_PART')
);
#1260=UNCERTAINTY_MEASURE_WITH_UNIT(LENGTH_MEASURE(1.E-8),#1263,
'DISTANCE_ACCURACY_VALUE','Maximum Tolerance applied to model');
#1261=(
NAMED_UNIT(*)
SI_UNIT($,.STERADIAN.)
SOLID_ANGLE_UNIT()
);
#1262=(
NAMED_UNIT(*)
PLANE_ANGLE_UNIT()
SI_UNIT($,.RADIAN.)
);
#1263=(
LENGTH_UNIT()
NAMED_UNIT(*)
SI_UNIT($,.METRE.)
);
#1264=PRODUCT_DEFINITION_SHAPE('','',#1265);
#1265=PRODUCT_DEFINITION('','',#1267,#1266);
#1266=PRODUCT_DEFINITION_CONTEXT('',#1273,'design');
#1267=PRODUCT_DEFINITION_FORMATION_WITH_SPECIFIED_SOURCE('','',#1269,
 .NOT_KNOWN.);
#1268=PRODUCT_RELATED_PRODUCT_CATEGORY('','',(#1269));
#1269=PRODUCT('Button + Lever','Button + Lever','Button + Lever',(#1271));
#1270=PRODUCT_CATEGORY('','');
#1271=PRODUCT_CONTEXT('',#1273,'mechanical');
#1272=APPLICATION_PROTOCOL_DEFINITION('international standard',
'ap242_managed_model_based_3d_engineering',2020,#1273);
#1273=APPLICATION_CONTEXT('managed model based 3d engineering');
ENDSEC;
END-ISO-10303-21;
