ISO-10303-21;
HEADER;
/* Generated by software containing ST-Developer
 * from STEP Tools, Inc. (www.steptools.com) 
 */
/* OPTION: using custom renumber hook */

FILE_DESCRIPTION(
/* description */ ('STEP AP242 Edition 2',
'CAx-IF Rec.Pracs.---Representation and Presentation of Product Manufa
cturing Information (PMI)---4.0---2014-10-13',
'CAx-IF Rec.Pracs.---3D Tessellated Geometry---0.4---2014-09-14','2;1',
'CAx-IF Rec.Pracs.---User Defined Attributes---1.5---2016-08-15'),
/* implementation_level */ '2;1');

FILE_NAME(
/* name */ 'Assembly 1 - Sorted Coin Output',
/* time_stamp */ '2026-07-14T16:54:42Z',
/* author */ (''),
/* organization */ (''),
/* preprocessor_version */ 'ST-DEVELOPER v20',
/* originating_system */ 'ONSHAPE BY PTC INC, 1.217',
/* authorisation */ '  ');

FILE_SCHEMA (('AP242_MANAGED_MODEL_BASED_3D_ENGINEERING_MIM_LF { 1 0 10303 442 3 1 4 }'));
ENDSEC;

DATA;
#10=SHAPE_REPRESENTATION_RELATIONSHIP('','',#384,#11);
#11=ADVANCED_BREP_SHAPE_REPRESENTATION('',(#382),#618);
#12=CYLINDRICAL_SURFACE('',#389,0.002);
#13=CYLINDRICAL_SURFACE('',#394,0.002);
#14=CYLINDRICAL_SURFACE('',#396,0.005);
#15=CYLINDRICAL_SURFACE('',#410,0.0304796663571582);
#16=CIRCLE('',#387,0.002);
#17=CIRCLE('',#390,0.002);
#18=CIRCLE('',#391,0.002);
#19=CIRCLE('',#395,0.002);
#20=CIRCLE('',#397,0.005);
#21=CIRCLE('',#398,0.005);
#22=CIRCLE('',#403,0.0304796663571582);
#23=CIRCLE('',#407,0.0304796663571582);
#24=ORIENTED_EDGE('',*,*,#122,.T.);
#25=ORIENTED_EDGE('',*,*,#123,.T.);
#26=ORIENTED_EDGE('',*,*,#124,.T.);
#27=ORIENTED_EDGE('',*,*,#125,.F.);
#28=ORIENTED_EDGE('',*,*,#126,.F.);
#29=ORIENTED_EDGE('',*,*,#127,.F.);
#30=ORIENTED_EDGE('',*,*,#128,.F.);
#31=ORIENTED_EDGE('',*,*,#129,.T.);
#32=ORIENTED_EDGE('',*,*,#130,.T.);
#33=ORIENTED_EDGE('',*,*,#131,.T.);
#34=ORIENTED_EDGE('',*,*,#132,.F.);
#35=ORIENTED_EDGE('',*,*,#133,.F.);
#36=ORIENTED_EDGE('',*,*,#134,.F.);
#37=ORIENTED_EDGE('',*,*,#135,.F.);
#38=ORIENTED_EDGE('',*,*,#136,.F.);
#39=ORIENTED_EDGE('',*,*,#134,.T.);
#40=ORIENTED_EDGE('',*,*,#137,.T.);
#41=ORIENTED_EDGE('',*,*,#138,.T.);
#42=ORIENTED_EDGE('',*,*,#139,.F.);
#43=ORIENTED_EDGE('',*,*,#140,.F.);
#44=ORIENTED_EDGE('',*,*,#141,.F.);
#45=ORIENTED_EDGE('',*,*,#122,.F.);
#46=ORIENTED_EDGE('',*,*,#142,.F.);
#47=ORIENTED_EDGE('',*,*,#135,.T.);
#48=ORIENTED_EDGE('',*,*,#127,.T.);
#49=ORIENTED_EDGE('',*,*,#143,.F.);
#50=ORIENTED_EDGE('',*,*,#129,.F.);
#51=ORIENTED_EDGE('',*,*,#142,.T.);
#52=ORIENTED_EDGE('',*,*,#128,.T.);
#53=ORIENTED_EDGE('',*,*,#144,.F.);
#54=ORIENTED_EDGE('',*,*,#131,.F.);
#55=ORIENTED_EDGE('',*,*,#145,.F.);
#56=ORIENTED_EDGE('',*,*,#146,.F.);
#57=ORIENTED_EDGE('',*,*,#147,.F.);
#58=ORIENTED_EDGE('',*,*,#148,.T.);
#59=ORIENTED_EDGE('',*,*,#149,.F.);
#60=ORIENTED_EDGE('',*,*,#124,.F.);
#61=ORIENTED_EDGE('',*,*,#150,.T.);
#62=ORIENTED_EDGE('',*,*,#151,.F.);
#63=ORIENTED_EDGE('',*,*,#146,.T.);
#64=ORIENTED_EDGE('',*,*,#152,.F.);
#65=ORIENTED_EDGE('',*,*,#125,.T.);
#66=ORIENTED_EDGE('',*,*,#149,.T.);
#67=ORIENTED_EDGE('',*,*,#153,.F.);
#68=ORIENTED_EDGE('',*,*,#154,.F.);
#69=ORIENTED_EDGE('',*,*,#155,.T.);
#70=ORIENTED_EDGE('',*,*,#156,.F.);
#71=ORIENTED_EDGE('',*,*,#157,.F.);
#72=ORIENTED_EDGE('',*,*,#154,.T.);
#73=ORIENTED_EDGE('',*,*,#158,.T.);
#74=ORIENTED_EDGE('',*,*,#159,.T.);
#75=ORIENTED_EDGE('',*,*,#160,.T.);
#76=ORIENTED_EDGE('',*,*,#155,.F.);
#77=ORIENTED_EDGE('',*,*,#157,.T.);
#78=ORIENTED_EDGE('',*,*,#161,.T.);
#79=ORIENTED_EDGE('',*,*,#162,.T.);
#80=ORIENTED_EDGE('',*,*,#163,.T.);
#81=ORIENTED_EDGE('',*,*,#138,.F.);
#82=ORIENTED_EDGE('',*,*,#159,.F.);
#83=ORIENTED_EDGE('',*,*,#137,.F.);
#84=ORIENTED_EDGE('',*,*,#133,.T.);
#85=ORIENTED_EDGE('',*,*,#164,.T.);
#86=ORIENTED_EDGE('',*,*,#132,.T.);
#87=ORIENTED_EDGE('',*,*,#147,.T.);
#88=ORIENTED_EDGE('',*,*,#151,.T.);
#89=ORIENTED_EDGE('',*,*,#160,.F.);
#90=ORIENTED_EDGE('',*,*,#164,.F.);
#91=ORIENTED_EDGE('',*,*,#144,.T.);
#92=ORIENTED_EDGE('',*,*,#153,.T.);
#93=ORIENTED_EDGE('',*,*,#148,.F.);
#94=ORIENTED_EDGE('',*,*,#165,.F.);
#95=ORIENTED_EDGE('',*,*,#140,.T.);
#96=ORIENTED_EDGE('',*,*,#166,.F.);
#97=ORIENTED_EDGE('',*,*,#167,.F.);
#98=ORIENTED_EDGE('',*,*,#168,.F.);
#99=ORIENTED_EDGE('',*,*,#158,.F.);
#100=ORIENTED_EDGE('',*,*,#166,.T.);
#101=ORIENTED_EDGE('',*,*,#139,.T.);
#102=ORIENTED_EDGE('',*,*,#163,.F.);
#103=ORIENTED_EDGE('',*,*,#169,.T.);
#104=ORIENTED_EDGE('',*,*,#161,.F.);
#105=ORIENTED_EDGE('',*,*,#156,.T.);
#106=ORIENTED_EDGE('',*,*,#168,.T.);
#107=ORIENTED_EDGE('',*,*,#170,.F.);
#108=ORIENTED_EDGE('',*,*,#167,.T.);
#109=ORIENTED_EDGE('',*,*,#169,.F.);
#110=ORIENTED_EDGE('',*,*,#162,.F.);
#111=ORIENTED_EDGE('',*,*,#170,.T.);
#112=ORIENTED_EDGE('',*,*,#150,.F.);
#113=ORIENTED_EDGE('',*,*,#123,.F.);
#114=ORIENTED_EDGE('',*,*,#141,.T.);
#115=ORIENTED_EDGE('',*,*,#165,.T.);
#116=ORIENTED_EDGE('',*,*,#136,.T.);
#117=ORIENTED_EDGE('',*,*,#126,.T.);
#118=ORIENTED_EDGE('',*,*,#152,.T.);
#119=ORIENTED_EDGE('',*,*,#145,.T.);
#120=ORIENTED_EDGE('',*,*,#130,.F.);
#121=ORIENTED_EDGE('',*,*,#143,.T.);
#122=EDGE_CURVE('',#171,#172,#205,.T.);
#123=EDGE_CURVE('',#172,#173,#206,.T.);
#124=EDGE_CURVE('',#173,#174,#207,.T.);
#125=EDGE_CURVE('',#175,#174,#208,.T.);
#126=EDGE_CURVE('',#176,#175,#209,.T.);
#127=EDGE_CURVE('',#171,#176,#210,.T.);
#128=EDGE_CURVE('',#177,#177,#16,.T.);
#129=EDGE_CURVE('',#178,#179,#211,.T.);
#130=EDGE_CURVE('',#179,#180,#212,.T.);
#131=EDGE_CURVE('',#180,#181,#213,.T.);
#132=EDGE_CURVE('',#182,#181,#214,.T.);
#133=EDGE_CURVE('',#183,#182,#215,.T.);
#134=EDGE_CURVE('',#178,#183,#216,.T.);
#135=EDGE_CURVE('',#184,#184,#17,.T.);
#136=EDGE_CURVE('',#185,#185,#18,.T.);
#137=EDGE_CURVE('',#183,#186,#217,.T.);
#138=EDGE_CURVE('',#186,#187,#218,.T.);
#139=EDGE_CURVE('',#188,#187,#219,.T.);
#140=EDGE_CURVE('',#189,#188,#220,.T.);
#141=EDGE_CURVE('',#172,#189,#221,.T.);
#142=EDGE_CURVE('',#178,#171,#222,.T.);
#143=EDGE_CURVE('',#179,#176,#223,.T.);
#144=EDGE_CURVE('',#190,#190,#19,.T.);
#145=EDGE_CURVE('',#191,#180,#20,.T.);
#146=EDGE_CURVE('',#192,#191,#224,.F.);
#147=EDGE_CURVE('',#181,#192,#21,.F.);
#148=EDGE_CURVE('',#193,#194,#225,.T.);
#149=EDGE_CURVE('',#174,#194,#226,.T.);
#150=EDGE_CURVE('',#173,#193,#227,.T.);
#151=EDGE_CURVE('',#192,#195,#228,.T.);
#152=EDGE_CURVE('',#175,#191,#229,.T.);
#153=EDGE_CURVE('',#196,#194,#230,.T.);
#154=EDGE_CURVE('',#197,#196,#231,.T.);
#155=EDGE_CURVE('',#197,#195,#232,.T.);
#156=EDGE_CURVE('',#198,#199,#233,.T.);
#157=EDGE_CURVE('',#197,#198,#234,.T.);
#158=EDGE_CURVE('',#196,#199,#235,.T.);
#159=EDGE_CURVE('',#186,#200,#236,.T.);
#160=EDGE_CURVE('',#200,#195,#237,.T.);
#161=EDGE_CURVE('',#198,#201,#238,.T.);
#162=EDGE_CURVE('',#201,#202,#22,.T.);
#163=EDGE_CURVE('',#202,#187,#239,.T.);
#164=EDGE_CURVE('',#182,#200,#240,.T.);
#165=EDGE_CURVE('',#189,#193,#241,.T.);
#166=EDGE_CURVE('',#203,#188,#242,.T.);
#167=EDGE_CURVE('',#204,#203,#23,.T.);
#168=EDGE_CURVE('',#199,#204,#243,.T.);
#169=EDGE_CURVE('',#202,#203,#244,.T.);
#170=EDGE_CURVE('',#201,#204,#245,.T.);
#171=VERTEX_POINT('',#516);
#172=VERTEX_POINT('',#517);
#173=VERTEX_POINT('',#519);
#174=VERTEX_POINT('',#521);
#175=VERTEX_POINT('',#523);
#176=VERTEX_POINT('',#525);
#177=VERTEX_POINT('',#528);
#178=VERTEX_POINT('',#531);
#179=VERTEX_POINT('',#532);
#180=VERTEX_POINT('',#534);
#181=VERTEX_POINT('',#536);
#182=VERTEX_POINT('',#538);
#183=VERTEX_POINT('',#540);
#184=VERTEX_POINT('',#544);
#185=VERTEX_POINT('',#546);
#186=VERTEX_POINT('',#549);
#187=VERTEX_POINT('',#551);
#188=VERTEX_POINT('',#553);
#189=VERTEX_POINT('',#555);
#190=VERTEX_POINT('',#562);
#191=VERTEX_POINT('',#565);
#192=VERTEX_POINT('',#567);
#193=VERTEX_POINT('',#571);
#194=VERTEX_POINT('',#572);
#195=VERTEX_POINT('',#577);
#196=VERTEX_POINT('',#580);
#197=VERTEX_POINT('',#582);
#198=VERTEX_POINT('',#586);
#199=VERTEX_POINT('',#587);
#200=VERTEX_POINT('',#592);
#201=VERTEX_POINT('',#595);
#202=VERTEX_POINT('',#597);
#203=VERTEX_POINT('',#605);
#204=VERTEX_POINT('',#607);
#205=LINE('',#515,#246);
#206=LINE('',#518,#247);
#207=LINE('',#520,#248);
#208=LINE('',#522,#249);
#209=LINE('',#524,#250);
#210=LINE('',#526,#251);
#211=LINE('',#530,#252);
#212=LINE('',#533,#253);
#213=LINE('',#535,#254);
#214=LINE('',#537,#255);
#215=LINE('',#539,#256);
#216=LINE('',#541,#257);
#217=LINE('',#548,#258);
#218=LINE('',#550,#259);
#219=LINE('',#552,#260);
#220=LINE('',#554,#261);
#221=LINE('',#556,#262);
#222=LINE('',#557,#263);
#223=LINE('',#559,#264);
#224=LINE('',#566,#265);
#225=LINE('',#570,#266);
#226=LINE('',#573,#267);
#227=LINE('',#574,#268);
#228=LINE('',#576,#269);
#229=LINE('',#578,#270);
#230=LINE('',#579,#271);
#231=LINE('',#581,#272);
#232=LINE('',#583,#273);
#233=LINE('',#585,#274);
#234=LINE('',#588,#275);
#235=LINE('',#589,#276);
#236=LINE('',#591,#277);
#237=LINE('',#593,#278);
#238=LINE('',#594,#279);
#239=LINE('',#598,#280);
#240=LINE('',#600,#281);
#241=LINE('',#603,#282);
#242=LINE('',#604,#283);
#243=LINE('',#608,#284);
#244=LINE('',#610,#285);
#245=LINE('',#612,#286);
#246=VECTOR('',#418,1.);
#247=VECTOR('',#419,1.);
#248=VECTOR('',#420,1.);
#249=VECTOR('',#421,1.);
#250=VECTOR('',#422,1.);
#251=VECTOR('',#423,1.);
#252=VECTOR('',#428,1.);
#253=VECTOR('',#429,1.);
#254=VECTOR('',#430,1.);
#255=VECTOR('',#431,1.);
#256=VECTOR('',#432,1.);
#257=VECTOR('',#433,1.);
#258=VECTOR('',#442,1.);
#259=VECTOR('',#443,1.);
#260=VECTOR('',#444,1.);
#261=VECTOR('',#445,1.);
#262=VECTOR('',#446,1.);
#263=VECTOR('',#447,1.);
#264=VECTOR('',#450,1.);
#265=VECTOR('',#459,1.);
#266=VECTOR('',#464,1.);
#267=VECTOR('',#465,1.);
#268=VECTOR('',#466,1.);
#269=VECTOR('',#469,1.);
#270=VECTOR('',#470,1.);
#271=VECTOR('',#471,1.);
#272=VECTOR('',#472,1.);
#273=VECTOR('',#473,1.);
#274=VECTOR('',#476,1.);
#275=VECTOR('',#477,1.);
#276=VECTOR('',#478,1.);
#277=VECTOR('',#481,1.);
#278=VECTOR('',#482,1.);
#279=VECTOR('',#483,1.);
#280=VECTOR('',#486,1.);
#281=VECTOR('',#489,1.);
#282=VECTOR('',#494,1.);
#283=VECTOR('',#495,1.);
#284=VECTOR('',#498,1.);
#285=VECTOR('',#501,1.);
#286=VECTOR('',#504,1.);
#287=EDGE_LOOP('',(#24,#25,#26,#27,#28,#29));
#288=EDGE_LOOP('',(#30));
#289=EDGE_LOOP('',(#31,#32,#33,#34,#35,#36));
#290=EDGE_LOOP('',(#37));
#291=EDGE_LOOP('',(#38));
#292=EDGE_LOOP('',(#39,#40,#41,#42,#43,#44,#45,#46));
#293=EDGE_LOOP('',(#47));
#294=EDGE_LOOP('',(#48,#49,#50,#51));
#295=EDGE_LOOP('',(#52));
#296=EDGE_LOOP('',(#53));
#297=EDGE_LOOP('',(#54,#55,#56,#57));
#298=EDGE_LOOP('',(#58,#59,#60,#61));
#299=EDGE_LOOP('',(#62,#63,#64,#65,#66,#67,#68,#69));
#300=EDGE_LOOP('',(#70,#71,#72,#73));
#301=EDGE_LOOP('',(#74,#75,#76,#77,#78,#79,#80,#81));
#302=EDGE_LOOP('',(#82,#83,#84,#85));
#303=EDGE_LOOP('',(#86,#87,#88,#89,#90));
#304=EDGE_LOOP('',(#91));
#305=EDGE_LOOP('',(#92,#93,#94,#95,#96,#97,#98,#99));
#306=EDGE_LOOP('',(#100,#101,#102,#103));
#307=EDGE_LOOP('',(#104,#105,#106,#107));
#308=EDGE_LOOP('',(#108,#109,#110,#111));
#309=EDGE_LOOP('',(#112,#113,#114,#115));
#310=EDGE_LOOP('',(#116));
#311=EDGE_LOOP('',(#117,#118,#119,#120,#121));
#312=FACE_BOUND('',#287,.T.);
#313=FACE_BOUND('',#288,.T.);
#314=FACE_BOUND('',#289,.T.);
#315=FACE_BOUND('',#290,.T.);
#316=FACE_BOUND('',#291,.T.);
#317=FACE_BOUND('',#292,.T.);
#318=FACE_BOUND('',#293,.T.);
#319=FACE_BOUND('',#294,.T.);
#320=FACE_BOUND('',#295,.T.);
#321=FACE_BOUND('',#296,.T.);
#322=FACE_BOUND('',#297,.T.);
#323=FACE_BOUND('',#298,.T.);
#324=FACE_BOUND('',#299,.T.);
#325=FACE_BOUND('',#300,.T.);
#326=FACE_BOUND('',#301,.T.);
#327=FACE_BOUND('',#302,.T.);
#328=FACE_BOUND('',#303,.T.);
#329=FACE_BOUND('',#304,.T.);
#330=FACE_BOUND('',#305,.T.);
#331=FACE_BOUND('',#306,.T.);
#332=FACE_BOUND('',#307,.T.);
#333=FACE_BOUND('',#308,.T.);
#334=FACE_BOUND('',#309,.T.);
#335=FACE_BOUND('',#310,.T.);
#336=FACE_BOUND('',#311,.T.);
#337=PLANE('',#386);
#338=PLANE('',#388);
#339=PLANE('',#392);
#340=PLANE('',#393);
#341=PLANE('',#399);
#342=PLANE('',#400);
#343=PLANE('',#401);
#344=PLANE('',#402);
#345=PLANE('',#404);
#346=PLANE('',#405);
#347=PLANE('',#406);
#348=PLANE('',#408);
#349=PLANE('',#409);
#350=PLANE('',#411);
#351=PLANE('',#412);
#352=PLANE('',#413);
#353=ADVANCED_FACE('',(#312,#313),#337,.F.);
#354=ADVANCED_FACE('',(#314),#338,.T.);
#355=ADVANCED_FACE('',(#315,#316),#12,.F.);
#356=ADVANCED_FACE('',(#317),#339,.F.);
#357=ADVANCED_FACE('',(#318,#319),#340,.F.);
#358=ADVANCED_FACE('',(#320,#321),#13,.F.);
#359=ADVANCED_FACE('',(#322),#14,.T.);
#360=ADVANCED_FACE('',(#323),#341,.F.);
#361=ADVANCED_FACE('',(#324),#342,.T.);
#362=ADVANCED_FACE('',(#325),#343,.T.);
#363=ADVANCED_FACE('',(#326),#344,.F.);
#364=ADVANCED_FACE('',(#327),#345,.F.);
#365=ADVANCED_FACE('',(#328),#346,.F.);
#366=ADVANCED_FACE('',(#329,#330),#347,.F.);
#367=ADVANCED_FACE('',(#331),#348,.F.);
#368=ADVANCED_FACE('',(#332),#349,.F.);
#369=ADVANCED_FACE('',(#333),#15,.F.);
#370=ADVANCED_FACE('',(#334),#350,.F.);
#371=ADVANCED_FACE('',(#335),#351,.T.);
#372=ADVANCED_FACE('',(#336),#352,.T.);
#373=CLOSED_SHELL('',(#353,#354,#355,#356,#357,#358,#359,#360,#361,#362,
#363,#364,#365,#366,#367,#368,#369,#370,#371,#372));
#374=STYLED_ITEM('',(#375),#382);
#375=PRESENTATION_STYLE_ASSIGNMENT((#376));
#376=SURFACE_STYLE_USAGE(.BOTH.,#377);
#377=SURFACE_SIDE_STYLE('',(#378));
#378=SURFACE_STYLE_FILL_AREA(#379);
#379=FILL_AREA_STYLE('',(#380));
#380=FILL_AREA_STYLE_COLOUR('',#381);
#381=COLOUR_RGB('',0.8,0.776470588235294,0.713725490196078);
#382=MANIFOLD_SOLID_BREP('Sorted Coin Output',#373);
#383=SHAPE_DEFINITION_REPRESENTATION(#623,#384);
#384=SHAPE_REPRESENTATION('Sorted Coin Output',(#385),#618);
#385=AXIS2_PLACEMENT_3D('',#513,#414,#415);
#386=AXIS2_PLACEMENT_3D('',#514,#416,#417);
#387=AXIS2_PLACEMENT_3D('',#527,#424,#425);
#388=AXIS2_PLACEMENT_3D('',#529,#426,#427);
#389=AXIS2_PLACEMENT_3D('',#542,#434,#435);
#390=AXIS2_PLACEMENT_3D('',#543,#436,#437);
#391=AXIS2_PLACEMENT_3D('',#545,#438,#439);
#392=AXIS2_PLACEMENT_3D('',#547,#440,#441);
#393=AXIS2_PLACEMENT_3D('',#558,#448,#449);
#394=AXIS2_PLACEMENT_3D('',#560,#451,#452);
#395=AXIS2_PLACEMENT_3D('',#561,#453,#454);
#396=AXIS2_PLACEMENT_3D('',#563,#455,#456);
#397=AXIS2_PLACEMENT_3D('',#564,#457,#458);
#398=AXIS2_PLACEMENT_3D('',#568,#460,#461);
#399=AXIS2_PLACEMENT_3D('',#569,#462,#463);
#400=AXIS2_PLACEMENT_3D('',#575,#467,#468);
#401=AXIS2_PLACEMENT_3D('',#584,#474,#475);
#402=AXIS2_PLACEMENT_3D('',#590,#479,#480);
#403=AXIS2_PLACEMENT_3D('',#596,#484,#485);
#404=AXIS2_PLACEMENT_3D('',#599,#487,#488);
#405=AXIS2_PLACEMENT_3D('',#601,#490,#491);
#406=AXIS2_PLACEMENT_3D('',#602,#492,#493);
#407=AXIS2_PLACEMENT_3D('',#606,#496,#497);
#408=AXIS2_PLACEMENT_3D('',#609,#499,#500);
#409=AXIS2_PLACEMENT_3D('',#611,#502,#503);
#410=AXIS2_PLACEMENT_3D('',#613,#505,#506);
#411=AXIS2_PLACEMENT_3D('',#614,#507,#508);
#412=AXIS2_PLACEMENT_3D('',#615,#509,#510);
#413=AXIS2_PLACEMENT_3D('',#616,#511,#512);
#414=DIRECTION('',(0.,0.,1.));
#415=DIRECTION('',(1.,0.,0.));
#416=DIRECTION('',(1.,0.,0.));
#417=DIRECTION('',(0.,0.,-1.));
#418=DIRECTION('',(0.,1.,2.7390370673318E-16));
#419=DIRECTION('',(0.,0.,-1.));
#420=DIRECTION('',(0.,1.,-1.26161707343768E-16));
#421=DIRECTION('',(0.,0.,1.));
#422=DIRECTION('',(0.,1.,2.7390370673318E-16));
#423=DIRECTION('',(0.,2.7390370673318E-16,-1.));
#424=DIRECTION('',(-1.,0.,0.));
#425=DIRECTION('',(0.,0.,1.));
#426=DIRECTION('',(1.,-2.60289153294124E-47,9.50294380454228E-32));
#427=DIRECTION('',(9.50294380454228E-32,0.,-1.));
#428=DIRECTION('',(9.50294380454228E-32,2.7390370673318E-16,-1.));
#429=DIRECTION('',(0.,1.,2.7390370673318E-16));
#430=DIRECTION('',(0.,0.,1.));
#431=DIRECTION('',(3.46944695195362E-16,1.,-1.26161707343768E-16));
#432=DIRECTION('',(0.,0.,-1.));
#433=DIRECTION('',(0.,1.,2.7390370673318E-16));
#434=DIRECTION('',(0.,1.,2.7390370673318E-16));
#435=DIRECTION('',(0.,-2.7390370673318E-16,1.));
#436=DIRECTION('',(0.,1.,2.7390370673318E-16));
#437=DIRECTION('',(0.,-2.7390370673318E-16,1.));
#438=DIRECTION('',(0.,-1.,0.));
#439=DIRECTION('',(0.,0.,-1.));
#440=DIRECTION('',(0.,2.7390370673318E-16,-1.));
#441=DIRECTION('',(0.,1.,2.7390370673318E-16));
#442=DIRECTION('',(-1.,3.46944695195362E-16,0.));
#443=DIRECTION('',(-1.7347234759768E-16,-1.,0.));
#444=DIRECTION('',(1.,0.,0.));
#445=DIRECTION('',(-1.7347234759768E-16,-1.,0.));
#446=DIRECTION('',(1.,0.,0.));
#447=DIRECTION('',(-1.,0.,0.));
#448=DIRECTION('',(0.,1.,2.7390370673318E-16));
#449=DIRECTION('',(0.,-2.7390370673318E-16,1.));
#450=DIRECTION('',(-1.,0.,0.));
#451=DIRECTION('',(-1.,0.,0.));
#452=DIRECTION('',(0.,0.,1.));
#453=DIRECTION('',(-1.,1.7347234759768E-16,0.));
#454=DIRECTION('',(-1.7347234759768E-16,-1.,0.));
#455=DIRECTION('',(0.,0.,1.));
#456=DIRECTION('',(1.,0.,0.));
#457=DIRECTION('',(0.,0.,-1.));
#458=DIRECTION('',(-1.,0.,0.));
#459=DIRECTION('',(0.,0.,1.));
#460=DIRECTION('',(-4.377113509971E-32,-1.26161707343768E-16,-1.));
#461=DIRECTION('',(0.,1.,-1.26161707343768E-16));
#462=DIRECTION('',(0.,-1.26161707343768E-16,-1.));
#463=DIRECTION('',(0.,1.,-1.26161707343768E-16));
#464=DIRECTION('',(0.,1.,-1.26161707343768E-16));
#465=DIRECTION('',(1.,0.,0.));
#466=DIRECTION('',(1.,0.,0.));
#467=DIRECTION('',(0.,1.,0.));
#468=DIRECTION('',(0.,0.,1.));
#469=DIRECTION('',(-1.,3.46944695195362E-16,0.));
#470=DIRECTION('',(1.,0.,0.));
#471=DIRECTION('',(0.,0.,1.));
#472=DIRECTION('',(-1.,0.,0.));
#473=DIRECTION('',(0.,0.,1.));
#474=DIRECTION('',(0.,0.,1.));
#475=DIRECTION('',(1.,0.,0.));
#476=DIRECTION('',(-1.,0.,0.));
#477=DIRECTION('',(0.,-1.,0.));
#478=DIRECTION('',(0.,-1.,0.));
#479=DIRECTION('',(1.,-1.7347234759768E-16,0.));
#480=DIRECTION('',(1.7347234759768E-16,1.,0.));
#481=DIRECTION('',(0.,0.,-1.));
#482=DIRECTION('',(3.46944695195362E-16,1.,-1.26161707343768E-16));
#483=DIRECTION('',(0.,-0.997485710393352,0.0708678880810689));
#484=DIRECTION('',(-1.,0.,0.));
#485=DIRECTION('',(0.,0.,1.));
#486=DIRECTION('',(0.,0.,1.));
#487=DIRECTION('',(-3.46944695195362E-16,-1.,0.));
#488=DIRECTION('',(0.,0.,-1.));
#489=DIRECTION('',(-1.,3.46944695195362E-16,0.));
#490=DIRECTION('',(-4.377113509971E-32,-1.26161707343768E-16,-1.));
#491=DIRECTION('',(3.46944695195362E-16,1.,-1.26161707343768E-16));
#492=DIRECTION('',(-1.,1.7347234759768E-16,0.));
#493=DIRECTION('',(1.7347234759768E-16,1.,0.));
#494=DIRECTION('',(0.,0.,-1.));
#495=DIRECTION('',(0.,0.,1.));
#496=DIRECTION('',(-1.,0.,0.));
#497=DIRECTION('',(0.,0.,1.));
#498=DIRECTION('',(0.,-0.997485710393352,0.0708678880810679));
#499=DIRECTION('',(0.,-1.,0.));
#500=DIRECTION('',(0.,0.,-1.));
#501=DIRECTION('',(-1.,0.,0.));
#502=DIRECTION('',(0.,-0.0708678880810679,-0.997485710393352));
#503=DIRECTION('',(0.,0.997485710393352,-0.0708678880810679));
#504=DIRECTION('',(-1.,0.,0.));
#505=DIRECTION('',(-1.,0.,0.));
#506=DIRECTION('',(0.,0.,1.));
#507=DIRECTION('',(0.,-1.,0.));
#508=DIRECTION('',(0.,0.,-1.));
#509=DIRECTION('',(0.,-1.,0.));
#510=DIRECTION('',(1.,0.,0.));
#511=DIRECTION('',(0.,2.7390370673318E-16,-1.));
#512=DIRECTION('',(0.,1.,2.7390370673318E-16));
#513=CARTESIAN_POINT('',(0.,0.,0.));
#514=CARTESIAN_POINT('',(-0.009,-0.00939997686445713,0.0537636422514915));
#515=CARTESIAN_POINT('',(-0.009,-0.00939997686445714,0.0277636422514916));
#516=CARTESIAN_POINT('',(-0.009,-0.00939997686445714,0.0277636422514916));
#517=CARTESIAN_POINT('',(-0.009,0.0246000231355428,0.0277636422514916));
#518=CARTESIAN_POINT('',(-0.009,0.0246000231355428,0.00326364225149155));
#519=CARTESIAN_POINT('',(-0.009,0.0246000231355428,-0.0182363577485085));
#520=CARTESIAN_POINT('',(-0.009,0.0521000231355429,-0.0182363577485085));
#521=CARTESIAN_POINT('',(-0.009,0.0816000231355429,-0.0182363577485085));
#522=CARTESIAN_POINT('',(-0.009,0.0816000231355429,-0.0367363577485084));
#523=CARTESIAN_POINT('',(-0.009,0.0816000231355429,-0.0532363577485085));
#524=CARTESIAN_POINT('',(-0.009,-0.00939997686445712,-0.0532363577485085));
#525=CARTESIAN_POINT('',(-0.009,-0.00939997686445712,-0.0532363577485085));
#526=CARTESIAN_POINT('',(-0.009,-0.00939997686445713,0.0537636422514915));
#527=CARTESIAN_POINT('',(-0.009,0.0686000231355429,-0.0357707477485084));
#528=CARTESIAN_POINT('',(-0.009,0.0686000231355429,-0.0337707477485084));
#529=CARTESIAN_POINT('',(0.01,-0.00939997686445714,0.0537636422514915));
#530=CARTESIAN_POINT('',(0.01,-0.00939997686445714,0.0537636422514915));
#531=CARTESIAN_POINT('',(0.01,-0.00939997686445715,0.0277636422514916));
#532=CARTESIAN_POINT('',(0.01,-0.00939997686445712,-0.0532363577485085));
#533=CARTESIAN_POINT('',(0.01,-0.00939997686445712,-0.0532363577485085));
#534=CARTESIAN_POINT('',(0.01,0.0766000231355428,-0.0532363577485085));
#535=CARTESIAN_POINT('',(0.01,0.0766000231355428,0.0922063536707472));
#536=CARTESIAN_POINT('',(0.01,0.0766000231355428,-0.0212363577485085));
#537=CARTESIAN_POINT('',(0.01,0.0521000231355429,-0.0212363577485085));
#538=CARTESIAN_POINT('',(0.01,0.0246000231355428,-0.0212363577485085));
#539=CARTESIAN_POINT('',(0.01,0.0246000231355428,0.00326364225149155));
#540=CARTESIAN_POINT('',(0.01,0.0246000231355428,0.0277636422514916));
#541=CARTESIAN_POINT('',(0.01,-0.00939997686445715,0.0277636422514916));
#542=CARTESIAN_POINT('',(0.0005,-0.00939997686445711,-0.0357707505225618));
#543=CARTESIAN_POINT('',(0.0005,-0.00939997686445711,-0.0357707505225618));
#544=CARTESIAN_POINT('',(0.0005,-0.00939997686445711,-0.0337707505225618));
#545=CARTESIAN_POINT('',(0.0005,-0.000399976864457145,-0.0357707505225618));
#546=CARTESIAN_POINT('',(0.0005,-0.000399976864457145,-0.0377707505225618));
#547=CARTESIAN_POINT('',(0.01,-0.00939997686445712,0.0277636422514916));
#548=CARTESIAN_POINT('',(0.01,0.0246000231355428,0.0277636422514916));
#549=CARTESIAN_POINT('',(0.003,0.0246000231355428,0.0277636422514916));
#550=CARTESIAN_POINT('',(0.003,0.0116000231355429,0.0277636422514916));
#551=CARTESIAN_POINT('',(0.003,-0.00339997686445713,0.0277636422514916));
#552=CARTESIAN_POINT('',(0.01,-0.00339997686445713,0.0277636422514916));
#553=CARTESIAN_POINT('',(-0.002,-0.00339997686445713,0.0277636422514916));
#554=CARTESIAN_POINT('',(-0.002,0.0116000231355429,0.0277636422514916));
#555=CARTESIAN_POINT('',(-0.002,0.0246000231355428,0.0277636422514916));
#556=CARTESIAN_POINT('',(-0.009,0.0246000231355428,0.0277636422514916));
#557=CARTESIAN_POINT('',(0.01,-0.00939997686445712,0.0277636422514916));
#558=CARTESIAN_POINT('',(0.01,-0.00939997686445713,0.0537636422514915));
#559=CARTESIAN_POINT('',(0.01,-0.00939997686445712,-0.0532363577485085));
#560=CARTESIAN_POINT('',(0.,0.0686000231355429,-0.0357707477485084));
#561=CARTESIAN_POINT('',(-0.002,0.0686000231355429,-0.0357707477485084));
#562=CARTESIAN_POINT('',(-0.002,0.0666000231355429,-0.0357707477485084));
#563=CARTESIAN_POINT('',(0.005,0.0766000231355428,0.0922063536707472));
#564=CARTESIAN_POINT('',(0.005,0.0766000231355428,-0.0532363577485085));
#565=CARTESIAN_POINT('',(0.005,0.0816000231355429,-0.0532363577485085));
#566=CARTESIAN_POINT('',(0.005,0.0816000231355429,-0.0367363577485084));
#567=CARTESIAN_POINT('',(0.005,0.0816000231355429,-0.0212363577485085));
#568=CARTESIAN_POINT('',(0.005,0.0766000231355428,-0.0212363577485085));
#569=CARTESIAN_POINT('',(-0.009,0.0521000231355429,-0.0182363577485085));
#570=CARTESIAN_POINT('',(-0.002,0.0521000231355429,-0.0182363577485085));
#571=CARTESIAN_POINT('',(-0.002,0.0246000231355428,-0.0182363577485085));
#572=CARTESIAN_POINT('',(-0.002,0.0816000231355429,-0.0182363577485085));
#573=CARTESIAN_POINT('',(-0.009,0.0816000231355429,-0.0182363577485085));
#574=CARTESIAN_POINT('',(-0.009,0.0246000231355428,-0.0182363577485085));
#575=CARTESIAN_POINT('',(-0.009,0.0816000231355429,-0.0367363577485084));
#576=CARTESIAN_POINT('',(0.01,0.0816000231355429,-0.0212363577485085));
#577=CARTESIAN_POINT('',(0.003,0.0816000231355429,-0.0212363577485085));
#578=CARTESIAN_POINT('',(-0.009,0.0816000231355429,-0.0532363577485085));
#579=CARTESIAN_POINT('',(-0.002,0.0816000231355429,-0.0367363577485084));
#580=CARTESIAN_POINT('',(-0.002,0.0816000231355429,-0.0516393272833418));
#581=CARTESIAN_POINT('',(0.023,0.0816000231355429,-0.0516393272833418));
#582=CARTESIAN_POINT('',(0.003,0.0816000231355428,-0.0516393272833417));
#583=CARTESIAN_POINT('',(0.003,0.0816000231355429,-0.0367363577485084));
#584=CARTESIAN_POINT('',(0.023,0.0816000231355429,-0.0516393272833418));
#585=CARTESIAN_POINT('',(0.023,0.0796000231355429,-0.0516393272833418));
#586=CARTESIAN_POINT('',(0.003,0.0796000231355428,-0.0516393272833417));
#587=CARTESIAN_POINT('',(-0.002,0.0796000231355429,-0.0516393272833418));
#588=CARTESIAN_POINT('',(0.003,0.0816000231355428,-0.0516393272833417));
#589=CARTESIAN_POINT('',(-0.002,0.0816000231355429,-0.0516393272833418));
#590=CARTESIAN_POINT('',(0.003,0.0116000231355429,0.0175636422514916));
#591=CARTESIAN_POINT('',(0.003,0.0246000231355428,0.00326364225149155));
#592=CARTESIAN_POINT('',(0.003,0.0246000231355428,-0.0212363577485085));
#593=CARTESIAN_POINT('',(0.003,0.0521000231355429,-0.0212363577485085));
#594=CARTESIAN_POINT('',(0.003,0.0858726670242456,-0.0520849768003676));
#595=CARTESIAN_POINT('',(0.003,0.0244339927047711,-0.0477199728207069));
#596=CARTESIAN_POINT('',(0.003,0.0265940222889185,-0.0173169411718846));
#597=CARTESIAN_POINT('',(0.003,-0.00339997686445713,-0.0227363577485085));
#598=CARTESIAN_POINT('',(0.003,-0.00339997686445713,-0.0522363577485085));
#599=CARTESIAN_POINT('',(0.01,0.0246000231355428,0.00326364225149155));
#600=CARTESIAN_POINT('',(0.01,0.0246000231355428,-0.0212363577485085));
#601=CARTESIAN_POINT('',(0.01,0.0521000231355429,-0.0212363577485085));
#602=CARTESIAN_POINT('',(-0.002,0.0116000231355429,0.0175636422514916));
#603=CARTESIAN_POINT('',(-0.002,0.0246000231355428,0.00326364225149155));
#604=CARTESIAN_POINT('',(-0.002,-0.00339997686445713,0.0175636422514916));
#605=CARTESIAN_POINT('',(-0.002,-0.00339997686445713,-0.0227363577485085));
#606=CARTESIAN_POINT('',(-0.002,0.0265940222889185,-0.0173169411718846));
#607=CARTESIAN_POINT('',(-0.002,0.0244339927047711,-0.0477199728207069));
#608=CARTESIAN_POINT('',(-0.002,0.0519170828717058,-0.0496725507251103));
#609=CARTESIAN_POINT('',(0.01,-0.00339997686445713,0.0612636422514915));
#610=CARTESIAN_POINT('',(0.003,-0.00339997686445713,-0.0227363577485085));
#611=CARTESIAN_POINT('',(0.003,0.0519170828717058,-0.0496725507251103));
#612=CARTESIAN_POINT('',(0.003,0.0244339927047711,-0.0477199728207069));
#613=CARTESIAN_POINT('',(0.003,0.0265940222889185,-0.0173169411718846));
#614=CARTESIAN_POINT('',(-0.009,0.0246000231355428,0.00326364225149155));
#615=CARTESIAN_POINT('',(0.0015,-0.000399976864457145,0.0327636422514916));
#616=CARTESIAN_POINT('',(0.01,-0.00939997686445712,-0.0532363577485085));
#617=MECHANICAL_DESIGN_GEOMETRIC_PRESENTATION_REPRESENTATION('',(#374),
#618);
#618=(
GEOMETRIC_REPRESENTATION_CONTEXT(3)
GLOBAL_UNCERTAINTY_ASSIGNED_CONTEXT((#619))
GLOBAL_UNIT_ASSIGNED_CONTEXT((#622,#621,#620))
REPRESENTATION_CONTEXT('Sorted Coin Output','TOP_LEVEL_ASSEMBLY_PART')
);
#619=UNCERTAINTY_MEASURE_WITH_UNIT(LENGTH_MEASURE(1.E-8),#622,
'DISTANCE_ACCURACY_VALUE','Maximum Tolerance applied to model');
#620=(
NAMED_UNIT(*)
SI_UNIT($,.STERADIAN.)
SOLID_ANGLE_UNIT()
);
#621=(
NAMED_UNIT(*)
PLANE_ANGLE_UNIT()
SI_UNIT($,.RADIAN.)
);
#622=(
LENGTH_UNIT()
NAMED_UNIT(*)
SI_UNIT($,.METRE.)
);
#623=PRODUCT_DEFINITION_SHAPE('','',#624);
#624=PRODUCT_DEFINITION('','',#626,#625);
#625=PRODUCT_DEFINITION_CONTEXT('',#632,'design');
#626=PRODUCT_DEFINITION_FORMATION_WITH_SPECIFIED_SOURCE('','',#628,
 .NOT_KNOWN.);
#627=PRODUCT_RELATED_PRODUCT_CATEGORY('','',(#628));
#628=PRODUCT('Sorted Coin Output','Sorted Coin Output',
'Sorted Coin Output',(#630));
#629=PRODUCT_CATEGORY('','');
#630=PRODUCT_CONTEXT('',#632,'mechanical');
#631=APPLICATION_PROTOCOL_DEFINITION('international standard',
'ap242_managed_model_based_3d_engineering',2020,#632);
#632=APPLICATION_CONTEXT('managed model based 3d engineering');
ENDSEC;
END-ISO-10303-21;
