ISO-10303-21;
HEADER;
/* Generated by software containing ST-Developer
 * from STEP Tools, Inc. (www.steptools.com) 
 */
/* OPTION: using custom renumber hook */

FILE_DESCRIPTION(
/* description */ ('STEP AP242 Edition 2',
'CAx-IF Rec.Pracs.---Representation and Presentation of Product Manufa
cturing Information (PMI)---4.0---2014-10-13',
'CAx-IF Rec.Pracs.---3D Tessellated Geometry---0.4---2014-09-14','2;1',
'CAx-IF Rec.Pracs.---User Defined Attributes---1.5---2016-08-15'),
/* implementation_level */ '2;1');

FILE_NAME(
/* name */ 'Assembly 1 - Reload Ramp (1)',
/* time_stamp */ '2026-07-14T16:54:42Z',
/* author */ (''),
/* organization */ (''),
/* preprocessor_version */ 'ST-DEVELOPER v20',
/* originating_system */ 'ONSHAPE BY PTC INC, 1.217',
/* authorisation */ '  ');

FILE_SCHEMA (('AP242_MANAGED_MODEL_BASED_3D_ENGINEERING_MIM_LF { 1 0 10303 442 3 1 4 }'));
ENDSEC;

DATA;
#10=SHAPE_REPRESENTATION_RELATIONSHIP('','',#304,#11);
#11=ADVANCED_BREP_SHAPE_REPRESENTATION('',(#302),#490);
#12=CYLINDRICAL_SURFACE('',#315,0.0585);
#13=CYLINDRICAL_SURFACE('',#320,0.002);
#14=CYLINDRICAL_SURFACE('',#323,0.002);
#15=LINE('',#414,#46);
#16=LINE('',#417,#47);
#17=LINE('',#419,#48);
#18=LINE('',#421,#49);
#19=LINE('',#423,#50);
#20=LINE('',#426,#51);
#21=LINE('',#428,#52);
#22=LINE('',#432,#53);
#23=LINE('',#434,#54);
#24=LINE('',#436,#55);
#25=LINE('',#439,#56);
#26=LINE('',#441,#57);
#27=LINE('',#443,#58);
#28=LINE('',#445,#59);
#29=LINE('',#447,#60);
#30=LINE('',#449,#61);
#31=LINE('',#451,#62);
#32=LINE('',#452,#63);
#33=LINE('',#454,#64);
#34=LINE('',#457,#65);
#35=LINE('',#458,#66);
#36=LINE('',#460,#67);
#37=LINE('',#464,#68);
#38=LINE('',#466,#69);
#39=LINE('',#468,#70);
#40=LINE('',#469,#71);
#41=LINE('',#471,#72);
#42=LINE('',#473,#73);
#43=LINE('',#474,#74);
#44=LINE('',#476,#75);
#45=LINE('',#487,#76);
#46=VECTOR('',#337,1.);
#47=VECTOR('',#338,1.);
#48=VECTOR('',#339,1.);
#49=VECTOR('',#340,1.);
#50=VECTOR('',#343,1.);
#51=VECTOR('',#344,1.);
#52=VECTOR('',#345,1.);
#53=VECTOR('',#348,1.);
#54=VECTOR('',#349,1.);
#55=VECTOR('',#352,1.);
#56=VECTOR('',#353,1.);
#57=VECTOR('',#354,1.);
#58=VECTOR('',#355,1.);
#59=VECTOR('',#358,1.);
#60=VECTOR('',#359,1.);
#61=VECTOR('',#360,1.);
#62=VECTOR('',#363,1.);
#63=VECTOR('',#364,1.);
#64=VECTOR('',#367,1.);
#65=VECTOR('',#368,1.);
#66=VECTOR('',#369,1.);
#67=VECTOR('',#372,1.);
#68=VECTOR('',#375,1.);
#69=VECTOR('',#378,1.);
#70=VECTOR('',#379,1.);
#71=VECTOR('',#380,1.);
#72=VECTOR('',#381,1.);
#73=VECTOR('',#384,1.);
#74=VECTOR('',#385,1.);
#75=VECTOR('',#388,1.);
#76=VECTOR('',#405,1.);
#77=ORIENTED_EDGE('',*,*,#151,.F.);
#78=ORIENTED_EDGE('',*,*,#152,.F.);
#79=ORIENTED_EDGE('',*,*,#153,.F.);
#80=ORIENTED_EDGE('',*,*,#154,.T.);
#81=ORIENTED_EDGE('',*,*,#155,.T.);
#82=ORIENTED_EDGE('',*,*,#156,.F.);
#83=ORIENTED_EDGE('',*,*,#157,.F.);
#84=ORIENTED_EDGE('',*,*,#158,.T.);
#85=ORIENTED_EDGE('',*,*,#159,.T.);
#86=ORIENTED_EDGE('',*,*,#160,.T.);
#87=ORIENTED_EDGE('',*,*,#161,.F.);
#88=ORIENTED_EDGE('',*,*,#162,.F.);
#89=ORIENTED_EDGE('',*,*,#163,.F.);
#90=ORIENTED_EDGE('',*,*,#164,.F.);
#91=ORIENTED_EDGE('',*,*,#165,.F.);
#92=ORIENTED_EDGE('',*,*,#166,.F.);
#93=ORIENTED_EDGE('',*,*,#165,.T.);
#94=ORIENTED_EDGE('',*,*,#167,.F.);
#95=ORIENTED_EDGE('',*,*,#168,.T.);
#96=ORIENTED_EDGE('',*,*,#169,.T.);
#97=ORIENTED_EDGE('',*,*,#168,.F.);
#98=ORIENTED_EDGE('',*,*,#170,.T.);
#99=ORIENTED_EDGE('',*,*,#157,.T.);
#100=ORIENTED_EDGE('',*,*,#171,.F.);
#101=ORIENTED_EDGE('',*,*,#172,.F.);
#102=ORIENTED_EDGE('',*,*,#173,.F.);
#103=ORIENTED_EDGE('',*,*,#163,.T.);
#104=ORIENTED_EDGE('',*,*,#174,.F.);
#105=ORIENTED_EDGE('',*,*,#160,.F.);
#106=ORIENTED_EDGE('',*,*,#175,.T.);
#107=ORIENTED_EDGE('',*,*,#176,.T.);
#108=ORIENTED_EDGE('',*,*,#177,.T.);
#109=ORIENTED_EDGE('',*,*,#176,.F.);
#110=ORIENTED_EDGE('',*,*,#178,.F.);
#111=ORIENTED_EDGE('',*,*,#179,.T.);
#112=ORIENTED_EDGE('',*,*,#153,.T.);
#113=ORIENTED_EDGE('',*,*,#180,.F.);
#114=ORIENTED_EDGE('',*,*,#181,.T.);
#115=ORIENTED_EDGE('',*,*,#162,.T.);
#116=ORIENTED_EDGE('',*,*,#182,.F.);
#117=ORIENTED_EDGE('',*,*,#180,.T.);
#118=ORIENTED_EDGE('',*,*,#156,.T.);
#119=ORIENTED_EDGE('',*,*,#183,.T.);
#120=ORIENTED_EDGE('',*,*,#174,.T.);
#121=ORIENTED_EDGE('',*,*,#166,.T.);
#122=ORIENTED_EDGE('',*,*,#169,.F.);
#123=ORIENTED_EDGE('',*,*,#171,.T.);
#124=ORIENTED_EDGE('',*,*,#155,.F.);
#125=ORIENTED_EDGE('',*,*,#184,.F.);
#126=ORIENTED_EDGE('',*,*,#172,.T.);
#127=ORIENTED_EDGE('',*,*,#183,.F.);
#128=ORIENTED_EDGE('',*,*,#185,.F.);
#129=ORIENTED_EDGE('',*,*,#152,.T.);
#130=ORIENTED_EDGE('',*,*,#185,.T.);
#131=ORIENTED_EDGE('',*,*,#186,.F.);
#132=ORIENTED_EDGE('',*,*,#151,.T.);
#133=ORIENTED_EDGE('',*,*,#186,.T.);
#134=ORIENTED_EDGE('',*,*,#161,.T.);
#135=ORIENTED_EDGE('',*,*,#177,.F.);
#136=ORIENTED_EDGE('',*,*,#181,.F.);
#137=ORIENTED_EDGE('',*,*,#182,.T.);
#138=ORIENTED_EDGE('',*,*,#175,.F.);
#139=ORIENTED_EDGE('',*,*,#159,.F.);
#140=ORIENTED_EDGE('',*,*,#187,.T.);
#141=ORIENTED_EDGE('',*,*,#178,.T.);
#142=ORIENTED_EDGE('',*,*,#173,.T.);
#143=ORIENTED_EDGE('',*,*,#184,.T.);
#144=ORIENTED_EDGE('',*,*,#154,.F.);
#145=ORIENTED_EDGE('',*,*,#179,.F.);
#146=ORIENTED_EDGE('',*,*,#187,.F.);
#147=ORIENTED_EDGE('',*,*,#158,.F.);
#148=ORIENTED_EDGE('',*,*,#170,.F.);
#149=ORIENTED_EDGE('',*,*,#167,.T.);
#150=ORIENTED_EDGE('',*,*,#164,.T.);
#151=EDGE_CURVE('',#188,#188,#214,.T.);
#152=EDGE_CURVE('',#189,#189,#215,.T.);
#153=EDGE_CURVE('',#190,#191,#15,.T.);
#154=EDGE_CURVE('',#190,#192,#16,.T.);
#155=EDGE_CURVE('',#192,#193,#17,.T.);
#156=EDGE_CURVE('',#191,#193,#18,.T.);
#157=EDGE_CURVE('',#194,#195,#19,.T.);
#158=EDGE_CURVE('',#194,#196,#20,.T.);
#159=EDGE_CURVE('',#196,#197,#21,.T.);
#160=EDGE_CURVE('',#197,#198,#216,.T.);
#161=EDGE_CURVE('',#199,#198,#22,.T.);
#162=EDGE_CURVE('',#195,#199,#23,.T.);
#163=EDGE_CURVE('',#200,#201,#24,.T.);
#164=EDGE_CURVE('',#202,#200,#25,.T.);
#165=EDGE_CURVE('',#203,#202,#26,.T.);
#166=EDGE_CURVE('',#201,#203,#27,.T.);
#167=EDGE_CURVE('',#204,#202,#28,.T.);
#168=EDGE_CURVE('',#204,#205,#29,.T.);
#169=EDGE_CURVE('',#205,#203,#30,.T.);
#170=EDGE_CURVE('',#204,#194,#31,.T.);
#171=EDGE_CURVE('',#205,#195,#32,.T.);
#172=EDGE_CURVE('',#206,#207,#33,.T.);
#173=EDGE_CURVE('',#200,#206,#34,.T.);
#174=EDGE_CURVE('',#207,#201,#35,.T.);
#175=EDGE_CURVE('',#197,#208,#36,.F.);
#176=EDGE_CURVE('',#208,#209,#217,.T.);
#177=EDGE_CURVE('',#209,#198,#37,.T.);
#178=EDGE_CURVE('',#210,#208,#38,.T.);
#179=EDGE_CURVE('',#210,#190,#39,.T.);
#180=EDGE_CURVE('',#211,#191,#40,.T.);
#181=EDGE_CURVE('',#211,#209,#41,.T.);
#182=EDGE_CURVE('',#211,#199,#42,.T.);
#183=EDGE_CURVE('',#193,#207,#43,.T.);
#184=EDGE_CURVE('',#206,#192,#44,.T.);
#185=EDGE_CURVE('',#212,#212,#218,.T.);
#186=EDGE_CURVE('',#213,#213,#219,.T.);
#187=EDGE_CURVE('',#196,#210,#45,.F.);
#188=VERTEX_POINT('',#411);
#189=VERTEX_POINT('',#413);
#190=VERTEX_POINT('',#415);
#191=VERTEX_POINT('',#416);
#192=VERTEX_POINT('',#418);
#193=VERTEX_POINT('',#420);
#194=VERTEX_POINT('',#424);
#195=VERTEX_POINT('',#425);
#196=VERTEX_POINT('',#427);
#197=VERTEX_POINT('',#429);
#198=VERTEX_POINT('',#431);
#199=VERTEX_POINT('',#433);
#200=VERTEX_POINT('',#437);
#201=VERTEX_POINT('',#438);
#202=VERTEX_POINT('',#440);
#203=VERTEX_POINT('',#442);
#204=VERTEX_POINT('',#446);
#205=VERTEX_POINT('',#448);
#206=VERTEX_POINT('',#455);
#207=VERTEX_POINT('',#456);
#208=VERTEX_POINT('',#461);
#209=VERTEX_POINT('',#463);
#210=VERTEX_POINT('',#467);
#211=VERTEX_POINT('',#470);
#212=VERTEX_POINT('',#479);
#213=VERTEX_POINT('',#483);
#214=CIRCLE('',#307,0.002);
#215=CIRCLE('',#308,0.002);
#216=CIRCLE('',#310,0.0585);
#217=CIRCLE('',#316,0.0585);
#218=CIRCLE('',#321,0.002);
#219=CIRCLE('',#324,0.002);
#220=EDGE_LOOP('',(#77));
#221=EDGE_LOOP('',(#78));
#222=EDGE_LOOP('',(#79,#80,#81,#82));
#223=EDGE_LOOP('',(#83,#84,#85,#86,#87,#88));
#224=EDGE_LOOP('',(#89,#90,#91,#92));
#225=EDGE_LOOP('',(#93,#94,#95,#96));
#226=EDGE_LOOP('',(#97,#98,#99,#100));
#227=EDGE_LOOP('',(#101,#102,#103,#104));
#228=EDGE_LOOP('',(#105,#106,#107,#108));
#229=EDGE_LOOP('',(#109,#110,#111,#112,#113,#114));
#230=EDGE_LOOP('',(#115,#116,#117,#118,#119,#120,#121,#122,#123));
#231=EDGE_LOOP('',(#124,#125,#126,#127));
#232=EDGE_LOOP('',(#128));
#233=EDGE_LOOP('',(#129));
#234=EDGE_LOOP('',(#130));
#235=EDGE_LOOP('',(#131));
#236=EDGE_LOOP('',(#132));
#237=EDGE_LOOP('',(#133));
#238=EDGE_LOOP('',(#134,#135,#136,#137));
#239=EDGE_LOOP('',(#138,#139,#140,#141));
#240=EDGE_LOOP('',(#142,#143,#144,#145,#146,#147,#148,#149,#150));
#241=FACE_BOUND('',#220,.T.);
#242=FACE_BOUND('',#221,.T.);
#243=FACE_BOUND('',#222,.T.);
#244=FACE_BOUND('',#223,.T.);
#245=FACE_BOUND('',#224,.T.);
#246=FACE_BOUND('',#225,.T.);
#247=FACE_BOUND('',#226,.T.);
#248=FACE_BOUND('',#227,.T.);
#249=FACE_BOUND('',#228,.T.);
#250=FACE_BOUND('',#229,.T.);
#251=FACE_BOUND('',#230,.T.);
#252=FACE_BOUND('',#231,.T.);
#253=FACE_BOUND('',#232,.T.);
#254=FACE_BOUND('',#233,.T.);
#255=FACE_BOUND('',#234,.T.);
#256=FACE_BOUND('',#235,.T.);
#257=FACE_BOUND('',#236,.T.);
#258=FACE_BOUND('',#237,.T.);
#259=FACE_BOUND('',#238,.T.);
#260=FACE_BOUND('',#239,.T.);
#261=FACE_BOUND('',#240,.T.);
#262=PLANE('',#306);
#263=PLANE('',#309);
#264=PLANE('',#311);
#265=PLANE('',#312);
#266=PLANE('',#313);
#267=PLANE('',#314);
#268=PLANE('',#317);
#269=PLANE('',#318);
#270=PLANE('',#319);
#271=PLANE('',#322);
#272=PLANE('',#325);
#273=PLANE('',#326);
#274=PLANE('',#327);
#275=PLANE('',#328);
#276=ADVANCED_FACE('',(#241,#242,#243),#262,.T.);
#277=ADVANCED_FACE('',(#244),#263,.T.);
#278=ADVANCED_FACE('',(#245),#264,.F.);
#279=ADVANCED_FACE('',(#246),#265,.F.);
#280=ADVANCED_FACE('',(#247),#266,.T.);
#281=ADVANCED_FACE('',(#248),#267,.F.);
#282=ADVANCED_FACE('',(#249),#12,.F.);
#283=ADVANCED_FACE('',(#250),#268,.T.);
#284=ADVANCED_FACE('',(#251),#269,.F.);
#285=ADVANCED_FACE('',(#252),#270,.T.);
#286=ADVANCED_FACE('',(#253,#254),#13,.F.);
#287=ADVANCED_FACE('',(#255),#271,.T.);
#288=ADVANCED_FACE('',(#256,#257),#14,.F.);
#289=ADVANCED_FACE('',(#258),#272,.T.);
#290=ADVANCED_FACE('',(#259),#273,.F.);
#291=ADVANCED_FACE('',(#260),#274,.T.);
#292=ADVANCED_FACE('',(#261),#275,.T.);
#293=CLOSED_SHELL('',(#276,#277,#278,#279,#280,#281,#282,#283,#284,#285,
#286,#287,#288,#289,#290,#291,#292));
#294=STYLED_ITEM('',(#295),#302);
#295=PRESENTATION_STYLE_ASSIGNMENT((#296));
#296=SURFACE_STYLE_USAGE(.BOTH.,#297);
#297=SURFACE_SIDE_STYLE('',(#298));
#298=SURFACE_STYLE_FILL_AREA(#299);
#299=FILL_AREA_STYLE('',(#300));
#300=FILL_AREA_STYLE_COLOUR('',#301);
#301=COLOUR_RGB('',0.8,0.776470588235294,0.713725490196078);
#302=MANIFOLD_SOLID_BREP('Reload Ramp',#293);
#303=SHAPE_DEFINITION_REPRESENTATION(#495,#304);
#304=SHAPE_REPRESENTATION('Reload Ramp',(#305),#490);
#305=AXIS2_PLACEMENT_3D('',#408,#329,#330);
#306=AXIS2_PLACEMENT_3D('',#409,#331,#332);
#307=AXIS2_PLACEMENT_3D('',#410,#333,#334);
#308=AXIS2_PLACEMENT_3D('',#412,#335,#336);
#309=AXIS2_PLACEMENT_3D('',#422,#341,#342);
#310=AXIS2_PLACEMENT_3D('',#430,#346,#347);
#311=AXIS2_PLACEMENT_3D('',#435,#350,#351);
#312=AXIS2_PLACEMENT_3D('',#444,#356,#357);
#313=AXIS2_PLACEMENT_3D('',#450,#361,#362);
#314=AXIS2_PLACEMENT_3D('',#453,#365,#366);
#315=AXIS2_PLACEMENT_3D('',#459,#370,#371);
#316=AXIS2_PLACEMENT_3D('',#462,#373,#374);
#317=AXIS2_PLACEMENT_3D('',#465,#376,#377);
#318=AXIS2_PLACEMENT_3D('',#472,#382,#383);
#319=AXIS2_PLACEMENT_3D('',#475,#386,#387);
#320=AXIS2_PLACEMENT_3D('',#477,#389,#390);
#321=AXIS2_PLACEMENT_3D('',#478,#391,#392);
#322=AXIS2_PLACEMENT_3D('',#480,#393,#394);
#323=AXIS2_PLACEMENT_3D('',#481,#395,#396);
#324=AXIS2_PLACEMENT_3D('',#482,#397,#398);
#325=AXIS2_PLACEMENT_3D('',#484,#399,#400);
#326=AXIS2_PLACEMENT_3D('',#485,#401,#402);
#327=AXIS2_PLACEMENT_3D('',#486,#403,#404);
#328=AXIS2_PLACEMENT_3D('',#488,#406,#407);
#329=DIRECTION('',(0.,0.,1.));
#330=DIRECTION('',(1.,0.,0.));
#331=DIRECTION('',(0.,-1.,0.));
#332=DIRECTION('',(0.,0.,-1.));
#333=DIRECTION('',(0.,-1.,0.));
#334=DIRECTION('',(0.,0.,-1.));
#335=DIRECTION('',(0.,-1.,0.));
#336=DIRECTION('',(0.,0.,-1.));
#337=DIRECTION('',(1.,0.,0.));
#338=DIRECTION('',(0.,0.,-1.));
#339=DIRECTION('',(1.,0.,0.));
#340=DIRECTION('',(0.,0.,-1.));
#341=DIRECTION('',(0.,0.,1.));
#342=DIRECTION('',(1.,0.,0.));
#343=DIRECTION('',(1.,0.,0.));
#344=DIRECTION('',(0.,-1.,0.));
#345=DIRECTION('',(1.,0.,0.));
#346=DIRECTION('',(0.,0.,1.));
#347=DIRECTION('',(1.,0.,0.));
#348=DIRECTION('',(-1.,0.,0.));
#349=DIRECTION('',(0.,-1.,0.));
#350=DIRECTION('',(0.,0.,1.));
#351=DIRECTION('',(1.,0.,0.));
#352=DIRECTION('',(1.,0.,0.));
#353=DIRECTION('',(0.,-1.,0.));
#354=DIRECTION('',(-1.,0.,0.));
#355=DIRECTION('',(0.,1.,0.));
#356=DIRECTION('',(0.,-1.,0.));
#357=DIRECTION('',(0.,0.,-1.));
#358=DIRECTION('',(0.,0.,-1.));
#359=DIRECTION('',(1.,0.,0.));
#360=DIRECTION('',(0.,0.,-1.));
#361=DIRECTION('',(0.,0.242535625036333,0.970142500145332));
#362=DIRECTION('',(0.,-0.970142500145332,0.242535625036333));
#363=DIRECTION('',(0.,-0.970142500145332,0.242535625036333));
#364=DIRECTION('',(0.,-0.970142500145332,0.242535625036333));
#365=DIRECTION('',(0.,-1.,0.));
#366=DIRECTION('',(0.,0.,-1.));
#367=DIRECTION('',(1.,0.,0.));
#368=DIRECTION('',(0.,0.,-1.));
#369=DIRECTION('',(0.,0.,1.));
#370=DIRECTION('',(0.,0.,-1.));
#371=DIRECTION('',(-1.,0.,0.));
#372=DIRECTION('',(0.,0.,-1.));
#373=DIRECTION('',(0.,0.,1.));
#374=DIRECTION('',(1.,0.,0.));
#375=DIRECTION('',(0.,0.,-1.));
#376=DIRECTION('',(0.,0.,1.));
#377=DIRECTION('',(1.,0.,0.));
#378=DIRECTION('',(1.,0.,0.));
#379=DIRECTION('',(0.,-1.,0.));
#380=DIRECTION('',(0.,-1.,0.));
#381=DIRECTION('',(-1.,0.,0.));
#382=DIRECTION('',(-1.,0.,0.));
#383=DIRECTION('',(0.,0.,1.));
#384=DIRECTION('',(0.,0.,-1.));
#385=DIRECTION('',(0.,1.,0.));
#386=DIRECTION('',(0.,0.,-1.));
#387=DIRECTION('',(1.,0.,0.));
#388=DIRECTION('',(0.,-1.,0.));
#389=DIRECTION('',(0.,-1.,0.));
#390=DIRECTION('',(0.,0.,-1.));
#391=DIRECTION('',(0.,-1.,0.));
#392=DIRECTION('',(0.,0.,-1.));
#393=DIRECTION('',(0.,-1.,0.));
#394=DIRECTION('',(1.,0.,0.));
#395=DIRECTION('',(0.,-1.,0.));
#396=DIRECTION('',(0.,0.,-1.));
#397=DIRECTION('',(0.,-1.,0.));
#398=DIRECTION('',(0.,0.,-1.));
#399=DIRECTION('',(0.,-1.,0.));
#400=DIRECTION('',(1.,0.,0.));
#401=DIRECTION('',(0.,-1.,0.));
#402=DIRECTION('',(0.,0.,-1.));
#403=DIRECTION('',(0.,1.,0.));
#404=DIRECTION('',(0.,0.,1.));
#405=DIRECTION('',(0.,0.,-1.));
#406=DIRECTION('',(-1.,0.,0.));
#407=DIRECTION('',(0.,0.,1.));
#408=CARTESIAN_POINT('',(0.,0.,0.));
#409=CARTESIAN_POINT('',(0.0479087409377098,-0.00939997686445716,-0.0142363577485084));
#410=CARTESIAN_POINT('',(0.0629087409377098,-0.00939997686445716,-0.0172363577485085));
#411=CARTESIAN_POINT('',(0.0629087409377098,-0.00939997686445716,-0.0192363577485085));
#412=CARTESIAN_POINT('',(0.0629087409377098,-0.00939997686445716,-0.0472363577485085));
#413=CARTESIAN_POINT('',(0.0629087409377098,-0.00939997686445716,-0.0492363577485085));
#414=CARTESIAN_POINT('',(0.0479087409377098,-0.00939997686445716,0.0187636422514916));
#415=CARTESIAN_POINT('',(0.0519087409377098,-0.00939997686445716,0.0187636422514916));
#416=CARTESIAN_POINT('',(0.0779087409377098,-0.00939997686445716,0.0187636422514916));
#417=CARTESIAN_POINT('',(0.0519087409377098,-0.00939997686445716,-0.0172363577485085));
#418=CARTESIAN_POINT('',(0.0519087409377098,-0.00939997686445716,-0.0532363577485085));
#419=CARTESIAN_POINT('',(0.0479087409377098,-0.00939997686445716,-0.0532363577485085));
#420=CARTESIAN_POINT('',(0.0779087409377098,-0.00939997686445716,-0.0532363577485085));
#421=CARTESIAN_POINT('',(0.0779087409377098,-0.00939997686445716,-0.0142363577485084));
#422=CARTESIAN_POINT('',(0.0479087409377098,0.0161000231355428,-0.0112363577485084));
#423=CARTESIAN_POINT('',(0.0629087409377098,0.0416000231355429,-0.0112363577485084));
#424=CARTESIAN_POINT('',(0.0519087409377098,0.0416000231355429,-0.0112363577485084));
#425=CARTESIAN_POINT('',(0.0779087409377098,0.0416000231355429,-0.0112363577485084));
#426=CARTESIAN_POINT('',(0.0519087409377098,0.0161000231355428,-0.0112363577485084));
#427=CARTESIAN_POINT('',(0.0519087409377098,0.0103192547446058,-0.0112363577485084));
#428=CARTESIAN_POINT('',(0.0519087409377098,0.0103192547446058,-0.0112363577485084));
#429=CARTESIAN_POINT('',(0.0529087409377098,0.0103192547446058,-0.0112363577485084));
#430=CARTESIAN_POINT('',(0.015,0.0548745839490636,-0.0112363577485084));
#431=CARTESIAN_POINT('',(0.0604959523141638,0.0181000231355429,-0.0112363577485084));
#432=CARTESIAN_POINT('',(0.0692023466259368,0.0181000231355429,-0.0112363577485084));
#433=CARTESIAN_POINT('',(0.0779087409377098,0.0181000231355429,-0.0112363577485084));
#434=CARTESIAN_POINT('',(0.0779087409377098,0.0161000231355428,-0.0112363577485084));
#435=CARTESIAN_POINT('',(0.0541233874408504,0.0597434231355429,-0.0172363577485085));
#436=CARTESIAN_POINT('',(0.0629087409377098,0.00560002313554284,-0.0172363577485085));
#437=CARTESIAN_POINT('',(0.0519087409377098,0.00560002313554284,-0.0172363577485085));
#438=CARTESIAN_POINT('',(0.0779087409377098,0.00560002313554284,-0.0172363577485085));
#439=CARTESIAN_POINT('',(0.0519087409377098,0.0597434231355429,-0.0172363577485085));
#440=CARTESIAN_POINT('',(0.0519087409377098,0.0536000231355429,-0.0172363577485085));
#441=CARTESIAN_POINT('',(0.0629087409377098,0.0536000231355429,-0.0172363577485085));
#442=CARTESIAN_POINT('',(0.0779087409377098,0.0536000231355429,-0.0172363577485085));
#443=CARTESIAN_POINT('',(0.0779087409377098,0.0466000231355429,-0.0172363577485085));
#444=CARTESIAN_POINT('',(0.0629087409377098,0.0536000231355429,-0.0112363577485084));
#445=CARTESIAN_POINT('',(0.0519087409377098,0.0536000231355429,-0.0112363577485084));
#446=CARTESIAN_POINT('',(0.0519087409377098,0.0536000231355429,-0.0142363577485084));
#447=CARTESIAN_POINT('',(0.0454087409377098,0.0536000231355429,-0.0142363577485084));
#448=CARTESIAN_POINT('',(0.0779087409377098,0.0536000231355429,-0.0142363577485084));
#449=CARTESIAN_POINT('',(0.0779087409377098,0.0536000231355429,-0.0112363577485084));
#450=CARTESIAN_POINT('',(0.0454087409377098,0.0476000231355429,-0.0127363577485084));
#451=CARTESIAN_POINT('',(0.0519087409377098,0.0476000231355429,-0.0127363577485084));
#452=CARTESIAN_POINT('',(0.0779087409377098,0.0476000231355429,-0.0127363577485084));
#453=CARTESIAN_POINT('',(0.0629087409377098,0.00560002313554284,-0.0532363577485085));
#454=CARTESIAN_POINT('',(0.0629087409377098,0.00560002313554284,-0.0532363577485085));
#455=CARTESIAN_POINT('',(0.0519087409377098,0.00560002313554284,-0.0532363577485085));
#456=CARTESIAN_POINT('',(0.0779087409377098,0.00560002313554284,-0.0532363577485085));
#457=CARTESIAN_POINT('',(0.0519087409377098,0.00560002313554284,-0.0532363577485085));
#458=CARTESIAN_POINT('',(0.0779087409377098,0.00560002313554284,-0.0532363577485085));
#459=CARTESIAN_POINT('',(0.015,0.0548745839490636,0.0187636422514916));
#460=CARTESIAN_POINT('',(0.0529087409377098,0.0103192547446058,0.0187636422514916));
#461=CARTESIAN_POINT('',(0.0529087409377098,0.0103192547446058,0.0187636422514916));
#462=CARTESIAN_POINT('',(0.015,0.0548745839490636,0.0187636422514916));
#463=CARTESIAN_POINT('',(0.0604959523141638,0.0181000231355429,0.0187636422514916));
#464=CARTESIAN_POINT('',(0.0604959523141638,0.0181000231355429,0.0187636422514916));
#465=CARTESIAN_POINT('',(0.0172043704688549,0.0519873035423032,0.0187636422514916));
#466=CARTESIAN_POINT('',(0.0519087409377098,0.0103192547446058,0.0187636422514916));
#467=CARTESIAN_POINT('',(0.0519087409377098,0.0103192547446058,0.0187636422514916));
#468=CARTESIAN_POINT('',(0.0519087409377098,0.0782000231355428,0.0187636422514916));
#469=CARTESIAN_POINT('',(0.0779087409377098,0.0161000231355428,0.0187636422514916));
#470=CARTESIAN_POINT('',(0.0779087409377098,0.0181000231355429,0.0187636422514916));
#471=CARTESIAN_POINT('',(0.0692023466259368,0.0181000231355429,0.0187636422514916));
#472=CARTESIAN_POINT('',(0.0779087409377098,0.0466000231355429,-0.0112363577485084));
#473=CARTESIAN_POINT('',(0.0779087409377098,0.0181000231355429,0.0187636422514916));
#474=CARTESIAN_POINT('',(0.0779087409377098,0.0466000231355429,-0.0532363577485085));
#475=CARTESIAN_POINT('',(0.0629087409377098,0.0221000231355429,-0.0532363577485085));
#476=CARTESIAN_POINT('',(0.0519087409377098,0.0782000231355428,-0.0532363577485085));
#477=CARTESIAN_POINT('',(0.0629087409377098,0.000600023135542844,-0.0472363577485085));
#478=CARTESIAN_POINT('',(0.0629087409377098,0.000600023135542844,-0.0472363577485085));
#479=CARTESIAN_POINT('',(0.0629087409377098,0.000600023135542844,-0.0492363577485085));
#480=CARTESIAN_POINT('',(0.0629087409377098,0.000600023135542844,-0.0322363577485084));
#481=CARTESIAN_POINT('',(0.0629087409377098,0.000600023135542844,-0.0172363577485085));
#482=CARTESIAN_POINT('',(0.0629087409377098,0.000600023135542844,-0.0172363577485085));
#483=CARTESIAN_POINT('',(0.0629087409377098,0.000600023135542844,-0.0192363577485085));
#484=CARTESIAN_POINT('',(0.0629087409377098,0.000600023135542844,-0.0322363577485084));
#485=CARTESIAN_POINT('',(0.0692023466259368,0.0181000231355429,0.0187636422514916));
#486=CARTESIAN_POINT('',(0.0519087409377098,0.0103192547446058,0.0187636422514916));
#487=CARTESIAN_POINT('',(0.0519087409377098,0.0103192547446058,0.0187636422514916));
#488=CARTESIAN_POINT('',(0.0519087409377098,0.0782000231355428,-0.0172363577485085));
#489=MECHANICAL_DESIGN_GEOMETRIC_PRESENTATION_REPRESENTATION('',(#294),
#490);
#490=(
GEOMETRIC_REPRESENTATION_CONTEXT(3)
GLOBAL_UNCERTAINTY_ASSIGNED_CONTEXT((#491))
GLOBAL_UNIT_ASSIGNED_CONTEXT((#494,#493,#492))
REPRESENTATION_CONTEXT('Reload Ramp','TOP_LEVEL_ASSEMBLY_PART')
);
#491=UNCERTAINTY_MEASURE_WITH_UNIT(LENGTH_MEASURE(1.E-8),#494,
'DISTANCE_ACCURACY_VALUE','Maximum Tolerance applied to model');
#492=(
NAMED_UNIT(*)
SI_UNIT($,.STERADIAN.)
SOLID_ANGLE_UNIT()
);
#493=(
NAMED_UNIT(*)
PLANE_ANGLE_UNIT()
SI_UNIT($,.RADIAN.)
);
#494=(
LENGTH_UNIT()
NAMED_UNIT(*)
SI_UNIT($,.METRE.)
);
#495=PRODUCT_DEFINITION_SHAPE('','',#496);
#496=PRODUCT_DEFINITION('','',#498,#497);
#497=PRODUCT_DEFINITION_CONTEXT('',#504,'design');
#498=PRODUCT_DEFINITION_FORMATION_WITH_SPECIFIED_SOURCE('','',#500,
 .NOT_KNOWN.);
#499=PRODUCT_RELATED_PRODUCT_CATEGORY('','',(#500));
#500=PRODUCT('Reload Ramp','Reload Ramp','Reload Ramp',(#502));
#501=PRODUCT_CATEGORY('','');
#502=PRODUCT_CONTEXT('',#504,'mechanical');
#503=APPLICATION_PROTOCOL_DEFINITION('international standard',
'ap242_managed_model_based_3d_engineering',2020,#504);
#504=APPLICATION_CONTEXT('managed model based 3d engineering');
ENDSEC;
END-ISO-10303-21;
