ISO-10303-21;
HEADER;
/* Generated by software containing ST-Developer
 * from STEP Tools, Inc. (www.steptools.com) 
 */
/* OPTION: using custom renumber hook */

FILE_DESCRIPTION(
/* description */ ('STEP AP242 Edition 2',
'CAx-IF Rec.Pracs.---Representation and Presentation of Product Manufa
cturing Information (PMI)---4.0---2014-10-13',
'CAx-IF Rec.Pracs.---3D Tessellated Geometry---0.4---2014-09-14','2;1',
'CAx-IF Rec.Pracs.---User Defined Attributes---1.5---2016-08-15'),
/* implementation_level */ '2;1');

FILE_NAME(
/* name */ 'Assembly 1 - Coin Bin  Rail',
/* time_stamp */ '2026-07-14T16:54:41Z',
/* author */ (''),
/* organization */ (''),
/* preprocessor_version */ 'ST-DEVELOPER v20',
/* originating_system */ 'ONSHAPE BY PTC INC, 1.217',
/* authorisation */ '  ');

FILE_SCHEMA (('AP242_MANAGED_MODEL_BASED_3D_ENGINEERING_MIM_LF { 1 0 10303 442 3 1 4 }'));
ENDSEC;

DATA;
#10=SHAPE_REPRESENTATION_RELATIONSHIP('','',#175,#11);
#11=ADVANCED_BREP_SHAPE_REPRESENTATION('',(#173),#279);
#12=CIRCLE('',#179,0.005);
#13=CIRCLE('',#180,0.005);
#14=CIRCLE('',#183,0.002);
#15=CIRCLE('',#184,0.002);
#16=CYLINDRICAL_SURFACE('',#178,0.005);
#17=CYLINDRICAL_SURFACE('',#182,0.002);
#18=ORIENTED_EDGE('',*,*,#58,.F.);
#19=ORIENTED_EDGE('',*,*,#59,.F.);
#20=ORIENTED_EDGE('',*,*,#60,.T.);
#21=ORIENTED_EDGE('',*,*,#61,.T.);
#22=ORIENTED_EDGE('',*,*,#62,.F.);
#23=ORIENTED_EDGE('',*,*,#63,.T.);
#24=ORIENTED_EDGE('',*,*,#64,.T.);
#25=ORIENTED_EDGE('',*,*,#65,.F.);
#26=ORIENTED_EDGE('',*,*,#66,.F.);
#27=ORIENTED_EDGE('',*,*,#59,.T.);
#28=ORIENTED_EDGE('',*,*,#67,.T.);
#29=ORIENTED_EDGE('',*,*,#68,.F.);
#30=ORIENTED_EDGE('',*,*,#69,.T.);
#31=ORIENTED_EDGE('',*,*,#70,.F.);
#32=ORIENTED_EDGE('',*,*,#71,.F.);
#33=ORIENTED_EDGE('',*,*,#65,.T.);
#34=ORIENTED_EDGE('',*,*,#72,.F.);
#35=ORIENTED_EDGE('',*,*,#73,.T.);
#36=ORIENTED_EDGE('',*,*,#74,.F.);
#37=ORIENTED_EDGE('',*,*,#63,.F.);
#38=ORIENTED_EDGE('',*,*,#75,.T.);
#39=ORIENTED_EDGE('',*,*,#68,.T.);
#40=ORIENTED_EDGE('',*,*,#72,.T.);
#41=ORIENTED_EDGE('',*,*,#58,.T.);
#42=ORIENTED_EDGE('',*,*,#74,.T.);
#43=ORIENTED_EDGE('',*,*,#67,.F.);
#44=ORIENTED_EDGE('',*,*,#64,.F.);
#45=ORIENTED_EDGE('',*,*,#76,.F.);
#46=ORIENTED_EDGE('',*,*,#61,.F.);
#47=ORIENTED_EDGE('',*,*,#77,.T.);
#48=ORIENTED_EDGE('',*,*,#70,.T.);
#49=ORIENTED_EDGE('',*,*,#73,.F.);
#50=ORIENTED_EDGE('',*,*,#60,.F.);
#51=ORIENTED_EDGE('',*,*,#66,.T.);
#52=ORIENTED_EDGE('',*,*,#71,.T.);
#53=ORIENTED_EDGE('',*,*,#77,.F.);
#54=ORIENTED_EDGE('',*,*,#75,.F.);
#55=ORIENTED_EDGE('',*,*,#62,.T.);
#56=ORIENTED_EDGE('',*,*,#76,.T.);
#57=ORIENTED_EDGE('',*,*,#69,.F.);
#58=EDGE_CURVE('',#78,#79,#92,.T.);
#59=EDGE_CURVE('',#80,#78,#93,.T.);
#60=EDGE_CURVE('',#80,#81,#94,.T.);
#61=EDGE_CURVE('',#81,#82,#95,.T.);
#62=EDGE_CURVE('',#83,#82,#96,.T.);
#63=EDGE_CURVE('',#83,#79,#97,.T.);
#64=EDGE_CURVE('',#78,#84,#12,.T.);
#65=EDGE_CURVE('',#85,#84,#98,.T.);
#66=EDGE_CURVE('',#80,#85,#13,.T.);
#67=EDGE_CURVE('',#84,#86,#99,.T.);
#68=EDGE_CURVE('',#87,#86,#100,.T.);
#69=EDGE_CURVE('',#87,#88,#101,.T.);
#70=EDGE_CURVE('',#89,#88,#102,.T.);
#71=EDGE_CURVE('',#85,#89,#103,.T.);
#72=EDGE_CURVE('',#90,#90,#14,.T.);
#73=EDGE_CURVE('',#91,#91,#15,.T.);
#74=EDGE_CURVE('',#79,#86,#104,.T.);
#75=EDGE_CURVE('',#83,#87,#105,.T.);
#76=EDGE_CURVE('',#82,#88,#106,.T.);
#77=EDGE_CURVE('',#81,#89,#107,.T.);
#78=VERTEX_POINT('',#237);
#79=VERTEX_POINT('',#238);
#80=VERTEX_POINT('',#240);
#81=VERTEX_POINT('',#242);
#82=VERTEX_POINT('',#244);
#83=VERTEX_POINT('',#246);
#84=VERTEX_POINT('',#250);
#85=VERTEX_POINT('',#252);
#86=VERTEX_POINT('',#256);
#87=VERTEX_POINT('',#258);
#88=VERTEX_POINT('',#260);
#89=VERTEX_POINT('',#262);
#90=VERTEX_POINT('',#266);
#91=VERTEX_POINT('',#268);
#92=LINE('',#236,#108);
#93=LINE('',#239,#109);
#94=LINE('',#241,#110);
#95=LINE('',#243,#111);
#96=LINE('',#245,#112);
#97=LINE('',#247,#113);
#98=LINE('',#251,#114);
#99=LINE('',#255,#115);
#100=LINE('',#257,#116);
#101=LINE('',#259,#117);
#102=LINE('',#261,#118);
#103=LINE('',#263,#119);
#104=LINE('',#270,#120);
#105=LINE('',#271,#121);
#106=LINE('',#274,#122);
#107=LINE('',#275,#123);
#108=VECTOR('',#194,1.);
#109=VECTOR('',#195,1.);
#110=VECTOR('',#196,1.);
#111=VECTOR('',#197,1.);
#112=VECTOR('',#198,1.);
#113=VECTOR('',#199,1.);
#114=VECTOR('',#204,1.);
#115=VECTOR('',#209,1.);
#116=VECTOR('',#210,1.);
#117=VECTOR('',#211,1.);
#118=VECTOR('',#212,1.);
#119=VECTOR('',#213,1.);
#120=VECTOR('',#222,1.);
#121=VECTOR('',#223,1.);
#122=VECTOR('',#228,1.);
#123=VECTOR('',#229,1.);
#124=EDGE_LOOP('',(#18,#19,#20,#21,#22,#23));
#125=EDGE_LOOP('',(#24,#25,#26,#27));
#126=EDGE_LOOP('',(#28,#29,#30,#31,#32,#33));
#127=EDGE_LOOP('',(#34));
#128=EDGE_LOOP('',(#35));
#129=EDGE_LOOP('',(#36,#37,#38,#39));
#130=EDGE_LOOP('',(#40));
#131=EDGE_LOOP('',(#41,#42,#43,#44));
#132=EDGE_LOOP('',(#45,#46,#47,#48));
#133=EDGE_LOOP('',(#49));
#134=EDGE_LOOP('',(#50,#51,#52,#53));
#135=EDGE_LOOP('',(#54,#55,#56,#57));
#136=FACE_BOUND('',#124,.T.);
#137=FACE_BOUND('',#125,.T.);
#138=FACE_BOUND('',#126,.T.);
#139=FACE_BOUND('',#127,.T.);
#140=FACE_BOUND('',#128,.T.);
#141=FACE_BOUND('',#129,.T.);
#142=FACE_BOUND('',#130,.T.);
#143=FACE_BOUND('',#131,.T.);
#144=FACE_BOUND('',#132,.T.);
#145=FACE_BOUND('',#133,.T.);
#146=FACE_BOUND('',#134,.T.);
#147=FACE_BOUND('',#135,.T.);
#148=PLANE('',#177);
#149=PLANE('',#181);
#150=PLANE('',#185);
#151=PLANE('',#186);
#152=PLANE('',#187);
#153=PLANE('',#188);
#154=PLANE('',#189);
#155=ADVANCED_FACE('',(#136),#148,.T.);
#156=ADVANCED_FACE('',(#137),#16,.T.);
#157=ADVANCED_FACE('',(#138),#149,.F.);
#158=ADVANCED_FACE('',(#139,#140),#17,.F.);
#159=ADVANCED_FACE('',(#141),#150,.T.);
#160=ADVANCED_FACE('',(#142,#143),#151,.F.);
#161=ADVANCED_FACE('',(#144),#152,.T.);
#162=ADVANCED_FACE('',(#145,#146),#153,.T.);
#163=ADVANCED_FACE('',(#147),#154,.F.);
#164=CLOSED_SHELL('',(#155,#156,#157,#158,#159,#160,#161,#162,#163));
#165=STYLED_ITEM('',(#166),#173);
#166=PRESENTATION_STYLE_ASSIGNMENT((#167));
#167=SURFACE_STYLE_USAGE(.BOTH.,#168);
#168=SURFACE_SIDE_STYLE('',(#169));
#169=SURFACE_STYLE_FILL_AREA(#170);
#170=FILL_AREA_STYLE('',(#171));
#171=FILL_AREA_STYLE_COLOUR('',#172);
#172=COLOUR_RGB('',0.8,0.776470588235294,0.713725490196078);
#173=MANIFOLD_SOLID_BREP('Coin Bin  Rail',#164);
#174=SHAPE_DEFINITION_REPRESENTATION(#284,#175);
#175=SHAPE_REPRESENTATION('Coin Bin  Rail',(#176),#279);
#176=AXIS2_PLACEMENT_3D('',#234,#190,#191);
#177=AXIS2_PLACEMENT_3D('',#235,#192,#193);
#178=AXIS2_PLACEMENT_3D('',#248,#200,#201);
#179=AXIS2_PLACEMENT_3D('',#249,#202,#203);
#180=AXIS2_PLACEMENT_3D('',#253,#205,#206);
#181=AXIS2_PLACEMENT_3D('',#254,#207,#208);
#182=AXIS2_PLACEMENT_3D('',#264,#214,#215);
#183=AXIS2_PLACEMENT_3D('',#265,#216,#217);
#184=AXIS2_PLACEMENT_3D('',#267,#218,#219);
#185=AXIS2_PLACEMENT_3D('',#269,#220,#221);
#186=AXIS2_PLACEMENT_3D('',#272,#224,#225);
#187=AXIS2_PLACEMENT_3D('',#273,#226,#227);
#188=AXIS2_PLACEMENT_3D('',#276,#230,#231);
#189=AXIS2_PLACEMENT_3D('',#277,#232,#233);
#190=DIRECTION('',(0.,0.,1.));
#191=DIRECTION('',(1.,0.,0.));
#192=DIRECTION('',(-1.,0.,0.));
#193=DIRECTION('',(0.,0.,1.));
#194=DIRECTION('',(0.,-1.,0.));
#195=DIRECTION('',(0.,0.,1.));
#196=DIRECTION('',(0.,-1.,0.));
#197=DIRECTION('',(0.,0.,1.));
#198=DIRECTION('',(0.,-1.,0.));
#199=DIRECTION('',(0.,0.,1.));
#200=DIRECTION('',(0.,0.,1.));
#201=DIRECTION('',(1.,0.,0.));
#202=DIRECTION('',(0.,0.,-1.));
#203=DIRECTION('',(-1.,0.,0.));
#204=DIRECTION('',(0.,0.,1.));
#205=DIRECTION('',(0.,0.,-1.));
#206=DIRECTION('',(-1.,0.,0.));
#207=DIRECTION('',(-1.,0.,0.));
#208=DIRECTION('',(0.,0.,1.));
#209=DIRECTION('',(0.,-1.,0.));
#210=DIRECTION('',(0.,0.,1.));
#211=DIRECTION('',(0.,-1.,0.));
#212=DIRECTION('',(0.,0.,1.));
#213=DIRECTION('',(0.,-1.,0.));
#214=DIRECTION('',(0.,0.,1.));
#215=DIRECTION('',(1.,0.,0.));
#216=DIRECTION('',(0.,0.,-1.));
#217=DIRECTION('',(-1.,0.,0.));
#218=DIRECTION('',(0.,0.,-1.));
#219=DIRECTION('',(-1.,0.,0.));
#220=DIRECTION('',(0.,-1.,0.));
#221=DIRECTION('',(0.,0.,-1.));
#222=DIRECTION('',(1.,0.,0.));
#223=DIRECTION('',(1.,0.,0.));
#224=DIRECTION('',(0.,0.,-1.));
#225=DIRECTION('',(1.,0.,0.));
#226=DIRECTION('',(0.,-1.,0.));
#227=DIRECTION('',(0.,0.,-1.));
#228=DIRECTION('',(1.,0.,0.));
#229=DIRECTION('',(1.,0.,0.));
#230=DIRECTION('',(0.,0.,-1.));
#231=DIRECTION('',(1.,0.,0.));
#232=DIRECTION('',(0.,0.,-1.));
#233=DIRECTION('',(1.,0.,0.));
#234=CARTESIAN_POINT('',(0.,0.,0.));
#235=CARTESIAN_POINT('',(0.01,0.071276893478227,-0.0182363577485085));
#236=CARTESIAN_POINT('',(0.01,0.071276893478227,0.0277636422514916));
#237=CARTESIAN_POINT('',(0.01,0.074276893478227,0.0277636422514916));
#238=CARTESIAN_POINT('',(0.01,0.068276893478227,0.0277636422514916));
#239=CARTESIAN_POINT('',(0.01,0.074276893478227,-0.0182363577485085));
#240=CARTESIAN_POINT('',(0.01,0.074276893478227,-0.0202363577485084));
#241=CARTESIAN_POINT('',(0.01,0.071276893478227,-0.0202363577485084));
#242=CARTESIAN_POINT('',(0.01,0.043276893478227,-0.0202363577485084));
#243=CARTESIAN_POINT('',(0.01,0.043276893478227,-0.0202363577485084));
#244=CARTESIAN_POINT('',(0.01,0.043276893478227,-0.0182363577485085));
#245=CARTESIAN_POINT('',(0.01,0.071276893478227,-0.0182363577485085));
#246=CARTESIAN_POINT('',(0.01,0.068276893478227,-0.0182363577485085));
#247=CARTESIAN_POINT('',(0.01,0.068276893478227,-0.0182363577485085));
#248=CARTESIAN_POINT('',(0.015,0.074276893478227,-0.0182363577485085));
#249=CARTESIAN_POINT('',(0.015,0.074276893478227,0.0277636422514916));
#250=CARTESIAN_POINT('',(0.02,0.074276893478227,0.0277636422514916));
#251=CARTESIAN_POINT('',(0.02,0.074276893478227,-0.0182363577485085));
#252=CARTESIAN_POINT('',(0.02,0.074276893478227,-0.0202363577485084));
#253=CARTESIAN_POINT('',(0.015,0.074276893478227,-0.0202363577485084));
#254=CARTESIAN_POINT('',(0.02,0.071276893478227,-0.0182363577485085));
#255=CARTESIAN_POINT('',(0.02,0.071276893478227,0.0277636422514916));
#256=CARTESIAN_POINT('',(0.02,0.068276893478227,0.0277636422514916));
#257=CARTESIAN_POINT('',(0.02,0.068276893478227,-0.0182363577485085));
#258=CARTESIAN_POINT('',(0.02,0.068276893478227,-0.0182363577485085));
#259=CARTESIAN_POINT('',(0.02,0.071276893478227,-0.0182363577485085));
#260=CARTESIAN_POINT('',(0.02,0.043276893478227,-0.0182363577485085));
#261=CARTESIAN_POINT('',(0.02,0.043276893478227,-0.0202363577485084));
#262=CARTESIAN_POINT('',(0.02,0.043276893478227,-0.0202363577485084));
#263=CARTESIAN_POINT('',(0.02,0.071276893478227,-0.0202363577485084));
#264=CARTESIAN_POINT('',(0.015,0.074276893478227,-0.0182363577485085));
#265=CARTESIAN_POINT('',(0.015,0.074276893478227,0.0277636422514916));
#266=CARTESIAN_POINT('',(0.013,0.074276893478227,0.0277636422514916));
#267=CARTESIAN_POINT('',(0.015,0.074276893478227,-0.0202363577485084));
#268=CARTESIAN_POINT('',(0.013,0.074276893478227,-0.0202363577485084));
#269=CARTESIAN_POINT('',(0.0125,0.068276893478227,-0.0182363577485085));
#270=CARTESIAN_POINT('',(0.0125,0.068276893478227,0.0277636422514916));
#271=CARTESIAN_POINT('',(0.0125,0.068276893478227,-0.0182363577485085));
#272=CARTESIAN_POINT('',(0.0135,0.03613961537425,0.0277636422514916));
#273=CARTESIAN_POINT('',(0.015,0.043276893478227,-0.0202363577485084));
#274=CARTESIAN_POINT('',(0.015,0.043276893478227,-0.0182363577485085));
#275=CARTESIAN_POINT('',(0.015,0.043276893478227,-0.0202363577485084));
#276=CARTESIAN_POINT('',(0.015,0.061276893478227,-0.0202363577485084));
#277=CARTESIAN_POINT('',(0.015,0.061276893478227,-0.0182363577485085));
#278=MECHANICAL_DESIGN_GEOMETRIC_PRESENTATION_REPRESENTATION('',(#165),
#279);
#279=(
GEOMETRIC_REPRESENTATION_CONTEXT(3)
GLOBAL_UNCERTAINTY_ASSIGNED_CONTEXT((#280))
GLOBAL_UNIT_ASSIGNED_CONTEXT((#283,#282,#281))
REPRESENTATION_CONTEXT('Coin Bin  Rail','TOP_LEVEL_ASSEMBLY_PART')
);
#280=UNCERTAINTY_MEASURE_WITH_UNIT(LENGTH_MEASURE(1.E-8),#283,
'DISTANCE_ACCURACY_VALUE','Maximum Tolerance applied to model');
#281=(
NAMED_UNIT(*)
SI_UNIT($,.STERADIAN.)
SOLID_ANGLE_UNIT()
);
#282=(
NAMED_UNIT(*)
PLANE_ANGLE_UNIT()
SI_UNIT($,.RADIAN.)
);
#283=(
LENGTH_UNIT()
NAMED_UNIT(*)
SI_UNIT($,.METRE.)
);
#284=PRODUCT_DEFINITION_SHAPE('','',#285);
#285=PRODUCT_DEFINITION('','',#287,#286);
#286=PRODUCT_DEFINITION_CONTEXT('',#293,'design');
#287=PRODUCT_DEFINITION_FORMATION_WITH_SPECIFIED_SOURCE('','',#289,
 .NOT_KNOWN.);
#288=PRODUCT_RELATED_PRODUCT_CATEGORY('','',(#289));
#289=PRODUCT('Coin Bin  Rail','Coin Bin  Rail','Coin Bin  Rail',(#291));
#290=PRODUCT_CATEGORY('','');
#291=PRODUCT_CONTEXT('',#293,'mechanical');
#292=APPLICATION_PROTOCOL_DEFINITION('international standard',
'ap242_managed_model_based_3d_engineering',2020,#293);
#293=APPLICATION_CONTEXT('managed model based 3d engineering');
ENDSEC;
END-ISO-10303-21;
