ISO-10303-21;
HEADER;
/* Generated by software containing ST-Developer
 * from STEP Tools, Inc. (www.steptools.com) 
 */
/* OPTION: using custom renumber hook */

FILE_DESCRIPTION(
/* description */ ('STEP AP242 Edition 2',
'CAx-IF Rec.Pracs.---Representation and Presentation of Product Manufa
cturing Information (PMI)---4.0---2014-10-13',
'CAx-IF Rec.Pracs.---3D Tessellated Geometry---0.4---2014-09-14','2;1',
'CAx-IF Rec.Pracs.---User Defined Attributes---1.5---2016-08-15'),
/* implementation_level */ '2;1');

FILE_NAME(
/* name */ 'Assembly 1 - Back Wall',
/* time_stamp */ '2026-07-14T16:54:41Z',
/* author */ (''),
/* organization */ (''),
/* preprocessor_version */ 'ST-DEVELOPER v20',
/* originating_system */ 'ONSHAPE BY PTC INC, 1.217',
/* authorisation */ '  ');

FILE_SCHEMA (('AP242_MANAGED_MODEL_BASED_3D_ENGINEERING_MIM_LF { 1 0 10303 442 3 1 4 }'));
ENDSEC;

DATA;
#10=SHAPE_REPRESENTATION_RELATIONSHIP('','',#295,#11);
#11=ADVANCED_BREP_SHAPE_REPRESENTATION('',(#293),#483);
#12=CIRCLE('',#301,0.0025);
#13=CIRCLE('',#302,0.0025);
#14=CIRCLE('',#304,0.0025);
#15=CIRCLE('',#305,0.0025);
#16=CIRCLE('',#307,0.0025);
#17=CIRCLE('',#308,0.0025);
#18=CIRCLE('',#310,0.0025);
#19=CIRCLE('',#311,0.0025);
#20=CIRCLE('',#313,0.0025);
#21=CIRCLE('',#314,0.0025);
#22=CIRCLE('',#316,0.0025);
#23=CIRCLE('',#317,0.0025);
#24=CIRCLE('',#319,0.0025);
#25=CIRCLE('',#320,0.0025);
#26=CIRCLE('',#322,0.0025);
#27=CIRCLE('',#323,0.0025);
#28=CIRCLE('',#326,0.0025);
#29=CIRCLE('',#327,0.0025);
#30=CYLINDRICAL_SURFACE('',#300,0.0025);
#31=CYLINDRICAL_SURFACE('',#303,0.0025);
#32=CYLINDRICAL_SURFACE('',#306,0.0025);
#33=CYLINDRICAL_SURFACE('',#309,0.0025);
#34=CYLINDRICAL_SURFACE('',#312,0.0025);
#35=CYLINDRICAL_SURFACE('',#315,0.0025);
#36=CYLINDRICAL_SURFACE('',#318,0.0025);
#37=CYLINDRICAL_SURFACE('',#321,0.0025);
#38=CYLINDRICAL_SURFACE('',#325,0.0025);
#39=ORIENTED_EDGE('',*,*,#99,.F.);
#40=ORIENTED_EDGE('',*,*,#100,.F.);
#41=ORIENTED_EDGE('',*,*,#101,.T.);
#42=ORIENTED_EDGE('',*,*,#102,.T.);
#43=ORIENTED_EDGE('',*,*,#103,.F.);
#44=ORIENTED_EDGE('',*,*,#104,.F.);
#45=ORIENTED_EDGE('',*,*,#105,.T.);
#46=ORIENTED_EDGE('',*,*,#100,.T.);
#47=ORIENTED_EDGE('',*,*,#106,.T.);
#48=ORIENTED_EDGE('',*,*,#107,.F.);
#49=ORIENTED_EDGE('',*,*,#108,.F.);
#50=ORIENTED_EDGE('',*,*,#104,.T.);
#51=ORIENTED_EDGE('',*,*,#109,.T.);
#52=ORIENTED_EDGE('',*,*,#110,.F.);
#53=ORIENTED_EDGE('',*,*,#111,.T.);
#54=ORIENTED_EDGE('',*,*,#112,.F.);
#55=ORIENTED_EDGE('',*,*,#113,.T.);
#56=ORIENTED_EDGE('',*,*,#114,.F.);
#57=ORIENTED_EDGE('',*,*,#115,.T.);
#58=ORIENTED_EDGE('',*,*,#116,.F.);
#59=ORIENTED_EDGE('',*,*,#117,.T.);
#60=ORIENTED_EDGE('',*,*,#118,.F.);
#61=ORIENTED_EDGE('',*,*,#119,.T.);
#62=ORIENTED_EDGE('',*,*,#120,.F.);
#63=ORIENTED_EDGE('',*,*,#121,.T.);
#64=ORIENTED_EDGE('',*,*,#122,.F.);
#65=ORIENTED_EDGE('',*,*,#123,.T.);
#66=ORIENTED_EDGE('',*,*,#124,.F.);
#67=ORIENTED_EDGE('',*,*,#125,.F.);
#68=ORIENTED_EDGE('',*,*,#102,.F.);
#69=ORIENTED_EDGE('',*,*,#126,.T.);
#70=ORIENTED_EDGE('',*,*,#107,.T.);
#71=ORIENTED_EDGE('',*,*,#127,.T.);
#72=ORIENTED_EDGE('',*,*,#128,.F.);
#73=ORIENTED_EDGE('',*,*,#101,.F.);
#74=ORIENTED_EDGE('',*,*,#105,.F.);
#75=ORIENTED_EDGE('',*,*,#108,.T.);
#76=ORIENTED_EDGE('',*,*,#126,.F.);
#77=ORIENTED_EDGE('',*,*,#123,.F.);
#78=ORIENTED_EDGE('',*,*,#121,.F.);
#79=ORIENTED_EDGE('',*,*,#119,.F.);
#80=ORIENTED_EDGE('',*,*,#117,.F.);
#81=ORIENTED_EDGE('',*,*,#115,.F.);
#82=ORIENTED_EDGE('',*,*,#113,.F.);
#83=ORIENTED_EDGE('',*,*,#111,.F.);
#84=ORIENTED_EDGE('',*,*,#109,.F.);
#85=ORIENTED_EDGE('',*,*,#127,.F.);
#86=ORIENTED_EDGE('',*,*,#99,.T.);
#87=ORIENTED_EDGE('',*,*,#125,.T.);
#88=ORIENTED_EDGE('',*,*,#106,.F.);
#89=ORIENTED_EDGE('',*,*,#103,.T.);
#90=ORIENTED_EDGE('',*,*,#124,.T.);
#91=ORIENTED_EDGE('',*,*,#122,.T.);
#92=ORIENTED_EDGE('',*,*,#120,.T.);
#93=ORIENTED_EDGE('',*,*,#118,.T.);
#94=ORIENTED_EDGE('',*,*,#116,.T.);
#95=ORIENTED_EDGE('',*,*,#114,.T.);
#96=ORIENTED_EDGE('',*,*,#112,.T.);
#97=ORIENTED_EDGE('',*,*,#110,.T.);
#98=ORIENTED_EDGE('',*,*,#128,.T.);
#99=EDGE_CURVE('',#129,#130,#155,.T.);
#100=EDGE_CURVE('',#131,#129,#156,.T.);
#101=EDGE_CURVE('',#131,#132,#157,.T.);
#102=EDGE_CURVE('',#132,#130,#158,.T.);
#103=EDGE_CURVE('',#133,#129,#159,.T.);
#104=EDGE_CURVE('',#134,#133,#160,.T.);
#105=EDGE_CURVE('',#134,#131,#161,.T.);
#106=EDGE_CURVE('',#133,#135,#162,.T.);
#107=EDGE_CURVE('',#136,#135,#163,.T.);
#108=EDGE_CURVE('',#134,#136,#164,.T.);
#109=EDGE_CURVE('',#137,#137,#12,.T.);
#110=EDGE_CURVE('',#138,#138,#13,.T.);
#111=EDGE_CURVE('',#139,#139,#14,.T.);
#112=EDGE_CURVE('',#140,#140,#15,.T.);
#113=EDGE_CURVE('',#141,#141,#16,.T.);
#114=EDGE_CURVE('',#142,#142,#17,.T.);
#115=EDGE_CURVE('',#143,#143,#18,.T.);
#116=EDGE_CURVE('',#144,#144,#19,.T.);
#117=EDGE_CURVE('',#145,#145,#20,.T.);
#118=EDGE_CURVE('',#146,#146,#21,.T.);
#119=EDGE_CURVE('',#147,#147,#22,.T.);
#120=EDGE_CURVE('',#148,#148,#23,.T.);
#121=EDGE_CURVE('',#149,#149,#24,.T.);
#122=EDGE_CURVE('',#150,#150,#25,.T.);
#123=EDGE_CURVE('',#151,#151,#26,.T.);
#124=EDGE_CURVE('',#152,#152,#27,.T.);
#125=EDGE_CURVE('',#130,#135,#165,.T.);
#126=EDGE_CURVE('',#132,#136,#166,.T.);
#127=EDGE_CURVE('',#153,#153,#28,.T.);
#128=EDGE_CURVE('',#154,#154,#29,.T.);
#129=VERTEX_POINT('',#413);
#130=VERTEX_POINT('',#414);
#131=VERTEX_POINT('',#416);
#132=VERTEX_POINT('',#418);
#133=VERTEX_POINT('',#422);
#134=VERTEX_POINT('',#424);
#135=VERTEX_POINT('',#428);
#136=VERTEX_POINT('',#430);
#137=VERTEX_POINT('',#434);
#138=VERTEX_POINT('',#436);
#139=VERTEX_POINT('',#439);
#140=VERTEX_POINT('',#441);
#141=VERTEX_POINT('',#444);
#142=VERTEX_POINT('',#446);
#143=VERTEX_POINT('',#449);
#144=VERTEX_POINT('',#451);
#145=VERTEX_POINT('',#454);
#146=VERTEX_POINT('',#456);
#147=VERTEX_POINT('',#459);
#148=VERTEX_POINT('',#461);
#149=VERTEX_POINT('',#464);
#150=VERTEX_POINT('',#466);
#151=VERTEX_POINT('',#469);
#152=VERTEX_POINT('',#471);
#153=VERTEX_POINT('',#477);
#154=VERTEX_POINT('',#479);
#155=LINE('',#412,#167);
#156=LINE('',#415,#168);
#157=LINE('',#417,#169);
#158=LINE('',#419,#170);
#159=LINE('',#421,#171);
#160=LINE('',#423,#172);
#161=LINE('',#425,#173);
#162=LINE('',#427,#174);
#163=LINE('',#429,#175);
#164=LINE('',#431,#176);
#165=LINE('',#473,#177);
#166=LINE('',#474,#178);
#167=VECTOR('',#334,1.);
#168=VECTOR('',#335,1.);
#169=VECTOR('',#336,1.);
#170=VECTOR('',#337,1.);
#171=VECTOR('',#340,1.);
#172=VECTOR('',#341,1.);
#173=VECTOR('',#342,1.);
#174=VECTOR('',#345,1.);
#175=VECTOR('',#346,1.);
#176=VECTOR('',#347,1.);
#177=VECTOR('',#398,1.);
#178=VECTOR('',#399,1.);
#179=EDGE_LOOP('',(#39,#40,#41,#42));
#180=EDGE_LOOP('',(#43,#44,#45,#46));
#181=EDGE_LOOP('',(#47,#48,#49,#50));
#182=EDGE_LOOP('',(#51));
#183=EDGE_LOOP('',(#52));
#184=EDGE_LOOP('',(#53));
#185=EDGE_LOOP('',(#54));
#186=EDGE_LOOP('',(#55));
#187=EDGE_LOOP('',(#56));
#188=EDGE_LOOP('',(#57));
#189=EDGE_LOOP('',(#58));
#190=EDGE_LOOP('',(#59));
#191=EDGE_LOOP('',(#60));
#192=EDGE_LOOP('',(#61));
#193=EDGE_LOOP('',(#62));
#194=EDGE_LOOP('',(#63));
#195=EDGE_LOOP('',(#64));
#196=EDGE_LOOP('',(#65));
#197=EDGE_LOOP('',(#66));
#198=EDGE_LOOP('',(#67,#68,#69,#70));
#199=EDGE_LOOP('',(#71));
#200=EDGE_LOOP('',(#72));
#201=EDGE_LOOP('',(#73,#74,#75,#76));
#202=EDGE_LOOP('',(#77));
#203=EDGE_LOOP('',(#78));
#204=EDGE_LOOP('',(#79));
#205=EDGE_LOOP('',(#80));
#206=EDGE_LOOP('',(#81));
#207=EDGE_LOOP('',(#82));
#208=EDGE_LOOP('',(#83));
#209=EDGE_LOOP('',(#84));
#210=EDGE_LOOP('',(#85));
#211=EDGE_LOOP('',(#86,#87,#88,#89));
#212=EDGE_LOOP('',(#90));
#213=EDGE_LOOP('',(#91));
#214=EDGE_LOOP('',(#92));
#215=EDGE_LOOP('',(#93));
#216=EDGE_LOOP('',(#94));
#217=EDGE_LOOP('',(#95));
#218=EDGE_LOOP('',(#96));
#219=EDGE_LOOP('',(#97));
#220=EDGE_LOOP('',(#98));
#221=FACE_BOUND('',#179,.T.);
#222=FACE_BOUND('',#180,.T.);
#223=FACE_BOUND('',#181,.T.);
#224=FACE_BOUND('',#182,.T.);
#225=FACE_BOUND('',#183,.T.);
#226=FACE_BOUND('',#184,.T.);
#227=FACE_BOUND('',#185,.T.);
#228=FACE_BOUND('',#186,.T.);
#229=FACE_BOUND('',#187,.T.);
#230=FACE_BOUND('',#188,.T.);
#231=FACE_BOUND('',#189,.T.);
#232=FACE_BOUND('',#190,.T.);
#233=FACE_BOUND('',#191,.T.);
#234=FACE_BOUND('',#192,.T.);
#235=FACE_BOUND('',#193,.T.);
#236=FACE_BOUND('',#194,.T.);
#237=FACE_BOUND('',#195,.T.);
#238=FACE_BOUND('',#196,.T.);
#239=FACE_BOUND('',#197,.T.);
#240=FACE_BOUND('',#198,.T.);
#241=FACE_BOUND('',#199,.T.);
#242=FACE_BOUND('',#200,.T.);
#243=FACE_BOUND('',#201,.T.);
#244=FACE_BOUND('',#202,.T.);
#245=FACE_BOUND('',#203,.T.);
#246=FACE_BOUND('',#204,.T.);
#247=FACE_BOUND('',#205,.T.);
#248=FACE_BOUND('',#206,.T.);
#249=FACE_BOUND('',#207,.T.);
#250=FACE_BOUND('',#208,.T.);
#251=FACE_BOUND('',#209,.T.);
#252=FACE_BOUND('',#210,.T.);
#253=FACE_BOUND('',#211,.T.);
#254=FACE_BOUND('',#212,.T.);
#255=FACE_BOUND('',#213,.T.);
#256=FACE_BOUND('',#214,.T.);
#257=FACE_BOUND('',#215,.T.);
#258=FACE_BOUND('',#216,.T.);
#259=FACE_BOUND('',#217,.T.);
#260=FACE_BOUND('',#218,.T.);
#261=FACE_BOUND('',#219,.T.);
#262=FACE_BOUND('',#220,.T.);
#263=PLANE('',#297);
#264=PLANE('',#298);
#265=PLANE('',#299);
#266=PLANE('',#324);
#267=PLANE('',#328);
#268=PLANE('',#329);
#269=ADVANCED_FACE('',(#221),#263,.T.);
#270=ADVANCED_FACE('',(#222),#264,.T.);
#271=ADVANCED_FACE('',(#223),#265,.F.);
#272=ADVANCED_FACE('',(#224,#225),#30,.F.);
#273=ADVANCED_FACE('',(#226,#227),#31,.F.);
#274=ADVANCED_FACE('',(#228,#229),#32,.F.);
#275=ADVANCED_FACE('',(#230,#231),#33,.F.);
#276=ADVANCED_FACE('',(#232,#233),#34,.F.);
#277=ADVANCED_FACE('',(#234,#235),#35,.F.);
#278=ADVANCED_FACE('',(#236,#237),#36,.F.);
#279=ADVANCED_FACE('',(#238,#239),#37,.F.);
#280=ADVANCED_FACE('',(#240),#266,.T.);
#281=ADVANCED_FACE('',(#241,#242),#38,.F.);
#282=ADVANCED_FACE('',(#243,#244,#245,#246,#247,#248,#249,#250,#251,#252),
#267,.T.);
#283=ADVANCED_FACE('',(#253,#254,#255,#256,#257,#258,#259,#260,#261,#262),
#268,.F.);
#284=CLOSED_SHELL('',(#269,#270,#271,#272,#273,#274,#275,#276,#277,#278,
#279,#280,#281,#282,#283));
#285=STYLED_ITEM('',(#286),#293);
#286=PRESENTATION_STYLE_ASSIGNMENT((#287));
#287=SURFACE_STYLE_USAGE(.BOTH.,#288);
#288=SURFACE_SIDE_STYLE('',(#289));
#289=SURFACE_STYLE_FILL_AREA(#290);
#290=FILL_AREA_STYLE('',(#291));
#291=FILL_AREA_STYLE_COLOUR('',#292);
#292=COLOUR_RGB('',0.8,0.776470588235294,0.713725490196078);
#293=MANIFOLD_SOLID_BREP('Back Wall',#284);
#294=SHAPE_DEFINITION_REPRESENTATION(#488,#295);
#295=SHAPE_REPRESENTATION('Back Wall',(#296),#483);
#296=AXIS2_PLACEMENT_3D('',#410,#330,#331);
#297=AXIS2_PLACEMENT_3D('',#411,#332,#333);
#298=AXIS2_PLACEMENT_3D('',#420,#338,#339);
#299=AXIS2_PLACEMENT_3D('',#426,#343,#344);
#300=AXIS2_PLACEMENT_3D('',#432,#348,#349);
#301=AXIS2_PLACEMENT_3D('',#433,#350,#351);
#302=AXIS2_PLACEMENT_3D('',#435,#352,#353);
#303=AXIS2_PLACEMENT_3D('',#437,#354,#355);
#304=AXIS2_PLACEMENT_3D('',#438,#356,#357);
#305=AXIS2_PLACEMENT_3D('',#440,#358,#359);
#306=AXIS2_PLACEMENT_3D('',#442,#360,#361);
#307=AXIS2_PLACEMENT_3D('',#443,#362,#363);
#308=AXIS2_PLACEMENT_3D('',#445,#364,#365);
#309=AXIS2_PLACEMENT_3D('',#447,#366,#367);
#310=AXIS2_PLACEMENT_3D('',#448,#368,#369);
#311=AXIS2_PLACEMENT_3D('',#450,#370,#371);
#312=AXIS2_PLACEMENT_3D('',#452,#372,#373);
#313=AXIS2_PLACEMENT_3D('',#453,#374,#375);
#314=AXIS2_PLACEMENT_3D('',#455,#376,#377);
#315=AXIS2_PLACEMENT_3D('',#457,#378,#379);
#316=AXIS2_PLACEMENT_3D('',#458,#380,#381);
#317=AXIS2_PLACEMENT_3D('',#460,#382,#383);
#318=AXIS2_PLACEMENT_3D('',#462,#384,#385);
#319=AXIS2_PLACEMENT_3D('',#463,#386,#387);
#320=AXIS2_PLACEMENT_3D('',#465,#388,#389);
#321=AXIS2_PLACEMENT_3D('',#467,#390,#391);
#322=AXIS2_PLACEMENT_3D('',#468,#392,#393);
#323=AXIS2_PLACEMENT_3D('',#470,#394,#395);
#324=AXIS2_PLACEMENT_3D('',#472,#396,#397);
#325=AXIS2_PLACEMENT_3D('',#475,#400,#401);
#326=AXIS2_PLACEMENT_3D('',#476,#402,#403);
#327=AXIS2_PLACEMENT_3D('',#478,#404,#405);
#328=AXIS2_PLACEMENT_3D('',#480,#406,#407);
#329=AXIS2_PLACEMENT_3D('',#481,#408,#409);
#330=DIRECTION('',(0.,0.,1.));
#331=DIRECTION('',(1.,0.,0.));
#332=DIRECTION('',(-1.,0.,0.));
#333=DIRECTION('',(0.,0.,1.));
#334=DIRECTION('',(0.,-2.78412409724673E-16,1.));
#335=DIRECTION('',(0.,1.,2.78412409724673E-16));
#336=DIRECTION('',(0.,-2.78412409724673E-16,1.));
#337=DIRECTION('',(0.,1.,2.78412409724673E-16));
#338=DIRECTION('',(0.,2.78412409724673E-16,-1.));
#339=DIRECTION('',(0.,1.,2.78412409724673E-16));
#340=DIRECTION('',(-1.,0.,0.));
#341=DIRECTION('',(0.,1.,2.78412409724673E-16));
#342=DIRECTION('',(-1.,0.,0.));
#343=DIRECTION('',(-1.,0.,0.));
#344=DIRECTION('',(0.,0.,1.));
#345=DIRECTION('',(0.,-2.78412409724673E-16,1.));
#346=DIRECTION('',(0.,1.,2.78412409724673E-16));
#347=DIRECTION('',(0.,-2.78412409724673E-16,1.));
#348=DIRECTION('',(0.,1.,2.78412409724673E-16));
#349=DIRECTION('',(0.,-2.78412409724673E-16,1.));
#350=DIRECTION('',(0.,-1.,-2.78412409724673E-16));
#351=DIRECTION('',(0.,2.78412409724673E-16,-1.));
#352=DIRECTION('',(0.,-1.,-2.78412409724673E-16));
#353=DIRECTION('',(0.,2.78412409724673E-16,-1.));
#354=DIRECTION('',(0.,1.,2.78412409724673E-16));
#355=DIRECTION('',(0.,-2.78412409724673E-16,1.));
#356=DIRECTION('',(0.,-1.,-2.78412409724673E-16));
#357=DIRECTION('',(0.,2.78412409724673E-16,-1.));
#358=DIRECTION('',(0.,-1.,-2.78412409724673E-16));
#359=DIRECTION('',(0.,2.78412409724673E-16,-1.));
#360=DIRECTION('',(0.,1.,2.78412409724673E-16));
#361=DIRECTION('',(0.,-2.78412409724673E-16,1.));
#362=DIRECTION('',(0.,-1.,-2.78412409724673E-16));
#363=DIRECTION('',(0.,2.78412409724673E-16,-1.));
#364=DIRECTION('',(0.,-1.,-2.78412409724673E-16));
#365=DIRECTION('',(0.,2.78412409724673E-16,-1.));
#366=DIRECTION('',(0.,1.,2.78412409724673E-16));
#367=DIRECTION('',(0.,-2.78412409724673E-16,1.));
#368=DIRECTION('',(0.,-1.,-2.78412409724673E-16));
#369=DIRECTION('',(0.,2.78412409724673E-16,-1.));
#370=DIRECTION('',(0.,-1.,-2.78412409724673E-16));
#371=DIRECTION('',(0.,2.78412409724673E-16,-1.));
#372=DIRECTION('',(0.,1.,2.78412409724673E-16));
#373=DIRECTION('',(0.,-2.78412409724673E-16,1.));
#374=DIRECTION('',(0.,-1.,-2.78412409724673E-16));
#375=DIRECTION('',(0.,2.78412409724673E-16,-1.));
#376=DIRECTION('',(0.,-1.,-2.78412409724673E-16));
#377=DIRECTION('',(0.,2.78412409724673E-16,-1.));
#378=DIRECTION('',(0.,1.,2.78412409724673E-16));
#379=DIRECTION('',(0.,-2.78412409724673E-16,1.));
#380=DIRECTION('',(0.,-1.,-2.78412409724673E-16));
#381=DIRECTION('',(0.,2.78412409724673E-16,-1.));
#382=DIRECTION('',(0.,-1.,-2.78412409724673E-16));
#383=DIRECTION('',(0.,2.78412409724673E-16,-1.));
#384=DIRECTION('',(0.,1.,2.78412409724673E-16));
#385=DIRECTION('',(0.,-2.78412409724673E-16,1.));
#386=DIRECTION('',(0.,-1.,-2.78412409724673E-16));
#387=DIRECTION('',(0.,2.78412409724673E-16,-1.));
#388=DIRECTION('',(0.,-1.,-2.78412409724673E-16));
#389=DIRECTION('',(0.,2.78412409724673E-16,-1.));
#390=DIRECTION('',(0.,1.,2.78412409724673E-16));
#391=DIRECTION('',(0.,-2.78412409724673E-16,1.));
#392=DIRECTION('',(0.,-1.,-2.78412409724673E-16));
#393=DIRECTION('',(0.,2.78412409724673E-16,-1.));
#394=DIRECTION('',(0.,-1.,-2.78412409724673E-16));
#395=DIRECTION('',(0.,2.78412409724673E-16,-1.));
#396=DIRECTION('',(0.,-2.78412409724673E-16,1.));
#397=DIRECTION('',(0.,-1.,-2.78412409724673E-16));
#398=DIRECTION('',(1.,0.,0.));
#399=DIRECTION('',(1.,0.,0.));
#400=DIRECTION('',(0.,1.,2.78412409724673E-16));
#401=DIRECTION('',(0.,-2.78412409724673E-16,1.));
#402=DIRECTION('',(0.,-1.,-2.78412409724673E-16));
#403=DIRECTION('',(0.,2.78412409724673E-16,-1.));
#404=DIRECTION('',(0.,-1.,-2.78412409724673E-16));
#405=DIRECTION('',(0.,2.78412409724673E-16,-1.));
#406=DIRECTION('',(0.,-1.,-2.78412409724673E-16));
#407=DIRECTION('',(1.,0.,0.));
#408=DIRECTION('',(0.,-1.,-2.78412409724673E-16));
#409=DIRECTION('',(1.,0.,0.));
#410=CARTESIAN_POINT('',(0.,0.,0.));
#411=CARTESIAN_POINT('',(-0.009,-0.0133999768644571,0.0327636422514915));
#412=CARTESIAN_POINT('',(-0.009,-0.00939997686445713,0.0327636422514915));
#413=CARTESIAN_POINT('',(-0.009,-0.0093999768644571,-0.0572363577485084));
#414=CARTESIAN_POINT('',(-0.009,-0.00939997686445715,0.122763642251492));
#415=CARTESIAN_POINT('',(-0.009,-0.0133999768644571,-0.0572363577485084));
#416=CARTESIAN_POINT('',(-0.009,-0.0133999768644571,-0.0572363577485084));
#417=CARTESIAN_POINT('',(-0.009,-0.0133999768644571,0.0327636422514915));
#418=CARTESIAN_POINT('',(-0.009,-0.0133999768644571,0.122763642251492));
#419=CARTESIAN_POINT('',(-0.009,-0.0133999768644571,0.122763642251492));
#420=CARTESIAN_POINT('',(-0.013,-0.0133999768644571,-0.0572363577485084));
#421=CARTESIAN_POINT('',(-0.013,-0.0093999768644571,-0.0572363577485084));
#422=CARTESIAN_POINT('',(0.09,-0.0093999768644571,-0.0572363577485084));
#423=CARTESIAN_POINT('',(0.09,-0.0133999768644571,-0.0572363577485084));
#424=CARTESIAN_POINT('',(0.09,-0.0133999768644571,-0.0572363577485084));
#425=CARTESIAN_POINT('',(-0.013,-0.0133999768644571,-0.0572363577485084));
#426=CARTESIAN_POINT('',(0.0900000009377098,-0.0133999768644571,0.0327636422514915));
#427=CARTESIAN_POINT('',(0.0900000009377098,-0.00939997686445713,0.0327636422514915));
#428=CARTESIAN_POINT('',(0.0900000009377098,-0.00939997686445715,0.122763642251492));
#429=CARTESIAN_POINT('',(0.0900000009377098,-0.0133999768644571,0.122763642251492));
#430=CARTESIAN_POINT('',(0.0900000009377098,-0.0133999768644571,0.122763642251492));
#431=CARTESIAN_POINT('',(0.0900000009377098,-0.0133999768644571,0.0327636422514915));
#432=CARTESIAN_POINT('',(0.0839543704688549,-0.0133999768644571,-0.0472363577485085));
#433=CARTESIAN_POINT('',(0.0839543704688549,-0.0133999768644571,-0.0472363577485085));
#434=CARTESIAN_POINT('',(0.0839543704688549,-0.0133999768644571,-0.0497363577485085));
#435=CARTESIAN_POINT('',(0.0839543704688549,-0.0093999768644571,-0.0472363577485085));
#436=CARTESIAN_POINT('',(0.0839543704688549,-0.0093999768644571,-0.0497363577485085));
#437=CARTESIAN_POINT('',(0.0629087409377098,-0.0133999768644571,0.0262636422514916));
#438=CARTESIAN_POINT('',(0.0629087409377098,-0.0133999768644571,0.0262636422514916));
#439=CARTESIAN_POINT('',(0.0629087409377098,-0.0133999768644571,0.0237636422514916));
#440=CARTESIAN_POINT('',(0.0629087409377098,-0.00939997686445712,0.0262636422514916));
#441=CARTESIAN_POINT('',(0.0629087409377098,-0.00939997686445712,0.0237636422514916));
#442=CARTESIAN_POINT('',(0.0629087409377098,-0.0133999768644571,-0.0472363577485085));
#443=CARTESIAN_POINT('',(0.0629087409377098,-0.0133999768644571,-0.0472363577485085));
#444=CARTESIAN_POINT('',(0.0629087409377098,-0.0133999768644571,-0.0497363577485085));
#445=CARTESIAN_POINT('',(0.0629087409377098,-0.0093999768644571,-0.0472363577485085));
#446=CARTESIAN_POINT('',(0.0629087409377098,-0.0093999768644571,-0.0497363577485085));
#447=CARTESIAN_POINT('',(0.0629087409377098,-0.0133999768644571,-0.0172363577485085));
#448=CARTESIAN_POINT('',(0.0629087409377098,-0.0133999768644571,-0.0172363577485085));
#449=CARTESIAN_POINT('',(0.0629087409377098,-0.0133999768644571,-0.0197363577485084));
#450=CARTESIAN_POINT('',(0.0629087409377098,-0.00939997686445711,-0.0172363577485085));
#451=CARTESIAN_POINT('',(0.0629087409377098,-0.00939997686445711,-0.0197363577485084));
#452=CARTESIAN_POINT('',(0.0005,-0.0133999768644571,-0.0357707505225618));
#453=CARTESIAN_POINT('',(0.0005,-0.0133999768644571,-0.0357707505225618));
#454=CARTESIAN_POINT('',(0.0005,-0.0133999768644571,-0.0382707505225618));
#455=CARTESIAN_POINT('',(0.0005,-0.00939997686445711,-0.0357707505225618));
#456=CARTESIAN_POINT('',(0.0005,-0.00939997686445711,-0.0382707505225618));
#457=CARTESIAN_POINT('',(0.0005,-0.0133999768644571,0.0688164649485697));
#458=CARTESIAN_POINT('',(0.0005,-0.0133999768644571,0.0688164649485697));
#459=CARTESIAN_POINT('',(0.0005,-0.0133999768644571,0.0663164649485697));
#460=CARTESIAN_POINT('',(0.0005,-0.00939997686445714,0.0688164649485697));
#461=CARTESIAN_POINT('',(0.0005,-0.00939997686445714,0.0663164649485697));
#462=CARTESIAN_POINT('',(0.0839543709377098,-0.0133999768644571,0.0707636422514916));
#463=CARTESIAN_POINT('',(0.0839543709377098,-0.0133999768644571,0.0707636422514916));
#464=CARTESIAN_POINT('',(0.0839543709377098,-0.0133999768644571,0.0682636422514916));
#465=CARTESIAN_POINT('',(0.0839543709377098,-0.00939997686445714,0.0707636422514916));
#466=CARTESIAN_POINT('',(0.0839543709377098,-0.00939997686445714,0.0682636422514916));
#467=CARTESIAN_POINT('',(0.0839543709377098,-0.0133999768644571,0.117763642251492));
#468=CARTESIAN_POINT('',(0.0839543709377098,-0.0133999768644571,0.117763642251492));
#469=CARTESIAN_POINT('',(0.0839543709377098,-0.0133999768644571,0.115263642251492));
#470=CARTESIAN_POINT('',(0.0839543709377098,-0.00939997686445715,0.117763642251492));
#471=CARTESIAN_POINT('',(0.0839543709377098,-0.00939997686445715,0.115263642251492));
#472=CARTESIAN_POINT('',(0.0405000004688549,-0.0133999768644571,0.122763642251492));
#473=CARTESIAN_POINT('',(0.0405000004688549,-0.00939997686445715,0.122763642251492));
#474=CARTESIAN_POINT('',(0.0405000004688549,-0.0133999768644571,0.122763642251492));
#475=CARTESIAN_POINT('',(0.0839543709377098,-0.0133999768644571,0.0127636422514915));
#476=CARTESIAN_POINT('',(0.0839543709377098,-0.0133999768644571,0.0127636422514915));
#477=CARTESIAN_POINT('',(0.0839543709377098,-0.0133999768644571,0.0102636422514915));
#478=CARTESIAN_POINT('',(0.0839543709377098,-0.00939997686445712,0.0127636422514915));
#479=CARTESIAN_POINT('',(0.0839543709377098,-0.00939997686445712,0.0102636422514915));
#480=CARTESIAN_POINT('',(0.0405000004688549,-0.0133999768644571,0.0327636422514915));
#481=CARTESIAN_POINT('',(0.0405000004688549,-0.00939997686445713,0.0327636422514915));
#482=MECHANICAL_DESIGN_GEOMETRIC_PRESENTATION_REPRESENTATION('',(#285),
#483);
#483=(
GEOMETRIC_REPRESENTATION_CONTEXT(3)
GLOBAL_UNCERTAINTY_ASSIGNED_CONTEXT((#484))
GLOBAL_UNIT_ASSIGNED_CONTEXT((#487,#486,#485))
REPRESENTATION_CONTEXT('Back Wall','TOP_LEVEL_ASSEMBLY_PART')
);
#484=UNCERTAINTY_MEASURE_WITH_UNIT(LENGTH_MEASURE(1.E-8),#487,
'DISTANCE_ACCURACY_VALUE','Maximum Tolerance applied to model');
#485=(
NAMED_UNIT(*)
SI_UNIT($,.STERADIAN.)
SOLID_ANGLE_UNIT()
);
#486=(
NAMED_UNIT(*)
PLANE_ANGLE_UNIT()
SI_UNIT($,.RADIAN.)
);
#487=(
LENGTH_UNIT()
NAMED_UNIT(*)
SI_UNIT($,.METRE.)
);
#488=PRODUCT_DEFINITION_SHAPE('','',#489);
#489=PRODUCT_DEFINITION('','',#491,#490);
#490=PRODUCT_DEFINITION_CONTEXT('',#497,'design');
#491=PRODUCT_DEFINITION_FORMATION_WITH_SPECIFIED_SOURCE('','',#493,
 .NOT_KNOWN.);
#492=PRODUCT_RELATED_PRODUCT_CATEGORY('','',(#493));
#493=PRODUCT('Back Wall','Back Wall','Back Wall',(#495));
#494=PRODUCT_CATEGORY('','');
#495=PRODUCT_CONTEXT('',#497,'mechanical');
#496=APPLICATION_PROTOCOL_DEFINITION('international standard',
'ap242_managed_model_based_3d_engineering',2020,#497);
#497=APPLICATION_CONTEXT('managed model based 3d engineering');
ENDSEC;
END-ISO-10303-21;
