ISO-10303-21;
HEADER;
/* Generated by software containing ST-Developer
 * from STEP Tools, Inc. (www.steptools.com) 
 */
/* OPTION: using custom renumber hook */

FILE_DESCRIPTION(
/* description */ ('STEP AP242 Edition 2',
'CAx-IF Rec.Pracs.---Representation and Presentation of Product Manufa
cturing Information (PMI)---4.0---2014-10-13',
'CAx-IF Rec.Pracs.---3D Tessellated Geometry---0.4---2014-09-14','2;1',
'CAx-IF Rec.Pracs.---User Defined Attributes---1.5---2016-08-15'),
/* implementation_level */ '2;1');

FILE_NAME(
/* name */ 'Assembly 1 - Output Lever (2)',
/* time_stamp */ '2026-07-14T16:54:42Z',
/* author */ (''),
/* organization */ (''),
/* preprocessor_version */ 'ST-DEVELOPER v20',
/* originating_system */ 'ONSHAPE BY PTC INC, 1.217',
/* authorisation */ '  ');

FILE_SCHEMA (('AP242_MANAGED_MODEL_BASED_3D_ENGINEERING_MIM_LF { 1 0 10303 442 3 1 4 }'));
ENDSEC;

DATA;
#10=SHAPE_REPRESENTATION_RELATIONSHIP('','',#523,#11);
#11=ADVANCED_BREP_SHAPE_REPRESENTATION('',(#521),#888);
#12=CYLINDRICAL_SURFACE('',#551,0.003);
#13=CYLINDRICAL_SURFACE('',#554,0.003);
#14=CYLINDRICAL_SURFACE('',#557,0.003);
#15=CYLINDRICAL_SURFACE('',#560,0.001);
#16=CYLINDRICAL_SURFACE('',#563,0.001);
#17=CYLINDRICAL_SURFACE('',#565,0.003);
#18=CYLINDRICAL_SURFACE('',#569,0.002);
#19=CYLINDRICAL_SURFACE('',#570,0.002);
#20=CYLINDRICAL_SURFACE('',#574,0.003);
#21=CYLINDRICAL_SURFACE('',#575,0.003);
#22=CYLINDRICAL_SURFACE('',#576,0.003);
#23=CYLINDRICAL_SURFACE('',#578,0.003);
#24=CYLINDRICAL_SURFACE('',#579,0.003);
#25=CIRCLE('',#527,0.003);
#26=CIRCLE('',#528,0.003);
#27=CIRCLE('',#529,0.003);
#28=CIRCLE('',#530,0.003);
#29=CIRCLE('',#531,0.002);
#30=CIRCLE('',#532,0.003);
#31=CIRCLE('',#533,0.003);
#32=CIRCLE('',#534,0.003);
#33=CIRCLE('',#535,0.003);
#34=CIRCLE('',#537,0.003);
#35=CIRCLE('',#538,0.001);
#36=CIRCLE('',#539,0.003);
#37=CIRCLE('',#541,0.002);
#38=CIRCLE('',#542,0.003);
#39=CIRCLE('',#543,0.003);
#40=CIRCLE('',#544,0.003);
#41=CIRCLE('',#545,0.003);
#42=CIRCLE('',#546,0.003);
#43=CIRCLE('',#547,0.003);
#44=CIRCLE('',#548,0.001);
#45=CIRCLE('',#549,0.001);
#46=CIRCLE('',#552,0.003);
#47=CIRCLE('',#555,0.003);
#48=CIRCLE('',#558,0.003);
#49=CIRCLE('',#561,0.001);
#50=CIRCLE('',#564,0.001);
#51=CIRCLE('',#567,0.002);
#52=CIRCLE('',#568,0.002);
#53=ORIENTED_EDGE('',*,*,#199,.F.);
#54=ORIENTED_EDGE('',*,*,#200,.T.);
#55=ORIENTED_EDGE('',*,*,#201,.T.);
#56=ORIENTED_EDGE('',*,*,#202,.T.);
#57=ORIENTED_EDGE('',*,*,#201,.F.);
#58=ORIENTED_EDGE('',*,*,#203,.T.);
#59=ORIENTED_EDGE('',*,*,#204,.T.);
#60=ORIENTED_EDGE('',*,*,#205,.F.);
#61=ORIENTED_EDGE('',*,*,#206,.F.);
#62=ORIENTED_EDGE('',*,*,#207,.F.);
#63=ORIENTED_EDGE('',*,*,#208,.T.);
#64=ORIENTED_EDGE('',*,*,#209,.T.);
#65=ORIENTED_EDGE('',*,*,#210,.F.);
#66=ORIENTED_EDGE('',*,*,#211,.T.);
#67=ORIENTED_EDGE('',*,*,#212,.F.);
#68=ORIENTED_EDGE('',*,*,#213,.T.);
#69=ORIENTED_EDGE('',*,*,#214,.F.);
#70=ORIENTED_EDGE('',*,*,#215,.T.);
#71=ORIENTED_EDGE('',*,*,#216,.F.);
#72=ORIENTED_EDGE('',*,*,#217,.T.);
#73=ORIENTED_EDGE('',*,*,#218,.T.);
#74=ORIENTED_EDGE('',*,*,#219,.T.);
#75=ORIENTED_EDGE('',*,*,#220,.F.);
#76=ORIENTED_EDGE('',*,*,#221,.F.);
#77=ORIENTED_EDGE('',*,*,#222,.F.);
#78=ORIENTED_EDGE('',*,*,#223,.F.);
#79=ORIENTED_EDGE('',*,*,#224,.T.);
#80=ORIENTED_EDGE('',*,*,#225,.T.);
#81=ORIENTED_EDGE('',*,*,#226,.T.);
#82=ORIENTED_EDGE('',*,*,#227,.F.);
#83=ORIENTED_EDGE('',*,*,#228,.T.);
#84=ORIENTED_EDGE('',*,*,#199,.T.);
#85=ORIENTED_EDGE('',*,*,#229,.T.);
#86=ORIENTED_EDGE('',*,*,#230,.T.);
#87=ORIENTED_EDGE('',*,*,#231,.T.);
#88=ORIENTED_EDGE('',*,*,#232,.T.);
#89=ORIENTED_EDGE('',*,*,#233,.T.);
#90=ORIENTED_EDGE('',*,*,#234,.T.);
#91=ORIENTED_EDGE('',*,*,#235,.T.);
#92=ORIENTED_EDGE('',*,*,#236,.F.);
#93=ORIENTED_EDGE('',*,*,#237,.F.);
#94=ORIENTED_EDGE('',*,*,#238,.F.);
#95=ORIENTED_EDGE('',*,*,#239,.F.);
#96=ORIENTED_EDGE('',*,*,#234,.F.);
#97=ORIENTED_EDGE('',*,*,#240,.T.);
#98=ORIENTED_EDGE('',*,*,#212,.T.);
#99=ORIENTED_EDGE('',*,*,#241,.T.);
#100=ORIENTED_EDGE('',*,*,#207,.T.);
#101=ORIENTED_EDGE('',*,*,#242,.F.);
#102=ORIENTED_EDGE('',*,*,#243,.F.);
#103=ORIENTED_EDGE('',*,*,#244,.T.);
#104=ORIENTED_EDGE('',*,*,#206,.T.);
#105=ORIENTED_EDGE('',*,*,#245,.F.);
#106=ORIENTED_EDGE('',*,*,#246,.F.);
#107=ORIENTED_EDGE('',*,*,#242,.T.);
#108=ORIENTED_EDGE('',*,*,#205,.T.);
#109=ORIENTED_EDGE('',*,*,#223,.T.);
#110=ORIENTED_EDGE('',*,*,#247,.F.);
#111=ORIENTED_EDGE('',*,*,#248,.F.);
#112=ORIENTED_EDGE('',*,*,#245,.T.);
#113=ORIENTED_EDGE('',*,*,#222,.T.);
#114=ORIENTED_EDGE('',*,*,#249,.F.);
#115=ORIENTED_EDGE('',*,*,#250,.F.);
#116=ORIENTED_EDGE('',*,*,#247,.T.);
#117=ORIENTED_EDGE('',*,*,#208,.F.);
#118=ORIENTED_EDGE('',*,*,#244,.F.);
#119=ORIENTED_EDGE('',*,*,#251,.F.);
#120=ORIENTED_EDGE('',*,*,#252,.T.);
#121=ORIENTED_EDGE('',*,*,#210,.T.);
#122=ORIENTED_EDGE('',*,*,#253,.T.);
#123=ORIENTED_EDGE('',*,*,#254,.F.);
#124=ORIENTED_EDGE('',*,*,#255,.T.);
#125=ORIENTED_EDGE('',*,*,#236,.T.);
#126=ORIENTED_EDGE('',*,*,#256,.T.);
#127=ORIENTED_EDGE('',*,*,#221,.T.);
#128=ORIENTED_EDGE('',*,*,#257,.T.);
#129=ORIENTED_EDGE('',*,*,#239,.T.);
#130=ORIENTED_EDGE('',*,*,#258,.F.);
#131=ORIENTED_EDGE('',*,*,#259,.F.);
#132=ORIENTED_EDGE('',*,*,#249,.T.);
#133=ORIENTED_EDGE('',*,*,#238,.T.);
#134=ORIENTED_EDGE('',*,*,#260,.F.);
#135=ORIENTED_EDGE('',*,*,#261,.F.);
#136=ORIENTED_EDGE('',*,*,#258,.T.);
#137=ORIENTED_EDGE('',*,*,#237,.T.);
#138=ORIENTED_EDGE('',*,*,#255,.F.);
#139=ORIENTED_EDGE('',*,*,#262,.F.);
#140=ORIENTED_EDGE('',*,*,#260,.T.);
#141=ORIENTED_EDGE('',*,*,#211,.F.);
#142=ORIENTED_EDGE('',*,*,#256,.F.);
#143=ORIENTED_EDGE('',*,*,#235,.F.);
#144=ORIENTED_EDGE('',*,*,#241,.F.);
#145=ORIENTED_EDGE('',*,*,#263,.F.);
#146=ORIENTED_EDGE('',*,*,#254,.T.);
#147=ORIENTED_EDGE('',*,*,#264,.T.);
#148=ORIENTED_EDGE('',*,*,#251,.T.);
#149=ORIENTED_EDGE('',*,*,#243,.T.);
#150=ORIENTED_EDGE('',*,*,#246,.T.);
#151=ORIENTED_EDGE('',*,*,#248,.T.);
#152=ORIENTED_EDGE('',*,*,#250,.T.);
#153=ORIENTED_EDGE('',*,*,#259,.T.);
#154=ORIENTED_EDGE('',*,*,#261,.T.);
#155=ORIENTED_EDGE('',*,*,#262,.T.);
#156=ORIENTED_EDGE('',*,*,#264,.F.);
#157=ORIENTED_EDGE('',*,*,#253,.F.);
#158=ORIENTED_EDGE('',*,*,#209,.F.);
#159=ORIENTED_EDGE('',*,*,#252,.F.);
#160=ORIENTED_EDGE('',*,*,#263,.T.);
#161=ORIENTED_EDGE('',*,*,#224,.F.);
#162=ORIENTED_EDGE('',*,*,#220,.T.);
#163=ORIENTED_EDGE('',*,*,#265,.T.);
#164=ORIENTED_EDGE('',*,*,#225,.F.);
#165=ORIENTED_EDGE('',*,*,#257,.F.);
#166=ORIENTED_EDGE('',*,*,#214,.T.);
#167=ORIENTED_EDGE('',*,*,#266,.T.);
#168=ORIENTED_EDGE('',*,*,#232,.F.);
#169=ORIENTED_EDGE('',*,*,#267,.T.);
#170=ORIENTED_EDGE('',*,*,#216,.T.);
#171=ORIENTED_EDGE('',*,*,#268,.T.);
#172=ORIENTED_EDGE('',*,*,#230,.F.);
#173=ORIENTED_EDGE('',*,*,#269,.T.);
#174=ORIENTED_EDGE('',*,*,#233,.F.);
#175=ORIENTED_EDGE('',*,*,#266,.F.);
#176=ORIENTED_EDGE('',*,*,#213,.F.);
#177=ORIENTED_EDGE('',*,*,#240,.F.);
#178=ORIENTED_EDGE('',*,*,#231,.F.);
#179=ORIENTED_EDGE('',*,*,#268,.F.);
#180=ORIENTED_EDGE('',*,*,#215,.F.);
#181=ORIENTED_EDGE('',*,*,#267,.F.);
#182=ORIENTED_EDGE('',*,*,#229,.F.);
#183=ORIENTED_EDGE('',*,*,#202,.F.);
#184=ORIENTED_EDGE('',*,*,#217,.F.);
#185=ORIENTED_EDGE('',*,*,#269,.F.);
#186=ORIENTED_EDGE('',*,*,#227,.T.);
#187=ORIENTED_EDGE('',*,*,#270,.T.);
#188=ORIENTED_EDGE('',*,*,#218,.F.);
#189=ORIENTED_EDGE('',*,*,#204,.F.);
#190=ORIENTED_EDGE('',*,*,#271,.T.);
#191=ORIENTED_EDGE('',*,*,#226,.F.);
#192=ORIENTED_EDGE('',*,*,#265,.F.);
#193=ORIENTED_EDGE('',*,*,#219,.F.);
#194=ORIENTED_EDGE('',*,*,#270,.F.);
#195=ORIENTED_EDGE('',*,*,#228,.F.);
#196=ORIENTED_EDGE('',*,*,#271,.F.);
#197=ORIENTED_EDGE('',*,*,#203,.F.);
#198=ORIENTED_EDGE('',*,*,#200,.F.);
#199=EDGE_CURVE('',#272,#273,#321,.T.);
#200=EDGE_CURVE('',#272,#274,#322,.T.);
#201=EDGE_CURVE('',#274,#275,#323,.T.);
#202=EDGE_CURVE('',#275,#273,#324,.F.);
#203=EDGE_CURVE('',#274,#276,#25,.T.);
#204=EDGE_CURVE('',#276,#277,#325,.T.);
#205=EDGE_CURVE('',#278,#277,#26,.T.);
#206=EDGE_CURVE('',#279,#278,#326,.T.);
#207=EDGE_CURVE('',#280,#279,#27,.T.);
#208=EDGE_CURVE('',#280,#281,#28,.T.);
#209=EDGE_CURVE('',#281,#282,#29,.F.);
#210=EDGE_CURVE('',#283,#282,#327,.T.);
#211=EDGE_CURVE('',#283,#284,#30,.F.);
#212=EDGE_CURVE('',#285,#284,#328,.T.);
#213=EDGE_CURVE('',#285,#286,#31,.F.);
#214=EDGE_CURVE('',#287,#286,#329,.T.);
#215=EDGE_CURVE('',#287,#288,#32,.T.);
#216=EDGE_CURVE('',#289,#288,#330,.T.);
#217=EDGE_CURVE('',#289,#275,#33,.T.);
#218=EDGE_CURVE('',#277,#290,#331,.T.);
#219=EDGE_CURVE('',#290,#291,#34,.T.);
#220=EDGE_CURVE('',#292,#291,#332,.T.);
#221=EDGE_CURVE('',#293,#292,#35,.T.);
#222=EDGE_CURVE('',#294,#293,#333,.T.);
#223=EDGE_CURVE('',#277,#294,#36,.T.);
#224=EDGE_CURVE('',#295,#295,#37,.T.);
#225=EDGE_CURVE('',#296,#297,#334,.T.);
#226=EDGE_CURVE('',#297,#298,#38,.F.);
#227=EDGE_CURVE('',#299,#298,#335,.T.);
#228=EDGE_CURVE('',#299,#272,#39,.F.);
#229=EDGE_CURVE('',#273,#300,#40,.F.);
#230=EDGE_CURVE('',#300,#301,#336,.T.);
#231=EDGE_CURVE('',#301,#302,#41,.F.);
#232=EDGE_CURVE('',#302,#303,#337,.T.);
#233=EDGE_CURVE('',#303,#304,#42,.T.);
#234=EDGE_CURVE('',#304,#305,#338,.T.);
#235=EDGE_CURVE('',#305,#306,#43,.T.);
#236=EDGE_CURVE('',#307,#306,#339,.T.);
#237=EDGE_CURVE('',#308,#307,#44,.T.);
#238=EDGE_CURVE('',#309,#308,#340,.T.);
#239=EDGE_CURVE('',#296,#309,#45,.T.);
#240=EDGE_CURVE('',#304,#285,#341,.T.);
#241=EDGE_CURVE('',#284,#305,#342,.T.);
#242=EDGE_CURVE('',#310,#279,#343,.T.);
#243=EDGE_CURVE('',#311,#310,#46,.T.);
#244=EDGE_CURVE('',#311,#280,#344,.T.);
#245=EDGE_CURVE('',#312,#278,#345,.T.);
#246=EDGE_CURVE('',#310,#312,#346,.T.);
#247=EDGE_CURVE('',#313,#294,#347,.T.);
#248=EDGE_CURVE('',#312,#313,#47,.T.);
#249=EDGE_CURVE('',#314,#293,#348,.T.);
#250=EDGE_CURVE('',#313,#314,#349,.T.);
#251=EDGE_CURVE('',#315,#311,#48,.F.);
#252=EDGE_CURVE('',#315,#281,#350,.T.);
#253=EDGE_CURVE('',#282,#316,#351,.F.);
#254=EDGE_CURVE('',#317,#316,#352,.T.);
#255=EDGE_CURVE('',#317,#307,#353,.T.);
#256=EDGE_CURVE('',#306,#283,#354,.F.);
#257=EDGE_CURVE('',#292,#296,#355,.T.);
#258=EDGE_CURVE('',#318,#309,#356,.T.);
#259=EDGE_CURVE('',#314,#318,#49,.T.);
#260=EDGE_CURVE('',#319,#308,#357,.T.);
#261=EDGE_CURVE('',#318,#319,#358,.T.);
#262=EDGE_CURVE('',#319,#317,#50,.T.);
#263=EDGE_CURVE('',#320,#320,#51,.T.);
#264=EDGE_CURVE('',#316,#315,#52,.T.);
#265=EDGE_CURVE('',#291,#297,#359,.F.);
#266=EDGE_CURVE('',#286,#303,#360,.F.);
#267=EDGE_CURVE('',#302,#287,#361,.T.);
#268=EDGE_CURVE('',#288,#301,#362,.F.);
#269=EDGE_CURVE('',#300,#289,#363,.T.);
#270=EDGE_CURVE('',#298,#290,#364,.T.);
#271=EDGE_CURVE('',#276,#299,#365,.F.);
#272=VERTEX_POINT('',#740);
#273=VERTEX_POINT('',#741);
#274=VERTEX_POINT('',#743);
#275=VERTEX_POINT('',#745);
#276=VERTEX_POINT('',#749);
#277=VERTEX_POINT('',#751);
#278=VERTEX_POINT('',#753);
#279=VERTEX_POINT('',#755);
#280=VERTEX_POINT('',#757);
#281=VERTEX_POINT('',#759);
#282=VERTEX_POINT('',#761);
#283=VERTEX_POINT('',#763);
#284=VERTEX_POINT('',#765);
#285=VERTEX_POINT('',#767);
#286=VERTEX_POINT('',#769);
#287=VERTEX_POINT('',#771);
#288=VERTEX_POINT('',#773);
#289=VERTEX_POINT('',#775);
#290=VERTEX_POINT('',#779);
#291=VERTEX_POINT('',#781);
#292=VERTEX_POINT('',#783);
#293=VERTEX_POINT('',#785);
#294=VERTEX_POINT('',#787);
#295=VERTEX_POINT('',#791);
#296=VERTEX_POINT('',#793);
#297=VERTEX_POINT('',#794);
#298=VERTEX_POINT('',#796);
#299=VERTEX_POINT('',#798);
#300=VERTEX_POINT('',#801);
#301=VERTEX_POINT('',#803);
#302=VERTEX_POINT('',#805);
#303=VERTEX_POINT('',#807);
#304=VERTEX_POINT('',#809);
#305=VERTEX_POINT('',#811);
#306=VERTEX_POINT('',#813);
#307=VERTEX_POINT('',#815);
#308=VERTEX_POINT('',#817);
#309=VERTEX_POINT('',#819);
#310=VERTEX_POINT('',#826);
#311=VERTEX_POINT('',#828);
#312=VERTEX_POINT('',#832);
#313=VERTEX_POINT('',#836);
#314=VERTEX_POINT('',#840);
#315=VERTEX_POINT('',#844);
#316=VERTEX_POINT('',#848);
#317=VERTEX_POINT('',#850);
#318=VERTEX_POINT('',#856);
#319=VERTEX_POINT('',#860);
#320=VERTEX_POINT('',#867);
#321=LINE('',#739,#366);
#322=LINE('',#742,#367);
#323=LINE('',#744,#368);
#324=LINE('',#746,#369);
#325=LINE('',#750,#370);
#326=LINE('',#754,#371);
#327=LINE('',#762,#372);
#328=LINE('',#766,#373);
#329=LINE('',#770,#374);
#330=LINE('',#774,#375);
#331=LINE('',#778,#376);
#332=LINE('',#782,#377);
#333=LINE('',#786,#378);
#334=LINE('',#792,#379);
#335=LINE('',#797,#380);
#336=LINE('',#802,#381);
#337=LINE('',#806,#382);
#338=LINE('',#810,#383);
#339=LINE('',#814,#384);
#340=LINE('',#818,#385);
#341=LINE('',#822,#386);
#342=LINE('',#823,#387);
#343=LINE('',#825,#388);
#344=LINE('',#829,#389);
#345=LINE('',#831,#390);
#346=LINE('',#833,#391);
#347=LINE('',#835,#392);
#348=LINE('',#839,#393);
#349=LINE('',#841,#394);
#350=LINE('',#845,#395);
#351=LINE('',#847,#396);
#352=LINE('',#849,#397);
#353=LINE('',#851,#398);
#354=LINE('',#852,#399);
#355=LINE('',#854,#400);
#356=LINE('',#855,#401);
#357=LINE('',#859,#402);
#358=LINE('',#861,#403);
#359=LINE('',#872,#404);
#360=LINE('',#874,#405);
#361=LINE('',#875,#406);
#362=LINE('',#877,#407);
#363=LINE('',#878,#408);
#364=LINE('',#883,#409);
#365=LINE('',#884,#410);
#366=VECTOR('',#584,1.);
#367=VECTOR('',#585,1.);
#368=VECTOR('',#586,1.);
#369=VECTOR('',#587,1.);
#370=VECTOR('',#592,1.);
#371=VECTOR('',#595,1.);
#372=VECTOR('',#602,1.);
#373=VECTOR('',#605,1.);
#374=VECTOR('',#608,1.);
#375=VECTOR('',#611,1.);
#376=VECTOR('',#616,1.);
#377=VECTOR('',#619,1.);
#378=VECTOR('',#622,1.);
#379=VECTOR('',#629,1.);
#380=VECTOR('',#632,1.);
#381=VECTOR('',#637,1.);
#382=VECTOR('',#640,1.);
#383=VECTOR('',#643,1.);
#384=VECTOR('',#646,1.);
#385=VECTOR('',#649,1.);
#386=VECTOR('',#654,1.);
#387=VECTOR('',#655,1.);
#388=VECTOR('',#658,1.);
#389=VECTOR('',#661,1.);
#390=VECTOR('',#664,1.);
#391=VECTOR('',#665,1.);
#392=VECTOR('',#668,1.);
#393=VECTOR('',#673,1.);
#394=VECTOR('',#674,1.);
#395=VECTOR('',#679,1.);
#396=VECTOR('',#682,1.);
#397=VECTOR('',#683,1.);
#398=VECTOR('',#684,1.);
#399=VECTOR('',#685,1.);
#400=VECTOR('',#688,1.);
#401=VECTOR('',#689,1.);
#402=VECTOR('',#694,1.);
#403=VECTOR('',#695,1.);
#404=VECTOR('',#714,1.);
#405=VECTOR('',#717,1.);
#406=VECTOR('',#718,1.);
#407=VECTOR('',#721,1.);
#408=VECTOR('',#722,1.);
#409=VECTOR('',#731,1.);
#410=VECTOR('',#732,1.);
#411=EDGE_LOOP('',(#53,#54,#55,#56));
#412=EDGE_LOOP('',(#57,#58,#59,#60,#61,#62,#63,#64,#65,#66,#67,#68,#69,
#70,#71,#72));
#413=EDGE_LOOP('',(#73,#74,#75,#76,#77,#78));
#414=EDGE_LOOP('',(#79));
#415=EDGE_LOOP('',(#80,#81,#82,#83,#84,#85,#86,#87,#88,#89,#90,#91,#92,
#93,#94,#95));
#416=EDGE_LOOP('',(#96,#97,#98,#99));
#417=EDGE_LOOP('',(#100,#101,#102,#103));
#418=EDGE_LOOP('',(#104,#105,#106,#107));
#419=EDGE_LOOP('',(#108,#109,#110,#111,#112));
#420=EDGE_LOOP('',(#113,#114,#115,#116));
#421=EDGE_LOOP('',(#117,#118,#119,#120));
#422=EDGE_LOOP('',(#121,#122,#123,#124,#125,#126));
#423=EDGE_LOOP('',(#127,#128,#129,#130,#131,#132));
#424=EDGE_LOOP('',(#133,#134,#135,#136));
#425=EDGE_LOOP('',(#137,#138,#139,#140));
#426=EDGE_LOOP('',(#141,#142,#143,#144));
#427=EDGE_LOOP('',(#145));
#428=EDGE_LOOP('',(#146,#147,#148,#149,#150,#151,#152,#153,#154,#155));
#429=EDGE_LOOP('',(#156,#157,#158,#159));
#430=EDGE_LOOP('',(#160));
#431=EDGE_LOOP('',(#161));
#432=EDGE_LOOP('',(#162,#163,#164,#165));
#433=EDGE_LOOP('',(#166,#167,#168,#169));
#434=EDGE_LOOP('',(#170,#171,#172,#173));
#435=EDGE_LOOP('',(#174,#175,#176,#177));
#436=EDGE_LOOP('',(#178,#179,#180,#181));
#437=EDGE_LOOP('',(#182,#183,#184,#185));
#438=EDGE_LOOP('',(#186,#187,#188,#189,#190));
#439=EDGE_LOOP('',(#191,#192,#193,#194));
#440=EDGE_LOOP('',(#195,#196,#197,#198));
#441=FACE_BOUND('',#411,.T.);
#442=FACE_BOUND('',#412,.T.);
#443=FACE_BOUND('',#413,.T.);
#444=FACE_BOUND('',#414,.T.);
#445=FACE_BOUND('',#415,.T.);
#446=FACE_BOUND('',#416,.T.);
#447=FACE_BOUND('',#417,.T.);
#448=FACE_BOUND('',#418,.T.);
#449=FACE_BOUND('',#419,.T.);
#450=FACE_BOUND('',#420,.T.);
#451=FACE_BOUND('',#421,.T.);
#452=FACE_BOUND('',#422,.T.);
#453=FACE_BOUND('',#423,.T.);
#454=FACE_BOUND('',#424,.T.);
#455=FACE_BOUND('',#425,.T.);
#456=FACE_BOUND('',#426,.T.);
#457=FACE_BOUND('',#427,.T.);
#458=FACE_BOUND('',#428,.T.);
#459=FACE_BOUND('',#429,.T.);
#460=FACE_BOUND('',#430,.T.);
#461=FACE_BOUND('',#431,.T.);
#462=FACE_BOUND('',#432,.T.);
#463=FACE_BOUND('',#433,.T.);
#464=FACE_BOUND('',#434,.T.);
#465=FACE_BOUND('',#435,.T.);
#466=FACE_BOUND('',#436,.T.);
#467=FACE_BOUND('',#437,.T.);
#468=FACE_BOUND('',#438,.T.);
#469=FACE_BOUND('',#439,.T.);
#470=FACE_BOUND('',#440,.T.);
#471=PLANE('',#525);
#472=PLANE('',#526);
#473=PLANE('',#536);
#474=PLANE('',#540);
#475=PLANE('',#550);
#476=PLANE('',#553);
#477=PLANE('',#556);
#478=PLANE('',#559);
#479=PLANE('',#562);
#480=PLANE('',#566);
#481=PLANE('',#571);
#482=PLANE('',#572);
#483=PLANE('',#573);
#484=PLANE('',#577);
#485=ADVANCED_FACE('',(#441),#471,.T.);
#486=ADVANCED_FACE('',(#442),#472,.T.);
#487=ADVANCED_FACE('',(#443),#473,.T.);
#488=ADVANCED_FACE('',(#444,#445),#474,.F.);
#489=ADVANCED_FACE('',(#446),#475,.T.);
#490=ADVANCED_FACE('',(#447),#12,.T.);
#491=ADVANCED_FACE('',(#448),#476,.F.);
#492=ADVANCED_FACE('',(#449),#13,.T.);
#493=ADVANCED_FACE('',(#450),#477,.F.);
#494=ADVANCED_FACE('',(#451),#14,.F.);
#495=ADVANCED_FACE('',(#452),#478,.F.);
#496=ADVANCED_FACE('',(#453),#15,.T.);
#497=ADVANCED_FACE('',(#454),#479,.F.);
#498=ADVANCED_FACE('',(#455),#16,.T.);
#499=ADVANCED_FACE('',(#456),#17,.F.);
#500=ADVANCED_FACE('',(#457,#458),#480,.T.);
#501=ADVANCED_FACE('',(#459),#18,.T.);
#502=ADVANCED_FACE('',(#460,#461),#19,.F.);
#503=ADVANCED_FACE('',(#462),#481,.T.);
#504=ADVANCED_FACE('',(#463),#482,.F.);
#505=ADVANCED_FACE('',(#464),#483,.F.);
#506=ADVANCED_FACE('',(#465),#20,.F.);
#507=ADVANCED_FACE('',(#466),#21,.T.);
#508=ADVANCED_FACE('',(#467),#22,.T.);
#509=ADVANCED_FACE('',(#468),#484,.T.);
#510=ADVANCED_FACE('',(#469),#23,.T.);
#511=ADVANCED_FACE('',(#470),#24,.T.);
#512=CLOSED_SHELL('',(#485,#486,#487,#488,#489,#490,#491,#492,#493,#494,
#495,#496,#497,#498,#499,#500,#501,#502,#503,#504,#505,#506,#507,#508,#509,
#510,#511));
#513=STYLED_ITEM('',(#514),#521);
#514=PRESENTATION_STYLE_ASSIGNMENT((#515));
#515=SURFACE_STYLE_USAGE(.BOTH.,#516);
#516=SURFACE_SIDE_STYLE('',(#517));
#517=SURFACE_STYLE_FILL_AREA(#518);
#518=FILL_AREA_STYLE('',(#519));
#519=FILL_AREA_STYLE_COLOUR('',#520);
#520=DRAUGHTING_PRE_DEFINED_COLOUR('red');
#521=MANIFOLD_SOLID_BREP('Output Lever (2)',#512);
#522=SHAPE_DEFINITION_REPRESENTATION(#893,#523);
#523=SHAPE_REPRESENTATION('Output Lever (2)',(#524),#888);
#524=AXIS2_PLACEMENT_3D('',#737,#580,#581);
#525=AXIS2_PLACEMENT_3D('',#738,#582,#583);
#526=AXIS2_PLACEMENT_3D('',#747,#588,#589);
#527=AXIS2_PLACEMENT_3D('',#748,#590,#591);
#528=AXIS2_PLACEMENT_3D('',#752,#593,#594);
#529=AXIS2_PLACEMENT_3D('',#756,#596,#597);
#530=AXIS2_PLACEMENT_3D('',#758,#598,#599);
#531=AXIS2_PLACEMENT_3D('',#760,#600,#601);
#532=AXIS2_PLACEMENT_3D('',#764,#603,#604);
#533=AXIS2_PLACEMENT_3D('',#768,#606,#607);
#534=AXIS2_PLACEMENT_3D('',#772,#609,#610);
#535=AXIS2_PLACEMENT_3D('',#776,#612,#613);
#536=AXIS2_PLACEMENT_3D('',#777,#614,#615);
#537=AXIS2_PLACEMENT_3D('',#780,#617,#618);
#538=AXIS2_PLACEMENT_3D('',#784,#620,#621);
#539=AXIS2_PLACEMENT_3D('',#788,#623,#624);
#540=AXIS2_PLACEMENT_3D('',#789,#625,#626);
#541=AXIS2_PLACEMENT_3D('',#790,#627,#628);
#542=AXIS2_PLACEMENT_3D('',#795,#630,#631);
#543=AXIS2_PLACEMENT_3D('',#799,#633,#634);
#544=AXIS2_PLACEMENT_3D('',#800,#635,#636);
#545=AXIS2_PLACEMENT_3D('',#804,#638,#639);
#546=AXIS2_PLACEMENT_3D('',#808,#641,#642);
#547=AXIS2_PLACEMENT_3D('',#812,#644,#645);
#548=AXIS2_PLACEMENT_3D('',#816,#647,#648);
#549=AXIS2_PLACEMENT_3D('',#820,#650,#651);
#550=AXIS2_PLACEMENT_3D('',#821,#652,#653);
#551=AXIS2_PLACEMENT_3D('',#824,#656,#657);
#552=AXIS2_PLACEMENT_3D('',#827,#659,#660);
#553=AXIS2_PLACEMENT_3D('',#830,#662,#663);
#554=AXIS2_PLACEMENT_3D('',#834,#666,#667);
#555=AXIS2_PLACEMENT_3D('',#837,#669,#670);
#556=AXIS2_PLACEMENT_3D('',#838,#671,#672);
#557=AXIS2_PLACEMENT_3D('',#842,#675,#676);
#558=AXIS2_PLACEMENT_3D('',#843,#677,#678);
#559=AXIS2_PLACEMENT_3D('',#846,#680,#681);
#560=AXIS2_PLACEMENT_3D('',#853,#686,#687);
#561=AXIS2_PLACEMENT_3D('',#857,#690,#691);
#562=AXIS2_PLACEMENT_3D('',#858,#692,#693);
#563=AXIS2_PLACEMENT_3D('',#862,#696,#697);
#564=AXIS2_PLACEMENT_3D('',#863,#698,#699);
#565=AXIS2_PLACEMENT_3D('',#864,#700,#701);
#566=AXIS2_PLACEMENT_3D('',#865,#702,#703);
#567=AXIS2_PLACEMENT_3D('',#866,#704,#705);
#568=AXIS2_PLACEMENT_3D('',#868,#706,#707);
#569=AXIS2_PLACEMENT_3D('',#869,#708,#709);
#570=AXIS2_PLACEMENT_3D('',#870,#710,#711);
#571=AXIS2_PLACEMENT_3D('',#871,#712,#713);
#572=AXIS2_PLACEMENT_3D('',#873,#715,#716);
#573=AXIS2_PLACEMENT_3D('',#876,#719,#720);
#574=AXIS2_PLACEMENT_3D('',#879,#723,#724);
#575=AXIS2_PLACEMENT_3D('',#880,#725,#726);
#576=AXIS2_PLACEMENT_3D('',#881,#727,#728);
#577=AXIS2_PLACEMENT_3D('',#882,#729,#730);
#578=AXIS2_PLACEMENT_3D('',#885,#733,#734);
#579=AXIS2_PLACEMENT_3D('',#886,#735,#736);
#580=DIRECTION('',(0.,0.,1.));
#581=DIRECTION('',(1.,0.,0.));
#582=DIRECTION('',(1.,0.,0.));
#583=DIRECTION('',(0.,0.,-1.));
#584=DIRECTION('',(0.,-1.,0.));
#585=DIRECTION('',(0.,0.,1.));
#586=DIRECTION('',(0.,-1.,0.));
#587=DIRECTION('',(0.,0.,1.));
#588=DIRECTION('',(0.,0.,1.));
#589=DIRECTION('',(1.,0.,0.));
#590=DIRECTION('',(0.,0.,1.));
#591=DIRECTION('',(1.,0.,0.));
#592=DIRECTION('',(-1.,0.,0.));
#593=DIRECTION('',(0.,0.,1.));
#594=DIRECTION('',(1.,0.,0.));
#595=DIRECTION('',(-0.707106781186549,0.707106781186546,0.));
#596=DIRECTION('',(0.,0.,1.));
#597=DIRECTION('',(1.,0.,0.));
#598=DIRECTION('',(0.,0.,1.));
#599=DIRECTION('',(1.,0.,0.));
#600=DIRECTION('',(0.,0.,1.));
#601=DIRECTION('',(1.,0.,0.));
#602=DIRECTION('',(0.707106781186548,0.707106781186548,0.));
#603=DIRECTION('',(0.,0.,1.));
#604=DIRECTION('',(1.,0.,0.));
#605=DIRECTION('',(-1.,0.,0.));
#606=DIRECTION('',(0.,0.,1.));
#607=DIRECTION('',(1.,0.,0.));
#608=DIRECTION('',(0.,1.,0.));
#609=DIRECTION('',(0.,0.,1.));
#610=DIRECTION('',(1.,0.,0.));
#611=DIRECTION('',(-1.,0.,0.));
#612=DIRECTION('',(0.,0.,1.));
#613=DIRECTION('',(1.,0.,0.));
#614=DIRECTION('',(0.,0.,1.));
#615=DIRECTION('',(1.,0.,0.));
#616=DIRECTION('',(-1.,0.,0.));
#617=DIRECTION('',(0.,0.,1.));
#618=DIRECTION('',(1.,0.,0.));
#619=DIRECTION('',(-1.0547118733939E-15,1.,0.));
#620=DIRECTION('',(0.,0.,1.));
#621=DIRECTION('',(1.,0.,0.));
#622=DIRECTION('',(-0.707106781186547,-0.707106781186548,0.));
#623=DIRECTION('',(0.,0.,1.));
#624=DIRECTION('',(1.,0.,0.));
#625=DIRECTION('',(0.,0.,1.));
#626=DIRECTION('',(1.,0.,0.));
#627=DIRECTION('',(0.,0.,1.));
#628=DIRECTION('',(1.,0.,0.));
#629=DIRECTION('',(-1.0547118733939E-15,1.,0.));
#630=DIRECTION('',(0.,0.,1.));
#631=DIRECTION('',(1.,0.,0.));
#632=DIRECTION('',(-1.,0.,0.));
#633=DIRECTION('',(0.,0.,1.));
#634=DIRECTION('',(1.,0.,0.));
#635=DIRECTION('',(0.,0.,1.));
#636=DIRECTION('',(1.,0.,0.));
#637=DIRECTION('',(-1.,0.,0.));
#638=DIRECTION('',(0.,0.,1.));
#639=DIRECTION('',(1.,0.,0.));
#640=DIRECTION('',(0.,1.,0.));
#641=DIRECTION('',(0.,0.,1.));
#642=DIRECTION('',(1.,0.,0.));
#643=DIRECTION('',(-1.,0.,0.));
#644=DIRECTION('',(0.,0.,1.));
#645=DIRECTION('',(1.,0.,0.));
#646=DIRECTION('',(0.707106781186548,0.707106781186548,0.));
#647=DIRECTION('',(0.,0.,1.));
#648=DIRECTION('',(1.,0.,0.));
#649=DIRECTION('',(0.707106781186548,-0.707106781186547,0.));
#650=DIRECTION('',(0.,0.,1.));
#651=DIRECTION('',(1.,0.,0.));
#652=DIRECTION('',(0.,-1.,0.));
#653=DIRECTION('',(0.,0.,-1.));
#654=DIRECTION('',(0.,0.,1.));
#655=DIRECTION('',(0.,0.,-1.));
#656=DIRECTION('',(0.,0.,-1.));
#657=DIRECTION('',(-1.,0.,0.));
#658=DIRECTION('',(0.,0.,-1.));
#659=DIRECTION('',(0.,0.,1.));
#660=DIRECTION('',(1.,0.,0.));
#661=DIRECTION('',(0.,0.,-1.));
#662=DIRECTION('',(-0.707106781186546,-0.707106781186549,0.));
#663=DIRECTION('',(0.707106781186549,-0.707106781186546,0.));
#664=DIRECTION('',(0.,0.,-1.));
#665=DIRECTION('',(-0.707106781186549,0.707106781186546,0.));
#666=DIRECTION('',(0.,0.,-1.));
#667=DIRECTION('',(-1.,0.,0.));
#668=DIRECTION('',(0.,0.,-1.));
#669=DIRECTION('',(0.,0.,1.));
#670=DIRECTION('',(1.,0.,0.));
#671=DIRECTION('',(0.707106781186548,-0.707106781186547,0.));
#672=DIRECTION('',(0.707106781186547,0.707106781186548,0.));
#673=DIRECTION('',(0.,0.,-1.));
#674=DIRECTION('',(-0.707106781186547,-0.707106781186548,0.));
#675=DIRECTION('',(0.,0.,-1.));
#676=DIRECTION('',(-1.,0.,0.));
#677=DIRECTION('',(0.,0.,1.));
#678=DIRECTION('',(1.,0.,0.));
#679=DIRECTION('',(0.,0.,-1.));
#680=DIRECTION('',(-0.707106781186548,0.707106781186548,0.));
#681=DIRECTION('',(-0.707106781186548,-0.707106781186548,0.));
#682=DIRECTION('',(0.,0.,-1.));
#683=DIRECTION('',(0.707106781186548,0.707106781186548,0.));
#684=DIRECTION('',(0.,0.,-1.));
#685=DIRECTION('',(0.,0.,-1.));
#686=DIRECTION('',(0.,0.,-1.));
#687=DIRECTION('',(-1.,0.,0.));
#688=DIRECTION('',(0.,0.,-1.));
#689=DIRECTION('',(0.,0.,-1.));
#690=DIRECTION('',(0.,0.,1.));
#691=DIRECTION('',(1.,0.,0.));
#692=DIRECTION('',(0.707106781186547,0.707106781186548,0.));
#693=DIRECTION('',(-0.707106781186548,0.707106781186547,0.));
#694=DIRECTION('',(0.,0.,-1.));
#695=DIRECTION('',(0.707106781186548,-0.707106781186547,0.));
#696=DIRECTION('',(0.,0.,-1.));
#697=DIRECTION('',(-1.,0.,0.));
#698=DIRECTION('',(0.,0.,1.));
#699=DIRECTION('',(1.,0.,0.));
#700=DIRECTION('',(0.,0.,-1.));
#701=DIRECTION('',(-1.,0.,0.));
#702=DIRECTION('',(0.,0.,1.));
#703=DIRECTION('',(1.,0.,0.));
#704=DIRECTION('',(0.,0.,1.));
#705=DIRECTION('',(1.,0.,0.));
#706=DIRECTION('',(0.,0.,1.));
#707=DIRECTION('',(1.,0.,0.));
#708=DIRECTION('',(0.,0.,-1.));
#709=DIRECTION('',(-1.,0.,0.));
#710=DIRECTION('',(0.,0.,1.));
#711=DIRECTION('',(1.,0.,0.));
#712=DIRECTION('',(-1.,-1.0547118733939E-15,0.));
#713=DIRECTION('',(1.0547118733939E-15,-1.,0.));
#714=DIRECTION('',(0.,0.,1.));
#715=DIRECTION('',(1.,0.,0.));
#716=DIRECTION('',(0.,0.,-1.));
#717=DIRECTION('',(0.,0.,1.));
#718=DIRECTION('',(0.,0.,1.));
#719=DIRECTION('',(0.,1.,0.));
#720=DIRECTION('',(0.,0.,1.));
#721=DIRECTION('',(0.,0.,1.));
#722=DIRECTION('',(0.,0.,1.));
#723=DIRECTION('',(0.,0.,1.));
#724=DIRECTION('',(1.,0.,0.));
#725=DIRECTION('',(0.,0.,1.));
#726=DIRECTION('',(1.,0.,0.));
#727=DIRECTION('',(0.,0.,-1.));
#728=DIRECTION('',(-1.,0.,0.));
#729=DIRECTION('',(0.,1.,0.));
#730=DIRECTION('',(0.,0.,1.));
#731=DIRECTION('',(0.,0.,1.));
#732=DIRECTION('',(0.,0.,1.));
#733=DIRECTION('',(0.,0.,1.));
#734=DIRECTION('',(1.,0.,0.));
#735=DIRECTION('',(0.,0.,1.));
#736=DIRECTION('',(1.,0.,0.));
#737=CARTESIAN_POINT('',(0.,0.,0.));
#738=CARTESIAN_POINT('',(0.0679087409377098,0.0578868231355428,-0.0182363577485085));
#739=CARTESIAN_POINT('',(0.0679087409377098,0.0578868231355428,-0.0232363577485085));
#740=CARTESIAN_POINT('',(0.0679087409377098,0.0648243314173695,-0.0232363577485085));
#741=CARTESIAN_POINT('',(0.0679087409377098,0.0513868231355428,-0.0232363577485085));
#742=CARTESIAN_POINT('',(0.0679087409377098,0.0648243314173695,-0.0182363577485085));
#743=CARTESIAN_POINT('',(0.0679087409377098,0.0648243314173695,-0.0182363577485085));
#744=CARTESIAN_POINT('',(0.0679087409377098,0.0578868231355428,-0.0182363577485085));
#745=CARTESIAN_POINT('',(0.0679087409377098,0.0513868231355428,-0.0182363577485085));
#746=CARTESIAN_POINT('',(0.0679087409377098,0.0513868231355428,-0.0232363577485085));
#747=CARTESIAN_POINT('',(0.0430609721866531,0.0603868231355428,-0.0182363577485085));
#748=CARTESIAN_POINT('',(0.0649087409377098,0.0648243314173695,-0.0182363577485085));
#749=CARTESIAN_POINT('',(0.0649087409377098,0.0678243314173695,-0.0182363577485085));
#750=CARTESIAN_POINT('',(0.0342019949746699,0.0678243314173695,-0.0182363577485085));
#751=CARTESIAN_POINT('',(0.0380659560053489,0.0678243314173695,-0.0182363577485085));
#752=CARTESIAN_POINT('',(0.0380659560053489,0.0648243314173694,-0.0182363577485085));
#753=CARTESIAN_POINT('',(0.0401872763489085,0.0669456517609291,-0.0182363577485085));
#754=CARTESIAN_POINT('',(0.0417440106522746,0.065388917457563,-0.0182363577485085));
#755=CARTESIAN_POINT('',(0.0433007449556408,0.0638321831541968,-0.0182363577485085));
#756=CARTESIAN_POINT('',(0.0411794246120811,0.0617108628106371,-0.0182363577485085));
#757=CARTESIAN_POINT('',(0.0440600129629803,0.06254884297309,-0.0182363577485085));
#758=CARTESIAN_POINT('',(0.0469406013138793,0.0633868231355428,-0.0182363577485085));
#759=CARTESIAN_POINT('',(0.0441751423911513,0.0622239659015265,-0.0182363577485085));
#760=CARTESIAN_POINT('',(0.0423315031093327,0.0614487277455156,-0.0182363577485085));
#761=CARTESIAN_POINT('',(0.0437457166717058,0.0600345141831425,-0.0182363577485085));
#762=CARTESIAN_POINT('',(0.0385425310403811,0.0548313285518178,-0.0182363577485085));
#763=CARTESIAN_POINT('',(0.0382193459676658,0.0545081434791025,-0.0182363577485085));
#764=CARTESIAN_POINT('',(0.0403406663112255,0.0523868231355429,-0.0182363577485085));
#765=CARTESIAN_POINT('',(0.0403406663112255,0.0553868231355429,-0.0182363577485085));
#766=CARTESIAN_POINT('',(0.0431956192168639,0.0553868231355429,-0.0182363577485085));
#767=CARTESIAN_POINT('',(0.0449087409377098,0.0553868231355429,-0.0182363577485085));
#768=CARTESIAN_POINT('',(0.0449087409377098,0.0523868231355429,-0.0182363577485085));
#769=CARTESIAN_POINT('',(0.0479087409377098,0.0523868231355429,-0.0182363577485085));
#770=CARTESIAN_POINT('',(0.0479087409377098,0.0518868231355428,-0.0182363577485085));
#771=CARTESIAN_POINT('',(0.0479087409377098,0.0513868231355428,-0.0182363577485085));
#772=CARTESIAN_POINT('',(0.0509087409377098,0.0513868231355428,-0.0182363577485085));
#773=CARTESIAN_POINT('',(0.0509087409377098,0.0483868231355428,-0.0182363577485085));
#774=CARTESIAN_POINT('',(0.0579087409377098,0.0483868231355428,-0.0182363577485085));
#775=CARTESIAN_POINT('',(0.0649087409377098,0.0483868231355428,-0.0182363577485085));
#776=CARTESIAN_POINT('',(0.0649087409377098,0.0513868231355428,-0.0182363577485085));
#777=CARTESIAN_POINT('',(0.0430609721866531,0.0603868231355428,-0.0182363577485085));
#778=CARTESIAN_POINT('',(0.0342019949746699,0.0678243314173695,-0.0182363577485085));
#779=CARTESIAN_POINT('',(0.033338033943991,0.0678243314173695,-0.0182363577485085));
#780=CARTESIAN_POINT('',(0.033338033943991,0.0648243314173695,-0.0182363577485085));
#781=CARTESIAN_POINT('',(0.0303380339439909,0.0648243314173695,-0.0182363577485085));
#782=CARTESIAN_POINT('',(0.0303380339439909,0.0694058298081503,-0.0182363577485085));
#783=CARTESIAN_POINT('',(0.0303380339439909,0.0609248364807578,-0.0182363577485085));
#784=CARTESIAN_POINT('',(0.0313380339439909,0.0609248364807578,-0.0182363577485085));
#785=CARTESIAN_POINT('',(0.0306309271628044,0.0616319432619443,-0.0182363577485085));
#786=CARTESIAN_POINT('',(0.0332877814122968,0.0642887975114367,-0.0182363577485085));
#787=CARTESIAN_POINT('',(0.0359446356617892,0.0669456517609291,-0.0182363577485085));
#788=CARTESIAN_POINT('',(0.0380659560053489,0.0648243314173694,-0.0182363577485085));
#789=CARTESIAN_POINT('',(0.0430609721866531,0.0603868231355428,-0.0232363577485085));
#790=CARTESIAN_POINT('',(0.0376729428404091,0.0613178496456975,-0.0232363577485085));
#791=CARTESIAN_POINT('',(0.0396729428404091,0.0613178496456975,-0.0232363577485085));
#792=CARTESIAN_POINT('',(0.0303380339439909,0.0694058298081503,-0.0232363577485085));
#793=CARTESIAN_POINT('',(0.0303380339439909,0.0609248364807578,-0.0232363577485085));
#794=CARTESIAN_POINT('',(0.0303380339439909,0.0648243314173695,-0.0232363577485085));
#795=CARTESIAN_POINT('',(0.033338033943991,0.0648243314173695,-0.0232363577485085));
#796=CARTESIAN_POINT('',(0.033338033943991,0.0678243314173695,-0.0232363577485085));
#797=CARTESIAN_POINT('',(0.0430609721866531,0.0678243314173695,-0.0232363577485085));
#798=CARTESIAN_POINT('',(0.0649087409377098,0.0678243314173695,-0.0232363577485085));
#799=CARTESIAN_POINT('',(0.0649087409377098,0.0648243314173695,-0.0232363577485085));
#800=CARTESIAN_POINT('',(0.0649087409377098,0.0513868231355428,-0.0232363577485085));
#801=CARTESIAN_POINT('',(0.0649087409377098,0.0483868231355428,-0.0232363577485085));
#802=CARTESIAN_POINT('',(0.0579087409377098,0.0483868231355428,-0.0232363577485085));
#803=CARTESIAN_POINT('',(0.0509087409377098,0.0483868231355428,-0.0232363577485085));
#804=CARTESIAN_POINT('',(0.0509087409377098,0.0513868231355428,-0.0232363577485085));
#805=CARTESIAN_POINT('',(0.0479087409377098,0.0513868231355428,-0.0232363577485085));
#806=CARTESIAN_POINT('',(0.0479087409377098,0.0518868231355428,-0.0232363577485085));
#807=CARTESIAN_POINT('',(0.0479087409377098,0.0523868231355429,-0.0232363577485085));
#808=CARTESIAN_POINT('',(0.0449087409377098,0.0523868231355429,-0.0232363577485085));
#809=CARTESIAN_POINT('',(0.0449087409377098,0.0553868231355429,-0.0232363577485085));
#810=CARTESIAN_POINT('',(0.0431956192168639,0.0553868231355429,-0.0232363577485085));
#811=CARTESIAN_POINT('',(0.0403406663112255,0.0553868231355429,-0.0232363577485085));
#812=CARTESIAN_POINT('',(0.0403406663112255,0.0523868231355429,-0.0232363577485085));
#813=CARTESIAN_POINT('',(0.0382193459676658,0.0545081434791025,-0.0232363577485085));
#814=CARTESIAN_POINT('',(0.0385425310403811,0.0548313285518178,-0.0232363577485085));
#815=CARTESIAN_POINT('',(0.037987036456656,0.0542758339680927,-0.0232363577485085));
#816=CARTESIAN_POINT('',(0.0372799296754694,0.0549829407492793,-0.0232363577485085));
#817=CARTESIAN_POINT('',(0.0365728228942829,0.0542758339680927,-0.0232363577485085));
#818=CARTESIAN_POINT('',(0.0336018750285436,0.057246781833832,-0.0232363577485085));
#819=CARTESIAN_POINT('',(0.0306309271628044,0.0602177296995712,-0.0232363577485085));
#820=CARTESIAN_POINT('',(0.0313380339439909,0.0609248364807578,-0.0232363577485085));
#821=CARTESIAN_POINT('',(0.0431956192168639,0.0553868231355429,-0.0182363577485085));
#822=CARTESIAN_POINT('',(0.0449087409377098,0.0553868231355429,-0.0182363577485085));
#823=CARTESIAN_POINT('',(0.0403406663112255,0.0553868231355429,-0.0182363577485085));
#824=CARTESIAN_POINT('',(0.0411794246120811,0.0617108628106371,-0.0182363577485085));
#825=CARTESIAN_POINT('',(0.0433007449556408,0.0638321831541968,-0.0182363577485085));
#826=CARTESIAN_POINT('',(0.0433007449556408,0.0638321831541968,0.0307636422514916));
#827=CARTESIAN_POINT('',(0.0411794246120811,0.0617108628106371,0.0307636422514916));
#828=CARTESIAN_POINT('',(0.0440600129629803,0.06254884297309,0.0307636422514916));
#829=CARTESIAN_POINT('',(0.0440600129629803,0.06254884297309,-0.0182363577485085));
#830=CARTESIAN_POINT('',(0.0417440106522746,0.065388917457563,-0.0182363577485085));
#831=CARTESIAN_POINT('',(0.0401872763489085,0.0669456517609291,-0.0182363577485085));
#832=CARTESIAN_POINT('',(0.0401872763489085,0.0669456517609291,0.0307636422514916));
#833=CARTESIAN_POINT('',(0.0417440106522746,0.065388917457563,0.0307636422514916));
#834=CARTESIAN_POINT('',(0.0380659560053489,0.0648243314173694,-0.0182363577485085));
#835=CARTESIAN_POINT('',(0.0359446356617892,0.0669456517609291,-0.0182363577485085));
#836=CARTESIAN_POINT('',(0.0359446356617892,0.0669456517609291,0.0307636422514916));
#837=CARTESIAN_POINT('',(0.0380659560053489,0.0648243314173694,0.0307636422514916));
#838=CARTESIAN_POINT('',(0.0332877814122968,0.0642887975114367,-0.0182363577485085));
#839=CARTESIAN_POINT('',(0.0306309271628044,0.0616319432619443,-0.0182363577485085));
#840=CARTESIAN_POINT('',(0.0306309271628044,0.0616319432619443,0.0307636422514916));
#841=CARTESIAN_POINT('',(0.0332877814122968,0.0642887975114367,0.0307636422514916));
#842=CARTESIAN_POINT('',(0.0469406013138793,0.0633868231355428,-0.0182363577485085));
#843=CARTESIAN_POINT('',(0.0469406013138793,0.0633868231355428,0.0307636422514916));
#844=CARTESIAN_POINT('',(0.0441751423911513,0.0622239659015265,0.0307636422514916));
#845=CARTESIAN_POINT('',(0.0441751423911513,0.0622239659015265,-0.0182363577485085));
#846=CARTESIAN_POINT('',(0.0385425310403811,0.0548313285518178,-0.0182363577485085));
#847=CARTESIAN_POINT('',(0.0437457166717058,0.0600345141831425,-0.0182363577485085));
#848=CARTESIAN_POINT('',(0.0437457166717058,0.0600345141831425,0.0307636422514916));
#849=CARTESIAN_POINT('',(0.0385425310403811,0.0548313285518178,0.0307636422514916));
#850=CARTESIAN_POINT('',(0.037987036456656,0.0542758339680927,0.0307636422514916));
#851=CARTESIAN_POINT('',(0.037987036456656,0.0542758339680927,-0.0182363577485085));
#852=CARTESIAN_POINT('',(0.0382193459676658,0.0545081434791025,-0.0182363577485085));
#853=CARTESIAN_POINT('',(0.0313380339439909,0.0609248364807578,-0.0182363577485085));
#854=CARTESIAN_POINT('',(0.0303380339439909,0.0609248364807578,-0.0182363577485085));
#855=CARTESIAN_POINT('',(0.0306309271628044,0.0602177296995712,-0.0182363577485085));
#856=CARTESIAN_POINT('',(0.0306309271628044,0.0602177296995712,0.0307636422514916));
#857=CARTESIAN_POINT('',(0.0313380339439909,0.0609248364807578,0.0307636422514916));
#858=CARTESIAN_POINT('',(0.0336018750285436,0.057246781833832,-0.0182363577485085));
#859=CARTESIAN_POINT('',(0.0365728228942829,0.0542758339680927,-0.0182363577485085));
#860=CARTESIAN_POINT('',(0.0365728228942829,0.0542758339680927,0.0307636422514916));
#861=CARTESIAN_POINT('',(0.0336018750285436,0.057246781833832,0.0307636422514916));
#862=CARTESIAN_POINT('',(0.0372799296754694,0.0549829407492793,-0.0182363577485085));
#863=CARTESIAN_POINT('',(0.0372799296754694,0.0549829407492793,0.0307636422514916));
#864=CARTESIAN_POINT('',(0.0403406663112255,0.0523868231355429,-0.0182363577485085));
#865=CARTESIAN_POINT('',(0.0491233874408504,0.0609036360833244,0.0307636422514916));
#866=CARTESIAN_POINT('',(0.0376729428404091,0.0613178496456975,0.0307636422514916));
#867=CARTESIAN_POINT('',(0.0396729428404091,0.0613178496456975,0.0307636422514916));
#868=CARTESIAN_POINT('',(0.0423315031093327,0.0614487277455156,0.0307636422514916));
#869=CARTESIAN_POINT('',(0.0423315031093327,0.0614487277455156,-0.0182363577485085));
#870=CARTESIAN_POINT('',(0.0376729428404091,0.0613178496456975,-0.0262363577485085));
#871=CARTESIAN_POINT('',(0.0303380339439909,0.0694058298081503,-0.0182363577485085));
#872=CARTESIAN_POINT('',(0.0303380339439909,0.0648243314173695,-0.0182363577485085));
#873=CARTESIAN_POINT('',(0.0479087409377098,0.0518868231355428,-0.0232363577485085));
#874=CARTESIAN_POINT('',(0.0479087409377098,0.0523868231355429,-0.0232363577485085));
#875=CARTESIAN_POINT('',(0.0479087409377098,0.0513868231355428,-0.0232363577485085));
#876=CARTESIAN_POINT('',(0.0579087409377098,0.0483868231355428,-0.0232363577485085));
#877=CARTESIAN_POINT('',(0.0509087409377098,0.0483868231355428,-0.0232363577485085));
#878=CARTESIAN_POINT('',(0.0649087409377098,0.0483868231355428,-0.0182363577485085));
#879=CARTESIAN_POINT('',(0.0449087409377098,0.0523868231355429,-0.0182363577485085));
#880=CARTESIAN_POINT('',(0.0509087409377098,0.0513868231355428,-0.0232363577485085));
#881=CARTESIAN_POINT('',(0.0649087409377098,0.0513868231355428,-0.0232363577485085));
#882=CARTESIAN_POINT('',(0.0342019949746699,0.0678243314173695,-0.0432363577485084));
#883=CARTESIAN_POINT('',(0.033338033943991,0.0678243314173695,-0.0432363577485084));
#884=CARTESIAN_POINT('',(0.0649087409377098,0.0678243314173695,-0.0432363577485084));
#885=CARTESIAN_POINT('',(0.033338033943991,0.0648243314173695,-0.0432363577485084));
#886=CARTESIAN_POINT('',(0.0649087409377098,0.0648243314173695,-0.0182363577485085));
#887=MECHANICAL_DESIGN_GEOMETRIC_PRESENTATION_REPRESENTATION('',(#513),
#888);
#888=(
GEOMETRIC_REPRESENTATION_CONTEXT(3)
GLOBAL_UNCERTAINTY_ASSIGNED_CONTEXT((#889))
GLOBAL_UNIT_ASSIGNED_CONTEXT((#892,#891,#890))
REPRESENTATION_CONTEXT('Output Lever (2)','TOP_LEVEL_ASSEMBLY_PART')
);
#889=UNCERTAINTY_MEASURE_WITH_UNIT(LENGTH_MEASURE(1.E-8),#892,
'DISTANCE_ACCURACY_VALUE','Maximum Tolerance applied to model');
#890=(
NAMED_UNIT(*)
SI_UNIT($,.STERADIAN.)
SOLID_ANGLE_UNIT()
);
#891=(
NAMED_UNIT(*)
PLANE_ANGLE_UNIT()
SI_UNIT($,.RADIAN.)
);
#892=(
LENGTH_UNIT()
NAMED_UNIT(*)
SI_UNIT($,.METRE.)
);
#893=PRODUCT_DEFINITION_SHAPE('','',#894);
#894=PRODUCT_DEFINITION('','',#896,#895);
#895=PRODUCT_DEFINITION_CONTEXT('',#902,'design');
#896=PRODUCT_DEFINITION_FORMATION_WITH_SPECIFIED_SOURCE('','',#898,
 .NOT_KNOWN.);
#897=PRODUCT_RELATED_PRODUCT_CATEGORY('','',(#898));
#898=PRODUCT('Output Lever (2)','Output Lever (2)','Output Lever (2)',(#900));
#899=PRODUCT_CATEGORY('','');
#900=PRODUCT_CONTEXT('',#902,'mechanical');
#901=APPLICATION_PROTOCOL_DEFINITION('international standard',
'ap242_managed_model_based_3d_engineering',2020,#902);
#902=APPLICATION_CONTEXT('managed model based 3d engineering');
ENDSEC;
END-ISO-10303-21;
